M48
;GenerationSoftware,Autodesk,EAGLE,9.6.2*%
;CreationDate,2024-02-26T22:06:20Z*%
FMAT,2
ICI,OFF
METRIC,TZ,000.000
T5C0.200
T4C0.300
T3C0.650
T2C1.016
T1C3.048
%
G90
M71
T1
X20320Y77470
X2540Y130810
X20320Y55880
X2540Y55880
X67056Y2540
X20320Y2540
X25908Y77470
X2540Y2540
X49276Y2540
X20320Y130810
X67056Y130810
X49276Y130810
X67056Y77470
X49276Y77470
X49276Y55880
X67056Y55880
X43688Y130810
X25908Y130810
X43688Y77470
X2540Y77470
X43688Y55880
X25908Y55880
X43688Y2540
X25908Y2540
T2
X44958Y96520
X44958Y99060
X44958Y101600
X44958Y104140
X44958Y106680
X44958Y109220
X44958Y111760
X44958Y114300
X44958Y116840
X44958Y119380
X44958Y121920
X44958Y124460
X44958Y127000
X1270Y127000
X1270Y124460
X1270Y121920
X1270Y119380
X1270Y116840
X1270Y114300
X1270Y111760
X1270Y109220
X1270Y106680
X1270Y104140
X1270Y101600
X1270Y99060
X21590Y88900
X21590Y91440
X21590Y93980
X1270Y49530
X1270Y46990
X1270Y44450
X1270Y41910
X1270Y39370
X1270Y36830
X1270Y34290
X1270Y31750
X1270Y29210
X1270Y26670
X1270Y24130
X21590Y13970
X21590Y16510
X21590Y19050
X21590Y21590
X21590Y24130
X21590Y26670
X21590Y29210
X21590Y31750
X21590Y34290
X21590Y36830
X21590Y39370
X21590Y41910
X21590Y44450
X21590Y46990
X21590Y49530
X21590Y52070
X1270Y52070
X21590Y96520
X21590Y99060
X21590Y101600
X21590Y104140
X48006Y127000
X21590Y106680
X21590Y109220
X21590Y111760
X21590Y114300
X48006Y124460
X48006Y121920
X48006Y119380
X48006Y116840
X48006Y114300
X48006Y111760
X48006Y109220
X48006Y106680
X48006Y104140
X48006Y101600
X48006Y99060
X68326Y88900
X68326Y91440
X68326Y93980
X68326Y96520
X68326Y99060
X68326Y101600
X68326Y104140
X68326Y106680
X68326Y109220
X68326Y111760
X68326Y114300
X68326Y116840
X68326Y119380
X68326Y121920
X68326Y124460
X68326Y127000
X24638Y127000
X24638Y124460
X24638Y121920
X21590Y116840
X24638Y119380
X24638Y116840
X24638Y114300
X21590Y119380
X21590Y121920
X24638Y111760
X24638Y109220
X24638Y106680
X24638Y104140
X24638Y101600
X24638Y99060
X44958Y88900
X44958Y91440
X44958Y93980
X21590Y124460
X21590Y127000
X48006Y52070
X48006Y49530
X48006Y46990
X48006Y44450
X48006Y41910
X48006Y39370
X48006Y36830
X48006Y34290
X48006Y31750
X48006Y29210
X48006Y26670
X48006Y24130
X68326Y13970
X68326Y16510
X68326Y19050
X68326Y21590
X68326Y24130
X68326Y26670
X68326Y29210
X68326Y31750
X68326Y34290
X68326Y36830
X68326Y39370
X68326Y41910
X68326Y44450
X68326Y46990
X68326Y49530
X68326Y52070
X24638Y52070
X24638Y49530
X24638Y46990
X24638Y44450
X24638Y41910
X24638Y39370
X24638Y36830
X24638Y34290
X24638Y31750
X24638Y29210
X24638Y26670
X24638Y24130
X44958Y13970
X44958Y16510
X44958Y19050
X44958Y21590
X44958Y24130
X44958Y26670
X44958Y29210
X44958Y31750
X44958Y34290
X44958Y36830
X44958Y39370
X44958Y41910
X44958Y44450
X44958Y46990
X44958Y49530
X44958Y52070
T3
X61056Y4753
X8540Y79683
X55276Y79683
X61056Y79683
X14320Y79683
X31908Y79683
X8540Y4753
X37688Y79683
X14320Y4753
X31908Y4753
X37688Y4753
X55276Y4753
T4
X6050Y19700
X6850Y19700
X7650Y19700
X8450Y19700
X9450Y4250
X9450Y4850
X13450Y4850
X13450Y4250
X5950Y14600
X11430Y10250
X14900Y15400
X16100Y15400
X15200Y14900
X15800Y14900
X3500Y64600
X12000Y34650
X12050Y49050
X20000Y43300
X20000Y36050
X3200Y8952
X5157Y44350
X10100Y42100
X12800Y42100
X12800Y38700
X10100Y38700
X15500Y15400
X16400Y40350
X18750Y32200
X14100Y50900
X19600Y52800
X11000Y27100
X16450Y25050
X8800Y25050
X14500Y19850
X13700Y31900
X10900Y51600
X5750Y54950
X7400Y65200
X6600Y66700
X7350Y62200
X15300Y65100
X11400Y63200
X13800Y60850
X17100Y59000
X21250Y58900
X21500Y65150
X6450Y57750
X13000Y2000
X14800Y2800
X16650Y2800
X5600Y1250
X3800Y5350
X1200Y4850
X17800Y1200
X6250Y8750
X20800Y9400
X22300Y33050
X22300Y30500
X22300Y35550
X22300Y38100
X22300Y40650
X20000Y42700
X22300Y48250
X22300Y50800
X20150Y51450
X22300Y53350
X2900Y49300
X600Y25400
X600Y27950
X10050Y20600
X38168Y77730
X40018Y77730
X28968Y76180
X27168Y80280
X24568Y79780
X41168Y76130
X29618Y83680
X44168Y84330
X45668Y107980
X45668Y105430
X45668Y110480
X45668Y113030
X45668Y115580
X43368Y117630
X45668Y123180
X45668Y125730
X43518Y126380
X45668Y128280
X26268Y124230
X23968Y100330
X23968Y102880
X33418Y95530
X34418Y103880
X34801Y82767
X34318Y106180
X30168Y86730
X26168Y87630
X24368Y87697
X11050Y28950
X11433Y7837
X10950Y31250
X6800Y11800
X2800Y12700
X1000Y12767
X3200Y15700
X2550Y18450
X5150Y21100
X5150Y20500
X10700Y14850
X10000Y14850
X9300Y14850
X8600Y14850
X17650Y14000
X10033Y8337
X6200Y6200
X14083Y7837
X17883Y6187
X5150Y15850
X10050Y18550
X10050Y19150
X7000Y40500
X2600Y43600
X17900Y44550
X11400Y49700
X18228Y32832
X20000Y35250
X11950Y36900
X13650Y38500
X13950Y40448
X9750Y43000
X1550Y67200
X4150Y66650
X4200Y65150
X4200Y63700
X4200Y62200
X7350Y56700
X13100Y43050
X15200Y60400
X15300Y67300
X12000Y52150
X8650Y39150
X4800Y50400
X3900Y6500
X22200Y12650
X15500Y46650
X4750Y53550
X12750Y67300
X26568Y90630
X25918Y93380
X28518Y96030
X28518Y95430
X7110Y5283
X15750Y5283
X15750Y1103
X7110Y1103
X34068Y89780
X33368Y89780
X32668Y89780
X31968Y89780
X41018Y88930
X33401Y83267
X29568Y81130
X37451Y82767
X41251Y81117
X28518Y90780
X33418Y93480
X33418Y94080
X30368Y115430
X25968Y118530
X41268Y119480
X34768Y124630
X41596Y107762
X43368Y110180
X2600Y42700
X35318Y111830
X37018Y113430
X37318Y115378
X33118Y117930
X24918Y142130
X27518Y141580
X27568Y140080
X27568Y138630
X5170Y39750
X5308Y41408
X27568Y137130
X30718Y131630
X36468Y117980
X38568Y135330
X38668Y142230
X35368Y127080
X32018Y114080
X28168Y125330
X27268Y81430
X45568Y87580
X38868Y121580
X28118Y128480
X36118Y142230
X30478Y80213
X39118Y80213
X39118Y76033
X30478Y76033
X10800Y34650
X10800Y49050
X4800Y33300
X5750Y54050
X8900Y23350
X25968Y117630
X28538Y114680
X28676Y116338
X34168Y109580
X34168Y123980
X28168Y108230
X29118Y128980
X32268Y98280
X29468Y119333
X34818Y117280
X36668Y95080
X31014Y81903
X26018Y113930
X31868Y106853
X52786Y94630
X6100Y44403
X11450Y42350
X13300Y20150
X53586Y94630
X54386Y94630
X55186Y94630
X56186Y79180
X2800Y87630
X56186Y79780
X60186Y79780
X60186Y79180
X52686Y89530
X58166Y85180
X61636Y90330
X62836Y90330
X61936Y89830
X62536Y89830
X50236Y139530
X58736Y109580
X58786Y123980
X66736Y118230
X49936Y83882
X51893Y119280
X56836Y117030
X59536Y117030
X59536Y113630
X56836Y113630
X62236Y90330
X63136Y115280
X65486Y107130
X60836Y125830
X66336Y127730
X57736Y102030
X63186Y99980
X55536Y99980
X7646Y6973
X61236Y94780
X60436Y106830
X57636Y126530
X2650Y39000
X8500Y31923
X52486Y129880
X54136Y140130
X53336Y141630
X54086Y137130
X62036Y140030
X58136Y138130
X60536Y135780
X63836Y133930
X67986Y133830
X29418Y19700
X30218Y19700
X31018Y19700
X31818Y19700
X32818Y4250
X32818Y4850
X36818Y4850
X36818Y4250
X29318Y14600
X34798Y10250
X38268Y15400
X39468Y15400
X38568Y14900
X39168Y14900
X26868Y64600
X35368Y34650
X35418Y49050
X43368Y43300
X43368Y36050
X26568Y8952
X28525Y44350
X33468Y42100
X36168Y42100
X36168Y38700
X33468Y38700
X38868Y15400
X39768Y40350
X42118Y32200
X37468Y50900
X42968Y52800
X34368Y27100
X39818Y25050
X32168Y25050
X37868Y19850
X37068Y31900
X34268Y51600
X29118Y54950
X30768Y65200
X29968Y66700
X30718Y62200
X38668Y65100
X34768Y63200
X37168Y60850
X40468Y59000
X44618Y58900
X44868Y65150
X29818Y57750
X36368Y2000
X38168Y2800
X40018Y2800
X28968Y1250
X27168Y5350
X24568Y4850
X41168Y1200
X29618Y8750
X44168Y9400
X45668Y33050
X45668Y30500
X45668Y35550
X45668Y38100
X45668Y40650
X43368Y42700
X45668Y48250
X45668Y50800
X43518Y51450
X45668Y53350
X26268Y49300
X23968Y25400
X23968Y27950
X33418Y20600
X68236Y140080
X53186Y132680
X59736Y76930
X61536Y77730
X63386Y77730
X52336Y76180
X50536Y80280
X47936Y79780
X64536Y76130
X52986Y83680
X67536Y84330
X69036Y107980
X69036Y105430
X69036Y110480
X69036Y113030
X69036Y115580
X66736Y117630
X69036Y123180
X69036Y125730
X66886Y126380
X69036Y128280
X49636Y124230
X47336Y100330
X47336Y102880
X56786Y95530
X57786Y103880
X58169Y82767
X57686Y106180
X34418Y28950
X34801Y7837
X34318Y31250
X30168Y11800
X26168Y12700
X24368Y12767
X26568Y15700
X25918Y18450
X28518Y21100
X28518Y20500
X34068Y14850
X33368Y14850
X32668Y14850
X31968Y14850
X41018Y14000
X33401Y8337
X29568Y6200
X37451Y7837
X41251Y6187
X28518Y15850
X33418Y18550
X33418Y19150
X30368Y40500
X25968Y43600
X41268Y44550
X34768Y49700
X41596Y32832
X43368Y35250
X35318Y36900
X37018Y38500
X37318Y40448
X33118Y43000
X24918Y67200
X27518Y66650
X27568Y65150
X27568Y63700
X27568Y62200
X30718Y56700
X36468Y43050
X38568Y60400
X38668Y67300
X35368Y52150
X32018Y39150
X28168Y50400
X27268Y6500
X45568Y12650
X38868Y46650
X28118Y53550
X36118Y67300
X53536Y86730
X49536Y87630
X47736Y87697
X49936Y90630
X30478Y5283
X39118Y5283
X39118Y1103
X30478Y1103
X49286Y93380
X51886Y96030
X51886Y95430
X57436Y89780
X56736Y89780
X56036Y89780
X55336Y89780
X64386Y88930
X56769Y83267
X52936Y81130
X60819Y82767
X64619Y81117
X51886Y90780
X56786Y93480
X56786Y94080
X53736Y115430
X49336Y118530
X64636Y119480
X25968Y42700
X58136Y124630
X64964Y107762
X66736Y110180
X58686Y111830
X60386Y113430
X60686Y115378
X56486Y117930
X48286Y142130
X28538Y39750
X28676Y41408
X50886Y141580
X50936Y140080
X50936Y138630
X50936Y137130
X54086Y131630
X59836Y117980
X61936Y135330
X62036Y142230
X58736Y127080
X55386Y114080
X51536Y125330
X50636Y81430
X68936Y87580
X62236Y121580
X51486Y128480
X59486Y142230
X53846Y80213
X34168Y34650
X34168Y49050
X28168Y33300
X29118Y54050
X32268Y23350
X62486Y80213
X62486Y76033
X53846Y76033
X49336Y117630
X51906Y114680
X52044Y116338
X57536Y109580
X57536Y123980
X51536Y108230
X52486Y128980
X55636Y98280
X52836Y119333
X58186Y117280
X60036Y95080
X54382Y81903
X29468Y44403
X34818Y42350
X36668Y20150
X49386Y113930
X55236Y106853
X31014Y6973
X26018Y39000
X31868Y31923
X52786Y19700
X53586Y19700
X54386Y19700
X55186Y19700
X56186Y4250
X56186Y4850
X60186Y4850
X60186Y4250
X52686Y14600
X58166Y10250
X61636Y15400
X62836Y15400
X61936Y14900
X62536Y14900
X50236Y64600
X58736Y34650
X58786Y49050
X66736Y43300
X66736Y36050
X49936Y8952
X51893Y44350
X56836Y42100
X59536Y42100
X59536Y38700
X56836Y38700
X62236Y15400
X63136Y40350
X65486Y32200
X60836Y50900
X66336Y52800
X57736Y27100
X63186Y25050
X55536Y25050
X61236Y19850
X60436Y31900
X57636Y51600
X52486Y54950
X54136Y65200
X53336Y66700
X54086Y62200
X62036Y65100
X58136Y63200
X60536Y60850
X63836Y59000
X67986Y58900
X68236Y65150
X53186Y57750
X59736Y2000
X61536Y2800
X63386Y2800
X52336Y1250
X50536Y5350
X47936Y4850
X64536Y1200
X52986Y8750
X67536Y9400
X69036Y33050
X69036Y30500
X69036Y35550
X69036Y38100
X69036Y40650
X66736Y42700
X69036Y48250
X69036Y50800
X66886Y51450
X69036Y53350
X49636Y49300
X47336Y25400
X47336Y27950
X56786Y20600
X57786Y28950
X58169Y7837
X57686Y31250
X53536Y11800
X49536Y12700
X47736Y12767
X49936Y15700
X49286Y18450
X51886Y21100
X51886Y20500
X57436Y14850
X56736Y14850
X56036Y14850
X55336Y14850
X64386Y14000
X56769Y8337
X52936Y6200
X60819Y7837
X64619Y6187
X51886Y15850
X56786Y18550
X56786Y19150
X53736Y40500
X49336Y43600
X64636Y44550
X58136Y49700
X64964Y32832
X66736Y35250
X58686Y36900
X60386Y38500
X60686Y40448
X56486Y43000
X48286Y67200
X50886Y66650
X50936Y65150
X50936Y63700
X50936Y62200
X54086Y56700
X59836Y43050
X61936Y60400
X62036Y67300
X58736Y52150
X55386Y39150
X51536Y50400
X50636Y6500
X68936Y12650
X62236Y46650
X51486Y53550
X59486Y67300
X53846Y5283
X62486Y5283
X62486Y1103
X53846Y1103
X49336Y42700
X51906Y39750
X52044Y41408
X57536Y34650
X57536Y49050
X51536Y33300
X52486Y54050
X55636Y23350
X52836Y44403
X58186Y42350
X60036Y20150
X54382Y6973
X49386Y39000
X55236Y31923
X6050Y94630
X6850Y94630
X7650Y94630
X8450Y94630
X9450Y79180
X9450Y79780
X13450Y79780
X13450Y79180
X5950Y89530
X11430Y85180
X14900Y90330
X16100Y90330
X15200Y89830
X15800Y89830
X3500Y139530
X12000Y109580
X12050Y123980
X20000Y118230
X20000Y110980
X3200Y83882
X5157Y119280
X10100Y117030
X12800Y117030
X12800Y113630
X10100Y113630
X15500Y90330
X16400Y115280
X18750Y107130
X14100Y125830
X19600Y127730
X11000Y102030
X16450Y99980
X8800Y99980
X14500Y94780
X13700Y106830
X10900Y126530
X5750Y129880
X7400Y140130
X6600Y141630
X7350Y137130
X15300Y140030
X11400Y138130
X13800Y135780
X17100Y133930
X21250Y133830
X21500Y140080
X6450Y132680
X13000Y76930
X14800Y77730
X16650Y77730
X5600Y76180
X3800Y80280
X1200Y79780
X17800Y76130
X6250Y83680
X20800Y84330
X22300Y107980
X22300Y105430
X22300Y110480
X22300Y113030
X22300Y115580
X20000Y117630
X22300Y123180
X22300Y125730
X20150Y126380
X22300Y128280
X2900Y124230
X600Y100330
X600Y102880
X10050Y95530
X11050Y103880
X11433Y82767
X10950Y106180
X6800Y86730
X66736Y110980
X1000Y87697
X3200Y90630
X2550Y93380
X5150Y96030
X5150Y95430
X10700Y89780
X10000Y89780
X9300Y89780
X8600Y89780
X17650Y88930
X10033Y83267
X6200Y81130
X14083Y82767
X17883Y81117
X5150Y90780
X10050Y93480
X10050Y94080
X7000Y115430
X2600Y118530
X17900Y119480
X11400Y124630
X18228Y107762
X20000Y110180
X11950Y111830
X13650Y113430
X13950Y115378
X9750Y117930
X1550Y142130
X4150Y141580
X4200Y140080
X4200Y138630
X4200Y137130
X7350Y131630
X13100Y117980
X15200Y135330
X15300Y142230
X12000Y127080
X8650Y114080
X4800Y125330
X3900Y81430
X22200Y87580
X15500Y121580
X4750Y128480
X12750Y142230
X7110Y80213
X15750Y80213
X15750Y76033
X7110Y76033
X2600Y117630
X5170Y114680
X5308Y116338
X10800Y109580
X10800Y123980
X4800Y108230
X5750Y128980
X8900Y98280
X6100Y119333
X11450Y117280
X13300Y95080
X7646Y81903
X2650Y113930
X8500Y106853
X29418Y94630
X30218Y94630
X31018Y94630
X31818Y94630
X32818Y79180
X32818Y79780
X36818Y79780
X36818Y79180
X29318Y89530
X34798Y85180
X38268Y90330
X39468Y90330
X38568Y89830
X39168Y89830
X26868Y139530
X35368Y109580
X35418Y123980
X43368Y118230
X43368Y110980
X26568Y83882
X28525Y119280
X33468Y117030
X36168Y117030
X36168Y113630
X33468Y113630
X38868Y90330
X39768Y115280
X42118Y107130
X37468Y125830
X42968Y127730
X34368Y102030
X39818Y99980
X32168Y99980
X37868Y94780
X37068Y106830
X34268Y126530
X29118Y129880
X30768Y140130
X29968Y141630
X30718Y137130
X38668Y140030
X34768Y138130
X37168Y135780
X40468Y133930
X44618Y133830
X44868Y140080
X29818Y132680
X36368Y76930
T5
X20200Y40500
X16200Y51300
X11100Y19750
X16350Y45800
X17050Y45800
X3900Y8400
X4550Y22700
X4334Y30816
X3900Y7400
X4050Y23000
X3897Y31253
X20850Y45600
X19200Y51300
X7800Y40500
X8381Y40550
X2650Y44650
X1951Y45769
X2682Y45661
X2450Y46200
X11050Y43300
X15450Y49100
X8400Y33900
X7820Y34142
X7200Y34142
X6600Y34000
X5900Y34000
X19950Y37750
X18053Y43453
X2550Y19200
X2550Y17700
X10630Y4800
X11730Y4800
X14800Y3550
X16650Y3550
X8000Y3950
X6250Y3950
X15100Y55500
X7400Y50450
X15100Y56850
X15100Y54200
X7450Y49050
X8050Y51650
X9778Y40122
X17250Y49600
X19600Y47000
X16900Y49050
X19750Y50000
X19250Y60700
X12200Y57550
X13700Y57550
X5700Y59550
X9700Y50450
X19250Y63700
X10300Y51100
X19250Y66650
X18000Y46300
X19250Y62200
X17954Y45270
X9150Y31400
X10350Y30250
X8900Y30000
X8200Y30000
X8900Y29300
X5700Y26800
X4000Y28500
X7400Y25200
X10200Y27900
X6600Y31150
X11750Y30250
X12900Y31350
X16450Y26550
X18000Y28200
X14700Y24900
X11850Y27900
X15150Y31100
X17350Y37300
X16850Y37000
X16007Y33857
X19850Y40000
X18100Y37750
X18050Y38500
X6650Y7500
X20279Y38900
X18850Y31500
X19850Y41000
X19250Y65150
X1704Y12750
X14547Y39847
X17222Y33822
X16600Y38950
X3050Y22700
X6350Y34571
X2500Y30500
X8550Y41950
X1300Y59000
X8650Y49550
X3650Y59000
X8150Y49050
X2200Y59100
X3550Y67300
X13411Y50561
X10900Y60650
X1300Y61650
X9350Y49000
X13750Y36100
X14352Y36714
X14900Y37250
X14222Y47078
X14950Y46050
X9200Y49900
X5550Y37300
X5950Y36850
X6350Y36400
X6750Y35950
X7200Y35450
X17300Y45000
X17200Y44350
X5127Y37700
X5150Y15050
X6750Y35000
X3050Y31700
X12200Y13914
X12907Y33900
X17600Y41850
X17779Y39054
X12878Y35222
X13300Y35650
X5127Y43300
X12150Y51000
X12700Y50550
X13400Y49800
X17617Y43888
X16750Y44750
X43568Y40500
X39568Y51300
X34468Y19750
X39718Y45800
X40418Y45800
X27268Y8400
X27918Y22700
X27702Y30816
X27268Y7400
X27418Y23000
X27265Y31253
X44218Y45600
X42568Y51300
X31168Y40500
X31749Y40550
X26018Y44650
X25319Y45769
X26050Y45661
X25818Y46200
X34418Y43300
X38818Y49100
X31768Y33900
X31188Y34142
X30568Y34142
X29968Y34000
X29268Y34000
X43318Y37750
X41421Y43453
X25918Y19200
X25918Y17700
X33998Y4800
X35098Y4800
X38168Y3550
X40018Y3550
X31368Y3950
X29618Y3950
X38468Y55500
X30768Y50450
X38468Y56850
X38468Y54200
X30818Y49050
X31418Y51650
X33146Y40122
X40618Y49600
X42968Y47000
X40268Y49050
X43118Y50000
X42618Y60700
X35568Y57550
X37068Y57550
X29068Y59550
X33068Y50450
X42618Y63700
X33668Y51100
X42618Y66650
X41368Y46300
X42618Y62200
X41322Y45270
X32518Y31400
X33718Y30250
X32268Y30000
X31568Y30000
X32268Y29300
X29068Y26800
X27368Y28500
X30768Y25200
X33568Y27900
X29968Y31150
X35118Y30250
X36268Y31350
X39818Y26550
X41368Y28200
X38068Y24900
X35218Y27900
X38518Y31100
X40718Y37300
X40218Y37000
X39375Y33857
X43218Y40000
X41468Y37750
X41418Y38500
X30018Y7500
X43647Y38900
X42218Y31500
X43218Y41000
X42618Y65150
X25072Y12750
X37915Y39847
X40590Y33822
X39968Y38950
X26418Y22700
X29718Y34571
X42968Y121930
X40268Y123980
X43118Y124930
X42618Y135630
X35568Y132480
X37068Y132480
X2550Y92630
X29068Y134480
X33068Y125380
X42618Y138630
X33668Y126030
X42618Y141580
X41368Y121230
X42618Y137130
X41322Y120200
X10630Y79730
X9150Y106330
X32518Y106330
X33718Y105180
X32268Y104930
X31568Y104930
X32268Y104230
X29068Y101730
X27368Y103430
X30768Y100130
X33568Y102830
X29968Y106080
X35118Y105180
X36268Y106280
X39818Y101480
X41368Y103130
X38068Y99830
X35218Y102830
X38518Y106030
X10350Y105180
X8900Y104930
X8200Y104930
X8900Y104230
X5700Y101730
X40718Y112230
X40218Y111930
X39375Y108787
X43218Y114930
X41468Y112680
X41418Y113430
X30018Y82430
X43647Y113830
X42218Y106430
X43218Y115930
X42618Y140080
X25072Y87680
X37915Y114777
X40590Y108752
X39968Y113880
X4000Y103430
X7400Y100130
X10200Y102830
X26418Y97630
X29718Y109501
X25868Y105430
X31918Y116880
X26268Y121630
X24668Y133930
X32018Y124480
X27018Y133930
X31518Y123980
X25568Y134030
X26918Y142230
X36779Y125491
X34268Y135580
X24668Y136580
X32718Y123930
X37118Y111030
X37720Y111644
X38268Y112180
X37590Y122008
X38318Y120980
X32568Y124830
X28918Y112230
X29318Y111780
X29718Y111330
X30118Y110880
X30568Y110380
X40668Y119930
X40568Y119280
X28495Y112630
X28518Y89980
X30118Y109930
X26418Y106630
X6600Y106080
X35568Y88844
X36275Y108830
X40968Y116780
X11750Y105180
X12900Y106280
X41147Y113984
X36246Y110152
X36668Y110580
X28495Y118230
X35518Y125930
X36068Y125480
X36768Y124730
X40985Y118818
X40118Y119680
X16450Y101480
X18000Y103130
X14700Y99830
X11850Y102830
X15150Y106030
X11730Y79730
X14800Y78480
X16650Y78480
X8000Y78880
X6250Y78880
X17350Y112230
X16850Y111930
X16007Y108787
X19850Y114930
X18100Y112680
X18050Y113430
X6650Y82430
X20279Y113830
X18053Y118383
X18850Y106430
X19850Y115930
X19250Y140080
X1704Y87680
X14547Y114777
X17222Y108752
X16600Y113880
X15100Y130430
X7400Y125380
X15100Y131780
X3050Y97630
X6350Y109501
X2500Y105430
X8550Y116880
X2900Y121630
X1300Y133930
X8650Y124480
X3650Y133930
X8150Y123980
X2200Y134030
X3550Y142230
X43568Y115430
X39568Y126230
X34468Y94680
X39718Y120730
X40418Y120730
X27268Y83330
X27918Y97630
X27702Y105746
X27268Y82330
X27418Y97930
X27265Y106183
X44218Y120530
X42568Y126230
X31168Y115430
X31749Y115480
X26018Y119580
X25319Y120699
X26050Y120591
X25818Y121130
X34418Y118230
X38818Y124030
X31768Y108830
X31188Y109072
X30568Y109072
X29968Y108930
X29268Y108930
X43318Y112680
X41421Y118383
X13411Y125491
X10900Y135580
X66936Y115430
X62936Y126230
X57836Y94680
X63086Y120730
X63786Y120730
X50636Y83330
X51286Y97630
X51070Y105746
X50636Y82330
X50786Y97930
X50633Y106183
X67586Y120530
X65936Y126230
X54536Y115430
X55117Y115480
X49386Y119580
X48687Y120699
X49418Y120591
X49186Y121130
X57786Y118230
X62186Y124030
X55136Y108830
X54556Y109072
X53936Y109072
X53336Y108930
X52636Y108930
X66686Y112680
X64789Y118383
X1300Y136580
X9350Y123930
X13750Y111030
X14352Y111644
X14900Y112180
X14222Y122008
X14950Y120980
X9200Y124830
X5550Y112230
X5950Y111780
X6350Y111330
X6750Y110880
X7200Y110380
X17300Y119930
X17200Y119280
X5127Y112630
X5150Y89980
X6750Y109930
X3050Y106630
X15100Y129130
X12200Y88844
X12907Y108830
X17600Y116780
X7450Y123980
X8050Y126580
X17779Y113984
X12878Y110152
X13300Y110580
X5127Y118230
X12150Y125930
X12700Y125480
X13400Y124730
X17617Y118818
X16750Y119680
X9778Y115052
X17250Y124530
X19600Y121930
X16900Y123980
X19750Y124930
X19250Y135630
X12200Y132480
X13700Y132480
X2550Y94130
X5700Y134480
X9700Y125380
X19250Y138630
X10300Y126030
X25918Y94130
X25918Y92630
X49286Y94130
X49286Y92630
X57366Y79730
X58466Y79730
X33998Y79730
X35098Y79730
X19250Y141580
X18000Y121230
X61536Y78480
X63386Y78480
X54736Y78880
X52986Y78880
X61836Y130430
X54136Y125380
X61836Y131780
X61836Y129130
X54186Y123980
X54786Y126580
X56514Y115052
X63986Y124530
X66336Y121930
X63636Y123980
X66486Y124930
X65986Y135630
X58936Y132480
X60436Y132480
X19250Y137130
X52436Y134480
X56436Y125380
X65986Y138630
X57036Y126030
X65986Y141580
X64736Y121230
X65986Y137130
X64690Y120200
X17954Y120200
X38168Y78480
X55886Y106330
X57086Y105180
X55636Y104930
X54936Y104930
X55636Y104230
X52436Y101730
X50736Y103430
X54136Y100130
X56936Y102830
X53336Y106080
X58486Y105180
X59636Y106280
X63186Y101480
X64736Y103130
X61436Y99830
X58586Y102830
X61886Y106030
X40018Y78480
X31368Y78880
X29618Y78880
X38468Y130430
X30768Y125380
X64086Y112230
X63586Y111930
X62743Y108787
X66586Y114930
X64836Y112680
X64786Y113430
X53386Y82430
X67015Y113830
X65586Y106430
X66586Y115930
X65986Y140080
X48440Y87680
X61283Y114777
X63958Y108752
X63336Y113880
X38468Y131780
X38468Y129130
X30818Y123980
X49786Y97630
X53086Y109501
X49236Y105430
X55286Y116880
X49636Y121630
X48036Y133930
X55386Y124480
X50386Y133930
X54886Y123980
X48936Y134030
X50286Y142230
X60147Y125491
X57636Y135580
X48036Y136580
X56086Y123930
X60486Y111030
X61088Y111644
X61636Y112180
X60958Y122008
X61686Y120980
X55936Y124830
X52286Y112230
X2900Y46700
X53086Y111330
X53486Y110880
X53936Y110380
X64036Y119930
X63936Y119280
X51863Y112630
X51886Y89980
X53486Y109930
X49786Y106630
X31418Y126580
X58936Y88844
X59643Y108830
X64336Y116780
X33146Y115052
X40618Y124530
X64515Y113984
X59614Y110152
X60036Y110580
X51863Y118230
X58886Y125930
X59436Y125480
X60136Y124730
X64353Y118818
X63486Y119680
X19950Y112680
X5900Y108930
X6600Y108930
X7200Y109072
X7820Y109072
X8400Y108830
X15450Y124030
X11050Y118230
X2450Y121130
X2682Y120591
X1951Y120699
X2650Y119580
X8381Y115480
X7800Y115430
X19200Y126230
X20850Y120530
X3897Y106183
X4050Y97930
X3900Y82330
X4334Y105746
X4550Y97630
X3900Y83330
X17050Y120730
X16350Y120730
X11100Y94680
X16200Y126230
X20200Y115430
X63486Y44750
X64353Y43888
X60136Y49800
X59436Y50550
X58886Y51000
X51863Y43300
X60036Y35650
X59614Y35222
X64515Y39054
X64336Y41850
X59643Y33900
X58936Y13914
X49786Y31700
X53486Y35000
X51886Y15050
X51863Y37700
X63936Y44350
X64036Y45000
X53936Y35450
X53486Y35950
X53086Y36400
X52686Y36850
X52286Y37300
X55936Y49900
X61686Y46050
X60958Y47078
X61636Y37250
X61088Y36714
X60486Y36100
X56086Y49000
X48036Y61650
X57636Y60650
X60147Y50561
X50286Y67300
X48936Y59100
X54886Y49050
X50386Y59000
X55386Y49550
X48036Y59000
X49636Y46700
X55286Y41950
X49236Y30500
X53086Y34571
X49786Y22700
X63336Y38950
X63958Y33822
X61283Y39847
X48440Y12750
X65986Y65150
X66586Y41000
X65586Y31500
X67015Y38900
X53386Y7500
X64786Y38500
X64836Y37750
X66586Y40000
X62743Y33857
X63586Y37000
X64086Y37300
X61886Y31100
X58586Y27900
X61436Y24900
X64736Y28200
X63186Y26550
X59636Y31350
X58486Y30250
X53336Y31150
X56936Y27900
X54136Y25200
X50736Y28500
X52436Y26800
X55636Y29300
X54936Y30000
X55636Y30000
X57086Y30250
X55886Y31400
X64690Y45270
X65986Y62200
X64736Y46300
X65986Y66650
X57036Y51100
X65986Y63700
X56436Y50450
X52436Y59550
X60436Y57550
X58936Y57550
X65986Y60700
X66486Y50000
X63636Y49050
X66336Y47000
X63986Y49600
X56514Y40122
X54786Y51650
X54186Y49050
X61836Y54200
X61836Y56850
X54136Y50450
X61836Y55500
X52986Y3950
X54736Y3950
X63386Y3550
X61536Y3550
X58466Y4800
X57366Y4800
X49286Y17700
X49286Y19200
X64789Y43453
X66686Y37750
X52636Y34000
X53336Y34000
X53936Y34142
X54556Y34142
X55136Y33900
X62186Y49100
X57786Y43300
X49186Y46200
X49418Y45661
X48687Y45769
X49386Y44650
X55117Y40550
X54536Y40500
X65936Y51300
X67586Y45600
X50633Y31253
X50786Y23000
X50636Y7400
X51070Y30816
X51286Y22700
X50636Y8400
X63786Y45800
X63086Y45800
X57836Y19750
X62936Y51300
X66936Y40500
X40118Y44750
X40985Y43888
X36768Y49800
X36068Y50550
X35518Y51000
X28495Y43300
X36668Y35650
X36246Y35222
X41147Y39054
X40968Y41850
X36275Y33900
X35568Y13914
X26418Y31700
X30118Y35000
X28518Y15050
X28495Y37700
X40568Y44350
X40668Y45000
X30568Y35450
X30118Y35950
X29718Y36400
X29318Y36850
X28918Y37300
X32568Y49900
X38318Y46050
X37590Y47078
X38268Y37250
X37720Y36714
X37118Y36100
X32718Y49000
X24668Y61650
X34268Y60650
X36779Y50561
X26918Y67300
X25568Y59100
X31518Y49050
X27018Y59000
X32018Y49550
X24668Y59000
X26268Y46700
X31918Y41950
X25868Y30500
X52686Y111780
M30