G04 EAGLE Gerber RS-274X export*
G75*
%MOMM*%
%FSLAX34Y34*%
%LPD*%
%INSoldermask Top*%
%IPPOS*%
%AMOC8*
5,1,8,0,0,1.08239X$1,22.5*%
G01*
%ADD10C,2.006600*%
%ADD11C,0.230578*%
%ADD12C,0.225369*%
%ADD13C,0.777000*%
%ADD14C,0.229969*%
%ADD15C,0.225400*%
%ADD16C,0.224509*%
%ADD17C,0.428259*%
%ADD18C,0.225588*%
%ADD19C,3.175000*%
%ADD20C,0.762000*%
%ADD21R,0.350000X1.200000*%
%ADD22R,1.200000X0.350000*%
%ADD23C,0.220859*%
%ADD24C,0.225938*%
%ADD25C,0.231559*%
%ADD26C,0.231750*%
%ADD27C,1.127000*%
%ADD28C,1.270000*%
%ADD29C,1.627000*%

G36*
X306064Y790659D02*
X306064Y790659D01*
X306070Y790665D01*
X306075Y790661D01*
X307305Y791026D01*
X307310Y791033D01*
X307315Y791031D01*
X308434Y791661D01*
X308437Y791668D01*
X308443Y791667D01*
X309393Y792530D01*
X309394Y792538D01*
X309400Y792538D01*
X310134Y793591D01*
X310134Y793599D01*
X310139Y793601D01*
X310621Y794791D01*
X310619Y794796D01*
X310623Y794799D01*
X310622Y794800D01*
X310624Y794801D01*
X310829Y796068D01*
X310826Y796073D01*
X310829Y796076D01*
X310829Y808076D01*
X310826Y808080D01*
X310829Y808083D01*
X310674Y809205D01*
X310669Y809210D01*
X310672Y809214D01*
X310301Y810285D01*
X310295Y810289D01*
X310297Y810294D01*
X309724Y811271D01*
X309718Y811274D01*
X309719Y811279D01*
X308966Y812126D01*
X308959Y812128D01*
X308959Y812133D01*
X308056Y812817D01*
X308049Y812817D01*
X308048Y812822D01*
X307029Y813317D01*
X307022Y813315D01*
X307020Y813320D01*
X305923Y813607D01*
X305917Y813604D01*
X305914Y813608D01*
X304783Y813675D01*
X304777Y813675D01*
X303646Y813608D01*
X303641Y813603D01*
X303637Y813607D01*
X302540Y813320D01*
X302536Y813314D01*
X302531Y813317D01*
X301512Y812822D01*
X301509Y812816D01*
X301504Y812817D01*
X300601Y812133D01*
X300599Y812126D01*
X300594Y812126D01*
X299841Y811279D01*
X299841Y811272D01*
X299836Y811271D01*
X299263Y810294D01*
X299264Y810291D01*
X299263Y810290D01*
X299264Y810289D01*
X299264Y810287D01*
X299259Y810285D01*
X298888Y809214D01*
X298890Y809209D01*
X298887Y809207D01*
X298887Y809206D01*
X298886Y809205D01*
X298731Y808083D01*
X298734Y808078D01*
X298731Y808076D01*
X298731Y796076D01*
X298734Y796071D01*
X298731Y796068D01*
X298936Y794801D01*
X298942Y794795D01*
X298939Y794791D01*
X299421Y793601D01*
X299428Y793597D01*
X299426Y793591D01*
X300160Y792538D01*
X300168Y792536D01*
X300167Y792530D01*
X301117Y791667D01*
X301126Y791666D01*
X301126Y791661D01*
X302245Y791031D01*
X302253Y791032D01*
X302255Y791026D01*
X303485Y790661D01*
X303493Y790664D01*
X303496Y790659D01*
X304777Y790577D01*
X304781Y790580D01*
X304783Y790577D01*
X306064Y790659D01*
G37*
G36*
X392464Y790659D02*
X392464Y790659D01*
X392470Y790665D01*
X392475Y790661D01*
X393705Y791026D01*
X393710Y791033D01*
X393715Y791031D01*
X394834Y791661D01*
X394837Y791668D01*
X394843Y791667D01*
X395793Y792530D01*
X395794Y792538D01*
X395800Y792538D01*
X396534Y793591D01*
X396534Y793599D01*
X396539Y793601D01*
X397021Y794791D01*
X397019Y794796D01*
X397023Y794799D01*
X397022Y794800D01*
X397024Y794801D01*
X397229Y796068D01*
X397226Y796073D01*
X397229Y796076D01*
X397229Y808076D01*
X397226Y808080D01*
X397229Y808083D01*
X397074Y809205D01*
X397069Y809210D01*
X397072Y809214D01*
X396701Y810285D01*
X396695Y810289D01*
X396697Y810294D01*
X396124Y811271D01*
X396118Y811274D01*
X396119Y811279D01*
X395366Y812126D01*
X395359Y812128D01*
X395359Y812133D01*
X394456Y812817D01*
X394449Y812817D01*
X394448Y812822D01*
X393429Y813317D01*
X393422Y813315D01*
X393420Y813320D01*
X392323Y813607D01*
X392317Y813604D01*
X392314Y813608D01*
X391183Y813675D01*
X391177Y813675D01*
X390046Y813608D01*
X390041Y813603D01*
X390037Y813607D01*
X388940Y813320D01*
X388936Y813314D01*
X388931Y813317D01*
X387912Y812822D01*
X387909Y812816D01*
X387904Y812817D01*
X387001Y812133D01*
X386999Y812126D01*
X386994Y812126D01*
X386241Y811279D01*
X386241Y811272D01*
X386236Y811271D01*
X385663Y810294D01*
X385664Y810291D01*
X385663Y810290D01*
X385664Y810289D01*
X385664Y810287D01*
X385659Y810285D01*
X385288Y809214D01*
X385290Y809209D01*
X385287Y809207D01*
X385287Y809206D01*
X385286Y809205D01*
X385131Y808083D01*
X385134Y808078D01*
X385131Y808076D01*
X385131Y796076D01*
X385134Y796071D01*
X385131Y796068D01*
X385336Y794801D01*
X385342Y794795D01*
X385339Y794791D01*
X385821Y793601D01*
X385828Y793597D01*
X385826Y793591D01*
X386560Y792538D01*
X386568Y792536D01*
X386567Y792530D01*
X387517Y791667D01*
X387526Y791666D01*
X387526Y791661D01*
X388645Y791031D01*
X388653Y791032D01*
X388655Y791026D01*
X389885Y790661D01*
X389893Y790664D01*
X389896Y790659D01*
X391177Y790577D01*
X391181Y790580D01*
X391183Y790577D01*
X392464Y790659D01*
G37*
G36*
X539744Y790659D02*
X539744Y790659D01*
X539750Y790665D01*
X539755Y790661D01*
X540985Y791026D01*
X540990Y791033D01*
X540995Y791031D01*
X542114Y791661D01*
X542117Y791668D01*
X542123Y791667D01*
X543073Y792530D01*
X543074Y792538D01*
X543080Y792538D01*
X543814Y793591D01*
X543814Y793599D01*
X543819Y793601D01*
X544301Y794791D01*
X544299Y794796D01*
X544303Y794799D01*
X544302Y794800D01*
X544304Y794801D01*
X544509Y796068D01*
X544506Y796073D01*
X544509Y796076D01*
X544509Y808076D01*
X544506Y808080D01*
X544509Y808083D01*
X544354Y809205D01*
X544349Y809210D01*
X544352Y809214D01*
X543981Y810285D01*
X543975Y810289D01*
X543977Y810294D01*
X543404Y811271D01*
X543398Y811274D01*
X543399Y811279D01*
X542646Y812126D01*
X542639Y812128D01*
X542639Y812133D01*
X541736Y812817D01*
X541729Y812817D01*
X541728Y812822D01*
X540709Y813317D01*
X540702Y813315D01*
X540700Y813320D01*
X539603Y813607D01*
X539597Y813604D01*
X539594Y813608D01*
X538463Y813675D01*
X538457Y813675D01*
X537326Y813608D01*
X537321Y813603D01*
X537317Y813607D01*
X536220Y813320D01*
X536216Y813314D01*
X536211Y813317D01*
X535192Y812822D01*
X535189Y812816D01*
X535184Y812817D01*
X534281Y812133D01*
X534279Y812126D01*
X534274Y812126D01*
X533521Y811279D01*
X533521Y811272D01*
X533516Y811271D01*
X532943Y810294D01*
X532944Y810291D01*
X532943Y810290D01*
X532944Y810289D01*
X532944Y810287D01*
X532939Y810285D01*
X532568Y809214D01*
X532570Y809209D01*
X532567Y809207D01*
X532567Y809206D01*
X532566Y809205D01*
X532411Y808083D01*
X532414Y808078D01*
X532411Y808076D01*
X532411Y796076D01*
X532414Y796071D01*
X532411Y796068D01*
X532616Y794801D01*
X532622Y794795D01*
X532619Y794791D01*
X533101Y793601D01*
X533108Y793597D01*
X533106Y793591D01*
X533840Y792538D01*
X533848Y792536D01*
X533847Y792530D01*
X534797Y791667D01*
X534806Y791666D01*
X534806Y791661D01*
X535925Y791031D01*
X535933Y791032D01*
X535935Y791026D01*
X537165Y790661D01*
X537173Y790664D01*
X537176Y790659D01*
X538457Y790577D01*
X538461Y790580D01*
X538463Y790577D01*
X539744Y790659D01*
G37*
G36*
X626144Y790659D02*
X626144Y790659D01*
X626150Y790665D01*
X626155Y790661D01*
X627385Y791026D01*
X627390Y791033D01*
X627395Y791031D01*
X628514Y791661D01*
X628517Y791668D01*
X628523Y791667D01*
X629473Y792530D01*
X629474Y792538D01*
X629480Y792538D01*
X630214Y793591D01*
X630214Y793599D01*
X630219Y793601D01*
X630701Y794791D01*
X630699Y794796D01*
X630703Y794799D01*
X630702Y794800D01*
X630704Y794801D01*
X630909Y796068D01*
X630906Y796073D01*
X630909Y796076D01*
X630909Y808076D01*
X630906Y808080D01*
X630909Y808083D01*
X630754Y809205D01*
X630749Y809210D01*
X630752Y809214D01*
X630381Y810285D01*
X630375Y810289D01*
X630377Y810294D01*
X629804Y811271D01*
X629798Y811274D01*
X629799Y811279D01*
X629046Y812126D01*
X629039Y812128D01*
X629039Y812133D01*
X628136Y812817D01*
X628129Y812817D01*
X628128Y812822D01*
X627109Y813317D01*
X627102Y813315D01*
X627100Y813320D01*
X626003Y813607D01*
X625997Y813604D01*
X625994Y813608D01*
X624863Y813675D01*
X624857Y813675D01*
X623726Y813608D01*
X623721Y813603D01*
X623717Y813607D01*
X622620Y813320D01*
X622616Y813314D01*
X622611Y813317D01*
X621592Y812822D01*
X621589Y812816D01*
X621584Y812817D01*
X620681Y812133D01*
X620679Y812126D01*
X620674Y812126D01*
X619921Y811279D01*
X619921Y811272D01*
X619916Y811271D01*
X619343Y810294D01*
X619344Y810291D01*
X619343Y810290D01*
X619344Y810289D01*
X619344Y810287D01*
X619339Y810285D01*
X618968Y809214D01*
X618970Y809209D01*
X618967Y809207D01*
X618967Y809206D01*
X618966Y809205D01*
X618811Y808083D01*
X618814Y808078D01*
X618811Y808076D01*
X618811Y796076D01*
X618814Y796071D01*
X618811Y796068D01*
X619016Y794801D01*
X619022Y794795D01*
X619019Y794791D01*
X619501Y793601D01*
X619508Y793597D01*
X619506Y793591D01*
X620240Y792538D01*
X620248Y792536D01*
X620247Y792530D01*
X621197Y791667D01*
X621206Y791666D01*
X621206Y791661D01*
X622325Y791031D01*
X622333Y791032D01*
X622335Y791026D01*
X623565Y790661D01*
X623573Y790664D01*
X623576Y790659D01*
X624857Y790577D01*
X624861Y790580D01*
X624863Y790577D01*
X626144Y790659D01*
G37*
G36*
X158784Y790659D02*
X158784Y790659D01*
X158790Y790665D01*
X158795Y790661D01*
X160025Y791026D01*
X160030Y791033D01*
X160035Y791031D01*
X161154Y791661D01*
X161157Y791668D01*
X161163Y791667D01*
X162113Y792530D01*
X162114Y792538D01*
X162120Y792538D01*
X162854Y793591D01*
X162854Y793599D01*
X162859Y793601D01*
X163341Y794791D01*
X163339Y794796D01*
X163343Y794799D01*
X163342Y794800D01*
X163344Y794801D01*
X163549Y796068D01*
X163546Y796073D01*
X163549Y796076D01*
X163549Y808076D01*
X163546Y808080D01*
X163549Y808083D01*
X163394Y809205D01*
X163389Y809210D01*
X163392Y809214D01*
X163021Y810285D01*
X163015Y810289D01*
X163017Y810294D01*
X162444Y811271D01*
X162438Y811274D01*
X162439Y811279D01*
X161686Y812126D01*
X161679Y812128D01*
X161679Y812133D01*
X160776Y812817D01*
X160769Y812817D01*
X160768Y812822D01*
X159749Y813317D01*
X159742Y813315D01*
X159740Y813320D01*
X158643Y813607D01*
X158637Y813604D01*
X158634Y813608D01*
X157503Y813675D01*
X157497Y813675D01*
X156366Y813608D01*
X156361Y813603D01*
X156357Y813607D01*
X155260Y813320D01*
X155256Y813314D01*
X155251Y813317D01*
X154232Y812822D01*
X154229Y812816D01*
X154224Y812817D01*
X153321Y812133D01*
X153319Y812126D01*
X153314Y812126D01*
X152561Y811279D01*
X152561Y811272D01*
X152556Y811271D01*
X151983Y810294D01*
X151984Y810291D01*
X151983Y810290D01*
X151984Y810289D01*
X151984Y810287D01*
X151979Y810285D01*
X151608Y809214D01*
X151610Y809209D01*
X151607Y809207D01*
X151607Y809206D01*
X151606Y809205D01*
X151451Y808083D01*
X151454Y808078D01*
X151451Y808076D01*
X151451Y796076D01*
X151454Y796071D01*
X151451Y796068D01*
X151656Y794801D01*
X151662Y794795D01*
X151659Y794791D01*
X152141Y793601D01*
X152148Y793597D01*
X152146Y793591D01*
X152880Y792538D01*
X152888Y792536D01*
X152887Y792530D01*
X153837Y791667D01*
X153846Y791666D01*
X153846Y791661D01*
X154965Y791031D01*
X154973Y791032D01*
X154975Y791026D01*
X156205Y790661D01*
X156213Y790664D01*
X156216Y790659D01*
X157497Y790577D01*
X157501Y790580D01*
X157503Y790577D01*
X158784Y790659D01*
G37*
G36*
X72384Y790659D02*
X72384Y790659D01*
X72390Y790665D01*
X72395Y790661D01*
X73625Y791026D01*
X73630Y791033D01*
X73635Y791031D01*
X74754Y791661D01*
X74757Y791668D01*
X74763Y791667D01*
X75713Y792530D01*
X75714Y792538D01*
X75720Y792538D01*
X76454Y793591D01*
X76454Y793599D01*
X76459Y793601D01*
X76941Y794791D01*
X76939Y794796D01*
X76943Y794799D01*
X76942Y794800D01*
X76944Y794801D01*
X77149Y796068D01*
X77146Y796073D01*
X77149Y796076D01*
X77149Y808076D01*
X77146Y808080D01*
X77149Y808083D01*
X76994Y809205D01*
X76989Y809210D01*
X76992Y809214D01*
X76621Y810285D01*
X76615Y810289D01*
X76617Y810294D01*
X76044Y811271D01*
X76038Y811274D01*
X76039Y811279D01*
X75286Y812126D01*
X75279Y812128D01*
X75279Y812133D01*
X74376Y812817D01*
X74369Y812817D01*
X74368Y812822D01*
X73349Y813317D01*
X73342Y813315D01*
X73340Y813320D01*
X72243Y813607D01*
X72237Y813604D01*
X72234Y813608D01*
X71103Y813675D01*
X71097Y813675D01*
X69966Y813608D01*
X69961Y813603D01*
X69957Y813607D01*
X68860Y813320D01*
X68856Y813314D01*
X68851Y813317D01*
X67832Y812822D01*
X67829Y812816D01*
X67824Y812817D01*
X66921Y812133D01*
X66919Y812126D01*
X66914Y812126D01*
X66161Y811279D01*
X66161Y811272D01*
X66156Y811271D01*
X65583Y810294D01*
X65584Y810291D01*
X65583Y810290D01*
X65584Y810289D01*
X65584Y810287D01*
X65579Y810285D01*
X65208Y809214D01*
X65210Y809209D01*
X65207Y809207D01*
X65207Y809206D01*
X65206Y809205D01*
X65051Y808083D01*
X65054Y808078D01*
X65051Y808076D01*
X65051Y796076D01*
X65054Y796071D01*
X65051Y796068D01*
X65256Y794801D01*
X65262Y794795D01*
X65259Y794791D01*
X65741Y793601D01*
X65748Y793597D01*
X65746Y793591D01*
X66480Y792538D01*
X66488Y792536D01*
X66487Y792530D01*
X67437Y791667D01*
X67446Y791666D01*
X67446Y791661D01*
X68565Y791031D01*
X68573Y791032D01*
X68575Y791026D01*
X69805Y790661D01*
X69813Y790664D01*
X69816Y790659D01*
X71097Y790577D01*
X71101Y790580D01*
X71103Y790577D01*
X72384Y790659D01*
G37*
G36*
X158784Y41359D02*
X158784Y41359D01*
X158790Y41365D01*
X158795Y41361D01*
X160025Y41726D01*
X160030Y41733D01*
X160035Y41731D01*
X161154Y42361D01*
X161157Y42368D01*
X161163Y42367D01*
X162113Y43230D01*
X162114Y43238D01*
X162120Y43238D01*
X162854Y44291D01*
X162854Y44299D01*
X162859Y44301D01*
X163341Y45491D01*
X163339Y45496D01*
X163343Y45499D01*
X163342Y45500D01*
X163344Y45501D01*
X163549Y46768D01*
X163546Y46773D01*
X163549Y46776D01*
X163549Y58776D01*
X163546Y58780D01*
X163549Y58783D01*
X163394Y59905D01*
X163389Y59910D01*
X163392Y59914D01*
X163021Y60985D01*
X163015Y60989D01*
X163017Y60994D01*
X162444Y61971D01*
X162438Y61974D01*
X162439Y61979D01*
X161686Y62826D01*
X161679Y62828D01*
X161679Y62833D01*
X160776Y63517D01*
X160769Y63517D01*
X160768Y63522D01*
X159749Y64017D01*
X159742Y64015D01*
X159740Y64020D01*
X158643Y64307D01*
X158637Y64304D01*
X158634Y64308D01*
X157503Y64375D01*
X157497Y64375D01*
X156366Y64308D01*
X156361Y64303D01*
X156357Y64307D01*
X155260Y64020D01*
X155256Y64014D01*
X155251Y64017D01*
X154232Y63522D01*
X154229Y63516D01*
X154224Y63517D01*
X153321Y62833D01*
X153319Y62826D01*
X153314Y62826D01*
X152561Y61979D01*
X152561Y61972D01*
X152556Y61971D01*
X151983Y60994D01*
X151984Y60991D01*
X151983Y60990D01*
X151984Y60989D01*
X151984Y60987D01*
X151979Y60985D01*
X151608Y59914D01*
X151610Y59909D01*
X151607Y59907D01*
X151607Y59906D01*
X151606Y59905D01*
X151451Y58783D01*
X151454Y58778D01*
X151451Y58776D01*
X151451Y46776D01*
X151454Y46771D01*
X151451Y46768D01*
X151656Y45501D01*
X151662Y45495D01*
X151659Y45491D01*
X152141Y44301D01*
X152148Y44297D01*
X152146Y44291D01*
X152880Y43238D01*
X152888Y43236D01*
X152887Y43230D01*
X153837Y42367D01*
X153846Y42366D01*
X153846Y42361D01*
X154965Y41731D01*
X154973Y41732D01*
X154975Y41726D01*
X156205Y41361D01*
X156213Y41364D01*
X156216Y41359D01*
X157497Y41277D01*
X157501Y41280D01*
X157503Y41277D01*
X158784Y41359D01*
G37*
G36*
X626144Y41359D02*
X626144Y41359D01*
X626150Y41365D01*
X626155Y41361D01*
X627385Y41726D01*
X627390Y41733D01*
X627395Y41731D01*
X628514Y42361D01*
X628517Y42368D01*
X628523Y42367D01*
X629473Y43230D01*
X629474Y43238D01*
X629480Y43238D01*
X630214Y44291D01*
X630214Y44299D01*
X630219Y44301D01*
X630701Y45491D01*
X630699Y45496D01*
X630703Y45499D01*
X630702Y45500D01*
X630704Y45501D01*
X630909Y46768D01*
X630906Y46773D01*
X630909Y46776D01*
X630909Y58776D01*
X630906Y58780D01*
X630909Y58783D01*
X630754Y59905D01*
X630749Y59910D01*
X630752Y59914D01*
X630381Y60985D01*
X630375Y60989D01*
X630377Y60994D01*
X629804Y61971D01*
X629798Y61974D01*
X629799Y61979D01*
X629046Y62826D01*
X629039Y62828D01*
X629039Y62833D01*
X628136Y63517D01*
X628129Y63517D01*
X628128Y63522D01*
X627109Y64017D01*
X627102Y64015D01*
X627100Y64020D01*
X626003Y64307D01*
X625997Y64304D01*
X625994Y64308D01*
X624863Y64375D01*
X624857Y64375D01*
X623726Y64308D01*
X623721Y64303D01*
X623717Y64307D01*
X622620Y64020D01*
X622616Y64014D01*
X622611Y64017D01*
X621592Y63522D01*
X621589Y63516D01*
X621584Y63517D01*
X620681Y62833D01*
X620679Y62826D01*
X620674Y62826D01*
X619921Y61979D01*
X619921Y61972D01*
X619916Y61971D01*
X619343Y60994D01*
X619344Y60991D01*
X619343Y60990D01*
X619344Y60989D01*
X619344Y60987D01*
X619339Y60985D01*
X618968Y59914D01*
X618970Y59909D01*
X618967Y59907D01*
X618967Y59906D01*
X618966Y59905D01*
X618811Y58783D01*
X618814Y58778D01*
X618811Y58776D01*
X618811Y46776D01*
X618814Y46771D01*
X618811Y46768D01*
X619016Y45501D01*
X619022Y45495D01*
X619019Y45491D01*
X619501Y44301D01*
X619508Y44297D01*
X619506Y44291D01*
X620240Y43238D01*
X620248Y43236D01*
X620247Y43230D01*
X621197Y42367D01*
X621206Y42366D01*
X621206Y42361D01*
X622325Y41731D01*
X622333Y41732D01*
X622335Y41726D01*
X623565Y41361D01*
X623573Y41364D01*
X623576Y41359D01*
X624857Y41277D01*
X624861Y41280D01*
X624863Y41277D01*
X626144Y41359D01*
G37*
G36*
X306064Y41359D02*
X306064Y41359D01*
X306070Y41365D01*
X306075Y41361D01*
X307305Y41726D01*
X307310Y41733D01*
X307315Y41731D01*
X308434Y42361D01*
X308437Y42368D01*
X308443Y42367D01*
X309393Y43230D01*
X309394Y43238D01*
X309400Y43238D01*
X310134Y44291D01*
X310134Y44299D01*
X310139Y44301D01*
X310621Y45491D01*
X310619Y45496D01*
X310623Y45499D01*
X310622Y45500D01*
X310624Y45501D01*
X310829Y46768D01*
X310826Y46773D01*
X310829Y46776D01*
X310829Y58776D01*
X310826Y58780D01*
X310829Y58783D01*
X310674Y59905D01*
X310669Y59910D01*
X310672Y59914D01*
X310301Y60985D01*
X310295Y60989D01*
X310297Y60994D01*
X309724Y61971D01*
X309718Y61974D01*
X309719Y61979D01*
X308966Y62826D01*
X308959Y62828D01*
X308959Y62833D01*
X308056Y63517D01*
X308049Y63517D01*
X308048Y63522D01*
X307029Y64017D01*
X307022Y64015D01*
X307020Y64020D01*
X305923Y64307D01*
X305917Y64304D01*
X305914Y64308D01*
X304783Y64375D01*
X304777Y64375D01*
X303646Y64308D01*
X303641Y64303D01*
X303637Y64307D01*
X302540Y64020D01*
X302536Y64014D01*
X302531Y64017D01*
X301512Y63522D01*
X301509Y63516D01*
X301504Y63517D01*
X300601Y62833D01*
X300599Y62826D01*
X300594Y62826D01*
X299841Y61979D01*
X299841Y61972D01*
X299836Y61971D01*
X299263Y60994D01*
X299264Y60991D01*
X299263Y60990D01*
X299264Y60989D01*
X299264Y60987D01*
X299259Y60985D01*
X298888Y59914D01*
X298890Y59909D01*
X298887Y59907D01*
X298887Y59906D01*
X298886Y59905D01*
X298731Y58783D01*
X298734Y58778D01*
X298731Y58776D01*
X298731Y46776D01*
X298734Y46771D01*
X298731Y46768D01*
X298936Y45501D01*
X298942Y45495D01*
X298939Y45491D01*
X299421Y44301D01*
X299428Y44297D01*
X299426Y44291D01*
X300160Y43238D01*
X300168Y43236D01*
X300167Y43230D01*
X301117Y42367D01*
X301126Y42366D01*
X301126Y42361D01*
X302245Y41731D01*
X302253Y41732D01*
X302255Y41726D01*
X303485Y41361D01*
X303493Y41364D01*
X303496Y41359D01*
X304777Y41277D01*
X304781Y41280D01*
X304783Y41277D01*
X306064Y41359D01*
G37*
G36*
X392464Y41359D02*
X392464Y41359D01*
X392470Y41365D01*
X392475Y41361D01*
X393705Y41726D01*
X393710Y41733D01*
X393715Y41731D01*
X394834Y42361D01*
X394837Y42368D01*
X394843Y42367D01*
X395793Y43230D01*
X395794Y43238D01*
X395800Y43238D01*
X396534Y44291D01*
X396534Y44299D01*
X396539Y44301D01*
X397021Y45491D01*
X397019Y45496D01*
X397023Y45499D01*
X397022Y45500D01*
X397024Y45501D01*
X397229Y46768D01*
X397226Y46773D01*
X397229Y46776D01*
X397229Y58776D01*
X397226Y58780D01*
X397229Y58783D01*
X397074Y59905D01*
X397069Y59910D01*
X397072Y59914D01*
X396701Y60985D01*
X396695Y60989D01*
X396697Y60994D01*
X396124Y61971D01*
X396118Y61974D01*
X396119Y61979D01*
X395366Y62826D01*
X395359Y62828D01*
X395359Y62833D01*
X394456Y63517D01*
X394449Y63517D01*
X394448Y63522D01*
X393429Y64017D01*
X393422Y64015D01*
X393420Y64020D01*
X392323Y64307D01*
X392317Y64304D01*
X392314Y64308D01*
X391183Y64375D01*
X391177Y64375D01*
X390046Y64308D01*
X390041Y64303D01*
X390037Y64307D01*
X388940Y64020D01*
X388936Y64014D01*
X388931Y64017D01*
X387912Y63522D01*
X387909Y63516D01*
X387904Y63517D01*
X387001Y62833D01*
X386999Y62826D01*
X386994Y62826D01*
X386241Y61979D01*
X386241Y61972D01*
X386236Y61971D01*
X385663Y60994D01*
X385664Y60991D01*
X385663Y60990D01*
X385664Y60989D01*
X385664Y60987D01*
X385659Y60985D01*
X385288Y59914D01*
X385290Y59909D01*
X385287Y59907D01*
X385287Y59906D01*
X385286Y59905D01*
X385131Y58783D01*
X385134Y58778D01*
X385131Y58776D01*
X385131Y46776D01*
X385134Y46771D01*
X385131Y46768D01*
X385336Y45501D01*
X385342Y45495D01*
X385339Y45491D01*
X385821Y44301D01*
X385828Y44297D01*
X385826Y44291D01*
X386560Y43238D01*
X386568Y43236D01*
X386567Y43230D01*
X387517Y42367D01*
X387526Y42366D01*
X387526Y42361D01*
X388645Y41731D01*
X388653Y41732D01*
X388655Y41726D01*
X389885Y41361D01*
X389893Y41364D01*
X389896Y41359D01*
X391177Y41277D01*
X391181Y41280D01*
X391183Y41277D01*
X392464Y41359D01*
G37*
G36*
X539744Y41359D02*
X539744Y41359D01*
X539750Y41365D01*
X539755Y41361D01*
X540985Y41726D01*
X540990Y41733D01*
X540995Y41731D01*
X542114Y42361D01*
X542117Y42368D01*
X542123Y42367D01*
X543073Y43230D01*
X543074Y43238D01*
X543080Y43238D01*
X543814Y44291D01*
X543814Y44299D01*
X543819Y44301D01*
X544301Y45491D01*
X544299Y45496D01*
X544303Y45499D01*
X544302Y45500D01*
X544304Y45501D01*
X544509Y46768D01*
X544506Y46773D01*
X544509Y46776D01*
X544509Y58776D01*
X544506Y58780D01*
X544509Y58783D01*
X544354Y59905D01*
X544349Y59910D01*
X544352Y59914D01*
X543981Y60985D01*
X543975Y60989D01*
X543977Y60994D01*
X543404Y61971D01*
X543398Y61974D01*
X543399Y61979D01*
X542646Y62826D01*
X542639Y62828D01*
X542639Y62833D01*
X541736Y63517D01*
X541729Y63517D01*
X541728Y63522D01*
X540709Y64017D01*
X540702Y64015D01*
X540700Y64020D01*
X539603Y64307D01*
X539597Y64304D01*
X539594Y64308D01*
X538463Y64375D01*
X538457Y64375D01*
X537326Y64308D01*
X537321Y64303D01*
X537317Y64307D01*
X536220Y64020D01*
X536216Y64014D01*
X536211Y64017D01*
X535192Y63522D01*
X535189Y63516D01*
X535184Y63517D01*
X534281Y62833D01*
X534279Y62826D01*
X534274Y62826D01*
X533521Y61979D01*
X533521Y61972D01*
X533516Y61971D01*
X532943Y60994D01*
X532944Y60991D01*
X532943Y60990D01*
X532944Y60989D01*
X532944Y60987D01*
X532939Y60985D01*
X532568Y59914D01*
X532570Y59909D01*
X532567Y59907D01*
X532567Y59906D01*
X532566Y59905D01*
X532411Y58783D01*
X532414Y58778D01*
X532411Y58776D01*
X532411Y46776D01*
X532414Y46771D01*
X532411Y46768D01*
X532616Y45501D01*
X532622Y45495D01*
X532619Y45491D01*
X533101Y44301D01*
X533108Y44297D01*
X533106Y44291D01*
X533840Y43238D01*
X533848Y43236D01*
X533847Y43230D01*
X534797Y42367D01*
X534806Y42366D01*
X534806Y42361D01*
X535925Y41731D01*
X535933Y41732D01*
X535935Y41726D01*
X537165Y41361D01*
X537173Y41364D01*
X537176Y41359D01*
X538457Y41277D01*
X538461Y41280D01*
X538463Y41277D01*
X539744Y41359D01*
G37*
G36*
X72384Y41359D02*
X72384Y41359D01*
X72390Y41365D01*
X72395Y41361D01*
X73625Y41726D01*
X73630Y41733D01*
X73635Y41731D01*
X74754Y42361D01*
X74757Y42368D01*
X74763Y42367D01*
X75713Y43230D01*
X75714Y43238D01*
X75720Y43238D01*
X76454Y44291D01*
X76454Y44299D01*
X76459Y44301D01*
X76941Y45491D01*
X76939Y45496D01*
X76943Y45499D01*
X76942Y45500D01*
X76944Y45501D01*
X77149Y46768D01*
X77146Y46773D01*
X77149Y46776D01*
X77149Y58776D01*
X77146Y58780D01*
X77149Y58783D01*
X76994Y59905D01*
X76989Y59910D01*
X76992Y59914D01*
X76621Y60985D01*
X76615Y60989D01*
X76617Y60994D01*
X76044Y61971D01*
X76038Y61974D01*
X76039Y61979D01*
X75286Y62826D01*
X75279Y62828D01*
X75279Y62833D01*
X74376Y63517D01*
X74369Y63517D01*
X74368Y63522D01*
X73349Y64017D01*
X73342Y64015D01*
X73340Y64020D01*
X72243Y64307D01*
X72237Y64304D01*
X72234Y64308D01*
X71103Y64375D01*
X71097Y64375D01*
X69966Y64308D01*
X69961Y64303D01*
X69957Y64307D01*
X68860Y64020D01*
X68856Y64014D01*
X68851Y64017D01*
X67832Y63522D01*
X67829Y63516D01*
X67824Y63517D01*
X66921Y62833D01*
X66919Y62826D01*
X66914Y62826D01*
X66161Y61979D01*
X66161Y61972D01*
X66156Y61971D01*
X65583Y60994D01*
X65584Y60991D01*
X65583Y60990D01*
X65584Y60989D01*
X65584Y60987D01*
X65579Y60985D01*
X65208Y59914D01*
X65210Y59909D01*
X65207Y59907D01*
X65207Y59906D01*
X65206Y59905D01*
X65051Y58783D01*
X65054Y58778D01*
X65051Y58776D01*
X65051Y46776D01*
X65054Y46771D01*
X65051Y46768D01*
X65256Y45501D01*
X65262Y45495D01*
X65259Y45491D01*
X65741Y44301D01*
X65748Y44297D01*
X65746Y44291D01*
X66480Y43238D01*
X66488Y43236D01*
X66487Y43230D01*
X67437Y42367D01*
X67446Y42366D01*
X67446Y42361D01*
X68565Y41731D01*
X68573Y41732D01*
X68575Y41726D01*
X69805Y41361D01*
X69813Y41364D01*
X69816Y41359D01*
X71097Y41277D01*
X71101Y41280D01*
X71103Y41277D01*
X72384Y41359D01*
G37*
G36*
X72271Y751387D02*
X72271Y751387D01*
X72276Y751392D01*
X72280Y751389D01*
X73403Y751724D01*
X73407Y751730D01*
X73411Y751728D01*
X74447Y752276D01*
X74450Y752282D01*
X74455Y752281D01*
X75363Y753020D01*
X75365Y753027D01*
X75370Y753027D01*
X76117Y753929D01*
X76117Y753937D01*
X76123Y753937D01*
X76679Y754968D01*
X76678Y754975D01*
X76683Y754977D01*
X77027Y756096D01*
X77025Y756103D01*
X77029Y756106D01*
X77149Y757271D01*
X77147Y757274D01*
X77149Y757276D01*
X77149Y763276D01*
X77147Y763279D01*
X77149Y763281D01*
X77038Y764457D01*
X77033Y764462D01*
X77036Y764466D01*
X76698Y765598D01*
X76692Y765602D01*
X76694Y765607D01*
X76142Y766651D01*
X76135Y766654D01*
X76137Y766659D01*
X75391Y767575D01*
X75384Y767576D01*
X75384Y767582D01*
X74475Y768335D01*
X74467Y768335D01*
X74467Y768340D01*
X73427Y768901D01*
X73420Y768900D01*
X73418Y768905D01*
X72289Y769252D01*
X72283Y769250D01*
X72280Y769254D01*
X71105Y769375D01*
X71098Y769371D01*
X71094Y769375D01*
X69754Y769218D01*
X69748Y769213D01*
X69743Y769216D01*
X68472Y768765D01*
X68467Y768758D01*
X68462Y768760D01*
X67323Y768038D01*
X67320Y768030D01*
X67314Y768031D01*
X66364Y767073D01*
X66363Y767065D01*
X66357Y767064D01*
X65644Y765919D01*
X65645Y765911D01*
X65639Y765909D01*
X65199Y764633D01*
X65201Y764626D01*
X65197Y764623D01*
X65051Y763281D01*
X65053Y763278D01*
X65051Y763276D01*
X65051Y757276D01*
X65053Y757273D01*
X65051Y757270D01*
X65206Y755941D01*
X65212Y755935D01*
X65209Y755931D01*
X65656Y754670D01*
X65663Y754665D01*
X65661Y754660D01*
X66378Y753530D01*
X66385Y753527D01*
X66384Y753521D01*
X67335Y752579D01*
X67343Y752578D01*
X67343Y752572D01*
X68479Y751865D01*
X68487Y751866D01*
X68489Y751860D01*
X69754Y751424D01*
X69759Y751425D01*
X69760Y751425D01*
X69763Y751425D01*
X69765Y751421D01*
X71095Y751277D01*
X71101Y751281D01*
X71105Y751277D01*
X72271Y751387D01*
G37*
G36*
X305951Y751387D02*
X305951Y751387D01*
X305956Y751392D01*
X305960Y751389D01*
X307083Y751724D01*
X307087Y751730D01*
X307091Y751728D01*
X308127Y752276D01*
X308130Y752282D01*
X308135Y752281D01*
X309043Y753020D01*
X309045Y753027D01*
X309050Y753027D01*
X309797Y753929D01*
X309797Y753937D01*
X309803Y753937D01*
X310359Y754968D01*
X310358Y754975D01*
X310363Y754977D01*
X310707Y756096D01*
X310705Y756103D01*
X310709Y756106D01*
X310829Y757271D01*
X310827Y757274D01*
X310829Y757276D01*
X310829Y763276D01*
X310827Y763279D01*
X310829Y763281D01*
X310718Y764457D01*
X310713Y764462D01*
X310716Y764466D01*
X310378Y765598D01*
X310372Y765602D01*
X310374Y765607D01*
X309822Y766651D01*
X309815Y766654D01*
X309817Y766659D01*
X309071Y767575D01*
X309064Y767576D01*
X309064Y767582D01*
X308155Y768335D01*
X308147Y768335D01*
X308147Y768340D01*
X307107Y768901D01*
X307100Y768900D01*
X307098Y768905D01*
X305969Y769252D01*
X305963Y769250D01*
X305960Y769254D01*
X304785Y769375D01*
X304778Y769371D01*
X304774Y769375D01*
X303434Y769218D01*
X303428Y769213D01*
X303423Y769216D01*
X302152Y768765D01*
X302147Y768758D01*
X302142Y768760D01*
X301003Y768038D01*
X301000Y768030D01*
X300994Y768031D01*
X300044Y767073D01*
X300043Y767065D01*
X300037Y767064D01*
X299324Y765919D01*
X299325Y765911D01*
X299319Y765909D01*
X298879Y764633D01*
X298881Y764626D01*
X298877Y764623D01*
X298731Y763281D01*
X298733Y763278D01*
X298731Y763276D01*
X298731Y757276D01*
X298733Y757273D01*
X298731Y757270D01*
X298886Y755941D01*
X298892Y755935D01*
X298889Y755931D01*
X299336Y754670D01*
X299343Y754665D01*
X299341Y754660D01*
X300058Y753530D01*
X300065Y753527D01*
X300064Y753521D01*
X301015Y752579D01*
X301023Y752578D01*
X301023Y752572D01*
X302159Y751865D01*
X302167Y751866D01*
X302169Y751860D01*
X303434Y751424D01*
X303439Y751425D01*
X303440Y751425D01*
X303443Y751425D01*
X303445Y751421D01*
X304775Y751277D01*
X304781Y751281D01*
X304785Y751277D01*
X305951Y751387D01*
G37*
G36*
X539631Y751387D02*
X539631Y751387D01*
X539636Y751392D01*
X539640Y751389D01*
X540763Y751724D01*
X540767Y751730D01*
X540771Y751728D01*
X541807Y752276D01*
X541810Y752282D01*
X541815Y752281D01*
X542723Y753020D01*
X542725Y753027D01*
X542730Y753027D01*
X543477Y753929D01*
X543477Y753937D01*
X543483Y753937D01*
X544039Y754968D01*
X544038Y754975D01*
X544043Y754977D01*
X544387Y756096D01*
X544385Y756103D01*
X544389Y756106D01*
X544509Y757271D01*
X544507Y757274D01*
X544509Y757276D01*
X544509Y763276D01*
X544507Y763279D01*
X544509Y763281D01*
X544398Y764457D01*
X544393Y764462D01*
X544396Y764466D01*
X544058Y765598D01*
X544052Y765602D01*
X544054Y765607D01*
X543502Y766651D01*
X543495Y766654D01*
X543497Y766659D01*
X542751Y767575D01*
X542744Y767576D01*
X542744Y767582D01*
X541835Y768335D01*
X541827Y768335D01*
X541827Y768340D01*
X540787Y768901D01*
X540780Y768900D01*
X540778Y768905D01*
X539649Y769252D01*
X539643Y769250D01*
X539640Y769254D01*
X538465Y769375D01*
X538458Y769371D01*
X538454Y769375D01*
X537114Y769218D01*
X537108Y769213D01*
X537103Y769216D01*
X535832Y768765D01*
X535827Y768758D01*
X535822Y768760D01*
X534683Y768038D01*
X534680Y768030D01*
X534674Y768031D01*
X533724Y767073D01*
X533723Y767065D01*
X533717Y767064D01*
X533004Y765919D01*
X533005Y765911D01*
X532999Y765909D01*
X532559Y764633D01*
X532561Y764626D01*
X532557Y764623D01*
X532411Y763281D01*
X532413Y763278D01*
X532411Y763276D01*
X532411Y757276D01*
X532413Y757273D01*
X532411Y757270D01*
X532566Y755941D01*
X532572Y755935D01*
X532569Y755931D01*
X533016Y754670D01*
X533023Y754665D01*
X533021Y754660D01*
X533738Y753530D01*
X533745Y753527D01*
X533744Y753521D01*
X534695Y752579D01*
X534703Y752578D01*
X534703Y752572D01*
X535839Y751865D01*
X535847Y751866D01*
X535849Y751860D01*
X537114Y751424D01*
X537119Y751425D01*
X537120Y751425D01*
X537123Y751425D01*
X537125Y751421D01*
X538455Y751277D01*
X538461Y751281D01*
X538465Y751277D01*
X539631Y751387D01*
G37*
G36*
X626031Y751387D02*
X626031Y751387D01*
X626036Y751392D01*
X626040Y751389D01*
X627163Y751724D01*
X627167Y751730D01*
X627171Y751728D01*
X628207Y752276D01*
X628210Y752282D01*
X628215Y752281D01*
X629123Y753020D01*
X629125Y753027D01*
X629130Y753027D01*
X629877Y753929D01*
X629877Y753937D01*
X629883Y753937D01*
X630439Y754968D01*
X630438Y754975D01*
X630443Y754977D01*
X630787Y756096D01*
X630785Y756103D01*
X630789Y756106D01*
X630909Y757271D01*
X630907Y757274D01*
X630909Y757276D01*
X630909Y763276D01*
X630907Y763279D01*
X630909Y763281D01*
X630798Y764457D01*
X630793Y764462D01*
X630796Y764466D01*
X630458Y765598D01*
X630452Y765602D01*
X630454Y765607D01*
X629902Y766651D01*
X629895Y766654D01*
X629897Y766659D01*
X629151Y767575D01*
X629144Y767576D01*
X629144Y767582D01*
X628235Y768335D01*
X628227Y768335D01*
X628227Y768340D01*
X627187Y768901D01*
X627180Y768900D01*
X627178Y768905D01*
X626049Y769252D01*
X626043Y769250D01*
X626040Y769254D01*
X624865Y769375D01*
X624858Y769371D01*
X624854Y769375D01*
X623514Y769218D01*
X623508Y769213D01*
X623503Y769216D01*
X622232Y768765D01*
X622227Y768758D01*
X622222Y768760D01*
X621083Y768038D01*
X621080Y768030D01*
X621074Y768031D01*
X620124Y767073D01*
X620123Y767065D01*
X620117Y767064D01*
X619404Y765919D01*
X619405Y765911D01*
X619399Y765909D01*
X618959Y764633D01*
X618961Y764626D01*
X618957Y764623D01*
X618811Y763281D01*
X618813Y763278D01*
X618811Y763276D01*
X618811Y757276D01*
X618813Y757273D01*
X618811Y757270D01*
X618966Y755941D01*
X618972Y755935D01*
X618969Y755931D01*
X619416Y754670D01*
X619423Y754665D01*
X619421Y754660D01*
X620138Y753530D01*
X620145Y753527D01*
X620144Y753521D01*
X621095Y752579D01*
X621103Y752578D01*
X621103Y752572D01*
X622239Y751865D01*
X622247Y751866D01*
X622249Y751860D01*
X623514Y751424D01*
X623519Y751425D01*
X623520Y751425D01*
X623523Y751425D01*
X623525Y751421D01*
X624855Y751277D01*
X624861Y751281D01*
X624865Y751277D01*
X626031Y751387D01*
G37*
G36*
X158671Y751387D02*
X158671Y751387D01*
X158676Y751392D01*
X158680Y751389D01*
X159803Y751724D01*
X159807Y751730D01*
X159811Y751728D01*
X160847Y752276D01*
X160850Y752282D01*
X160855Y752281D01*
X161763Y753020D01*
X161765Y753027D01*
X161770Y753027D01*
X162517Y753929D01*
X162517Y753937D01*
X162523Y753937D01*
X163079Y754968D01*
X163078Y754975D01*
X163083Y754977D01*
X163427Y756096D01*
X163425Y756103D01*
X163429Y756106D01*
X163549Y757271D01*
X163547Y757274D01*
X163549Y757276D01*
X163549Y763276D01*
X163547Y763279D01*
X163549Y763281D01*
X163438Y764457D01*
X163433Y764462D01*
X163436Y764466D01*
X163098Y765598D01*
X163092Y765602D01*
X163094Y765607D01*
X162542Y766651D01*
X162535Y766654D01*
X162537Y766659D01*
X161791Y767575D01*
X161784Y767576D01*
X161784Y767582D01*
X160875Y768335D01*
X160867Y768335D01*
X160867Y768340D01*
X159827Y768901D01*
X159820Y768900D01*
X159818Y768905D01*
X158689Y769252D01*
X158683Y769250D01*
X158680Y769254D01*
X157505Y769375D01*
X157498Y769371D01*
X157494Y769375D01*
X156154Y769218D01*
X156148Y769213D01*
X156143Y769216D01*
X154872Y768765D01*
X154867Y768758D01*
X154862Y768760D01*
X153723Y768038D01*
X153720Y768030D01*
X153714Y768031D01*
X152764Y767073D01*
X152763Y767065D01*
X152757Y767064D01*
X152044Y765919D01*
X152045Y765911D01*
X152039Y765909D01*
X151599Y764633D01*
X151601Y764626D01*
X151597Y764623D01*
X151451Y763281D01*
X151453Y763278D01*
X151451Y763276D01*
X151451Y757276D01*
X151453Y757273D01*
X151451Y757270D01*
X151606Y755941D01*
X151612Y755935D01*
X151609Y755931D01*
X152056Y754670D01*
X152063Y754665D01*
X152061Y754660D01*
X152778Y753530D01*
X152785Y753527D01*
X152784Y753521D01*
X153735Y752579D01*
X153743Y752578D01*
X153743Y752572D01*
X154879Y751865D01*
X154887Y751866D01*
X154889Y751860D01*
X156154Y751424D01*
X156159Y751425D01*
X156160Y751425D01*
X156163Y751425D01*
X156165Y751421D01*
X157495Y751277D01*
X157501Y751281D01*
X157505Y751277D01*
X158671Y751387D01*
G37*
G36*
X392351Y751387D02*
X392351Y751387D01*
X392356Y751392D01*
X392360Y751389D01*
X393483Y751724D01*
X393487Y751730D01*
X393491Y751728D01*
X394527Y752276D01*
X394530Y752282D01*
X394535Y752281D01*
X395443Y753020D01*
X395445Y753027D01*
X395450Y753027D01*
X396197Y753929D01*
X396197Y753937D01*
X396203Y753937D01*
X396759Y754968D01*
X396758Y754975D01*
X396763Y754977D01*
X397107Y756096D01*
X397105Y756103D01*
X397109Y756106D01*
X397229Y757271D01*
X397227Y757274D01*
X397229Y757276D01*
X397229Y763276D01*
X397227Y763279D01*
X397229Y763281D01*
X397118Y764457D01*
X397113Y764462D01*
X397116Y764466D01*
X396778Y765598D01*
X396772Y765602D01*
X396774Y765607D01*
X396222Y766651D01*
X396215Y766654D01*
X396217Y766659D01*
X395471Y767575D01*
X395464Y767576D01*
X395464Y767582D01*
X394555Y768335D01*
X394547Y768335D01*
X394547Y768340D01*
X393507Y768901D01*
X393500Y768900D01*
X393498Y768905D01*
X392369Y769252D01*
X392363Y769250D01*
X392360Y769254D01*
X391185Y769375D01*
X391178Y769371D01*
X391174Y769375D01*
X389834Y769218D01*
X389828Y769213D01*
X389823Y769216D01*
X388552Y768765D01*
X388547Y768758D01*
X388542Y768760D01*
X387403Y768038D01*
X387400Y768030D01*
X387394Y768031D01*
X386444Y767073D01*
X386443Y767065D01*
X386437Y767064D01*
X385724Y765919D01*
X385725Y765911D01*
X385719Y765909D01*
X385279Y764633D01*
X385281Y764626D01*
X385277Y764623D01*
X385131Y763281D01*
X385133Y763278D01*
X385131Y763276D01*
X385131Y757276D01*
X385133Y757273D01*
X385131Y757270D01*
X385286Y755941D01*
X385292Y755935D01*
X385289Y755931D01*
X385736Y754670D01*
X385743Y754665D01*
X385741Y754660D01*
X386458Y753530D01*
X386465Y753527D01*
X386464Y753521D01*
X387415Y752579D01*
X387423Y752578D01*
X387423Y752572D01*
X388559Y751865D01*
X388567Y751866D01*
X388569Y751860D01*
X389834Y751424D01*
X389839Y751425D01*
X389840Y751425D01*
X389843Y751425D01*
X389845Y751421D01*
X391175Y751277D01*
X391181Y751281D01*
X391185Y751277D01*
X392351Y751387D01*
G37*
G36*
X626031Y2087D02*
X626031Y2087D01*
X626036Y2092D01*
X626040Y2089D01*
X627163Y2424D01*
X627167Y2430D01*
X627171Y2428D01*
X628207Y2976D01*
X628210Y2982D01*
X628215Y2981D01*
X629123Y3720D01*
X629125Y3727D01*
X629130Y3727D01*
X629877Y4629D01*
X629877Y4637D01*
X629883Y4637D01*
X630439Y5668D01*
X630438Y5675D01*
X630443Y5677D01*
X630787Y6796D01*
X630785Y6803D01*
X630789Y6806D01*
X630909Y7971D01*
X630907Y7974D01*
X630909Y7976D01*
X630909Y13976D01*
X630907Y13979D01*
X630909Y13981D01*
X630798Y15157D01*
X630793Y15162D01*
X630796Y15166D01*
X630458Y16298D01*
X630452Y16302D01*
X630454Y16307D01*
X629902Y17351D01*
X629895Y17354D01*
X629897Y17359D01*
X629151Y18275D01*
X629144Y18276D01*
X629144Y18282D01*
X628235Y19035D01*
X628227Y19035D01*
X628227Y19040D01*
X627187Y19601D01*
X627180Y19600D01*
X627178Y19605D01*
X626049Y19952D01*
X626043Y19950D01*
X626040Y19954D01*
X624865Y20075D01*
X624858Y20071D01*
X624854Y20075D01*
X623514Y19918D01*
X623508Y19913D01*
X623503Y19916D01*
X622232Y19465D01*
X622227Y19458D01*
X622222Y19460D01*
X621083Y18738D01*
X621080Y18730D01*
X621074Y18731D01*
X620124Y17773D01*
X620123Y17765D01*
X620117Y17764D01*
X619404Y16619D01*
X619405Y16611D01*
X619399Y16609D01*
X618959Y15333D01*
X618961Y15326D01*
X618957Y15323D01*
X618811Y13981D01*
X618813Y13978D01*
X618811Y13976D01*
X618811Y7976D01*
X618813Y7973D01*
X618811Y7970D01*
X618966Y6641D01*
X618972Y6635D01*
X618969Y6631D01*
X619416Y5370D01*
X619423Y5365D01*
X619421Y5360D01*
X620138Y4230D01*
X620145Y4227D01*
X620144Y4221D01*
X621095Y3279D01*
X621103Y3278D01*
X621103Y3272D01*
X622239Y2565D01*
X622247Y2566D01*
X622249Y2560D01*
X623514Y2124D01*
X623519Y2125D01*
X623520Y2125D01*
X623523Y2125D01*
X623525Y2121D01*
X624855Y1977D01*
X624861Y1981D01*
X624865Y1977D01*
X626031Y2087D01*
G37*
G36*
X539631Y2087D02*
X539631Y2087D01*
X539636Y2092D01*
X539640Y2089D01*
X540763Y2424D01*
X540767Y2430D01*
X540771Y2428D01*
X541807Y2976D01*
X541810Y2982D01*
X541815Y2981D01*
X542723Y3720D01*
X542725Y3727D01*
X542730Y3727D01*
X543477Y4629D01*
X543477Y4637D01*
X543483Y4637D01*
X544039Y5668D01*
X544038Y5675D01*
X544043Y5677D01*
X544387Y6796D01*
X544385Y6803D01*
X544389Y6806D01*
X544509Y7971D01*
X544507Y7974D01*
X544509Y7976D01*
X544509Y13976D01*
X544507Y13979D01*
X544509Y13981D01*
X544398Y15157D01*
X544393Y15162D01*
X544396Y15166D01*
X544058Y16298D01*
X544052Y16302D01*
X544054Y16307D01*
X543502Y17351D01*
X543495Y17354D01*
X543497Y17359D01*
X542751Y18275D01*
X542744Y18276D01*
X542744Y18282D01*
X541835Y19035D01*
X541827Y19035D01*
X541827Y19040D01*
X540787Y19601D01*
X540780Y19600D01*
X540778Y19605D01*
X539649Y19952D01*
X539643Y19950D01*
X539640Y19954D01*
X538465Y20075D01*
X538458Y20071D01*
X538454Y20075D01*
X537114Y19918D01*
X537108Y19913D01*
X537103Y19916D01*
X535832Y19465D01*
X535827Y19458D01*
X535822Y19460D01*
X534683Y18738D01*
X534680Y18730D01*
X534674Y18731D01*
X533724Y17773D01*
X533723Y17765D01*
X533717Y17764D01*
X533004Y16619D01*
X533005Y16611D01*
X532999Y16609D01*
X532559Y15333D01*
X532561Y15326D01*
X532557Y15323D01*
X532411Y13981D01*
X532413Y13978D01*
X532411Y13976D01*
X532411Y7976D01*
X532413Y7973D01*
X532411Y7970D01*
X532566Y6641D01*
X532572Y6635D01*
X532569Y6631D01*
X533016Y5370D01*
X533023Y5365D01*
X533021Y5360D01*
X533738Y4230D01*
X533745Y4227D01*
X533744Y4221D01*
X534695Y3279D01*
X534703Y3278D01*
X534703Y3272D01*
X535839Y2565D01*
X535847Y2566D01*
X535849Y2560D01*
X537114Y2124D01*
X537119Y2125D01*
X537120Y2125D01*
X537123Y2125D01*
X537125Y2121D01*
X538455Y1977D01*
X538461Y1981D01*
X538465Y1977D01*
X539631Y2087D01*
G37*
G36*
X72271Y2087D02*
X72271Y2087D01*
X72276Y2092D01*
X72280Y2089D01*
X73403Y2424D01*
X73407Y2430D01*
X73411Y2428D01*
X74447Y2976D01*
X74450Y2982D01*
X74455Y2981D01*
X75363Y3720D01*
X75365Y3727D01*
X75370Y3727D01*
X76117Y4629D01*
X76117Y4637D01*
X76123Y4637D01*
X76679Y5668D01*
X76678Y5675D01*
X76683Y5677D01*
X77027Y6796D01*
X77025Y6803D01*
X77029Y6806D01*
X77149Y7971D01*
X77147Y7974D01*
X77149Y7976D01*
X77149Y13976D01*
X77147Y13979D01*
X77149Y13981D01*
X77038Y15157D01*
X77033Y15162D01*
X77036Y15166D01*
X76698Y16298D01*
X76692Y16302D01*
X76694Y16307D01*
X76142Y17351D01*
X76135Y17354D01*
X76137Y17359D01*
X75391Y18275D01*
X75384Y18276D01*
X75384Y18282D01*
X74475Y19035D01*
X74467Y19035D01*
X74467Y19040D01*
X73427Y19601D01*
X73420Y19600D01*
X73418Y19605D01*
X72289Y19952D01*
X72283Y19950D01*
X72280Y19954D01*
X71105Y20075D01*
X71098Y20071D01*
X71094Y20075D01*
X69754Y19918D01*
X69748Y19913D01*
X69743Y19916D01*
X68472Y19465D01*
X68467Y19458D01*
X68462Y19460D01*
X67323Y18738D01*
X67320Y18730D01*
X67314Y18731D01*
X66364Y17773D01*
X66363Y17765D01*
X66357Y17764D01*
X65644Y16619D01*
X65645Y16611D01*
X65639Y16609D01*
X65199Y15333D01*
X65201Y15326D01*
X65197Y15323D01*
X65051Y13981D01*
X65053Y13978D01*
X65051Y13976D01*
X65051Y7976D01*
X65053Y7973D01*
X65051Y7970D01*
X65206Y6641D01*
X65212Y6635D01*
X65209Y6631D01*
X65656Y5370D01*
X65663Y5365D01*
X65661Y5360D01*
X66378Y4230D01*
X66385Y4227D01*
X66384Y4221D01*
X67335Y3279D01*
X67343Y3278D01*
X67343Y3272D01*
X68479Y2565D01*
X68487Y2566D01*
X68489Y2560D01*
X69754Y2124D01*
X69759Y2125D01*
X69760Y2125D01*
X69763Y2125D01*
X69765Y2121D01*
X71095Y1977D01*
X71101Y1981D01*
X71105Y1977D01*
X72271Y2087D01*
G37*
G36*
X158671Y2087D02*
X158671Y2087D01*
X158676Y2092D01*
X158680Y2089D01*
X159803Y2424D01*
X159807Y2430D01*
X159811Y2428D01*
X160847Y2976D01*
X160850Y2982D01*
X160855Y2981D01*
X161763Y3720D01*
X161765Y3727D01*
X161770Y3727D01*
X162517Y4629D01*
X162517Y4637D01*
X162523Y4637D01*
X163079Y5668D01*
X163078Y5675D01*
X163083Y5677D01*
X163427Y6796D01*
X163425Y6803D01*
X163429Y6806D01*
X163549Y7971D01*
X163547Y7974D01*
X163549Y7976D01*
X163549Y13976D01*
X163547Y13979D01*
X163549Y13981D01*
X163438Y15157D01*
X163433Y15162D01*
X163436Y15166D01*
X163098Y16298D01*
X163092Y16302D01*
X163094Y16307D01*
X162542Y17351D01*
X162535Y17354D01*
X162537Y17359D01*
X161791Y18275D01*
X161784Y18276D01*
X161784Y18282D01*
X160875Y19035D01*
X160867Y19035D01*
X160867Y19040D01*
X159827Y19601D01*
X159820Y19600D01*
X159818Y19605D01*
X158689Y19952D01*
X158683Y19950D01*
X158680Y19954D01*
X157505Y20075D01*
X157498Y20071D01*
X157494Y20075D01*
X156154Y19918D01*
X156148Y19913D01*
X156143Y19916D01*
X154872Y19465D01*
X154867Y19458D01*
X154862Y19460D01*
X153723Y18738D01*
X153720Y18730D01*
X153714Y18731D01*
X152764Y17773D01*
X152763Y17765D01*
X152757Y17764D01*
X152044Y16619D01*
X152045Y16611D01*
X152039Y16609D01*
X151599Y15333D01*
X151601Y15326D01*
X151597Y15323D01*
X151451Y13981D01*
X151453Y13978D01*
X151451Y13976D01*
X151451Y7976D01*
X151453Y7973D01*
X151451Y7970D01*
X151606Y6641D01*
X151612Y6635D01*
X151609Y6631D01*
X152056Y5370D01*
X152063Y5365D01*
X152061Y5360D01*
X152778Y4230D01*
X152785Y4227D01*
X152784Y4221D01*
X153735Y3279D01*
X153743Y3278D01*
X153743Y3272D01*
X154879Y2565D01*
X154887Y2566D01*
X154889Y2560D01*
X156154Y2124D01*
X156159Y2125D01*
X156160Y2125D01*
X156163Y2125D01*
X156165Y2121D01*
X157495Y1977D01*
X157501Y1981D01*
X157505Y1977D01*
X158671Y2087D01*
G37*
G36*
X392351Y2087D02*
X392351Y2087D01*
X392356Y2092D01*
X392360Y2089D01*
X393483Y2424D01*
X393487Y2430D01*
X393491Y2428D01*
X394527Y2976D01*
X394530Y2982D01*
X394535Y2981D01*
X395443Y3720D01*
X395445Y3727D01*
X395450Y3727D01*
X396197Y4629D01*
X396197Y4637D01*
X396203Y4637D01*
X396759Y5668D01*
X396758Y5675D01*
X396763Y5677D01*
X397107Y6796D01*
X397105Y6803D01*
X397109Y6806D01*
X397229Y7971D01*
X397227Y7974D01*
X397229Y7976D01*
X397229Y13976D01*
X397227Y13979D01*
X397229Y13981D01*
X397118Y15157D01*
X397113Y15162D01*
X397116Y15166D01*
X396778Y16298D01*
X396772Y16302D01*
X396774Y16307D01*
X396222Y17351D01*
X396215Y17354D01*
X396217Y17359D01*
X395471Y18275D01*
X395464Y18276D01*
X395464Y18282D01*
X394555Y19035D01*
X394547Y19035D01*
X394547Y19040D01*
X393507Y19601D01*
X393500Y19600D01*
X393498Y19605D01*
X392369Y19952D01*
X392363Y19950D01*
X392360Y19954D01*
X391185Y20075D01*
X391178Y20071D01*
X391174Y20075D01*
X389834Y19918D01*
X389828Y19913D01*
X389823Y19916D01*
X388552Y19465D01*
X388547Y19458D01*
X388542Y19460D01*
X387403Y18738D01*
X387400Y18730D01*
X387394Y18731D01*
X386444Y17773D01*
X386443Y17765D01*
X386437Y17764D01*
X385724Y16619D01*
X385725Y16611D01*
X385719Y16609D01*
X385279Y15333D01*
X385281Y15326D01*
X385277Y15323D01*
X385131Y13981D01*
X385133Y13978D01*
X385131Y13976D01*
X385131Y7976D01*
X385133Y7973D01*
X385131Y7970D01*
X385286Y6641D01*
X385292Y6635D01*
X385289Y6631D01*
X385736Y5370D01*
X385743Y5365D01*
X385741Y5360D01*
X386458Y4230D01*
X386465Y4227D01*
X386464Y4221D01*
X387415Y3279D01*
X387423Y3278D01*
X387423Y3272D01*
X388559Y2565D01*
X388567Y2566D01*
X388569Y2560D01*
X389834Y2124D01*
X389839Y2125D01*
X389840Y2125D01*
X389843Y2125D01*
X389845Y2121D01*
X391175Y1977D01*
X391181Y1981D01*
X391185Y1977D01*
X392351Y2087D01*
G37*
G36*
X305951Y2087D02*
X305951Y2087D01*
X305956Y2092D01*
X305960Y2089D01*
X307083Y2424D01*
X307087Y2430D01*
X307091Y2428D01*
X308127Y2976D01*
X308130Y2982D01*
X308135Y2981D01*
X309043Y3720D01*
X309045Y3727D01*
X309050Y3727D01*
X309797Y4629D01*
X309797Y4637D01*
X309803Y4637D01*
X310359Y5668D01*
X310358Y5675D01*
X310363Y5677D01*
X310707Y6796D01*
X310705Y6803D01*
X310709Y6806D01*
X310829Y7971D01*
X310827Y7974D01*
X310829Y7976D01*
X310829Y13976D01*
X310827Y13979D01*
X310829Y13981D01*
X310718Y15157D01*
X310713Y15162D01*
X310716Y15166D01*
X310378Y16298D01*
X310372Y16302D01*
X310374Y16307D01*
X309822Y17351D01*
X309815Y17354D01*
X309817Y17359D01*
X309071Y18275D01*
X309064Y18276D01*
X309064Y18282D01*
X308155Y19035D01*
X308147Y19035D01*
X308147Y19040D01*
X307107Y19601D01*
X307100Y19600D01*
X307098Y19605D01*
X305969Y19952D01*
X305963Y19950D01*
X305960Y19954D01*
X304785Y20075D01*
X304778Y20071D01*
X304774Y20075D01*
X303434Y19918D01*
X303428Y19913D01*
X303423Y19916D01*
X302152Y19465D01*
X302147Y19458D01*
X302142Y19460D01*
X301003Y18738D01*
X301000Y18730D01*
X300994Y18731D01*
X300044Y17773D01*
X300043Y17765D01*
X300037Y17764D01*
X299324Y16619D01*
X299325Y16611D01*
X299319Y16609D01*
X298879Y15333D01*
X298881Y15326D01*
X298877Y15323D01*
X298731Y13981D01*
X298733Y13978D01*
X298731Y13976D01*
X298731Y7976D01*
X298733Y7973D01*
X298731Y7970D01*
X298886Y6641D01*
X298892Y6635D01*
X298889Y6631D01*
X299336Y5370D01*
X299343Y5365D01*
X299341Y5360D01*
X300058Y4230D01*
X300065Y4227D01*
X300064Y4221D01*
X301015Y3279D01*
X301023Y3278D01*
X301023Y3272D01*
X302159Y2565D01*
X302167Y2566D01*
X302169Y2560D01*
X303434Y2124D01*
X303439Y2125D01*
X303440Y2125D01*
X303443Y2125D01*
X303445Y2121D01*
X304775Y1977D01*
X304781Y1981D01*
X304785Y1977D01*
X305951Y2087D01*
G37*
D10*
X215900Y520700D03*
X215900Y495300D03*
X215900Y469900D03*
X215900Y444500D03*
X215900Y419100D03*
X215900Y393700D03*
X215900Y368300D03*
X215900Y342900D03*
X215900Y317500D03*
X215900Y292100D03*
X215900Y266700D03*
X215900Y241300D03*
X215900Y215900D03*
X215900Y190500D03*
X215900Y165100D03*
X215900Y139700D03*
X12700Y241300D03*
X12700Y266700D03*
X12700Y292100D03*
X12700Y317500D03*
X12700Y342900D03*
X12700Y368300D03*
X12700Y393700D03*
X12700Y419100D03*
X12700Y444500D03*
X12700Y469900D03*
X12700Y495300D03*
X12700Y520700D03*
D11*
X120818Y54094D02*
X122782Y54094D01*
X120818Y54094D02*
X120818Y63058D01*
X122782Y63058D01*
X122782Y54094D01*
X122782Y56285D02*
X120818Y56285D01*
X120818Y58476D02*
X122782Y58476D01*
X122782Y60667D02*
X120818Y60667D01*
X120818Y62858D02*
X122782Y62858D01*
X117782Y54094D02*
X115818Y54094D01*
X115818Y63058D01*
X117782Y63058D01*
X117782Y54094D01*
X117782Y56285D02*
X115818Y56285D01*
X115818Y58476D02*
X117782Y58476D01*
X117782Y60667D02*
X115818Y60667D01*
X115818Y62858D02*
X117782Y62858D01*
D12*
X144042Y54068D02*
X149058Y54068D01*
X144042Y54068D02*
X144042Y63084D01*
X149058Y63084D01*
X149058Y54068D01*
X149058Y56209D02*
X144042Y56209D01*
X144042Y58350D02*
X149058Y58350D01*
X149058Y60491D02*
X144042Y60491D01*
X144042Y62632D02*
X149058Y62632D01*
X141308Y54068D02*
X136292Y54068D01*
X136292Y63084D01*
X141308Y63084D01*
X141308Y54068D01*
X141308Y56209D02*
X136292Y56209D01*
X136292Y58350D02*
X141308Y58350D01*
X141308Y60491D02*
X136292Y60491D01*
X136292Y62632D02*
X141308Y62632D01*
D11*
X132782Y54094D02*
X130818Y54094D01*
X130818Y63058D01*
X132782Y63058D01*
X132782Y54094D01*
X132782Y56285D02*
X130818Y56285D01*
X130818Y58476D02*
X132782Y58476D01*
X132782Y60667D02*
X130818Y60667D01*
X130818Y62858D02*
X132782Y62858D01*
X127782Y54094D02*
X125818Y54094D01*
X125818Y63058D01*
X127782Y63058D01*
X127782Y54094D01*
X127782Y56285D02*
X125818Y56285D01*
X125818Y58476D02*
X127782Y58476D01*
X127782Y60667D02*
X125818Y60667D01*
X125818Y62858D02*
X127782Y62858D01*
X107782Y63058D02*
X105818Y63058D01*
X107782Y63058D02*
X107782Y54094D01*
X105818Y54094D01*
X105818Y63058D01*
X105818Y56285D02*
X107782Y56285D01*
X107782Y58476D02*
X105818Y58476D01*
X105818Y60667D02*
X107782Y60667D01*
X107782Y62858D02*
X105818Y62858D01*
X110818Y63058D02*
X112782Y63058D01*
X112782Y54094D01*
X110818Y54094D01*
X110818Y63058D01*
X110818Y56285D02*
X112782Y56285D01*
X112782Y58476D02*
X110818Y58476D01*
X110818Y60667D02*
X112782Y60667D01*
X112782Y62858D02*
X110818Y62858D01*
D12*
X84558Y63084D02*
X79542Y63084D01*
X84558Y63084D02*
X84558Y54068D01*
X79542Y54068D01*
X79542Y63084D01*
X79542Y56209D02*
X84558Y56209D01*
X84558Y58350D02*
X79542Y58350D01*
X79542Y60491D02*
X84558Y60491D01*
X84558Y62632D02*
X79542Y62632D01*
X87292Y63084D02*
X92308Y63084D01*
X92308Y54068D01*
X87292Y54068D01*
X87292Y63084D01*
X87292Y56209D02*
X92308Y56209D01*
X92308Y58350D02*
X87292Y58350D01*
X87292Y60491D02*
X92308Y60491D01*
X92308Y62632D02*
X87292Y62632D01*
D11*
X95818Y63058D02*
X97782Y63058D01*
X97782Y54094D01*
X95818Y54094D01*
X95818Y63058D01*
X95818Y56285D02*
X97782Y56285D01*
X97782Y58476D02*
X95818Y58476D01*
X95818Y60667D02*
X97782Y60667D01*
X97782Y62858D02*
X95818Y62858D01*
X100818Y63058D02*
X102782Y63058D01*
X102782Y54094D01*
X100818Y54094D01*
X100818Y63058D01*
X100818Y56285D02*
X102782Y56285D01*
X102782Y58476D02*
X100818Y58476D01*
X100818Y60667D02*
X102782Y60667D01*
X102782Y62858D02*
X100818Y62858D01*
D13*
X85400Y47526D03*
X143200Y47526D03*
D14*
X110035Y82915D02*
X110035Y87985D01*
X110035Y82915D02*
X108565Y82915D01*
X108565Y87985D01*
X110035Y87985D01*
X110035Y85100D02*
X108565Y85100D01*
X108565Y87285D02*
X110035Y87285D01*
X115035Y87485D02*
X115035Y82915D01*
X113565Y82915D01*
X113565Y87485D01*
X115035Y87485D01*
X115035Y85100D02*
X113565Y85100D01*
X113565Y87285D02*
X115035Y87285D01*
X120035Y87485D02*
X120035Y82915D01*
X118565Y82915D01*
X118565Y87485D01*
X120035Y87485D01*
X120035Y85100D02*
X118565Y85100D01*
X118565Y87285D02*
X120035Y87285D01*
X118565Y91515D02*
X118565Y96085D01*
X120035Y96085D01*
X120035Y91515D01*
X118565Y91515D01*
X118565Y93700D02*
X120035Y93700D01*
X120035Y95885D02*
X118565Y95885D01*
X113565Y96085D02*
X113565Y91515D01*
X113565Y96085D02*
X115035Y96085D01*
X115035Y91515D01*
X113565Y91515D01*
X113565Y93700D02*
X115035Y93700D01*
X115035Y95885D02*
X113565Y95885D01*
X108565Y96085D02*
X108565Y91515D01*
X108565Y96085D02*
X110035Y96085D01*
X110035Y91515D01*
X108565Y91515D01*
X108565Y93700D02*
X110035Y93700D01*
X110035Y95885D02*
X108565Y95885D01*
D15*
X95068Y163292D02*
X95068Y172308D01*
X95068Y163292D02*
X50052Y163292D01*
X50052Y172308D01*
X95068Y172308D01*
X95068Y165433D02*
X50052Y165433D01*
X50052Y167574D02*
X95068Y167574D01*
X95068Y169715D02*
X50052Y169715D01*
X50052Y171856D02*
X95068Y171856D01*
X95068Y183292D02*
X95068Y192308D01*
X95068Y183292D02*
X50052Y183292D01*
X50052Y192308D01*
X95068Y192308D01*
X95068Y185433D02*
X50052Y185433D01*
X50052Y187574D02*
X95068Y187574D01*
X95068Y189715D02*
X50052Y189715D01*
X50052Y191856D02*
X95068Y191856D01*
D16*
X37073Y151313D02*
X4047Y151313D01*
X37073Y151313D02*
X37073Y136287D01*
X4047Y136287D01*
X4047Y151313D01*
X4047Y138420D02*
X37073Y138420D01*
X37073Y140553D02*
X4047Y140553D01*
X4047Y142686D02*
X37073Y142686D01*
X37073Y144819D02*
X4047Y144819D01*
X4047Y146952D02*
X37073Y146952D01*
X37073Y149085D02*
X4047Y149085D01*
X4047Y151218D02*
X37073Y151218D01*
X37073Y219313D02*
X4047Y219313D01*
X37073Y219313D02*
X37073Y204287D01*
X4047Y204287D01*
X4047Y219313D01*
X4047Y206420D02*
X37073Y206420D01*
X37073Y208553D02*
X4047Y208553D01*
X4047Y210686D02*
X37073Y210686D01*
X37073Y212819D02*
X4047Y212819D01*
X4047Y214952D02*
X37073Y214952D01*
X37073Y217085D02*
X4047Y217085D01*
X4047Y219218D02*
X37073Y219218D01*
D17*
X107506Y172524D02*
X114494Y172524D01*
X114494Y165536D01*
X107506Y165536D01*
X107506Y172524D01*
X107506Y169605D02*
X114494Y169605D01*
X114494Y190064D02*
X107506Y190064D01*
X114494Y190064D02*
X114494Y183076D01*
X107506Y183076D01*
X107506Y190064D01*
X107506Y187145D02*
X114494Y187145D01*
D12*
X169492Y57508D02*
X169492Y52492D01*
X169492Y57508D02*
X174508Y57508D01*
X174508Y52492D01*
X169492Y52492D01*
X169492Y54633D02*
X174508Y54633D01*
X174508Y56774D02*
X169492Y56774D01*
X169492Y47508D02*
X169492Y42492D01*
X169492Y47508D02*
X174508Y47508D01*
X174508Y42492D01*
X169492Y42492D01*
X169492Y44633D02*
X174508Y44633D01*
X174508Y46774D02*
X169492Y46774D01*
X54492Y52492D02*
X54492Y57508D01*
X59508Y57508D01*
X59508Y52492D01*
X54492Y52492D01*
X54492Y54633D02*
X59508Y54633D01*
X59508Y56774D02*
X54492Y56774D01*
X54492Y47508D02*
X54492Y42492D01*
X54492Y47508D02*
X59508Y47508D01*
X59508Y42492D01*
X54492Y42492D01*
X54492Y44633D02*
X59508Y44633D01*
X59508Y46774D02*
X54492Y46774D01*
D18*
X4543Y111393D02*
X4543Y122407D01*
X23557Y122407D01*
X23557Y111393D01*
X4543Y111393D01*
X4543Y113536D02*
X23557Y113536D01*
X23557Y115679D02*
X4543Y115679D01*
X4543Y117822D02*
X23557Y117822D01*
X23557Y119965D02*
X4543Y119965D01*
X4543Y122108D02*
X23557Y122108D01*
X4543Y66407D02*
X4543Y55393D01*
X4543Y66407D02*
X23557Y66407D01*
X23557Y55393D01*
X4543Y55393D01*
X4543Y57536D02*
X23557Y57536D01*
X23557Y59679D02*
X4543Y59679D01*
X4543Y61822D02*
X23557Y61822D01*
X23557Y63965D02*
X4543Y63965D01*
X4543Y66108D02*
X23557Y66108D01*
D12*
X44542Y101392D02*
X44542Y106408D01*
X57058Y106408D01*
X57058Y101392D01*
X44542Y101392D01*
X44542Y103533D02*
X57058Y103533D01*
X57058Y105674D02*
X44542Y105674D01*
X44542Y96408D02*
X44542Y91392D01*
X44542Y96408D02*
X57058Y96408D01*
X57058Y91392D01*
X44542Y91392D01*
X44542Y93533D02*
X57058Y93533D01*
X57058Y95674D02*
X44542Y95674D01*
X44542Y86408D02*
X44542Y81392D01*
X44542Y86408D02*
X57058Y86408D01*
X57058Y81392D01*
X44542Y81392D01*
X44542Y83533D02*
X57058Y83533D01*
X57058Y85674D02*
X44542Y85674D01*
X44542Y76408D02*
X44542Y71392D01*
X44542Y76408D02*
X57058Y76408D01*
X57058Y71392D01*
X44542Y71392D01*
X44542Y73533D02*
X57058Y73533D01*
X57058Y75674D02*
X44542Y75674D01*
D19*
X25400Y25400D03*
X203200Y25400D03*
D20*
X45000Y7500D03*
X220000Y665000D03*
D15*
X56808Y662292D02*
X56808Y671308D01*
X56808Y662292D02*
X46792Y662292D01*
X46792Y671308D01*
X56808Y671308D01*
X56808Y664433D02*
X46792Y664433D01*
X46792Y666574D02*
X56808Y666574D01*
X56808Y668715D02*
X46792Y668715D01*
X46792Y670856D02*
X56808Y670856D01*
X66308Y656308D02*
X66308Y647292D01*
X47292Y647292D01*
X47292Y656308D01*
X66308Y656308D01*
X66308Y649433D02*
X47292Y649433D01*
X47292Y651574D02*
X66308Y651574D01*
X66308Y653715D02*
X47292Y653715D01*
X47292Y655856D02*
X66308Y655856D01*
X66308Y641308D02*
X66308Y632292D01*
X47292Y632292D01*
X47292Y641308D01*
X66308Y641308D01*
X66308Y634433D02*
X47292Y634433D01*
X47292Y636574D02*
X66308Y636574D01*
X66308Y638715D02*
X47292Y638715D01*
X47292Y640856D02*
X66308Y640856D01*
X66308Y626308D02*
X66308Y617292D01*
X47292Y617292D01*
X47292Y626308D01*
X66308Y626308D01*
X66308Y619433D02*
X47292Y619433D01*
X47292Y621574D02*
X66308Y621574D01*
X66308Y623715D02*
X47292Y623715D01*
X47292Y625856D02*
X66308Y625856D01*
X66308Y611308D02*
X66308Y602292D01*
X47292Y602292D01*
X47292Y611308D01*
X66308Y611308D01*
X66308Y604433D02*
X47292Y604433D01*
X47292Y606574D02*
X66308Y606574D01*
X66308Y608715D02*
X47292Y608715D01*
X47292Y610856D02*
X66308Y610856D01*
X72292Y598808D02*
X81308Y598808D01*
X81308Y579792D01*
X72292Y579792D01*
X72292Y598808D01*
X72292Y581933D02*
X81308Y581933D01*
X81308Y584074D02*
X72292Y584074D01*
X72292Y586215D02*
X81308Y586215D01*
X81308Y588356D02*
X72292Y588356D01*
X72292Y590497D02*
X81308Y590497D01*
X81308Y592638D02*
X72292Y592638D01*
X72292Y594779D02*
X81308Y594779D01*
X81308Y596920D02*
X72292Y596920D01*
X87292Y598808D02*
X96308Y598808D01*
X96308Y579792D01*
X87292Y579792D01*
X87292Y598808D01*
X87292Y581933D02*
X96308Y581933D01*
X96308Y584074D02*
X87292Y584074D01*
X87292Y586215D02*
X96308Y586215D01*
X96308Y588356D02*
X87292Y588356D01*
X87292Y590497D02*
X96308Y590497D01*
X96308Y592638D02*
X87292Y592638D01*
X87292Y594779D02*
X96308Y594779D01*
X96308Y596920D02*
X87292Y596920D01*
X102292Y598808D02*
X111308Y598808D01*
X111308Y579792D01*
X102292Y579792D01*
X102292Y598808D01*
X102292Y581933D02*
X111308Y581933D01*
X111308Y584074D02*
X102292Y584074D01*
X102292Y586215D02*
X111308Y586215D01*
X111308Y588356D02*
X102292Y588356D01*
X102292Y590497D02*
X111308Y590497D01*
X111308Y592638D02*
X102292Y592638D01*
X102292Y594779D02*
X111308Y594779D01*
X111308Y596920D02*
X102292Y596920D01*
X117292Y598808D02*
X126308Y598808D01*
X126308Y579792D01*
X117292Y579792D01*
X117292Y598808D01*
X117292Y581933D02*
X126308Y581933D01*
X126308Y584074D02*
X117292Y584074D01*
X117292Y586215D02*
X126308Y586215D01*
X126308Y588356D02*
X117292Y588356D01*
X117292Y590497D02*
X126308Y590497D01*
X126308Y592638D02*
X117292Y592638D01*
X117292Y594779D02*
X126308Y594779D01*
X126308Y596920D02*
X117292Y596920D01*
X132292Y598808D02*
X141308Y598808D01*
X141308Y579792D01*
X132292Y579792D01*
X132292Y598808D01*
X132292Y581933D02*
X141308Y581933D01*
X141308Y584074D02*
X132292Y584074D01*
X132292Y586215D02*
X141308Y586215D01*
X141308Y588356D02*
X132292Y588356D01*
X132292Y590497D02*
X141308Y590497D01*
X141308Y592638D02*
X132292Y592638D01*
X132292Y594779D02*
X141308Y594779D01*
X141308Y596920D02*
X132292Y596920D01*
X147292Y598808D02*
X156308Y598808D01*
X156308Y579792D01*
X147292Y579792D01*
X147292Y598808D01*
X147292Y581933D02*
X156308Y581933D01*
X156308Y584074D02*
X147292Y584074D01*
X147292Y586215D02*
X156308Y586215D01*
X156308Y588356D02*
X147292Y588356D01*
X147292Y590497D02*
X156308Y590497D01*
X156308Y592638D02*
X147292Y592638D01*
X147292Y594779D02*
X156308Y594779D01*
X156308Y596920D02*
X147292Y596920D01*
X162292Y602292D02*
X162292Y611308D01*
X181308Y611308D01*
X181308Y602292D01*
X162292Y602292D01*
X162292Y604433D02*
X181308Y604433D01*
X181308Y606574D02*
X162292Y606574D01*
X162292Y608715D02*
X181308Y608715D01*
X181308Y610856D02*
X162292Y610856D01*
X162292Y617292D02*
X162292Y626308D01*
X181308Y626308D01*
X181308Y617292D01*
X162292Y617292D01*
X162292Y619433D02*
X181308Y619433D01*
X181308Y621574D02*
X162292Y621574D01*
X162292Y623715D02*
X181308Y623715D01*
X181308Y625856D02*
X162292Y625856D01*
X162292Y632292D02*
X162292Y641308D01*
X181308Y641308D01*
X181308Y632292D01*
X162292Y632292D01*
X162292Y634433D02*
X181308Y634433D01*
X181308Y636574D02*
X162292Y636574D01*
X162292Y638715D02*
X181308Y638715D01*
X181308Y640856D02*
X162292Y640856D01*
X162292Y647292D02*
X162292Y656308D01*
X181308Y656308D01*
X181308Y647292D01*
X162292Y647292D01*
X162292Y649433D02*
X181308Y649433D01*
X181308Y651574D02*
X162292Y651574D01*
X162292Y653715D02*
X181308Y653715D01*
X181308Y655856D02*
X162292Y655856D01*
X162292Y662292D02*
X162292Y671308D01*
X181308Y671308D01*
X181308Y662292D01*
X162292Y662292D01*
X162292Y664433D02*
X181308Y664433D01*
X181308Y666574D02*
X162292Y666574D01*
X162292Y668715D02*
X181308Y668715D01*
X181308Y670856D02*
X162292Y670856D01*
D21*
X54300Y329500D03*
X59300Y329500D03*
X64300Y329500D03*
X69300Y329500D03*
X74300Y329500D03*
X79300Y329500D03*
X84300Y329500D03*
X89300Y329500D03*
X94300Y329500D03*
X99300Y329500D03*
X104300Y329500D03*
X109300Y329500D03*
X114300Y329500D03*
X119300Y329500D03*
X124300Y329500D03*
X129300Y329500D03*
X134300Y329500D03*
X139300Y329500D03*
X144300Y329500D03*
X149300Y329500D03*
X154300Y329500D03*
X159300Y329500D03*
X164300Y329500D03*
X169300Y329500D03*
X174300Y329500D03*
D22*
X189800Y345000D03*
X189800Y350000D03*
X189800Y355000D03*
X189800Y360000D03*
X189800Y365000D03*
X189800Y370000D03*
X189800Y375000D03*
X189800Y380000D03*
X189800Y385000D03*
X189800Y390000D03*
X189800Y395000D03*
X189800Y400000D03*
X189800Y405000D03*
X189800Y410000D03*
X189800Y415000D03*
X189800Y420000D03*
X189800Y425000D03*
X189800Y430000D03*
X189800Y435000D03*
X189800Y440000D03*
X189800Y445000D03*
X189800Y450000D03*
X189800Y455000D03*
X189800Y460000D03*
X189800Y465000D03*
D21*
X174300Y480500D03*
X169300Y480500D03*
X164300Y480500D03*
X159300Y480500D03*
X154300Y480500D03*
X149300Y480500D03*
X144300Y480500D03*
X139300Y480500D03*
X134300Y480500D03*
X129300Y480500D03*
X124300Y480500D03*
X119300Y480500D03*
X114300Y480500D03*
X109300Y480500D03*
X104300Y480500D03*
X99300Y480500D03*
X94300Y480500D03*
X89300Y480500D03*
X84300Y480500D03*
X79300Y480500D03*
X74300Y480500D03*
X69300Y480500D03*
X64300Y480500D03*
X59300Y480500D03*
X54300Y480500D03*
D22*
X38800Y465000D03*
X38800Y460000D03*
X38800Y455000D03*
X38800Y450000D03*
X38800Y445000D03*
X38800Y440000D03*
X38800Y435000D03*
X38800Y430000D03*
X38800Y425000D03*
X38800Y420000D03*
X38800Y415000D03*
X38800Y410000D03*
X38800Y405000D03*
X38800Y400000D03*
X38800Y395000D03*
X38800Y390000D03*
X38800Y385000D03*
X38800Y380000D03*
X38800Y375000D03*
X38800Y370000D03*
X38800Y365000D03*
X38800Y360000D03*
X38800Y355000D03*
X38800Y350000D03*
X38800Y345000D03*
D15*
X49958Y285011D02*
X56333Y278636D01*
X49958Y285011D02*
X61989Y297042D01*
X68364Y290667D01*
X56333Y278636D01*
X58474Y280777D02*
X54192Y280777D01*
X52051Y282918D02*
X60615Y282918D01*
X62756Y285059D02*
X50006Y285059D01*
X52147Y287200D02*
X64897Y287200D01*
X67038Y289341D02*
X54288Y289341D01*
X56429Y291482D02*
X67549Y291482D01*
X65408Y293623D02*
X58570Y293623D01*
X60711Y295764D02*
X63267Y295764D01*
X67636Y267333D02*
X74011Y260958D01*
X67636Y267333D02*
X79667Y279364D01*
X86042Y272989D01*
X74011Y260958D01*
X76152Y263099D02*
X71870Y263099D01*
X69729Y265240D02*
X78293Y265240D01*
X80434Y267381D02*
X67684Y267381D01*
X69825Y269522D02*
X82575Y269522D01*
X84716Y271663D02*
X71966Y271663D01*
X74107Y273804D02*
X85227Y273804D01*
X83086Y275945D02*
X76248Y275945D01*
X78389Y278086D02*
X80945Y278086D01*
D12*
X80082Y294464D02*
X76536Y298010D01*
X80082Y294464D02*
X76536Y290918D01*
X72990Y294464D01*
X76536Y298010D01*
X78677Y293059D02*
X74395Y293059D01*
X73726Y295200D02*
X79346Y295200D01*
X77205Y297341D02*
X75867Y297341D01*
X73010Y301536D02*
X69464Y305082D01*
X73010Y301536D02*
X69464Y297990D01*
X65918Y301536D01*
X69464Y305082D01*
X71605Y300131D02*
X67323Y300131D01*
X66654Y302272D02*
X72274Y302272D01*
X70133Y304413D02*
X68795Y304413D01*
X79918Y287536D02*
X83464Y283990D01*
X79918Y287536D02*
X83464Y291082D01*
X87010Y287536D01*
X83464Y283990D01*
X85605Y286131D02*
X81323Y286131D01*
X80654Y288272D02*
X86274Y288272D01*
X84133Y290413D02*
X82795Y290413D01*
X86990Y280464D02*
X90536Y276918D01*
X86990Y280464D02*
X90536Y284010D01*
X94082Y280464D01*
X90536Y276918D01*
X92677Y279059D02*
X88395Y279059D01*
X87726Y281200D02*
X93346Y281200D01*
X91205Y283341D02*
X89867Y283341D01*
D23*
X143946Y291375D02*
X153181Y300610D01*
X160296Y293495D01*
X151061Y284260D01*
X143946Y291375D01*
X148962Y286359D02*
X153160Y286359D01*
X155259Y288458D02*
X146863Y288458D01*
X144764Y290557D02*
X157358Y290557D01*
X159457Y292656D02*
X145227Y292656D01*
X147326Y294755D02*
X159036Y294755D01*
X156937Y296854D02*
X149425Y296854D01*
X151524Y298953D02*
X154838Y298953D01*
X137625Y285054D02*
X128390Y275819D01*
X137625Y285054D02*
X144740Y277939D01*
X135505Y268704D01*
X128390Y275819D01*
X133406Y270803D02*
X137604Y270803D01*
X139703Y272902D02*
X131307Y272902D01*
X129208Y275001D02*
X141802Y275001D01*
X143901Y277100D02*
X129671Y277100D01*
X131770Y279199D02*
X143480Y279199D01*
X141381Y281298D02*
X133869Y281298D01*
X135968Y283397D02*
X139282Y283397D01*
X148939Y273740D02*
X139704Y264505D01*
X148939Y273740D02*
X156054Y266625D01*
X146819Y257390D01*
X139704Y264505D01*
X144720Y259489D02*
X148918Y259489D01*
X151017Y261588D02*
X142621Y261588D01*
X140522Y263687D02*
X153116Y263687D01*
X155215Y265786D02*
X140985Y265786D01*
X143084Y267885D02*
X154794Y267885D01*
X152695Y269984D02*
X145183Y269984D01*
X147282Y272083D02*
X150596Y272083D01*
X155260Y280061D02*
X164495Y289296D01*
X171610Y282181D01*
X162375Y272946D01*
X155260Y280061D01*
X160276Y275045D02*
X164474Y275045D01*
X166573Y277144D02*
X158177Y277144D01*
X156078Y279243D02*
X168672Y279243D01*
X170771Y281342D02*
X156541Y281342D01*
X158640Y283441D02*
X170350Y283441D01*
X168251Y285540D02*
X160739Y285540D01*
X162838Y287639D02*
X166152Y287639D01*
D24*
X194294Y105094D02*
X202306Y105094D01*
X194294Y105094D02*
X194294Y114106D01*
X202306Y114106D01*
X202306Y105094D01*
X202306Y107240D02*
X194294Y107240D01*
X194294Y109386D02*
X202306Y109386D01*
X202306Y111532D02*
X194294Y111532D01*
X194294Y113678D02*
X202306Y113678D01*
X202306Y89094D02*
X194294Y89094D01*
X194294Y98106D01*
X202306Y98106D01*
X202306Y89094D01*
X202306Y91240D02*
X194294Y91240D01*
X194294Y93386D02*
X202306Y93386D01*
X202306Y95532D02*
X194294Y95532D01*
X194294Y97678D02*
X202306Y97678D01*
X161306Y89094D02*
X153294Y89094D01*
X153294Y98106D01*
X161306Y98106D01*
X161306Y89094D01*
X161306Y91240D02*
X153294Y91240D01*
X153294Y93386D02*
X161306Y93386D01*
X161306Y95532D02*
X153294Y95532D01*
X153294Y97678D02*
X161306Y97678D01*
X161306Y105094D02*
X153294Y105094D01*
X153294Y114106D01*
X161306Y114106D01*
X161306Y105094D01*
X161306Y107240D02*
X153294Y107240D01*
X153294Y109386D02*
X161306Y109386D01*
X161306Y111532D02*
X153294Y111532D01*
X153294Y113678D02*
X161306Y113678D01*
D17*
X16724Y622506D02*
X16724Y629494D01*
X16724Y622506D02*
X9736Y622506D01*
X9736Y629494D01*
X16724Y629494D01*
X16724Y626575D02*
X9736Y626575D01*
X34264Y629494D02*
X34264Y622506D01*
X27276Y622506D01*
X27276Y629494D01*
X34264Y629494D01*
X34264Y626575D02*
X27276Y626575D01*
D25*
X18477Y661173D02*
X18477Y667127D01*
X18477Y661173D02*
X12523Y661173D01*
X12523Y667127D01*
X18477Y667127D01*
X18477Y663373D02*
X12523Y663373D01*
X12523Y665573D02*
X18477Y665573D01*
X29477Y667127D02*
X29477Y661173D01*
X23523Y661173D01*
X23523Y667127D01*
X29477Y667127D01*
X29477Y663373D02*
X23523Y663373D01*
X23523Y665573D02*
X29477Y665573D01*
X29477Y648827D02*
X29477Y642873D01*
X23523Y642873D01*
X23523Y648827D01*
X29477Y648827D01*
X29477Y645073D02*
X23523Y645073D01*
X23523Y647273D02*
X29477Y647273D01*
X18477Y648827D02*
X18477Y642873D01*
X12523Y642873D01*
X12523Y648827D01*
X18477Y648827D01*
X18477Y645073D02*
X12523Y645073D01*
X12523Y647273D02*
X18477Y647273D01*
D17*
X16724Y602494D02*
X16724Y595506D01*
X9736Y595506D01*
X9736Y602494D01*
X16724Y602494D01*
X16724Y599575D02*
X9736Y599575D01*
X34264Y602494D02*
X34264Y595506D01*
X27276Y595506D01*
X27276Y602494D01*
X34264Y602494D01*
X34264Y599575D02*
X27276Y599575D01*
D19*
X25400Y558800D03*
X203200Y558800D03*
D26*
X82976Y133976D02*
X76024Y133976D01*
X82976Y133976D02*
X82976Y123024D01*
X76024Y123024D01*
X76024Y133976D01*
X76024Y125226D02*
X82976Y125226D01*
X82976Y127428D02*
X76024Y127428D01*
X76024Y129630D02*
X82976Y129630D01*
X82976Y131832D02*
X76024Y131832D01*
X64976Y133976D02*
X58024Y133976D01*
X64976Y133976D02*
X64976Y123024D01*
X58024Y123024D01*
X58024Y133976D01*
X58024Y125226D02*
X64976Y125226D01*
X64976Y127428D02*
X58024Y127428D01*
X58024Y129630D02*
X64976Y129630D01*
X64976Y131832D02*
X58024Y131832D01*
X95024Y112976D02*
X101976Y112976D01*
X101976Y105024D01*
X95024Y105024D01*
X95024Y112976D01*
X95024Y107226D02*
X101976Y107226D01*
X101976Y109428D02*
X95024Y109428D01*
X95024Y111630D02*
X101976Y111630D01*
X82976Y112976D02*
X76024Y112976D01*
X82976Y112976D02*
X82976Y105024D01*
X76024Y105024D01*
X76024Y112976D01*
X76024Y107226D02*
X82976Y107226D01*
X82976Y109428D02*
X76024Y109428D01*
X76024Y111630D02*
X82976Y111630D01*
X85524Y91976D02*
X92476Y91976D01*
X92476Y84024D01*
X85524Y84024D01*
X85524Y91976D01*
X85524Y86226D02*
X92476Y86226D01*
X92476Y88428D02*
X85524Y88428D01*
X85524Y90630D02*
X92476Y90630D01*
D12*
X95992Y128492D02*
X95992Y133508D01*
X101008Y133508D01*
X101008Y128492D01*
X95992Y128492D01*
X95992Y130633D02*
X101008Y130633D01*
X101008Y132774D02*
X95992Y132774D01*
X95992Y123508D02*
X95992Y118492D01*
X95992Y123508D02*
X101008Y123508D01*
X101008Y118492D01*
X95992Y118492D01*
X95992Y120633D02*
X101008Y120633D01*
X101008Y122774D02*
X95992Y122774D01*
X89008Y79508D02*
X83992Y79508D01*
X89008Y79508D02*
X89008Y74492D01*
X83992Y74492D01*
X83992Y79508D01*
X83992Y76633D02*
X89008Y76633D01*
X89008Y78774D02*
X83992Y78774D01*
X79008Y79508D02*
X73992Y79508D01*
X79008Y79508D02*
X79008Y74492D01*
X73992Y74492D01*
X73992Y79508D01*
X73992Y76633D02*
X79008Y76633D01*
X79008Y78774D02*
X73992Y78774D01*
D24*
X152494Y135994D02*
X152494Y144006D01*
X161506Y144006D01*
X161506Y135994D01*
X152494Y135994D01*
X152494Y138140D02*
X161506Y138140D01*
X161506Y140286D02*
X152494Y140286D01*
X152494Y142432D02*
X161506Y142432D01*
X136494Y144006D02*
X136494Y135994D01*
X136494Y144006D02*
X145506Y144006D01*
X145506Y135994D01*
X136494Y135994D01*
X136494Y138140D02*
X145506Y138140D01*
X145506Y140286D02*
X136494Y140286D01*
X136494Y142432D02*
X145506Y142432D01*
X136494Y176994D02*
X136494Y185006D01*
X145506Y185006D01*
X145506Y176994D01*
X136494Y176994D01*
X136494Y179140D02*
X145506Y179140D01*
X145506Y181286D02*
X136494Y181286D01*
X136494Y183432D02*
X145506Y183432D01*
X152494Y185006D02*
X152494Y176994D01*
X152494Y185006D02*
X161506Y185006D01*
X161506Y176994D01*
X152494Y176994D01*
X152494Y179140D02*
X161506Y179140D01*
X161506Y181286D02*
X152494Y181286D01*
X152494Y183432D02*
X161506Y183432D01*
D10*
X449580Y520700D03*
X449580Y495300D03*
X449580Y469900D03*
X449580Y444500D03*
X449580Y419100D03*
X449580Y393700D03*
X449580Y368300D03*
X449580Y342900D03*
X449580Y317500D03*
X449580Y292100D03*
X449580Y266700D03*
X449580Y241300D03*
X449580Y215900D03*
X449580Y190500D03*
X449580Y165100D03*
X449580Y139700D03*
X246380Y241300D03*
X246380Y266700D03*
X246380Y292100D03*
X246380Y317500D03*
X246380Y342900D03*
X246380Y368300D03*
X246380Y393700D03*
X246380Y419100D03*
X246380Y444500D03*
X246380Y469900D03*
X246380Y495300D03*
X246380Y520700D03*
D11*
X354498Y54094D02*
X356462Y54094D01*
X354498Y54094D02*
X354498Y63058D01*
X356462Y63058D01*
X356462Y54094D01*
X356462Y56285D02*
X354498Y56285D01*
X354498Y58476D02*
X356462Y58476D01*
X356462Y60667D02*
X354498Y60667D01*
X354498Y62858D02*
X356462Y62858D01*
X351462Y54094D02*
X349498Y54094D01*
X349498Y63058D01*
X351462Y63058D01*
X351462Y54094D01*
X351462Y56285D02*
X349498Y56285D01*
X349498Y58476D02*
X351462Y58476D01*
X351462Y60667D02*
X349498Y60667D01*
X349498Y62858D02*
X351462Y62858D01*
D12*
X377722Y54068D02*
X382738Y54068D01*
X377722Y54068D02*
X377722Y63084D01*
X382738Y63084D01*
X382738Y54068D01*
X382738Y56209D02*
X377722Y56209D01*
X377722Y58350D02*
X382738Y58350D01*
X382738Y60491D02*
X377722Y60491D01*
X377722Y62632D02*
X382738Y62632D01*
X374988Y54068D02*
X369972Y54068D01*
X369972Y63084D01*
X374988Y63084D01*
X374988Y54068D01*
X374988Y56209D02*
X369972Y56209D01*
X369972Y58350D02*
X374988Y58350D01*
X374988Y60491D02*
X369972Y60491D01*
X369972Y62632D02*
X374988Y62632D01*
D11*
X366462Y54094D02*
X364498Y54094D01*
X364498Y63058D01*
X366462Y63058D01*
X366462Y54094D01*
X366462Y56285D02*
X364498Y56285D01*
X364498Y58476D02*
X366462Y58476D01*
X366462Y60667D02*
X364498Y60667D01*
X364498Y62858D02*
X366462Y62858D01*
X361462Y54094D02*
X359498Y54094D01*
X359498Y63058D01*
X361462Y63058D01*
X361462Y54094D01*
X361462Y56285D02*
X359498Y56285D01*
X359498Y58476D02*
X361462Y58476D01*
X361462Y60667D02*
X359498Y60667D01*
X359498Y62858D02*
X361462Y62858D01*
X341462Y63058D02*
X339498Y63058D01*
X341462Y63058D02*
X341462Y54094D01*
X339498Y54094D01*
X339498Y63058D01*
X339498Y56285D02*
X341462Y56285D01*
X341462Y58476D02*
X339498Y58476D01*
X339498Y60667D02*
X341462Y60667D01*
X341462Y62858D02*
X339498Y62858D01*
X344498Y63058D02*
X346462Y63058D01*
X346462Y54094D01*
X344498Y54094D01*
X344498Y63058D01*
X344498Y56285D02*
X346462Y56285D01*
X346462Y58476D02*
X344498Y58476D01*
X344498Y60667D02*
X346462Y60667D01*
X346462Y62858D02*
X344498Y62858D01*
D12*
X318238Y63084D02*
X313222Y63084D01*
X318238Y63084D02*
X318238Y54068D01*
X313222Y54068D01*
X313222Y63084D01*
X313222Y56209D02*
X318238Y56209D01*
X318238Y58350D02*
X313222Y58350D01*
X313222Y60491D02*
X318238Y60491D01*
X318238Y62632D02*
X313222Y62632D01*
X320972Y63084D02*
X325988Y63084D01*
X325988Y54068D01*
X320972Y54068D01*
X320972Y63084D01*
X320972Y56209D02*
X325988Y56209D01*
X325988Y58350D02*
X320972Y58350D01*
X320972Y60491D02*
X325988Y60491D01*
X325988Y62632D02*
X320972Y62632D01*
D11*
X329498Y63058D02*
X331462Y63058D01*
X331462Y54094D01*
X329498Y54094D01*
X329498Y63058D01*
X329498Y56285D02*
X331462Y56285D01*
X331462Y58476D02*
X329498Y58476D01*
X329498Y60667D02*
X331462Y60667D01*
X331462Y62858D02*
X329498Y62858D01*
X334498Y63058D02*
X336462Y63058D01*
X336462Y54094D01*
X334498Y54094D01*
X334498Y63058D01*
X334498Y56285D02*
X336462Y56285D01*
X336462Y58476D02*
X334498Y58476D01*
X334498Y60667D02*
X336462Y60667D01*
X336462Y62858D02*
X334498Y62858D01*
D13*
X319080Y47526D03*
X376880Y47526D03*
D14*
X343715Y82915D02*
X343715Y87985D01*
X343715Y82915D02*
X342245Y82915D01*
X342245Y87985D01*
X343715Y87985D01*
X343715Y85100D02*
X342245Y85100D01*
X342245Y87285D02*
X343715Y87285D01*
X348715Y87485D02*
X348715Y82915D01*
X347245Y82915D01*
X347245Y87485D01*
X348715Y87485D01*
X348715Y85100D02*
X347245Y85100D01*
X347245Y87285D02*
X348715Y87285D01*
X353715Y87485D02*
X353715Y82915D01*
X352245Y82915D01*
X352245Y87485D01*
X353715Y87485D01*
X353715Y85100D02*
X352245Y85100D01*
X352245Y87285D02*
X353715Y87285D01*
X352245Y91515D02*
X352245Y96085D01*
X353715Y96085D01*
X353715Y91515D01*
X352245Y91515D01*
X352245Y93700D02*
X353715Y93700D01*
X353715Y95885D02*
X352245Y95885D01*
X347245Y96085D02*
X347245Y91515D01*
X347245Y96085D02*
X348715Y96085D01*
X348715Y91515D01*
X347245Y91515D01*
X347245Y93700D02*
X348715Y93700D01*
X348715Y95885D02*
X347245Y95885D01*
X342245Y96085D02*
X342245Y91515D01*
X342245Y96085D02*
X343715Y96085D01*
X343715Y91515D01*
X342245Y91515D01*
X342245Y93700D02*
X343715Y93700D01*
X343715Y95885D02*
X342245Y95885D01*
D15*
X328748Y163292D02*
X328748Y172308D01*
X328748Y163292D02*
X283732Y163292D01*
X283732Y172308D01*
X328748Y172308D01*
X328748Y165433D02*
X283732Y165433D01*
X283732Y167574D02*
X328748Y167574D01*
X328748Y169715D02*
X283732Y169715D01*
X283732Y171856D02*
X328748Y171856D01*
X328748Y183292D02*
X328748Y192308D01*
X328748Y183292D02*
X283732Y183292D01*
X283732Y192308D01*
X328748Y192308D01*
X328748Y185433D02*
X283732Y185433D01*
X283732Y187574D02*
X328748Y187574D01*
X328748Y189715D02*
X283732Y189715D01*
X283732Y191856D02*
X328748Y191856D01*
D16*
X270753Y151313D02*
X237727Y151313D01*
X270753Y151313D02*
X270753Y136287D01*
X237727Y136287D01*
X237727Y151313D01*
X237727Y138420D02*
X270753Y138420D01*
X270753Y140553D02*
X237727Y140553D01*
X237727Y142686D02*
X270753Y142686D01*
X270753Y144819D02*
X237727Y144819D01*
X237727Y146952D02*
X270753Y146952D01*
X270753Y149085D02*
X237727Y149085D01*
X237727Y151218D02*
X270753Y151218D01*
X270753Y219313D02*
X237727Y219313D01*
X270753Y219313D02*
X270753Y204287D01*
X237727Y204287D01*
X237727Y219313D01*
X237727Y206420D02*
X270753Y206420D01*
X270753Y208553D02*
X237727Y208553D01*
X237727Y210686D02*
X270753Y210686D01*
X270753Y212819D02*
X237727Y212819D01*
X237727Y214952D02*
X270753Y214952D01*
X270753Y217085D02*
X237727Y217085D01*
X237727Y219218D02*
X270753Y219218D01*
D17*
X341186Y172524D02*
X348174Y172524D01*
X348174Y165536D01*
X341186Y165536D01*
X341186Y172524D01*
X341186Y169605D02*
X348174Y169605D01*
X348174Y190064D02*
X341186Y190064D01*
X348174Y190064D02*
X348174Y183076D01*
X341186Y183076D01*
X341186Y190064D01*
X341186Y187145D02*
X348174Y187145D01*
D12*
X403172Y57508D02*
X403172Y52492D01*
X403172Y57508D02*
X408188Y57508D01*
X408188Y52492D01*
X403172Y52492D01*
X403172Y54633D02*
X408188Y54633D01*
X408188Y56774D02*
X403172Y56774D01*
X403172Y47508D02*
X403172Y42492D01*
X403172Y47508D02*
X408188Y47508D01*
X408188Y42492D01*
X403172Y42492D01*
X403172Y44633D02*
X408188Y44633D01*
X408188Y46774D02*
X403172Y46774D01*
X288172Y52492D02*
X288172Y57508D01*
X293188Y57508D01*
X293188Y52492D01*
X288172Y52492D01*
X288172Y54633D02*
X293188Y54633D01*
X293188Y56774D02*
X288172Y56774D01*
X288172Y47508D02*
X288172Y42492D01*
X288172Y47508D02*
X293188Y47508D01*
X293188Y42492D01*
X288172Y42492D01*
X288172Y44633D02*
X293188Y44633D01*
X293188Y46774D02*
X288172Y46774D01*
D18*
X238223Y111393D02*
X238223Y122407D01*
X257237Y122407D01*
X257237Y111393D01*
X238223Y111393D01*
X238223Y113536D02*
X257237Y113536D01*
X257237Y115679D02*
X238223Y115679D01*
X238223Y117822D02*
X257237Y117822D01*
X257237Y119965D02*
X238223Y119965D01*
X238223Y122108D02*
X257237Y122108D01*
X238223Y66407D02*
X238223Y55393D01*
X238223Y66407D02*
X257237Y66407D01*
X257237Y55393D01*
X238223Y55393D01*
X238223Y57536D02*
X257237Y57536D01*
X257237Y59679D02*
X238223Y59679D01*
X238223Y61822D02*
X257237Y61822D01*
X257237Y63965D02*
X238223Y63965D01*
X238223Y66108D02*
X257237Y66108D01*
D12*
X278222Y101392D02*
X278222Y106408D01*
X290738Y106408D01*
X290738Y101392D01*
X278222Y101392D01*
X278222Y103533D02*
X290738Y103533D01*
X290738Y105674D02*
X278222Y105674D01*
X278222Y96408D02*
X278222Y91392D01*
X278222Y96408D02*
X290738Y96408D01*
X290738Y91392D01*
X278222Y91392D01*
X278222Y93533D02*
X290738Y93533D01*
X290738Y95674D02*
X278222Y95674D01*
X278222Y86408D02*
X278222Y81392D01*
X278222Y86408D02*
X290738Y86408D01*
X290738Y81392D01*
X278222Y81392D01*
X278222Y83533D02*
X290738Y83533D01*
X290738Y85674D02*
X278222Y85674D01*
X278222Y76408D02*
X278222Y71392D01*
X278222Y76408D02*
X290738Y76408D01*
X290738Y71392D01*
X278222Y71392D01*
X278222Y73533D02*
X290738Y73533D01*
X290738Y75674D02*
X278222Y75674D01*
D19*
X259080Y25400D03*
X436880Y25400D03*
D20*
X278680Y7500D03*
X453680Y665000D03*
D15*
X290488Y662292D02*
X290488Y671308D01*
X290488Y662292D02*
X280472Y662292D01*
X280472Y671308D01*
X290488Y671308D01*
X290488Y664433D02*
X280472Y664433D01*
X280472Y666574D02*
X290488Y666574D01*
X290488Y668715D02*
X280472Y668715D01*
X280472Y670856D02*
X290488Y670856D01*
X299988Y656308D02*
X299988Y647292D01*
X280972Y647292D01*
X280972Y656308D01*
X299988Y656308D01*
X299988Y649433D02*
X280972Y649433D01*
X280972Y651574D02*
X299988Y651574D01*
X299988Y653715D02*
X280972Y653715D01*
X280972Y655856D02*
X299988Y655856D01*
X299988Y641308D02*
X299988Y632292D01*
X280972Y632292D01*
X280972Y641308D01*
X299988Y641308D01*
X299988Y634433D02*
X280972Y634433D01*
X280972Y636574D02*
X299988Y636574D01*
X299988Y638715D02*
X280972Y638715D01*
X280972Y640856D02*
X299988Y640856D01*
X299988Y626308D02*
X299988Y617292D01*
X280972Y617292D01*
X280972Y626308D01*
X299988Y626308D01*
X299988Y619433D02*
X280972Y619433D01*
X280972Y621574D02*
X299988Y621574D01*
X299988Y623715D02*
X280972Y623715D01*
X280972Y625856D02*
X299988Y625856D01*
X299988Y611308D02*
X299988Y602292D01*
X280972Y602292D01*
X280972Y611308D01*
X299988Y611308D01*
X299988Y604433D02*
X280972Y604433D01*
X280972Y606574D02*
X299988Y606574D01*
X299988Y608715D02*
X280972Y608715D01*
X280972Y610856D02*
X299988Y610856D01*
X305972Y598808D02*
X314988Y598808D01*
X314988Y579792D01*
X305972Y579792D01*
X305972Y598808D01*
X305972Y581933D02*
X314988Y581933D01*
X314988Y584074D02*
X305972Y584074D01*
X305972Y586215D02*
X314988Y586215D01*
X314988Y588356D02*
X305972Y588356D01*
X305972Y590497D02*
X314988Y590497D01*
X314988Y592638D02*
X305972Y592638D01*
X305972Y594779D02*
X314988Y594779D01*
X314988Y596920D02*
X305972Y596920D01*
X320972Y598808D02*
X329988Y598808D01*
X329988Y579792D01*
X320972Y579792D01*
X320972Y598808D01*
X320972Y581933D02*
X329988Y581933D01*
X329988Y584074D02*
X320972Y584074D01*
X320972Y586215D02*
X329988Y586215D01*
X329988Y588356D02*
X320972Y588356D01*
X320972Y590497D02*
X329988Y590497D01*
X329988Y592638D02*
X320972Y592638D01*
X320972Y594779D02*
X329988Y594779D01*
X329988Y596920D02*
X320972Y596920D01*
X335972Y598808D02*
X344988Y598808D01*
X344988Y579792D01*
X335972Y579792D01*
X335972Y598808D01*
X335972Y581933D02*
X344988Y581933D01*
X344988Y584074D02*
X335972Y584074D01*
X335972Y586215D02*
X344988Y586215D01*
X344988Y588356D02*
X335972Y588356D01*
X335972Y590497D02*
X344988Y590497D01*
X344988Y592638D02*
X335972Y592638D01*
X335972Y594779D02*
X344988Y594779D01*
X344988Y596920D02*
X335972Y596920D01*
X350972Y598808D02*
X359988Y598808D01*
X359988Y579792D01*
X350972Y579792D01*
X350972Y598808D01*
X350972Y581933D02*
X359988Y581933D01*
X359988Y584074D02*
X350972Y584074D01*
X350972Y586215D02*
X359988Y586215D01*
X359988Y588356D02*
X350972Y588356D01*
X350972Y590497D02*
X359988Y590497D01*
X359988Y592638D02*
X350972Y592638D01*
X350972Y594779D02*
X359988Y594779D01*
X359988Y596920D02*
X350972Y596920D01*
X365972Y598808D02*
X374988Y598808D01*
X374988Y579792D01*
X365972Y579792D01*
X365972Y598808D01*
X365972Y581933D02*
X374988Y581933D01*
X374988Y584074D02*
X365972Y584074D01*
X365972Y586215D02*
X374988Y586215D01*
X374988Y588356D02*
X365972Y588356D01*
X365972Y590497D02*
X374988Y590497D01*
X374988Y592638D02*
X365972Y592638D01*
X365972Y594779D02*
X374988Y594779D01*
X374988Y596920D02*
X365972Y596920D01*
X380972Y598808D02*
X389988Y598808D01*
X389988Y579792D01*
X380972Y579792D01*
X380972Y598808D01*
X380972Y581933D02*
X389988Y581933D01*
X389988Y584074D02*
X380972Y584074D01*
X380972Y586215D02*
X389988Y586215D01*
X389988Y588356D02*
X380972Y588356D01*
X380972Y590497D02*
X389988Y590497D01*
X389988Y592638D02*
X380972Y592638D01*
X380972Y594779D02*
X389988Y594779D01*
X389988Y596920D02*
X380972Y596920D01*
X395972Y602292D02*
X395972Y611308D01*
X414988Y611308D01*
X414988Y602292D01*
X395972Y602292D01*
X395972Y604433D02*
X414988Y604433D01*
X414988Y606574D02*
X395972Y606574D01*
X395972Y608715D02*
X414988Y608715D01*
X414988Y610856D02*
X395972Y610856D01*
X395972Y617292D02*
X395972Y626308D01*
X414988Y626308D01*
X414988Y617292D01*
X395972Y617292D01*
X395972Y619433D02*
X414988Y619433D01*
X414988Y621574D02*
X395972Y621574D01*
X395972Y623715D02*
X414988Y623715D01*
X414988Y625856D02*
X395972Y625856D01*
X395972Y632292D02*
X395972Y641308D01*
X414988Y641308D01*
X414988Y632292D01*
X395972Y632292D01*
X395972Y634433D02*
X414988Y634433D01*
X414988Y636574D02*
X395972Y636574D01*
X395972Y638715D02*
X414988Y638715D01*
X414988Y640856D02*
X395972Y640856D01*
X395972Y647292D02*
X395972Y656308D01*
X414988Y656308D01*
X414988Y647292D01*
X395972Y647292D01*
X395972Y649433D02*
X414988Y649433D01*
X414988Y651574D02*
X395972Y651574D01*
X395972Y653715D02*
X414988Y653715D01*
X414988Y655856D02*
X395972Y655856D01*
X395972Y662292D02*
X395972Y671308D01*
X414988Y671308D01*
X414988Y662292D01*
X395972Y662292D01*
X395972Y664433D02*
X414988Y664433D01*
X414988Y666574D02*
X395972Y666574D01*
X395972Y668715D02*
X414988Y668715D01*
X414988Y670856D02*
X395972Y670856D01*
D21*
X287980Y329500D03*
X292980Y329500D03*
X297980Y329500D03*
X302980Y329500D03*
X307980Y329500D03*
X312980Y329500D03*
X317980Y329500D03*
X322980Y329500D03*
X327980Y329500D03*
X332980Y329500D03*
X337980Y329500D03*
X342980Y329500D03*
X347980Y329500D03*
X352980Y329500D03*
X357980Y329500D03*
X362980Y329500D03*
X367980Y329500D03*
X372980Y329500D03*
X377980Y329500D03*
X382980Y329500D03*
X387980Y329500D03*
X392980Y329500D03*
X397980Y329500D03*
X402980Y329500D03*
X407980Y329500D03*
D22*
X423480Y345000D03*
X423480Y350000D03*
X423480Y355000D03*
X423480Y360000D03*
X423480Y365000D03*
X423480Y370000D03*
X423480Y375000D03*
X423480Y380000D03*
X423480Y385000D03*
X423480Y390000D03*
X423480Y395000D03*
X423480Y400000D03*
X423480Y405000D03*
X423480Y410000D03*
X423480Y415000D03*
X423480Y420000D03*
X423480Y425000D03*
X423480Y430000D03*
X423480Y435000D03*
X423480Y440000D03*
X423480Y445000D03*
X423480Y450000D03*
X423480Y455000D03*
X423480Y460000D03*
X423480Y465000D03*
D21*
X407980Y480500D03*
X402980Y480500D03*
X397980Y480500D03*
X392980Y480500D03*
X387980Y480500D03*
X382980Y480500D03*
X377980Y480500D03*
X372980Y480500D03*
X367980Y480500D03*
X362980Y480500D03*
X357980Y480500D03*
X352980Y480500D03*
X347980Y480500D03*
X342980Y480500D03*
X337980Y480500D03*
X332980Y480500D03*
X327980Y480500D03*
X322980Y480500D03*
X317980Y480500D03*
X312980Y480500D03*
X307980Y480500D03*
X302980Y480500D03*
X297980Y480500D03*
X292980Y480500D03*
X287980Y480500D03*
D22*
X272480Y465000D03*
X272480Y460000D03*
X272480Y455000D03*
X272480Y450000D03*
X272480Y445000D03*
X272480Y440000D03*
X272480Y435000D03*
X272480Y430000D03*
X272480Y425000D03*
X272480Y420000D03*
X272480Y415000D03*
X272480Y410000D03*
X272480Y405000D03*
X272480Y400000D03*
X272480Y395000D03*
X272480Y390000D03*
X272480Y385000D03*
X272480Y380000D03*
X272480Y375000D03*
X272480Y370000D03*
X272480Y365000D03*
X272480Y360000D03*
X272480Y355000D03*
X272480Y350000D03*
X272480Y345000D03*
D15*
X283638Y285011D02*
X290013Y278636D01*
X283638Y285011D02*
X295669Y297042D01*
X302044Y290667D01*
X290013Y278636D01*
X292154Y280777D02*
X287872Y280777D01*
X285731Y282918D02*
X294295Y282918D01*
X296436Y285059D02*
X283686Y285059D01*
X285827Y287200D02*
X298577Y287200D01*
X300718Y289341D02*
X287968Y289341D01*
X290109Y291482D02*
X301229Y291482D01*
X299088Y293623D02*
X292250Y293623D01*
X294391Y295764D02*
X296947Y295764D01*
X301316Y267333D02*
X307691Y260958D01*
X301316Y267333D02*
X313347Y279364D01*
X319722Y272989D01*
X307691Y260958D01*
X309832Y263099D02*
X305550Y263099D01*
X303409Y265240D02*
X311973Y265240D01*
X314114Y267381D02*
X301364Y267381D01*
X303505Y269522D02*
X316255Y269522D01*
X318396Y271663D02*
X305646Y271663D01*
X307787Y273804D02*
X318907Y273804D01*
X316766Y275945D02*
X309928Y275945D01*
X312069Y278086D02*
X314625Y278086D01*
D12*
X313762Y294464D02*
X310216Y298010D01*
X313762Y294464D02*
X310216Y290918D01*
X306670Y294464D01*
X310216Y298010D01*
X312357Y293059D02*
X308075Y293059D01*
X307406Y295200D02*
X313026Y295200D01*
X310885Y297341D02*
X309547Y297341D01*
X306690Y301536D02*
X303144Y305082D01*
X306690Y301536D02*
X303144Y297990D01*
X299598Y301536D01*
X303144Y305082D01*
X305285Y300131D02*
X301003Y300131D01*
X300334Y302272D02*
X305954Y302272D01*
X303813Y304413D02*
X302475Y304413D01*
X313598Y287536D02*
X317144Y283990D01*
X313598Y287536D02*
X317144Y291082D01*
X320690Y287536D01*
X317144Y283990D01*
X319285Y286131D02*
X315003Y286131D01*
X314334Y288272D02*
X319954Y288272D01*
X317813Y290413D02*
X316475Y290413D01*
X320670Y280464D02*
X324216Y276918D01*
X320670Y280464D02*
X324216Y284010D01*
X327762Y280464D01*
X324216Y276918D01*
X326357Y279059D02*
X322075Y279059D01*
X321406Y281200D02*
X327026Y281200D01*
X324885Y283341D02*
X323547Y283341D01*
D23*
X377626Y291375D02*
X386861Y300610D01*
X393976Y293495D01*
X384741Y284260D01*
X377626Y291375D01*
X382642Y286359D02*
X386840Y286359D01*
X388939Y288458D02*
X380543Y288458D01*
X378444Y290557D02*
X391038Y290557D01*
X393137Y292656D02*
X378907Y292656D01*
X381006Y294755D02*
X392716Y294755D01*
X390617Y296854D02*
X383105Y296854D01*
X385204Y298953D02*
X388518Y298953D01*
X371305Y285054D02*
X362070Y275819D01*
X371305Y285054D02*
X378420Y277939D01*
X369185Y268704D01*
X362070Y275819D01*
X367086Y270803D02*
X371284Y270803D01*
X373383Y272902D02*
X364987Y272902D01*
X362888Y275001D02*
X375482Y275001D01*
X377581Y277100D02*
X363351Y277100D01*
X365450Y279199D02*
X377160Y279199D01*
X375061Y281298D02*
X367549Y281298D01*
X369648Y283397D02*
X372962Y283397D01*
X382619Y273740D02*
X373384Y264505D01*
X382619Y273740D02*
X389734Y266625D01*
X380499Y257390D01*
X373384Y264505D01*
X378400Y259489D02*
X382598Y259489D01*
X384697Y261588D02*
X376301Y261588D01*
X374202Y263687D02*
X386796Y263687D01*
X388895Y265786D02*
X374665Y265786D01*
X376764Y267885D02*
X388474Y267885D01*
X386375Y269984D02*
X378863Y269984D01*
X380962Y272083D02*
X384276Y272083D01*
X388940Y280061D02*
X398175Y289296D01*
X405290Y282181D01*
X396055Y272946D01*
X388940Y280061D01*
X393956Y275045D02*
X398154Y275045D01*
X400253Y277144D02*
X391857Y277144D01*
X389758Y279243D02*
X402352Y279243D01*
X404451Y281342D02*
X390221Y281342D01*
X392320Y283441D02*
X404030Y283441D01*
X401931Y285540D02*
X394419Y285540D01*
X396518Y287639D02*
X399832Y287639D01*
D24*
X427974Y105094D02*
X435986Y105094D01*
X427974Y105094D02*
X427974Y114106D01*
X435986Y114106D01*
X435986Y105094D01*
X435986Y107240D02*
X427974Y107240D01*
X427974Y109386D02*
X435986Y109386D01*
X435986Y111532D02*
X427974Y111532D01*
X427974Y113678D02*
X435986Y113678D01*
X435986Y89094D02*
X427974Y89094D01*
X427974Y98106D01*
X435986Y98106D01*
X435986Y89094D01*
X435986Y91240D02*
X427974Y91240D01*
X427974Y93386D02*
X435986Y93386D01*
X435986Y95532D02*
X427974Y95532D01*
X427974Y97678D02*
X435986Y97678D01*
X394986Y89094D02*
X386974Y89094D01*
X386974Y98106D01*
X394986Y98106D01*
X394986Y89094D01*
X394986Y91240D02*
X386974Y91240D01*
X386974Y93386D02*
X394986Y93386D01*
X394986Y95532D02*
X386974Y95532D01*
X386974Y97678D02*
X394986Y97678D01*
X394986Y105094D02*
X386974Y105094D01*
X386974Y114106D01*
X394986Y114106D01*
X394986Y105094D01*
X394986Y107240D02*
X386974Y107240D01*
X386974Y109386D02*
X394986Y109386D01*
X394986Y111532D02*
X386974Y111532D01*
X386974Y113678D02*
X394986Y113678D01*
D17*
X250404Y622506D02*
X250404Y629494D01*
X250404Y622506D02*
X243416Y622506D01*
X243416Y629494D01*
X250404Y629494D01*
X250404Y626575D02*
X243416Y626575D01*
X267944Y629494D02*
X267944Y622506D01*
X260956Y622506D01*
X260956Y629494D01*
X267944Y629494D01*
X267944Y626575D02*
X260956Y626575D01*
D25*
X252157Y661173D02*
X252157Y667127D01*
X252157Y661173D02*
X246203Y661173D01*
X246203Y667127D01*
X252157Y667127D01*
X252157Y663373D02*
X246203Y663373D01*
X246203Y665573D02*
X252157Y665573D01*
X263157Y667127D02*
X263157Y661173D01*
X257203Y661173D01*
X257203Y667127D01*
X263157Y667127D01*
X263157Y663373D02*
X257203Y663373D01*
X257203Y665573D02*
X263157Y665573D01*
X263157Y648827D02*
X263157Y642873D01*
X257203Y642873D01*
X257203Y648827D01*
X263157Y648827D01*
X263157Y645073D02*
X257203Y645073D01*
X257203Y647273D02*
X263157Y647273D01*
X252157Y648827D02*
X252157Y642873D01*
X246203Y642873D01*
X246203Y648827D01*
X252157Y648827D01*
X252157Y645073D02*
X246203Y645073D01*
X246203Y647273D02*
X252157Y647273D01*
D17*
X250404Y602494D02*
X250404Y595506D01*
X243416Y595506D01*
X243416Y602494D01*
X250404Y602494D01*
X250404Y599575D02*
X243416Y599575D01*
X267944Y602494D02*
X267944Y595506D01*
X260956Y595506D01*
X260956Y602494D01*
X267944Y602494D01*
X267944Y599575D02*
X260956Y599575D01*
D19*
X259080Y558800D03*
X436880Y558800D03*
D26*
X316656Y133976D02*
X309704Y133976D01*
X316656Y133976D02*
X316656Y123024D01*
X309704Y123024D01*
X309704Y133976D01*
X309704Y125226D02*
X316656Y125226D01*
X316656Y127428D02*
X309704Y127428D01*
X309704Y129630D02*
X316656Y129630D01*
X316656Y131832D02*
X309704Y131832D01*
X298656Y133976D02*
X291704Y133976D01*
X298656Y133976D02*
X298656Y123024D01*
X291704Y123024D01*
X291704Y133976D01*
X291704Y125226D02*
X298656Y125226D01*
X298656Y127428D02*
X291704Y127428D01*
X291704Y129630D02*
X298656Y129630D01*
X298656Y131832D02*
X291704Y131832D01*
X328704Y112976D02*
X335656Y112976D01*
X335656Y105024D01*
X328704Y105024D01*
X328704Y112976D01*
X328704Y107226D02*
X335656Y107226D01*
X335656Y109428D02*
X328704Y109428D01*
X328704Y111630D02*
X335656Y111630D01*
X316656Y112976D02*
X309704Y112976D01*
X316656Y112976D02*
X316656Y105024D01*
X309704Y105024D01*
X309704Y112976D01*
X309704Y107226D02*
X316656Y107226D01*
X316656Y109428D02*
X309704Y109428D01*
X309704Y111630D02*
X316656Y111630D01*
X319204Y91976D02*
X326156Y91976D01*
X326156Y84024D01*
X319204Y84024D01*
X319204Y91976D01*
X319204Y86226D02*
X326156Y86226D01*
X326156Y88428D02*
X319204Y88428D01*
X319204Y90630D02*
X326156Y90630D01*
D12*
X329672Y128492D02*
X329672Y133508D01*
X334688Y133508D01*
X334688Y128492D01*
X329672Y128492D01*
X329672Y130633D02*
X334688Y130633D01*
X334688Y132774D02*
X329672Y132774D01*
X329672Y123508D02*
X329672Y118492D01*
X329672Y123508D02*
X334688Y123508D01*
X334688Y118492D01*
X329672Y118492D01*
X329672Y120633D02*
X334688Y120633D01*
X334688Y122774D02*
X329672Y122774D01*
X322688Y79508D02*
X317672Y79508D01*
X322688Y79508D02*
X322688Y74492D01*
X317672Y74492D01*
X317672Y79508D01*
X317672Y76633D02*
X322688Y76633D01*
X322688Y78774D02*
X317672Y78774D01*
X312688Y79508D02*
X307672Y79508D01*
X312688Y79508D02*
X312688Y74492D01*
X307672Y74492D01*
X307672Y79508D01*
X307672Y76633D02*
X312688Y76633D01*
X312688Y78774D02*
X307672Y78774D01*
D24*
X386174Y135994D02*
X386174Y144006D01*
X395186Y144006D01*
X395186Y135994D01*
X386174Y135994D01*
X386174Y138140D02*
X395186Y138140D01*
X395186Y140286D02*
X386174Y140286D01*
X386174Y142432D02*
X395186Y142432D01*
X370174Y144006D02*
X370174Y135994D01*
X370174Y144006D02*
X379186Y144006D01*
X379186Y135994D01*
X370174Y135994D01*
X370174Y138140D02*
X379186Y138140D01*
X379186Y140286D02*
X370174Y140286D01*
X370174Y142432D02*
X379186Y142432D01*
X370174Y176994D02*
X370174Y185006D01*
X379186Y185006D01*
X379186Y176994D01*
X370174Y176994D01*
X370174Y179140D02*
X379186Y179140D01*
X379186Y181286D02*
X370174Y181286D01*
X370174Y183432D02*
X379186Y183432D01*
X386174Y185006D02*
X386174Y176994D01*
X386174Y185006D02*
X395186Y185006D01*
X395186Y176994D01*
X386174Y176994D01*
X386174Y179140D02*
X395186Y179140D01*
X395186Y181286D02*
X386174Y181286D01*
X386174Y183432D02*
X395186Y183432D01*
D10*
X683260Y520700D03*
X683260Y495300D03*
X683260Y469900D03*
X683260Y444500D03*
X683260Y419100D03*
X683260Y393700D03*
X683260Y368300D03*
X683260Y342900D03*
X683260Y317500D03*
X683260Y292100D03*
X683260Y266700D03*
X683260Y241300D03*
X683260Y215900D03*
X683260Y190500D03*
X683260Y165100D03*
X683260Y139700D03*
X480060Y241300D03*
X480060Y266700D03*
X480060Y292100D03*
X480060Y317500D03*
X480060Y342900D03*
X480060Y368300D03*
X480060Y393700D03*
X480060Y419100D03*
X480060Y444500D03*
X480060Y469900D03*
X480060Y495300D03*
X480060Y520700D03*
D11*
X588178Y54094D02*
X590142Y54094D01*
X588178Y54094D02*
X588178Y63058D01*
X590142Y63058D01*
X590142Y54094D01*
X590142Y56285D02*
X588178Y56285D01*
X588178Y58476D02*
X590142Y58476D01*
X590142Y60667D02*
X588178Y60667D01*
X588178Y62858D02*
X590142Y62858D01*
X585142Y54094D02*
X583178Y54094D01*
X583178Y63058D01*
X585142Y63058D01*
X585142Y54094D01*
X585142Y56285D02*
X583178Y56285D01*
X583178Y58476D02*
X585142Y58476D01*
X585142Y60667D02*
X583178Y60667D01*
X583178Y62858D02*
X585142Y62858D01*
D12*
X611402Y54068D02*
X616418Y54068D01*
X611402Y54068D02*
X611402Y63084D01*
X616418Y63084D01*
X616418Y54068D01*
X616418Y56209D02*
X611402Y56209D01*
X611402Y58350D02*
X616418Y58350D01*
X616418Y60491D02*
X611402Y60491D01*
X611402Y62632D02*
X616418Y62632D01*
X608668Y54068D02*
X603652Y54068D01*
X603652Y63084D01*
X608668Y63084D01*
X608668Y54068D01*
X608668Y56209D02*
X603652Y56209D01*
X603652Y58350D02*
X608668Y58350D01*
X608668Y60491D02*
X603652Y60491D01*
X603652Y62632D02*
X608668Y62632D01*
D11*
X600142Y54094D02*
X598178Y54094D01*
X598178Y63058D01*
X600142Y63058D01*
X600142Y54094D01*
X600142Y56285D02*
X598178Y56285D01*
X598178Y58476D02*
X600142Y58476D01*
X600142Y60667D02*
X598178Y60667D01*
X598178Y62858D02*
X600142Y62858D01*
X595142Y54094D02*
X593178Y54094D01*
X593178Y63058D01*
X595142Y63058D01*
X595142Y54094D01*
X595142Y56285D02*
X593178Y56285D01*
X593178Y58476D02*
X595142Y58476D01*
X595142Y60667D02*
X593178Y60667D01*
X593178Y62858D02*
X595142Y62858D01*
X575142Y63058D02*
X573178Y63058D01*
X575142Y63058D02*
X575142Y54094D01*
X573178Y54094D01*
X573178Y63058D01*
X573178Y56285D02*
X575142Y56285D01*
X575142Y58476D02*
X573178Y58476D01*
X573178Y60667D02*
X575142Y60667D01*
X575142Y62858D02*
X573178Y62858D01*
X578178Y63058D02*
X580142Y63058D01*
X580142Y54094D01*
X578178Y54094D01*
X578178Y63058D01*
X578178Y56285D02*
X580142Y56285D01*
X580142Y58476D02*
X578178Y58476D01*
X578178Y60667D02*
X580142Y60667D01*
X580142Y62858D02*
X578178Y62858D01*
D12*
X551918Y63084D02*
X546902Y63084D01*
X551918Y63084D02*
X551918Y54068D01*
X546902Y54068D01*
X546902Y63084D01*
X546902Y56209D02*
X551918Y56209D01*
X551918Y58350D02*
X546902Y58350D01*
X546902Y60491D02*
X551918Y60491D01*
X551918Y62632D02*
X546902Y62632D01*
X554652Y63084D02*
X559668Y63084D01*
X559668Y54068D01*
X554652Y54068D01*
X554652Y63084D01*
X554652Y56209D02*
X559668Y56209D01*
X559668Y58350D02*
X554652Y58350D01*
X554652Y60491D02*
X559668Y60491D01*
X559668Y62632D02*
X554652Y62632D01*
D11*
X563178Y63058D02*
X565142Y63058D01*
X565142Y54094D01*
X563178Y54094D01*
X563178Y63058D01*
X563178Y56285D02*
X565142Y56285D01*
X565142Y58476D02*
X563178Y58476D01*
X563178Y60667D02*
X565142Y60667D01*
X565142Y62858D02*
X563178Y62858D01*
X568178Y63058D02*
X570142Y63058D01*
X570142Y54094D01*
X568178Y54094D01*
X568178Y63058D01*
X568178Y56285D02*
X570142Y56285D01*
X570142Y58476D02*
X568178Y58476D01*
X568178Y60667D02*
X570142Y60667D01*
X570142Y62858D02*
X568178Y62858D01*
D13*
X552760Y47526D03*
X610560Y47526D03*
D14*
X577395Y82915D02*
X577395Y87985D01*
X577395Y82915D02*
X575925Y82915D01*
X575925Y87985D01*
X577395Y87985D01*
X577395Y85100D02*
X575925Y85100D01*
X575925Y87285D02*
X577395Y87285D01*
X582395Y87485D02*
X582395Y82915D01*
X580925Y82915D01*
X580925Y87485D01*
X582395Y87485D01*
X582395Y85100D02*
X580925Y85100D01*
X580925Y87285D02*
X582395Y87285D01*
X587395Y87485D02*
X587395Y82915D01*
X585925Y82915D01*
X585925Y87485D01*
X587395Y87485D01*
X587395Y85100D02*
X585925Y85100D01*
X585925Y87285D02*
X587395Y87285D01*
X585925Y91515D02*
X585925Y96085D01*
X587395Y96085D01*
X587395Y91515D01*
X585925Y91515D01*
X585925Y93700D02*
X587395Y93700D01*
X587395Y95885D02*
X585925Y95885D01*
X580925Y96085D02*
X580925Y91515D01*
X580925Y96085D02*
X582395Y96085D01*
X582395Y91515D01*
X580925Y91515D01*
X580925Y93700D02*
X582395Y93700D01*
X582395Y95885D02*
X580925Y95885D01*
X575925Y96085D02*
X575925Y91515D01*
X575925Y96085D02*
X577395Y96085D01*
X577395Y91515D01*
X575925Y91515D01*
X575925Y93700D02*
X577395Y93700D01*
X577395Y95885D02*
X575925Y95885D01*
D15*
X562428Y163292D02*
X562428Y172308D01*
X562428Y163292D02*
X517412Y163292D01*
X517412Y172308D01*
X562428Y172308D01*
X562428Y165433D02*
X517412Y165433D01*
X517412Y167574D02*
X562428Y167574D01*
X562428Y169715D02*
X517412Y169715D01*
X517412Y171856D02*
X562428Y171856D01*
X562428Y183292D02*
X562428Y192308D01*
X562428Y183292D02*
X517412Y183292D01*
X517412Y192308D01*
X562428Y192308D01*
X562428Y185433D02*
X517412Y185433D01*
X517412Y187574D02*
X562428Y187574D01*
X562428Y189715D02*
X517412Y189715D01*
X517412Y191856D02*
X562428Y191856D01*
D16*
X504433Y151313D02*
X471407Y151313D01*
X504433Y151313D02*
X504433Y136287D01*
X471407Y136287D01*
X471407Y151313D01*
X471407Y138420D02*
X504433Y138420D01*
X504433Y140553D02*
X471407Y140553D01*
X471407Y142686D02*
X504433Y142686D01*
X504433Y144819D02*
X471407Y144819D01*
X471407Y146952D02*
X504433Y146952D01*
X504433Y149085D02*
X471407Y149085D01*
X471407Y151218D02*
X504433Y151218D01*
X504433Y219313D02*
X471407Y219313D01*
X504433Y219313D02*
X504433Y204287D01*
X471407Y204287D01*
X471407Y219313D01*
X471407Y206420D02*
X504433Y206420D01*
X504433Y208553D02*
X471407Y208553D01*
X471407Y210686D02*
X504433Y210686D01*
X504433Y212819D02*
X471407Y212819D01*
X471407Y214952D02*
X504433Y214952D01*
X504433Y217085D02*
X471407Y217085D01*
X471407Y219218D02*
X504433Y219218D01*
D17*
X574866Y172524D02*
X581854Y172524D01*
X581854Y165536D01*
X574866Y165536D01*
X574866Y172524D01*
X574866Y169605D02*
X581854Y169605D01*
X581854Y190064D02*
X574866Y190064D01*
X581854Y190064D02*
X581854Y183076D01*
X574866Y183076D01*
X574866Y190064D01*
X574866Y187145D02*
X581854Y187145D01*
D12*
X636852Y57508D02*
X636852Y52492D01*
X636852Y57508D02*
X641868Y57508D01*
X641868Y52492D01*
X636852Y52492D01*
X636852Y54633D02*
X641868Y54633D01*
X641868Y56774D02*
X636852Y56774D01*
X636852Y47508D02*
X636852Y42492D01*
X636852Y47508D02*
X641868Y47508D01*
X641868Y42492D01*
X636852Y42492D01*
X636852Y44633D02*
X641868Y44633D01*
X641868Y46774D02*
X636852Y46774D01*
X521852Y52492D02*
X521852Y57508D01*
X526868Y57508D01*
X526868Y52492D01*
X521852Y52492D01*
X521852Y54633D02*
X526868Y54633D01*
X526868Y56774D02*
X521852Y56774D01*
X521852Y47508D02*
X521852Y42492D01*
X521852Y47508D02*
X526868Y47508D01*
X526868Y42492D01*
X521852Y42492D01*
X521852Y44633D02*
X526868Y44633D01*
X526868Y46774D02*
X521852Y46774D01*
D18*
X471903Y111393D02*
X471903Y122407D01*
X490917Y122407D01*
X490917Y111393D01*
X471903Y111393D01*
X471903Y113536D02*
X490917Y113536D01*
X490917Y115679D02*
X471903Y115679D01*
X471903Y117822D02*
X490917Y117822D01*
X490917Y119965D02*
X471903Y119965D01*
X471903Y122108D02*
X490917Y122108D01*
X471903Y66407D02*
X471903Y55393D01*
X471903Y66407D02*
X490917Y66407D01*
X490917Y55393D01*
X471903Y55393D01*
X471903Y57536D02*
X490917Y57536D01*
X490917Y59679D02*
X471903Y59679D01*
X471903Y61822D02*
X490917Y61822D01*
X490917Y63965D02*
X471903Y63965D01*
X471903Y66108D02*
X490917Y66108D01*
D12*
X511902Y101392D02*
X511902Y106408D01*
X524418Y106408D01*
X524418Y101392D01*
X511902Y101392D01*
X511902Y103533D02*
X524418Y103533D01*
X524418Y105674D02*
X511902Y105674D01*
X511902Y96408D02*
X511902Y91392D01*
X511902Y96408D02*
X524418Y96408D01*
X524418Y91392D01*
X511902Y91392D01*
X511902Y93533D02*
X524418Y93533D01*
X524418Y95674D02*
X511902Y95674D01*
X511902Y86408D02*
X511902Y81392D01*
X511902Y86408D02*
X524418Y86408D01*
X524418Y81392D01*
X511902Y81392D01*
X511902Y83533D02*
X524418Y83533D01*
X524418Y85674D02*
X511902Y85674D01*
X511902Y76408D02*
X511902Y71392D01*
X511902Y76408D02*
X524418Y76408D01*
X524418Y71392D01*
X511902Y71392D01*
X511902Y73533D02*
X524418Y73533D01*
X524418Y75674D02*
X511902Y75674D01*
D19*
X492760Y25400D03*
X670560Y25400D03*
D20*
X512360Y7500D03*
X687360Y665000D03*
D15*
X524168Y662292D02*
X524168Y671308D01*
X524168Y662292D02*
X514152Y662292D01*
X514152Y671308D01*
X524168Y671308D01*
X524168Y664433D02*
X514152Y664433D01*
X514152Y666574D02*
X524168Y666574D01*
X524168Y668715D02*
X514152Y668715D01*
X514152Y670856D02*
X524168Y670856D01*
X533668Y656308D02*
X533668Y647292D01*
X514652Y647292D01*
X514652Y656308D01*
X533668Y656308D01*
X533668Y649433D02*
X514652Y649433D01*
X514652Y651574D02*
X533668Y651574D01*
X533668Y653715D02*
X514652Y653715D01*
X514652Y655856D02*
X533668Y655856D01*
X533668Y641308D02*
X533668Y632292D01*
X514652Y632292D01*
X514652Y641308D01*
X533668Y641308D01*
X533668Y634433D02*
X514652Y634433D01*
X514652Y636574D02*
X533668Y636574D01*
X533668Y638715D02*
X514652Y638715D01*
X514652Y640856D02*
X533668Y640856D01*
X533668Y626308D02*
X533668Y617292D01*
X514652Y617292D01*
X514652Y626308D01*
X533668Y626308D01*
X533668Y619433D02*
X514652Y619433D01*
X514652Y621574D02*
X533668Y621574D01*
X533668Y623715D02*
X514652Y623715D01*
X514652Y625856D02*
X533668Y625856D01*
X533668Y611308D02*
X533668Y602292D01*
X514652Y602292D01*
X514652Y611308D01*
X533668Y611308D01*
X533668Y604433D02*
X514652Y604433D01*
X514652Y606574D02*
X533668Y606574D01*
X533668Y608715D02*
X514652Y608715D01*
X514652Y610856D02*
X533668Y610856D01*
X539652Y598808D02*
X548668Y598808D01*
X548668Y579792D01*
X539652Y579792D01*
X539652Y598808D01*
X539652Y581933D02*
X548668Y581933D01*
X548668Y584074D02*
X539652Y584074D01*
X539652Y586215D02*
X548668Y586215D01*
X548668Y588356D02*
X539652Y588356D01*
X539652Y590497D02*
X548668Y590497D01*
X548668Y592638D02*
X539652Y592638D01*
X539652Y594779D02*
X548668Y594779D01*
X548668Y596920D02*
X539652Y596920D01*
X554652Y598808D02*
X563668Y598808D01*
X563668Y579792D01*
X554652Y579792D01*
X554652Y598808D01*
X554652Y581933D02*
X563668Y581933D01*
X563668Y584074D02*
X554652Y584074D01*
X554652Y586215D02*
X563668Y586215D01*
X563668Y588356D02*
X554652Y588356D01*
X554652Y590497D02*
X563668Y590497D01*
X563668Y592638D02*
X554652Y592638D01*
X554652Y594779D02*
X563668Y594779D01*
X563668Y596920D02*
X554652Y596920D01*
X569652Y598808D02*
X578668Y598808D01*
X578668Y579792D01*
X569652Y579792D01*
X569652Y598808D01*
X569652Y581933D02*
X578668Y581933D01*
X578668Y584074D02*
X569652Y584074D01*
X569652Y586215D02*
X578668Y586215D01*
X578668Y588356D02*
X569652Y588356D01*
X569652Y590497D02*
X578668Y590497D01*
X578668Y592638D02*
X569652Y592638D01*
X569652Y594779D02*
X578668Y594779D01*
X578668Y596920D02*
X569652Y596920D01*
X584652Y598808D02*
X593668Y598808D01*
X593668Y579792D01*
X584652Y579792D01*
X584652Y598808D01*
X584652Y581933D02*
X593668Y581933D01*
X593668Y584074D02*
X584652Y584074D01*
X584652Y586215D02*
X593668Y586215D01*
X593668Y588356D02*
X584652Y588356D01*
X584652Y590497D02*
X593668Y590497D01*
X593668Y592638D02*
X584652Y592638D01*
X584652Y594779D02*
X593668Y594779D01*
X593668Y596920D02*
X584652Y596920D01*
X599652Y598808D02*
X608668Y598808D01*
X608668Y579792D01*
X599652Y579792D01*
X599652Y598808D01*
X599652Y581933D02*
X608668Y581933D01*
X608668Y584074D02*
X599652Y584074D01*
X599652Y586215D02*
X608668Y586215D01*
X608668Y588356D02*
X599652Y588356D01*
X599652Y590497D02*
X608668Y590497D01*
X608668Y592638D02*
X599652Y592638D01*
X599652Y594779D02*
X608668Y594779D01*
X608668Y596920D02*
X599652Y596920D01*
X614652Y598808D02*
X623668Y598808D01*
X623668Y579792D01*
X614652Y579792D01*
X614652Y598808D01*
X614652Y581933D02*
X623668Y581933D01*
X623668Y584074D02*
X614652Y584074D01*
X614652Y586215D02*
X623668Y586215D01*
X623668Y588356D02*
X614652Y588356D01*
X614652Y590497D02*
X623668Y590497D01*
X623668Y592638D02*
X614652Y592638D01*
X614652Y594779D02*
X623668Y594779D01*
X623668Y596920D02*
X614652Y596920D01*
X629652Y602292D02*
X629652Y611308D01*
X648668Y611308D01*
X648668Y602292D01*
X629652Y602292D01*
X629652Y604433D02*
X648668Y604433D01*
X648668Y606574D02*
X629652Y606574D01*
X629652Y608715D02*
X648668Y608715D01*
X648668Y610856D02*
X629652Y610856D01*
X629652Y617292D02*
X629652Y626308D01*
X648668Y626308D01*
X648668Y617292D01*
X629652Y617292D01*
X629652Y619433D02*
X648668Y619433D01*
X648668Y621574D02*
X629652Y621574D01*
X629652Y623715D02*
X648668Y623715D01*
X648668Y625856D02*
X629652Y625856D01*
X629652Y632292D02*
X629652Y641308D01*
X648668Y641308D01*
X648668Y632292D01*
X629652Y632292D01*
X629652Y634433D02*
X648668Y634433D01*
X648668Y636574D02*
X629652Y636574D01*
X629652Y638715D02*
X648668Y638715D01*
X648668Y640856D02*
X629652Y640856D01*
X629652Y647292D02*
X629652Y656308D01*
X648668Y656308D01*
X648668Y647292D01*
X629652Y647292D01*
X629652Y649433D02*
X648668Y649433D01*
X648668Y651574D02*
X629652Y651574D01*
X629652Y653715D02*
X648668Y653715D01*
X648668Y655856D02*
X629652Y655856D01*
X629652Y662292D02*
X629652Y671308D01*
X648668Y671308D01*
X648668Y662292D01*
X629652Y662292D01*
X629652Y664433D02*
X648668Y664433D01*
X648668Y666574D02*
X629652Y666574D01*
X629652Y668715D02*
X648668Y668715D01*
X648668Y670856D02*
X629652Y670856D01*
D21*
X521660Y329500D03*
X526660Y329500D03*
X531660Y329500D03*
X536660Y329500D03*
X541660Y329500D03*
X546660Y329500D03*
X551660Y329500D03*
X556660Y329500D03*
X561660Y329500D03*
X566660Y329500D03*
X571660Y329500D03*
X576660Y329500D03*
X581660Y329500D03*
X586660Y329500D03*
X591660Y329500D03*
X596660Y329500D03*
X601660Y329500D03*
X606660Y329500D03*
X611660Y329500D03*
X616660Y329500D03*
X621660Y329500D03*
X626660Y329500D03*
X631660Y329500D03*
X636660Y329500D03*
X641660Y329500D03*
D22*
X657160Y345000D03*
X657160Y350000D03*
X657160Y355000D03*
X657160Y360000D03*
X657160Y365000D03*
X657160Y370000D03*
X657160Y375000D03*
X657160Y380000D03*
X657160Y385000D03*
X657160Y390000D03*
X657160Y395000D03*
X657160Y400000D03*
X657160Y405000D03*
X657160Y410000D03*
X657160Y415000D03*
X657160Y420000D03*
X657160Y425000D03*
X657160Y430000D03*
X657160Y435000D03*
X657160Y440000D03*
X657160Y445000D03*
X657160Y450000D03*
X657160Y455000D03*
X657160Y460000D03*
X657160Y465000D03*
D21*
X641660Y480500D03*
X636660Y480500D03*
X631660Y480500D03*
X626660Y480500D03*
X621660Y480500D03*
X616660Y480500D03*
X611660Y480500D03*
X606660Y480500D03*
X601660Y480500D03*
X596660Y480500D03*
X591660Y480500D03*
X586660Y480500D03*
X581660Y480500D03*
X576660Y480500D03*
X571660Y480500D03*
X566660Y480500D03*
X561660Y480500D03*
X556660Y480500D03*
X551660Y480500D03*
X546660Y480500D03*
X541660Y480500D03*
X536660Y480500D03*
X531660Y480500D03*
X526660Y480500D03*
X521660Y480500D03*
D22*
X506160Y465000D03*
X506160Y460000D03*
X506160Y455000D03*
X506160Y450000D03*
X506160Y445000D03*
X506160Y440000D03*
X506160Y435000D03*
X506160Y430000D03*
X506160Y425000D03*
X506160Y420000D03*
X506160Y415000D03*
X506160Y410000D03*
X506160Y405000D03*
X506160Y400000D03*
X506160Y395000D03*
X506160Y390000D03*
X506160Y385000D03*
X506160Y380000D03*
X506160Y375000D03*
X506160Y370000D03*
X506160Y365000D03*
X506160Y360000D03*
X506160Y355000D03*
X506160Y350000D03*
X506160Y345000D03*
D15*
X517318Y285011D02*
X523693Y278636D01*
X517318Y285011D02*
X529349Y297042D01*
X535724Y290667D01*
X523693Y278636D01*
X525834Y280777D02*
X521552Y280777D01*
X519411Y282918D02*
X527975Y282918D01*
X530116Y285059D02*
X517366Y285059D01*
X519507Y287200D02*
X532257Y287200D01*
X534398Y289341D02*
X521648Y289341D01*
X523789Y291482D02*
X534909Y291482D01*
X532768Y293623D02*
X525930Y293623D01*
X528071Y295764D02*
X530627Y295764D01*
X534996Y267333D02*
X541371Y260958D01*
X534996Y267333D02*
X547027Y279364D01*
X553402Y272989D01*
X541371Y260958D01*
X543512Y263099D02*
X539230Y263099D01*
X537089Y265240D02*
X545653Y265240D01*
X547794Y267381D02*
X535044Y267381D01*
X537185Y269522D02*
X549935Y269522D01*
X552076Y271663D02*
X539326Y271663D01*
X541467Y273804D02*
X552587Y273804D01*
X550446Y275945D02*
X543608Y275945D01*
X545749Y278086D02*
X548305Y278086D01*
D12*
X547442Y294464D02*
X543896Y298010D01*
X547442Y294464D02*
X543896Y290918D01*
X540350Y294464D01*
X543896Y298010D01*
X546037Y293059D02*
X541755Y293059D01*
X541086Y295200D02*
X546706Y295200D01*
X544565Y297341D02*
X543227Y297341D01*
X540370Y301536D02*
X536824Y305082D01*
X540370Y301536D02*
X536824Y297990D01*
X533278Y301536D01*
X536824Y305082D01*
X538965Y300131D02*
X534683Y300131D01*
X534014Y302272D02*
X539634Y302272D01*
X537493Y304413D02*
X536155Y304413D01*
X547278Y287536D02*
X550824Y283990D01*
X547278Y287536D02*
X550824Y291082D01*
X554370Y287536D01*
X550824Y283990D01*
X552965Y286131D02*
X548683Y286131D01*
X548014Y288272D02*
X553634Y288272D01*
X551493Y290413D02*
X550155Y290413D01*
X554350Y280464D02*
X557896Y276918D01*
X554350Y280464D02*
X557896Y284010D01*
X561442Y280464D01*
X557896Y276918D01*
X560037Y279059D02*
X555755Y279059D01*
X555086Y281200D02*
X560706Y281200D01*
X558565Y283341D02*
X557227Y283341D01*
D23*
X611306Y291375D02*
X620541Y300610D01*
X627656Y293495D01*
X618421Y284260D01*
X611306Y291375D01*
X616322Y286359D02*
X620520Y286359D01*
X622619Y288458D02*
X614223Y288458D01*
X612124Y290557D02*
X624718Y290557D01*
X626817Y292656D02*
X612587Y292656D01*
X614686Y294755D02*
X626396Y294755D01*
X624297Y296854D02*
X616785Y296854D01*
X618884Y298953D02*
X622198Y298953D01*
X604985Y285054D02*
X595750Y275819D01*
X604985Y285054D02*
X612100Y277939D01*
X602865Y268704D01*
X595750Y275819D01*
X600766Y270803D02*
X604964Y270803D01*
X607063Y272902D02*
X598667Y272902D01*
X596568Y275001D02*
X609162Y275001D01*
X611261Y277100D02*
X597031Y277100D01*
X599130Y279199D02*
X610840Y279199D01*
X608741Y281298D02*
X601229Y281298D01*
X603328Y283397D02*
X606642Y283397D01*
X616299Y273740D02*
X607064Y264505D01*
X616299Y273740D02*
X623414Y266625D01*
X614179Y257390D01*
X607064Y264505D01*
X612080Y259489D02*
X616278Y259489D01*
X618377Y261588D02*
X609981Y261588D01*
X607882Y263687D02*
X620476Y263687D01*
X622575Y265786D02*
X608345Y265786D01*
X610444Y267885D02*
X622154Y267885D01*
X620055Y269984D02*
X612543Y269984D01*
X614642Y272083D02*
X617956Y272083D01*
X622620Y280061D02*
X631855Y289296D01*
X638970Y282181D01*
X629735Y272946D01*
X622620Y280061D01*
X627636Y275045D02*
X631834Y275045D01*
X633933Y277144D02*
X625537Y277144D01*
X623438Y279243D02*
X636032Y279243D01*
X638131Y281342D02*
X623901Y281342D01*
X626000Y283441D02*
X637710Y283441D01*
X635611Y285540D02*
X628099Y285540D01*
X630198Y287639D02*
X633512Y287639D01*
D24*
X661654Y105094D02*
X669666Y105094D01*
X661654Y105094D02*
X661654Y114106D01*
X669666Y114106D01*
X669666Y105094D01*
X669666Y107240D02*
X661654Y107240D01*
X661654Y109386D02*
X669666Y109386D01*
X669666Y111532D02*
X661654Y111532D01*
X661654Y113678D02*
X669666Y113678D01*
X669666Y89094D02*
X661654Y89094D01*
X661654Y98106D01*
X669666Y98106D01*
X669666Y89094D01*
X669666Y91240D02*
X661654Y91240D01*
X661654Y93386D02*
X669666Y93386D01*
X669666Y95532D02*
X661654Y95532D01*
X661654Y97678D02*
X669666Y97678D01*
X628666Y89094D02*
X620654Y89094D01*
X620654Y98106D01*
X628666Y98106D01*
X628666Y89094D01*
X628666Y91240D02*
X620654Y91240D01*
X620654Y93386D02*
X628666Y93386D01*
X628666Y95532D02*
X620654Y95532D01*
X620654Y97678D02*
X628666Y97678D01*
X628666Y105094D02*
X620654Y105094D01*
X620654Y114106D01*
X628666Y114106D01*
X628666Y105094D01*
X628666Y107240D02*
X620654Y107240D01*
X620654Y109386D02*
X628666Y109386D01*
X628666Y111532D02*
X620654Y111532D01*
X620654Y113678D02*
X628666Y113678D01*
D17*
X484084Y622506D02*
X484084Y629494D01*
X484084Y622506D02*
X477096Y622506D01*
X477096Y629494D01*
X484084Y629494D01*
X484084Y626575D02*
X477096Y626575D01*
X501624Y629494D02*
X501624Y622506D01*
X494636Y622506D01*
X494636Y629494D01*
X501624Y629494D01*
X501624Y626575D02*
X494636Y626575D01*
D25*
X485837Y661173D02*
X485837Y667127D01*
X485837Y661173D02*
X479883Y661173D01*
X479883Y667127D01*
X485837Y667127D01*
X485837Y663373D02*
X479883Y663373D01*
X479883Y665573D02*
X485837Y665573D01*
X496837Y667127D02*
X496837Y661173D01*
X490883Y661173D01*
X490883Y667127D01*
X496837Y667127D01*
X496837Y663373D02*
X490883Y663373D01*
X490883Y665573D02*
X496837Y665573D01*
X496837Y648827D02*
X496837Y642873D01*
X490883Y642873D01*
X490883Y648827D01*
X496837Y648827D01*
X496837Y645073D02*
X490883Y645073D01*
X490883Y647273D02*
X496837Y647273D01*
X485837Y648827D02*
X485837Y642873D01*
X479883Y642873D01*
X479883Y648827D01*
X485837Y648827D01*
X485837Y645073D02*
X479883Y645073D01*
X479883Y647273D02*
X485837Y647273D01*
D17*
X484084Y602494D02*
X484084Y595506D01*
X477096Y595506D01*
X477096Y602494D01*
X484084Y602494D01*
X484084Y599575D02*
X477096Y599575D01*
X501624Y602494D02*
X501624Y595506D01*
X494636Y595506D01*
X494636Y602494D01*
X501624Y602494D01*
X501624Y599575D02*
X494636Y599575D01*
D19*
X492760Y558800D03*
X670560Y558800D03*
D26*
X550336Y133976D02*
X543384Y133976D01*
X550336Y133976D02*
X550336Y123024D01*
X543384Y123024D01*
X543384Y133976D01*
X543384Y125226D02*
X550336Y125226D01*
X550336Y127428D02*
X543384Y127428D01*
X543384Y129630D02*
X550336Y129630D01*
X550336Y131832D02*
X543384Y131832D01*
X532336Y133976D02*
X525384Y133976D01*
X532336Y133976D02*
X532336Y123024D01*
X525384Y123024D01*
X525384Y133976D01*
X525384Y125226D02*
X532336Y125226D01*
X532336Y127428D02*
X525384Y127428D01*
X525384Y129630D02*
X532336Y129630D01*
X532336Y131832D02*
X525384Y131832D01*
X562384Y112976D02*
X569336Y112976D01*
X569336Y105024D01*
X562384Y105024D01*
X562384Y112976D01*
X562384Y107226D02*
X569336Y107226D01*
X569336Y109428D02*
X562384Y109428D01*
X562384Y111630D02*
X569336Y111630D01*
X550336Y112976D02*
X543384Y112976D01*
X550336Y112976D02*
X550336Y105024D01*
X543384Y105024D01*
X543384Y112976D01*
X543384Y107226D02*
X550336Y107226D01*
X550336Y109428D02*
X543384Y109428D01*
X543384Y111630D02*
X550336Y111630D01*
X552884Y91976D02*
X559836Y91976D01*
X559836Y84024D01*
X552884Y84024D01*
X552884Y91976D01*
X552884Y86226D02*
X559836Y86226D01*
X559836Y88428D02*
X552884Y88428D01*
X552884Y90630D02*
X559836Y90630D01*
D12*
X563352Y128492D02*
X563352Y133508D01*
X568368Y133508D01*
X568368Y128492D01*
X563352Y128492D01*
X563352Y130633D02*
X568368Y130633D01*
X568368Y132774D02*
X563352Y132774D01*
X563352Y123508D02*
X563352Y118492D01*
X563352Y123508D02*
X568368Y123508D01*
X568368Y118492D01*
X563352Y118492D01*
X563352Y120633D02*
X568368Y120633D01*
X568368Y122774D02*
X563352Y122774D01*
X556368Y79508D02*
X551352Y79508D01*
X556368Y79508D02*
X556368Y74492D01*
X551352Y74492D01*
X551352Y79508D01*
X551352Y76633D02*
X556368Y76633D01*
X556368Y78774D02*
X551352Y78774D01*
X546368Y79508D02*
X541352Y79508D01*
X546368Y79508D02*
X546368Y74492D01*
X541352Y74492D01*
X541352Y79508D01*
X541352Y76633D02*
X546368Y76633D01*
X546368Y78774D02*
X541352Y78774D01*
D24*
X619854Y135994D02*
X619854Y144006D01*
X628866Y144006D01*
X628866Y135994D01*
X619854Y135994D01*
X619854Y138140D02*
X628866Y138140D01*
X628866Y140286D02*
X619854Y140286D01*
X619854Y142432D02*
X628866Y142432D01*
X603854Y144006D02*
X603854Y135994D01*
X603854Y144006D02*
X612866Y144006D01*
X612866Y135994D01*
X603854Y135994D01*
X603854Y138140D02*
X612866Y138140D01*
X612866Y140286D02*
X603854Y140286D01*
X603854Y142432D02*
X612866Y142432D01*
X603854Y176994D02*
X603854Y185006D01*
X612866Y185006D01*
X612866Y176994D01*
X603854Y176994D01*
X603854Y179140D02*
X612866Y179140D01*
X612866Y181286D02*
X603854Y181286D01*
X603854Y183432D02*
X612866Y183432D01*
X619854Y185006D02*
X619854Y176994D01*
X619854Y185006D02*
X628866Y185006D01*
X628866Y176994D01*
X619854Y176994D01*
X619854Y179140D02*
X628866Y179140D01*
X628866Y181286D02*
X619854Y181286D01*
X619854Y183432D02*
X628866Y183432D01*
D10*
X215900Y1270000D03*
X215900Y1244600D03*
X215900Y1219200D03*
X215900Y1193800D03*
X215900Y1168400D03*
X215900Y1143000D03*
X215900Y1117600D03*
X215900Y1092200D03*
X215900Y1066800D03*
X215900Y1041400D03*
X215900Y1016000D03*
X215900Y990600D03*
X215900Y965200D03*
X215900Y939800D03*
X215900Y914400D03*
X215900Y889000D03*
X12700Y990600D03*
X12700Y1016000D03*
X12700Y1041400D03*
X12700Y1066800D03*
X12700Y1092200D03*
X12700Y1117600D03*
X12700Y1143000D03*
X12700Y1168400D03*
X12700Y1193800D03*
X12700Y1219200D03*
X12700Y1244600D03*
X12700Y1270000D03*
D11*
X120818Y803394D02*
X122782Y803394D01*
X120818Y803394D02*
X120818Y812358D01*
X122782Y812358D01*
X122782Y803394D01*
X122782Y805585D02*
X120818Y805585D01*
X120818Y807776D02*
X122782Y807776D01*
X122782Y809967D02*
X120818Y809967D01*
X120818Y812158D02*
X122782Y812158D01*
X117782Y803394D02*
X115818Y803394D01*
X115818Y812358D01*
X117782Y812358D01*
X117782Y803394D01*
X117782Y805585D02*
X115818Y805585D01*
X115818Y807776D02*
X117782Y807776D01*
X117782Y809967D02*
X115818Y809967D01*
X115818Y812158D02*
X117782Y812158D01*
D12*
X144042Y803368D02*
X149058Y803368D01*
X144042Y803368D02*
X144042Y812384D01*
X149058Y812384D01*
X149058Y803368D01*
X149058Y805509D02*
X144042Y805509D01*
X144042Y807650D02*
X149058Y807650D01*
X149058Y809791D02*
X144042Y809791D01*
X144042Y811932D02*
X149058Y811932D01*
X141308Y803368D02*
X136292Y803368D01*
X136292Y812384D01*
X141308Y812384D01*
X141308Y803368D01*
X141308Y805509D02*
X136292Y805509D01*
X136292Y807650D02*
X141308Y807650D01*
X141308Y809791D02*
X136292Y809791D01*
X136292Y811932D02*
X141308Y811932D01*
D11*
X132782Y803394D02*
X130818Y803394D01*
X130818Y812358D01*
X132782Y812358D01*
X132782Y803394D01*
X132782Y805585D02*
X130818Y805585D01*
X130818Y807776D02*
X132782Y807776D01*
X132782Y809967D02*
X130818Y809967D01*
X130818Y812158D02*
X132782Y812158D01*
X127782Y803394D02*
X125818Y803394D01*
X125818Y812358D01*
X127782Y812358D01*
X127782Y803394D01*
X127782Y805585D02*
X125818Y805585D01*
X125818Y807776D02*
X127782Y807776D01*
X127782Y809967D02*
X125818Y809967D01*
X125818Y812158D02*
X127782Y812158D01*
X107782Y812358D02*
X105818Y812358D01*
X107782Y812358D02*
X107782Y803394D01*
X105818Y803394D01*
X105818Y812358D01*
X105818Y805585D02*
X107782Y805585D01*
X107782Y807776D02*
X105818Y807776D01*
X105818Y809967D02*
X107782Y809967D01*
X107782Y812158D02*
X105818Y812158D01*
X110818Y812358D02*
X112782Y812358D01*
X112782Y803394D01*
X110818Y803394D01*
X110818Y812358D01*
X110818Y805585D02*
X112782Y805585D01*
X112782Y807776D02*
X110818Y807776D01*
X110818Y809967D02*
X112782Y809967D01*
X112782Y812158D02*
X110818Y812158D01*
D12*
X84558Y812384D02*
X79542Y812384D01*
X84558Y812384D02*
X84558Y803368D01*
X79542Y803368D01*
X79542Y812384D01*
X79542Y805509D02*
X84558Y805509D01*
X84558Y807650D02*
X79542Y807650D01*
X79542Y809791D02*
X84558Y809791D01*
X84558Y811932D02*
X79542Y811932D01*
X87292Y812384D02*
X92308Y812384D01*
X92308Y803368D01*
X87292Y803368D01*
X87292Y812384D01*
X87292Y805509D02*
X92308Y805509D01*
X92308Y807650D02*
X87292Y807650D01*
X87292Y809791D02*
X92308Y809791D01*
X92308Y811932D02*
X87292Y811932D01*
D11*
X95818Y812358D02*
X97782Y812358D01*
X97782Y803394D01*
X95818Y803394D01*
X95818Y812358D01*
X95818Y805585D02*
X97782Y805585D01*
X97782Y807776D02*
X95818Y807776D01*
X95818Y809967D02*
X97782Y809967D01*
X97782Y812158D02*
X95818Y812158D01*
X100818Y812358D02*
X102782Y812358D01*
X102782Y803394D01*
X100818Y803394D01*
X100818Y812358D01*
X100818Y805585D02*
X102782Y805585D01*
X102782Y807776D02*
X100818Y807776D01*
X100818Y809967D02*
X102782Y809967D01*
X102782Y812158D02*
X100818Y812158D01*
D13*
X85400Y796826D03*
X143200Y796826D03*
D14*
X110035Y832215D02*
X110035Y837285D01*
X110035Y832215D02*
X108565Y832215D01*
X108565Y837285D01*
X110035Y837285D01*
X110035Y834400D02*
X108565Y834400D01*
X108565Y836585D02*
X110035Y836585D01*
X115035Y836785D02*
X115035Y832215D01*
X113565Y832215D01*
X113565Y836785D01*
X115035Y836785D01*
X115035Y834400D02*
X113565Y834400D01*
X113565Y836585D02*
X115035Y836585D01*
X120035Y836785D02*
X120035Y832215D01*
X118565Y832215D01*
X118565Y836785D01*
X120035Y836785D01*
X120035Y834400D02*
X118565Y834400D01*
X118565Y836585D02*
X120035Y836585D01*
X118565Y840815D02*
X118565Y845385D01*
X120035Y845385D01*
X120035Y840815D01*
X118565Y840815D01*
X118565Y843000D02*
X120035Y843000D01*
X120035Y845185D02*
X118565Y845185D01*
X113565Y845385D02*
X113565Y840815D01*
X113565Y845385D02*
X115035Y845385D01*
X115035Y840815D01*
X113565Y840815D01*
X113565Y843000D02*
X115035Y843000D01*
X115035Y845185D02*
X113565Y845185D01*
X108565Y845385D02*
X108565Y840815D01*
X108565Y845385D02*
X110035Y845385D01*
X110035Y840815D01*
X108565Y840815D01*
X108565Y843000D02*
X110035Y843000D01*
X110035Y845185D02*
X108565Y845185D01*
D15*
X95068Y912592D02*
X95068Y921608D01*
X95068Y912592D02*
X50052Y912592D01*
X50052Y921608D01*
X95068Y921608D01*
X95068Y914733D02*
X50052Y914733D01*
X50052Y916874D02*
X95068Y916874D01*
X95068Y919015D02*
X50052Y919015D01*
X50052Y921156D02*
X95068Y921156D01*
X95068Y932592D02*
X95068Y941608D01*
X95068Y932592D02*
X50052Y932592D01*
X50052Y941608D01*
X95068Y941608D01*
X95068Y934733D02*
X50052Y934733D01*
X50052Y936874D02*
X95068Y936874D01*
X95068Y939015D02*
X50052Y939015D01*
X50052Y941156D02*
X95068Y941156D01*
D16*
X37073Y900613D02*
X4047Y900613D01*
X37073Y900613D02*
X37073Y885587D01*
X4047Y885587D01*
X4047Y900613D01*
X4047Y887720D02*
X37073Y887720D01*
X37073Y889853D02*
X4047Y889853D01*
X4047Y891986D02*
X37073Y891986D01*
X37073Y894119D02*
X4047Y894119D01*
X4047Y896252D02*
X37073Y896252D01*
X37073Y898385D02*
X4047Y898385D01*
X4047Y900518D02*
X37073Y900518D01*
X37073Y968613D02*
X4047Y968613D01*
X37073Y968613D02*
X37073Y953587D01*
X4047Y953587D01*
X4047Y968613D01*
X4047Y955720D02*
X37073Y955720D01*
X37073Y957853D02*
X4047Y957853D01*
X4047Y959986D02*
X37073Y959986D01*
X37073Y962119D02*
X4047Y962119D01*
X4047Y964252D02*
X37073Y964252D01*
X37073Y966385D02*
X4047Y966385D01*
X4047Y968518D02*
X37073Y968518D01*
D17*
X107506Y921824D02*
X114494Y921824D01*
X114494Y914836D01*
X107506Y914836D01*
X107506Y921824D01*
X107506Y918905D02*
X114494Y918905D01*
X114494Y939364D02*
X107506Y939364D01*
X114494Y939364D02*
X114494Y932376D01*
X107506Y932376D01*
X107506Y939364D01*
X107506Y936445D02*
X114494Y936445D01*
D12*
X169492Y806808D02*
X169492Y801792D01*
X169492Y806808D02*
X174508Y806808D01*
X174508Y801792D01*
X169492Y801792D01*
X169492Y803933D02*
X174508Y803933D01*
X174508Y806074D02*
X169492Y806074D01*
X169492Y796808D02*
X169492Y791792D01*
X169492Y796808D02*
X174508Y796808D01*
X174508Y791792D01*
X169492Y791792D01*
X169492Y793933D02*
X174508Y793933D01*
X174508Y796074D02*
X169492Y796074D01*
X54492Y801792D02*
X54492Y806808D01*
X59508Y806808D01*
X59508Y801792D01*
X54492Y801792D01*
X54492Y803933D02*
X59508Y803933D01*
X59508Y806074D02*
X54492Y806074D01*
X54492Y796808D02*
X54492Y791792D01*
X54492Y796808D02*
X59508Y796808D01*
X59508Y791792D01*
X54492Y791792D01*
X54492Y793933D02*
X59508Y793933D01*
X59508Y796074D02*
X54492Y796074D01*
D18*
X4543Y860693D02*
X4543Y871707D01*
X23557Y871707D01*
X23557Y860693D01*
X4543Y860693D01*
X4543Y862836D02*
X23557Y862836D01*
X23557Y864979D02*
X4543Y864979D01*
X4543Y867122D02*
X23557Y867122D01*
X23557Y869265D02*
X4543Y869265D01*
X4543Y871408D02*
X23557Y871408D01*
X4543Y815707D02*
X4543Y804693D01*
X4543Y815707D02*
X23557Y815707D01*
X23557Y804693D01*
X4543Y804693D01*
X4543Y806836D02*
X23557Y806836D01*
X23557Y808979D02*
X4543Y808979D01*
X4543Y811122D02*
X23557Y811122D01*
X23557Y813265D02*
X4543Y813265D01*
X4543Y815408D02*
X23557Y815408D01*
D12*
X44542Y850692D02*
X44542Y855708D01*
X57058Y855708D01*
X57058Y850692D01*
X44542Y850692D01*
X44542Y852833D02*
X57058Y852833D01*
X57058Y854974D02*
X44542Y854974D01*
X44542Y845708D02*
X44542Y840692D01*
X44542Y845708D02*
X57058Y845708D01*
X57058Y840692D01*
X44542Y840692D01*
X44542Y842833D02*
X57058Y842833D01*
X57058Y844974D02*
X44542Y844974D01*
X44542Y835708D02*
X44542Y830692D01*
X44542Y835708D02*
X57058Y835708D01*
X57058Y830692D01*
X44542Y830692D01*
X44542Y832833D02*
X57058Y832833D01*
X57058Y834974D02*
X44542Y834974D01*
X44542Y825708D02*
X44542Y820692D01*
X44542Y825708D02*
X57058Y825708D01*
X57058Y820692D01*
X44542Y820692D01*
X44542Y822833D02*
X57058Y822833D01*
X57058Y824974D02*
X44542Y824974D01*
D19*
X25400Y774700D03*
X203200Y774700D03*
D20*
X45000Y756800D03*
X220000Y1414300D03*
D15*
X56808Y1411592D02*
X56808Y1420608D01*
X56808Y1411592D02*
X46792Y1411592D01*
X46792Y1420608D01*
X56808Y1420608D01*
X56808Y1413733D02*
X46792Y1413733D01*
X46792Y1415874D02*
X56808Y1415874D01*
X56808Y1418015D02*
X46792Y1418015D01*
X46792Y1420156D02*
X56808Y1420156D01*
X66308Y1405608D02*
X66308Y1396592D01*
X47292Y1396592D01*
X47292Y1405608D01*
X66308Y1405608D01*
X66308Y1398733D02*
X47292Y1398733D01*
X47292Y1400874D02*
X66308Y1400874D01*
X66308Y1403015D02*
X47292Y1403015D01*
X47292Y1405156D02*
X66308Y1405156D01*
X66308Y1390608D02*
X66308Y1381592D01*
X47292Y1381592D01*
X47292Y1390608D01*
X66308Y1390608D01*
X66308Y1383733D02*
X47292Y1383733D01*
X47292Y1385874D02*
X66308Y1385874D01*
X66308Y1388015D02*
X47292Y1388015D01*
X47292Y1390156D02*
X66308Y1390156D01*
X66308Y1375608D02*
X66308Y1366592D01*
X47292Y1366592D01*
X47292Y1375608D01*
X66308Y1375608D01*
X66308Y1368733D02*
X47292Y1368733D01*
X47292Y1370874D02*
X66308Y1370874D01*
X66308Y1373015D02*
X47292Y1373015D01*
X47292Y1375156D02*
X66308Y1375156D01*
X66308Y1360608D02*
X66308Y1351592D01*
X47292Y1351592D01*
X47292Y1360608D01*
X66308Y1360608D01*
X66308Y1353733D02*
X47292Y1353733D01*
X47292Y1355874D02*
X66308Y1355874D01*
X66308Y1358015D02*
X47292Y1358015D01*
X47292Y1360156D02*
X66308Y1360156D01*
X72292Y1348108D02*
X81308Y1348108D01*
X81308Y1329092D01*
X72292Y1329092D01*
X72292Y1348108D01*
X72292Y1331233D02*
X81308Y1331233D01*
X81308Y1333374D02*
X72292Y1333374D01*
X72292Y1335515D02*
X81308Y1335515D01*
X81308Y1337656D02*
X72292Y1337656D01*
X72292Y1339797D02*
X81308Y1339797D01*
X81308Y1341938D02*
X72292Y1341938D01*
X72292Y1344079D02*
X81308Y1344079D01*
X81308Y1346220D02*
X72292Y1346220D01*
X87292Y1348108D02*
X96308Y1348108D01*
X96308Y1329092D01*
X87292Y1329092D01*
X87292Y1348108D01*
X87292Y1331233D02*
X96308Y1331233D01*
X96308Y1333374D02*
X87292Y1333374D01*
X87292Y1335515D02*
X96308Y1335515D01*
X96308Y1337656D02*
X87292Y1337656D01*
X87292Y1339797D02*
X96308Y1339797D01*
X96308Y1341938D02*
X87292Y1341938D01*
X87292Y1344079D02*
X96308Y1344079D01*
X96308Y1346220D02*
X87292Y1346220D01*
X102292Y1348108D02*
X111308Y1348108D01*
X111308Y1329092D01*
X102292Y1329092D01*
X102292Y1348108D01*
X102292Y1331233D02*
X111308Y1331233D01*
X111308Y1333374D02*
X102292Y1333374D01*
X102292Y1335515D02*
X111308Y1335515D01*
X111308Y1337656D02*
X102292Y1337656D01*
X102292Y1339797D02*
X111308Y1339797D01*
X111308Y1341938D02*
X102292Y1341938D01*
X102292Y1344079D02*
X111308Y1344079D01*
X111308Y1346220D02*
X102292Y1346220D01*
X117292Y1348108D02*
X126308Y1348108D01*
X126308Y1329092D01*
X117292Y1329092D01*
X117292Y1348108D01*
X117292Y1331233D02*
X126308Y1331233D01*
X126308Y1333374D02*
X117292Y1333374D01*
X117292Y1335515D02*
X126308Y1335515D01*
X126308Y1337656D02*
X117292Y1337656D01*
X117292Y1339797D02*
X126308Y1339797D01*
X126308Y1341938D02*
X117292Y1341938D01*
X117292Y1344079D02*
X126308Y1344079D01*
X126308Y1346220D02*
X117292Y1346220D01*
X132292Y1348108D02*
X141308Y1348108D01*
X141308Y1329092D01*
X132292Y1329092D01*
X132292Y1348108D01*
X132292Y1331233D02*
X141308Y1331233D01*
X141308Y1333374D02*
X132292Y1333374D01*
X132292Y1335515D02*
X141308Y1335515D01*
X141308Y1337656D02*
X132292Y1337656D01*
X132292Y1339797D02*
X141308Y1339797D01*
X141308Y1341938D02*
X132292Y1341938D01*
X132292Y1344079D02*
X141308Y1344079D01*
X141308Y1346220D02*
X132292Y1346220D01*
X147292Y1348108D02*
X156308Y1348108D01*
X156308Y1329092D01*
X147292Y1329092D01*
X147292Y1348108D01*
X147292Y1331233D02*
X156308Y1331233D01*
X156308Y1333374D02*
X147292Y1333374D01*
X147292Y1335515D02*
X156308Y1335515D01*
X156308Y1337656D02*
X147292Y1337656D01*
X147292Y1339797D02*
X156308Y1339797D01*
X156308Y1341938D02*
X147292Y1341938D01*
X147292Y1344079D02*
X156308Y1344079D01*
X156308Y1346220D02*
X147292Y1346220D01*
X162292Y1351592D02*
X162292Y1360608D01*
X181308Y1360608D01*
X181308Y1351592D01*
X162292Y1351592D01*
X162292Y1353733D02*
X181308Y1353733D01*
X181308Y1355874D02*
X162292Y1355874D01*
X162292Y1358015D02*
X181308Y1358015D01*
X181308Y1360156D02*
X162292Y1360156D01*
X162292Y1366592D02*
X162292Y1375608D01*
X181308Y1375608D01*
X181308Y1366592D01*
X162292Y1366592D01*
X162292Y1368733D02*
X181308Y1368733D01*
X181308Y1370874D02*
X162292Y1370874D01*
X162292Y1373015D02*
X181308Y1373015D01*
X181308Y1375156D02*
X162292Y1375156D01*
X162292Y1381592D02*
X162292Y1390608D01*
X181308Y1390608D01*
X181308Y1381592D01*
X162292Y1381592D01*
X162292Y1383733D02*
X181308Y1383733D01*
X181308Y1385874D02*
X162292Y1385874D01*
X162292Y1388015D02*
X181308Y1388015D01*
X181308Y1390156D02*
X162292Y1390156D01*
X162292Y1396592D02*
X162292Y1405608D01*
X181308Y1405608D01*
X181308Y1396592D01*
X162292Y1396592D01*
X162292Y1398733D02*
X181308Y1398733D01*
X181308Y1400874D02*
X162292Y1400874D01*
X162292Y1403015D02*
X181308Y1403015D01*
X181308Y1405156D02*
X162292Y1405156D01*
X162292Y1411592D02*
X162292Y1420608D01*
X181308Y1420608D01*
X181308Y1411592D01*
X162292Y1411592D01*
X162292Y1413733D02*
X181308Y1413733D01*
X181308Y1415874D02*
X162292Y1415874D01*
X162292Y1418015D02*
X181308Y1418015D01*
X181308Y1420156D02*
X162292Y1420156D01*
D21*
X54300Y1078800D03*
X59300Y1078800D03*
X64300Y1078800D03*
X69300Y1078800D03*
X74300Y1078800D03*
X79300Y1078800D03*
X84300Y1078800D03*
X89300Y1078800D03*
X94300Y1078800D03*
X99300Y1078800D03*
X104300Y1078800D03*
X109300Y1078800D03*
X114300Y1078800D03*
X119300Y1078800D03*
X124300Y1078800D03*
X129300Y1078800D03*
X134300Y1078800D03*
X139300Y1078800D03*
X144300Y1078800D03*
X149300Y1078800D03*
X154300Y1078800D03*
X159300Y1078800D03*
X164300Y1078800D03*
X169300Y1078800D03*
X174300Y1078800D03*
D22*
X189800Y1094300D03*
X189800Y1099300D03*
X189800Y1104300D03*
X189800Y1109300D03*
X189800Y1114300D03*
X189800Y1119300D03*
X189800Y1124300D03*
X189800Y1129300D03*
X189800Y1134300D03*
X189800Y1139300D03*
X189800Y1144300D03*
X189800Y1149300D03*
X189800Y1154300D03*
X189800Y1159300D03*
X189800Y1164300D03*
X189800Y1169300D03*
X189800Y1174300D03*
X189800Y1179300D03*
X189800Y1184300D03*
X189800Y1189300D03*
X189800Y1194300D03*
X189800Y1199300D03*
X189800Y1204300D03*
X189800Y1209300D03*
X189800Y1214300D03*
D21*
X174300Y1229800D03*
X169300Y1229800D03*
X164300Y1229800D03*
X159300Y1229800D03*
X154300Y1229800D03*
X149300Y1229800D03*
X144300Y1229800D03*
X139300Y1229800D03*
X134300Y1229800D03*
X129300Y1229800D03*
X124300Y1229800D03*
X119300Y1229800D03*
X114300Y1229800D03*
X109300Y1229800D03*
X104300Y1229800D03*
X99300Y1229800D03*
X94300Y1229800D03*
X89300Y1229800D03*
X84300Y1229800D03*
X79300Y1229800D03*
X74300Y1229800D03*
X69300Y1229800D03*
X64300Y1229800D03*
X59300Y1229800D03*
X54300Y1229800D03*
D22*
X38800Y1214300D03*
X38800Y1209300D03*
X38800Y1204300D03*
X38800Y1199300D03*
X38800Y1194300D03*
X38800Y1189300D03*
X38800Y1184300D03*
X38800Y1179300D03*
X38800Y1174300D03*
X38800Y1169300D03*
X38800Y1164300D03*
X38800Y1159300D03*
X38800Y1154300D03*
X38800Y1149300D03*
X38800Y1144300D03*
X38800Y1139300D03*
X38800Y1134300D03*
X38800Y1129300D03*
X38800Y1124300D03*
X38800Y1119300D03*
X38800Y1114300D03*
X38800Y1109300D03*
X38800Y1104300D03*
X38800Y1099300D03*
X38800Y1094300D03*
D15*
X49958Y1034311D02*
X56333Y1027936D01*
X49958Y1034311D02*
X61989Y1046342D01*
X68364Y1039967D01*
X56333Y1027936D01*
X58474Y1030077D02*
X54192Y1030077D01*
X52051Y1032218D02*
X60615Y1032218D01*
X62756Y1034359D02*
X50006Y1034359D01*
X52147Y1036500D02*
X64897Y1036500D01*
X67038Y1038641D02*
X54288Y1038641D01*
X56429Y1040782D02*
X67549Y1040782D01*
X65408Y1042923D02*
X58570Y1042923D01*
X60711Y1045064D02*
X63267Y1045064D01*
X67636Y1016633D02*
X74011Y1010258D01*
X67636Y1016633D02*
X79667Y1028664D01*
X86042Y1022289D01*
X74011Y1010258D01*
X76152Y1012399D02*
X71870Y1012399D01*
X69729Y1014540D02*
X78293Y1014540D01*
X80434Y1016681D02*
X67684Y1016681D01*
X69825Y1018822D02*
X82575Y1018822D01*
X84716Y1020963D02*
X71966Y1020963D01*
X74107Y1023104D02*
X85227Y1023104D01*
X83086Y1025245D02*
X76248Y1025245D01*
X78389Y1027386D02*
X80945Y1027386D01*
D12*
X80082Y1043764D02*
X76536Y1047310D01*
X80082Y1043764D02*
X76536Y1040218D01*
X72990Y1043764D01*
X76536Y1047310D01*
X78677Y1042359D02*
X74395Y1042359D01*
X73726Y1044500D02*
X79346Y1044500D01*
X77205Y1046641D02*
X75867Y1046641D01*
X73010Y1050836D02*
X69464Y1054382D01*
X73010Y1050836D02*
X69464Y1047290D01*
X65918Y1050836D01*
X69464Y1054382D01*
X71605Y1049431D02*
X67323Y1049431D01*
X66654Y1051572D02*
X72274Y1051572D01*
X70133Y1053713D02*
X68795Y1053713D01*
X79918Y1036836D02*
X83464Y1033290D01*
X79918Y1036836D02*
X83464Y1040382D01*
X87010Y1036836D01*
X83464Y1033290D01*
X85605Y1035431D02*
X81323Y1035431D01*
X80654Y1037572D02*
X86274Y1037572D01*
X84133Y1039713D02*
X82795Y1039713D01*
X86990Y1029764D02*
X90536Y1026218D01*
X86990Y1029764D02*
X90536Y1033310D01*
X94082Y1029764D01*
X90536Y1026218D01*
X92677Y1028359D02*
X88395Y1028359D01*
X87726Y1030500D02*
X93346Y1030500D01*
X91205Y1032641D02*
X89867Y1032641D01*
D23*
X143946Y1040675D02*
X153181Y1049910D01*
X160296Y1042795D01*
X151061Y1033560D01*
X143946Y1040675D01*
X148962Y1035659D02*
X153160Y1035659D01*
X155259Y1037758D02*
X146863Y1037758D01*
X144764Y1039857D02*
X157358Y1039857D01*
X159457Y1041956D02*
X145227Y1041956D01*
X147326Y1044055D02*
X159036Y1044055D01*
X156937Y1046154D02*
X149425Y1046154D01*
X151524Y1048253D02*
X154838Y1048253D01*
X137625Y1034354D02*
X128390Y1025119D01*
X137625Y1034354D02*
X144740Y1027239D01*
X135505Y1018004D01*
X128390Y1025119D01*
X133406Y1020103D02*
X137604Y1020103D01*
X139703Y1022202D02*
X131307Y1022202D01*
X129208Y1024301D02*
X141802Y1024301D01*
X143901Y1026400D02*
X129671Y1026400D01*
X131770Y1028499D02*
X143480Y1028499D01*
X141381Y1030598D02*
X133869Y1030598D01*
X135968Y1032697D02*
X139282Y1032697D01*
X148939Y1023040D02*
X139704Y1013805D01*
X148939Y1023040D02*
X156054Y1015925D01*
X146819Y1006690D01*
X139704Y1013805D01*
X144720Y1008789D02*
X148918Y1008789D01*
X151017Y1010888D02*
X142621Y1010888D01*
X140522Y1012987D02*
X153116Y1012987D01*
X155215Y1015086D02*
X140985Y1015086D01*
X143084Y1017185D02*
X154794Y1017185D01*
X152695Y1019284D02*
X145183Y1019284D01*
X147282Y1021383D02*
X150596Y1021383D01*
X155260Y1029361D02*
X164495Y1038596D01*
X171610Y1031481D01*
X162375Y1022246D01*
X155260Y1029361D01*
X160276Y1024345D02*
X164474Y1024345D01*
X166573Y1026444D02*
X158177Y1026444D01*
X156078Y1028543D02*
X168672Y1028543D01*
X170771Y1030642D02*
X156541Y1030642D01*
X158640Y1032741D02*
X170350Y1032741D01*
X168251Y1034840D02*
X160739Y1034840D01*
X162838Y1036939D02*
X166152Y1036939D01*
D24*
X194294Y854394D02*
X202306Y854394D01*
X194294Y854394D02*
X194294Y863406D01*
X202306Y863406D01*
X202306Y854394D01*
X202306Y856540D02*
X194294Y856540D01*
X194294Y858686D02*
X202306Y858686D01*
X202306Y860832D02*
X194294Y860832D01*
X194294Y862978D02*
X202306Y862978D01*
X202306Y838394D02*
X194294Y838394D01*
X194294Y847406D01*
X202306Y847406D01*
X202306Y838394D01*
X202306Y840540D02*
X194294Y840540D01*
X194294Y842686D02*
X202306Y842686D01*
X202306Y844832D02*
X194294Y844832D01*
X194294Y846978D02*
X202306Y846978D01*
X161306Y838394D02*
X153294Y838394D01*
X153294Y847406D01*
X161306Y847406D01*
X161306Y838394D01*
X161306Y840540D02*
X153294Y840540D01*
X153294Y842686D02*
X161306Y842686D01*
X161306Y844832D02*
X153294Y844832D01*
X153294Y846978D02*
X161306Y846978D01*
X161306Y854394D02*
X153294Y854394D01*
X153294Y863406D01*
X161306Y863406D01*
X161306Y854394D01*
X161306Y856540D02*
X153294Y856540D01*
X153294Y858686D02*
X161306Y858686D01*
X161306Y860832D02*
X153294Y860832D01*
X153294Y862978D02*
X161306Y862978D01*
D17*
X16724Y1371806D02*
X16724Y1378794D01*
X16724Y1371806D02*
X9736Y1371806D01*
X9736Y1378794D01*
X16724Y1378794D01*
X16724Y1375875D02*
X9736Y1375875D01*
X34264Y1378794D02*
X34264Y1371806D01*
X27276Y1371806D01*
X27276Y1378794D01*
X34264Y1378794D01*
X34264Y1375875D02*
X27276Y1375875D01*
D25*
X18477Y1410473D02*
X18477Y1416427D01*
X18477Y1410473D02*
X12523Y1410473D01*
X12523Y1416427D01*
X18477Y1416427D01*
X18477Y1412673D02*
X12523Y1412673D01*
X12523Y1414873D02*
X18477Y1414873D01*
X29477Y1416427D02*
X29477Y1410473D01*
X23523Y1410473D01*
X23523Y1416427D01*
X29477Y1416427D01*
X29477Y1412673D02*
X23523Y1412673D01*
X23523Y1414873D02*
X29477Y1414873D01*
X29477Y1398127D02*
X29477Y1392173D01*
X23523Y1392173D01*
X23523Y1398127D01*
X29477Y1398127D01*
X29477Y1394373D02*
X23523Y1394373D01*
X23523Y1396573D02*
X29477Y1396573D01*
X18477Y1398127D02*
X18477Y1392173D01*
X12523Y1392173D01*
X12523Y1398127D01*
X18477Y1398127D01*
X18477Y1394373D02*
X12523Y1394373D01*
X12523Y1396573D02*
X18477Y1396573D01*
D17*
X16724Y1351794D02*
X16724Y1344806D01*
X9736Y1344806D01*
X9736Y1351794D01*
X16724Y1351794D01*
X16724Y1348875D02*
X9736Y1348875D01*
X34264Y1351794D02*
X34264Y1344806D01*
X27276Y1344806D01*
X27276Y1351794D01*
X34264Y1351794D01*
X34264Y1348875D02*
X27276Y1348875D01*
D19*
X25400Y1308100D03*
X203200Y1308100D03*
D26*
X82976Y883276D02*
X76024Y883276D01*
X82976Y883276D02*
X82976Y872324D01*
X76024Y872324D01*
X76024Y883276D01*
X76024Y874526D02*
X82976Y874526D01*
X82976Y876728D02*
X76024Y876728D01*
X76024Y878930D02*
X82976Y878930D01*
X82976Y881132D02*
X76024Y881132D01*
X64976Y883276D02*
X58024Y883276D01*
X64976Y883276D02*
X64976Y872324D01*
X58024Y872324D01*
X58024Y883276D01*
X58024Y874526D02*
X64976Y874526D01*
X64976Y876728D02*
X58024Y876728D01*
X58024Y878930D02*
X64976Y878930D01*
X64976Y881132D02*
X58024Y881132D01*
X95024Y862276D02*
X101976Y862276D01*
X101976Y854324D01*
X95024Y854324D01*
X95024Y862276D01*
X95024Y856526D02*
X101976Y856526D01*
X101976Y858728D02*
X95024Y858728D01*
X95024Y860930D02*
X101976Y860930D01*
X82976Y862276D02*
X76024Y862276D01*
X82976Y862276D02*
X82976Y854324D01*
X76024Y854324D01*
X76024Y862276D01*
X76024Y856526D02*
X82976Y856526D01*
X82976Y858728D02*
X76024Y858728D01*
X76024Y860930D02*
X82976Y860930D01*
X85524Y841276D02*
X92476Y841276D01*
X92476Y833324D01*
X85524Y833324D01*
X85524Y841276D01*
X85524Y835526D02*
X92476Y835526D01*
X92476Y837728D02*
X85524Y837728D01*
X85524Y839930D02*
X92476Y839930D01*
D12*
X95992Y877792D02*
X95992Y882808D01*
X101008Y882808D01*
X101008Y877792D01*
X95992Y877792D01*
X95992Y879933D02*
X101008Y879933D01*
X101008Y882074D02*
X95992Y882074D01*
X95992Y872808D02*
X95992Y867792D01*
X95992Y872808D02*
X101008Y872808D01*
X101008Y867792D01*
X95992Y867792D01*
X95992Y869933D02*
X101008Y869933D01*
X101008Y872074D02*
X95992Y872074D01*
X89008Y828808D02*
X83992Y828808D01*
X89008Y828808D02*
X89008Y823792D01*
X83992Y823792D01*
X83992Y828808D01*
X83992Y825933D02*
X89008Y825933D01*
X89008Y828074D02*
X83992Y828074D01*
X79008Y828808D02*
X73992Y828808D01*
X79008Y828808D02*
X79008Y823792D01*
X73992Y823792D01*
X73992Y828808D01*
X73992Y825933D02*
X79008Y825933D01*
X79008Y828074D02*
X73992Y828074D01*
D24*
X152494Y885294D02*
X152494Y893306D01*
X161506Y893306D01*
X161506Y885294D01*
X152494Y885294D01*
X152494Y887440D02*
X161506Y887440D01*
X161506Y889586D02*
X152494Y889586D01*
X152494Y891732D02*
X161506Y891732D01*
X136494Y893306D02*
X136494Y885294D01*
X136494Y893306D02*
X145506Y893306D01*
X145506Y885294D01*
X136494Y885294D01*
X136494Y887440D02*
X145506Y887440D01*
X145506Y889586D02*
X136494Y889586D01*
X136494Y891732D02*
X145506Y891732D01*
X136494Y926294D02*
X136494Y934306D01*
X145506Y934306D01*
X145506Y926294D01*
X136494Y926294D01*
X136494Y928440D02*
X145506Y928440D01*
X145506Y930586D02*
X136494Y930586D01*
X136494Y932732D02*
X145506Y932732D01*
X152494Y934306D02*
X152494Y926294D01*
X152494Y934306D02*
X161506Y934306D01*
X161506Y926294D01*
X152494Y926294D01*
X152494Y928440D02*
X161506Y928440D01*
X161506Y930586D02*
X152494Y930586D01*
X152494Y932732D02*
X161506Y932732D01*
D10*
X449580Y1270000D03*
X449580Y1244600D03*
X449580Y1219200D03*
X449580Y1193800D03*
X449580Y1168400D03*
X449580Y1143000D03*
X449580Y1117600D03*
X449580Y1092200D03*
X449580Y1066800D03*
X449580Y1041400D03*
X449580Y1016000D03*
X449580Y990600D03*
X449580Y965200D03*
X449580Y939800D03*
X449580Y914400D03*
X449580Y889000D03*
X246380Y990600D03*
X246380Y1016000D03*
X246380Y1041400D03*
X246380Y1066800D03*
X246380Y1092200D03*
X246380Y1117600D03*
X246380Y1143000D03*
X246380Y1168400D03*
X246380Y1193800D03*
X246380Y1219200D03*
X246380Y1244600D03*
X246380Y1270000D03*
D11*
X354498Y803394D02*
X356462Y803394D01*
X354498Y803394D02*
X354498Y812358D01*
X356462Y812358D01*
X356462Y803394D01*
X356462Y805585D02*
X354498Y805585D01*
X354498Y807776D02*
X356462Y807776D01*
X356462Y809967D02*
X354498Y809967D01*
X354498Y812158D02*
X356462Y812158D01*
X351462Y803394D02*
X349498Y803394D01*
X349498Y812358D01*
X351462Y812358D01*
X351462Y803394D01*
X351462Y805585D02*
X349498Y805585D01*
X349498Y807776D02*
X351462Y807776D01*
X351462Y809967D02*
X349498Y809967D01*
X349498Y812158D02*
X351462Y812158D01*
D12*
X377722Y803368D02*
X382738Y803368D01*
X377722Y803368D02*
X377722Y812384D01*
X382738Y812384D01*
X382738Y803368D01*
X382738Y805509D02*
X377722Y805509D01*
X377722Y807650D02*
X382738Y807650D01*
X382738Y809791D02*
X377722Y809791D01*
X377722Y811932D02*
X382738Y811932D01*
X374988Y803368D02*
X369972Y803368D01*
X369972Y812384D01*
X374988Y812384D01*
X374988Y803368D01*
X374988Y805509D02*
X369972Y805509D01*
X369972Y807650D02*
X374988Y807650D01*
X374988Y809791D02*
X369972Y809791D01*
X369972Y811932D02*
X374988Y811932D01*
D11*
X366462Y803394D02*
X364498Y803394D01*
X364498Y812358D01*
X366462Y812358D01*
X366462Y803394D01*
X366462Y805585D02*
X364498Y805585D01*
X364498Y807776D02*
X366462Y807776D01*
X366462Y809967D02*
X364498Y809967D01*
X364498Y812158D02*
X366462Y812158D01*
X361462Y803394D02*
X359498Y803394D01*
X359498Y812358D01*
X361462Y812358D01*
X361462Y803394D01*
X361462Y805585D02*
X359498Y805585D01*
X359498Y807776D02*
X361462Y807776D01*
X361462Y809967D02*
X359498Y809967D01*
X359498Y812158D02*
X361462Y812158D01*
X341462Y812358D02*
X339498Y812358D01*
X341462Y812358D02*
X341462Y803394D01*
X339498Y803394D01*
X339498Y812358D01*
X339498Y805585D02*
X341462Y805585D01*
X341462Y807776D02*
X339498Y807776D01*
X339498Y809967D02*
X341462Y809967D01*
X341462Y812158D02*
X339498Y812158D01*
X344498Y812358D02*
X346462Y812358D01*
X346462Y803394D01*
X344498Y803394D01*
X344498Y812358D01*
X344498Y805585D02*
X346462Y805585D01*
X346462Y807776D02*
X344498Y807776D01*
X344498Y809967D02*
X346462Y809967D01*
X346462Y812158D02*
X344498Y812158D01*
D12*
X318238Y812384D02*
X313222Y812384D01*
X318238Y812384D02*
X318238Y803368D01*
X313222Y803368D01*
X313222Y812384D01*
X313222Y805509D02*
X318238Y805509D01*
X318238Y807650D02*
X313222Y807650D01*
X313222Y809791D02*
X318238Y809791D01*
X318238Y811932D02*
X313222Y811932D01*
X320972Y812384D02*
X325988Y812384D01*
X325988Y803368D01*
X320972Y803368D01*
X320972Y812384D01*
X320972Y805509D02*
X325988Y805509D01*
X325988Y807650D02*
X320972Y807650D01*
X320972Y809791D02*
X325988Y809791D01*
X325988Y811932D02*
X320972Y811932D01*
D11*
X329498Y812358D02*
X331462Y812358D01*
X331462Y803394D01*
X329498Y803394D01*
X329498Y812358D01*
X329498Y805585D02*
X331462Y805585D01*
X331462Y807776D02*
X329498Y807776D01*
X329498Y809967D02*
X331462Y809967D01*
X331462Y812158D02*
X329498Y812158D01*
X334498Y812358D02*
X336462Y812358D01*
X336462Y803394D01*
X334498Y803394D01*
X334498Y812358D01*
X334498Y805585D02*
X336462Y805585D01*
X336462Y807776D02*
X334498Y807776D01*
X334498Y809967D02*
X336462Y809967D01*
X336462Y812158D02*
X334498Y812158D01*
D13*
X319080Y796826D03*
X376880Y796826D03*
D14*
X343715Y832215D02*
X343715Y837285D01*
X343715Y832215D02*
X342245Y832215D01*
X342245Y837285D01*
X343715Y837285D01*
X343715Y834400D02*
X342245Y834400D01*
X342245Y836585D02*
X343715Y836585D01*
X348715Y836785D02*
X348715Y832215D01*
X347245Y832215D01*
X347245Y836785D01*
X348715Y836785D01*
X348715Y834400D02*
X347245Y834400D01*
X347245Y836585D02*
X348715Y836585D01*
X353715Y836785D02*
X353715Y832215D01*
X352245Y832215D01*
X352245Y836785D01*
X353715Y836785D01*
X353715Y834400D02*
X352245Y834400D01*
X352245Y836585D02*
X353715Y836585D01*
X352245Y840815D02*
X352245Y845385D01*
X353715Y845385D01*
X353715Y840815D01*
X352245Y840815D01*
X352245Y843000D02*
X353715Y843000D01*
X353715Y845185D02*
X352245Y845185D01*
X347245Y845385D02*
X347245Y840815D01*
X347245Y845385D02*
X348715Y845385D01*
X348715Y840815D01*
X347245Y840815D01*
X347245Y843000D02*
X348715Y843000D01*
X348715Y845185D02*
X347245Y845185D01*
X342245Y845385D02*
X342245Y840815D01*
X342245Y845385D02*
X343715Y845385D01*
X343715Y840815D01*
X342245Y840815D01*
X342245Y843000D02*
X343715Y843000D01*
X343715Y845185D02*
X342245Y845185D01*
D15*
X328748Y912592D02*
X328748Y921608D01*
X328748Y912592D02*
X283732Y912592D01*
X283732Y921608D01*
X328748Y921608D01*
X328748Y914733D02*
X283732Y914733D01*
X283732Y916874D02*
X328748Y916874D01*
X328748Y919015D02*
X283732Y919015D01*
X283732Y921156D02*
X328748Y921156D01*
X328748Y932592D02*
X328748Y941608D01*
X328748Y932592D02*
X283732Y932592D01*
X283732Y941608D01*
X328748Y941608D01*
X328748Y934733D02*
X283732Y934733D01*
X283732Y936874D02*
X328748Y936874D01*
X328748Y939015D02*
X283732Y939015D01*
X283732Y941156D02*
X328748Y941156D01*
D16*
X270753Y900613D02*
X237727Y900613D01*
X270753Y900613D02*
X270753Y885587D01*
X237727Y885587D01*
X237727Y900613D01*
X237727Y887720D02*
X270753Y887720D01*
X270753Y889853D02*
X237727Y889853D01*
X237727Y891986D02*
X270753Y891986D01*
X270753Y894119D02*
X237727Y894119D01*
X237727Y896252D02*
X270753Y896252D01*
X270753Y898385D02*
X237727Y898385D01*
X237727Y900518D02*
X270753Y900518D01*
X270753Y968613D02*
X237727Y968613D01*
X270753Y968613D02*
X270753Y953587D01*
X237727Y953587D01*
X237727Y968613D01*
X237727Y955720D02*
X270753Y955720D01*
X270753Y957853D02*
X237727Y957853D01*
X237727Y959986D02*
X270753Y959986D01*
X270753Y962119D02*
X237727Y962119D01*
X237727Y964252D02*
X270753Y964252D01*
X270753Y966385D02*
X237727Y966385D01*
X237727Y968518D02*
X270753Y968518D01*
D17*
X341186Y921824D02*
X348174Y921824D01*
X348174Y914836D01*
X341186Y914836D01*
X341186Y921824D01*
X341186Y918905D02*
X348174Y918905D01*
X348174Y939364D02*
X341186Y939364D01*
X348174Y939364D02*
X348174Y932376D01*
X341186Y932376D01*
X341186Y939364D01*
X341186Y936445D02*
X348174Y936445D01*
D12*
X403172Y806808D02*
X403172Y801792D01*
X403172Y806808D02*
X408188Y806808D01*
X408188Y801792D01*
X403172Y801792D01*
X403172Y803933D02*
X408188Y803933D01*
X408188Y806074D02*
X403172Y806074D01*
X403172Y796808D02*
X403172Y791792D01*
X403172Y796808D02*
X408188Y796808D01*
X408188Y791792D01*
X403172Y791792D01*
X403172Y793933D02*
X408188Y793933D01*
X408188Y796074D02*
X403172Y796074D01*
X288172Y801792D02*
X288172Y806808D01*
X293188Y806808D01*
X293188Y801792D01*
X288172Y801792D01*
X288172Y803933D02*
X293188Y803933D01*
X293188Y806074D02*
X288172Y806074D01*
X288172Y796808D02*
X288172Y791792D01*
X288172Y796808D02*
X293188Y796808D01*
X293188Y791792D01*
X288172Y791792D01*
X288172Y793933D02*
X293188Y793933D01*
X293188Y796074D02*
X288172Y796074D01*
D18*
X238223Y860693D02*
X238223Y871707D01*
X257237Y871707D01*
X257237Y860693D01*
X238223Y860693D01*
X238223Y862836D02*
X257237Y862836D01*
X257237Y864979D02*
X238223Y864979D01*
X238223Y867122D02*
X257237Y867122D01*
X257237Y869265D02*
X238223Y869265D01*
X238223Y871408D02*
X257237Y871408D01*
X238223Y815707D02*
X238223Y804693D01*
X238223Y815707D02*
X257237Y815707D01*
X257237Y804693D01*
X238223Y804693D01*
X238223Y806836D02*
X257237Y806836D01*
X257237Y808979D02*
X238223Y808979D01*
X238223Y811122D02*
X257237Y811122D01*
X257237Y813265D02*
X238223Y813265D01*
X238223Y815408D02*
X257237Y815408D01*
D12*
X278222Y850692D02*
X278222Y855708D01*
X290738Y855708D01*
X290738Y850692D01*
X278222Y850692D01*
X278222Y852833D02*
X290738Y852833D01*
X290738Y854974D02*
X278222Y854974D01*
X278222Y845708D02*
X278222Y840692D01*
X278222Y845708D02*
X290738Y845708D01*
X290738Y840692D01*
X278222Y840692D01*
X278222Y842833D02*
X290738Y842833D01*
X290738Y844974D02*
X278222Y844974D01*
X278222Y835708D02*
X278222Y830692D01*
X278222Y835708D02*
X290738Y835708D01*
X290738Y830692D01*
X278222Y830692D01*
X278222Y832833D02*
X290738Y832833D01*
X290738Y834974D02*
X278222Y834974D01*
X278222Y825708D02*
X278222Y820692D01*
X278222Y825708D02*
X290738Y825708D01*
X290738Y820692D01*
X278222Y820692D01*
X278222Y822833D02*
X290738Y822833D01*
X290738Y824974D02*
X278222Y824974D01*
D19*
X259080Y774700D03*
X436880Y774700D03*
D20*
X278680Y756800D03*
X453680Y1414300D03*
D15*
X290488Y1411592D02*
X290488Y1420608D01*
X290488Y1411592D02*
X280472Y1411592D01*
X280472Y1420608D01*
X290488Y1420608D01*
X290488Y1413733D02*
X280472Y1413733D01*
X280472Y1415874D02*
X290488Y1415874D01*
X290488Y1418015D02*
X280472Y1418015D01*
X280472Y1420156D02*
X290488Y1420156D01*
X299988Y1405608D02*
X299988Y1396592D01*
X280972Y1396592D01*
X280972Y1405608D01*
X299988Y1405608D01*
X299988Y1398733D02*
X280972Y1398733D01*
X280972Y1400874D02*
X299988Y1400874D01*
X299988Y1403015D02*
X280972Y1403015D01*
X280972Y1405156D02*
X299988Y1405156D01*
X299988Y1390608D02*
X299988Y1381592D01*
X280972Y1381592D01*
X280972Y1390608D01*
X299988Y1390608D01*
X299988Y1383733D02*
X280972Y1383733D01*
X280972Y1385874D02*
X299988Y1385874D01*
X299988Y1388015D02*
X280972Y1388015D01*
X280972Y1390156D02*
X299988Y1390156D01*
X299988Y1375608D02*
X299988Y1366592D01*
X280972Y1366592D01*
X280972Y1375608D01*
X299988Y1375608D01*
X299988Y1368733D02*
X280972Y1368733D01*
X280972Y1370874D02*
X299988Y1370874D01*
X299988Y1373015D02*
X280972Y1373015D01*
X280972Y1375156D02*
X299988Y1375156D01*
X299988Y1360608D02*
X299988Y1351592D01*
X280972Y1351592D01*
X280972Y1360608D01*
X299988Y1360608D01*
X299988Y1353733D02*
X280972Y1353733D01*
X280972Y1355874D02*
X299988Y1355874D01*
X299988Y1358015D02*
X280972Y1358015D01*
X280972Y1360156D02*
X299988Y1360156D01*
X305972Y1348108D02*
X314988Y1348108D01*
X314988Y1329092D01*
X305972Y1329092D01*
X305972Y1348108D01*
X305972Y1331233D02*
X314988Y1331233D01*
X314988Y1333374D02*
X305972Y1333374D01*
X305972Y1335515D02*
X314988Y1335515D01*
X314988Y1337656D02*
X305972Y1337656D01*
X305972Y1339797D02*
X314988Y1339797D01*
X314988Y1341938D02*
X305972Y1341938D01*
X305972Y1344079D02*
X314988Y1344079D01*
X314988Y1346220D02*
X305972Y1346220D01*
X320972Y1348108D02*
X329988Y1348108D01*
X329988Y1329092D01*
X320972Y1329092D01*
X320972Y1348108D01*
X320972Y1331233D02*
X329988Y1331233D01*
X329988Y1333374D02*
X320972Y1333374D01*
X320972Y1335515D02*
X329988Y1335515D01*
X329988Y1337656D02*
X320972Y1337656D01*
X320972Y1339797D02*
X329988Y1339797D01*
X329988Y1341938D02*
X320972Y1341938D01*
X320972Y1344079D02*
X329988Y1344079D01*
X329988Y1346220D02*
X320972Y1346220D01*
X335972Y1348108D02*
X344988Y1348108D01*
X344988Y1329092D01*
X335972Y1329092D01*
X335972Y1348108D01*
X335972Y1331233D02*
X344988Y1331233D01*
X344988Y1333374D02*
X335972Y1333374D01*
X335972Y1335515D02*
X344988Y1335515D01*
X344988Y1337656D02*
X335972Y1337656D01*
X335972Y1339797D02*
X344988Y1339797D01*
X344988Y1341938D02*
X335972Y1341938D01*
X335972Y1344079D02*
X344988Y1344079D01*
X344988Y1346220D02*
X335972Y1346220D01*
X350972Y1348108D02*
X359988Y1348108D01*
X359988Y1329092D01*
X350972Y1329092D01*
X350972Y1348108D01*
X350972Y1331233D02*
X359988Y1331233D01*
X359988Y1333374D02*
X350972Y1333374D01*
X350972Y1335515D02*
X359988Y1335515D01*
X359988Y1337656D02*
X350972Y1337656D01*
X350972Y1339797D02*
X359988Y1339797D01*
X359988Y1341938D02*
X350972Y1341938D01*
X350972Y1344079D02*
X359988Y1344079D01*
X359988Y1346220D02*
X350972Y1346220D01*
X365972Y1348108D02*
X374988Y1348108D01*
X374988Y1329092D01*
X365972Y1329092D01*
X365972Y1348108D01*
X365972Y1331233D02*
X374988Y1331233D01*
X374988Y1333374D02*
X365972Y1333374D01*
X365972Y1335515D02*
X374988Y1335515D01*
X374988Y1337656D02*
X365972Y1337656D01*
X365972Y1339797D02*
X374988Y1339797D01*
X374988Y1341938D02*
X365972Y1341938D01*
X365972Y1344079D02*
X374988Y1344079D01*
X374988Y1346220D02*
X365972Y1346220D01*
X380972Y1348108D02*
X389988Y1348108D01*
X389988Y1329092D01*
X380972Y1329092D01*
X380972Y1348108D01*
X380972Y1331233D02*
X389988Y1331233D01*
X389988Y1333374D02*
X380972Y1333374D01*
X380972Y1335515D02*
X389988Y1335515D01*
X389988Y1337656D02*
X380972Y1337656D01*
X380972Y1339797D02*
X389988Y1339797D01*
X389988Y1341938D02*
X380972Y1341938D01*
X380972Y1344079D02*
X389988Y1344079D01*
X389988Y1346220D02*
X380972Y1346220D01*
X395972Y1351592D02*
X395972Y1360608D01*
X414988Y1360608D01*
X414988Y1351592D01*
X395972Y1351592D01*
X395972Y1353733D02*
X414988Y1353733D01*
X414988Y1355874D02*
X395972Y1355874D01*
X395972Y1358015D02*
X414988Y1358015D01*
X414988Y1360156D02*
X395972Y1360156D01*
X395972Y1366592D02*
X395972Y1375608D01*
X414988Y1375608D01*
X414988Y1366592D01*
X395972Y1366592D01*
X395972Y1368733D02*
X414988Y1368733D01*
X414988Y1370874D02*
X395972Y1370874D01*
X395972Y1373015D02*
X414988Y1373015D01*
X414988Y1375156D02*
X395972Y1375156D01*
X395972Y1381592D02*
X395972Y1390608D01*
X414988Y1390608D01*
X414988Y1381592D01*
X395972Y1381592D01*
X395972Y1383733D02*
X414988Y1383733D01*
X414988Y1385874D02*
X395972Y1385874D01*
X395972Y1388015D02*
X414988Y1388015D01*
X414988Y1390156D02*
X395972Y1390156D01*
X395972Y1396592D02*
X395972Y1405608D01*
X414988Y1405608D01*
X414988Y1396592D01*
X395972Y1396592D01*
X395972Y1398733D02*
X414988Y1398733D01*
X414988Y1400874D02*
X395972Y1400874D01*
X395972Y1403015D02*
X414988Y1403015D01*
X414988Y1405156D02*
X395972Y1405156D01*
X395972Y1411592D02*
X395972Y1420608D01*
X414988Y1420608D01*
X414988Y1411592D01*
X395972Y1411592D01*
X395972Y1413733D02*
X414988Y1413733D01*
X414988Y1415874D02*
X395972Y1415874D01*
X395972Y1418015D02*
X414988Y1418015D01*
X414988Y1420156D02*
X395972Y1420156D01*
D21*
X287980Y1078800D03*
X292980Y1078800D03*
X297980Y1078800D03*
X302980Y1078800D03*
X307980Y1078800D03*
X312980Y1078800D03*
X317980Y1078800D03*
X322980Y1078800D03*
X327980Y1078800D03*
X332980Y1078800D03*
X337980Y1078800D03*
X342980Y1078800D03*
X347980Y1078800D03*
X352980Y1078800D03*
X357980Y1078800D03*
X362980Y1078800D03*
X367980Y1078800D03*
X372980Y1078800D03*
X377980Y1078800D03*
X382980Y1078800D03*
X387980Y1078800D03*
X392980Y1078800D03*
X397980Y1078800D03*
X402980Y1078800D03*
X407980Y1078800D03*
D22*
X423480Y1094300D03*
X423480Y1099300D03*
X423480Y1104300D03*
X423480Y1109300D03*
X423480Y1114300D03*
X423480Y1119300D03*
X423480Y1124300D03*
X423480Y1129300D03*
X423480Y1134300D03*
X423480Y1139300D03*
X423480Y1144300D03*
X423480Y1149300D03*
X423480Y1154300D03*
X423480Y1159300D03*
X423480Y1164300D03*
X423480Y1169300D03*
X423480Y1174300D03*
X423480Y1179300D03*
X423480Y1184300D03*
X423480Y1189300D03*
X423480Y1194300D03*
X423480Y1199300D03*
X423480Y1204300D03*
X423480Y1209300D03*
X423480Y1214300D03*
D21*
X407980Y1229800D03*
X402980Y1229800D03*
X397980Y1229800D03*
X392980Y1229800D03*
X387980Y1229800D03*
X382980Y1229800D03*
X377980Y1229800D03*
X372980Y1229800D03*
X367980Y1229800D03*
X362980Y1229800D03*
X357980Y1229800D03*
X352980Y1229800D03*
X347980Y1229800D03*
X342980Y1229800D03*
X337980Y1229800D03*
X332980Y1229800D03*
X327980Y1229800D03*
X322980Y1229800D03*
X317980Y1229800D03*
X312980Y1229800D03*
X307980Y1229800D03*
X302980Y1229800D03*
X297980Y1229800D03*
X292980Y1229800D03*
X287980Y1229800D03*
D22*
X272480Y1214300D03*
X272480Y1209300D03*
X272480Y1204300D03*
X272480Y1199300D03*
X272480Y1194300D03*
X272480Y1189300D03*
X272480Y1184300D03*
X272480Y1179300D03*
X272480Y1174300D03*
X272480Y1169300D03*
X272480Y1164300D03*
X272480Y1159300D03*
X272480Y1154300D03*
X272480Y1149300D03*
X272480Y1144300D03*
X272480Y1139300D03*
X272480Y1134300D03*
X272480Y1129300D03*
X272480Y1124300D03*
X272480Y1119300D03*
X272480Y1114300D03*
X272480Y1109300D03*
X272480Y1104300D03*
X272480Y1099300D03*
X272480Y1094300D03*
D15*
X283638Y1034311D02*
X290013Y1027936D01*
X283638Y1034311D02*
X295669Y1046342D01*
X302044Y1039967D01*
X290013Y1027936D01*
X292154Y1030077D02*
X287872Y1030077D01*
X285731Y1032218D02*
X294295Y1032218D01*
X296436Y1034359D02*
X283686Y1034359D01*
X285827Y1036500D02*
X298577Y1036500D01*
X300718Y1038641D02*
X287968Y1038641D01*
X290109Y1040782D02*
X301229Y1040782D01*
X299088Y1042923D02*
X292250Y1042923D01*
X294391Y1045064D02*
X296947Y1045064D01*
X301316Y1016633D02*
X307691Y1010258D01*
X301316Y1016633D02*
X313347Y1028664D01*
X319722Y1022289D01*
X307691Y1010258D01*
X309832Y1012399D02*
X305550Y1012399D01*
X303409Y1014540D02*
X311973Y1014540D01*
X314114Y1016681D02*
X301364Y1016681D01*
X303505Y1018822D02*
X316255Y1018822D01*
X318396Y1020963D02*
X305646Y1020963D01*
X307787Y1023104D02*
X318907Y1023104D01*
X316766Y1025245D02*
X309928Y1025245D01*
X312069Y1027386D02*
X314625Y1027386D01*
D12*
X313762Y1043764D02*
X310216Y1047310D01*
X313762Y1043764D02*
X310216Y1040218D01*
X306670Y1043764D01*
X310216Y1047310D01*
X312357Y1042359D02*
X308075Y1042359D01*
X307406Y1044500D02*
X313026Y1044500D01*
X310885Y1046641D02*
X309547Y1046641D01*
X306690Y1050836D02*
X303144Y1054382D01*
X306690Y1050836D02*
X303144Y1047290D01*
X299598Y1050836D01*
X303144Y1054382D01*
X305285Y1049431D02*
X301003Y1049431D01*
X300334Y1051572D02*
X305954Y1051572D01*
X303813Y1053713D02*
X302475Y1053713D01*
X313598Y1036836D02*
X317144Y1033290D01*
X313598Y1036836D02*
X317144Y1040382D01*
X320690Y1036836D01*
X317144Y1033290D01*
X319285Y1035431D02*
X315003Y1035431D01*
X314334Y1037572D02*
X319954Y1037572D01*
X317813Y1039713D02*
X316475Y1039713D01*
X320670Y1029764D02*
X324216Y1026218D01*
X320670Y1029764D02*
X324216Y1033310D01*
X327762Y1029764D01*
X324216Y1026218D01*
X326357Y1028359D02*
X322075Y1028359D01*
X321406Y1030500D02*
X327026Y1030500D01*
X324885Y1032641D02*
X323547Y1032641D01*
D23*
X377626Y1040675D02*
X386861Y1049910D01*
X393976Y1042795D01*
X384741Y1033560D01*
X377626Y1040675D01*
X382642Y1035659D02*
X386840Y1035659D01*
X388939Y1037758D02*
X380543Y1037758D01*
X378444Y1039857D02*
X391038Y1039857D01*
X393137Y1041956D02*
X378907Y1041956D01*
X381006Y1044055D02*
X392716Y1044055D01*
X390617Y1046154D02*
X383105Y1046154D01*
X385204Y1048253D02*
X388518Y1048253D01*
X371305Y1034354D02*
X362070Y1025119D01*
X371305Y1034354D02*
X378420Y1027239D01*
X369185Y1018004D01*
X362070Y1025119D01*
X367086Y1020103D02*
X371284Y1020103D01*
X373383Y1022202D02*
X364987Y1022202D01*
X362888Y1024301D02*
X375482Y1024301D01*
X377581Y1026400D02*
X363351Y1026400D01*
X365450Y1028499D02*
X377160Y1028499D01*
X375061Y1030598D02*
X367549Y1030598D01*
X369648Y1032697D02*
X372962Y1032697D01*
X382619Y1023040D02*
X373384Y1013805D01*
X382619Y1023040D02*
X389734Y1015925D01*
X380499Y1006690D01*
X373384Y1013805D01*
X378400Y1008789D02*
X382598Y1008789D01*
X384697Y1010888D02*
X376301Y1010888D01*
X374202Y1012987D02*
X386796Y1012987D01*
X388895Y1015086D02*
X374665Y1015086D01*
X376764Y1017185D02*
X388474Y1017185D01*
X386375Y1019284D02*
X378863Y1019284D01*
X380962Y1021383D02*
X384276Y1021383D01*
X388940Y1029361D02*
X398175Y1038596D01*
X405290Y1031481D01*
X396055Y1022246D01*
X388940Y1029361D01*
X393956Y1024345D02*
X398154Y1024345D01*
X400253Y1026444D02*
X391857Y1026444D01*
X389758Y1028543D02*
X402352Y1028543D01*
X404451Y1030642D02*
X390221Y1030642D01*
X392320Y1032741D02*
X404030Y1032741D01*
X401931Y1034840D02*
X394419Y1034840D01*
X396518Y1036939D02*
X399832Y1036939D01*
D24*
X427974Y854394D02*
X435986Y854394D01*
X427974Y854394D02*
X427974Y863406D01*
X435986Y863406D01*
X435986Y854394D01*
X435986Y856540D02*
X427974Y856540D01*
X427974Y858686D02*
X435986Y858686D01*
X435986Y860832D02*
X427974Y860832D01*
X427974Y862978D02*
X435986Y862978D01*
X435986Y838394D02*
X427974Y838394D01*
X427974Y847406D01*
X435986Y847406D01*
X435986Y838394D01*
X435986Y840540D02*
X427974Y840540D01*
X427974Y842686D02*
X435986Y842686D01*
X435986Y844832D02*
X427974Y844832D01*
X427974Y846978D02*
X435986Y846978D01*
X394986Y838394D02*
X386974Y838394D01*
X386974Y847406D01*
X394986Y847406D01*
X394986Y838394D01*
X394986Y840540D02*
X386974Y840540D01*
X386974Y842686D02*
X394986Y842686D01*
X394986Y844832D02*
X386974Y844832D01*
X386974Y846978D02*
X394986Y846978D01*
X394986Y854394D02*
X386974Y854394D01*
X386974Y863406D01*
X394986Y863406D01*
X394986Y854394D01*
X394986Y856540D02*
X386974Y856540D01*
X386974Y858686D02*
X394986Y858686D01*
X394986Y860832D02*
X386974Y860832D01*
X386974Y862978D02*
X394986Y862978D01*
D17*
X250404Y1371806D02*
X250404Y1378794D01*
X250404Y1371806D02*
X243416Y1371806D01*
X243416Y1378794D01*
X250404Y1378794D01*
X250404Y1375875D02*
X243416Y1375875D01*
X267944Y1378794D02*
X267944Y1371806D01*
X260956Y1371806D01*
X260956Y1378794D01*
X267944Y1378794D01*
X267944Y1375875D02*
X260956Y1375875D01*
D25*
X252157Y1410473D02*
X252157Y1416427D01*
X252157Y1410473D02*
X246203Y1410473D01*
X246203Y1416427D01*
X252157Y1416427D01*
X252157Y1412673D02*
X246203Y1412673D01*
X246203Y1414873D02*
X252157Y1414873D01*
X263157Y1416427D02*
X263157Y1410473D01*
X257203Y1410473D01*
X257203Y1416427D01*
X263157Y1416427D01*
X263157Y1412673D02*
X257203Y1412673D01*
X257203Y1414873D02*
X263157Y1414873D01*
X263157Y1398127D02*
X263157Y1392173D01*
X257203Y1392173D01*
X257203Y1398127D01*
X263157Y1398127D01*
X263157Y1394373D02*
X257203Y1394373D01*
X257203Y1396573D02*
X263157Y1396573D01*
X252157Y1398127D02*
X252157Y1392173D01*
X246203Y1392173D01*
X246203Y1398127D01*
X252157Y1398127D01*
X252157Y1394373D02*
X246203Y1394373D01*
X246203Y1396573D02*
X252157Y1396573D01*
D17*
X250404Y1351794D02*
X250404Y1344806D01*
X243416Y1344806D01*
X243416Y1351794D01*
X250404Y1351794D01*
X250404Y1348875D02*
X243416Y1348875D01*
X267944Y1351794D02*
X267944Y1344806D01*
X260956Y1344806D01*
X260956Y1351794D01*
X267944Y1351794D01*
X267944Y1348875D02*
X260956Y1348875D01*
D19*
X259080Y1308100D03*
X436880Y1308100D03*
D26*
X316656Y883276D02*
X309704Y883276D01*
X316656Y883276D02*
X316656Y872324D01*
X309704Y872324D01*
X309704Y883276D01*
X309704Y874526D02*
X316656Y874526D01*
X316656Y876728D02*
X309704Y876728D01*
X309704Y878930D02*
X316656Y878930D01*
X316656Y881132D02*
X309704Y881132D01*
X298656Y883276D02*
X291704Y883276D01*
X298656Y883276D02*
X298656Y872324D01*
X291704Y872324D01*
X291704Y883276D01*
X291704Y874526D02*
X298656Y874526D01*
X298656Y876728D02*
X291704Y876728D01*
X291704Y878930D02*
X298656Y878930D01*
X298656Y881132D02*
X291704Y881132D01*
X328704Y862276D02*
X335656Y862276D01*
X335656Y854324D01*
X328704Y854324D01*
X328704Y862276D01*
X328704Y856526D02*
X335656Y856526D01*
X335656Y858728D02*
X328704Y858728D01*
X328704Y860930D02*
X335656Y860930D01*
X316656Y862276D02*
X309704Y862276D01*
X316656Y862276D02*
X316656Y854324D01*
X309704Y854324D01*
X309704Y862276D01*
X309704Y856526D02*
X316656Y856526D01*
X316656Y858728D02*
X309704Y858728D01*
X309704Y860930D02*
X316656Y860930D01*
X319204Y841276D02*
X326156Y841276D01*
X326156Y833324D01*
X319204Y833324D01*
X319204Y841276D01*
X319204Y835526D02*
X326156Y835526D01*
X326156Y837728D02*
X319204Y837728D01*
X319204Y839930D02*
X326156Y839930D01*
D12*
X329672Y877792D02*
X329672Y882808D01*
X334688Y882808D01*
X334688Y877792D01*
X329672Y877792D01*
X329672Y879933D02*
X334688Y879933D01*
X334688Y882074D02*
X329672Y882074D01*
X329672Y872808D02*
X329672Y867792D01*
X329672Y872808D02*
X334688Y872808D01*
X334688Y867792D01*
X329672Y867792D01*
X329672Y869933D02*
X334688Y869933D01*
X334688Y872074D02*
X329672Y872074D01*
X322688Y828808D02*
X317672Y828808D01*
X322688Y828808D02*
X322688Y823792D01*
X317672Y823792D01*
X317672Y828808D01*
X317672Y825933D02*
X322688Y825933D01*
X322688Y828074D02*
X317672Y828074D01*
X312688Y828808D02*
X307672Y828808D01*
X312688Y828808D02*
X312688Y823792D01*
X307672Y823792D01*
X307672Y828808D01*
X307672Y825933D02*
X312688Y825933D01*
X312688Y828074D02*
X307672Y828074D01*
D24*
X386174Y885294D02*
X386174Y893306D01*
X395186Y893306D01*
X395186Y885294D01*
X386174Y885294D01*
X386174Y887440D02*
X395186Y887440D01*
X395186Y889586D02*
X386174Y889586D01*
X386174Y891732D02*
X395186Y891732D01*
X370174Y893306D02*
X370174Y885294D01*
X370174Y893306D02*
X379186Y893306D01*
X379186Y885294D01*
X370174Y885294D01*
X370174Y887440D02*
X379186Y887440D01*
X379186Y889586D02*
X370174Y889586D01*
X370174Y891732D02*
X379186Y891732D01*
X370174Y926294D02*
X370174Y934306D01*
X379186Y934306D01*
X379186Y926294D01*
X370174Y926294D01*
X370174Y928440D02*
X379186Y928440D01*
X379186Y930586D02*
X370174Y930586D01*
X370174Y932732D02*
X379186Y932732D01*
X386174Y934306D02*
X386174Y926294D01*
X386174Y934306D02*
X395186Y934306D01*
X395186Y926294D01*
X386174Y926294D01*
X386174Y928440D02*
X395186Y928440D01*
X395186Y930586D02*
X386174Y930586D01*
X386174Y932732D02*
X395186Y932732D01*
D10*
X683260Y1270000D03*
X683260Y1244600D03*
X683260Y1219200D03*
X683260Y1193800D03*
X683260Y1168400D03*
X683260Y1143000D03*
X683260Y1117600D03*
X683260Y1092200D03*
X683260Y1066800D03*
X683260Y1041400D03*
X683260Y1016000D03*
X683260Y990600D03*
X683260Y965200D03*
X683260Y939800D03*
X683260Y914400D03*
X683260Y889000D03*
X480060Y990600D03*
X480060Y1016000D03*
X480060Y1041400D03*
X480060Y1066800D03*
X480060Y1092200D03*
X480060Y1117600D03*
X480060Y1143000D03*
X480060Y1168400D03*
X480060Y1193800D03*
X480060Y1219200D03*
X480060Y1244600D03*
X480060Y1270000D03*
D11*
X588178Y803394D02*
X590142Y803394D01*
X588178Y803394D02*
X588178Y812358D01*
X590142Y812358D01*
X590142Y803394D01*
X590142Y805585D02*
X588178Y805585D01*
X588178Y807776D02*
X590142Y807776D01*
X590142Y809967D02*
X588178Y809967D01*
X588178Y812158D02*
X590142Y812158D01*
X585142Y803394D02*
X583178Y803394D01*
X583178Y812358D01*
X585142Y812358D01*
X585142Y803394D01*
X585142Y805585D02*
X583178Y805585D01*
X583178Y807776D02*
X585142Y807776D01*
X585142Y809967D02*
X583178Y809967D01*
X583178Y812158D02*
X585142Y812158D01*
D12*
X611402Y803368D02*
X616418Y803368D01*
X611402Y803368D02*
X611402Y812384D01*
X616418Y812384D01*
X616418Y803368D01*
X616418Y805509D02*
X611402Y805509D01*
X611402Y807650D02*
X616418Y807650D01*
X616418Y809791D02*
X611402Y809791D01*
X611402Y811932D02*
X616418Y811932D01*
X608668Y803368D02*
X603652Y803368D01*
X603652Y812384D01*
X608668Y812384D01*
X608668Y803368D01*
X608668Y805509D02*
X603652Y805509D01*
X603652Y807650D02*
X608668Y807650D01*
X608668Y809791D02*
X603652Y809791D01*
X603652Y811932D02*
X608668Y811932D01*
D11*
X600142Y803394D02*
X598178Y803394D01*
X598178Y812358D01*
X600142Y812358D01*
X600142Y803394D01*
X600142Y805585D02*
X598178Y805585D01*
X598178Y807776D02*
X600142Y807776D01*
X600142Y809967D02*
X598178Y809967D01*
X598178Y812158D02*
X600142Y812158D01*
X595142Y803394D02*
X593178Y803394D01*
X593178Y812358D01*
X595142Y812358D01*
X595142Y803394D01*
X595142Y805585D02*
X593178Y805585D01*
X593178Y807776D02*
X595142Y807776D01*
X595142Y809967D02*
X593178Y809967D01*
X593178Y812158D02*
X595142Y812158D01*
X575142Y812358D02*
X573178Y812358D01*
X575142Y812358D02*
X575142Y803394D01*
X573178Y803394D01*
X573178Y812358D01*
X573178Y805585D02*
X575142Y805585D01*
X575142Y807776D02*
X573178Y807776D01*
X573178Y809967D02*
X575142Y809967D01*
X575142Y812158D02*
X573178Y812158D01*
X578178Y812358D02*
X580142Y812358D01*
X580142Y803394D01*
X578178Y803394D01*
X578178Y812358D01*
X578178Y805585D02*
X580142Y805585D01*
X580142Y807776D02*
X578178Y807776D01*
X578178Y809967D02*
X580142Y809967D01*
X580142Y812158D02*
X578178Y812158D01*
D12*
X551918Y812384D02*
X546902Y812384D01*
X551918Y812384D02*
X551918Y803368D01*
X546902Y803368D01*
X546902Y812384D01*
X546902Y805509D02*
X551918Y805509D01*
X551918Y807650D02*
X546902Y807650D01*
X546902Y809791D02*
X551918Y809791D01*
X551918Y811932D02*
X546902Y811932D01*
X554652Y812384D02*
X559668Y812384D01*
X559668Y803368D01*
X554652Y803368D01*
X554652Y812384D01*
X554652Y805509D02*
X559668Y805509D01*
X559668Y807650D02*
X554652Y807650D01*
X554652Y809791D02*
X559668Y809791D01*
X559668Y811932D02*
X554652Y811932D01*
D11*
X563178Y812358D02*
X565142Y812358D01*
X565142Y803394D01*
X563178Y803394D01*
X563178Y812358D01*
X563178Y805585D02*
X565142Y805585D01*
X565142Y807776D02*
X563178Y807776D01*
X563178Y809967D02*
X565142Y809967D01*
X565142Y812158D02*
X563178Y812158D01*
X568178Y812358D02*
X570142Y812358D01*
X570142Y803394D01*
X568178Y803394D01*
X568178Y812358D01*
X568178Y805585D02*
X570142Y805585D01*
X570142Y807776D02*
X568178Y807776D01*
X568178Y809967D02*
X570142Y809967D01*
X570142Y812158D02*
X568178Y812158D01*
D13*
X552760Y796826D03*
X610560Y796826D03*
D14*
X577395Y832215D02*
X577395Y837285D01*
X577395Y832215D02*
X575925Y832215D01*
X575925Y837285D01*
X577395Y837285D01*
X577395Y834400D02*
X575925Y834400D01*
X575925Y836585D02*
X577395Y836585D01*
X582395Y836785D02*
X582395Y832215D01*
X580925Y832215D01*
X580925Y836785D01*
X582395Y836785D01*
X582395Y834400D02*
X580925Y834400D01*
X580925Y836585D02*
X582395Y836585D01*
X587395Y836785D02*
X587395Y832215D01*
X585925Y832215D01*
X585925Y836785D01*
X587395Y836785D01*
X587395Y834400D02*
X585925Y834400D01*
X585925Y836585D02*
X587395Y836585D01*
X585925Y840815D02*
X585925Y845385D01*
X587395Y845385D01*
X587395Y840815D01*
X585925Y840815D01*
X585925Y843000D02*
X587395Y843000D01*
X587395Y845185D02*
X585925Y845185D01*
X580925Y845385D02*
X580925Y840815D01*
X580925Y845385D02*
X582395Y845385D01*
X582395Y840815D01*
X580925Y840815D01*
X580925Y843000D02*
X582395Y843000D01*
X582395Y845185D02*
X580925Y845185D01*
X575925Y845385D02*
X575925Y840815D01*
X575925Y845385D02*
X577395Y845385D01*
X577395Y840815D01*
X575925Y840815D01*
X575925Y843000D02*
X577395Y843000D01*
X577395Y845185D02*
X575925Y845185D01*
D15*
X562428Y912592D02*
X562428Y921608D01*
X562428Y912592D02*
X517412Y912592D01*
X517412Y921608D01*
X562428Y921608D01*
X562428Y914733D02*
X517412Y914733D01*
X517412Y916874D02*
X562428Y916874D01*
X562428Y919015D02*
X517412Y919015D01*
X517412Y921156D02*
X562428Y921156D01*
X562428Y932592D02*
X562428Y941608D01*
X562428Y932592D02*
X517412Y932592D01*
X517412Y941608D01*
X562428Y941608D01*
X562428Y934733D02*
X517412Y934733D01*
X517412Y936874D02*
X562428Y936874D01*
X562428Y939015D02*
X517412Y939015D01*
X517412Y941156D02*
X562428Y941156D01*
D16*
X504433Y900613D02*
X471407Y900613D01*
X504433Y900613D02*
X504433Y885587D01*
X471407Y885587D01*
X471407Y900613D01*
X471407Y887720D02*
X504433Y887720D01*
X504433Y889853D02*
X471407Y889853D01*
X471407Y891986D02*
X504433Y891986D01*
X504433Y894119D02*
X471407Y894119D01*
X471407Y896252D02*
X504433Y896252D01*
X504433Y898385D02*
X471407Y898385D01*
X471407Y900518D02*
X504433Y900518D01*
X504433Y968613D02*
X471407Y968613D01*
X504433Y968613D02*
X504433Y953587D01*
X471407Y953587D01*
X471407Y968613D01*
X471407Y955720D02*
X504433Y955720D01*
X504433Y957853D02*
X471407Y957853D01*
X471407Y959986D02*
X504433Y959986D01*
X504433Y962119D02*
X471407Y962119D01*
X471407Y964252D02*
X504433Y964252D01*
X504433Y966385D02*
X471407Y966385D01*
X471407Y968518D02*
X504433Y968518D01*
D17*
X574866Y921824D02*
X581854Y921824D01*
X581854Y914836D01*
X574866Y914836D01*
X574866Y921824D01*
X574866Y918905D02*
X581854Y918905D01*
X581854Y939364D02*
X574866Y939364D01*
X581854Y939364D02*
X581854Y932376D01*
X574866Y932376D01*
X574866Y939364D01*
X574866Y936445D02*
X581854Y936445D01*
D12*
X636852Y806808D02*
X636852Y801792D01*
X636852Y806808D02*
X641868Y806808D01*
X641868Y801792D01*
X636852Y801792D01*
X636852Y803933D02*
X641868Y803933D01*
X641868Y806074D02*
X636852Y806074D01*
X636852Y796808D02*
X636852Y791792D01*
X636852Y796808D02*
X641868Y796808D01*
X641868Y791792D01*
X636852Y791792D01*
X636852Y793933D02*
X641868Y793933D01*
X641868Y796074D02*
X636852Y796074D01*
X521852Y801792D02*
X521852Y806808D01*
X526868Y806808D01*
X526868Y801792D01*
X521852Y801792D01*
X521852Y803933D02*
X526868Y803933D01*
X526868Y806074D02*
X521852Y806074D01*
X521852Y796808D02*
X521852Y791792D01*
X521852Y796808D02*
X526868Y796808D01*
X526868Y791792D01*
X521852Y791792D01*
X521852Y793933D02*
X526868Y793933D01*
X526868Y796074D02*
X521852Y796074D01*
D18*
X471903Y860693D02*
X471903Y871707D01*
X490917Y871707D01*
X490917Y860693D01*
X471903Y860693D01*
X471903Y862836D02*
X490917Y862836D01*
X490917Y864979D02*
X471903Y864979D01*
X471903Y867122D02*
X490917Y867122D01*
X490917Y869265D02*
X471903Y869265D01*
X471903Y871408D02*
X490917Y871408D01*
X471903Y815707D02*
X471903Y804693D01*
X471903Y815707D02*
X490917Y815707D01*
X490917Y804693D01*
X471903Y804693D01*
X471903Y806836D02*
X490917Y806836D01*
X490917Y808979D02*
X471903Y808979D01*
X471903Y811122D02*
X490917Y811122D01*
X490917Y813265D02*
X471903Y813265D01*
X471903Y815408D02*
X490917Y815408D01*
D12*
X511902Y850692D02*
X511902Y855708D01*
X524418Y855708D01*
X524418Y850692D01*
X511902Y850692D01*
X511902Y852833D02*
X524418Y852833D01*
X524418Y854974D02*
X511902Y854974D01*
X511902Y845708D02*
X511902Y840692D01*
X511902Y845708D02*
X524418Y845708D01*
X524418Y840692D01*
X511902Y840692D01*
X511902Y842833D02*
X524418Y842833D01*
X524418Y844974D02*
X511902Y844974D01*
X511902Y835708D02*
X511902Y830692D01*
X511902Y835708D02*
X524418Y835708D01*
X524418Y830692D01*
X511902Y830692D01*
X511902Y832833D02*
X524418Y832833D01*
X524418Y834974D02*
X511902Y834974D01*
X511902Y825708D02*
X511902Y820692D01*
X511902Y825708D02*
X524418Y825708D01*
X524418Y820692D01*
X511902Y820692D01*
X511902Y822833D02*
X524418Y822833D01*
X524418Y824974D02*
X511902Y824974D01*
D19*
X492760Y774700D03*
X670560Y774700D03*
D20*
X512360Y756800D03*
X687360Y1414300D03*
D15*
X524168Y1411592D02*
X524168Y1420608D01*
X524168Y1411592D02*
X514152Y1411592D01*
X514152Y1420608D01*
X524168Y1420608D01*
X524168Y1413733D02*
X514152Y1413733D01*
X514152Y1415874D02*
X524168Y1415874D01*
X524168Y1418015D02*
X514152Y1418015D01*
X514152Y1420156D02*
X524168Y1420156D01*
X533668Y1405608D02*
X533668Y1396592D01*
X514652Y1396592D01*
X514652Y1405608D01*
X533668Y1405608D01*
X533668Y1398733D02*
X514652Y1398733D01*
X514652Y1400874D02*
X533668Y1400874D01*
X533668Y1403015D02*
X514652Y1403015D01*
X514652Y1405156D02*
X533668Y1405156D01*
X533668Y1390608D02*
X533668Y1381592D01*
X514652Y1381592D01*
X514652Y1390608D01*
X533668Y1390608D01*
X533668Y1383733D02*
X514652Y1383733D01*
X514652Y1385874D02*
X533668Y1385874D01*
X533668Y1388015D02*
X514652Y1388015D01*
X514652Y1390156D02*
X533668Y1390156D01*
X533668Y1375608D02*
X533668Y1366592D01*
X514652Y1366592D01*
X514652Y1375608D01*
X533668Y1375608D01*
X533668Y1368733D02*
X514652Y1368733D01*
X514652Y1370874D02*
X533668Y1370874D01*
X533668Y1373015D02*
X514652Y1373015D01*
X514652Y1375156D02*
X533668Y1375156D01*
X533668Y1360608D02*
X533668Y1351592D01*
X514652Y1351592D01*
X514652Y1360608D01*
X533668Y1360608D01*
X533668Y1353733D02*
X514652Y1353733D01*
X514652Y1355874D02*
X533668Y1355874D01*
X533668Y1358015D02*
X514652Y1358015D01*
X514652Y1360156D02*
X533668Y1360156D01*
X539652Y1348108D02*
X548668Y1348108D01*
X548668Y1329092D01*
X539652Y1329092D01*
X539652Y1348108D01*
X539652Y1331233D02*
X548668Y1331233D01*
X548668Y1333374D02*
X539652Y1333374D01*
X539652Y1335515D02*
X548668Y1335515D01*
X548668Y1337656D02*
X539652Y1337656D01*
X539652Y1339797D02*
X548668Y1339797D01*
X548668Y1341938D02*
X539652Y1341938D01*
X539652Y1344079D02*
X548668Y1344079D01*
X548668Y1346220D02*
X539652Y1346220D01*
X554652Y1348108D02*
X563668Y1348108D01*
X563668Y1329092D01*
X554652Y1329092D01*
X554652Y1348108D01*
X554652Y1331233D02*
X563668Y1331233D01*
X563668Y1333374D02*
X554652Y1333374D01*
X554652Y1335515D02*
X563668Y1335515D01*
X563668Y1337656D02*
X554652Y1337656D01*
X554652Y1339797D02*
X563668Y1339797D01*
X563668Y1341938D02*
X554652Y1341938D01*
X554652Y1344079D02*
X563668Y1344079D01*
X563668Y1346220D02*
X554652Y1346220D01*
X569652Y1348108D02*
X578668Y1348108D01*
X578668Y1329092D01*
X569652Y1329092D01*
X569652Y1348108D01*
X569652Y1331233D02*
X578668Y1331233D01*
X578668Y1333374D02*
X569652Y1333374D01*
X569652Y1335515D02*
X578668Y1335515D01*
X578668Y1337656D02*
X569652Y1337656D01*
X569652Y1339797D02*
X578668Y1339797D01*
X578668Y1341938D02*
X569652Y1341938D01*
X569652Y1344079D02*
X578668Y1344079D01*
X578668Y1346220D02*
X569652Y1346220D01*
X584652Y1348108D02*
X593668Y1348108D01*
X593668Y1329092D01*
X584652Y1329092D01*
X584652Y1348108D01*
X584652Y1331233D02*
X593668Y1331233D01*
X593668Y1333374D02*
X584652Y1333374D01*
X584652Y1335515D02*
X593668Y1335515D01*
X593668Y1337656D02*
X584652Y1337656D01*
X584652Y1339797D02*
X593668Y1339797D01*
X593668Y1341938D02*
X584652Y1341938D01*
X584652Y1344079D02*
X593668Y1344079D01*
X593668Y1346220D02*
X584652Y1346220D01*
X599652Y1348108D02*
X608668Y1348108D01*
X608668Y1329092D01*
X599652Y1329092D01*
X599652Y1348108D01*
X599652Y1331233D02*
X608668Y1331233D01*
X608668Y1333374D02*
X599652Y1333374D01*
X599652Y1335515D02*
X608668Y1335515D01*
X608668Y1337656D02*
X599652Y1337656D01*
X599652Y1339797D02*
X608668Y1339797D01*
X608668Y1341938D02*
X599652Y1341938D01*
X599652Y1344079D02*
X608668Y1344079D01*
X608668Y1346220D02*
X599652Y1346220D01*
X614652Y1348108D02*
X623668Y1348108D01*
X623668Y1329092D01*
X614652Y1329092D01*
X614652Y1348108D01*
X614652Y1331233D02*
X623668Y1331233D01*
X623668Y1333374D02*
X614652Y1333374D01*
X614652Y1335515D02*
X623668Y1335515D01*
X623668Y1337656D02*
X614652Y1337656D01*
X614652Y1339797D02*
X623668Y1339797D01*
X623668Y1341938D02*
X614652Y1341938D01*
X614652Y1344079D02*
X623668Y1344079D01*
X623668Y1346220D02*
X614652Y1346220D01*
X629652Y1351592D02*
X629652Y1360608D01*
X648668Y1360608D01*
X648668Y1351592D01*
X629652Y1351592D01*
X629652Y1353733D02*
X648668Y1353733D01*
X648668Y1355874D02*
X629652Y1355874D01*
X629652Y1358015D02*
X648668Y1358015D01*
X648668Y1360156D02*
X629652Y1360156D01*
X629652Y1366592D02*
X629652Y1375608D01*
X648668Y1375608D01*
X648668Y1366592D01*
X629652Y1366592D01*
X629652Y1368733D02*
X648668Y1368733D01*
X648668Y1370874D02*
X629652Y1370874D01*
X629652Y1373015D02*
X648668Y1373015D01*
X648668Y1375156D02*
X629652Y1375156D01*
X629652Y1381592D02*
X629652Y1390608D01*
X648668Y1390608D01*
X648668Y1381592D01*
X629652Y1381592D01*
X629652Y1383733D02*
X648668Y1383733D01*
X648668Y1385874D02*
X629652Y1385874D01*
X629652Y1388015D02*
X648668Y1388015D01*
X648668Y1390156D02*
X629652Y1390156D01*
X629652Y1396592D02*
X629652Y1405608D01*
X648668Y1405608D01*
X648668Y1396592D01*
X629652Y1396592D01*
X629652Y1398733D02*
X648668Y1398733D01*
X648668Y1400874D02*
X629652Y1400874D01*
X629652Y1403015D02*
X648668Y1403015D01*
X648668Y1405156D02*
X629652Y1405156D01*
X629652Y1411592D02*
X629652Y1420608D01*
X648668Y1420608D01*
X648668Y1411592D01*
X629652Y1411592D01*
X629652Y1413733D02*
X648668Y1413733D01*
X648668Y1415874D02*
X629652Y1415874D01*
X629652Y1418015D02*
X648668Y1418015D01*
X648668Y1420156D02*
X629652Y1420156D01*
D21*
X521660Y1078800D03*
X526660Y1078800D03*
X531660Y1078800D03*
X536660Y1078800D03*
X541660Y1078800D03*
X546660Y1078800D03*
X551660Y1078800D03*
X556660Y1078800D03*
X561660Y1078800D03*
X566660Y1078800D03*
X571660Y1078800D03*
X576660Y1078800D03*
X581660Y1078800D03*
X586660Y1078800D03*
X591660Y1078800D03*
X596660Y1078800D03*
X601660Y1078800D03*
X606660Y1078800D03*
X611660Y1078800D03*
X616660Y1078800D03*
X621660Y1078800D03*
X626660Y1078800D03*
X631660Y1078800D03*
X636660Y1078800D03*
X641660Y1078800D03*
D22*
X657160Y1094300D03*
X657160Y1099300D03*
X657160Y1104300D03*
X657160Y1109300D03*
X657160Y1114300D03*
X657160Y1119300D03*
X657160Y1124300D03*
X657160Y1129300D03*
X657160Y1134300D03*
X657160Y1139300D03*
X657160Y1144300D03*
X657160Y1149300D03*
X657160Y1154300D03*
X657160Y1159300D03*
X657160Y1164300D03*
X657160Y1169300D03*
X657160Y1174300D03*
X657160Y1179300D03*
X657160Y1184300D03*
X657160Y1189300D03*
X657160Y1194300D03*
X657160Y1199300D03*
X657160Y1204300D03*
X657160Y1209300D03*
X657160Y1214300D03*
D21*
X641660Y1229800D03*
X636660Y1229800D03*
X631660Y1229800D03*
X626660Y1229800D03*
X621660Y1229800D03*
X616660Y1229800D03*
X611660Y1229800D03*
X606660Y1229800D03*
X601660Y1229800D03*
X596660Y1229800D03*
X591660Y1229800D03*
X586660Y1229800D03*
X581660Y1229800D03*
X576660Y1229800D03*
X571660Y1229800D03*
X566660Y1229800D03*
X561660Y1229800D03*
X556660Y1229800D03*
X551660Y1229800D03*
X546660Y1229800D03*
X541660Y1229800D03*
X536660Y1229800D03*
X531660Y1229800D03*
X526660Y1229800D03*
X521660Y1229800D03*
D22*
X506160Y1214300D03*
X506160Y1209300D03*
X506160Y1204300D03*
X506160Y1199300D03*
X506160Y1194300D03*
X506160Y1189300D03*
X506160Y1184300D03*
X506160Y1179300D03*
X506160Y1174300D03*
X506160Y1169300D03*
X506160Y1164300D03*
X506160Y1159300D03*
X506160Y1154300D03*
X506160Y1149300D03*
X506160Y1144300D03*
X506160Y1139300D03*
X506160Y1134300D03*
X506160Y1129300D03*
X506160Y1124300D03*
X506160Y1119300D03*
X506160Y1114300D03*
X506160Y1109300D03*
X506160Y1104300D03*
X506160Y1099300D03*
X506160Y1094300D03*
D15*
X517318Y1034311D02*
X523693Y1027936D01*
X517318Y1034311D02*
X529349Y1046342D01*
X535724Y1039967D01*
X523693Y1027936D01*
X525834Y1030077D02*
X521552Y1030077D01*
X519411Y1032218D02*
X527975Y1032218D01*
X530116Y1034359D02*
X517366Y1034359D01*
X519507Y1036500D02*
X532257Y1036500D01*
X534398Y1038641D02*
X521648Y1038641D01*
X523789Y1040782D02*
X534909Y1040782D01*
X532768Y1042923D02*
X525930Y1042923D01*
X528071Y1045064D02*
X530627Y1045064D01*
X534996Y1016633D02*
X541371Y1010258D01*
X534996Y1016633D02*
X547027Y1028664D01*
X553402Y1022289D01*
X541371Y1010258D01*
X543512Y1012399D02*
X539230Y1012399D01*
X537089Y1014540D02*
X545653Y1014540D01*
X547794Y1016681D02*
X535044Y1016681D01*
X537185Y1018822D02*
X549935Y1018822D01*
X552076Y1020963D02*
X539326Y1020963D01*
X541467Y1023104D02*
X552587Y1023104D01*
X550446Y1025245D02*
X543608Y1025245D01*
X545749Y1027386D02*
X548305Y1027386D01*
D12*
X547442Y1043764D02*
X543896Y1047310D01*
X547442Y1043764D02*
X543896Y1040218D01*
X540350Y1043764D01*
X543896Y1047310D01*
X546037Y1042359D02*
X541755Y1042359D01*
X541086Y1044500D02*
X546706Y1044500D01*
X544565Y1046641D02*
X543227Y1046641D01*
X540370Y1050836D02*
X536824Y1054382D01*
X540370Y1050836D02*
X536824Y1047290D01*
X533278Y1050836D01*
X536824Y1054382D01*
X538965Y1049431D02*
X534683Y1049431D01*
X534014Y1051572D02*
X539634Y1051572D01*
X537493Y1053713D02*
X536155Y1053713D01*
X547278Y1036836D02*
X550824Y1033290D01*
X547278Y1036836D02*
X550824Y1040382D01*
X554370Y1036836D01*
X550824Y1033290D01*
X552965Y1035431D02*
X548683Y1035431D01*
X548014Y1037572D02*
X553634Y1037572D01*
X551493Y1039713D02*
X550155Y1039713D01*
X554350Y1029764D02*
X557896Y1026218D01*
X554350Y1029764D02*
X557896Y1033310D01*
X561442Y1029764D01*
X557896Y1026218D01*
X560037Y1028359D02*
X555755Y1028359D01*
X555086Y1030500D02*
X560706Y1030500D01*
X558565Y1032641D02*
X557227Y1032641D01*
D23*
X611306Y1040675D02*
X620541Y1049910D01*
X627656Y1042795D01*
X618421Y1033560D01*
X611306Y1040675D01*
X616322Y1035659D02*
X620520Y1035659D01*
X622619Y1037758D02*
X614223Y1037758D01*
X612124Y1039857D02*
X624718Y1039857D01*
X626817Y1041956D02*
X612587Y1041956D01*
X614686Y1044055D02*
X626396Y1044055D01*
X624297Y1046154D02*
X616785Y1046154D01*
X618884Y1048253D02*
X622198Y1048253D01*
X604985Y1034354D02*
X595750Y1025119D01*
X604985Y1034354D02*
X612100Y1027239D01*
X602865Y1018004D01*
X595750Y1025119D01*
X600766Y1020103D02*
X604964Y1020103D01*
X607063Y1022202D02*
X598667Y1022202D01*
X596568Y1024301D02*
X609162Y1024301D01*
X611261Y1026400D02*
X597031Y1026400D01*
X599130Y1028499D02*
X610840Y1028499D01*
X608741Y1030598D02*
X601229Y1030598D01*
X603328Y1032697D02*
X606642Y1032697D01*
X616299Y1023040D02*
X607064Y1013805D01*
X616299Y1023040D02*
X623414Y1015925D01*
X614179Y1006690D01*
X607064Y1013805D01*
X612080Y1008789D02*
X616278Y1008789D01*
X618377Y1010888D02*
X609981Y1010888D01*
X607882Y1012987D02*
X620476Y1012987D01*
X622575Y1015086D02*
X608345Y1015086D01*
X610444Y1017185D02*
X622154Y1017185D01*
X620055Y1019284D02*
X612543Y1019284D01*
X614642Y1021383D02*
X617956Y1021383D01*
X622620Y1029361D02*
X631855Y1038596D01*
X638970Y1031481D01*
X629735Y1022246D01*
X622620Y1029361D01*
X627636Y1024345D02*
X631834Y1024345D01*
X633933Y1026444D02*
X625537Y1026444D01*
X623438Y1028543D02*
X636032Y1028543D01*
X638131Y1030642D02*
X623901Y1030642D01*
X626000Y1032741D02*
X637710Y1032741D01*
X635611Y1034840D02*
X628099Y1034840D01*
X630198Y1036939D02*
X633512Y1036939D01*
D24*
X661654Y854394D02*
X669666Y854394D01*
X661654Y854394D02*
X661654Y863406D01*
X669666Y863406D01*
X669666Y854394D01*
X669666Y856540D02*
X661654Y856540D01*
X661654Y858686D02*
X669666Y858686D01*
X669666Y860832D02*
X661654Y860832D01*
X661654Y862978D02*
X669666Y862978D01*
X669666Y838394D02*
X661654Y838394D01*
X661654Y847406D01*
X669666Y847406D01*
X669666Y838394D01*
X669666Y840540D02*
X661654Y840540D01*
X661654Y842686D02*
X669666Y842686D01*
X669666Y844832D02*
X661654Y844832D01*
X661654Y846978D02*
X669666Y846978D01*
X628666Y838394D02*
X620654Y838394D01*
X620654Y847406D01*
X628666Y847406D01*
X628666Y838394D01*
X628666Y840540D02*
X620654Y840540D01*
X620654Y842686D02*
X628666Y842686D01*
X628666Y844832D02*
X620654Y844832D01*
X620654Y846978D02*
X628666Y846978D01*
X628666Y854394D02*
X620654Y854394D01*
X620654Y863406D01*
X628666Y863406D01*
X628666Y854394D01*
X628666Y856540D02*
X620654Y856540D01*
X620654Y858686D02*
X628666Y858686D01*
X628666Y860832D02*
X620654Y860832D01*
X620654Y862978D02*
X628666Y862978D01*
D17*
X484084Y1371806D02*
X484084Y1378794D01*
X484084Y1371806D02*
X477096Y1371806D01*
X477096Y1378794D01*
X484084Y1378794D01*
X484084Y1375875D02*
X477096Y1375875D01*
X501624Y1378794D02*
X501624Y1371806D01*
X494636Y1371806D01*
X494636Y1378794D01*
X501624Y1378794D01*
X501624Y1375875D02*
X494636Y1375875D01*
D25*
X485837Y1410473D02*
X485837Y1416427D01*
X485837Y1410473D02*
X479883Y1410473D01*
X479883Y1416427D01*
X485837Y1416427D01*
X485837Y1412673D02*
X479883Y1412673D01*
X479883Y1414873D02*
X485837Y1414873D01*
X496837Y1416427D02*
X496837Y1410473D01*
X490883Y1410473D01*
X490883Y1416427D01*
X496837Y1416427D01*
X496837Y1412673D02*
X490883Y1412673D01*
X490883Y1414873D02*
X496837Y1414873D01*
X496837Y1398127D02*
X496837Y1392173D01*
X490883Y1392173D01*
X490883Y1398127D01*
X496837Y1398127D01*
X496837Y1394373D02*
X490883Y1394373D01*
X490883Y1396573D02*
X496837Y1396573D01*
X485837Y1398127D02*
X485837Y1392173D01*
X479883Y1392173D01*
X479883Y1398127D01*
X485837Y1398127D01*
X485837Y1394373D02*
X479883Y1394373D01*
X479883Y1396573D02*
X485837Y1396573D01*
D17*
X484084Y1351794D02*
X484084Y1344806D01*
X477096Y1344806D01*
X477096Y1351794D01*
X484084Y1351794D01*
X484084Y1348875D02*
X477096Y1348875D01*
X501624Y1351794D02*
X501624Y1344806D01*
X494636Y1344806D01*
X494636Y1351794D01*
X501624Y1351794D01*
X501624Y1348875D02*
X494636Y1348875D01*
D19*
X492760Y1308100D03*
X670560Y1308100D03*
D26*
X550336Y883276D02*
X543384Y883276D01*
X550336Y883276D02*
X550336Y872324D01*
X543384Y872324D01*
X543384Y883276D01*
X543384Y874526D02*
X550336Y874526D01*
X550336Y876728D02*
X543384Y876728D01*
X543384Y878930D02*
X550336Y878930D01*
X550336Y881132D02*
X543384Y881132D01*
X532336Y883276D02*
X525384Y883276D01*
X532336Y883276D02*
X532336Y872324D01*
X525384Y872324D01*
X525384Y883276D01*
X525384Y874526D02*
X532336Y874526D01*
X532336Y876728D02*
X525384Y876728D01*
X525384Y878930D02*
X532336Y878930D01*
X532336Y881132D02*
X525384Y881132D01*
X562384Y862276D02*
X569336Y862276D01*
X569336Y854324D01*
X562384Y854324D01*
X562384Y862276D01*
X562384Y856526D02*
X569336Y856526D01*
X569336Y858728D02*
X562384Y858728D01*
X562384Y860930D02*
X569336Y860930D01*
X550336Y862276D02*
X543384Y862276D01*
X550336Y862276D02*
X550336Y854324D01*
X543384Y854324D01*
X543384Y862276D01*
X543384Y856526D02*
X550336Y856526D01*
X550336Y858728D02*
X543384Y858728D01*
X543384Y860930D02*
X550336Y860930D01*
X552884Y841276D02*
X559836Y841276D01*
X559836Y833324D01*
X552884Y833324D01*
X552884Y841276D01*
X552884Y835526D02*
X559836Y835526D01*
X559836Y837728D02*
X552884Y837728D01*
X552884Y839930D02*
X559836Y839930D01*
D12*
X563352Y877792D02*
X563352Y882808D01*
X568368Y882808D01*
X568368Y877792D01*
X563352Y877792D01*
X563352Y879933D02*
X568368Y879933D01*
X568368Y882074D02*
X563352Y882074D01*
X563352Y872808D02*
X563352Y867792D01*
X563352Y872808D02*
X568368Y872808D01*
X568368Y867792D01*
X563352Y867792D01*
X563352Y869933D02*
X568368Y869933D01*
X568368Y872074D02*
X563352Y872074D01*
X556368Y828808D02*
X551352Y828808D01*
X556368Y828808D02*
X556368Y823792D01*
X551352Y823792D01*
X551352Y828808D01*
X551352Y825933D02*
X556368Y825933D01*
X556368Y828074D02*
X551352Y828074D01*
X546368Y828808D02*
X541352Y828808D01*
X546368Y828808D02*
X546368Y823792D01*
X541352Y823792D01*
X541352Y828808D01*
X541352Y825933D02*
X546368Y825933D01*
X546368Y828074D02*
X541352Y828074D01*
D24*
X619854Y885294D02*
X619854Y893306D01*
X628866Y893306D01*
X628866Y885294D01*
X619854Y885294D01*
X619854Y887440D02*
X628866Y887440D01*
X628866Y889586D02*
X619854Y889586D01*
X619854Y891732D02*
X628866Y891732D01*
X603854Y893306D02*
X603854Y885294D01*
X603854Y893306D02*
X612866Y893306D01*
X612866Y885294D01*
X603854Y885294D01*
X603854Y887440D02*
X612866Y887440D01*
X612866Y889586D02*
X603854Y889586D01*
X603854Y891732D02*
X612866Y891732D01*
X603854Y926294D02*
X603854Y934306D01*
X612866Y934306D01*
X612866Y926294D01*
X603854Y926294D01*
X603854Y928440D02*
X612866Y928440D01*
X612866Y930586D02*
X603854Y930586D01*
X603854Y932732D02*
X612866Y932732D01*
X619854Y934306D02*
X619854Y926294D01*
X619854Y934306D02*
X628866Y934306D01*
X628866Y926294D01*
X619854Y926294D01*
X619854Y928440D02*
X628866Y928440D01*
X628866Y930586D02*
X619854Y930586D01*
X619854Y932732D02*
X628866Y932732D01*
D27*
X-26238Y1466850D03*
X717118Y1466850D03*
D28*
X-35293Y63500D02*
X-35290Y63722D01*
X-35282Y63944D01*
X-35268Y64166D01*
X-35249Y64388D01*
X-35225Y64608D01*
X-35195Y64829D01*
X-35160Y65048D01*
X-35119Y65267D01*
X-35073Y65484D01*
X-35022Y65700D01*
X-34965Y65915D01*
X-34903Y66129D01*
X-34836Y66340D01*
X-34764Y66551D01*
X-34686Y66759D01*
X-34604Y66965D01*
X-34516Y67169D01*
X-34424Y67372D01*
X-34326Y67571D01*
X-34224Y67768D01*
X-34117Y67963D01*
X-34005Y68155D01*
X-33888Y68344D01*
X-33767Y68531D01*
X-33641Y68714D01*
X-33511Y68894D01*
X-33376Y69071D01*
X-33238Y69244D01*
X-33095Y69414D01*
X-32947Y69581D01*
X-32796Y69744D01*
X-32641Y69903D01*
X-32482Y70058D01*
X-32319Y70209D01*
X-32152Y70357D01*
X-31982Y70500D01*
X-31809Y70638D01*
X-31632Y70773D01*
X-31452Y70903D01*
X-31269Y71029D01*
X-31082Y71150D01*
X-30893Y71267D01*
X-30701Y71379D01*
X-30506Y71486D01*
X-30309Y71588D01*
X-30110Y71686D01*
X-29907Y71778D01*
X-29703Y71866D01*
X-29497Y71948D01*
X-29289Y72026D01*
X-29078Y72098D01*
X-28867Y72165D01*
X-28653Y72227D01*
X-28438Y72284D01*
X-28222Y72335D01*
X-28005Y72381D01*
X-27786Y72422D01*
X-27567Y72457D01*
X-27346Y72487D01*
X-27126Y72511D01*
X-26904Y72530D01*
X-26682Y72544D01*
X-26460Y72552D01*
X-26238Y72555D01*
X-26016Y72552D01*
X-25794Y72544D01*
X-25572Y72530D01*
X-25350Y72511D01*
X-25130Y72487D01*
X-24909Y72457D01*
X-24690Y72422D01*
X-24471Y72381D01*
X-24254Y72335D01*
X-24038Y72284D01*
X-23823Y72227D01*
X-23609Y72165D01*
X-23398Y72098D01*
X-23187Y72026D01*
X-22979Y71948D01*
X-22773Y71866D01*
X-22569Y71778D01*
X-22366Y71686D01*
X-22167Y71588D01*
X-21970Y71486D01*
X-21775Y71379D01*
X-21583Y71267D01*
X-21394Y71150D01*
X-21207Y71029D01*
X-21024Y70903D01*
X-20844Y70773D01*
X-20667Y70638D01*
X-20494Y70500D01*
X-20324Y70357D01*
X-20157Y70209D01*
X-19994Y70058D01*
X-19835Y69903D01*
X-19680Y69744D01*
X-19529Y69581D01*
X-19381Y69414D01*
X-19238Y69244D01*
X-19100Y69071D01*
X-18965Y68894D01*
X-18835Y68714D01*
X-18709Y68531D01*
X-18588Y68344D01*
X-18471Y68155D01*
X-18359Y67963D01*
X-18252Y67768D01*
X-18150Y67571D01*
X-18052Y67372D01*
X-17960Y67169D01*
X-17872Y66965D01*
X-17790Y66759D01*
X-17712Y66551D01*
X-17640Y66340D01*
X-17573Y66129D01*
X-17511Y65915D01*
X-17454Y65700D01*
X-17403Y65484D01*
X-17357Y65267D01*
X-17316Y65048D01*
X-17281Y64829D01*
X-17251Y64608D01*
X-17227Y64388D01*
X-17208Y64166D01*
X-17194Y63944D01*
X-17186Y63722D01*
X-17183Y63500D01*
X-17186Y63278D01*
X-17194Y63056D01*
X-17208Y62834D01*
X-17227Y62612D01*
X-17251Y62392D01*
X-17281Y62171D01*
X-17316Y61952D01*
X-17357Y61733D01*
X-17403Y61516D01*
X-17454Y61300D01*
X-17511Y61085D01*
X-17573Y60871D01*
X-17640Y60660D01*
X-17712Y60449D01*
X-17790Y60241D01*
X-17872Y60035D01*
X-17960Y59831D01*
X-18052Y59628D01*
X-18150Y59429D01*
X-18252Y59232D01*
X-18359Y59037D01*
X-18471Y58845D01*
X-18588Y58656D01*
X-18709Y58469D01*
X-18835Y58286D01*
X-18965Y58106D01*
X-19100Y57929D01*
X-19238Y57756D01*
X-19381Y57586D01*
X-19529Y57419D01*
X-19680Y57256D01*
X-19835Y57097D01*
X-19994Y56942D01*
X-20157Y56791D01*
X-20324Y56643D01*
X-20494Y56500D01*
X-20667Y56362D01*
X-20844Y56227D01*
X-21024Y56097D01*
X-21207Y55971D01*
X-21394Y55850D01*
X-21583Y55733D01*
X-21775Y55621D01*
X-21970Y55514D01*
X-22167Y55412D01*
X-22366Y55314D01*
X-22569Y55222D01*
X-22773Y55134D01*
X-22979Y55052D01*
X-23187Y54974D01*
X-23398Y54902D01*
X-23609Y54835D01*
X-23823Y54773D01*
X-24038Y54716D01*
X-24254Y54665D01*
X-24471Y54619D01*
X-24690Y54578D01*
X-24909Y54543D01*
X-25130Y54513D01*
X-25350Y54489D01*
X-25572Y54470D01*
X-25794Y54456D01*
X-26016Y54448D01*
X-26238Y54445D01*
X-26460Y54448D01*
X-26682Y54456D01*
X-26904Y54470D01*
X-27126Y54489D01*
X-27346Y54513D01*
X-27567Y54543D01*
X-27786Y54578D01*
X-28005Y54619D01*
X-28222Y54665D01*
X-28438Y54716D01*
X-28653Y54773D01*
X-28867Y54835D01*
X-29078Y54902D01*
X-29289Y54974D01*
X-29497Y55052D01*
X-29703Y55134D01*
X-29907Y55222D01*
X-30110Y55314D01*
X-30309Y55412D01*
X-30506Y55514D01*
X-30701Y55621D01*
X-30893Y55733D01*
X-31082Y55850D01*
X-31269Y55971D01*
X-31452Y56097D01*
X-31632Y56227D01*
X-31809Y56362D01*
X-31982Y56500D01*
X-32152Y56643D01*
X-32319Y56791D01*
X-32482Y56942D01*
X-32641Y57097D01*
X-32796Y57256D01*
X-32947Y57419D01*
X-33095Y57586D01*
X-33238Y57756D01*
X-33376Y57929D01*
X-33511Y58106D01*
X-33641Y58286D01*
X-33767Y58469D01*
X-33888Y58656D01*
X-34005Y58845D01*
X-34117Y59037D01*
X-34224Y59232D01*
X-34326Y59429D01*
X-34424Y59628D01*
X-34516Y59831D01*
X-34604Y60035D01*
X-34686Y60241D01*
X-34764Y60449D01*
X-34836Y60660D01*
X-34903Y60871D01*
X-34965Y61085D01*
X-35022Y61300D01*
X-35073Y61516D01*
X-35119Y61733D01*
X-35160Y61952D01*
X-35195Y62171D01*
X-35225Y62392D01*
X-35249Y62612D01*
X-35268Y62834D01*
X-35282Y63056D01*
X-35290Y63278D01*
X-35293Y63500D01*
D29*
X-26238Y63500D03*
M02*
