G04 EAGLE Gerber RS-274X export*
G75*
%MOMM*%
%FSLAX34Y34*%
%LPD*%
%INInner Layer 3*%
%IPPOS*%
%AMOC8*
5,1,8,0,0,1.08239X$1,22.5*%
G01*
%ADD10C,0.152400*%
%ADD11C,1.524000*%
%ADD12C,0.554000*%
%ADD13C,0.250000*%
%ADD14C,0.454000*%
%ADD15C,0.150000*%
%ADD16C,0.200000*%
%ADD17C,0.120000*%


D10*
X197646Y45762D02*
X200000Y45762D01*
X200096Y45764D01*
X200192Y45770D01*
X200287Y45780D01*
X200382Y45793D01*
X200477Y45811D01*
X200571Y45832D01*
X200663Y45857D01*
X200755Y45886D01*
X200845Y45919D01*
X200934Y45955D01*
X201021Y45995D01*
X201107Y46039D01*
X201191Y46085D01*
X201273Y46136D01*
X201352Y46189D01*
X201430Y46246D01*
X201505Y46306D01*
X201578Y46369D01*
X201647Y46435D01*
X201715Y46503D01*
X201779Y46574D01*
X201840Y46648D01*
X201899Y46725D01*
X201954Y46803D01*
X202006Y46884D01*
X202054Y46967D01*
X202100Y47052D01*
X202141Y47138D01*
X202179Y47226D01*
X202214Y47316D01*
X202245Y47407D01*
X202272Y47499D01*
X202295Y47592D01*
X202314Y47686D01*
X202330Y47781D01*
X202342Y47876D01*
X202350Y47972D01*
X202354Y48068D01*
X202354Y48164D01*
X202350Y48260D01*
X202342Y48356D01*
X202330Y48451D01*
X202314Y48546D01*
X202295Y48640D01*
X202272Y48733D01*
X202245Y48825D01*
X202214Y48916D01*
X202179Y49006D01*
X202141Y49094D01*
X202100Y49180D01*
X202054Y49265D01*
X202006Y49348D01*
X201954Y49429D01*
X201899Y49507D01*
X201840Y49584D01*
X201779Y49658D01*
X201715Y49729D01*
X201647Y49797D01*
X201578Y49863D01*
X201505Y49926D01*
X201430Y49986D01*
X201352Y50043D01*
X201273Y50096D01*
X201191Y50147D01*
X201107Y50193D01*
X201021Y50237D01*
X200934Y50277D01*
X200845Y50313D01*
X200755Y50346D01*
X200663Y50375D01*
X200571Y50400D01*
X200477Y50421D01*
X200382Y50439D01*
X200287Y50452D01*
X200192Y50462D01*
X200096Y50468D01*
X200000Y50470D01*
X200471Y54238D02*
X197646Y54238D01*
X200471Y54238D02*
X200557Y54236D01*
X200642Y54230D01*
X200728Y54220D01*
X200812Y54207D01*
X200896Y54189D01*
X200979Y54168D01*
X201061Y54143D01*
X201142Y54114D01*
X201222Y54082D01*
X201299Y54046D01*
X201376Y54007D01*
X201450Y53964D01*
X201522Y53918D01*
X201592Y53868D01*
X201660Y53815D01*
X201725Y53760D01*
X201788Y53701D01*
X201848Y53640D01*
X201905Y53576D01*
X201959Y53509D01*
X202010Y53440D01*
X202058Y53369D01*
X202103Y53296D01*
X202144Y53221D01*
X202181Y53144D01*
X202216Y53065D01*
X202246Y52985D01*
X202273Y52903D01*
X202296Y52821D01*
X202316Y52737D01*
X202331Y52653D01*
X202343Y52568D01*
X202351Y52483D01*
X202355Y52397D01*
X202355Y52311D01*
X202351Y52225D01*
X202343Y52140D01*
X202331Y52055D01*
X202316Y51971D01*
X202296Y51887D01*
X202273Y51805D01*
X202246Y51723D01*
X202216Y51643D01*
X202181Y51564D01*
X202144Y51487D01*
X202103Y51412D01*
X202058Y51339D01*
X202010Y51268D01*
X201959Y51199D01*
X201905Y51132D01*
X201848Y51068D01*
X201788Y51007D01*
X201725Y50948D01*
X201660Y50893D01*
X201592Y50840D01*
X201522Y50790D01*
X201450Y50744D01*
X201376Y50701D01*
X201299Y50662D01*
X201222Y50626D01*
X201142Y50594D01*
X201061Y50565D01*
X200979Y50540D01*
X200896Y50519D01*
X200812Y50501D01*
X200728Y50488D01*
X200642Y50478D01*
X200557Y50472D01*
X200471Y50470D01*
X200471Y50471D02*
X198587Y50471D01*
X431326Y45762D02*
X433680Y45762D01*
X433776Y45764D01*
X433872Y45770D01*
X433967Y45780D01*
X434062Y45793D01*
X434157Y45811D01*
X434251Y45832D01*
X434343Y45857D01*
X434435Y45886D01*
X434525Y45919D01*
X434614Y45955D01*
X434701Y45995D01*
X434787Y46039D01*
X434871Y46085D01*
X434953Y46136D01*
X435032Y46189D01*
X435110Y46246D01*
X435185Y46306D01*
X435258Y46369D01*
X435327Y46435D01*
X435395Y46503D01*
X435459Y46574D01*
X435520Y46648D01*
X435579Y46725D01*
X435634Y46803D01*
X435686Y46884D01*
X435734Y46967D01*
X435780Y47052D01*
X435821Y47138D01*
X435859Y47226D01*
X435894Y47316D01*
X435925Y47407D01*
X435952Y47499D01*
X435975Y47592D01*
X435994Y47686D01*
X436010Y47781D01*
X436022Y47876D01*
X436030Y47972D01*
X436034Y48068D01*
X436034Y48164D01*
X436030Y48260D01*
X436022Y48356D01*
X436010Y48451D01*
X435994Y48546D01*
X435975Y48640D01*
X435952Y48733D01*
X435925Y48825D01*
X435894Y48916D01*
X435859Y49006D01*
X435821Y49094D01*
X435780Y49180D01*
X435734Y49265D01*
X435686Y49348D01*
X435634Y49429D01*
X435579Y49507D01*
X435520Y49584D01*
X435459Y49658D01*
X435395Y49729D01*
X435327Y49797D01*
X435258Y49863D01*
X435185Y49926D01*
X435110Y49986D01*
X435032Y50043D01*
X434953Y50096D01*
X434871Y50147D01*
X434787Y50193D01*
X434701Y50237D01*
X434614Y50277D01*
X434525Y50313D01*
X434435Y50346D01*
X434343Y50375D01*
X434251Y50400D01*
X434157Y50421D01*
X434062Y50439D01*
X433967Y50452D01*
X433872Y50462D01*
X433776Y50468D01*
X433680Y50470D01*
X434151Y54238D02*
X431326Y54238D01*
X434151Y54238D02*
X434237Y54236D01*
X434322Y54230D01*
X434408Y54220D01*
X434492Y54207D01*
X434576Y54189D01*
X434659Y54168D01*
X434741Y54143D01*
X434822Y54114D01*
X434902Y54082D01*
X434979Y54046D01*
X435056Y54007D01*
X435130Y53964D01*
X435202Y53918D01*
X435272Y53868D01*
X435340Y53815D01*
X435405Y53760D01*
X435468Y53701D01*
X435528Y53640D01*
X435585Y53576D01*
X435639Y53509D01*
X435690Y53440D01*
X435738Y53369D01*
X435783Y53296D01*
X435824Y53221D01*
X435861Y53144D01*
X435896Y53065D01*
X435926Y52985D01*
X435953Y52903D01*
X435976Y52821D01*
X435996Y52737D01*
X436011Y52653D01*
X436023Y52568D01*
X436031Y52483D01*
X436035Y52397D01*
X436035Y52311D01*
X436031Y52225D01*
X436023Y52140D01*
X436011Y52055D01*
X435996Y51971D01*
X435976Y51887D01*
X435953Y51805D01*
X435926Y51723D01*
X435896Y51643D01*
X435861Y51564D01*
X435824Y51487D01*
X435783Y51412D01*
X435738Y51339D01*
X435690Y51268D01*
X435639Y51199D01*
X435585Y51132D01*
X435528Y51068D01*
X435468Y51007D01*
X435405Y50948D01*
X435340Y50893D01*
X435272Y50840D01*
X435202Y50790D01*
X435130Y50744D01*
X435056Y50701D01*
X434979Y50662D01*
X434902Y50626D01*
X434822Y50594D01*
X434741Y50565D01*
X434659Y50540D01*
X434576Y50519D01*
X434492Y50501D01*
X434408Y50488D01*
X434322Y50478D01*
X434237Y50472D01*
X434151Y50470D01*
X434151Y50471D02*
X432267Y50471D01*
X665006Y45762D02*
X667360Y45762D01*
X667456Y45764D01*
X667552Y45770D01*
X667647Y45780D01*
X667742Y45793D01*
X667837Y45811D01*
X667931Y45832D01*
X668023Y45857D01*
X668115Y45886D01*
X668205Y45919D01*
X668294Y45955D01*
X668381Y45995D01*
X668467Y46039D01*
X668551Y46085D01*
X668633Y46136D01*
X668712Y46189D01*
X668790Y46246D01*
X668865Y46306D01*
X668938Y46369D01*
X669007Y46435D01*
X669075Y46503D01*
X669139Y46574D01*
X669200Y46648D01*
X669259Y46725D01*
X669314Y46803D01*
X669366Y46884D01*
X669414Y46967D01*
X669460Y47052D01*
X669501Y47138D01*
X669539Y47226D01*
X669574Y47316D01*
X669605Y47407D01*
X669632Y47499D01*
X669655Y47592D01*
X669674Y47686D01*
X669690Y47781D01*
X669702Y47876D01*
X669710Y47972D01*
X669714Y48068D01*
X669714Y48164D01*
X669710Y48260D01*
X669702Y48356D01*
X669690Y48451D01*
X669674Y48546D01*
X669655Y48640D01*
X669632Y48733D01*
X669605Y48825D01*
X669574Y48916D01*
X669539Y49006D01*
X669501Y49094D01*
X669460Y49180D01*
X669414Y49265D01*
X669366Y49348D01*
X669314Y49429D01*
X669259Y49507D01*
X669200Y49584D01*
X669139Y49658D01*
X669075Y49729D01*
X669007Y49797D01*
X668938Y49863D01*
X668865Y49926D01*
X668790Y49986D01*
X668712Y50043D01*
X668633Y50096D01*
X668551Y50147D01*
X668467Y50193D01*
X668381Y50237D01*
X668294Y50277D01*
X668205Y50313D01*
X668115Y50346D01*
X668023Y50375D01*
X667931Y50400D01*
X667837Y50421D01*
X667742Y50439D01*
X667647Y50452D01*
X667552Y50462D01*
X667456Y50468D01*
X667360Y50470D01*
X667831Y54238D02*
X665006Y54238D01*
X667831Y54238D02*
X667917Y54236D01*
X668002Y54230D01*
X668088Y54220D01*
X668172Y54207D01*
X668256Y54189D01*
X668339Y54168D01*
X668421Y54143D01*
X668502Y54114D01*
X668582Y54082D01*
X668659Y54046D01*
X668736Y54007D01*
X668810Y53964D01*
X668882Y53918D01*
X668952Y53868D01*
X669020Y53815D01*
X669085Y53760D01*
X669148Y53701D01*
X669208Y53640D01*
X669265Y53576D01*
X669319Y53509D01*
X669370Y53440D01*
X669418Y53369D01*
X669463Y53296D01*
X669504Y53221D01*
X669541Y53144D01*
X669576Y53065D01*
X669606Y52985D01*
X669633Y52903D01*
X669656Y52821D01*
X669676Y52737D01*
X669691Y52653D01*
X669703Y52568D01*
X669711Y52483D01*
X669715Y52397D01*
X669715Y52311D01*
X669711Y52225D01*
X669703Y52140D01*
X669691Y52055D01*
X669676Y51971D01*
X669656Y51887D01*
X669633Y51805D01*
X669606Y51723D01*
X669576Y51643D01*
X669541Y51564D01*
X669504Y51487D01*
X669463Y51412D01*
X669418Y51339D01*
X669370Y51268D01*
X669319Y51199D01*
X669265Y51132D01*
X669208Y51068D01*
X669148Y51007D01*
X669085Y50948D01*
X669020Y50893D01*
X668952Y50840D01*
X668882Y50790D01*
X668810Y50744D01*
X668736Y50701D01*
X668659Y50662D01*
X668582Y50626D01*
X668502Y50594D01*
X668421Y50565D01*
X668339Y50540D01*
X668256Y50519D01*
X668172Y50501D01*
X668088Y50488D01*
X668002Y50478D01*
X667917Y50472D01*
X667831Y50470D01*
X667831Y50471D02*
X665947Y50471D01*
X200000Y795062D02*
X197646Y795062D01*
X200000Y795062D02*
X200096Y795064D01*
X200192Y795070D01*
X200287Y795080D01*
X200382Y795093D01*
X200477Y795111D01*
X200571Y795132D01*
X200663Y795157D01*
X200755Y795186D01*
X200845Y795219D01*
X200934Y795255D01*
X201021Y795295D01*
X201107Y795339D01*
X201191Y795385D01*
X201273Y795436D01*
X201352Y795489D01*
X201430Y795546D01*
X201505Y795606D01*
X201578Y795669D01*
X201647Y795735D01*
X201715Y795803D01*
X201779Y795874D01*
X201840Y795948D01*
X201899Y796025D01*
X201954Y796103D01*
X202006Y796184D01*
X202054Y796267D01*
X202100Y796352D01*
X202141Y796438D01*
X202179Y796526D01*
X202214Y796616D01*
X202245Y796707D01*
X202272Y796799D01*
X202295Y796892D01*
X202314Y796986D01*
X202330Y797081D01*
X202342Y797176D01*
X202350Y797272D01*
X202354Y797368D01*
X202354Y797464D01*
X202350Y797560D01*
X202342Y797656D01*
X202330Y797751D01*
X202314Y797846D01*
X202295Y797940D01*
X202272Y798033D01*
X202245Y798125D01*
X202214Y798216D01*
X202179Y798306D01*
X202141Y798394D01*
X202100Y798480D01*
X202054Y798565D01*
X202006Y798648D01*
X201954Y798729D01*
X201899Y798807D01*
X201840Y798884D01*
X201779Y798958D01*
X201715Y799029D01*
X201647Y799097D01*
X201578Y799163D01*
X201505Y799226D01*
X201430Y799286D01*
X201352Y799343D01*
X201273Y799396D01*
X201191Y799447D01*
X201107Y799493D01*
X201021Y799537D01*
X200934Y799577D01*
X200845Y799613D01*
X200755Y799646D01*
X200663Y799675D01*
X200571Y799700D01*
X200477Y799721D01*
X200382Y799739D01*
X200287Y799752D01*
X200192Y799762D01*
X200096Y799768D01*
X200000Y799770D01*
X200471Y803538D02*
X197646Y803538D01*
X200471Y803538D02*
X200557Y803536D01*
X200642Y803530D01*
X200728Y803520D01*
X200812Y803507D01*
X200896Y803489D01*
X200979Y803468D01*
X201061Y803443D01*
X201142Y803414D01*
X201222Y803382D01*
X201299Y803346D01*
X201376Y803307D01*
X201450Y803264D01*
X201522Y803218D01*
X201592Y803168D01*
X201660Y803115D01*
X201725Y803060D01*
X201788Y803001D01*
X201848Y802940D01*
X201905Y802876D01*
X201959Y802809D01*
X202010Y802740D01*
X202058Y802669D01*
X202103Y802596D01*
X202144Y802521D01*
X202181Y802444D01*
X202216Y802365D01*
X202246Y802285D01*
X202273Y802203D01*
X202296Y802121D01*
X202316Y802037D01*
X202331Y801953D01*
X202343Y801868D01*
X202351Y801783D01*
X202355Y801697D01*
X202355Y801611D01*
X202351Y801525D01*
X202343Y801440D01*
X202331Y801355D01*
X202316Y801271D01*
X202296Y801187D01*
X202273Y801105D01*
X202246Y801023D01*
X202216Y800943D01*
X202181Y800864D01*
X202144Y800787D01*
X202103Y800712D01*
X202058Y800639D01*
X202010Y800568D01*
X201959Y800499D01*
X201905Y800432D01*
X201848Y800368D01*
X201788Y800307D01*
X201725Y800248D01*
X201660Y800193D01*
X201592Y800140D01*
X201522Y800090D01*
X201450Y800044D01*
X201376Y800001D01*
X201299Y799962D01*
X201222Y799926D01*
X201142Y799894D01*
X201061Y799865D01*
X200979Y799840D01*
X200896Y799819D01*
X200812Y799801D01*
X200728Y799788D01*
X200642Y799778D01*
X200557Y799772D01*
X200471Y799770D01*
X200471Y799771D02*
X198587Y799771D01*
X431326Y795062D02*
X433680Y795062D01*
X433776Y795064D01*
X433872Y795070D01*
X433967Y795080D01*
X434062Y795093D01*
X434157Y795111D01*
X434251Y795132D01*
X434343Y795157D01*
X434435Y795186D01*
X434525Y795219D01*
X434614Y795255D01*
X434701Y795295D01*
X434787Y795339D01*
X434871Y795385D01*
X434953Y795436D01*
X435032Y795489D01*
X435110Y795546D01*
X435185Y795606D01*
X435258Y795669D01*
X435327Y795735D01*
X435395Y795803D01*
X435459Y795874D01*
X435520Y795948D01*
X435579Y796025D01*
X435634Y796103D01*
X435686Y796184D01*
X435734Y796267D01*
X435780Y796352D01*
X435821Y796438D01*
X435859Y796526D01*
X435894Y796616D01*
X435925Y796707D01*
X435952Y796799D01*
X435975Y796892D01*
X435994Y796986D01*
X436010Y797081D01*
X436022Y797176D01*
X436030Y797272D01*
X436034Y797368D01*
X436034Y797464D01*
X436030Y797560D01*
X436022Y797656D01*
X436010Y797751D01*
X435994Y797846D01*
X435975Y797940D01*
X435952Y798033D01*
X435925Y798125D01*
X435894Y798216D01*
X435859Y798306D01*
X435821Y798394D01*
X435780Y798480D01*
X435734Y798565D01*
X435686Y798648D01*
X435634Y798729D01*
X435579Y798807D01*
X435520Y798884D01*
X435459Y798958D01*
X435395Y799029D01*
X435327Y799097D01*
X435258Y799163D01*
X435185Y799226D01*
X435110Y799286D01*
X435032Y799343D01*
X434953Y799396D01*
X434871Y799447D01*
X434787Y799493D01*
X434701Y799537D01*
X434614Y799577D01*
X434525Y799613D01*
X434435Y799646D01*
X434343Y799675D01*
X434251Y799700D01*
X434157Y799721D01*
X434062Y799739D01*
X433967Y799752D01*
X433872Y799762D01*
X433776Y799768D01*
X433680Y799770D01*
X434151Y803538D02*
X431326Y803538D01*
X434151Y803538D02*
X434237Y803536D01*
X434322Y803530D01*
X434408Y803520D01*
X434492Y803507D01*
X434576Y803489D01*
X434659Y803468D01*
X434741Y803443D01*
X434822Y803414D01*
X434902Y803382D01*
X434979Y803346D01*
X435056Y803307D01*
X435130Y803264D01*
X435202Y803218D01*
X435272Y803168D01*
X435340Y803115D01*
X435405Y803060D01*
X435468Y803001D01*
X435528Y802940D01*
X435585Y802876D01*
X435639Y802809D01*
X435690Y802740D01*
X435738Y802669D01*
X435783Y802596D01*
X435824Y802521D01*
X435861Y802444D01*
X435896Y802365D01*
X435926Y802285D01*
X435953Y802203D01*
X435976Y802121D01*
X435996Y802037D01*
X436011Y801953D01*
X436023Y801868D01*
X436031Y801783D01*
X436035Y801697D01*
X436035Y801611D01*
X436031Y801525D01*
X436023Y801440D01*
X436011Y801355D01*
X435996Y801271D01*
X435976Y801187D01*
X435953Y801105D01*
X435926Y801023D01*
X435896Y800943D01*
X435861Y800864D01*
X435824Y800787D01*
X435783Y800712D01*
X435738Y800639D01*
X435690Y800568D01*
X435639Y800499D01*
X435585Y800432D01*
X435528Y800368D01*
X435468Y800307D01*
X435405Y800248D01*
X435340Y800193D01*
X435272Y800140D01*
X435202Y800090D01*
X435130Y800044D01*
X435056Y800001D01*
X434979Y799962D01*
X434902Y799926D01*
X434822Y799894D01*
X434741Y799865D01*
X434659Y799840D01*
X434576Y799819D01*
X434492Y799801D01*
X434408Y799788D01*
X434322Y799778D01*
X434237Y799772D01*
X434151Y799770D01*
X434151Y799771D02*
X432267Y799771D01*
X665006Y795062D02*
X667360Y795062D01*
X667456Y795064D01*
X667552Y795070D01*
X667647Y795080D01*
X667742Y795093D01*
X667837Y795111D01*
X667931Y795132D01*
X668023Y795157D01*
X668115Y795186D01*
X668205Y795219D01*
X668294Y795255D01*
X668381Y795295D01*
X668467Y795339D01*
X668551Y795385D01*
X668633Y795436D01*
X668712Y795489D01*
X668790Y795546D01*
X668865Y795606D01*
X668938Y795669D01*
X669007Y795735D01*
X669075Y795803D01*
X669139Y795874D01*
X669200Y795948D01*
X669259Y796025D01*
X669314Y796103D01*
X669366Y796184D01*
X669414Y796267D01*
X669460Y796352D01*
X669501Y796438D01*
X669539Y796526D01*
X669574Y796616D01*
X669605Y796707D01*
X669632Y796799D01*
X669655Y796892D01*
X669674Y796986D01*
X669690Y797081D01*
X669702Y797176D01*
X669710Y797272D01*
X669714Y797368D01*
X669714Y797464D01*
X669710Y797560D01*
X669702Y797656D01*
X669690Y797751D01*
X669674Y797846D01*
X669655Y797940D01*
X669632Y798033D01*
X669605Y798125D01*
X669574Y798216D01*
X669539Y798306D01*
X669501Y798394D01*
X669460Y798480D01*
X669414Y798565D01*
X669366Y798648D01*
X669314Y798729D01*
X669259Y798807D01*
X669200Y798884D01*
X669139Y798958D01*
X669075Y799029D01*
X669007Y799097D01*
X668938Y799163D01*
X668865Y799226D01*
X668790Y799286D01*
X668712Y799343D01*
X668633Y799396D01*
X668551Y799447D01*
X668467Y799493D01*
X668381Y799537D01*
X668294Y799577D01*
X668205Y799613D01*
X668115Y799646D01*
X668023Y799675D01*
X667931Y799700D01*
X667837Y799721D01*
X667742Y799739D01*
X667647Y799752D01*
X667552Y799762D01*
X667456Y799768D01*
X667360Y799770D01*
X667831Y803538D02*
X665006Y803538D01*
X667831Y803538D02*
X667917Y803536D01*
X668002Y803530D01*
X668088Y803520D01*
X668172Y803507D01*
X668256Y803489D01*
X668339Y803468D01*
X668421Y803443D01*
X668502Y803414D01*
X668582Y803382D01*
X668659Y803346D01*
X668736Y803307D01*
X668810Y803264D01*
X668882Y803218D01*
X668952Y803168D01*
X669020Y803115D01*
X669085Y803060D01*
X669148Y803001D01*
X669208Y802940D01*
X669265Y802876D01*
X669319Y802809D01*
X669370Y802740D01*
X669418Y802669D01*
X669463Y802596D01*
X669504Y802521D01*
X669541Y802444D01*
X669576Y802365D01*
X669606Y802285D01*
X669633Y802203D01*
X669656Y802121D01*
X669676Y802037D01*
X669691Y801953D01*
X669703Y801868D01*
X669711Y801783D01*
X669715Y801697D01*
X669715Y801611D01*
X669711Y801525D01*
X669703Y801440D01*
X669691Y801355D01*
X669676Y801271D01*
X669656Y801187D01*
X669633Y801105D01*
X669606Y801023D01*
X669576Y800943D01*
X669541Y800864D01*
X669504Y800787D01*
X669463Y800712D01*
X669418Y800639D01*
X669370Y800568D01*
X669319Y800499D01*
X669265Y800432D01*
X669208Y800368D01*
X669148Y800307D01*
X669085Y800248D01*
X669020Y800193D01*
X668952Y800140D01*
X668882Y800090D01*
X668810Y800044D01*
X668736Y800001D01*
X668659Y799962D01*
X668582Y799926D01*
X668502Y799894D01*
X668421Y799865D01*
X668339Y799840D01*
X668256Y799819D01*
X668172Y799801D01*
X668088Y799788D01*
X668002Y799778D01*
X667917Y799772D01*
X667831Y799770D01*
X667831Y799771D02*
X665947Y799771D01*
D11*
X215900Y520700D03*
X215900Y495300D03*
X215900Y469900D03*
X215900Y444500D03*
X215900Y419100D03*
X215900Y393700D03*
X215900Y368300D03*
X215900Y342900D03*
X215900Y317500D03*
X215900Y292100D03*
X215900Y266700D03*
X215900Y241300D03*
X215900Y215900D03*
X215900Y190500D03*
X215900Y165100D03*
X215900Y139700D03*
X12700Y241300D03*
X12700Y266700D03*
X12700Y292100D03*
X12700Y317500D03*
X12700Y342900D03*
X12700Y368300D03*
X12700Y393700D03*
X12700Y419100D03*
X12700Y444500D03*
X12700Y469900D03*
X12700Y495300D03*
X12700Y520700D03*
X449580Y520700D03*
X449580Y495300D03*
X449580Y469900D03*
X449580Y444500D03*
X449580Y419100D03*
X449580Y393700D03*
X449580Y368300D03*
X449580Y342900D03*
X449580Y317500D03*
X449580Y292100D03*
X449580Y266700D03*
X449580Y241300D03*
X449580Y215900D03*
X449580Y190500D03*
X449580Y165100D03*
X449580Y139700D03*
X246380Y241300D03*
X246380Y266700D03*
X246380Y292100D03*
X246380Y317500D03*
X246380Y342900D03*
X246380Y368300D03*
X246380Y393700D03*
X246380Y419100D03*
X246380Y444500D03*
X246380Y469900D03*
X246380Y495300D03*
X246380Y520700D03*
X683260Y520700D03*
X683260Y495300D03*
X683260Y469900D03*
X683260Y444500D03*
X683260Y419100D03*
X683260Y393700D03*
X683260Y368300D03*
X683260Y342900D03*
X683260Y317500D03*
X683260Y292100D03*
X683260Y266700D03*
X683260Y241300D03*
X683260Y215900D03*
X683260Y190500D03*
X683260Y165100D03*
X683260Y139700D03*
X480060Y241300D03*
X480060Y266700D03*
X480060Y292100D03*
X480060Y317500D03*
X480060Y342900D03*
X480060Y368300D03*
X480060Y393700D03*
X480060Y419100D03*
X480060Y444500D03*
X480060Y469900D03*
X480060Y495300D03*
X480060Y520700D03*
X215900Y1270000D03*
X215900Y1244600D03*
X215900Y1219200D03*
X215900Y1193800D03*
X215900Y1168400D03*
X215900Y1143000D03*
X215900Y1117600D03*
X215900Y1092200D03*
X215900Y1066800D03*
X215900Y1041400D03*
X215900Y1016000D03*
X215900Y990600D03*
X215900Y965200D03*
X215900Y939800D03*
X215900Y914400D03*
X215900Y889000D03*
X12700Y990600D03*
X12700Y1016000D03*
X12700Y1041400D03*
X12700Y1066800D03*
X12700Y1092200D03*
X12700Y1117600D03*
X12700Y1143000D03*
X12700Y1168400D03*
X12700Y1193800D03*
X12700Y1219200D03*
X12700Y1244600D03*
X12700Y1270000D03*
X449580Y1270000D03*
X449580Y1244600D03*
X449580Y1219200D03*
X449580Y1193800D03*
X449580Y1168400D03*
X449580Y1143000D03*
X449580Y1117600D03*
X449580Y1092200D03*
X449580Y1066800D03*
X449580Y1041400D03*
X449580Y1016000D03*
X449580Y990600D03*
X449580Y965200D03*
X449580Y939800D03*
X449580Y914400D03*
X449580Y889000D03*
X246380Y990600D03*
X246380Y1016000D03*
X246380Y1041400D03*
X246380Y1066800D03*
X246380Y1092200D03*
X246380Y1117600D03*
X246380Y1143000D03*
X246380Y1168400D03*
X246380Y1193800D03*
X246380Y1219200D03*
X246380Y1244600D03*
X246380Y1270000D03*
X683260Y1270000D03*
X683260Y1244600D03*
X683260Y1219200D03*
X683260Y1193800D03*
X683260Y1168400D03*
X683260Y1143000D03*
X683260Y1117600D03*
X683260Y1092200D03*
X683260Y1066800D03*
X683260Y1041400D03*
X683260Y1016000D03*
X683260Y990600D03*
X683260Y965200D03*
X683260Y939800D03*
X683260Y914400D03*
X683260Y889000D03*
X480060Y990600D03*
X480060Y1016000D03*
X480060Y1041400D03*
X480060Y1066800D03*
X480060Y1092200D03*
X480060Y1117600D03*
X480060Y1143000D03*
X480060Y1168400D03*
X480060Y1193800D03*
X480060Y1219200D03*
X480060Y1244600D03*
X480060Y1270000D03*
D12*
X60500Y197000D03*
X68500Y197000D03*
X76500Y197000D03*
X84500Y197000D03*
X94500Y42500D03*
X94500Y48500D03*
X134500Y48500D03*
X134500Y42500D03*
X59500Y146000D03*
X114300Y102500D03*
D13*
X133800Y48500D02*
X134500Y48500D01*
X133800Y48500D02*
X127300Y55000D01*
X127300Y89500D02*
X114300Y102500D01*
X127300Y89500D02*
X127300Y55000D01*
D12*
X149000Y154500D03*
X161000Y154500D03*
X152000Y149500D03*
X158000Y149500D03*
X35000Y646000D03*
X120000Y346500D03*
X120500Y490500D03*
X200000Y433000D03*
X200000Y360500D03*
X32000Y89520D03*
X51570Y443500D03*
X101000Y421000D03*
X128000Y421000D03*
X128000Y387000D03*
X101000Y387000D03*
X155000Y154500D03*
X164000Y403500D03*
X187500Y322000D03*
X141000Y509000D03*
X196000Y528000D03*
X110000Y265500D03*
X164500Y250500D03*
X88000Y250500D03*
X145000Y203000D03*
X137000Y319000D03*
X109000Y516000D03*
X57500Y549500D03*
X74000Y652000D03*
X66000Y667000D03*
X73500Y622000D03*
X153000Y651000D03*
X114000Y632000D03*
X144000Y609500D03*
X171000Y590000D03*
X212500Y589000D03*
X215000Y651500D03*
X64500Y577500D03*
X130000Y20000D03*
X148000Y28000D03*
X166500Y28000D03*
X56000Y12500D03*
X38000Y53500D03*
X12000Y48500D03*
X178000Y12000D03*
X62500Y87500D03*
X204500Y78000D03*
X223000Y330500D03*
X223000Y305000D03*
X223000Y355500D03*
X223000Y381000D03*
X223000Y406500D03*
X200000Y427000D03*
X223000Y482500D03*
X223000Y508000D03*
X201500Y514500D03*
X223000Y533500D03*
X29000Y493000D03*
X6000Y254000D03*
X6000Y279500D03*
X100500Y206000D03*
D14*
X202000Y405000D03*
D15*
X204500Y151100D02*
X215900Y139700D01*
X204500Y335194D02*
X191710Y347984D01*
X204500Y335194D02*
X204500Y151100D01*
X191710Y399277D02*
X197723Y405290D01*
X201710Y405290D02*
X202000Y405000D01*
X201710Y405290D02*
X197723Y405290D01*
X191710Y399277D02*
X191710Y347984D01*
X202567Y405000D02*
X203290Y405723D01*
X202567Y405000D02*
X202000Y405000D01*
X203290Y405723D02*
X203290Y413710D01*
X190000Y427000D02*
X190000Y504500D01*
X190000Y427000D02*
X203290Y413710D01*
X190000Y504500D02*
X181500Y513000D01*
X162000Y513000D01*
D14*
X162000Y513000D03*
X111000Y197500D03*
D15*
X25000Y254400D02*
X12700Y266700D01*
X96500Y197500D02*
X111000Y197500D01*
X96500Y197500D02*
X89000Y190000D01*
X39000Y190000D01*
X25000Y204000D01*
X25000Y254400D01*
D14*
X163500Y458000D03*
X170500Y458000D03*
X39000Y84000D03*
X45500Y227000D03*
D15*
X41836Y491564D02*
X12700Y520700D01*
X41836Y491564D02*
X41836Y318164D01*
X43336Y316664D02*
X43336Y308164D01*
X43336Y316664D02*
X41836Y318164D01*
D14*
X43336Y308164D03*
X39000Y74000D03*
X40500Y230000D03*
D15*
X38467Y469534D02*
X12700Y495300D01*
X38467Y469534D02*
X38467Y316534D01*
X38967Y316034D01*
X38967Y312534D01*
D14*
X38967Y312534D03*
X208500Y456000D03*
X192000Y513000D03*
X78000Y405000D03*
X83810Y405500D03*
X26500Y446500D03*
X19515Y457690D03*
X26825Y456608D03*
X24500Y462000D03*
X110500Y433000D03*
D15*
X116000Y436000D02*
X154500Y474500D01*
X116000Y436000D02*
X113500Y436000D01*
X110500Y433000D01*
X154500Y474500D02*
X154500Y491000D01*
D14*
X154500Y491000D03*
X84000Y339000D03*
X78203Y341420D03*
X72000Y341420D03*
X66003Y339997D03*
X59000Y340000D03*
X199500Y377500D03*
X180534Y434534D03*
D12*
X110500Y289500D03*
X114332Y78368D03*
X109500Y312500D03*
X68000Y118000D03*
X28000Y127000D03*
X10000Y127670D03*
X32000Y157000D03*
X25500Y184500D03*
X51500Y211000D03*
X51500Y205000D03*
X107000Y148500D03*
X100000Y148500D03*
X93000Y148500D03*
X86000Y148500D03*
X176500Y140000D03*
X100332Y83368D03*
X62000Y62000D03*
X140832Y78368D03*
X178832Y61868D03*
X51500Y158500D03*
X100500Y185500D03*
X100500Y191500D03*
X70000Y405000D03*
X26000Y436000D03*
X179000Y445500D03*
X114000Y497000D03*
X182277Y328321D03*
X200000Y352500D03*
X136500Y385000D03*
X139500Y404480D03*
X97500Y430000D03*
X15500Y672000D03*
X41500Y666500D03*
X42000Y651500D03*
X42000Y637000D03*
X42000Y622000D03*
X73500Y567000D03*
X131000Y430500D03*
X152000Y604000D03*
X153000Y673000D03*
X120000Y521500D03*
X86500Y391500D03*
X48000Y504000D03*
X39000Y65000D03*
X222000Y126500D03*
X155000Y466500D03*
X47500Y535500D03*
X127500Y673000D03*
X159000Y566000D03*
X159000Y555500D03*
X159500Y542000D03*
D14*
X25500Y192000D03*
X25500Y177000D03*
X106300Y48000D03*
X117300Y48000D03*
D12*
X71100Y52826D03*
X157500Y52826D03*
X157500Y11026D03*
X71100Y11026D03*
D14*
X148000Y35500D03*
X166500Y35500D03*
X80000Y39500D03*
X62500Y39500D03*
X151000Y555000D03*
X74000Y504500D03*
X151000Y568500D03*
X151000Y542000D03*
X74500Y490500D03*
X80500Y516500D03*
X97784Y401217D03*
X172500Y496000D03*
X196000Y470000D03*
X169000Y490500D03*
X197500Y500000D03*
X192500Y607000D03*
X121500Y604000D03*
X136500Y604000D03*
D12*
X26000Y427000D03*
D14*
X57000Y595500D03*
X97000Y504500D03*
D15*
X97000Y555500D01*
X57000Y595500D01*
D14*
X192500Y637000D03*
X103000Y511000D03*
D16*
X127500Y637000D02*
X192500Y637000D01*
X127500Y637000D02*
X103000Y612500D01*
X103000Y511000D01*
D14*
X192500Y666500D03*
X180000Y463000D03*
D15*
X156439Y504100D02*
X152100Y508439D01*
X152100Y519994D01*
X189723Y644210D02*
X185710Y648223D01*
X185710Y659710D02*
X192500Y666500D01*
X185710Y659710D02*
X185710Y648223D01*
X189723Y644210D02*
X194790Y644210D01*
X183000Y495500D02*
X183000Y466000D01*
X180000Y463000D01*
X183000Y495500D02*
X174400Y504100D01*
X156439Y504100D01*
X152100Y519994D02*
X172000Y539894D01*
X172000Y577500D01*
X202000Y607500D01*
X202000Y637000D01*
X194790Y644210D01*
D14*
X192500Y622000D03*
X179536Y452697D03*
D15*
X141500Y571000D02*
X192500Y622000D01*
X141500Y571000D02*
X141500Y526500D01*
X147700Y520300D01*
X147700Y506945D01*
X162000Y492645D01*
X175290Y462777D02*
X175290Y456943D01*
X179536Y452697D01*
X175290Y462777D02*
X162000Y476067D01*
X162000Y492645D01*
D12*
X51700Y397500D03*
X53080Y414080D03*
D14*
X91500Y314000D03*
X103500Y302500D03*
X89000Y300000D03*
X82000Y300000D03*
X89000Y293000D03*
X57000Y268000D03*
X40000Y285000D03*
X74000Y252000D03*
X102000Y279000D03*
X66000Y311500D03*
X117500Y302500D03*
X129000Y313500D03*
X164500Y265500D03*
X180000Y282000D03*
X147000Y249000D03*
X118500Y279000D03*
X151500Y311000D03*
D12*
X108000Y346500D03*
X108000Y490500D03*
X48000Y333000D03*
X57500Y540500D03*
D16*
X48000Y333000D02*
X87000Y333000D01*
X92500Y338500D01*
X92500Y422000D01*
X57500Y457000D01*
X57500Y540500D01*
D12*
X89000Y233500D03*
D16*
X48606Y332394D02*
X48000Y333000D01*
X48606Y332394D02*
X48606Y305606D01*
X32500Y289500D01*
X32500Y280000D01*
X79000Y233500D01*
X89000Y233500D01*
D14*
X173500Y373000D03*
X168500Y370000D03*
X160074Y338574D03*
X198500Y400000D03*
X181000Y377500D03*
X180500Y385000D03*
X66500Y75000D03*
X202790Y389000D03*
X188500Y315000D03*
D15*
X140500Y149000D02*
X66500Y75000D01*
X140500Y149000D02*
X140500Y156000D01*
X200000Y215500D01*
X200000Y303500D01*
X188500Y315000D01*
D14*
X198500Y410000D03*
D15*
X198500Y414000D01*
X186500Y426000D01*
X159433Y507000D02*
X156000Y510433D01*
X156000Y515500D01*
X178000Y537500D01*
X178000Y570000D01*
X210500Y602500D01*
X210500Y637500D01*
X196500Y651500D01*
X192500Y651500D01*
D14*
X192500Y651500D03*
D15*
X186500Y499500D02*
X186500Y426000D01*
X186500Y499500D02*
X179000Y507000D01*
X159433Y507000D01*
D14*
X17040Y127500D03*
X145469Y398469D03*
D17*
X27040Y137500D02*
X17040Y127500D01*
X114630Y343870D02*
X114630Y355130D01*
X145469Y385969D02*
X145469Y398469D01*
X104000Y137500D02*
X27040Y137500D01*
X104000Y137500D02*
X152500Y186000D01*
X191400Y291630D02*
X149530Y333500D01*
X125000Y333500D01*
X114630Y343870D01*
X114630Y355130D02*
X145469Y385969D01*
X191400Y291630D02*
X191400Y247900D01*
X152500Y209000D02*
X152500Y186000D01*
X152500Y209000D02*
X191400Y247900D01*
D14*
X172217Y338217D03*
X166000Y389500D03*
D12*
X61004Y444525D03*
X114500Y423500D03*
D16*
X114500Y375000D01*
X100000Y360500D02*
X100000Y343000D01*
X114500Y328500D01*
X187800Y256300D02*
X133000Y201500D01*
D12*
X133000Y201500D03*
D16*
X100000Y360500D02*
X114500Y375000D01*
X114500Y328500D02*
X147939Y328500D01*
X187800Y288639D01*
X187800Y256300D01*
D14*
X30500Y227000D03*
X63500Y345710D03*
X25000Y305000D03*
X85500Y419500D03*
X29000Y467000D03*
X13000Y590000D03*
X86500Y495500D03*
D15*
X86500Y507500D01*
X92500Y513500D01*
D14*
X36500Y590000D03*
D15*
X42500Y590000D02*
X92500Y540000D01*
X42500Y590000D02*
X36500Y590000D01*
X92500Y540000D02*
X92500Y513500D01*
D14*
X81500Y490500D03*
D15*
X81500Y508500D01*
X87000Y514000D01*
X28000Y591000D02*
X22000Y591000D01*
D14*
X22000Y591000D03*
D15*
X87000Y532000D02*
X87000Y514000D01*
X87000Y532000D02*
X28000Y591000D01*
D14*
X35500Y673000D03*
X134108Y505608D03*
D15*
X125108Y514608D01*
X118608Y514608D01*
X109000Y524217D01*
X109000Y606500D01*
D14*
X109000Y606500D03*
X13000Y616500D03*
X93500Y490000D03*
X137500Y361000D03*
X143522Y367140D03*
X149000Y372500D03*
X142217Y470784D03*
X149500Y460500D03*
X92000Y499000D03*
X55500Y373000D03*
X59500Y368500D03*
X63500Y364000D03*
X67500Y359500D03*
X72000Y354500D03*
X173000Y450000D03*
X172000Y443500D03*
X51270Y377000D03*
X51500Y150500D03*
X67500Y350000D03*
X30500Y317000D03*
D12*
X76458Y69730D03*
D14*
X122000Y139140D03*
X129070Y339000D03*
D17*
X150000Y339000D01*
X131750Y148890D02*
X122000Y139140D01*
X194000Y295000D02*
X150000Y339000D01*
X194000Y295000D02*
X194000Y241500D01*
X158000Y205500D02*
X158000Y183500D01*
X158000Y205500D02*
X194000Y241500D01*
X158000Y183500D02*
X131750Y157250D01*
X131750Y148890D01*
D14*
X176000Y418500D03*
D12*
X26500Y390000D03*
X85000Y319230D03*
D14*
X177790Y390543D03*
X128778Y352222D03*
D17*
X139900Y341100D01*
X150870Y341100D01*
X196100Y295870D01*
X196100Y234600D02*
X164000Y202500D01*
D14*
X164000Y202500D03*
D17*
X196100Y234600D02*
X196100Y295870D01*
D14*
X133000Y356500D03*
X51270Y433000D03*
X121500Y510000D03*
X127000Y505500D03*
X134000Y498000D03*
X176165Y438882D03*
X167500Y447500D03*
D12*
X294180Y197000D03*
X302180Y197000D03*
X310180Y197000D03*
X318180Y197000D03*
X328180Y42500D03*
X328180Y48500D03*
X368180Y48500D03*
X368180Y42500D03*
X293180Y146000D03*
X347980Y102500D03*
D13*
X367480Y48500D02*
X368180Y48500D01*
X367480Y48500D02*
X360980Y55000D01*
X360980Y89500D02*
X347980Y102500D01*
X360980Y89500D02*
X360980Y55000D01*
D12*
X382680Y154500D03*
X394680Y154500D03*
X385680Y149500D03*
X391680Y149500D03*
X268680Y646000D03*
X353680Y346500D03*
X354180Y490500D03*
X433680Y433000D03*
X433680Y360500D03*
X265680Y89520D03*
X285250Y443500D03*
X334680Y421000D03*
X361680Y421000D03*
X361680Y387000D03*
X334680Y387000D03*
X388680Y154500D03*
X397680Y403500D03*
X421180Y322000D03*
X374680Y509000D03*
X429680Y528000D03*
X343680Y265500D03*
X398180Y250500D03*
X321680Y250500D03*
X378680Y203000D03*
X370680Y319000D03*
X342680Y516000D03*
X291180Y549500D03*
X307680Y652000D03*
X299680Y667000D03*
X307180Y622000D03*
X386680Y651000D03*
X347680Y632000D03*
X377680Y609500D03*
X404680Y590000D03*
X446180Y589000D03*
X448680Y651500D03*
X298180Y577500D03*
X363680Y20000D03*
X381680Y28000D03*
X400180Y28000D03*
X289680Y12500D03*
X271680Y53500D03*
X245680Y48500D03*
X411680Y12000D03*
X296180Y87500D03*
X438180Y78000D03*
X456680Y330500D03*
X456680Y305000D03*
X456680Y355500D03*
X456680Y381000D03*
X456680Y406500D03*
X433680Y427000D03*
X456680Y482500D03*
X456680Y508000D03*
X435180Y514500D03*
X456680Y533500D03*
X262680Y493000D03*
X239680Y254000D03*
X239680Y279500D03*
X334180Y206000D03*
D14*
X435680Y405000D03*
D15*
X438180Y151100D02*
X449580Y139700D01*
X438180Y335194D02*
X425390Y347984D01*
X438180Y335194D02*
X438180Y151100D01*
X425390Y399277D02*
X431403Y405290D01*
X435390Y405290D02*
X435680Y405000D01*
X435390Y405290D02*
X431403Y405290D01*
X425390Y399277D02*
X425390Y347984D01*
X436247Y405000D02*
X436970Y405723D01*
X436247Y405000D02*
X435680Y405000D01*
X436970Y405723D02*
X436970Y413710D01*
X423680Y427000D02*
X423680Y504500D01*
X423680Y427000D02*
X436970Y413710D01*
X423680Y504500D02*
X415180Y513000D01*
X395680Y513000D01*
D14*
X395680Y513000D03*
X344680Y197500D03*
D15*
X258680Y254400D02*
X246380Y266700D01*
X330180Y197500D02*
X344680Y197500D01*
X330180Y197500D02*
X322680Y190000D01*
X272680Y190000D01*
X258680Y204000D01*
X258680Y254400D01*
D14*
X397180Y458000D03*
X404180Y458000D03*
X272680Y84000D03*
X279180Y227000D03*
D15*
X275516Y491564D02*
X246380Y520700D01*
X275516Y491564D02*
X275516Y318164D01*
X277016Y316664D02*
X277016Y308164D01*
X277016Y316664D02*
X275516Y318164D01*
D14*
X277016Y308164D03*
X272680Y74000D03*
X274180Y230000D03*
D15*
X272147Y469534D02*
X246380Y495300D01*
X272147Y469534D02*
X272147Y316534D01*
X272647Y316034D01*
X272647Y312534D01*
D14*
X272647Y312534D03*
X442180Y456000D03*
X425680Y513000D03*
X311680Y405000D03*
X317490Y405500D03*
X260180Y446500D03*
X253195Y457690D03*
X260505Y456608D03*
X258180Y462000D03*
X344180Y433000D03*
D15*
X349680Y436000D02*
X388180Y474500D01*
X349680Y436000D02*
X347180Y436000D01*
X344180Y433000D01*
X388180Y474500D02*
X388180Y491000D01*
D14*
X388180Y491000D03*
X317680Y339000D03*
X311883Y341420D03*
X305680Y341420D03*
X299683Y339997D03*
X292680Y340000D03*
X433180Y377500D03*
X414214Y434534D03*
D12*
X344180Y289500D03*
X348012Y78368D03*
X343180Y312500D03*
X301680Y118000D03*
X261680Y127000D03*
X243680Y127670D03*
X265680Y157000D03*
X259180Y184500D03*
X285180Y211000D03*
X285180Y205000D03*
X340680Y148500D03*
X333680Y148500D03*
X326680Y148500D03*
X319680Y148500D03*
X410180Y140000D03*
X334012Y83368D03*
X295680Y62000D03*
X374512Y78368D03*
X412512Y61868D03*
X285180Y158500D03*
X334180Y185500D03*
X334180Y191500D03*
X303680Y405000D03*
X259680Y436000D03*
X412680Y445500D03*
X347680Y497000D03*
X415957Y328321D03*
X433680Y352500D03*
X370180Y385000D03*
X373180Y404480D03*
X331180Y430000D03*
X249180Y672000D03*
X275180Y666500D03*
X275680Y651500D03*
X275680Y637000D03*
X275680Y622000D03*
X307180Y567000D03*
X364680Y430500D03*
X385680Y604000D03*
X386680Y673000D03*
X353680Y521500D03*
X320180Y391500D03*
X281680Y504000D03*
X272680Y65000D03*
X455680Y126500D03*
X388680Y466500D03*
X281180Y535500D03*
X361180Y673000D03*
X392680Y566000D03*
X392680Y555500D03*
X393180Y542000D03*
D14*
X259180Y192000D03*
X259180Y177000D03*
X339980Y48000D03*
X350980Y48000D03*
D12*
X304780Y52826D03*
X391180Y52826D03*
X391180Y11026D03*
X304780Y11026D03*
D14*
X381680Y35500D03*
X400180Y35500D03*
X313680Y39500D03*
X296180Y39500D03*
X384680Y555000D03*
X307680Y504500D03*
X384680Y568500D03*
X384680Y542000D03*
X308180Y490500D03*
X314180Y516500D03*
X331464Y401217D03*
X406180Y496000D03*
X429680Y470000D03*
X402680Y490500D03*
X431180Y500000D03*
X426180Y607000D03*
X355180Y604000D03*
X370180Y604000D03*
D12*
X259680Y427000D03*
D14*
X290680Y595500D03*
X330680Y504500D03*
D15*
X330680Y555500D01*
X290680Y595500D01*
D14*
X426180Y637000D03*
X336680Y511000D03*
D16*
X361180Y637000D02*
X426180Y637000D01*
X361180Y637000D02*
X336680Y612500D01*
X336680Y511000D01*
D14*
X426180Y666500D03*
X413680Y463000D03*
D15*
X390119Y504100D02*
X385780Y508439D01*
X385780Y519994D01*
X423403Y644210D02*
X419390Y648223D01*
X419390Y659710D02*
X426180Y666500D01*
X419390Y659710D02*
X419390Y648223D01*
X423403Y644210D02*
X428470Y644210D01*
X416680Y495500D02*
X416680Y466000D01*
X413680Y463000D01*
X416680Y495500D02*
X408080Y504100D01*
X390119Y504100D01*
X385780Y519994D02*
X405680Y539894D01*
X405680Y577500D01*
X435680Y607500D01*
X435680Y637000D01*
X428470Y644210D01*
D14*
X426180Y622000D03*
X413216Y452697D03*
D15*
X375180Y571000D02*
X426180Y622000D01*
X375180Y571000D02*
X375180Y526500D01*
X381380Y520300D01*
X381380Y506945D01*
X395680Y492645D01*
X408970Y462777D02*
X408970Y456943D01*
X413216Y452697D01*
X408970Y462777D02*
X395680Y476067D01*
X395680Y492645D01*
D12*
X285380Y397500D03*
X286760Y414080D03*
D14*
X325180Y314000D03*
X337180Y302500D03*
X322680Y300000D03*
X315680Y300000D03*
X322680Y293000D03*
X290680Y268000D03*
X273680Y285000D03*
X307680Y252000D03*
X335680Y279000D03*
X299680Y311500D03*
X351180Y302500D03*
X362680Y313500D03*
X398180Y265500D03*
X413680Y282000D03*
X380680Y249000D03*
X352180Y279000D03*
X385180Y311000D03*
D12*
X341680Y346500D03*
X341680Y490500D03*
X281680Y333000D03*
X291180Y540500D03*
D16*
X281680Y333000D02*
X320680Y333000D01*
X326180Y338500D01*
X326180Y422000D01*
X291180Y457000D01*
X291180Y540500D01*
D12*
X322680Y233500D03*
D16*
X282286Y332394D02*
X281680Y333000D01*
X282286Y332394D02*
X282286Y305606D01*
X266180Y289500D01*
X266180Y280000D01*
X312680Y233500D01*
X322680Y233500D01*
D14*
X407180Y373000D03*
X402180Y370000D03*
X393754Y338574D03*
X432180Y400000D03*
X414680Y377500D03*
X414180Y385000D03*
X300180Y75000D03*
X436470Y389000D03*
X422180Y315000D03*
D15*
X374180Y149000D02*
X300180Y75000D01*
X374180Y149000D02*
X374180Y156000D01*
X433680Y215500D01*
X433680Y303500D01*
X422180Y315000D01*
D14*
X432180Y410000D03*
D15*
X432180Y414000D01*
X420180Y426000D01*
X393113Y507000D02*
X389680Y510433D01*
X389680Y515500D01*
X411680Y537500D01*
X411680Y570000D01*
X444180Y602500D01*
X444180Y637500D01*
X430180Y651500D01*
X426180Y651500D01*
D14*
X426180Y651500D03*
D15*
X420180Y499500D02*
X420180Y426000D01*
X420180Y499500D02*
X412680Y507000D01*
X393113Y507000D01*
D14*
X250720Y127500D03*
X379149Y398469D03*
D17*
X260720Y137500D02*
X250720Y127500D01*
X348310Y343870D02*
X348310Y355130D01*
X379149Y385969D02*
X379149Y398469D01*
X337680Y137500D02*
X260720Y137500D01*
X337680Y137500D02*
X386180Y186000D01*
X425080Y291630D02*
X383210Y333500D01*
X358680Y333500D01*
X348310Y343870D01*
X348310Y355130D02*
X379149Y385969D01*
X425080Y291630D02*
X425080Y247900D01*
X386180Y209000D02*
X386180Y186000D01*
X386180Y209000D02*
X425080Y247900D01*
D14*
X405897Y338217D03*
X399680Y389500D03*
D12*
X294684Y444525D03*
X348180Y423500D03*
D16*
X348180Y375000D01*
X333680Y360500D02*
X333680Y343000D01*
X348180Y328500D01*
X421480Y256300D02*
X366680Y201500D01*
D12*
X366680Y201500D03*
D16*
X333680Y360500D02*
X348180Y375000D01*
X348180Y328500D02*
X381619Y328500D01*
X421480Y288639D01*
X421480Y256300D01*
D14*
X264180Y227000D03*
X297180Y345710D03*
X258680Y305000D03*
X319180Y419500D03*
X262680Y467000D03*
X246680Y590000D03*
X320180Y495500D03*
D15*
X320180Y507500D01*
X326180Y513500D01*
D14*
X270180Y590000D03*
D15*
X276180Y590000D02*
X326180Y540000D01*
X276180Y590000D02*
X270180Y590000D01*
X326180Y540000D02*
X326180Y513500D01*
D14*
X315180Y490500D03*
D15*
X315180Y508500D01*
X320680Y514000D01*
X261680Y591000D02*
X255680Y591000D01*
D14*
X255680Y591000D03*
D15*
X320680Y532000D02*
X320680Y514000D01*
X320680Y532000D02*
X261680Y591000D01*
D14*
X269180Y673000D03*
X367788Y505608D03*
D15*
X358788Y514608D01*
X352288Y514608D01*
X342680Y524217D01*
X342680Y606500D01*
D14*
X342680Y606500D03*
X246680Y616500D03*
X327180Y490000D03*
X371180Y361000D03*
X377202Y367140D03*
X382680Y372500D03*
X375897Y470784D03*
X383180Y460500D03*
X325680Y499000D03*
X289180Y373000D03*
X293180Y368500D03*
X297180Y364000D03*
X301180Y359500D03*
X305680Y354500D03*
X406680Y450000D03*
X405680Y443500D03*
X284950Y377000D03*
X285180Y150500D03*
X301180Y350000D03*
X264180Y317000D03*
D12*
X310138Y69730D03*
D14*
X355680Y139140D03*
X362750Y339000D03*
D17*
X383680Y339000D01*
X365430Y148890D02*
X355680Y139140D01*
X427680Y295000D02*
X383680Y339000D01*
X427680Y295000D02*
X427680Y241500D01*
X391680Y205500D02*
X391680Y183500D01*
X391680Y205500D02*
X427680Y241500D01*
X391680Y183500D02*
X365430Y157250D01*
X365430Y148890D01*
D14*
X409680Y418500D03*
D12*
X260180Y390000D03*
X318680Y319230D03*
D14*
X411470Y390543D03*
X362458Y352222D03*
D17*
X373580Y341100D01*
X384550Y341100D01*
X429780Y295870D01*
X429780Y234600D02*
X397680Y202500D01*
D14*
X397680Y202500D03*
D17*
X429780Y234600D02*
X429780Y295870D01*
D14*
X366680Y356500D03*
X284950Y433000D03*
X355180Y510000D03*
X360680Y505500D03*
X367680Y498000D03*
X409845Y438882D03*
X401180Y447500D03*
D12*
X527860Y197000D03*
X535860Y197000D03*
X543860Y197000D03*
X551860Y197000D03*
X561860Y42500D03*
X561860Y48500D03*
X601860Y48500D03*
X601860Y42500D03*
X526860Y146000D03*
X581660Y102500D03*
D13*
X601160Y48500D02*
X601860Y48500D01*
X601160Y48500D02*
X594660Y55000D01*
X594660Y89500D02*
X581660Y102500D01*
X594660Y89500D02*
X594660Y55000D01*
D12*
X616360Y154500D03*
X628360Y154500D03*
X619360Y149500D03*
X625360Y149500D03*
X502360Y646000D03*
X587360Y346500D03*
X587860Y490500D03*
X667360Y433000D03*
X667360Y360500D03*
X499360Y89520D03*
X518930Y443500D03*
X568360Y421000D03*
X595360Y421000D03*
X595360Y387000D03*
X568360Y387000D03*
X622360Y154500D03*
X631360Y403500D03*
X654860Y322000D03*
X608360Y509000D03*
X663360Y528000D03*
X577360Y265500D03*
X631860Y250500D03*
X555360Y250500D03*
X612360Y203000D03*
X604360Y319000D03*
X576360Y516000D03*
X524860Y549500D03*
X541360Y652000D03*
X533360Y667000D03*
X540860Y622000D03*
X620360Y651000D03*
X581360Y632000D03*
X611360Y609500D03*
X638360Y590000D03*
X679860Y589000D03*
X682360Y651500D03*
X531860Y577500D03*
X597360Y20000D03*
X615360Y28000D03*
X633860Y28000D03*
X523360Y12500D03*
X505360Y53500D03*
X479360Y48500D03*
X645360Y12000D03*
X529860Y87500D03*
X671860Y78000D03*
X690360Y330500D03*
X690360Y305000D03*
X690360Y355500D03*
X690360Y381000D03*
X690360Y406500D03*
X667360Y427000D03*
X690360Y482500D03*
X690360Y508000D03*
X668860Y514500D03*
X690360Y533500D03*
X496360Y493000D03*
X473360Y254000D03*
X473360Y279500D03*
X567860Y206000D03*
D14*
X669360Y405000D03*
D15*
X671860Y151100D02*
X683260Y139700D01*
X671860Y335194D02*
X659070Y347984D01*
X671860Y335194D02*
X671860Y151100D01*
X659070Y399277D02*
X665083Y405290D01*
X669070Y405290D02*
X669360Y405000D01*
X669070Y405290D02*
X665083Y405290D01*
X659070Y399277D02*
X659070Y347984D01*
X669927Y405000D02*
X670650Y405723D01*
X669927Y405000D02*
X669360Y405000D01*
X670650Y405723D02*
X670650Y413710D01*
X657360Y427000D02*
X657360Y504500D01*
X657360Y427000D02*
X670650Y413710D01*
X657360Y504500D02*
X648860Y513000D01*
X629360Y513000D01*
D14*
X629360Y513000D03*
X578360Y197500D03*
D15*
X492360Y254400D02*
X480060Y266700D01*
X563860Y197500D02*
X578360Y197500D01*
X563860Y197500D02*
X556360Y190000D01*
X506360Y190000D01*
X492360Y204000D01*
X492360Y254400D01*
D14*
X630860Y458000D03*
X637860Y458000D03*
X506360Y84000D03*
X512860Y227000D03*
D15*
X509196Y491564D02*
X480060Y520700D01*
X509196Y491564D02*
X509196Y318164D01*
X510696Y316664D02*
X510696Y308164D01*
X510696Y316664D02*
X509196Y318164D01*
D14*
X510696Y308164D03*
X506360Y74000D03*
X507860Y230000D03*
D15*
X505827Y469534D02*
X480060Y495300D01*
X505827Y469534D02*
X505827Y316534D01*
X506327Y316034D01*
X506327Y312534D01*
D14*
X506327Y312534D03*
X675860Y456000D03*
X659360Y513000D03*
X545360Y405000D03*
X551170Y405500D03*
X493860Y446500D03*
X486875Y457690D03*
X494185Y456608D03*
X491860Y462000D03*
X577860Y433000D03*
D15*
X583360Y436000D02*
X621860Y474500D01*
X583360Y436000D02*
X580860Y436000D01*
X577860Y433000D01*
X621860Y474500D02*
X621860Y491000D01*
D14*
X621860Y491000D03*
X551360Y339000D03*
X545563Y341420D03*
X539360Y341420D03*
X533363Y339997D03*
X526360Y340000D03*
X666860Y377500D03*
X647894Y434534D03*
D12*
X577860Y289500D03*
X581692Y78368D03*
X576860Y312500D03*
X535360Y118000D03*
X495360Y127000D03*
X477360Y127670D03*
X499360Y157000D03*
X492860Y184500D03*
X518860Y211000D03*
X518860Y205000D03*
X574360Y148500D03*
X567360Y148500D03*
X560360Y148500D03*
X553360Y148500D03*
X643860Y140000D03*
X567692Y83368D03*
X529360Y62000D03*
X608192Y78368D03*
X646192Y61868D03*
X518860Y158500D03*
X567860Y185500D03*
X567860Y191500D03*
X537360Y405000D03*
X493360Y436000D03*
X646360Y445500D03*
X581360Y497000D03*
X649637Y328321D03*
X667360Y352500D03*
X603860Y385000D03*
X606860Y404480D03*
X564860Y430000D03*
X482860Y672000D03*
X508860Y666500D03*
X509360Y651500D03*
X509360Y637000D03*
X509360Y622000D03*
X540860Y567000D03*
X598360Y430500D03*
X619360Y604000D03*
X620360Y673000D03*
X587360Y521500D03*
X553860Y391500D03*
X515360Y504000D03*
X506360Y65000D03*
X689360Y126500D03*
X622360Y466500D03*
X514860Y535500D03*
X594860Y673000D03*
X626360Y566000D03*
X626360Y555500D03*
X626860Y542000D03*
D14*
X492860Y192000D03*
X492860Y177000D03*
X573660Y48000D03*
X584660Y48000D03*
D12*
X538460Y52826D03*
X624860Y52826D03*
X624860Y11026D03*
X538460Y11026D03*
D14*
X615360Y35500D03*
X633860Y35500D03*
X547360Y39500D03*
X529860Y39500D03*
X618360Y555000D03*
X541360Y504500D03*
X618360Y568500D03*
X618360Y542000D03*
X541860Y490500D03*
X547860Y516500D03*
X565144Y401217D03*
X639860Y496000D03*
X663360Y470000D03*
X636360Y490500D03*
X664860Y500000D03*
X659860Y607000D03*
X588860Y604000D03*
X603860Y604000D03*
D12*
X493360Y427000D03*
D14*
X524360Y595500D03*
X564360Y504500D03*
D15*
X564360Y555500D01*
X524360Y595500D01*
D14*
X659860Y637000D03*
X570360Y511000D03*
D16*
X594860Y637000D02*
X659860Y637000D01*
X594860Y637000D02*
X570360Y612500D01*
X570360Y511000D01*
D14*
X659860Y666500D03*
X647360Y463000D03*
D15*
X623799Y504100D02*
X619460Y508439D01*
X619460Y519994D01*
X657083Y644210D02*
X653070Y648223D01*
X653070Y659710D02*
X659860Y666500D01*
X653070Y659710D02*
X653070Y648223D01*
X657083Y644210D02*
X662150Y644210D01*
X650360Y495500D02*
X650360Y466000D01*
X647360Y463000D01*
X650360Y495500D02*
X641760Y504100D01*
X623799Y504100D01*
X619460Y519994D02*
X639360Y539894D01*
X639360Y577500D01*
X669360Y607500D01*
X669360Y637000D01*
X662150Y644210D01*
D14*
X659860Y622000D03*
X646896Y452697D03*
D15*
X608860Y571000D02*
X659860Y622000D01*
X608860Y571000D02*
X608860Y526500D01*
X615060Y520300D01*
X615060Y506945D01*
X629360Y492645D01*
X642650Y462777D02*
X642650Y456943D01*
X646896Y452697D01*
X642650Y462777D02*
X629360Y476067D01*
X629360Y492645D01*
D12*
X519060Y397500D03*
X520440Y414080D03*
D14*
X558860Y314000D03*
X570860Y302500D03*
X556360Y300000D03*
X549360Y300000D03*
X556360Y293000D03*
X524360Y268000D03*
X507360Y285000D03*
X541360Y252000D03*
X569360Y279000D03*
X533360Y311500D03*
X584860Y302500D03*
X596360Y313500D03*
X631860Y265500D03*
X647360Y282000D03*
X614360Y249000D03*
X585860Y279000D03*
X618860Y311000D03*
D12*
X575360Y346500D03*
X575360Y490500D03*
X515360Y333000D03*
X524860Y540500D03*
D16*
X515360Y333000D02*
X554360Y333000D01*
X559860Y338500D01*
X559860Y422000D01*
X524860Y457000D01*
X524860Y540500D01*
D12*
X556360Y233500D03*
D16*
X515966Y332394D02*
X515360Y333000D01*
X515966Y332394D02*
X515966Y305606D01*
X499860Y289500D01*
X499860Y280000D01*
X546360Y233500D01*
X556360Y233500D01*
D14*
X640860Y373000D03*
X635860Y370000D03*
X627434Y338574D03*
X665860Y400000D03*
X648360Y377500D03*
X647860Y385000D03*
X533860Y75000D03*
X670150Y389000D03*
X655860Y315000D03*
D15*
X607860Y149000D02*
X533860Y75000D01*
X607860Y149000D02*
X607860Y156000D01*
X667360Y215500D01*
X667360Y303500D01*
X655860Y315000D01*
D14*
X665860Y410000D03*
D15*
X665860Y414000D01*
X653860Y426000D01*
X626793Y507000D02*
X623360Y510433D01*
X623360Y515500D01*
X645360Y537500D01*
X645360Y570000D01*
X677860Y602500D01*
X677860Y637500D01*
X663860Y651500D01*
X659860Y651500D01*
D14*
X659860Y651500D03*
D15*
X653860Y499500D02*
X653860Y426000D01*
X653860Y499500D02*
X646360Y507000D01*
X626793Y507000D01*
D14*
X484400Y127500D03*
X612829Y398469D03*
D17*
X494400Y137500D02*
X484400Y127500D01*
X581990Y343870D02*
X581990Y355130D01*
X612829Y385969D02*
X612829Y398469D01*
X571360Y137500D02*
X494400Y137500D01*
X571360Y137500D02*
X619860Y186000D01*
X658760Y291630D02*
X616890Y333500D01*
X592360Y333500D01*
X581990Y343870D01*
X581990Y355130D02*
X612829Y385969D01*
X658760Y291630D02*
X658760Y247900D01*
X619860Y209000D02*
X619860Y186000D01*
X619860Y209000D02*
X658760Y247900D01*
D14*
X639577Y338217D03*
X633360Y389500D03*
D12*
X528364Y444525D03*
X581860Y423500D03*
D16*
X581860Y375000D01*
X567360Y360500D02*
X567360Y343000D01*
X581860Y328500D01*
X655160Y256300D02*
X600360Y201500D01*
D12*
X600360Y201500D03*
D16*
X567360Y360500D02*
X581860Y375000D01*
X581860Y328500D02*
X615299Y328500D01*
X655160Y288639D01*
X655160Y256300D01*
D14*
X497860Y227000D03*
X530860Y345710D03*
X492360Y305000D03*
X552860Y419500D03*
X496360Y467000D03*
X480360Y590000D03*
X553860Y495500D03*
D15*
X553860Y507500D01*
X559860Y513500D01*
D14*
X503860Y590000D03*
D15*
X509860Y590000D02*
X559860Y540000D01*
X509860Y590000D02*
X503860Y590000D01*
X559860Y540000D02*
X559860Y513500D01*
D14*
X548860Y490500D03*
D15*
X548860Y508500D01*
X554360Y514000D01*
X495360Y591000D02*
X489360Y591000D01*
D14*
X489360Y591000D03*
D15*
X554360Y532000D02*
X554360Y514000D01*
X554360Y532000D02*
X495360Y591000D01*
D14*
X502860Y673000D03*
X601468Y505608D03*
D15*
X592468Y514608D01*
X585968Y514608D01*
X576360Y524217D01*
X576360Y606500D01*
D14*
X576360Y606500D03*
X480360Y616500D03*
X560860Y490000D03*
X604860Y361000D03*
X610882Y367140D03*
X616360Y372500D03*
X609577Y470784D03*
X616860Y460500D03*
X559360Y499000D03*
X522860Y373000D03*
X526860Y368500D03*
X530860Y364000D03*
X534860Y359500D03*
X539360Y354500D03*
X640360Y450000D03*
X639360Y443500D03*
X518630Y377000D03*
X518860Y150500D03*
X534860Y350000D03*
X497860Y317000D03*
D12*
X543818Y69730D03*
D14*
X589360Y139140D03*
X596430Y339000D03*
D17*
X617360Y339000D01*
X599110Y148890D02*
X589360Y139140D01*
X661360Y295000D02*
X617360Y339000D01*
X661360Y295000D02*
X661360Y241500D01*
X625360Y205500D02*
X625360Y183500D01*
X625360Y205500D02*
X661360Y241500D01*
X625360Y183500D02*
X599110Y157250D01*
X599110Y148890D01*
D14*
X643360Y418500D03*
D12*
X493860Y390000D03*
X552360Y319230D03*
D14*
X645150Y390543D03*
X596138Y352222D03*
D17*
X607260Y341100D01*
X618230Y341100D01*
X663460Y295870D01*
X663460Y234600D02*
X631360Y202500D01*
D14*
X631360Y202500D03*
D17*
X663460Y234600D02*
X663460Y295870D01*
D14*
X600360Y356500D03*
X518630Y433000D03*
X588860Y510000D03*
X594360Y505500D03*
X601360Y498000D03*
X643525Y438882D03*
X634860Y447500D03*
D12*
X60500Y946300D03*
X68500Y946300D03*
X76500Y946300D03*
X84500Y946300D03*
X94500Y791800D03*
X94500Y797800D03*
X134500Y797800D03*
X134500Y791800D03*
X59500Y895300D03*
X114300Y851800D03*
D13*
X133800Y797800D02*
X134500Y797800D01*
X133800Y797800D02*
X127300Y804300D01*
X127300Y838800D02*
X114300Y851800D01*
X127300Y838800D02*
X127300Y804300D01*
D12*
X149000Y903800D03*
X161000Y903800D03*
X152000Y898800D03*
X158000Y898800D03*
X35000Y1395300D03*
X120000Y1095800D03*
X120500Y1239800D03*
X200000Y1182300D03*
X200000Y1109800D03*
X32000Y838820D03*
X51570Y1192800D03*
X101000Y1170300D03*
X128000Y1170300D03*
X128000Y1136300D03*
X101000Y1136300D03*
X155000Y903800D03*
X164000Y1152800D03*
X187500Y1071300D03*
X141000Y1258300D03*
X196000Y1277300D03*
X110000Y1014800D03*
X164500Y999800D03*
X88000Y999800D03*
X145000Y952300D03*
X137000Y1068300D03*
X109000Y1265300D03*
X57500Y1298800D03*
X74000Y1401300D03*
X66000Y1416300D03*
X73500Y1371300D03*
X153000Y1400300D03*
X114000Y1381300D03*
X144000Y1358800D03*
X171000Y1339300D03*
X212500Y1338300D03*
X215000Y1400800D03*
X64500Y1326800D03*
X130000Y769300D03*
X148000Y777300D03*
X166500Y777300D03*
X56000Y761800D03*
X38000Y802800D03*
X12000Y797800D03*
X178000Y761300D03*
X62500Y836800D03*
X204500Y827300D03*
X223000Y1079800D03*
X223000Y1054300D03*
X223000Y1104800D03*
X223000Y1130300D03*
X223000Y1155800D03*
X200000Y1176300D03*
X223000Y1231800D03*
X223000Y1257300D03*
X201500Y1263800D03*
X223000Y1282800D03*
X29000Y1242300D03*
X6000Y1003300D03*
X6000Y1028800D03*
X100500Y955300D03*
D14*
X202000Y1154300D03*
D15*
X204500Y900400D02*
X215900Y889000D01*
X204500Y1084494D02*
X191710Y1097284D01*
X204500Y1084494D02*
X204500Y900400D01*
X191710Y1148577D02*
X197723Y1154590D01*
X201710Y1154590D02*
X202000Y1154300D01*
X201710Y1154590D02*
X197723Y1154590D01*
X191710Y1148577D02*
X191710Y1097284D01*
X202567Y1154300D02*
X203290Y1155023D01*
X202567Y1154300D02*
X202000Y1154300D01*
X203290Y1155023D02*
X203290Y1163010D01*
X190000Y1176300D02*
X190000Y1253800D01*
X190000Y1176300D02*
X203290Y1163010D01*
X190000Y1253800D02*
X181500Y1262300D01*
X162000Y1262300D01*
D14*
X162000Y1262300D03*
X111000Y946800D03*
D15*
X25000Y1003700D02*
X12700Y1016000D01*
X96500Y946800D02*
X111000Y946800D01*
X96500Y946800D02*
X89000Y939300D01*
X39000Y939300D01*
X25000Y953300D01*
X25000Y1003700D01*
D14*
X163500Y1207300D03*
X170500Y1207300D03*
X39000Y833300D03*
X45500Y976300D03*
D15*
X41836Y1240864D02*
X12700Y1270000D01*
X41836Y1240864D02*
X41836Y1067464D01*
X43336Y1065964D02*
X43336Y1057464D01*
X43336Y1065964D02*
X41836Y1067464D01*
D14*
X43336Y1057464D03*
X39000Y823300D03*
X40500Y979300D03*
D15*
X38467Y1218834D02*
X12700Y1244600D01*
X38467Y1218834D02*
X38467Y1065834D01*
X38967Y1065334D01*
X38967Y1061834D01*
D14*
X38967Y1061834D03*
X208500Y1205300D03*
X192000Y1262300D03*
X78000Y1154300D03*
X83810Y1154800D03*
X26500Y1195800D03*
X19515Y1206990D03*
X26825Y1205908D03*
X24500Y1211300D03*
X110500Y1182300D03*
D15*
X116000Y1185300D02*
X154500Y1223800D01*
X116000Y1185300D02*
X113500Y1185300D01*
X110500Y1182300D01*
X154500Y1223800D02*
X154500Y1240300D01*
D14*
X154500Y1240300D03*
X84000Y1088300D03*
X78203Y1090720D03*
X72000Y1090720D03*
X66003Y1089297D03*
X59000Y1089300D03*
X199500Y1126800D03*
X180534Y1183834D03*
D12*
X110500Y1038800D03*
X114332Y827668D03*
X109500Y1061800D03*
X68000Y867300D03*
X28000Y876300D03*
X10000Y876970D03*
X32000Y906300D03*
X25500Y933800D03*
X51500Y960300D03*
X51500Y954300D03*
X107000Y897800D03*
X100000Y897800D03*
X93000Y897800D03*
X86000Y897800D03*
X176500Y889300D03*
X100332Y832668D03*
X62000Y811300D03*
X140832Y827668D03*
X178832Y811168D03*
X51500Y907800D03*
X100500Y934800D03*
X100500Y940800D03*
X70000Y1154300D03*
X26000Y1185300D03*
X179000Y1194800D03*
X114000Y1246300D03*
X182277Y1077621D03*
X200000Y1101800D03*
X136500Y1134300D03*
X139500Y1153780D03*
X97500Y1179300D03*
X15500Y1421300D03*
X41500Y1415800D03*
X42000Y1400800D03*
X42000Y1386300D03*
X42000Y1371300D03*
X73500Y1316300D03*
X131000Y1179800D03*
X152000Y1353300D03*
X153000Y1422300D03*
X120000Y1270800D03*
X86500Y1140800D03*
X48000Y1253300D03*
X39000Y814300D03*
X222000Y875800D03*
X155000Y1215800D03*
X47500Y1284800D03*
X127500Y1422300D03*
X159000Y1315300D03*
X159000Y1304800D03*
X159500Y1291300D03*
D14*
X25500Y941300D03*
X25500Y926300D03*
X106300Y797300D03*
X117300Y797300D03*
D12*
X71100Y802126D03*
X157500Y802126D03*
X157500Y760326D03*
X71100Y760326D03*
D14*
X148000Y784800D03*
X166500Y784800D03*
X80000Y788800D03*
X62500Y788800D03*
X151000Y1304300D03*
X74000Y1253800D03*
X151000Y1317800D03*
X151000Y1291300D03*
X74500Y1239800D03*
X80500Y1265800D03*
X97784Y1150517D03*
X172500Y1245300D03*
X196000Y1219300D03*
X169000Y1239800D03*
X197500Y1249300D03*
X192500Y1356300D03*
X121500Y1353300D03*
X136500Y1353300D03*
D12*
X26000Y1176300D03*
D14*
X57000Y1344800D03*
X97000Y1253800D03*
D15*
X97000Y1304800D01*
X57000Y1344800D01*
D14*
X192500Y1386300D03*
X103000Y1260300D03*
D16*
X127500Y1386300D02*
X192500Y1386300D01*
X127500Y1386300D02*
X103000Y1361800D01*
X103000Y1260300D01*
D14*
X192500Y1415800D03*
X180000Y1212300D03*
D15*
X156439Y1253400D02*
X152100Y1257739D01*
X152100Y1269294D01*
X189723Y1393510D02*
X185710Y1397523D01*
X185710Y1409010D02*
X192500Y1415800D01*
X185710Y1409010D02*
X185710Y1397523D01*
X189723Y1393510D02*
X194790Y1393510D01*
X183000Y1244800D02*
X183000Y1215300D01*
X180000Y1212300D01*
X183000Y1244800D02*
X174400Y1253400D01*
X156439Y1253400D01*
X152100Y1269294D02*
X172000Y1289194D01*
X172000Y1326800D01*
X202000Y1356800D01*
X202000Y1386300D01*
X194790Y1393510D01*
D14*
X192500Y1371300D03*
X179536Y1201997D03*
D15*
X141500Y1320300D02*
X192500Y1371300D01*
X141500Y1320300D02*
X141500Y1275800D01*
X147700Y1269600D01*
X147700Y1256245D01*
X162000Y1241945D01*
X175290Y1212077D02*
X175290Y1206243D01*
X179536Y1201997D01*
X175290Y1212077D02*
X162000Y1225367D01*
X162000Y1241945D01*
D12*
X51700Y1146800D03*
X53080Y1163380D03*
D14*
X91500Y1063300D03*
X103500Y1051800D03*
X89000Y1049300D03*
X82000Y1049300D03*
X89000Y1042300D03*
X57000Y1017300D03*
X40000Y1034300D03*
X74000Y1001300D03*
X102000Y1028300D03*
X66000Y1060800D03*
X117500Y1051800D03*
X129000Y1062800D03*
X164500Y1014800D03*
X180000Y1031300D03*
X147000Y998300D03*
X118500Y1028300D03*
X151500Y1060300D03*
D12*
X108000Y1095800D03*
X108000Y1239800D03*
X48000Y1082300D03*
X57500Y1289800D03*
D16*
X48000Y1082300D02*
X87000Y1082300D01*
X92500Y1087800D01*
X92500Y1171300D01*
X57500Y1206300D01*
X57500Y1289800D01*
D12*
X89000Y982800D03*
D16*
X48606Y1081694D02*
X48000Y1082300D01*
X48606Y1081694D02*
X48606Y1054906D01*
X32500Y1038800D01*
X32500Y1029300D01*
X79000Y982800D01*
X89000Y982800D01*
D14*
X173500Y1122300D03*
X168500Y1119300D03*
X160074Y1087874D03*
X198500Y1149300D03*
X181000Y1126800D03*
X180500Y1134300D03*
X66500Y824300D03*
X202790Y1138300D03*
X188500Y1064300D03*
D15*
X140500Y898300D02*
X66500Y824300D01*
X140500Y898300D02*
X140500Y905300D01*
X200000Y964800D01*
X200000Y1052800D01*
X188500Y1064300D01*
D14*
X198500Y1159300D03*
D15*
X198500Y1163300D01*
X186500Y1175300D01*
X159433Y1256300D02*
X156000Y1259733D01*
X156000Y1264800D01*
X178000Y1286800D01*
X178000Y1319300D01*
X210500Y1351800D01*
X210500Y1386800D01*
X196500Y1400800D01*
X192500Y1400800D01*
D14*
X192500Y1400800D03*
D15*
X186500Y1248800D02*
X186500Y1175300D01*
X186500Y1248800D02*
X179000Y1256300D01*
X159433Y1256300D01*
D14*
X17040Y876800D03*
X145469Y1147769D03*
D17*
X27040Y886800D02*
X17040Y876800D01*
X114630Y1093170D02*
X114630Y1104430D01*
X145469Y1135269D02*
X145469Y1147769D01*
X104000Y886800D02*
X27040Y886800D01*
X104000Y886800D02*
X152500Y935300D01*
X191400Y1040930D02*
X149530Y1082800D01*
X125000Y1082800D01*
X114630Y1093170D01*
X114630Y1104430D02*
X145469Y1135269D01*
X191400Y1040930D02*
X191400Y997200D01*
X152500Y958300D02*
X152500Y935300D01*
X152500Y958300D02*
X191400Y997200D01*
D14*
X172217Y1087517D03*
X166000Y1138800D03*
D12*
X61004Y1193825D03*
X114500Y1172800D03*
D16*
X114500Y1124300D01*
X100000Y1109800D02*
X100000Y1092300D01*
X114500Y1077800D01*
X187800Y1005600D02*
X133000Y950800D01*
D12*
X133000Y950800D03*
D16*
X100000Y1109800D02*
X114500Y1124300D01*
X114500Y1077800D02*
X147939Y1077800D01*
X187800Y1037939D01*
X187800Y1005600D01*
D14*
X30500Y976300D03*
X63500Y1095010D03*
X25000Y1054300D03*
X85500Y1168800D03*
X29000Y1216300D03*
X13000Y1339300D03*
X86500Y1244800D03*
D15*
X86500Y1256800D01*
X92500Y1262800D01*
D14*
X36500Y1339300D03*
D15*
X42500Y1339300D02*
X92500Y1289300D01*
X42500Y1339300D02*
X36500Y1339300D01*
X92500Y1289300D02*
X92500Y1262800D01*
D14*
X81500Y1239800D03*
D15*
X81500Y1257800D01*
X87000Y1263300D01*
X28000Y1340300D02*
X22000Y1340300D01*
D14*
X22000Y1340300D03*
D15*
X87000Y1281300D02*
X87000Y1263300D01*
X87000Y1281300D02*
X28000Y1340300D01*
D14*
X35500Y1422300D03*
X134108Y1254908D03*
D15*
X125108Y1263908D01*
X118608Y1263908D01*
X109000Y1273517D01*
X109000Y1355800D01*
D14*
X109000Y1355800D03*
X13000Y1365800D03*
X93500Y1239300D03*
X137500Y1110300D03*
X143522Y1116440D03*
X149000Y1121800D03*
X142217Y1220084D03*
X149500Y1209800D03*
X92000Y1248300D03*
X55500Y1122300D03*
X59500Y1117800D03*
X63500Y1113300D03*
X67500Y1108800D03*
X72000Y1103800D03*
X173000Y1199300D03*
X172000Y1192800D03*
X51270Y1126300D03*
X51500Y899800D03*
X67500Y1099300D03*
X30500Y1066300D03*
D12*
X76458Y819030D03*
D14*
X122000Y888440D03*
X129070Y1088300D03*
D17*
X150000Y1088300D01*
X131750Y898190D02*
X122000Y888440D01*
X194000Y1044300D02*
X150000Y1088300D01*
X194000Y1044300D02*
X194000Y990800D01*
X158000Y954800D02*
X158000Y932800D01*
X158000Y954800D02*
X194000Y990800D01*
X158000Y932800D02*
X131750Y906550D01*
X131750Y898190D01*
D14*
X176000Y1167800D03*
D12*
X26500Y1139300D03*
X85000Y1068530D03*
D14*
X177790Y1139843D03*
X128778Y1101522D03*
D17*
X139900Y1090400D01*
X150870Y1090400D01*
X196100Y1045170D01*
X196100Y983900D02*
X164000Y951800D01*
D14*
X164000Y951800D03*
D17*
X196100Y983900D02*
X196100Y1045170D01*
D14*
X133000Y1105800D03*
X51270Y1182300D03*
X121500Y1259300D03*
X127000Y1254800D03*
X134000Y1247300D03*
X176165Y1188182D03*
X167500Y1196800D03*
D12*
X294180Y946300D03*
X302180Y946300D03*
X310180Y946300D03*
X318180Y946300D03*
X328180Y791800D03*
X328180Y797800D03*
X368180Y797800D03*
X368180Y791800D03*
X293180Y895300D03*
X347980Y851800D03*
D13*
X367480Y797800D02*
X368180Y797800D01*
X367480Y797800D02*
X360980Y804300D01*
X360980Y838800D02*
X347980Y851800D01*
X360980Y838800D02*
X360980Y804300D01*
D12*
X382680Y903800D03*
X394680Y903800D03*
X385680Y898800D03*
X391680Y898800D03*
X268680Y1395300D03*
X353680Y1095800D03*
X354180Y1239800D03*
X433680Y1182300D03*
X433680Y1109800D03*
X265680Y838820D03*
X285250Y1192800D03*
X334680Y1170300D03*
X361680Y1170300D03*
X361680Y1136300D03*
X334680Y1136300D03*
X388680Y903800D03*
X397680Y1152800D03*
X421180Y1071300D03*
X374680Y1258300D03*
X429680Y1277300D03*
X343680Y1014800D03*
X398180Y999800D03*
X321680Y999800D03*
X378680Y952300D03*
X370680Y1068300D03*
X342680Y1265300D03*
X291180Y1298800D03*
X307680Y1401300D03*
X299680Y1416300D03*
X307180Y1371300D03*
X386680Y1400300D03*
X347680Y1381300D03*
X377680Y1358800D03*
X404680Y1339300D03*
X446180Y1338300D03*
X448680Y1400800D03*
X298180Y1326800D03*
X363680Y769300D03*
X381680Y777300D03*
X400180Y777300D03*
X289680Y761800D03*
X271680Y802800D03*
X245680Y797800D03*
X411680Y761300D03*
X296180Y836800D03*
X438180Y827300D03*
X456680Y1079800D03*
X456680Y1054300D03*
X456680Y1104800D03*
X456680Y1130300D03*
X456680Y1155800D03*
X433680Y1176300D03*
X456680Y1231800D03*
X456680Y1257300D03*
X435180Y1263800D03*
X456680Y1282800D03*
X262680Y1242300D03*
X239680Y1003300D03*
X239680Y1028800D03*
X334180Y955300D03*
D14*
X435680Y1154300D03*
D15*
X438180Y900400D02*
X449580Y889000D01*
X438180Y1084494D02*
X425390Y1097284D01*
X438180Y1084494D02*
X438180Y900400D01*
X425390Y1148577D02*
X431403Y1154590D01*
X435390Y1154590D02*
X435680Y1154300D01*
X435390Y1154590D02*
X431403Y1154590D01*
X425390Y1148577D02*
X425390Y1097284D01*
X436247Y1154300D02*
X436970Y1155023D01*
X436247Y1154300D02*
X435680Y1154300D01*
X436970Y1155023D02*
X436970Y1163010D01*
X423680Y1176300D02*
X423680Y1253800D01*
X423680Y1176300D02*
X436970Y1163010D01*
X423680Y1253800D02*
X415180Y1262300D01*
X395680Y1262300D01*
D14*
X395680Y1262300D03*
X344680Y946800D03*
D15*
X258680Y1003700D02*
X246380Y1016000D01*
X330180Y946800D02*
X344680Y946800D01*
X330180Y946800D02*
X322680Y939300D01*
X272680Y939300D01*
X258680Y953300D01*
X258680Y1003700D01*
D14*
X397180Y1207300D03*
X404180Y1207300D03*
X272680Y833300D03*
X279180Y976300D03*
D15*
X275516Y1240864D02*
X246380Y1270000D01*
X275516Y1240864D02*
X275516Y1067464D01*
X277016Y1065964D02*
X277016Y1057464D01*
X277016Y1065964D02*
X275516Y1067464D01*
D14*
X277016Y1057464D03*
X272680Y823300D03*
X274180Y979300D03*
D15*
X272147Y1218834D02*
X246380Y1244600D01*
X272147Y1218834D02*
X272147Y1065834D01*
X272647Y1065334D01*
X272647Y1061834D01*
D14*
X272647Y1061834D03*
X442180Y1205300D03*
X425680Y1262300D03*
X311680Y1154300D03*
X317490Y1154800D03*
X260180Y1195800D03*
X253195Y1206990D03*
X260505Y1205908D03*
X258180Y1211300D03*
X344180Y1182300D03*
D15*
X349680Y1185300D02*
X388180Y1223800D01*
X349680Y1185300D02*
X347180Y1185300D01*
X344180Y1182300D01*
X388180Y1223800D02*
X388180Y1240300D01*
D14*
X388180Y1240300D03*
X317680Y1088300D03*
X311883Y1090720D03*
X305680Y1090720D03*
X299683Y1089297D03*
X292680Y1089300D03*
X433180Y1126800D03*
X414214Y1183834D03*
D12*
X344180Y1038800D03*
X348012Y827668D03*
X343180Y1061800D03*
X301680Y867300D03*
X261680Y876300D03*
X243680Y876970D03*
X265680Y906300D03*
X259180Y933800D03*
X285180Y960300D03*
X285180Y954300D03*
X340680Y897800D03*
X333680Y897800D03*
X326680Y897800D03*
X319680Y897800D03*
X410180Y889300D03*
X334012Y832668D03*
X295680Y811300D03*
X374512Y827668D03*
X412512Y811168D03*
X285180Y907800D03*
X334180Y934800D03*
X334180Y940800D03*
X303680Y1154300D03*
X259680Y1185300D03*
X412680Y1194800D03*
X347680Y1246300D03*
X415957Y1077621D03*
X433680Y1101800D03*
X370180Y1134300D03*
X373180Y1153780D03*
X331180Y1179300D03*
X249180Y1421300D03*
X275180Y1415800D03*
X275680Y1400800D03*
X275680Y1386300D03*
X275680Y1371300D03*
X307180Y1316300D03*
X364680Y1179800D03*
X385680Y1353300D03*
X386680Y1422300D03*
X353680Y1270800D03*
X320180Y1140800D03*
X281680Y1253300D03*
X272680Y814300D03*
X455680Y875800D03*
X388680Y1215800D03*
X281180Y1284800D03*
X361180Y1422300D03*
X392680Y1315300D03*
X392680Y1304800D03*
X393180Y1291300D03*
D14*
X259180Y941300D03*
X259180Y926300D03*
X339980Y797300D03*
X350980Y797300D03*
D12*
X304780Y802126D03*
X391180Y802126D03*
X391180Y760326D03*
X304780Y760326D03*
D14*
X381680Y784800D03*
X400180Y784800D03*
X313680Y788800D03*
X296180Y788800D03*
X384680Y1304300D03*
X307680Y1253800D03*
X384680Y1317800D03*
X384680Y1291300D03*
X308180Y1239800D03*
X314180Y1265800D03*
X331464Y1150517D03*
X406180Y1245300D03*
X429680Y1219300D03*
X402680Y1239800D03*
X431180Y1249300D03*
X426180Y1356300D03*
X355180Y1353300D03*
X370180Y1353300D03*
D12*
X259680Y1176300D03*
D14*
X290680Y1344800D03*
X330680Y1253800D03*
D15*
X330680Y1304800D01*
X290680Y1344800D01*
D14*
X426180Y1386300D03*
X336680Y1260300D03*
D16*
X361180Y1386300D02*
X426180Y1386300D01*
X361180Y1386300D02*
X336680Y1361800D01*
X336680Y1260300D01*
D14*
X426180Y1415800D03*
X413680Y1212300D03*
D15*
X390119Y1253400D02*
X385780Y1257739D01*
X385780Y1269294D01*
X423403Y1393510D02*
X419390Y1397523D01*
X419390Y1409010D02*
X426180Y1415800D01*
X419390Y1409010D02*
X419390Y1397523D01*
X423403Y1393510D02*
X428470Y1393510D01*
X416680Y1244800D02*
X416680Y1215300D01*
X413680Y1212300D01*
X416680Y1244800D02*
X408080Y1253400D01*
X390119Y1253400D01*
X385780Y1269294D02*
X405680Y1289194D01*
X405680Y1326800D01*
X435680Y1356800D01*
X435680Y1386300D01*
X428470Y1393510D01*
D14*
X426180Y1371300D03*
X413216Y1201997D03*
D15*
X375180Y1320300D02*
X426180Y1371300D01*
X375180Y1320300D02*
X375180Y1275800D01*
X381380Y1269600D01*
X381380Y1256245D01*
X395680Y1241945D01*
X408970Y1212077D02*
X408970Y1206243D01*
X413216Y1201997D01*
X408970Y1212077D02*
X395680Y1225367D01*
X395680Y1241945D01*
D12*
X285380Y1146800D03*
X286760Y1163380D03*
D14*
X325180Y1063300D03*
X337180Y1051800D03*
X322680Y1049300D03*
X315680Y1049300D03*
X322680Y1042300D03*
X290680Y1017300D03*
X273680Y1034300D03*
X307680Y1001300D03*
X335680Y1028300D03*
X299680Y1060800D03*
X351180Y1051800D03*
X362680Y1062800D03*
X398180Y1014800D03*
X413680Y1031300D03*
X380680Y998300D03*
X352180Y1028300D03*
X385180Y1060300D03*
D12*
X341680Y1095800D03*
X341680Y1239800D03*
X281680Y1082300D03*
X291180Y1289800D03*
D16*
X281680Y1082300D02*
X320680Y1082300D01*
X326180Y1087800D01*
X326180Y1171300D01*
X291180Y1206300D01*
X291180Y1289800D01*
D12*
X322680Y982800D03*
D16*
X282286Y1081694D02*
X281680Y1082300D01*
X282286Y1081694D02*
X282286Y1054906D01*
X266180Y1038800D01*
X266180Y1029300D01*
X312680Y982800D01*
X322680Y982800D01*
D14*
X407180Y1122300D03*
X402180Y1119300D03*
X393754Y1087874D03*
X432180Y1149300D03*
X414680Y1126800D03*
X414180Y1134300D03*
X300180Y824300D03*
X436470Y1138300D03*
X422180Y1064300D03*
D15*
X374180Y898300D02*
X300180Y824300D01*
X374180Y898300D02*
X374180Y905300D01*
X433680Y964800D01*
X433680Y1052800D01*
X422180Y1064300D01*
D14*
X432180Y1159300D03*
D15*
X432180Y1163300D01*
X420180Y1175300D01*
X393113Y1256300D02*
X389680Y1259733D01*
X389680Y1264800D01*
X411680Y1286800D01*
X411680Y1319300D01*
X444180Y1351800D01*
X444180Y1386800D01*
X430180Y1400800D01*
X426180Y1400800D01*
D14*
X426180Y1400800D03*
D15*
X420180Y1248800D02*
X420180Y1175300D01*
X420180Y1248800D02*
X412680Y1256300D01*
X393113Y1256300D01*
D14*
X250720Y876800D03*
X379149Y1147769D03*
D17*
X260720Y886800D02*
X250720Y876800D01*
X348310Y1093170D02*
X348310Y1104430D01*
X379149Y1135269D02*
X379149Y1147769D01*
X337680Y886800D02*
X260720Y886800D01*
X337680Y886800D02*
X386180Y935300D01*
X425080Y1040930D02*
X383210Y1082800D01*
X358680Y1082800D01*
X348310Y1093170D01*
X348310Y1104430D02*
X379149Y1135269D01*
X425080Y1040930D02*
X425080Y997200D01*
X386180Y958300D02*
X386180Y935300D01*
X386180Y958300D02*
X425080Y997200D01*
D14*
X405897Y1087517D03*
X399680Y1138800D03*
D12*
X294684Y1193825D03*
X348180Y1172800D03*
D16*
X348180Y1124300D01*
X333680Y1109800D02*
X333680Y1092300D01*
X348180Y1077800D01*
X421480Y1005600D02*
X366680Y950800D01*
D12*
X366680Y950800D03*
D16*
X333680Y1109800D02*
X348180Y1124300D01*
X348180Y1077800D02*
X381619Y1077800D01*
X421480Y1037939D01*
X421480Y1005600D01*
D14*
X264180Y976300D03*
X297180Y1095010D03*
X258680Y1054300D03*
X319180Y1168800D03*
X262680Y1216300D03*
X246680Y1339300D03*
X320180Y1244800D03*
D15*
X320180Y1256800D01*
X326180Y1262800D01*
D14*
X270180Y1339300D03*
D15*
X276180Y1339300D02*
X326180Y1289300D01*
X276180Y1339300D02*
X270180Y1339300D01*
X326180Y1289300D02*
X326180Y1262800D01*
D14*
X315180Y1239800D03*
D15*
X315180Y1257800D01*
X320680Y1263300D01*
X261680Y1340300D02*
X255680Y1340300D01*
D14*
X255680Y1340300D03*
D15*
X320680Y1281300D02*
X320680Y1263300D01*
X320680Y1281300D02*
X261680Y1340300D01*
D14*
X269180Y1422300D03*
X367788Y1254908D03*
D15*
X358788Y1263908D01*
X352288Y1263908D01*
X342680Y1273517D01*
X342680Y1355800D01*
D14*
X342680Y1355800D03*
X246680Y1365800D03*
X327180Y1239300D03*
X371180Y1110300D03*
X377202Y1116440D03*
X382680Y1121800D03*
X375897Y1220084D03*
X383180Y1209800D03*
X325680Y1248300D03*
X289180Y1122300D03*
X293180Y1117800D03*
X297180Y1113300D03*
X301180Y1108800D03*
X305680Y1103800D03*
X406680Y1199300D03*
X405680Y1192800D03*
X284950Y1126300D03*
X285180Y899800D03*
X301180Y1099300D03*
X264180Y1066300D03*
D12*
X310138Y819030D03*
D14*
X355680Y888440D03*
X362750Y1088300D03*
D17*
X383680Y1088300D01*
X365430Y898190D02*
X355680Y888440D01*
X427680Y1044300D02*
X383680Y1088300D01*
X427680Y1044300D02*
X427680Y990800D01*
X391680Y954800D02*
X391680Y932800D01*
X391680Y954800D02*
X427680Y990800D01*
X391680Y932800D02*
X365430Y906550D01*
X365430Y898190D01*
D14*
X409680Y1167800D03*
D12*
X260180Y1139300D03*
X318680Y1068530D03*
D14*
X411470Y1139843D03*
X362458Y1101522D03*
D17*
X373580Y1090400D01*
X384550Y1090400D01*
X429780Y1045170D01*
X429780Y983900D02*
X397680Y951800D01*
D14*
X397680Y951800D03*
D17*
X429780Y983900D02*
X429780Y1045170D01*
D14*
X366680Y1105800D03*
X284950Y1182300D03*
X355180Y1259300D03*
X360680Y1254800D03*
X367680Y1247300D03*
X409845Y1188182D03*
X401180Y1196800D03*
D12*
X527860Y946300D03*
X535860Y946300D03*
X543860Y946300D03*
X551860Y946300D03*
X561860Y791800D03*
X561860Y797800D03*
X601860Y797800D03*
X601860Y791800D03*
X526860Y895300D03*
X581660Y851800D03*
D13*
X601160Y797800D02*
X601860Y797800D01*
X601160Y797800D02*
X594660Y804300D01*
X594660Y838800D02*
X581660Y851800D01*
X594660Y838800D02*
X594660Y804300D01*
D12*
X616360Y903800D03*
X628360Y903800D03*
X619360Y898800D03*
X625360Y898800D03*
X502360Y1395300D03*
X587360Y1095800D03*
X587860Y1239800D03*
X667360Y1182300D03*
X667360Y1109800D03*
X499360Y838820D03*
X518930Y1192800D03*
X568360Y1170300D03*
X595360Y1170300D03*
X595360Y1136300D03*
X568360Y1136300D03*
X622360Y903800D03*
X631360Y1152800D03*
X654860Y1071300D03*
X608360Y1258300D03*
X663360Y1277300D03*
X577360Y1014800D03*
X631860Y999800D03*
X555360Y999800D03*
X612360Y952300D03*
X604360Y1068300D03*
X576360Y1265300D03*
X524860Y1298800D03*
X541360Y1401300D03*
X533360Y1416300D03*
X540860Y1371300D03*
X620360Y1400300D03*
X581360Y1381300D03*
X611360Y1358800D03*
X638360Y1339300D03*
X679860Y1338300D03*
X682360Y1400800D03*
X531860Y1326800D03*
X597360Y769300D03*
X615360Y777300D03*
X633860Y777300D03*
X523360Y761800D03*
X505360Y802800D03*
X479360Y797800D03*
X645360Y761300D03*
X529860Y836800D03*
X671860Y827300D03*
X690360Y1079800D03*
X690360Y1054300D03*
X690360Y1104800D03*
X690360Y1130300D03*
X690360Y1155800D03*
X667360Y1176300D03*
X690360Y1231800D03*
X690360Y1257300D03*
X668860Y1263800D03*
X690360Y1282800D03*
X496360Y1242300D03*
X473360Y1003300D03*
X473360Y1028800D03*
X567860Y955300D03*
D14*
X669360Y1154300D03*
D15*
X671860Y900400D02*
X683260Y889000D01*
X671860Y1084494D02*
X659070Y1097284D01*
X671860Y1084494D02*
X671860Y900400D01*
X659070Y1148577D02*
X665083Y1154590D01*
X669070Y1154590D02*
X669360Y1154300D01*
X669070Y1154590D02*
X665083Y1154590D01*
X659070Y1148577D02*
X659070Y1097284D01*
X669927Y1154300D02*
X670650Y1155023D01*
X669927Y1154300D02*
X669360Y1154300D01*
X670650Y1155023D02*
X670650Y1163010D01*
X657360Y1176300D02*
X657360Y1253800D01*
X657360Y1176300D02*
X670650Y1163010D01*
X657360Y1253800D02*
X648860Y1262300D01*
X629360Y1262300D01*
D14*
X629360Y1262300D03*
X578360Y946800D03*
D15*
X492360Y1003700D02*
X480060Y1016000D01*
X563860Y946800D02*
X578360Y946800D01*
X563860Y946800D02*
X556360Y939300D01*
X506360Y939300D01*
X492360Y953300D01*
X492360Y1003700D01*
D14*
X630860Y1207300D03*
X637860Y1207300D03*
X506360Y833300D03*
X512860Y976300D03*
D15*
X509196Y1240864D02*
X480060Y1270000D01*
X509196Y1240864D02*
X509196Y1067464D01*
X510696Y1065964D02*
X510696Y1057464D01*
X510696Y1065964D02*
X509196Y1067464D01*
D14*
X510696Y1057464D03*
X506360Y823300D03*
X507860Y979300D03*
D15*
X505827Y1218834D02*
X480060Y1244600D01*
X505827Y1218834D02*
X505827Y1065834D01*
X506327Y1065334D01*
X506327Y1061834D01*
D14*
X506327Y1061834D03*
X675860Y1205300D03*
X659360Y1262300D03*
X545360Y1154300D03*
X551170Y1154800D03*
X493860Y1195800D03*
X486875Y1206990D03*
X494185Y1205908D03*
X491860Y1211300D03*
X577860Y1182300D03*
D15*
X583360Y1185300D02*
X621860Y1223800D01*
X583360Y1185300D02*
X580860Y1185300D01*
X577860Y1182300D01*
X621860Y1223800D02*
X621860Y1240300D01*
D14*
X621860Y1240300D03*
X551360Y1088300D03*
X545563Y1090720D03*
X539360Y1090720D03*
X533363Y1089297D03*
X526360Y1089300D03*
X666860Y1126800D03*
X647894Y1183834D03*
D12*
X577860Y1038800D03*
X581692Y827668D03*
X576860Y1061800D03*
X535360Y867300D03*
X495360Y876300D03*
X477360Y876970D03*
X499360Y906300D03*
X492860Y933800D03*
X518860Y960300D03*
X518860Y954300D03*
X574360Y897800D03*
X567360Y897800D03*
X560360Y897800D03*
X553360Y897800D03*
X643860Y889300D03*
X567692Y832668D03*
X529360Y811300D03*
X608192Y827668D03*
X646192Y811168D03*
X518860Y907800D03*
X567860Y934800D03*
X567860Y940800D03*
X537360Y1154300D03*
X493360Y1185300D03*
X646360Y1194800D03*
X581360Y1246300D03*
X649637Y1077621D03*
X667360Y1101800D03*
X603860Y1134300D03*
X606860Y1153780D03*
X564860Y1179300D03*
X482860Y1421300D03*
X508860Y1415800D03*
X509360Y1400800D03*
X509360Y1386300D03*
X509360Y1371300D03*
X540860Y1316300D03*
X598360Y1179800D03*
X619360Y1353300D03*
X620360Y1422300D03*
X587360Y1270800D03*
X553860Y1140800D03*
X515360Y1253300D03*
X506360Y814300D03*
X689360Y875800D03*
X622360Y1215800D03*
X514860Y1284800D03*
X594860Y1422300D03*
X626360Y1315300D03*
X626360Y1304800D03*
X626860Y1291300D03*
D14*
X492860Y941300D03*
X492860Y926300D03*
X573660Y797300D03*
X584660Y797300D03*
D12*
X538460Y802126D03*
X624860Y802126D03*
X624860Y760326D03*
X538460Y760326D03*
D14*
X615360Y784800D03*
X633860Y784800D03*
X547360Y788800D03*
X529860Y788800D03*
X618360Y1304300D03*
X541360Y1253800D03*
X618360Y1317800D03*
X618360Y1291300D03*
X541860Y1239800D03*
X547860Y1265800D03*
X565144Y1150517D03*
X639860Y1245300D03*
X663360Y1219300D03*
X636360Y1239800D03*
X664860Y1249300D03*
X659860Y1356300D03*
X588860Y1353300D03*
X603860Y1353300D03*
D12*
X493360Y1176300D03*
D14*
X524360Y1344800D03*
X564360Y1253800D03*
D15*
X564360Y1304800D01*
X524360Y1344800D01*
D14*
X659860Y1386300D03*
X570360Y1260300D03*
D16*
X594860Y1386300D02*
X659860Y1386300D01*
X594860Y1386300D02*
X570360Y1361800D01*
X570360Y1260300D01*
D14*
X659860Y1415800D03*
X647360Y1212300D03*
D15*
X623799Y1253400D02*
X619460Y1257739D01*
X619460Y1269294D01*
X657083Y1393510D02*
X653070Y1397523D01*
X653070Y1409010D02*
X659860Y1415800D01*
X653070Y1409010D02*
X653070Y1397523D01*
X657083Y1393510D02*
X662150Y1393510D01*
X650360Y1244800D02*
X650360Y1215300D01*
X647360Y1212300D01*
X650360Y1244800D02*
X641760Y1253400D01*
X623799Y1253400D01*
X619460Y1269294D02*
X639360Y1289194D01*
X639360Y1326800D01*
X669360Y1356800D01*
X669360Y1386300D01*
X662150Y1393510D01*
D14*
X659860Y1371300D03*
X646896Y1201997D03*
D15*
X608860Y1320300D02*
X659860Y1371300D01*
X608860Y1320300D02*
X608860Y1275800D01*
X615060Y1269600D01*
X615060Y1256245D01*
X629360Y1241945D01*
X642650Y1212077D02*
X642650Y1206243D01*
X646896Y1201997D01*
X642650Y1212077D02*
X629360Y1225367D01*
X629360Y1241945D01*
D12*
X519060Y1146800D03*
X520440Y1163380D03*
D14*
X558860Y1063300D03*
X570860Y1051800D03*
X556360Y1049300D03*
X549360Y1049300D03*
X556360Y1042300D03*
X524360Y1017300D03*
X507360Y1034300D03*
X541360Y1001300D03*
X569360Y1028300D03*
X533360Y1060800D03*
X584860Y1051800D03*
X596360Y1062800D03*
X631860Y1014800D03*
X647360Y1031300D03*
X614360Y998300D03*
X585860Y1028300D03*
X618860Y1060300D03*
D12*
X575360Y1095800D03*
X575360Y1239800D03*
X515360Y1082300D03*
X524860Y1289800D03*
D16*
X515360Y1082300D02*
X554360Y1082300D01*
X559860Y1087800D01*
X559860Y1171300D01*
X524860Y1206300D01*
X524860Y1289800D01*
D12*
X556360Y982800D03*
D16*
X515966Y1081694D02*
X515360Y1082300D01*
X515966Y1081694D02*
X515966Y1054906D01*
X499860Y1038800D01*
X499860Y1029300D01*
X546360Y982800D01*
X556360Y982800D01*
D14*
X640860Y1122300D03*
X635860Y1119300D03*
X627434Y1087874D03*
X665860Y1149300D03*
X648360Y1126800D03*
X647860Y1134300D03*
X533860Y824300D03*
X670150Y1138300D03*
X655860Y1064300D03*
D15*
X607860Y898300D02*
X533860Y824300D01*
X607860Y898300D02*
X607860Y905300D01*
X667360Y964800D01*
X667360Y1052800D01*
X655860Y1064300D01*
D14*
X665860Y1159300D03*
D15*
X665860Y1163300D01*
X653860Y1175300D01*
X626793Y1256300D02*
X623360Y1259733D01*
X623360Y1264800D01*
X645360Y1286800D01*
X645360Y1319300D01*
X677860Y1351800D01*
X677860Y1386800D01*
X663860Y1400800D01*
X659860Y1400800D01*
D14*
X659860Y1400800D03*
D15*
X653860Y1248800D02*
X653860Y1175300D01*
X653860Y1248800D02*
X646360Y1256300D01*
X626793Y1256300D01*
D14*
X484400Y876800D03*
X612829Y1147769D03*
D17*
X494400Y886800D02*
X484400Y876800D01*
X581990Y1093170D02*
X581990Y1104430D01*
X612829Y1135269D02*
X612829Y1147769D01*
X571360Y886800D02*
X494400Y886800D01*
X571360Y886800D02*
X619860Y935300D01*
X658760Y1040930D02*
X616890Y1082800D01*
X592360Y1082800D01*
X581990Y1093170D01*
X581990Y1104430D02*
X612829Y1135269D01*
X658760Y1040930D02*
X658760Y997200D01*
X619860Y958300D02*
X619860Y935300D01*
X619860Y958300D02*
X658760Y997200D01*
D14*
X639577Y1087517D03*
X633360Y1138800D03*
D12*
X528364Y1193825D03*
X581860Y1172800D03*
D16*
X581860Y1124300D01*
X567360Y1109800D02*
X567360Y1092300D01*
X581860Y1077800D01*
X655160Y1005600D02*
X600360Y950800D01*
D12*
X600360Y950800D03*
D16*
X567360Y1109800D02*
X581860Y1124300D01*
X581860Y1077800D02*
X615299Y1077800D01*
X655160Y1037939D01*
X655160Y1005600D01*
D14*
X497860Y976300D03*
X530860Y1095010D03*
X492360Y1054300D03*
X552860Y1168800D03*
X496360Y1216300D03*
X480360Y1339300D03*
X553860Y1244800D03*
D15*
X553860Y1256800D01*
X559860Y1262800D01*
D14*
X503860Y1339300D03*
D15*
X509860Y1339300D02*
X559860Y1289300D01*
X509860Y1339300D02*
X503860Y1339300D01*
X559860Y1289300D02*
X559860Y1262800D01*
D14*
X548860Y1239800D03*
D15*
X548860Y1257800D01*
X554360Y1263300D01*
X495360Y1340300D02*
X489360Y1340300D01*
D14*
X489360Y1340300D03*
D15*
X554360Y1281300D02*
X554360Y1263300D01*
X554360Y1281300D02*
X495360Y1340300D01*
D14*
X502860Y1422300D03*
X601468Y1254908D03*
D15*
X592468Y1263908D01*
X585968Y1263908D01*
X576360Y1273517D01*
X576360Y1355800D01*
D14*
X576360Y1355800D03*
X480360Y1365800D03*
X560860Y1239300D03*
X604860Y1110300D03*
X610882Y1116440D03*
X616360Y1121800D03*
X609577Y1220084D03*
X616860Y1209800D03*
X559360Y1248300D03*
X522860Y1122300D03*
X526860Y1117800D03*
X530860Y1113300D03*
X534860Y1108800D03*
X539360Y1103800D03*
X640360Y1199300D03*
X639360Y1192800D03*
X518630Y1126300D03*
X518860Y899800D03*
X534860Y1099300D03*
X497860Y1066300D03*
D12*
X543818Y819030D03*
D14*
X589360Y888440D03*
X596430Y1088300D03*
D17*
X617360Y1088300D01*
X599110Y898190D02*
X589360Y888440D01*
X661360Y1044300D02*
X617360Y1088300D01*
X661360Y1044300D02*
X661360Y990800D01*
X625360Y954800D02*
X625360Y932800D01*
X625360Y954800D02*
X661360Y990800D01*
X625360Y932800D02*
X599110Y906550D01*
X599110Y898190D01*
D14*
X643360Y1167800D03*
D12*
X493860Y1139300D03*
X552360Y1068530D03*
D14*
X645150Y1139843D03*
X596138Y1101522D03*
D17*
X607260Y1090400D01*
X618230Y1090400D01*
X663460Y1045170D01*
X663460Y983900D02*
X631360Y951800D01*
D14*
X631360Y951800D03*
D17*
X663460Y983900D02*
X663460Y1045170D01*
D14*
X600360Y1105800D03*
X518630Y1182300D03*
X588860Y1259300D03*
X594360Y1254800D03*
X601360Y1247300D03*
X643525Y1188182D03*
X634860Y1196800D03*
M02*
