G04 EAGLE Gerber RS-274X export*
G75*
%MOMM*%
%FSLAX34Y34*%
%LPD*%
%IN*%
%IPPOS*%
%AMOC8*
5,1,8,0,0,1.08239X$1,22.5*%
G01*
%ADD10C,0.203200*%
%ADD11C,0.000000*%
%ADD12C,0.010000*%
%ADD13C,0.254000*%


D10*
X25400Y685800D02*
X24786Y685793D01*
X24173Y685770D01*
X23560Y685733D01*
X22949Y685681D01*
X22338Y685615D01*
X21730Y685533D01*
X21124Y685437D01*
X20520Y685327D01*
X19919Y685202D01*
X19321Y685062D01*
X18727Y684908D01*
X18137Y684739D01*
X17551Y684557D01*
X16970Y684360D01*
X16393Y684149D01*
X15822Y683925D01*
X15256Y683687D01*
X14696Y683435D01*
X14143Y683169D01*
X13596Y682891D01*
X13056Y682599D01*
X12523Y682294D01*
X11998Y681976D01*
X11480Y681646D01*
X10971Y681304D01*
X10470Y680949D01*
X9978Y680582D01*
X9495Y680204D01*
X9021Y679814D01*
X8557Y679412D01*
X8102Y679000D01*
X7658Y678576D01*
X7224Y678142D01*
X6800Y677698D01*
X6388Y677243D01*
X5986Y676779D01*
X5596Y676305D01*
X5218Y675822D01*
X4851Y675330D01*
X4496Y674829D01*
X4154Y674320D01*
X3824Y673802D01*
X3506Y673277D01*
X3201Y672744D01*
X2909Y672204D01*
X2631Y671657D01*
X2365Y671104D01*
X2113Y670544D01*
X1875Y669978D01*
X1651Y669407D01*
X1440Y668830D01*
X1243Y668249D01*
X1061Y667663D01*
X892Y667073D01*
X738Y666479D01*
X598Y665881D01*
X473Y665280D01*
X363Y664676D01*
X267Y664070D01*
X185Y663462D01*
X119Y662851D01*
X67Y662240D01*
X30Y661627D01*
X7Y661014D01*
X0Y660400D01*
X25400Y685800D02*
X203200Y685800D01*
X203814Y685793D01*
X204427Y685770D01*
X205040Y685733D01*
X205651Y685681D01*
X206262Y685615D01*
X206870Y685533D01*
X207476Y685437D01*
X208080Y685327D01*
X208681Y685202D01*
X209279Y685062D01*
X209873Y684908D01*
X210463Y684739D01*
X211049Y684557D01*
X211630Y684360D01*
X212207Y684149D01*
X212778Y683925D01*
X213344Y683687D01*
X213904Y683435D01*
X214457Y683169D01*
X215004Y682891D01*
X215544Y682599D01*
X216077Y682294D01*
X216602Y681976D01*
X217120Y681646D01*
X217629Y681304D01*
X218130Y680949D01*
X218622Y680582D01*
X219105Y680204D01*
X219579Y679814D01*
X220043Y679412D01*
X220498Y679000D01*
X220942Y678576D01*
X221376Y678142D01*
X221800Y677698D01*
X222212Y677243D01*
X222614Y676779D01*
X223004Y676305D01*
X223382Y675822D01*
X223749Y675330D01*
X224104Y674829D01*
X224446Y674320D01*
X224776Y673802D01*
X225094Y673277D01*
X225399Y672744D01*
X225691Y672204D01*
X225969Y671657D01*
X226235Y671104D01*
X226487Y670544D01*
X226725Y669978D01*
X226949Y669407D01*
X227160Y668830D01*
X227357Y668249D01*
X227539Y667663D01*
X227708Y667073D01*
X227862Y666479D01*
X228002Y665881D01*
X228127Y665280D01*
X228237Y664676D01*
X228333Y664070D01*
X228415Y663462D01*
X228481Y662851D01*
X228533Y662240D01*
X228570Y661627D01*
X228593Y661014D01*
X228600Y660400D01*
X228600Y25400D01*
X228593Y24786D01*
X228570Y24173D01*
X228533Y23560D01*
X228481Y22949D01*
X228415Y22338D01*
X228333Y21730D01*
X228237Y21124D01*
X228127Y20520D01*
X228002Y19919D01*
X227862Y19321D01*
X227708Y18727D01*
X227539Y18137D01*
X227357Y17551D01*
X227160Y16970D01*
X226949Y16393D01*
X226725Y15822D01*
X226487Y15256D01*
X226235Y14696D01*
X225969Y14143D01*
X225691Y13596D01*
X225399Y13056D01*
X225094Y12523D01*
X224776Y11998D01*
X224446Y11480D01*
X224104Y10971D01*
X223749Y10470D01*
X223382Y9978D01*
X223004Y9495D01*
X222614Y9021D01*
X222212Y8557D01*
X221800Y8102D01*
X221376Y7658D01*
X220942Y7224D01*
X220498Y6800D01*
X220043Y6388D01*
X219579Y5986D01*
X219105Y5596D01*
X218622Y5218D01*
X218130Y4851D01*
X217629Y4496D01*
X217120Y4154D01*
X216602Y3824D01*
X216077Y3506D01*
X215544Y3201D01*
X215004Y2909D01*
X214457Y2631D01*
X213904Y2365D01*
X213344Y2113D01*
X212778Y1875D01*
X212207Y1651D01*
X211630Y1440D01*
X211049Y1243D01*
X210463Y1061D01*
X209873Y892D01*
X209279Y738D01*
X208681Y598D01*
X208080Y473D01*
X207476Y363D01*
X206870Y267D01*
X206262Y185D01*
X205651Y119D01*
X205040Y67D01*
X204427Y30D01*
X203814Y7D01*
X203200Y0D01*
X25400Y0D01*
X24786Y7D01*
X24173Y30D01*
X23560Y67D01*
X22949Y119D01*
X22338Y185D01*
X21730Y267D01*
X21124Y363D01*
X20520Y473D01*
X19919Y598D01*
X19321Y738D01*
X18727Y892D01*
X18137Y1061D01*
X17551Y1243D01*
X16970Y1440D01*
X16393Y1651D01*
X15822Y1875D01*
X15256Y2113D01*
X14696Y2365D01*
X14143Y2631D01*
X13596Y2909D01*
X13056Y3201D01*
X12523Y3506D01*
X11998Y3824D01*
X11480Y4154D01*
X10971Y4496D01*
X10470Y4851D01*
X9978Y5218D01*
X9495Y5596D01*
X9021Y5986D01*
X8557Y6388D01*
X8102Y6800D01*
X7658Y7224D01*
X7224Y7658D01*
X6800Y8102D01*
X6388Y8557D01*
X5986Y9021D01*
X5596Y9495D01*
X5218Y9978D01*
X4851Y10470D01*
X4496Y10971D01*
X4154Y11480D01*
X3824Y11998D01*
X3506Y12523D01*
X3201Y13056D01*
X2909Y13596D01*
X2631Y14143D01*
X2365Y14696D01*
X2113Y15256D01*
X1875Y15822D01*
X1651Y16393D01*
X1440Y16970D01*
X1243Y17551D01*
X1061Y18137D01*
X892Y18727D01*
X738Y19321D01*
X598Y19919D01*
X473Y20520D01*
X363Y21124D01*
X267Y21730D01*
X185Y22338D01*
X119Y22949D01*
X67Y23560D01*
X30Y24173D01*
X7Y24786D01*
X0Y25400D01*
X0Y660400D01*
D11*
X82150Y47526D02*
X82152Y47639D01*
X82158Y47753D01*
X82168Y47866D01*
X82182Y47978D01*
X82199Y48090D01*
X82221Y48202D01*
X82247Y48312D01*
X82276Y48422D01*
X82309Y48530D01*
X82346Y48638D01*
X82387Y48743D01*
X82431Y48848D01*
X82479Y48951D01*
X82530Y49052D01*
X82585Y49151D01*
X82644Y49248D01*
X82706Y49343D01*
X82771Y49436D01*
X82839Y49527D01*
X82910Y49615D01*
X82985Y49701D01*
X83062Y49784D01*
X83142Y49864D01*
X83225Y49941D01*
X83311Y50016D01*
X83399Y50087D01*
X83490Y50155D01*
X83583Y50220D01*
X83678Y50282D01*
X83775Y50341D01*
X83874Y50396D01*
X83975Y50447D01*
X84078Y50495D01*
X84183Y50539D01*
X84288Y50580D01*
X84396Y50617D01*
X84504Y50650D01*
X84614Y50679D01*
X84724Y50705D01*
X84836Y50727D01*
X84948Y50744D01*
X85060Y50758D01*
X85173Y50768D01*
X85287Y50774D01*
X85400Y50776D01*
X85513Y50774D01*
X85627Y50768D01*
X85740Y50758D01*
X85852Y50744D01*
X85964Y50727D01*
X86076Y50705D01*
X86186Y50679D01*
X86296Y50650D01*
X86404Y50617D01*
X86512Y50580D01*
X86617Y50539D01*
X86722Y50495D01*
X86825Y50447D01*
X86926Y50396D01*
X87025Y50341D01*
X87122Y50282D01*
X87217Y50220D01*
X87310Y50155D01*
X87401Y50087D01*
X87489Y50016D01*
X87575Y49941D01*
X87658Y49864D01*
X87738Y49784D01*
X87815Y49701D01*
X87890Y49615D01*
X87961Y49527D01*
X88029Y49436D01*
X88094Y49343D01*
X88156Y49248D01*
X88215Y49151D01*
X88270Y49052D01*
X88321Y48951D01*
X88369Y48848D01*
X88413Y48743D01*
X88454Y48638D01*
X88491Y48530D01*
X88524Y48422D01*
X88553Y48312D01*
X88579Y48202D01*
X88601Y48090D01*
X88618Y47978D01*
X88632Y47866D01*
X88642Y47753D01*
X88648Y47639D01*
X88650Y47526D01*
X88648Y47413D01*
X88642Y47299D01*
X88632Y47186D01*
X88618Y47074D01*
X88601Y46962D01*
X88579Y46850D01*
X88553Y46740D01*
X88524Y46630D01*
X88491Y46522D01*
X88454Y46414D01*
X88413Y46309D01*
X88369Y46204D01*
X88321Y46101D01*
X88270Y46000D01*
X88215Y45901D01*
X88156Y45804D01*
X88094Y45709D01*
X88029Y45616D01*
X87961Y45525D01*
X87890Y45437D01*
X87815Y45351D01*
X87738Y45268D01*
X87658Y45188D01*
X87575Y45111D01*
X87489Y45036D01*
X87401Y44965D01*
X87310Y44897D01*
X87217Y44832D01*
X87122Y44770D01*
X87025Y44711D01*
X86926Y44656D01*
X86825Y44605D01*
X86722Y44557D01*
X86617Y44513D01*
X86512Y44472D01*
X86404Y44435D01*
X86296Y44402D01*
X86186Y44373D01*
X86076Y44347D01*
X85964Y44325D01*
X85852Y44308D01*
X85740Y44294D01*
X85627Y44284D01*
X85513Y44278D01*
X85400Y44276D01*
X85287Y44278D01*
X85173Y44284D01*
X85060Y44294D01*
X84948Y44308D01*
X84836Y44325D01*
X84724Y44347D01*
X84614Y44373D01*
X84504Y44402D01*
X84396Y44435D01*
X84288Y44472D01*
X84183Y44513D01*
X84078Y44557D01*
X83975Y44605D01*
X83874Y44656D01*
X83775Y44711D01*
X83678Y44770D01*
X83583Y44832D01*
X83490Y44897D01*
X83399Y44965D01*
X83311Y45036D01*
X83225Y45111D01*
X83142Y45188D01*
X83062Y45268D01*
X82985Y45351D01*
X82910Y45437D01*
X82839Y45525D01*
X82771Y45616D01*
X82706Y45709D01*
X82644Y45804D01*
X82585Y45901D01*
X82530Y46000D01*
X82479Y46101D01*
X82431Y46204D01*
X82387Y46309D01*
X82346Y46414D01*
X82309Y46522D01*
X82276Y46630D01*
X82247Y46740D01*
X82221Y46850D01*
X82199Y46962D01*
X82182Y47074D01*
X82168Y47186D01*
X82158Y47299D01*
X82152Y47413D01*
X82150Y47526D01*
X139950Y47526D02*
X139952Y47639D01*
X139958Y47753D01*
X139968Y47866D01*
X139982Y47978D01*
X139999Y48090D01*
X140021Y48202D01*
X140047Y48312D01*
X140076Y48422D01*
X140109Y48530D01*
X140146Y48638D01*
X140187Y48743D01*
X140231Y48848D01*
X140279Y48951D01*
X140330Y49052D01*
X140385Y49151D01*
X140444Y49248D01*
X140506Y49343D01*
X140571Y49436D01*
X140639Y49527D01*
X140710Y49615D01*
X140785Y49701D01*
X140862Y49784D01*
X140942Y49864D01*
X141025Y49941D01*
X141111Y50016D01*
X141199Y50087D01*
X141290Y50155D01*
X141383Y50220D01*
X141478Y50282D01*
X141575Y50341D01*
X141674Y50396D01*
X141775Y50447D01*
X141878Y50495D01*
X141983Y50539D01*
X142088Y50580D01*
X142196Y50617D01*
X142304Y50650D01*
X142414Y50679D01*
X142524Y50705D01*
X142636Y50727D01*
X142748Y50744D01*
X142860Y50758D01*
X142973Y50768D01*
X143087Y50774D01*
X143200Y50776D01*
X143313Y50774D01*
X143427Y50768D01*
X143540Y50758D01*
X143652Y50744D01*
X143764Y50727D01*
X143876Y50705D01*
X143986Y50679D01*
X144096Y50650D01*
X144204Y50617D01*
X144312Y50580D01*
X144417Y50539D01*
X144522Y50495D01*
X144625Y50447D01*
X144726Y50396D01*
X144825Y50341D01*
X144922Y50282D01*
X145017Y50220D01*
X145110Y50155D01*
X145201Y50087D01*
X145289Y50016D01*
X145375Y49941D01*
X145458Y49864D01*
X145538Y49784D01*
X145615Y49701D01*
X145690Y49615D01*
X145761Y49527D01*
X145829Y49436D01*
X145894Y49343D01*
X145956Y49248D01*
X146015Y49151D01*
X146070Y49052D01*
X146121Y48951D01*
X146169Y48848D01*
X146213Y48743D01*
X146254Y48638D01*
X146291Y48530D01*
X146324Y48422D01*
X146353Y48312D01*
X146379Y48202D01*
X146401Y48090D01*
X146418Y47978D01*
X146432Y47866D01*
X146442Y47753D01*
X146448Y47639D01*
X146450Y47526D01*
X146448Y47413D01*
X146442Y47299D01*
X146432Y47186D01*
X146418Y47074D01*
X146401Y46962D01*
X146379Y46850D01*
X146353Y46740D01*
X146324Y46630D01*
X146291Y46522D01*
X146254Y46414D01*
X146213Y46309D01*
X146169Y46204D01*
X146121Y46101D01*
X146070Y46000D01*
X146015Y45901D01*
X145956Y45804D01*
X145894Y45709D01*
X145829Y45616D01*
X145761Y45525D01*
X145690Y45437D01*
X145615Y45351D01*
X145538Y45268D01*
X145458Y45188D01*
X145375Y45111D01*
X145289Y45036D01*
X145201Y44965D01*
X145110Y44897D01*
X145017Y44832D01*
X144922Y44770D01*
X144825Y44711D01*
X144726Y44656D01*
X144625Y44605D01*
X144522Y44557D01*
X144417Y44513D01*
X144312Y44472D01*
X144204Y44435D01*
X144096Y44402D01*
X143986Y44373D01*
X143876Y44347D01*
X143764Y44325D01*
X143652Y44308D01*
X143540Y44294D01*
X143427Y44284D01*
X143313Y44278D01*
X143200Y44276D01*
X143087Y44278D01*
X142973Y44284D01*
X142860Y44294D01*
X142748Y44308D01*
X142636Y44325D01*
X142524Y44347D01*
X142414Y44373D01*
X142304Y44402D01*
X142196Y44435D01*
X142088Y44472D01*
X141983Y44513D01*
X141878Y44557D01*
X141775Y44605D01*
X141674Y44656D01*
X141575Y44711D01*
X141478Y44770D01*
X141383Y44832D01*
X141290Y44897D01*
X141199Y44965D01*
X141111Y45036D01*
X141025Y45111D01*
X140942Y45188D01*
X140862Y45268D01*
X140785Y45351D01*
X140710Y45437D01*
X140639Y45525D01*
X140571Y45616D01*
X140506Y45709D01*
X140444Y45804D01*
X140385Y45901D01*
X140330Y46000D01*
X140279Y46101D01*
X140231Y46204D01*
X140187Y46309D01*
X140146Y46414D01*
X140109Y46522D01*
X140076Y46630D01*
X140047Y46740D01*
X140021Y46850D01*
X139999Y46962D01*
X139982Y47074D01*
X139968Y47186D01*
X139958Y47299D01*
X139952Y47413D01*
X139950Y47526D01*
D12*
X68100Y14176D02*
X68100Y7976D01*
X74100Y7976D02*
X74100Y14176D01*
X74098Y14284D01*
X74092Y14392D01*
X74082Y14500D01*
X74069Y14608D01*
X74051Y14715D01*
X74030Y14821D01*
X74005Y14926D01*
X73976Y15031D01*
X73943Y15134D01*
X73907Y15236D01*
X73866Y15337D01*
X73823Y15436D01*
X73775Y15533D01*
X73725Y15629D01*
X73671Y15723D01*
X73613Y15814D01*
X73552Y15904D01*
X73488Y15992D01*
X73421Y16077D01*
X73351Y16159D01*
X73278Y16239D01*
X73202Y16316D01*
X73123Y16391D01*
X73042Y16462D01*
X72958Y16531D01*
X72872Y16597D01*
X72784Y16659D01*
X72693Y16718D01*
X72600Y16774D01*
X72505Y16827D01*
X72409Y16876D01*
X72310Y16921D01*
X72210Y16963D01*
X72109Y17001D01*
X72006Y17036D01*
X71903Y17067D01*
X71798Y17094D01*
X71692Y17117D01*
X71585Y17136D01*
X71478Y17152D01*
X71370Y17164D01*
X71262Y17172D01*
X71154Y17176D01*
X71046Y17176D01*
X70938Y17172D01*
X70830Y17164D01*
X70722Y17152D01*
X70615Y17136D01*
X70508Y17117D01*
X70402Y17094D01*
X70297Y17067D01*
X70194Y17036D01*
X70091Y17001D01*
X69990Y16963D01*
X69890Y16921D01*
X69791Y16876D01*
X69695Y16827D01*
X69600Y16774D01*
X69507Y16718D01*
X69416Y16659D01*
X69328Y16597D01*
X69242Y16531D01*
X69158Y16462D01*
X69077Y16391D01*
X68998Y16316D01*
X68922Y16239D01*
X68849Y16159D01*
X68779Y16077D01*
X68712Y15992D01*
X68648Y15904D01*
X68587Y15814D01*
X68529Y15723D01*
X68475Y15629D01*
X68425Y15533D01*
X68377Y15436D01*
X68334Y15337D01*
X68293Y15236D01*
X68257Y15134D01*
X68224Y15031D01*
X68195Y14926D01*
X68170Y14821D01*
X68149Y14715D01*
X68131Y14608D01*
X68118Y14500D01*
X68108Y14392D01*
X68102Y14284D01*
X68100Y14176D01*
X68100Y7976D02*
X68102Y7868D01*
X68108Y7760D01*
X68118Y7652D01*
X68131Y7544D01*
X68149Y7437D01*
X68170Y7331D01*
X68195Y7226D01*
X68224Y7121D01*
X68257Y7018D01*
X68293Y6916D01*
X68334Y6815D01*
X68377Y6716D01*
X68425Y6619D01*
X68475Y6523D01*
X68529Y6429D01*
X68587Y6338D01*
X68648Y6248D01*
X68712Y6160D01*
X68779Y6075D01*
X68849Y5993D01*
X68922Y5913D01*
X68998Y5836D01*
X69077Y5761D01*
X69158Y5690D01*
X69242Y5621D01*
X69328Y5555D01*
X69416Y5493D01*
X69507Y5434D01*
X69600Y5378D01*
X69695Y5325D01*
X69791Y5276D01*
X69890Y5231D01*
X69990Y5189D01*
X70091Y5151D01*
X70194Y5116D01*
X70297Y5085D01*
X70402Y5058D01*
X70508Y5035D01*
X70615Y5016D01*
X70722Y5000D01*
X70830Y4988D01*
X70938Y4980D01*
X71046Y4976D01*
X71154Y4976D01*
X71262Y4980D01*
X71370Y4988D01*
X71478Y5000D01*
X71585Y5016D01*
X71692Y5035D01*
X71798Y5058D01*
X71903Y5085D01*
X72006Y5116D01*
X72109Y5151D01*
X72210Y5189D01*
X72310Y5231D01*
X72409Y5276D01*
X72505Y5325D01*
X72600Y5378D01*
X72693Y5434D01*
X72784Y5493D01*
X72872Y5555D01*
X72958Y5621D01*
X73042Y5690D01*
X73123Y5761D01*
X73202Y5836D01*
X73278Y5913D01*
X73351Y5993D01*
X73421Y6075D01*
X73488Y6160D01*
X73552Y6248D01*
X73613Y6338D01*
X73671Y6429D01*
X73725Y6523D01*
X73775Y6619D01*
X73823Y6716D01*
X73866Y6815D01*
X73907Y6916D01*
X73943Y7018D01*
X73976Y7121D01*
X74005Y7226D01*
X74030Y7331D01*
X74051Y7437D01*
X74069Y7544D01*
X74082Y7652D01*
X74092Y7760D01*
X74098Y7868D01*
X74100Y7976D01*
X68100Y47326D02*
X68100Y58326D01*
X74100Y58326D02*
X74100Y47326D01*
X74098Y47218D01*
X74092Y47110D01*
X74082Y47002D01*
X74069Y46894D01*
X74051Y46787D01*
X74030Y46681D01*
X74005Y46576D01*
X73976Y46471D01*
X73943Y46368D01*
X73907Y46266D01*
X73866Y46165D01*
X73823Y46066D01*
X73775Y45969D01*
X73725Y45873D01*
X73671Y45779D01*
X73613Y45688D01*
X73552Y45598D01*
X73488Y45510D01*
X73421Y45425D01*
X73351Y45343D01*
X73278Y45263D01*
X73202Y45186D01*
X73123Y45111D01*
X73042Y45040D01*
X72958Y44971D01*
X72872Y44905D01*
X72784Y44843D01*
X72693Y44784D01*
X72600Y44728D01*
X72505Y44675D01*
X72409Y44626D01*
X72310Y44581D01*
X72210Y44539D01*
X72109Y44501D01*
X72006Y44466D01*
X71903Y44435D01*
X71798Y44408D01*
X71692Y44385D01*
X71585Y44366D01*
X71478Y44350D01*
X71370Y44338D01*
X71262Y44330D01*
X71154Y44326D01*
X71046Y44326D01*
X70938Y44330D01*
X70830Y44338D01*
X70722Y44350D01*
X70615Y44366D01*
X70508Y44385D01*
X70402Y44408D01*
X70297Y44435D01*
X70194Y44466D01*
X70091Y44501D01*
X69990Y44539D01*
X69890Y44581D01*
X69791Y44626D01*
X69695Y44675D01*
X69600Y44728D01*
X69507Y44784D01*
X69416Y44843D01*
X69328Y44905D01*
X69242Y44971D01*
X69158Y45040D01*
X69077Y45111D01*
X68998Y45186D01*
X68922Y45263D01*
X68849Y45343D01*
X68779Y45425D01*
X68712Y45510D01*
X68648Y45598D01*
X68587Y45688D01*
X68529Y45779D01*
X68475Y45873D01*
X68425Y45969D01*
X68377Y46066D01*
X68334Y46165D01*
X68293Y46266D01*
X68257Y46368D01*
X68224Y46471D01*
X68195Y46576D01*
X68170Y46681D01*
X68149Y46787D01*
X68131Y46894D01*
X68118Y47002D01*
X68108Y47110D01*
X68102Y47218D01*
X68100Y47326D01*
X68100Y58326D02*
X68102Y58434D01*
X68108Y58542D01*
X68118Y58650D01*
X68131Y58758D01*
X68149Y58865D01*
X68170Y58971D01*
X68195Y59076D01*
X68224Y59181D01*
X68257Y59284D01*
X68293Y59386D01*
X68334Y59487D01*
X68377Y59586D01*
X68425Y59683D01*
X68475Y59779D01*
X68529Y59873D01*
X68587Y59964D01*
X68648Y60054D01*
X68712Y60142D01*
X68779Y60227D01*
X68849Y60309D01*
X68922Y60389D01*
X68998Y60466D01*
X69077Y60541D01*
X69158Y60612D01*
X69242Y60681D01*
X69328Y60747D01*
X69416Y60809D01*
X69507Y60868D01*
X69600Y60924D01*
X69695Y60977D01*
X69791Y61026D01*
X69890Y61071D01*
X69990Y61113D01*
X70091Y61151D01*
X70194Y61186D01*
X70297Y61217D01*
X70402Y61244D01*
X70508Y61267D01*
X70615Y61286D01*
X70722Y61302D01*
X70830Y61314D01*
X70938Y61322D01*
X71046Y61326D01*
X71154Y61326D01*
X71262Y61322D01*
X71370Y61314D01*
X71478Y61302D01*
X71585Y61286D01*
X71692Y61267D01*
X71798Y61244D01*
X71903Y61217D01*
X72006Y61186D01*
X72109Y61151D01*
X72210Y61113D01*
X72310Y61071D01*
X72409Y61026D01*
X72505Y60977D01*
X72600Y60924D01*
X72693Y60868D01*
X72784Y60809D01*
X72872Y60747D01*
X72958Y60681D01*
X73042Y60612D01*
X73123Y60541D01*
X73202Y60466D01*
X73278Y60389D01*
X73351Y60309D01*
X73421Y60227D01*
X73488Y60142D01*
X73552Y60054D01*
X73613Y59964D01*
X73671Y59873D01*
X73725Y59779D01*
X73775Y59683D01*
X73823Y59586D01*
X73866Y59487D01*
X73907Y59386D01*
X73943Y59284D01*
X73976Y59181D01*
X74005Y59076D01*
X74030Y58971D01*
X74051Y58865D01*
X74069Y58758D01*
X74082Y58650D01*
X74092Y58542D01*
X74098Y58434D01*
X74100Y58326D01*
X154500Y14176D02*
X154500Y7976D01*
X160500Y7976D02*
X160500Y14176D01*
X160498Y14284D01*
X160492Y14392D01*
X160482Y14500D01*
X160469Y14608D01*
X160451Y14715D01*
X160430Y14821D01*
X160405Y14926D01*
X160376Y15031D01*
X160343Y15134D01*
X160307Y15236D01*
X160266Y15337D01*
X160223Y15436D01*
X160175Y15533D01*
X160125Y15629D01*
X160071Y15723D01*
X160013Y15814D01*
X159952Y15904D01*
X159888Y15992D01*
X159821Y16077D01*
X159751Y16159D01*
X159678Y16239D01*
X159602Y16316D01*
X159523Y16391D01*
X159442Y16462D01*
X159358Y16531D01*
X159272Y16597D01*
X159184Y16659D01*
X159093Y16718D01*
X159000Y16774D01*
X158905Y16827D01*
X158809Y16876D01*
X158710Y16921D01*
X158610Y16963D01*
X158509Y17001D01*
X158406Y17036D01*
X158303Y17067D01*
X158198Y17094D01*
X158092Y17117D01*
X157985Y17136D01*
X157878Y17152D01*
X157770Y17164D01*
X157662Y17172D01*
X157554Y17176D01*
X157446Y17176D01*
X157338Y17172D01*
X157230Y17164D01*
X157122Y17152D01*
X157015Y17136D01*
X156908Y17117D01*
X156802Y17094D01*
X156697Y17067D01*
X156594Y17036D01*
X156491Y17001D01*
X156390Y16963D01*
X156290Y16921D01*
X156191Y16876D01*
X156095Y16827D01*
X156000Y16774D01*
X155907Y16718D01*
X155816Y16659D01*
X155728Y16597D01*
X155642Y16531D01*
X155558Y16462D01*
X155477Y16391D01*
X155398Y16316D01*
X155322Y16239D01*
X155249Y16159D01*
X155179Y16077D01*
X155112Y15992D01*
X155048Y15904D01*
X154987Y15814D01*
X154929Y15723D01*
X154875Y15629D01*
X154825Y15533D01*
X154777Y15436D01*
X154734Y15337D01*
X154693Y15236D01*
X154657Y15134D01*
X154624Y15031D01*
X154595Y14926D01*
X154570Y14821D01*
X154549Y14715D01*
X154531Y14608D01*
X154518Y14500D01*
X154508Y14392D01*
X154502Y14284D01*
X154500Y14176D01*
X154500Y7976D02*
X154502Y7868D01*
X154508Y7760D01*
X154518Y7652D01*
X154531Y7544D01*
X154549Y7437D01*
X154570Y7331D01*
X154595Y7226D01*
X154624Y7121D01*
X154657Y7018D01*
X154693Y6916D01*
X154734Y6815D01*
X154777Y6716D01*
X154825Y6619D01*
X154875Y6523D01*
X154929Y6429D01*
X154987Y6338D01*
X155048Y6248D01*
X155112Y6160D01*
X155179Y6075D01*
X155249Y5993D01*
X155322Y5913D01*
X155398Y5836D01*
X155477Y5761D01*
X155558Y5690D01*
X155642Y5621D01*
X155728Y5555D01*
X155816Y5493D01*
X155907Y5434D01*
X156000Y5378D01*
X156095Y5325D01*
X156191Y5276D01*
X156290Y5231D01*
X156390Y5189D01*
X156491Y5151D01*
X156594Y5116D01*
X156697Y5085D01*
X156802Y5058D01*
X156908Y5035D01*
X157015Y5016D01*
X157122Y5000D01*
X157230Y4988D01*
X157338Y4980D01*
X157446Y4976D01*
X157554Y4976D01*
X157662Y4980D01*
X157770Y4988D01*
X157878Y5000D01*
X157985Y5016D01*
X158092Y5035D01*
X158198Y5058D01*
X158303Y5085D01*
X158406Y5116D01*
X158509Y5151D01*
X158610Y5189D01*
X158710Y5231D01*
X158809Y5276D01*
X158905Y5325D01*
X159000Y5378D01*
X159093Y5434D01*
X159184Y5493D01*
X159272Y5555D01*
X159358Y5621D01*
X159442Y5690D01*
X159523Y5761D01*
X159602Y5836D01*
X159678Y5913D01*
X159751Y5993D01*
X159821Y6075D01*
X159888Y6160D01*
X159952Y6248D01*
X160013Y6338D01*
X160071Y6429D01*
X160125Y6523D01*
X160175Y6619D01*
X160223Y6716D01*
X160266Y6815D01*
X160307Y6916D01*
X160343Y7018D01*
X160376Y7121D01*
X160405Y7226D01*
X160430Y7331D01*
X160451Y7437D01*
X160469Y7544D01*
X160482Y7652D01*
X160492Y7760D01*
X160498Y7868D01*
X160500Y7976D01*
X154500Y47326D02*
X154500Y58326D01*
X160500Y58326D02*
X160500Y47326D01*
X160498Y47218D01*
X160492Y47110D01*
X160482Y47002D01*
X160469Y46894D01*
X160451Y46787D01*
X160430Y46681D01*
X160405Y46576D01*
X160376Y46471D01*
X160343Y46368D01*
X160307Y46266D01*
X160266Y46165D01*
X160223Y46066D01*
X160175Y45969D01*
X160125Y45873D01*
X160071Y45779D01*
X160013Y45688D01*
X159952Y45598D01*
X159888Y45510D01*
X159821Y45425D01*
X159751Y45343D01*
X159678Y45263D01*
X159602Y45186D01*
X159523Y45111D01*
X159442Y45040D01*
X159358Y44971D01*
X159272Y44905D01*
X159184Y44843D01*
X159093Y44784D01*
X159000Y44728D01*
X158905Y44675D01*
X158809Y44626D01*
X158710Y44581D01*
X158610Y44539D01*
X158509Y44501D01*
X158406Y44466D01*
X158303Y44435D01*
X158198Y44408D01*
X158092Y44385D01*
X157985Y44366D01*
X157878Y44350D01*
X157770Y44338D01*
X157662Y44330D01*
X157554Y44326D01*
X157446Y44326D01*
X157338Y44330D01*
X157230Y44338D01*
X157122Y44350D01*
X157015Y44366D01*
X156908Y44385D01*
X156802Y44408D01*
X156697Y44435D01*
X156594Y44466D01*
X156491Y44501D01*
X156390Y44539D01*
X156290Y44581D01*
X156191Y44626D01*
X156095Y44675D01*
X156000Y44728D01*
X155907Y44784D01*
X155816Y44843D01*
X155728Y44905D01*
X155642Y44971D01*
X155558Y45040D01*
X155477Y45111D01*
X155398Y45186D01*
X155322Y45263D01*
X155249Y45343D01*
X155179Y45425D01*
X155112Y45510D01*
X155048Y45598D01*
X154987Y45688D01*
X154929Y45779D01*
X154875Y45873D01*
X154825Y45969D01*
X154777Y46066D01*
X154734Y46165D01*
X154693Y46266D01*
X154657Y46368D01*
X154624Y46471D01*
X154595Y46576D01*
X154570Y46681D01*
X154549Y46787D01*
X154531Y46894D01*
X154518Y47002D01*
X154508Y47110D01*
X154502Y47218D01*
X154500Y47326D01*
X154500Y58326D02*
X154502Y58434D01*
X154508Y58542D01*
X154518Y58650D01*
X154531Y58758D01*
X154549Y58865D01*
X154570Y58971D01*
X154595Y59076D01*
X154624Y59181D01*
X154657Y59284D01*
X154693Y59386D01*
X154734Y59487D01*
X154777Y59586D01*
X154825Y59683D01*
X154875Y59779D01*
X154929Y59873D01*
X154987Y59964D01*
X155048Y60054D01*
X155112Y60142D01*
X155179Y60227D01*
X155249Y60309D01*
X155322Y60389D01*
X155398Y60466D01*
X155477Y60541D01*
X155558Y60612D01*
X155642Y60681D01*
X155728Y60747D01*
X155816Y60809D01*
X155907Y60868D01*
X156000Y60924D01*
X156095Y60977D01*
X156191Y61026D01*
X156290Y61071D01*
X156390Y61113D01*
X156491Y61151D01*
X156594Y61186D01*
X156697Y61217D01*
X156802Y61244D01*
X156908Y61267D01*
X157015Y61286D01*
X157122Y61302D01*
X157230Y61314D01*
X157338Y61322D01*
X157446Y61326D01*
X157554Y61326D01*
X157662Y61322D01*
X157770Y61314D01*
X157878Y61302D01*
X157985Y61286D01*
X158092Y61267D01*
X158198Y61244D01*
X158303Y61217D01*
X158406Y61186D01*
X158509Y61151D01*
X158610Y61113D01*
X158710Y61071D01*
X158809Y61026D01*
X158905Y60977D01*
X159000Y60924D01*
X159093Y60868D01*
X159184Y60809D01*
X159272Y60747D01*
X159358Y60681D01*
X159442Y60612D01*
X159523Y60541D01*
X159602Y60466D01*
X159678Y60389D01*
X159751Y60309D01*
X159821Y60227D01*
X159888Y60142D01*
X159952Y60054D01*
X160013Y59964D01*
X160071Y59873D01*
X160125Y59779D01*
X160175Y59683D01*
X160223Y59586D01*
X160266Y59487D01*
X160307Y59386D01*
X160343Y59284D01*
X160376Y59181D01*
X160405Y59076D01*
X160430Y58971D01*
X160451Y58865D01*
X160469Y58758D01*
X160482Y58650D01*
X160492Y58542D01*
X160498Y58434D01*
X160500Y58326D01*
D11*
X10160Y25400D02*
X10165Y25774D01*
X10178Y26148D01*
X10201Y26521D01*
X10233Y26894D01*
X10275Y27266D01*
X10325Y27636D01*
X10384Y28005D01*
X10453Y28373D01*
X10530Y28739D01*
X10617Y29103D01*
X10712Y29465D01*
X10816Y29824D01*
X10929Y30181D01*
X11051Y30534D01*
X11181Y30885D01*
X11320Y31232D01*
X11467Y31576D01*
X11623Y31916D01*
X11787Y32252D01*
X11960Y32584D01*
X12140Y32912D01*
X12328Y33235D01*
X12524Y33553D01*
X12728Y33867D01*
X12940Y34175D01*
X13159Y34478D01*
X13386Y34776D01*
X13619Y35068D01*
X13860Y35354D01*
X14108Y35635D01*
X14362Y35909D01*
X14624Y36176D01*
X14891Y36438D01*
X15165Y36692D01*
X15446Y36940D01*
X15732Y37181D01*
X16024Y37414D01*
X16322Y37641D01*
X16625Y37860D01*
X16933Y38072D01*
X17247Y38276D01*
X17565Y38472D01*
X17888Y38660D01*
X18216Y38840D01*
X18548Y39013D01*
X18884Y39177D01*
X19224Y39333D01*
X19568Y39480D01*
X19915Y39619D01*
X20266Y39749D01*
X20619Y39871D01*
X20976Y39984D01*
X21335Y40088D01*
X21697Y40183D01*
X22061Y40270D01*
X22427Y40347D01*
X22795Y40416D01*
X23164Y40475D01*
X23534Y40525D01*
X23906Y40567D01*
X24279Y40599D01*
X24652Y40622D01*
X25026Y40635D01*
X25400Y40640D01*
X25774Y40635D01*
X26148Y40622D01*
X26521Y40599D01*
X26894Y40567D01*
X27266Y40525D01*
X27636Y40475D01*
X28005Y40416D01*
X28373Y40347D01*
X28739Y40270D01*
X29103Y40183D01*
X29465Y40088D01*
X29824Y39984D01*
X30181Y39871D01*
X30534Y39749D01*
X30885Y39619D01*
X31232Y39480D01*
X31576Y39333D01*
X31916Y39177D01*
X32252Y39013D01*
X32584Y38840D01*
X32912Y38660D01*
X33235Y38472D01*
X33553Y38276D01*
X33867Y38072D01*
X34175Y37860D01*
X34478Y37641D01*
X34776Y37414D01*
X35068Y37181D01*
X35354Y36940D01*
X35635Y36692D01*
X35909Y36438D01*
X36176Y36176D01*
X36438Y35909D01*
X36692Y35635D01*
X36940Y35354D01*
X37181Y35068D01*
X37414Y34776D01*
X37641Y34478D01*
X37860Y34175D01*
X38072Y33867D01*
X38276Y33553D01*
X38472Y33235D01*
X38660Y32912D01*
X38840Y32584D01*
X39013Y32252D01*
X39177Y31916D01*
X39333Y31576D01*
X39480Y31232D01*
X39619Y30885D01*
X39749Y30534D01*
X39871Y30181D01*
X39984Y29824D01*
X40088Y29465D01*
X40183Y29103D01*
X40270Y28739D01*
X40347Y28373D01*
X40416Y28005D01*
X40475Y27636D01*
X40525Y27266D01*
X40567Y26894D01*
X40599Y26521D01*
X40622Y26148D01*
X40635Y25774D01*
X40640Y25400D01*
X40635Y25026D01*
X40622Y24652D01*
X40599Y24279D01*
X40567Y23906D01*
X40525Y23534D01*
X40475Y23164D01*
X40416Y22795D01*
X40347Y22427D01*
X40270Y22061D01*
X40183Y21697D01*
X40088Y21335D01*
X39984Y20976D01*
X39871Y20619D01*
X39749Y20266D01*
X39619Y19915D01*
X39480Y19568D01*
X39333Y19224D01*
X39177Y18884D01*
X39013Y18548D01*
X38840Y18216D01*
X38660Y17888D01*
X38472Y17565D01*
X38276Y17247D01*
X38072Y16933D01*
X37860Y16625D01*
X37641Y16322D01*
X37414Y16024D01*
X37181Y15732D01*
X36940Y15446D01*
X36692Y15165D01*
X36438Y14891D01*
X36176Y14624D01*
X35909Y14362D01*
X35635Y14108D01*
X35354Y13860D01*
X35068Y13619D01*
X34776Y13386D01*
X34478Y13159D01*
X34175Y12940D01*
X33867Y12728D01*
X33553Y12524D01*
X33235Y12328D01*
X32912Y12140D01*
X32584Y11960D01*
X32252Y11787D01*
X31916Y11623D01*
X31576Y11467D01*
X31232Y11320D01*
X30885Y11181D01*
X30534Y11051D01*
X30181Y10929D01*
X29824Y10816D01*
X29465Y10712D01*
X29103Y10617D01*
X28739Y10530D01*
X28373Y10453D01*
X28005Y10384D01*
X27636Y10325D01*
X27266Y10275D01*
X26894Y10233D01*
X26521Y10201D01*
X26148Y10178D01*
X25774Y10165D01*
X25400Y10160D01*
X25026Y10165D01*
X24652Y10178D01*
X24279Y10201D01*
X23906Y10233D01*
X23534Y10275D01*
X23164Y10325D01*
X22795Y10384D01*
X22427Y10453D01*
X22061Y10530D01*
X21697Y10617D01*
X21335Y10712D01*
X20976Y10816D01*
X20619Y10929D01*
X20266Y11051D01*
X19915Y11181D01*
X19568Y11320D01*
X19224Y11467D01*
X18884Y11623D01*
X18548Y11787D01*
X18216Y11960D01*
X17888Y12140D01*
X17565Y12328D01*
X17247Y12524D01*
X16933Y12728D01*
X16625Y12940D01*
X16322Y13159D01*
X16024Y13386D01*
X15732Y13619D01*
X15446Y13860D01*
X15165Y14108D01*
X14891Y14362D01*
X14624Y14624D01*
X14362Y14891D01*
X14108Y15165D01*
X13860Y15446D01*
X13619Y15732D01*
X13386Y16024D01*
X13159Y16322D01*
X12940Y16625D01*
X12728Y16933D01*
X12524Y17247D01*
X12328Y17565D01*
X12140Y17888D01*
X11960Y18216D01*
X11787Y18548D01*
X11623Y18884D01*
X11467Y19224D01*
X11320Y19568D01*
X11181Y19915D01*
X11051Y20266D01*
X10929Y20619D01*
X10816Y20976D01*
X10712Y21335D01*
X10617Y21697D01*
X10530Y22061D01*
X10453Y22427D01*
X10384Y22795D01*
X10325Y23164D01*
X10275Y23534D01*
X10233Y23906D01*
X10201Y24279D01*
X10178Y24652D01*
X10165Y25026D01*
X10160Y25400D01*
X187960Y25400D02*
X187965Y25774D01*
X187978Y26148D01*
X188001Y26521D01*
X188033Y26894D01*
X188075Y27266D01*
X188125Y27636D01*
X188184Y28005D01*
X188253Y28373D01*
X188330Y28739D01*
X188417Y29103D01*
X188512Y29465D01*
X188616Y29824D01*
X188729Y30181D01*
X188851Y30534D01*
X188981Y30885D01*
X189120Y31232D01*
X189267Y31576D01*
X189423Y31916D01*
X189587Y32252D01*
X189760Y32584D01*
X189940Y32912D01*
X190128Y33235D01*
X190324Y33553D01*
X190528Y33867D01*
X190740Y34175D01*
X190959Y34478D01*
X191186Y34776D01*
X191419Y35068D01*
X191660Y35354D01*
X191908Y35635D01*
X192162Y35909D01*
X192424Y36176D01*
X192691Y36438D01*
X192965Y36692D01*
X193246Y36940D01*
X193532Y37181D01*
X193824Y37414D01*
X194122Y37641D01*
X194425Y37860D01*
X194733Y38072D01*
X195047Y38276D01*
X195365Y38472D01*
X195688Y38660D01*
X196016Y38840D01*
X196348Y39013D01*
X196684Y39177D01*
X197024Y39333D01*
X197368Y39480D01*
X197715Y39619D01*
X198066Y39749D01*
X198419Y39871D01*
X198776Y39984D01*
X199135Y40088D01*
X199497Y40183D01*
X199861Y40270D01*
X200227Y40347D01*
X200595Y40416D01*
X200964Y40475D01*
X201334Y40525D01*
X201706Y40567D01*
X202079Y40599D01*
X202452Y40622D01*
X202826Y40635D01*
X203200Y40640D01*
X203574Y40635D01*
X203948Y40622D01*
X204321Y40599D01*
X204694Y40567D01*
X205066Y40525D01*
X205436Y40475D01*
X205805Y40416D01*
X206173Y40347D01*
X206539Y40270D01*
X206903Y40183D01*
X207265Y40088D01*
X207624Y39984D01*
X207981Y39871D01*
X208334Y39749D01*
X208685Y39619D01*
X209032Y39480D01*
X209376Y39333D01*
X209716Y39177D01*
X210052Y39013D01*
X210384Y38840D01*
X210712Y38660D01*
X211035Y38472D01*
X211353Y38276D01*
X211667Y38072D01*
X211975Y37860D01*
X212278Y37641D01*
X212576Y37414D01*
X212868Y37181D01*
X213154Y36940D01*
X213435Y36692D01*
X213709Y36438D01*
X213976Y36176D01*
X214238Y35909D01*
X214492Y35635D01*
X214740Y35354D01*
X214981Y35068D01*
X215214Y34776D01*
X215441Y34478D01*
X215660Y34175D01*
X215872Y33867D01*
X216076Y33553D01*
X216272Y33235D01*
X216460Y32912D01*
X216640Y32584D01*
X216813Y32252D01*
X216977Y31916D01*
X217133Y31576D01*
X217280Y31232D01*
X217419Y30885D01*
X217549Y30534D01*
X217671Y30181D01*
X217784Y29824D01*
X217888Y29465D01*
X217983Y29103D01*
X218070Y28739D01*
X218147Y28373D01*
X218216Y28005D01*
X218275Y27636D01*
X218325Y27266D01*
X218367Y26894D01*
X218399Y26521D01*
X218422Y26148D01*
X218435Y25774D01*
X218440Y25400D01*
X218435Y25026D01*
X218422Y24652D01*
X218399Y24279D01*
X218367Y23906D01*
X218325Y23534D01*
X218275Y23164D01*
X218216Y22795D01*
X218147Y22427D01*
X218070Y22061D01*
X217983Y21697D01*
X217888Y21335D01*
X217784Y20976D01*
X217671Y20619D01*
X217549Y20266D01*
X217419Y19915D01*
X217280Y19568D01*
X217133Y19224D01*
X216977Y18884D01*
X216813Y18548D01*
X216640Y18216D01*
X216460Y17888D01*
X216272Y17565D01*
X216076Y17247D01*
X215872Y16933D01*
X215660Y16625D01*
X215441Y16322D01*
X215214Y16024D01*
X214981Y15732D01*
X214740Y15446D01*
X214492Y15165D01*
X214238Y14891D01*
X213976Y14624D01*
X213709Y14362D01*
X213435Y14108D01*
X213154Y13860D01*
X212868Y13619D01*
X212576Y13386D01*
X212278Y13159D01*
X211975Y12940D01*
X211667Y12728D01*
X211353Y12524D01*
X211035Y12328D01*
X210712Y12140D01*
X210384Y11960D01*
X210052Y11787D01*
X209716Y11623D01*
X209376Y11467D01*
X209032Y11320D01*
X208685Y11181D01*
X208334Y11051D01*
X207981Y10929D01*
X207624Y10816D01*
X207265Y10712D01*
X206903Y10617D01*
X206539Y10530D01*
X206173Y10453D01*
X205805Y10384D01*
X205436Y10325D01*
X205066Y10275D01*
X204694Y10233D01*
X204321Y10201D01*
X203948Y10178D01*
X203574Y10165D01*
X203200Y10160D01*
X202826Y10165D01*
X202452Y10178D01*
X202079Y10201D01*
X201706Y10233D01*
X201334Y10275D01*
X200964Y10325D01*
X200595Y10384D01*
X200227Y10453D01*
X199861Y10530D01*
X199497Y10617D01*
X199135Y10712D01*
X198776Y10816D01*
X198419Y10929D01*
X198066Y11051D01*
X197715Y11181D01*
X197368Y11320D01*
X197024Y11467D01*
X196684Y11623D01*
X196348Y11787D01*
X196016Y11960D01*
X195688Y12140D01*
X195365Y12328D01*
X195047Y12524D01*
X194733Y12728D01*
X194425Y12940D01*
X194122Y13159D01*
X193824Y13386D01*
X193532Y13619D01*
X193246Y13860D01*
X192965Y14108D01*
X192691Y14362D01*
X192424Y14624D01*
X192162Y14891D01*
X191908Y15165D01*
X191660Y15446D01*
X191419Y15732D01*
X191186Y16024D01*
X190959Y16322D01*
X190740Y16625D01*
X190528Y16933D01*
X190324Y17247D01*
X190128Y17565D01*
X189940Y17888D01*
X189760Y18216D01*
X189587Y18548D01*
X189423Y18884D01*
X189267Y19224D01*
X189120Y19568D01*
X188981Y19915D01*
X188851Y20266D01*
X188729Y20619D01*
X188616Y20976D01*
X188512Y21335D01*
X188417Y21697D01*
X188330Y22061D01*
X188253Y22427D01*
X188184Y22795D01*
X188125Y23164D01*
X188075Y23534D01*
X188033Y23906D01*
X188001Y24279D01*
X187978Y24652D01*
X187965Y25026D01*
X187960Y25400D01*
X10160Y558800D02*
X10165Y559174D01*
X10178Y559548D01*
X10201Y559921D01*
X10233Y560294D01*
X10275Y560666D01*
X10325Y561036D01*
X10384Y561405D01*
X10453Y561773D01*
X10530Y562139D01*
X10617Y562503D01*
X10712Y562865D01*
X10816Y563224D01*
X10929Y563581D01*
X11051Y563934D01*
X11181Y564285D01*
X11320Y564632D01*
X11467Y564976D01*
X11623Y565316D01*
X11787Y565652D01*
X11960Y565984D01*
X12140Y566312D01*
X12328Y566635D01*
X12524Y566953D01*
X12728Y567267D01*
X12940Y567575D01*
X13159Y567878D01*
X13386Y568176D01*
X13619Y568468D01*
X13860Y568754D01*
X14108Y569035D01*
X14362Y569309D01*
X14624Y569576D01*
X14891Y569838D01*
X15165Y570092D01*
X15446Y570340D01*
X15732Y570581D01*
X16024Y570814D01*
X16322Y571041D01*
X16625Y571260D01*
X16933Y571472D01*
X17247Y571676D01*
X17565Y571872D01*
X17888Y572060D01*
X18216Y572240D01*
X18548Y572413D01*
X18884Y572577D01*
X19224Y572733D01*
X19568Y572880D01*
X19915Y573019D01*
X20266Y573149D01*
X20619Y573271D01*
X20976Y573384D01*
X21335Y573488D01*
X21697Y573583D01*
X22061Y573670D01*
X22427Y573747D01*
X22795Y573816D01*
X23164Y573875D01*
X23534Y573925D01*
X23906Y573967D01*
X24279Y573999D01*
X24652Y574022D01*
X25026Y574035D01*
X25400Y574040D01*
X25774Y574035D01*
X26148Y574022D01*
X26521Y573999D01*
X26894Y573967D01*
X27266Y573925D01*
X27636Y573875D01*
X28005Y573816D01*
X28373Y573747D01*
X28739Y573670D01*
X29103Y573583D01*
X29465Y573488D01*
X29824Y573384D01*
X30181Y573271D01*
X30534Y573149D01*
X30885Y573019D01*
X31232Y572880D01*
X31576Y572733D01*
X31916Y572577D01*
X32252Y572413D01*
X32584Y572240D01*
X32912Y572060D01*
X33235Y571872D01*
X33553Y571676D01*
X33867Y571472D01*
X34175Y571260D01*
X34478Y571041D01*
X34776Y570814D01*
X35068Y570581D01*
X35354Y570340D01*
X35635Y570092D01*
X35909Y569838D01*
X36176Y569576D01*
X36438Y569309D01*
X36692Y569035D01*
X36940Y568754D01*
X37181Y568468D01*
X37414Y568176D01*
X37641Y567878D01*
X37860Y567575D01*
X38072Y567267D01*
X38276Y566953D01*
X38472Y566635D01*
X38660Y566312D01*
X38840Y565984D01*
X39013Y565652D01*
X39177Y565316D01*
X39333Y564976D01*
X39480Y564632D01*
X39619Y564285D01*
X39749Y563934D01*
X39871Y563581D01*
X39984Y563224D01*
X40088Y562865D01*
X40183Y562503D01*
X40270Y562139D01*
X40347Y561773D01*
X40416Y561405D01*
X40475Y561036D01*
X40525Y560666D01*
X40567Y560294D01*
X40599Y559921D01*
X40622Y559548D01*
X40635Y559174D01*
X40640Y558800D01*
X40635Y558426D01*
X40622Y558052D01*
X40599Y557679D01*
X40567Y557306D01*
X40525Y556934D01*
X40475Y556564D01*
X40416Y556195D01*
X40347Y555827D01*
X40270Y555461D01*
X40183Y555097D01*
X40088Y554735D01*
X39984Y554376D01*
X39871Y554019D01*
X39749Y553666D01*
X39619Y553315D01*
X39480Y552968D01*
X39333Y552624D01*
X39177Y552284D01*
X39013Y551948D01*
X38840Y551616D01*
X38660Y551288D01*
X38472Y550965D01*
X38276Y550647D01*
X38072Y550333D01*
X37860Y550025D01*
X37641Y549722D01*
X37414Y549424D01*
X37181Y549132D01*
X36940Y548846D01*
X36692Y548565D01*
X36438Y548291D01*
X36176Y548024D01*
X35909Y547762D01*
X35635Y547508D01*
X35354Y547260D01*
X35068Y547019D01*
X34776Y546786D01*
X34478Y546559D01*
X34175Y546340D01*
X33867Y546128D01*
X33553Y545924D01*
X33235Y545728D01*
X32912Y545540D01*
X32584Y545360D01*
X32252Y545187D01*
X31916Y545023D01*
X31576Y544867D01*
X31232Y544720D01*
X30885Y544581D01*
X30534Y544451D01*
X30181Y544329D01*
X29824Y544216D01*
X29465Y544112D01*
X29103Y544017D01*
X28739Y543930D01*
X28373Y543853D01*
X28005Y543784D01*
X27636Y543725D01*
X27266Y543675D01*
X26894Y543633D01*
X26521Y543601D01*
X26148Y543578D01*
X25774Y543565D01*
X25400Y543560D01*
X25026Y543565D01*
X24652Y543578D01*
X24279Y543601D01*
X23906Y543633D01*
X23534Y543675D01*
X23164Y543725D01*
X22795Y543784D01*
X22427Y543853D01*
X22061Y543930D01*
X21697Y544017D01*
X21335Y544112D01*
X20976Y544216D01*
X20619Y544329D01*
X20266Y544451D01*
X19915Y544581D01*
X19568Y544720D01*
X19224Y544867D01*
X18884Y545023D01*
X18548Y545187D01*
X18216Y545360D01*
X17888Y545540D01*
X17565Y545728D01*
X17247Y545924D01*
X16933Y546128D01*
X16625Y546340D01*
X16322Y546559D01*
X16024Y546786D01*
X15732Y547019D01*
X15446Y547260D01*
X15165Y547508D01*
X14891Y547762D01*
X14624Y548024D01*
X14362Y548291D01*
X14108Y548565D01*
X13860Y548846D01*
X13619Y549132D01*
X13386Y549424D01*
X13159Y549722D01*
X12940Y550025D01*
X12728Y550333D01*
X12524Y550647D01*
X12328Y550965D01*
X12140Y551288D01*
X11960Y551616D01*
X11787Y551948D01*
X11623Y552284D01*
X11467Y552624D01*
X11320Y552968D01*
X11181Y553315D01*
X11051Y553666D01*
X10929Y554019D01*
X10816Y554376D01*
X10712Y554735D01*
X10617Y555097D01*
X10530Y555461D01*
X10453Y555827D01*
X10384Y556195D01*
X10325Y556564D01*
X10275Y556934D01*
X10233Y557306D01*
X10201Y557679D01*
X10178Y558052D01*
X10165Y558426D01*
X10160Y558800D01*
X187960Y558800D02*
X187965Y559174D01*
X187978Y559548D01*
X188001Y559921D01*
X188033Y560294D01*
X188075Y560666D01*
X188125Y561036D01*
X188184Y561405D01*
X188253Y561773D01*
X188330Y562139D01*
X188417Y562503D01*
X188512Y562865D01*
X188616Y563224D01*
X188729Y563581D01*
X188851Y563934D01*
X188981Y564285D01*
X189120Y564632D01*
X189267Y564976D01*
X189423Y565316D01*
X189587Y565652D01*
X189760Y565984D01*
X189940Y566312D01*
X190128Y566635D01*
X190324Y566953D01*
X190528Y567267D01*
X190740Y567575D01*
X190959Y567878D01*
X191186Y568176D01*
X191419Y568468D01*
X191660Y568754D01*
X191908Y569035D01*
X192162Y569309D01*
X192424Y569576D01*
X192691Y569838D01*
X192965Y570092D01*
X193246Y570340D01*
X193532Y570581D01*
X193824Y570814D01*
X194122Y571041D01*
X194425Y571260D01*
X194733Y571472D01*
X195047Y571676D01*
X195365Y571872D01*
X195688Y572060D01*
X196016Y572240D01*
X196348Y572413D01*
X196684Y572577D01*
X197024Y572733D01*
X197368Y572880D01*
X197715Y573019D01*
X198066Y573149D01*
X198419Y573271D01*
X198776Y573384D01*
X199135Y573488D01*
X199497Y573583D01*
X199861Y573670D01*
X200227Y573747D01*
X200595Y573816D01*
X200964Y573875D01*
X201334Y573925D01*
X201706Y573967D01*
X202079Y573999D01*
X202452Y574022D01*
X202826Y574035D01*
X203200Y574040D01*
X203574Y574035D01*
X203948Y574022D01*
X204321Y573999D01*
X204694Y573967D01*
X205066Y573925D01*
X205436Y573875D01*
X205805Y573816D01*
X206173Y573747D01*
X206539Y573670D01*
X206903Y573583D01*
X207265Y573488D01*
X207624Y573384D01*
X207981Y573271D01*
X208334Y573149D01*
X208685Y573019D01*
X209032Y572880D01*
X209376Y572733D01*
X209716Y572577D01*
X210052Y572413D01*
X210384Y572240D01*
X210712Y572060D01*
X211035Y571872D01*
X211353Y571676D01*
X211667Y571472D01*
X211975Y571260D01*
X212278Y571041D01*
X212576Y570814D01*
X212868Y570581D01*
X213154Y570340D01*
X213435Y570092D01*
X213709Y569838D01*
X213976Y569576D01*
X214238Y569309D01*
X214492Y569035D01*
X214740Y568754D01*
X214981Y568468D01*
X215214Y568176D01*
X215441Y567878D01*
X215660Y567575D01*
X215872Y567267D01*
X216076Y566953D01*
X216272Y566635D01*
X216460Y566312D01*
X216640Y565984D01*
X216813Y565652D01*
X216977Y565316D01*
X217133Y564976D01*
X217280Y564632D01*
X217419Y564285D01*
X217549Y563934D01*
X217671Y563581D01*
X217784Y563224D01*
X217888Y562865D01*
X217983Y562503D01*
X218070Y562139D01*
X218147Y561773D01*
X218216Y561405D01*
X218275Y561036D01*
X218325Y560666D01*
X218367Y560294D01*
X218399Y559921D01*
X218422Y559548D01*
X218435Y559174D01*
X218440Y558800D01*
X218435Y558426D01*
X218422Y558052D01*
X218399Y557679D01*
X218367Y557306D01*
X218325Y556934D01*
X218275Y556564D01*
X218216Y556195D01*
X218147Y555827D01*
X218070Y555461D01*
X217983Y555097D01*
X217888Y554735D01*
X217784Y554376D01*
X217671Y554019D01*
X217549Y553666D01*
X217419Y553315D01*
X217280Y552968D01*
X217133Y552624D01*
X216977Y552284D01*
X216813Y551948D01*
X216640Y551616D01*
X216460Y551288D01*
X216272Y550965D01*
X216076Y550647D01*
X215872Y550333D01*
X215660Y550025D01*
X215441Y549722D01*
X215214Y549424D01*
X214981Y549132D01*
X214740Y548846D01*
X214492Y548565D01*
X214238Y548291D01*
X213976Y548024D01*
X213709Y547762D01*
X213435Y547508D01*
X213154Y547260D01*
X212868Y547019D01*
X212576Y546786D01*
X212278Y546559D01*
X211975Y546340D01*
X211667Y546128D01*
X211353Y545924D01*
X211035Y545728D01*
X210712Y545540D01*
X210384Y545360D01*
X210052Y545187D01*
X209716Y545023D01*
X209376Y544867D01*
X209032Y544720D01*
X208685Y544581D01*
X208334Y544451D01*
X207981Y544329D01*
X207624Y544216D01*
X207265Y544112D01*
X206903Y544017D01*
X206539Y543930D01*
X206173Y543853D01*
X205805Y543784D01*
X205436Y543725D01*
X205066Y543675D01*
X204694Y543633D01*
X204321Y543601D01*
X203948Y543578D01*
X203574Y543565D01*
X203200Y543560D01*
X202826Y543565D01*
X202452Y543578D01*
X202079Y543601D01*
X201706Y543633D01*
X201334Y543675D01*
X200964Y543725D01*
X200595Y543784D01*
X200227Y543853D01*
X199861Y543930D01*
X199497Y544017D01*
X199135Y544112D01*
X198776Y544216D01*
X198419Y544329D01*
X198066Y544451D01*
X197715Y544581D01*
X197368Y544720D01*
X197024Y544867D01*
X196684Y545023D01*
X196348Y545187D01*
X196016Y545360D01*
X195688Y545540D01*
X195365Y545728D01*
X195047Y545924D01*
X194733Y546128D01*
X194425Y546340D01*
X194122Y546559D01*
X193824Y546786D01*
X193532Y547019D01*
X193246Y547260D01*
X192965Y547508D01*
X192691Y547762D01*
X192424Y548024D01*
X192162Y548291D01*
X191908Y548565D01*
X191660Y548846D01*
X191419Y549132D01*
X191186Y549424D01*
X190959Y549722D01*
X190740Y550025D01*
X190528Y550333D01*
X190324Y550647D01*
X190128Y550965D01*
X189940Y551288D01*
X189760Y551616D01*
X189587Y551948D01*
X189423Y552284D01*
X189267Y552624D01*
X189120Y552968D01*
X188981Y553315D01*
X188851Y553666D01*
X188729Y554019D01*
X188616Y554376D01*
X188512Y554735D01*
X188417Y555097D01*
X188330Y555461D01*
X188253Y555827D01*
X188184Y556195D01*
X188125Y556564D01*
X188075Y556934D01*
X188033Y557306D01*
X188001Y557679D01*
X187978Y558052D01*
X187965Y558426D01*
X187960Y558800D01*
D13*
X0Y25400D02*
X97Y23186D01*
X386Y20989D01*
X865Y18826D01*
X1532Y16713D01*
X2380Y14666D01*
X3403Y12700D01*
X4594Y10831D01*
X5942Y9073D01*
X7440Y7440D01*
X9073Y5942D01*
X10831Y4594D01*
X12700Y3403D01*
X14666Y2380D01*
X16713Y1532D01*
X18826Y865D01*
X20989Y386D01*
X23186Y97D01*
X25400Y0D01*
X203200Y0D01*
X205414Y97D01*
X207611Y386D01*
X209774Y865D01*
X211887Y1532D01*
X213935Y2380D01*
X215900Y3403D01*
X217769Y4594D01*
X219527Y5942D01*
X221161Y7440D01*
X222658Y9073D01*
X224006Y10831D01*
X225197Y12700D01*
X226220Y14666D01*
X227068Y16713D01*
X227735Y18826D01*
X228214Y20989D01*
X228503Y23186D01*
X228600Y25400D01*
X228600Y660400D01*
X228503Y662614D01*
X228214Y664811D01*
X227735Y666974D01*
X227068Y669087D01*
X226220Y671135D01*
X225197Y673100D01*
X224006Y674969D01*
X222658Y676727D01*
X221161Y678361D01*
X219527Y679858D01*
X217769Y681206D01*
X215900Y682397D01*
X213935Y683420D01*
X211887Y684268D01*
X209774Y684935D01*
X207611Y685414D01*
X205414Y685703D01*
X203200Y685800D01*
X25400Y685800D01*
X23186Y685703D01*
X20989Y685414D01*
X18826Y684935D01*
X16713Y684268D01*
X14666Y683420D01*
X12700Y682397D01*
X10831Y681206D01*
X9073Y679858D01*
X7440Y678361D01*
X5942Y676727D01*
X4594Y674969D01*
X3403Y673100D01*
X2380Y671135D01*
X1532Y669087D01*
X865Y666974D01*
X386Y664811D01*
X97Y662614D01*
X0Y660400D01*
X0Y25400D01*
X154500Y47326D02*
X154511Y47065D01*
X154546Y46805D01*
X154602Y46550D01*
X154681Y46300D01*
X154781Y46058D01*
X154902Y45826D01*
X155043Y45605D01*
X155202Y45398D01*
X155379Y45205D01*
X155572Y45028D01*
X155779Y44869D01*
X156000Y44728D01*
X156232Y44607D01*
X156474Y44507D01*
X156724Y44428D01*
X156979Y44372D01*
X157239Y44337D01*
X157500Y44326D01*
X157761Y44337D01*
X158021Y44372D01*
X158276Y44428D01*
X158526Y44507D01*
X158768Y44607D01*
X159000Y44728D01*
X159221Y44869D01*
X159428Y45028D01*
X159621Y45205D01*
X159798Y45398D01*
X159957Y45605D01*
X160098Y45826D01*
X160219Y46058D01*
X160319Y46300D01*
X160398Y46550D01*
X160454Y46805D01*
X160489Y47065D01*
X160500Y47326D01*
X160500Y58326D01*
X160489Y58587D01*
X160454Y58847D01*
X160398Y59102D01*
X160319Y59352D01*
X160219Y59594D01*
X160098Y59826D01*
X159957Y60047D01*
X159798Y60254D01*
X159621Y60447D01*
X159428Y60624D01*
X159221Y60783D01*
X159000Y60924D01*
X158768Y61045D01*
X158526Y61145D01*
X158276Y61224D01*
X158021Y61280D01*
X157761Y61315D01*
X157500Y61326D01*
X157239Y61315D01*
X156979Y61280D01*
X156724Y61224D01*
X156474Y61145D01*
X156232Y61045D01*
X156000Y60924D01*
X155779Y60783D01*
X155572Y60624D01*
X155379Y60447D01*
X155202Y60254D01*
X155043Y60047D01*
X154902Y59826D01*
X154781Y59594D01*
X154681Y59352D01*
X154602Y59102D01*
X154546Y58847D01*
X154511Y58587D01*
X154500Y58326D01*
X154500Y47326D01*
X154500Y7976D02*
X154511Y7715D01*
X154546Y7455D01*
X154602Y7200D01*
X154681Y6950D01*
X154781Y6708D01*
X154902Y6476D01*
X155043Y6255D01*
X155202Y6048D01*
X155379Y5855D01*
X155572Y5678D01*
X155779Y5519D01*
X156000Y5378D01*
X156232Y5257D01*
X156474Y5157D01*
X156724Y5078D01*
X156979Y5022D01*
X157239Y4987D01*
X157500Y4976D01*
X157761Y4987D01*
X158021Y5022D01*
X158276Y5078D01*
X158526Y5157D01*
X158768Y5257D01*
X159000Y5378D01*
X159221Y5519D01*
X159428Y5678D01*
X159621Y5855D01*
X159798Y6048D01*
X159957Y6255D01*
X160098Y6476D01*
X160219Y6708D01*
X160319Y6950D01*
X160398Y7200D01*
X160454Y7455D01*
X160489Y7715D01*
X160500Y7976D01*
X160500Y14176D01*
X160489Y14437D01*
X160454Y14697D01*
X160398Y14952D01*
X160319Y15202D01*
X160219Y15444D01*
X160098Y15676D01*
X159957Y15897D01*
X159798Y16104D01*
X159621Y16297D01*
X159428Y16474D01*
X159221Y16633D01*
X159000Y16774D01*
X158768Y16895D01*
X158526Y16995D01*
X158276Y17074D01*
X158021Y17130D01*
X157761Y17165D01*
X157500Y17176D01*
X157239Y17165D01*
X156979Y17130D01*
X156724Y17074D01*
X156474Y16995D01*
X156232Y16895D01*
X156000Y16774D01*
X155779Y16633D01*
X155572Y16474D01*
X155379Y16297D01*
X155202Y16104D01*
X155043Y15897D01*
X154902Y15676D01*
X154781Y15444D01*
X154681Y15202D01*
X154602Y14952D01*
X154546Y14697D01*
X154511Y14437D01*
X154500Y14176D01*
X154500Y7976D01*
X68100Y7976D02*
X68111Y7715D01*
X68146Y7455D01*
X68202Y7200D01*
X68281Y6950D01*
X68381Y6708D01*
X68502Y6476D01*
X68643Y6255D01*
X68802Y6048D01*
X68979Y5855D01*
X69172Y5678D01*
X69379Y5519D01*
X69600Y5378D01*
X69832Y5257D01*
X70074Y5157D01*
X70324Y5078D01*
X70579Y5022D01*
X70839Y4987D01*
X71100Y4976D01*
X71361Y4987D01*
X71621Y5022D01*
X71876Y5078D01*
X72126Y5157D01*
X72368Y5257D01*
X72600Y5378D01*
X72821Y5519D01*
X73028Y5678D01*
X73221Y5855D01*
X73398Y6048D01*
X73557Y6255D01*
X73698Y6476D01*
X73819Y6708D01*
X73919Y6950D01*
X73998Y7200D01*
X74054Y7455D01*
X74089Y7715D01*
X74100Y7976D01*
X74100Y14176D01*
X74089Y14437D01*
X74054Y14697D01*
X73998Y14952D01*
X73919Y15202D01*
X73819Y15444D01*
X73698Y15676D01*
X73557Y15897D01*
X73398Y16104D01*
X73221Y16297D01*
X73028Y16474D01*
X72821Y16633D01*
X72600Y16774D01*
X72368Y16895D01*
X72126Y16995D01*
X71876Y17074D01*
X71621Y17130D01*
X71361Y17165D01*
X71100Y17176D01*
X70839Y17165D01*
X70579Y17130D01*
X70324Y17074D01*
X70074Y16995D01*
X69832Y16895D01*
X69600Y16774D01*
X69379Y16633D01*
X69172Y16474D01*
X68979Y16297D01*
X68802Y16104D01*
X68643Y15897D01*
X68502Y15676D01*
X68381Y15444D01*
X68281Y15202D01*
X68202Y14952D01*
X68146Y14697D01*
X68111Y14437D01*
X68100Y14176D01*
X68100Y7976D01*
X68100Y47326D02*
X68111Y47065D01*
X68146Y46805D01*
X68202Y46550D01*
X68281Y46300D01*
X68381Y46058D01*
X68502Y45826D01*
X68643Y45605D01*
X68802Y45398D01*
X68979Y45205D01*
X69172Y45028D01*
X69379Y44869D01*
X69600Y44728D01*
X69832Y44607D01*
X70074Y44507D01*
X70324Y44428D01*
X70579Y44372D01*
X70839Y44337D01*
X71100Y44326D01*
X71361Y44337D01*
X71621Y44372D01*
X71876Y44428D01*
X72126Y44507D01*
X72368Y44607D01*
X72600Y44728D01*
X72821Y44869D01*
X73028Y45028D01*
X73221Y45205D01*
X73398Y45398D01*
X73557Y45605D01*
X73698Y45826D01*
X73819Y46058D01*
X73919Y46300D01*
X73998Y46550D01*
X74054Y46805D01*
X74089Y47065D01*
X74100Y47326D01*
X74100Y58326D01*
X74089Y58587D01*
X74054Y58847D01*
X73998Y59102D01*
X73919Y59352D01*
X73819Y59594D01*
X73698Y59826D01*
X73557Y60047D01*
X73398Y60254D01*
X73221Y60447D01*
X73028Y60624D01*
X72821Y60783D01*
X72600Y60924D01*
X72368Y61045D01*
X72126Y61145D01*
X71876Y61224D01*
X71621Y61280D01*
X71361Y61315D01*
X71100Y61326D01*
X70839Y61315D01*
X70579Y61280D01*
X70324Y61224D01*
X70074Y61145D01*
X69832Y61045D01*
X69600Y60924D01*
X69379Y60783D01*
X69172Y60624D01*
X68979Y60447D01*
X68802Y60254D01*
X68643Y60047D01*
X68502Y59826D01*
X68381Y59594D01*
X68281Y59352D01*
X68202Y59102D01*
X68146Y58847D01*
X68111Y58587D01*
X68100Y58326D01*
X68100Y47326D01*
X88650Y47313D02*
X88594Y46891D01*
X88484Y46479D01*
X88321Y46085D01*
X88108Y45717D01*
X87849Y45379D01*
X87547Y45077D01*
X87209Y44818D01*
X86841Y44605D01*
X86447Y44442D01*
X86035Y44332D01*
X85613Y44276D01*
X85187Y44276D01*
X84765Y44332D01*
X84353Y44442D01*
X83959Y44605D01*
X83591Y44818D01*
X83253Y45077D01*
X82951Y45379D01*
X82692Y45717D01*
X82479Y46085D01*
X82316Y46479D01*
X82206Y46891D01*
X82150Y47313D01*
X82150Y47739D01*
X82206Y48161D01*
X82316Y48573D01*
X82479Y48967D01*
X82692Y49335D01*
X82951Y49673D01*
X83253Y49975D01*
X83591Y50234D01*
X83959Y50447D01*
X84353Y50610D01*
X84765Y50720D01*
X85187Y50776D01*
X85613Y50776D01*
X86035Y50720D01*
X86447Y50610D01*
X86841Y50447D01*
X87209Y50234D01*
X87547Y49975D01*
X87849Y49673D01*
X88108Y49335D01*
X88321Y48967D01*
X88484Y48573D01*
X88594Y48161D01*
X88650Y47739D01*
X88650Y47313D01*
X146450Y47313D02*
X146394Y46891D01*
X146284Y46479D01*
X146121Y46085D01*
X145908Y45717D01*
X145649Y45379D01*
X145347Y45077D01*
X145009Y44818D01*
X144641Y44605D01*
X144247Y44442D01*
X143835Y44332D01*
X143413Y44276D01*
X142987Y44276D01*
X142565Y44332D01*
X142153Y44442D01*
X141759Y44605D01*
X141391Y44818D01*
X141053Y45077D01*
X140751Y45379D01*
X140492Y45717D01*
X140279Y46085D01*
X140116Y46479D01*
X140006Y46891D01*
X139950Y47313D01*
X139950Y47739D01*
X140006Y48161D01*
X140116Y48573D01*
X140279Y48967D01*
X140492Y49335D01*
X140751Y49673D01*
X141053Y49975D01*
X141391Y50234D01*
X141759Y50447D01*
X142153Y50610D01*
X142565Y50720D01*
X142987Y50776D01*
X143413Y50776D01*
X143835Y50720D01*
X144247Y50610D01*
X144641Y50447D01*
X145009Y50234D01*
X145347Y49975D01*
X145649Y49673D01*
X145908Y49335D01*
X146121Y48967D01*
X146284Y48573D01*
X146394Y48161D01*
X146450Y47739D01*
X146450Y47313D01*
X40640Y24856D02*
X40562Y23770D01*
X40407Y22692D01*
X40176Y21629D01*
X39869Y20584D01*
X39489Y19564D01*
X39037Y18574D01*
X38515Y17619D01*
X37926Y16703D01*
X37274Y15831D01*
X36561Y15009D01*
X35791Y14239D01*
X34969Y13526D01*
X34097Y12874D01*
X33181Y12285D01*
X32226Y11763D01*
X31236Y11311D01*
X30216Y10931D01*
X29171Y10624D01*
X28108Y10393D01*
X27030Y10238D01*
X25944Y10160D01*
X24856Y10160D01*
X23770Y10238D01*
X22692Y10393D01*
X21629Y10624D01*
X20584Y10931D01*
X19564Y11311D01*
X18574Y11763D01*
X17619Y12285D01*
X16703Y12874D01*
X15831Y13526D01*
X15009Y14239D01*
X14239Y15009D01*
X13526Y15831D01*
X12874Y16703D01*
X12285Y17619D01*
X11763Y18574D01*
X11311Y19564D01*
X10931Y20584D01*
X10624Y21629D01*
X10393Y22692D01*
X10238Y23770D01*
X10160Y24856D01*
X10160Y25944D01*
X10238Y27030D01*
X10393Y28108D01*
X10624Y29171D01*
X10931Y30216D01*
X11311Y31236D01*
X11763Y32226D01*
X12285Y33181D01*
X12874Y34097D01*
X13526Y34969D01*
X14239Y35791D01*
X15009Y36561D01*
X15831Y37274D01*
X16703Y37926D01*
X17619Y38515D01*
X18574Y39037D01*
X19564Y39489D01*
X20584Y39869D01*
X21629Y40176D01*
X22692Y40407D01*
X23770Y40562D01*
X24856Y40640D01*
X25944Y40640D01*
X27030Y40562D01*
X28108Y40407D01*
X29171Y40176D01*
X30216Y39869D01*
X31236Y39489D01*
X32226Y39037D01*
X33181Y38515D01*
X34097Y37926D01*
X34969Y37274D01*
X35791Y36561D01*
X36561Y35791D01*
X37274Y34969D01*
X37926Y34097D01*
X38515Y33181D01*
X39037Y32226D01*
X39489Y31236D01*
X39869Y30216D01*
X40176Y29171D01*
X40407Y28108D01*
X40562Y27030D01*
X40640Y25944D01*
X40640Y24856D01*
X218440Y24856D02*
X218362Y23770D01*
X218207Y22692D01*
X217976Y21629D01*
X217669Y20584D01*
X217289Y19564D01*
X216837Y18574D01*
X216315Y17619D01*
X215726Y16703D01*
X215074Y15831D01*
X214361Y15009D01*
X213591Y14239D01*
X212769Y13526D01*
X211897Y12874D01*
X210981Y12285D01*
X210026Y11763D01*
X209036Y11311D01*
X208016Y10931D01*
X206971Y10624D01*
X205908Y10393D01*
X204830Y10238D01*
X203744Y10160D01*
X202656Y10160D01*
X201570Y10238D01*
X200492Y10393D01*
X199429Y10624D01*
X198384Y10931D01*
X197364Y11311D01*
X196374Y11763D01*
X195419Y12285D01*
X194503Y12874D01*
X193631Y13526D01*
X192809Y14239D01*
X192039Y15009D01*
X191326Y15831D01*
X190674Y16703D01*
X190085Y17619D01*
X189563Y18574D01*
X189111Y19564D01*
X188731Y20584D01*
X188424Y21629D01*
X188193Y22692D01*
X188038Y23770D01*
X187960Y24856D01*
X187960Y25944D01*
X188038Y27030D01*
X188193Y28108D01*
X188424Y29171D01*
X188731Y30216D01*
X189111Y31236D01*
X189563Y32226D01*
X190085Y33181D01*
X190674Y34097D01*
X191326Y34969D01*
X192039Y35791D01*
X192809Y36561D01*
X193631Y37274D01*
X194503Y37926D01*
X195419Y38515D01*
X196374Y39037D01*
X197364Y39489D01*
X198384Y39869D01*
X199429Y40176D01*
X200492Y40407D01*
X201570Y40562D01*
X202656Y40640D01*
X203744Y40640D01*
X204830Y40562D01*
X205908Y40407D01*
X206971Y40176D01*
X208016Y39869D01*
X209036Y39489D01*
X210026Y39037D01*
X210981Y38515D01*
X211897Y37926D01*
X212769Y37274D01*
X213591Y36561D01*
X214361Y35791D01*
X215074Y34969D01*
X215726Y34097D01*
X216315Y33181D01*
X216837Y32226D01*
X217289Y31236D01*
X217669Y30216D01*
X217976Y29171D01*
X218207Y28108D01*
X218362Y27030D01*
X218440Y25944D01*
X218440Y24856D01*
X40640Y558256D02*
X40562Y557170D01*
X40407Y556092D01*
X40176Y555029D01*
X39869Y553984D01*
X39489Y552964D01*
X39037Y551974D01*
X38515Y551019D01*
X37926Y550103D01*
X37274Y549231D01*
X36561Y548409D01*
X35791Y547639D01*
X34969Y546926D01*
X34097Y546274D01*
X33181Y545685D01*
X32226Y545163D01*
X31236Y544711D01*
X30216Y544331D01*
X29171Y544024D01*
X28108Y543793D01*
X27030Y543638D01*
X25944Y543560D01*
X24856Y543560D01*
X23770Y543638D01*
X22692Y543793D01*
X21629Y544024D01*
X20584Y544331D01*
X19564Y544711D01*
X18574Y545163D01*
X17619Y545685D01*
X16703Y546274D01*
X15831Y546926D01*
X15009Y547639D01*
X14239Y548409D01*
X13526Y549231D01*
X12874Y550103D01*
X12285Y551019D01*
X11763Y551974D01*
X11311Y552964D01*
X10931Y553984D01*
X10624Y555029D01*
X10393Y556092D01*
X10238Y557170D01*
X10160Y558256D01*
X10160Y559344D01*
X10238Y560430D01*
X10393Y561508D01*
X10624Y562571D01*
X10931Y563616D01*
X11311Y564636D01*
X11763Y565626D01*
X12285Y566581D01*
X12874Y567497D01*
X13526Y568369D01*
X14239Y569191D01*
X15009Y569961D01*
X15831Y570674D01*
X16703Y571326D01*
X17619Y571915D01*
X18574Y572437D01*
X19564Y572889D01*
X20584Y573269D01*
X21629Y573576D01*
X22692Y573807D01*
X23770Y573962D01*
X24856Y574040D01*
X25944Y574040D01*
X27030Y573962D01*
X28108Y573807D01*
X29171Y573576D01*
X30216Y573269D01*
X31236Y572889D01*
X32226Y572437D01*
X33181Y571915D01*
X34097Y571326D01*
X34969Y570674D01*
X35791Y569961D01*
X36561Y569191D01*
X37274Y568369D01*
X37926Y567497D01*
X38515Y566581D01*
X39037Y565626D01*
X39489Y564636D01*
X39869Y563616D01*
X40176Y562571D01*
X40407Y561508D01*
X40562Y560430D01*
X40640Y559344D01*
X40640Y558256D01*
X218440Y558256D02*
X218362Y557170D01*
X218207Y556092D01*
X217976Y555029D01*
X217669Y553984D01*
X217289Y552964D01*
X216837Y551974D01*
X216315Y551019D01*
X215726Y550103D01*
X215074Y549231D01*
X214361Y548409D01*
X213591Y547639D01*
X212769Y546926D01*
X211897Y546274D01*
X210981Y545685D01*
X210026Y545163D01*
X209036Y544711D01*
X208016Y544331D01*
X206971Y544024D01*
X205908Y543793D01*
X204830Y543638D01*
X203744Y543560D01*
X202656Y543560D01*
X201570Y543638D01*
X200492Y543793D01*
X199429Y544024D01*
X198384Y544331D01*
X197364Y544711D01*
X196374Y545163D01*
X195419Y545685D01*
X194503Y546274D01*
X193631Y546926D01*
X192809Y547639D01*
X192039Y548409D01*
X191326Y549231D01*
X190674Y550103D01*
X190085Y551019D01*
X189563Y551974D01*
X189111Y552964D01*
X188731Y553984D01*
X188424Y555029D01*
X188193Y556092D01*
X188038Y557170D01*
X187960Y558256D01*
X187960Y559344D01*
X188038Y560430D01*
X188193Y561508D01*
X188424Y562571D01*
X188731Y563616D01*
X189111Y564636D01*
X189563Y565626D01*
X190085Y566581D01*
X190674Y567497D01*
X191326Y568369D01*
X192039Y569191D01*
X192809Y569961D01*
X193631Y570674D01*
X194503Y571326D01*
X195419Y571915D01*
X196374Y572437D01*
X197364Y572889D01*
X198384Y573269D01*
X199429Y573576D01*
X200492Y573807D01*
X201570Y573962D01*
X202656Y574040D01*
X203744Y574040D01*
X204830Y573962D01*
X205908Y573807D01*
X206971Y573576D01*
X208016Y573269D01*
X209036Y572889D01*
X210026Y572437D01*
X210981Y571915D01*
X211897Y571326D01*
X212769Y570674D01*
X213591Y569961D01*
X214361Y569191D01*
X215074Y568369D01*
X215726Y567497D01*
X216315Y566581D01*
X216837Y565626D01*
X217289Y564636D01*
X217669Y563616D01*
X217976Y562571D01*
X218207Y561508D01*
X218362Y560430D01*
X218440Y559344D01*
X218440Y558256D01*
M02*
