G04 EAGLE Gerber RS-274X export*
G75*
%MOMM*%
%FSLAX34Y34*%
%LPD*%
%INSoldermask Top*%
%IPPOS*%
%AMOC8*
5,1,8,0,0,1.08239X$1,22.5*%
G01*
%ADD10C,2.006600*%
%ADD11C,0.230578*%
%ADD12C,0.225369*%
%ADD13C,0.777000*%
%ADD14C,0.229969*%
%ADD15C,0.225400*%
%ADD16C,0.224509*%
%ADD17C,0.428259*%
%ADD18C,0.225588*%
%ADD19C,3.175000*%
%ADD20C,0.762000*%
%ADD21R,0.350000X1.200000*%
%ADD22R,1.200000X0.350000*%
%ADD23C,0.220859*%
%ADD24C,0.225938*%
%ADD25C,0.231559*%
%ADD26C,0.231750*%

G36*
X158784Y41359D02*
X158784Y41359D01*
X158790Y41365D01*
X158795Y41361D01*
X160025Y41726D01*
X160030Y41733D01*
X160035Y41731D01*
X161154Y42361D01*
X161157Y42368D01*
X161163Y42367D01*
X162113Y43230D01*
X162114Y43238D01*
X162120Y43238D01*
X162854Y44291D01*
X162854Y44299D01*
X162859Y44301D01*
X163341Y45491D01*
X163339Y45496D01*
X163343Y45499D01*
X163342Y45500D01*
X163344Y45501D01*
X163549Y46768D01*
X163546Y46773D01*
X163549Y46776D01*
X163549Y58776D01*
X163546Y58780D01*
X163549Y58783D01*
X163394Y59905D01*
X163389Y59910D01*
X163392Y59914D01*
X163021Y60985D01*
X163015Y60989D01*
X163017Y60994D01*
X162444Y61971D01*
X162438Y61974D01*
X162439Y61979D01*
X161686Y62826D01*
X161679Y62828D01*
X161679Y62833D01*
X160776Y63517D01*
X160769Y63517D01*
X160768Y63522D01*
X159749Y64017D01*
X159742Y64015D01*
X159740Y64020D01*
X158643Y64307D01*
X158637Y64304D01*
X158634Y64308D01*
X157503Y64375D01*
X157497Y64375D01*
X156366Y64308D01*
X156361Y64303D01*
X156357Y64307D01*
X155260Y64020D01*
X155256Y64014D01*
X155251Y64017D01*
X154232Y63522D01*
X154229Y63516D01*
X154224Y63517D01*
X153321Y62833D01*
X153319Y62826D01*
X153314Y62826D01*
X152561Y61979D01*
X152561Y61972D01*
X152556Y61971D01*
X151983Y60994D01*
X151984Y60991D01*
X151983Y60990D01*
X151984Y60989D01*
X151984Y60987D01*
X151979Y60985D01*
X151608Y59914D01*
X151610Y59909D01*
X151607Y59907D01*
X151607Y59906D01*
X151606Y59905D01*
X151451Y58783D01*
X151454Y58778D01*
X151451Y58776D01*
X151451Y46776D01*
X151454Y46771D01*
X151451Y46768D01*
X151656Y45501D01*
X151662Y45495D01*
X151659Y45491D01*
X152141Y44301D01*
X152148Y44297D01*
X152146Y44291D01*
X152880Y43238D01*
X152888Y43236D01*
X152887Y43230D01*
X153837Y42367D01*
X153846Y42366D01*
X153846Y42361D01*
X154965Y41731D01*
X154973Y41732D01*
X154975Y41726D01*
X156205Y41361D01*
X156213Y41364D01*
X156216Y41359D01*
X157497Y41277D01*
X157501Y41280D01*
X157503Y41277D01*
X158784Y41359D01*
G37*
G36*
X72384Y41359D02*
X72384Y41359D01*
X72390Y41365D01*
X72395Y41361D01*
X73625Y41726D01*
X73630Y41733D01*
X73635Y41731D01*
X74754Y42361D01*
X74757Y42368D01*
X74763Y42367D01*
X75713Y43230D01*
X75714Y43238D01*
X75720Y43238D01*
X76454Y44291D01*
X76454Y44299D01*
X76459Y44301D01*
X76941Y45491D01*
X76939Y45496D01*
X76943Y45499D01*
X76942Y45500D01*
X76944Y45501D01*
X77149Y46768D01*
X77146Y46773D01*
X77149Y46776D01*
X77149Y58776D01*
X77146Y58780D01*
X77149Y58783D01*
X76994Y59905D01*
X76989Y59910D01*
X76992Y59914D01*
X76621Y60985D01*
X76615Y60989D01*
X76617Y60994D01*
X76044Y61971D01*
X76038Y61974D01*
X76039Y61979D01*
X75286Y62826D01*
X75279Y62828D01*
X75279Y62833D01*
X74376Y63517D01*
X74369Y63517D01*
X74368Y63522D01*
X73349Y64017D01*
X73342Y64015D01*
X73340Y64020D01*
X72243Y64307D01*
X72237Y64304D01*
X72234Y64308D01*
X71103Y64375D01*
X71097Y64375D01*
X69966Y64308D01*
X69961Y64303D01*
X69957Y64307D01*
X68860Y64020D01*
X68856Y64014D01*
X68851Y64017D01*
X67832Y63522D01*
X67829Y63516D01*
X67824Y63517D01*
X66921Y62833D01*
X66919Y62826D01*
X66914Y62826D01*
X66161Y61979D01*
X66161Y61972D01*
X66156Y61971D01*
X65583Y60994D01*
X65584Y60991D01*
X65583Y60990D01*
X65584Y60989D01*
X65584Y60987D01*
X65579Y60985D01*
X65208Y59914D01*
X65210Y59909D01*
X65207Y59907D01*
X65207Y59906D01*
X65206Y59905D01*
X65051Y58783D01*
X65054Y58778D01*
X65051Y58776D01*
X65051Y46776D01*
X65054Y46771D01*
X65051Y46768D01*
X65256Y45501D01*
X65262Y45495D01*
X65259Y45491D01*
X65741Y44301D01*
X65748Y44297D01*
X65746Y44291D01*
X66480Y43238D01*
X66488Y43236D01*
X66487Y43230D01*
X67437Y42367D01*
X67446Y42366D01*
X67446Y42361D01*
X68565Y41731D01*
X68573Y41732D01*
X68575Y41726D01*
X69805Y41361D01*
X69813Y41364D01*
X69816Y41359D01*
X71097Y41277D01*
X71101Y41280D01*
X71103Y41277D01*
X72384Y41359D01*
G37*
G36*
X158671Y2087D02*
X158671Y2087D01*
X158676Y2092D01*
X158680Y2089D01*
X159803Y2424D01*
X159807Y2430D01*
X159811Y2428D01*
X160847Y2976D01*
X160850Y2982D01*
X160855Y2981D01*
X161763Y3720D01*
X161765Y3727D01*
X161770Y3727D01*
X162517Y4629D01*
X162517Y4637D01*
X162523Y4637D01*
X163079Y5668D01*
X163078Y5675D01*
X163083Y5677D01*
X163427Y6796D01*
X163425Y6803D01*
X163429Y6806D01*
X163549Y7971D01*
X163547Y7974D01*
X163549Y7976D01*
X163549Y13976D01*
X163547Y13979D01*
X163549Y13981D01*
X163438Y15157D01*
X163433Y15162D01*
X163436Y15166D01*
X163098Y16298D01*
X163092Y16302D01*
X163094Y16307D01*
X162542Y17351D01*
X162535Y17354D01*
X162537Y17359D01*
X161791Y18275D01*
X161784Y18276D01*
X161784Y18282D01*
X160875Y19035D01*
X160867Y19035D01*
X160867Y19040D01*
X159827Y19601D01*
X159820Y19600D01*
X159818Y19605D01*
X158689Y19952D01*
X158683Y19950D01*
X158680Y19954D01*
X157505Y20075D01*
X157498Y20071D01*
X157494Y20075D01*
X156154Y19918D01*
X156148Y19913D01*
X156143Y19916D01*
X154872Y19465D01*
X154867Y19458D01*
X154862Y19460D01*
X153723Y18738D01*
X153720Y18730D01*
X153714Y18731D01*
X152764Y17773D01*
X152763Y17765D01*
X152757Y17764D01*
X152044Y16619D01*
X152045Y16611D01*
X152039Y16609D01*
X151599Y15333D01*
X151601Y15326D01*
X151597Y15323D01*
X151451Y13981D01*
X151453Y13978D01*
X151451Y13976D01*
X151451Y7976D01*
X151453Y7973D01*
X151451Y7970D01*
X151606Y6641D01*
X151612Y6635D01*
X151609Y6631D01*
X152056Y5370D01*
X152063Y5365D01*
X152061Y5360D01*
X152778Y4230D01*
X152785Y4227D01*
X152784Y4221D01*
X153735Y3279D01*
X153743Y3278D01*
X153743Y3272D01*
X154879Y2565D01*
X154887Y2566D01*
X154889Y2560D01*
X156154Y2124D01*
X156159Y2125D01*
X156160Y2125D01*
X156163Y2125D01*
X156165Y2121D01*
X157495Y1977D01*
X157501Y1981D01*
X157505Y1977D01*
X158671Y2087D01*
G37*
G36*
X72271Y2087D02*
X72271Y2087D01*
X72276Y2092D01*
X72280Y2089D01*
X73403Y2424D01*
X73407Y2430D01*
X73411Y2428D01*
X74447Y2976D01*
X74450Y2982D01*
X74455Y2981D01*
X75363Y3720D01*
X75365Y3727D01*
X75370Y3727D01*
X76117Y4629D01*
X76117Y4637D01*
X76123Y4637D01*
X76679Y5668D01*
X76678Y5675D01*
X76683Y5677D01*
X77027Y6796D01*
X77025Y6803D01*
X77029Y6806D01*
X77149Y7971D01*
X77147Y7974D01*
X77149Y7976D01*
X77149Y13976D01*
X77147Y13979D01*
X77149Y13981D01*
X77038Y15157D01*
X77033Y15162D01*
X77036Y15166D01*
X76698Y16298D01*
X76692Y16302D01*
X76694Y16307D01*
X76142Y17351D01*
X76135Y17354D01*
X76137Y17359D01*
X75391Y18275D01*
X75384Y18276D01*
X75384Y18282D01*
X74475Y19035D01*
X74467Y19035D01*
X74467Y19040D01*
X73427Y19601D01*
X73420Y19600D01*
X73418Y19605D01*
X72289Y19952D01*
X72283Y19950D01*
X72280Y19954D01*
X71105Y20075D01*
X71098Y20071D01*
X71094Y20075D01*
X69754Y19918D01*
X69748Y19913D01*
X69743Y19916D01*
X68472Y19465D01*
X68467Y19458D01*
X68462Y19460D01*
X67323Y18738D01*
X67320Y18730D01*
X67314Y18731D01*
X66364Y17773D01*
X66363Y17765D01*
X66357Y17764D01*
X65644Y16619D01*
X65645Y16611D01*
X65639Y16609D01*
X65199Y15333D01*
X65201Y15326D01*
X65197Y15323D01*
X65051Y13981D01*
X65053Y13978D01*
X65051Y13976D01*
X65051Y7976D01*
X65053Y7973D01*
X65051Y7970D01*
X65206Y6641D01*
X65212Y6635D01*
X65209Y6631D01*
X65656Y5370D01*
X65663Y5365D01*
X65661Y5360D01*
X66378Y4230D01*
X66385Y4227D01*
X66384Y4221D01*
X67335Y3279D01*
X67343Y3278D01*
X67343Y3272D01*
X68479Y2565D01*
X68487Y2566D01*
X68489Y2560D01*
X69754Y2124D01*
X69759Y2125D01*
X69760Y2125D01*
X69763Y2125D01*
X69765Y2121D01*
X71095Y1977D01*
X71101Y1981D01*
X71105Y1977D01*
X72271Y2087D01*
G37*
D10*
X215900Y520700D03*
X215900Y495300D03*
X215900Y469900D03*
X215900Y444500D03*
X215900Y419100D03*
X215900Y393700D03*
X215900Y368300D03*
X215900Y342900D03*
X215900Y317500D03*
X215900Y292100D03*
X215900Y266700D03*
X215900Y241300D03*
X215900Y215900D03*
X215900Y190500D03*
X215900Y165100D03*
X215900Y139700D03*
X12700Y241300D03*
X12700Y266700D03*
X12700Y292100D03*
X12700Y317500D03*
X12700Y342900D03*
X12700Y368300D03*
X12700Y393700D03*
X12700Y419100D03*
X12700Y444500D03*
X12700Y469900D03*
X12700Y495300D03*
X12700Y520700D03*
D11*
X120818Y54094D02*
X122782Y54094D01*
X120818Y54094D02*
X120818Y63058D01*
X122782Y63058D01*
X122782Y54094D01*
X122782Y56285D02*
X120818Y56285D01*
X120818Y58476D02*
X122782Y58476D01*
X122782Y60667D02*
X120818Y60667D01*
X120818Y62858D02*
X122782Y62858D01*
X117782Y54094D02*
X115818Y54094D01*
X115818Y63058D01*
X117782Y63058D01*
X117782Y54094D01*
X117782Y56285D02*
X115818Y56285D01*
X115818Y58476D02*
X117782Y58476D01*
X117782Y60667D02*
X115818Y60667D01*
X115818Y62858D02*
X117782Y62858D01*
D12*
X144042Y54068D02*
X149058Y54068D01*
X144042Y54068D02*
X144042Y63084D01*
X149058Y63084D01*
X149058Y54068D01*
X149058Y56209D02*
X144042Y56209D01*
X144042Y58350D02*
X149058Y58350D01*
X149058Y60491D02*
X144042Y60491D01*
X144042Y62632D02*
X149058Y62632D01*
X141308Y54068D02*
X136292Y54068D01*
X136292Y63084D01*
X141308Y63084D01*
X141308Y54068D01*
X141308Y56209D02*
X136292Y56209D01*
X136292Y58350D02*
X141308Y58350D01*
X141308Y60491D02*
X136292Y60491D01*
X136292Y62632D02*
X141308Y62632D01*
D11*
X132782Y54094D02*
X130818Y54094D01*
X130818Y63058D01*
X132782Y63058D01*
X132782Y54094D01*
X132782Y56285D02*
X130818Y56285D01*
X130818Y58476D02*
X132782Y58476D01*
X132782Y60667D02*
X130818Y60667D01*
X130818Y62858D02*
X132782Y62858D01*
X127782Y54094D02*
X125818Y54094D01*
X125818Y63058D01*
X127782Y63058D01*
X127782Y54094D01*
X127782Y56285D02*
X125818Y56285D01*
X125818Y58476D02*
X127782Y58476D01*
X127782Y60667D02*
X125818Y60667D01*
X125818Y62858D02*
X127782Y62858D01*
X107782Y63058D02*
X105818Y63058D01*
X107782Y63058D02*
X107782Y54094D01*
X105818Y54094D01*
X105818Y63058D01*
X105818Y56285D02*
X107782Y56285D01*
X107782Y58476D02*
X105818Y58476D01*
X105818Y60667D02*
X107782Y60667D01*
X107782Y62858D02*
X105818Y62858D01*
X110818Y63058D02*
X112782Y63058D01*
X112782Y54094D01*
X110818Y54094D01*
X110818Y63058D01*
X110818Y56285D02*
X112782Y56285D01*
X112782Y58476D02*
X110818Y58476D01*
X110818Y60667D02*
X112782Y60667D01*
X112782Y62858D02*
X110818Y62858D01*
D12*
X84558Y63084D02*
X79542Y63084D01*
X84558Y63084D02*
X84558Y54068D01*
X79542Y54068D01*
X79542Y63084D01*
X79542Y56209D02*
X84558Y56209D01*
X84558Y58350D02*
X79542Y58350D01*
X79542Y60491D02*
X84558Y60491D01*
X84558Y62632D02*
X79542Y62632D01*
X87292Y63084D02*
X92308Y63084D01*
X92308Y54068D01*
X87292Y54068D01*
X87292Y63084D01*
X87292Y56209D02*
X92308Y56209D01*
X92308Y58350D02*
X87292Y58350D01*
X87292Y60491D02*
X92308Y60491D01*
X92308Y62632D02*
X87292Y62632D01*
D11*
X95818Y63058D02*
X97782Y63058D01*
X97782Y54094D01*
X95818Y54094D01*
X95818Y63058D01*
X95818Y56285D02*
X97782Y56285D01*
X97782Y58476D02*
X95818Y58476D01*
X95818Y60667D02*
X97782Y60667D01*
X97782Y62858D02*
X95818Y62858D01*
X100818Y63058D02*
X102782Y63058D01*
X102782Y54094D01*
X100818Y54094D01*
X100818Y63058D01*
X100818Y56285D02*
X102782Y56285D01*
X102782Y58476D02*
X100818Y58476D01*
X100818Y60667D02*
X102782Y60667D01*
X102782Y62858D02*
X100818Y62858D01*
D13*
X85400Y47526D03*
X143200Y47526D03*
D14*
X110035Y82915D02*
X110035Y87985D01*
X110035Y82915D02*
X108565Y82915D01*
X108565Y87985D01*
X110035Y87985D01*
X110035Y85100D02*
X108565Y85100D01*
X108565Y87285D02*
X110035Y87285D01*
X115035Y87485D02*
X115035Y82915D01*
X113565Y82915D01*
X113565Y87485D01*
X115035Y87485D01*
X115035Y85100D02*
X113565Y85100D01*
X113565Y87285D02*
X115035Y87285D01*
X120035Y87485D02*
X120035Y82915D01*
X118565Y82915D01*
X118565Y87485D01*
X120035Y87485D01*
X120035Y85100D02*
X118565Y85100D01*
X118565Y87285D02*
X120035Y87285D01*
X118565Y91515D02*
X118565Y96085D01*
X120035Y96085D01*
X120035Y91515D01*
X118565Y91515D01*
X118565Y93700D02*
X120035Y93700D01*
X120035Y95885D02*
X118565Y95885D01*
X113565Y96085D02*
X113565Y91515D01*
X113565Y96085D02*
X115035Y96085D01*
X115035Y91515D01*
X113565Y91515D01*
X113565Y93700D02*
X115035Y93700D01*
X115035Y95885D02*
X113565Y95885D01*
X108565Y96085D02*
X108565Y91515D01*
X108565Y96085D02*
X110035Y96085D01*
X110035Y91515D01*
X108565Y91515D01*
X108565Y93700D02*
X110035Y93700D01*
X110035Y95885D02*
X108565Y95885D01*
D15*
X95068Y163292D02*
X95068Y172308D01*
X95068Y163292D02*
X50052Y163292D01*
X50052Y172308D01*
X95068Y172308D01*
X95068Y165433D02*
X50052Y165433D01*
X50052Y167574D02*
X95068Y167574D01*
X95068Y169715D02*
X50052Y169715D01*
X50052Y171856D02*
X95068Y171856D01*
X95068Y183292D02*
X95068Y192308D01*
X95068Y183292D02*
X50052Y183292D01*
X50052Y192308D01*
X95068Y192308D01*
X95068Y185433D02*
X50052Y185433D01*
X50052Y187574D02*
X95068Y187574D01*
X95068Y189715D02*
X50052Y189715D01*
X50052Y191856D02*
X95068Y191856D01*
D16*
X37073Y151313D02*
X4047Y151313D01*
X37073Y151313D02*
X37073Y136287D01*
X4047Y136287D01*
X4047Y151313D01*
X4047Y138420D02*
X37073Y138420D01*
X37073Y140553D02*
X4047Y140553D01*
X4047Y142686D02*
X37073Y142686D01*
X37073Y144819D02*
X4047Y144819D01*
X4047Y146952D02*
X37073Y146952D01*
X37073Y149085D02*
X4047Y149085D01*
X4047Y151218D02*
X37073Y151218D01*
X37073Y219313D02*
X4047Y219313D01*
X37073Y219313D02*
X37073Y204287D01*
X4047Y204287D01*
X4047Y219313D01*
X4047Y206420D02*
X37073Y206420D01*
X37073Y208553D02*
X4047Y208553D01*
X4047Y210686D02*
X37073Y210686D01*
X37073Y212819D02*
X4047Y212819D01*
X4047Y214952D02*
X37073Y214952D01*
X37073Y217085D02*
X4047Y217085D01*
X4047Y219218D02*
X37073Y219218D01*
D17*
X107506Y172524D02*
X114494Y172524D01*
X114494Y165536D01*
X107506Y165536D01*
X107506Y172524D01*
X107506Y169605D02*
X114494Y169605D01*
X114494Y190064D02*
X107506Y190064D01*
X114494Y190064D02*
X114494Y183076D01*
X107506Y183076D01*
X107506Y190064D01*
X107506Y187145D02*
X114494Y187145D01*
D12*
X169492Y57508D02*
X169492Y52492D01*
X169492Y57508D02*
X174508Y57508D01*
X174508Y52492D01*
X169492Y52492D01*
X169492Y54633D02*
X174508Y54633D01*
X174508Y56774D02*
X169492Y56774D01*
X169492Y47508D02*
X169492Y42492D01*
X169492Y47508D02*
X174508Y47508D01*
X174508Y42492D01*
X169492Y42492D01*
X169492Y44633D02*
X174508Y44633D01*
X174508Y46774D02*
X169492Y46774D01*
X54492Y52492D02*
X54492Y57508D01*
X59508Y57508D01*
X59508Y52492D01*
X54492Y52492D01*
X54492Y54633D02*
X59508Y54633D01*
X59508Y56774D02*
X54492Y56774D01*
X54492Y47508D02*
X54492Y42492D01*
X54492Y47508D02*
X59508Y47508D01*
X59508Y42492D01*
X54492Y42492D01*
X54492Y44633D02*
X59508Y44633D01*
X59508Y46774D02*
X54492Y46774D01*
D18*
X4543Y111393D02*
X4543Y122407D01*
X23557Y122407D01*
X23557Y111393D01*
X4543Y111393D01*
X4543Y113536D02*
X23557Y113536D01*
X23557Y115679D02*
X4543Y115679D01*
X4543Y117822D02*
X23557Y117822D01*
X23557Y119965D02*
X4543Y119965D01*
X4543Y122108D02*
X23557Y122108D01*
X4543Y66407D02*
X4543Y55393D01*
X4543Y66407D02*
X23557Y66407D01*
X23557Y55393D01*
X4543Y55393D01*
X4543Y57536D02*
X23557Y57536D01*
X23557Y59679D02*
X4543Y59679D01*
X4543Y61822D02*
X23557Y61822D01*
X23557Y63965D02*
X4543Y63965D01*
X4543Y66108D02*
X23557Y66108D01*
D12*
X44542Y101392D02*
X44542Y106408D01*
X57058Y106408D01*
X57058Y101392D01*
X44542Y101392D01*
X44542Y103533D02*
X57058Y103533D01*
X57058Y105674D02*
X44542Y105674D01*
X44542Y96408D02*
X44542Y91392D01*
X44542Y96408D02*
X57058Y96408D01*
X57058Y91392D01*
X44542Y91392D01*
X44542Y93533D02*
X57058Y93533D01*
X57058Y95674D02*
X44542Y95674D01*
X44542Y86408D02*
X44542Y81392D01*
X44542Y86408D02*
X57058Y86408D01*
X57058Y81392D01*
X44542Y81392D01*
X44542Y83533D02*
X57058Y83533D01*
X57058Y85674D02*
X44542Y85674D01*
X44542Y76408D02*
X44542Y71392D01*
X44542Y76408D02*
X57058Y76408D01*
X57058Y71392D01*
X44542Y71392D01*
X44542Y73533D02*
X57058Y73533D01*
X57058Y75674D02*
X44542Y75674D01*
D19*
X25400Y25400D03*
X203200Y25400D03*
D20*
X45000Y7500D03*
X220000Y665000D03*
D15*
X56808Y662292D02*
X56808Y671308D01*
X56808Y662292D02*
X46792Y662292D01*
X46792Y671308D01*
X56808Y671308D01*
X56808Y664433D02*
X46792Y664433D01*
X46792Y666574D02*
X56808Y666574D01*
X56808Y668715D02*
X46792Y668715D01*
X46792Y670856D02*
X56808Y670856D01*
X66308Y656308D02*
X66308Y647292D01*
X47292Y647292D01*
X47292Y656308D01*
X66308Y656308D01*
X66308Y649433D02*
X47292Y649433D01*
X47292Y651574D02*
X66308Y651574D01*
X66308Y653715D02*
X47292Y653715D01*
X47292Y655856D02*
X66308Y655856D01*
X66308Y641308D02*
X66308Y632292D01*
X47292Y632292D01*
X47292Y641308D01*
X66308Y641308D01*
X66308Y634433D02*
X47292Y634433D01*
X47292Y636574D02*
X66308Y636574D01*
X66308Y638715D02*
X47292Y638715D01*
X47292Y640856D02*
X66308Y640856D01*
X66308Y626308D02*
X66308Y617292D01*
X47292Y617292D01*
X47292Y626308D01*
X66308Y626308D01*
X66308Y619433D02*
X47292Y619433D01*
X47292Y621574D02*
X66308Y621574D01*
X66308Y623715D02*
X47292Y623715D01*
X47292Y625856D02*
X66308Y625856D01*
X66308Y611308D02*
X66308Y602292D01*
X47292Y602292D01*
X47292Y611308D01*
X66308Y611308D01*
X66308Y604433D02*
X47292Y604433D01*
X47292Y606574D02*
X66308Y606574D01*
X66308Y608715D02*
X47292Y608715D01*
X47292Y610856D02*
X66308Y610856D01*
X72292Y598808D02*
X81308Y598808D01*
X81308Y579792D01*
X72292Y579792D01*
X72292Y598808D01*
X72292Y581933D02*
X81308Y581933D01*
X81308Y584074D02*
X72292Y584074D01*
X72292Y586215D02*
X81308Y586215D01*
X81308Y588356D02*
X72292Y588356D01*
X72292Y590497D02*
X81308Y590497D01*
X81308Y592638D02*
X72292Y592638D01*
X72292Y594779D02*
X81308Y594779D01*
X81308Y596920D02*
X72292Y596920D01*
X87292Y598808D02*
X96308Y598808D01*
X96308Y579792D01*
X87292Y579792D01*
X87292Y598808D01*
X87292Y581933D02*
X96308Y581933D01*
X96308Y584074D02*
X87292Y584074D01*
X87292Y586215D02*
X96308Y586215D01*
X96308Y588356D02*
X87292Y588356D01*
X87292Y590497D02*
X96308Y590497D01*
X96308Y592638D02*
X87292Y592638D01*
X87292Y594779D02*
X96308Y594779D01*
X96308Y596920D02*
X87292Y596920D01*
X102292Y598808D02*
X111308Y598808D01*
X111308Y579792D01*
X102292Y579792D01*
X102292Y598808D01*
X102292Y581933D02*
X111308Y581933D01*
X111308Y584074D02*
X102292Y584074D01*
X102292Y586215D02*
X111308Y586215D01*
X111308Y588356D02*
X102292Y588356D01*
X102292Y590497D02*
X111308Y590497D01*
X111308Y592638D02*
X102292Y592638D01*
X102292Y594779D02*
X111308Y594779D01*
X111308Y596920D02*
X102292Y596920D01*
X117292Y598808D02*
X126308Y598808D01*
X126308Y579792D01*
X117292Y579792D01*
X117292Y598808D01*
X117292Y581933D02*
X126308Y581933D01*
X126308Y584074D02*
X117292Y584074D01*
X117292Y586215D02*
X126308Y586215D01*
X126308Y588356D02*
X117292Y588356D01*
X117292Y590497D02*
X126308Y590497D01*
X126308Y592638D02*
X117292Y592638D01*
X117292Y594779D02*
X126308Y594779D01*
X126308Y596920D02*
X117292Y596920D01*
X132292Y598808D02*
X141308Y598808D01*
X141308Y579792D01*
X132292Y579792D01*
X132292Y598808D01*
X132292Y581933D02*
X141308Y581933D01*
X141308Y584074D02*
X132292Y584074D01*
X132292Y586215D02*
X141308Y586215D01*
X141308Y588356D02*
X132292Y588356D01*
X132292Y590497D02*
X141308Y590497D01*
X141308Y592638D02*
X132292Y592638D01*
X132292Y594779D02*
X141308Y594779D01*
X141308Y596920D02*
X132292Y596920D01*
X147292Y598808D02*
X156308Y598808D01*
X156308Y579792D01*
X147292Y579792D01*
X147292Y598808D01*
X147292Y581933D02*
X156308Y581933D01*
X156308Y584074D02*
X147292Y584074D01*
X147292Y586215D02*
X156308Y586215D01*
X156308Y588356D02*
X147292Y588356D01*
X147292Y590497D02*
X156308Y590497D01*
X156308Y592638D02*
X147292Y592638D01*
X147292Y594779D02*
X156308Y594779D01*
X156308Y596920D02*
X147292Y596920D01*
X162292Y602292D02*
X162292Y611308D01*
X181308Y611308D01*
X181308Y602292D01*
X162292Y602292D01*
X162292Y604433D02*
X181308Y604433D01*
X181308Y606574D02*
X162292Y606574D01*
X162292Y608715D02*
X181308Y608715D01*
X181308Y610856D02*
X162292Y610856D01*
X162292Y617292D02*
X162292Y626308D01*
X181308Y626308D01*
X181308Y617292D01*
X162292Y617292D01*
X162292Y619433D02*
X181308Y619433D01*
X181308Y621574D02*
X162292Y621574D01*
X162292Y623715D02*
X181308Y623715D01*
X181308Y625856D02*
X162292Y625856D01*
X162292Y632292D02*
X162292Y641308D01*
X181308Y641308D01*
X181308Y632292D01*
X162292Y632292D01*
X162292Y634433D02*
X181308Y634433D01*
X181308Y636574D02*
X162292Y636574D01*
X162292Y638715D02*
X181308Y638715D01*
X181308Y640856D02*
X162292Y640856D01*
X162292Y647292D02*
X162292Y656308D01*
X181308Y656308D01*
X181308Y647292D01*
X162292Y647292D01*
X162292Y649433D02*
X181308Y649433D01*
X181308Y651574D02*
X162292Y651574D01*
X162292Y653715D02*
X181308Y653715D01*
X181308Y655856D02*
X162292Y655856D01*
X162292Y662292D02*
X162292Y671308D01*
X181308Y671308D01*
X181308Y662292D01*
X162292Y662292D01*
X162292Y664433D02*
X181308Y664433D01*
X181308Y666574D02*
X162292Y666574D01*
X162292Y668715D02*
X181308Y668715D01*
X181308Y670856D02*
X162292Y670856D01*
D21*
X54300Y329500D03*
X59300Y329500D03*
X64300Y329500D03*
X69300Y329500D03*
X74300Y329500D03*
X79300Y329500D03*
X84300Y329500D03*
X89300Y329500D03*
X94300Y329500D03*
X99300Y329500D03*
X104300Y329500D03*
X109300Y329500D03*
X114300Y329500D03*
X119300Y329500D03*
X124300Y329500D03*
X129300Y329500D03*
X134300Y329500D03*
X139300Y329500D03*
X144300Y329500D03*
X149300Y329500D03*
X154300Y329500D03*
X159300Y329500D03*
X164300Y329500D03*
X169300Y329500D03*
X174300Y329500D03*
D22*
X189800Y345000D03*
X189800Y350000D03*
X189800Y355000D03*
X189800Y360000D03*
X189800Y365000D03*
X189800Y370000D03*
X189800Y375000D03*
X189800Y380000D03*
X189800Y385000D03*
X189800Y390000D03*
X189800Y395000D03*
X189800Y400000D03*
X189800Y405000D03*
X189800Y410000D03*
X189800Y415000D03*
X189800Y420000D03*
X189800Y425000D03*
X189800Y430000D03*
X189800Y435000D03*
X189800Y440000D03*
X189800Y445000D03*
X189800Y450000D03*
X189800Y455000D03*
X189800Y460000D03*
X189800Y465000D03*
D21*
X174300Y480500D03*
X169300Y480500D03*
X164300Y480500D03*
X159300Y480500D03*
X154300Y480500D03*
X149300Y480500D03*
X144300Y480500D03*
X139300Y480500D03*
X134300Y480500D03*
X129300Y480500D03*
X124300Y480500D03*
X119300Y480500D03*
X114300Y480500D03*
X109300Y480500D03*
X104300Y480500D03*
X99300Y480500D03*
X94300Y480500D03*
X89300Y480500D03*
X84300Y480500D03*
X79300Y480500D03*
X74300Y480500D03*
X69300Y480500D03*
X64300Y480500D03*
X59300Y480500D03*
X54300Y480500D03*
D22*
X38800Y465000D03*
X38800Y460000D03*
X38800Y455000D03*
X38800Y450000D03*
X38800Y445000D03*
X38800Y440000D03*
X38800Y435000D03*
X38800Y430000D03*
X38800Y425000D03*
X38800Y420000D03*
X38800Y415000D03*
X38800Y410000D03*
X38800Y405000D03*
X38800Y400000D03*
X38800Y395000D03*
X38800Y390000D03*
X38800Y385000D03*
X38800Y380000D03*
X38800Y375000D03*
X38800Y370000D03*
X38800Y365000D03*
X38800Y360000D03*
X38800Y355000D03*
X38800Y350000D03*
X38800Y345000D03*
D15*
X49958Y285011D02*
X56333Y278636D01*
X49958Y285011D02*
X61989Y297042D01*
X68364Y290667D01*
X56333Y278636D01*
X58474Y280777D02*
X54192Y280777D01*
X52051Y282918D02*
X60615Y282918D01*
X62756Y285059D02*
X50006Y285059D01*
X52147Y287200D02*
X64897Y287200D01*
X67038Y289341D02*
X54288Y289341D01*
X56429Y291482D02*
X67549Y291482D01*
X65408Y293623D02*
X58570Y293623D01*
X60711Y295764D02*
X63267Y295764D01*
X67636Y267333D02*
X74011Y260958D01*
X67636Y267333D02*
X79667Y279364D01*
X86042Y272989D01*
X74011Y260958D01*
X76152Y263099D02*
X71870Y263099D01*
X69729Y265240D02*
X78293Y265240D01*
X80434Y267381D02*
X67684Y267381D01*
X69825Y269522D02*
X82575Y269522D01*
X84716Y271663D02*
X71966Y271663D01*
X74107Y273804D02*
X85227Y273804D01*
X83086Y275945D02*
X76248Y275945D01*
X78389Y278086D02*
X80945Y278086D01*
D12*
X80082Y294464D02*
X76536Y298010D01*
X80082Y294464D02*
X76536Y290918D01*
X72990Y294464D01*
X76536Y298010D01*
X78677Y293059D02*
X74395Y293059D01*
X73726Y295200D02*
X79346Y295200D01*
X77205Y297341D02*
X75867Y297341D01*
X73010Y301536D02*
X69464Y305082D01*
X73010Y301536D02*
X69464Y297990D01*
X65918Y301536D01*
X69464Y305082D01*
X71605Y300131D02*
X67323Y300131D01*
X66654Y302272D02*
X72274Y302272D01*
X70133Y304413D02*
X68795Y304413D01*
X79918Y287536D02*
X83464Y283990D01*
X79918Y287536D02*
X83464Y291082D01*
X87010Y287536D01*
X83464Y283990D01*
X85605Y286131D02*
X81323Y286131D01*
X80654Y288272D02*
X86274Y288272D01*
X84133Y290413D02*
X82795Y290413D01*
X86990Y280464D02*
X90536Y276918D01*
X86990Y280464D02*
X90536Y284010D01*
X94082Y280464D01*
X90536Y276918D01*
X92677Y279059D02*
X88395Y279059D01*
X87726Y281200D02*
X93346Y281200D01*
X91205Y283341D02*
X89867Y283341D01*
D23*
X143946Y291375D02*
X153181Y300610D01*
X160296Y293495D01*
X151061Y284260D01*
X143946Y291375D01*
X148962Y286359D02*
X153160Y286359D01*
X155259Y288458D02*
X146863Y288458D01*
X144764Y290557D02*
X157358Y290557D01*
X159457Y292656D02*
X145227Y292656D01*
X147326Y294755D02*
X159036Y294755D01*
X156937Y296854D02*
X149425Y296854D01*
X151524Y298953D02*
X154838Y298953D01*
X137625Y285054D02*
X128390Y275819D01*
X137625Y285054D02*
X144740Y277939D01*
X135505Y268704D01*
X128390Y275819D01*
X133406Y270803D02*
X137604Y270803D01*
X139703Y272902D02*
X131307Y272902D01*
X129208Y275001D02*
X141802Y275001D01*
X143901Y277100D02*
X129671Y277100D01*
X131770Y279199D02*
X143480Y279199D01*
X141381Y281298D02*
X133869Y281298D01*
X135968Y283397D02*
X139282Y283397D01*
X148939Y273740D02*
X139704Y264505D01*
X148939Y273740D02*
X156054Y266625D01*
X146819Y257390D01*
X139704Y264505D01*
X144720Y259489D02*
X148918Y259489D01*
X151017Y261588D02*
X142621Y261588D01*
X140522Y263687D02*
X153116Y263687D01*
X155215Y265786D02*
X140985Y265786D01*
X143084Y267885D02*
X154794Y267885D01*
X152695Y269984D02*
X145183Y269984D01*
X147282Y272083D02*
X150596Y272083D01*
X155260Y280061D02*
X164495Y289296D01*
X171610Y282181D01*
X162375Y272946D01*
X155260Y280061D01*
X160276Y275045D02*
X164474Y275045D01*
X166573Y277144D02*
X158177Y277144D01*
X156078Y279243D02*
X168672Y279243D01*
X170771Y281342D02*
X156541Y281342D01*
X158640Y283441D02*
X170350Y283441D01*
X168251Y285540D02*
X160739Y285540D01*
X162838Y287639D02*
X166152Y287639D01*
D12*
X144536Y312082D02*
X140990Y308536D01*
X144536Y312082D02*
X148082Y308536D01*
X144536Y304990D01*
X140990Y308536D01*
X142395Y307131D02*
X146677Y307131D01*
X147346Y309272D02*
X141726Y309272D01*
X143867Y311413D02*
X145205Y311413D01*
X137464Y305010D02*
X133918Y301464D01*
X137464Y305010D02*
X141010Y301464D01*
X137464Y297918D01*
X133918Y301464D01*
X135323Y300059D02*
X139605Y300059D01*
X140274Y302200D02*
X134654Y302200D01*
X136795Y304341D02*
X138133Y304341D01*
X126010Y286464D02*
X122464Y282918D01*
X118918Y286464D01*
X122464Y290010D01*
X126010Y286464D01*
X124605Y285059D02*
X120323Y285059D01*
X119654Y287200D02*
X125274Y287200D01*
X123133Y289341D02*
X121795Y289341D01*
X129536Y289990D02*
X133082Y293536D01*
X129536Y289990D02*
X125990Y293536D01*
X129536Y297082D01*
X133082Y293536D01*
X131677Y292131D02*
X127395Y292131D01*
X126726Y294272D02*
X132346Y294272D01*
X130205Y296413D02*
X128867Y296413D01*
D24*
X167506Y118506D02*
X167506Y110494D01*
X158494Y110494D01*
X158494Y118506D01*
X167506Y118506D01*
X167506Y112640D02*
X158494Y112640D01*
X158494Y114786D02*
X167506Y114786D01*
X167506Y116932D02*
X158494Y116932D01*
X183506Y118506D02*
X183506Y110494D01*
X174494Y110494D01*
X174494Y118506D01*
X183506Y118506D01*
X183506Y112640D02*
X174494Y112640D01*
X174494Y114786D02*
X183506Y114786D01*
X183506Y116932D02*
X174494Y116932D01*
X183506Y77506D02*
X183506Y69494D01*
X174494Y69494D01*
X174494Y77506D01*
X183506Y77506D01*
X183506Y71640D02*
X174494Y71640D01*
X174494Y73786D02*
X183506Y73786D01*
X183506Y75932D02*
X174494Y75932D01*
X167506Y77506D02*
X167506Y69494D01*
X158494Y69494D01*
X158494Y77506D01*
X167506Y77506D01*
X167506Y71640D02*
X158494Y71640D01*
X158494Y73786D02*
X167506Y73786D01*
X167506Y75932D02*
X158494Y75932D01*
X211494Y77506D02*
X211494Y69494D01*
X211494Y77506D02*
X220506Y77506D01*
X220506Y69494D01*
X211494Y69494D01*
X211494Y71640D02*
X220506Y71640D01*
X220506Y73786D02*
X211494Y73786D01*
X211494Y75932D02*
X220506Y75932D01*
X195494Y77506D02*
X195494Y69494D01*
X195494Y77506D02*
X204506Y77506D01*
X204506Y69494D01*
X195494Y69494D01*
X195494Y71640D02*
X204506Y71640D01*
X204506Y73786D02*
X195494Y73786D01*
X195494Y75932D02*
X204506Y75932D01*
X195494Y110494D02*
X195494Y118506D01*
X204506Y118506D01*
X204506Y110494D01*
X195494Y110494D01*
X195494Y112640D02*
X204506Y112640D01*
X204506Y114786D02*
X195494Y114786D01*
X195494Y116932D02*
X204506Y116932D01*
X211494Y118506D02*
X211494Y110494D01*
X211494Y118506D02*
X220506Y118506D01*
X220506Y110494D01*
X211494Y110494D01*
X211494Y112640D02*
X220506Y112640D01*
X220506Y114786D02*
X211494Y114786D01*
X211494Y116932D02*
X220506Y116932D01*
D17*
X16724Y622506D02*
X16724Y629494D01*
X16724Y622506D02*
X9736Y622506D01*
X9736Y629494D01*
X16724Y629494D01*
X16724Y626575D02*
X9736Y626575D01*
X34264Y629494D02*
X34264Y622506D01*
X27276Y622506D01*
X27276Y629494D01*
X34264Y629494D01*
X34264Y626575D02*
X27276Y626575D01*
D25*
X18477Y661173D02*
X18477Y667127D01*
X18477Y661173D02*
X12523Y661173D01*
X12523Y667127D01*
X18477Y667127D01*
X18477Y663373D02*
X12523Y663373D01*
X12523Y665573D02*
X18477Y665573D01*
X29477Y667127D02*
X29477Y661173D01*
X23523Y661173D01*
X23523Y667127D01*
X29477Y667127D01*
X29477Y663373D02*
X23523Y663373D01*
X23523Y665573D02*
X29477Y665573D01*
X29477Y648827D02*
X29477Y642873D01*
X23523Y642873D01*
X23523Y648827D01*
X29477Y648827D01*
X29477Y645073D02*
X23523Y645073D01*
X23523Y647273D02*
X29477Y647273D01*
X18477Y648827D02*
X18477Y642873D01*
X12523Y642873D01*
X12523Y648827D01*
X18477Y648827D01*
X18477Y645073D02*
X12523Y645073D01*
X12523Y647273D02*
X18477Y647273D01*
D17*
X16724Y602494D02*
X16724Y595506D01*
X9736Y595506D01*
X9736Y602494D01*
X16724Y602494D01*
X16724Y599575D02*
X9736Y599575D01*
X34264Y602494D02*
X34264Y595506D01*
X27276Y595506D01*
X27276Y602494D01*
X34264Y602494D01*
X34264Y599575D02*
X27276Y599575D01*
D19*
X25400Y558800D03*
X203200Y558800D03*
D26*
X82976Y133976D02*
X76024Y133976D01*
X82976Y133976D02*
X82976Y123024D01*
X76024Y123024D01*
X76024Y133976D01*
X76024Y125226D02*
X82976Y125226D01*
X82976Y127428D02*
X76024Y127428D01*
X76024Y129630D02*
X82976Y129630D01*
X82976Y131832D02*
X76024Y131832D01*
X64976Y133976D02*
X58024Y133976D01*
X64976Y133976D02*
X64976Y123024D01*
X58024Y123024D01*
X58024Y133976D01*
X58024Y125226D02*
X64976Y125226D01*
X64976Y127428D02*
X58024Y127428D01*
X58024Y129630D02*
X64976Y129630D01*
X64976Y131832D02*
X58024Y131832D01*
X95024Y112976D02*
X101976Y112976D01*
X101976Y105024D01*
X95024Y105024D01*
X95024Y112976D01*
X95024Y107226D02*
X101976Y107226D01*
X101976Y109428D02*
X95024Y109428D01*
X95024Y111630D02*
X101976Y111630D01*
X82976Y112976D02*
X76024Y112976D01*
X82976Y112976D02*
X82976Y105024D01*
X76024Y105024D01*
X76024Y112976D01*
X76024Y107226D02*
X82976Y107226D01*
X82976Y109428D02*
X76024Y109428D01*
X76024Y111630D02*
X82976Y111630D01*
X85524Y91976D02*
X92476Y91976D01*
X92476Y84024D01*
X85524Y84024D01*
X85524Y91976D01*
X85524Y86226D02*
X92476Y86226D01*
X92476Y88428D02*
X85524Y88428D01*
X85524Y90630D02*
X92476Y90630D01*
D12*
X95992Y128492D02*
X95992Y133508D01*
X101008Y133508D01*
X101008Y128492D01*
X95992Y128492D01*
X95992Y130633D02*
X101008Y130633D01*
X101008Y132774D02*
X95992Y132774D01*
X95992Y123508D02*
X95992Y118492D01*
X95992Y123508D02*
X101008Y123508D01*
X101008Y118492D01*
X95992Y118492D01*
X95992Y120633D02*
X101008Y120633D01*
X101008Y122774D02*
X95992Y122774D01*
X89008Y79508D02*
X83992Y79508D01*
X89008Y79508D02*
X89008Y74492D01*
X83992Y74492D01*
X83992Y79508D01*
X83992Y76633D02*
X89008Y76633D01*
X89008Y78774D02*
X83992Y78774D01*
X79008Y79508D02*
X73992Y79508D01*
X79008Y79508D02*
X79008Y74492D01*
X73992Y74492D01*
X73992Y79508D01*
X73992Y76633D02*
X79008Y76633D01*
X79008Y78774D02*
X73992Y78774D01*
M02*
