G04 EAGLE Gerber RS-274X export*
G75*
%MOMM*%
%FSLAX34Y34*%
%LPD*%
%INInner Layer 2*%
%IPPOS*%
%AMOC8*
5,1,8,0,0,1.08239X$1,22.5*%
G01*
%ADD10C,0.152400*%
%ADD11C,1.524000*%
%ADD12C,0.554000*%
%ADD13C,0.454000*%

G36*
X65237Y4026D02*
X65237Y4026D01*
X65301Y4025D01*
X65376Y4046D01*
X65452Y4057D01*
X65511Y4083D01*
X65573Y4100D01*
X65639Y4141D01*
X65709Y4173D01*
X65758Y4215D01*
X65813Y4248D01*
X65865Y4306D01*
X65923Y4356D01*
X65959Y4410D01*
X66002Y4458D01*
X66035Y4527D01*
X66078Y4592D01*
X66097Y4654D01*
X66125Y4711D01*
X66136Y4781D01*
X66160Y4862D01*
X66161Y4947D01*
X66172Y5016D01*
X66172Y7644D01*
X66166Y7685D01*
X66169Y7727D01*
X66149Y7811D01*
X66132Y7923D01*
X66108Y7977D01*
X66096Y8027D01*
X65329Y9878D01*
X65329Y12174D01*
X66096Y14025D01*
X66107Y14066D01*
X66125Y14103D01*
X66138Y14188D01*
X66166Y14299D01*
X66164Y14357D01*
X66172Y14408D01*
X66172Y19029D01*
X66247Y19104D01*
X76353Y19104D01*
X76428Y19029D01*
X76428Y13442D01*
X76434Y13401D01*
X76431Y13359D01*
X76452Y13275D01*
X76468Y13163D01*
X76492Y13109D01*
X76504Y13060D01*
X76871Y12174D01*
X76871Y9878D01*
X76504Y8992D01*
X76493Y8952D01*
X76475Y8914D01*
X76462Y8829D01*
X76434Y8719D01*
X76436Y8660D01*
X76428Y8610D01*
X76428Y5016D01*
X76437Y4952D01*
X76436Y4888D01*
X76457Y4813D01*
X76468Y4737D01*
X76494Y4678D01*
X76511Y4616D01*
X76552Y4550D01*
X76584Y4480D01*
X76626Y4431D01*
X76659Y4376D01*
X76717Y4324D01*
X76767Y4266D01*
X76821Y4230D01*
X76869Y4187D01*
X76938Y4154D01*
X77003Y4111D01*
X77065Y4092D01*
X77122Y4064D01*
X77192Y4053D01*
X77273Y4029D01*
X77358Y4028D01*
X77427Y4017D01*
X151173Y4017D01*
X151237Y4026D01*
X151301Y4025D01*
X151376Y4046D01*
X151452Y4057D01*
X151511Y4083D01*
X151573Y4100D01*
X151639Y4141D01*
X151709Y4173D01*
X151758Y4215D01*
X151813Y4248D01*
X151865Y4306D01*
X151923Y4356D01*
X151959Y4410D01*
X152002Y4458D01*
X152035Y4527D01*
X152078Y4592D01*
X152097Y4654D01*
X152125Y4711D01*
X152136Y4781D01*
X152160Y4862D01*
X152161Y4947D01*
X152172Y5016D01*
X152172Y8610D01*
X152166Y8651D01*
X152169Y8693D01*
X152149Y8777D01*
X152132Y8889D01*
X152108Y8943D01*
X152096Y8992D01*
X151729Y9878D01*
X151729Y12174D01*
X152096Y13060D01*
X152107Y13100D01*
X152125Y13138D01*
X152138Y13223D01*
X152166Y13333D01*
X152164Y13392D01*
X152172Y13442D01*
X152172Y19029D01*
X152247Y19104D01*
X162353Y19104D01*
X162428Y19029D01*
X162428Y14408D01*
X162434Y14367D01*
X162431Y14325D01*
X162451Y14241D01*
X162468Y14129D01*
X162492Y14075D01*
X162504Y14025D01*
X163271Y12174D01*
X163271Y9878D01*
X162504Y8027D01*
X162493Y7986D01*
X162475Y7949D01*
X162462Y7864D01*
X162434Y7753D01*
X162436Y7695D01*
X162428Y7644D01*
X162428Y5016D01*
X162437Y4952D01*
X162436Y4888D01*
X162457Y4813D01*
X162468Y4737D01*
X162494Y4678D01*
X162511Y4616D01*
X162552Y4550D01*
X162584Y4480D01*
X162626Y4431D01*
X162659Y4376D01*
X162717Y4324D01*
X162767Y4266D01*
X162821Y4230D01*
X162869Y4187D01*
X162938Y4154D01*
X163003Y4111D01*
X163065Y4092D01*
X163122Y4064D01*
X163192Y4053D01*
X163273Y4029D01*
X163358Y4028D01*
X163427Y4017D01*
X203200Y4017D01*
X203242Y4023D01*
X203278Y4020D01*
X206467Y4271D01*
X206607Y4302D01*
X206698Y4317D01*
X212763Y6287D01*
X212765Y6288D01*
X212767Y6289D01*
X212798Y6304D01*
X213016Y6411D01*
X213028Y6423D01*
X213041Y6429D01*
X218201Y10178D01*
X218203Y10179D01*
X218205Y10181D01*
X218229Y10205D01*
X218364Y10336D01*
X218382Y10352D01*
X218386Y10357D01*
X218404Y10374D01*
X218412Y10388D01*
X218422Y10399D01*
X222171Y15559D01*
X222172Y15561D01*
X222173Y15562D01*
X222189Y15593D01*
X222303Y15808D01*
X222306Y15824D01*
X222313Y15837D01*
X224283Y21902D01*
X224308Y22044D01*
X224329Y22133D01*
X224580Y25322D01*
X224578Y25363D01*
X224583Y25400D01*
X224583Y130951D01*
X224579Y130983D01*
X224581Y131015D01*
X224575Y131045D01*
X224575Y131049D01*
X224571Y131064D01*
X224559Y131122D01*
X224543Y131230D01*
X224530Y131259D01*
X224524Y131291D01*
X224472Y131388D01*
X224427Y131487D01*
X224406Y131512D01*
X224391Y131540D01*
X224315Y131618D01*
X224244Y131701D01*
X224217Y131719D01*
X224194Y131742D01*
X224099Y131796D01*
X224008Y131856D01*
X223977Y131865D01*
X223949Y131881D01*
X223843Y131906D01*
X223738Y131938D01*
X223706Y131939D01*
X223675Y131946D01*
X223565Y131940D01*
X223456Y131942D01*
X223425Y131933D01*
X223393Y131932D01*
X223290Y131896D01*
X223184Y131867D01*
X223157Y131850D01*
X223126Y131839D01*
X223053Y131786D01*
X223021Y131766D01*
X223018Y131765D01*
X223017Y131763D01*
X222944Y131719D01*
X222912Y131683D01*
X222877Y131657D01*
X221916Y130696D01*
X218013Y129079D01*
X213787Y129079D01*
X209884Y130696D01*
X206896Y133684D01*
X205279Y137587D01*
X205279Y141813D01*
X206896Y145716D01*
X209884Y148704D01*
X213787Y150321D01*
X218013Y150321D01*
X221916Y148704D01*
X222877Y147743D01*
X222903Y147723D01*
X222924Y147699D01*
X223016Y147639D01*
X223103Y147573D01*
X223133Y147562D01*
X223160Y147544D01*
X223265Y147512D01*
X223367Y147474D01*
X223399Y147471D01*
X223430Y147462D01*
X223539Y147460D01*
X223648Y147452D01*
X223680Y147459D01*
X223712Y147458D01*
X223817Y147487D01*
X223924Y147510D01*
X223953Y147525D01*
X223984Y147533D01*
X224077Y147591D01*
X224173Y147642D01*
X224196Y147665D01*
X224224Y147681D01*
X224297Y147762D01*
X224375Y147839D01*
X224391Y147867D01*
X224413Y147891D01*
X224460Y147989D01*
X224514Y148084D01*
X224522Y148116D01*
X224536Y148145D01*
X224550Y148234D01*
X224579Y148359D01*
X224577Y148407D01*
X224583Y148449D01*
X224583Y156351D01*
X224579Y156383D01*
X224581Y156415D01*
X224559Y156522D01*
X224543Y156630D01*
X224530Y156659D01*
X224524Y156691D01*
X224472Y156788D01*
X224427Y156887D01*
X224406Y156912D01*
X224391Y156940D01*
X224315Y157018D01*
X224244Y157101D01*
X224217Y157119D01*
X224194Y157142D01*
X224099Y157196D01*
X224008Y157256D01*
X223977Y157265D01*
X223949Y157281D01*
X223843Y157306D01*
X223738Y157338D01*
X223706Y157339D01*
X223675Y157346D01*
X223565Y157340D01*
X223456Y157342D01*
X223425Y157333D01*
X223393Y157332D01*
X223290Y157296D01*
X223184Y157267D01*
X223157Y157250D01*
X223126Y157239D01*
X223053Y157186D01*
X222944Y157119D01*
X222912Y157083D01*
X222877Y157057D01*
X221916Y156096D01*
X218013Y154479D01*
X213787Y154479D01*
X209884Y156096D01*
X206896Y159084D01*
X205279Y162987D01*
X205279Y167213D01*
X206896Y171116D01*
X209884Y174104D01*
X213787Y175721D01*
X218013Y175721D01*
X221916Y174104D01*
X222877Y173143D01*
X222903Y173123D01*
X222924Y173099D01*
X223016Y173039D01*
X223103Y172973D01*
X223133Y172962D01*
X223160Y172944D01*
X223265Y172912D01*
X223367Y172874D01*
X223399Y172871D01*
X223430Y172862D01*
X223539Y172860D01*
X223648Y172852D01*
X223680Y172859D01*
X223712Y172858D01*
X223817Y172887D01*
X223924Y172910D01*
X223953Y172925D01*
X223984Y172933D01*
X224077Y172991D01*
X224173Y173042D01*
X224196Y173065D01*
X224224Y173081D01*
X224297Y173162D01*
X224375Y173239D01*
X224391Y173267D01*
X224413Y173291D01*
X224460Y173389D01*
X224514Y173484D01*
X224522Y173516D01*
X224536Y173545D01*
X224550Y173634D01*
X224579Y173759D01*
X224577Y173807D01*
X224583Y173849D01*
X224583Y181751D01*
X224579Y181783D01*
X224581Y181815D01*
X224559Y181922D01*
X224543Y182030D01*
X224530Y182059D01*
X224524Y182091D01*
X224472Y182188D01*
X224427Y182287D01*
X224406Y182312D01*
X224391Y182340D01*
X224315Y182418D01*
X224244Y182501D01*
X224217Y182519D01*
X224194Y182542D01*
X224099Y182596D01*
X224008Y182656D01*
X223977Y182665D01*
X223949Y182681D01*
X223843Y182706D01*
X223738Y182738D01*
X223706Y182739D01*
X223675Y182746D01*
X223565Y182740D01*
X223456Y182742D01*
X223425Y182733D01*
X223393Y182732D01*
X223290Y182696D01*
X223184Y182667D01*
X223157Y182650D01*
X223126Y182639D01*
X223053Y182586D01*
X222944Y182519D01*
X222912Y182483D01*
X222877Y182457D01*
X221916Y181496D01*
X218013Y179879D01*
X213787Y179879D01*
X209884Y181496D01*
X206896Y184484D01*
X205279Y188387D01*
X205279Y192613D01*
X206896Y196516D01*
X209884Y199504D01*
X213787Y201121D01*
X218013Y201121D01*
X221916Y199504D01*
X222877Y198543D01*
X222903Y198523D01*
X222924Y198499D01*
X223016Y198439D01*
X223103Y198373D01*
X223133Y198362D01*
X223160Y198344D01*
X223265Y198312D01*
X223367Y198274D01*
X223399Y198271D01*
X223430Y198262D01*
X223539Y198260D01*
X223648Y198252D01*
X223680Y198259D01*
X223712Y198258D01*
X223817Y198287D01*
X223924Y198310D01*
X223953Y198325D01*
X223984Y198333D01*
X224077Y198391D01*
X224173Y198442D01*
X224196Y198465D01*
X224224Y198481D01*
X224297Y198562D01*
X224375Y198639D01*
X224391Y198667D01*
X224413Y198691D01*
X224460Y198789D01*
X224514Y198884D01*
X224522Y198916D01*
X224536Y198945D01*
X224550Y199034D01*
X224579Y199159D01*
X224577Y199207D01*
X224583Y199249D01*
X224583Y207801D01*
X224579Y207833D01*
X224581Y207866D01*
X224559Y207973D01*
X224543Y208081D01*
X224530Y208110D01*
X224524Y208142D01*
X224472Y208238D01*
X224427Y208338D01*
X224406Y208362D01*
X224391Y208391D01*
X224315Y208469D01*
X224244Y208552D01*
X224217Y208570D01*
X224194Y208593D01*
X224099Y208646D01*
X224008Y208706D01*
X223977Y208716D01*
X223949Y208732D01*
X223843Y208757D01*
X223738Y208789D01*
X223706Y208789D01*
X223674Y208797D01*
X223565Y208791D01*
X223456Y208792D01*
X223425Y208784D01*
X223393Y208782D01*
X223290Y208746D01*
X223184Y208717D01*
X223157Y208700D01*
X223126Y208690D01*
X223053Y208636D01*
X222944Y208569D01*
X222912Y208533D01*
X222877Y208508D01*
X222519Y208150D01*
X221225Y207210D01*
X219800Y206484D01*
X218279Y205989D01*
X217899Y205929D01*
X217899Y214900D01*
X217891Y214960D01*
X217891Y214986D01*
X217890Y214988D01*
X217891Y215028D01*
X217870Y215102D01*
X217859Y215179D01*
X217833Y215238D01*
X217816Y215300D01*
X217775Y215366D01*
X217743Y215436D01*
X217701Y215485D01*
X217668Y215540D01*
X217610Y215591D01*
X217560Y215650D01*
X217506Y215686D01*
X217458Y215729D01*
X217389Y215762D01*
X217324Y215805D01*
X217262Y215824D01*
X217205Y215852D01*
X217135Y215862D01*
X217054Y215887D01*
X216969Y215888D01*
X216900Y215899D01*
X215899Y215899D01*
X215899Y215901D01*
X216900Y215901D01*
X216964Y215910D01*
X217028Y215909D01*
X217103Y215930D01*
X217179Y215941D01*
X217238Y215967D01*
X217300Y215984D01*
X217366Y216025D01*
X217436Y216057D01*
X217485Y216099D01*
X217540Y216132D01*
X217592Y216190D01*
X217650Y216240D01*
X217686Y216294D01*
X217729Y216342D01*
X217762Y216411D01*
X217805Y216476D01*
X217824Y216538D01*
X217852Y216596D01*
X217862Y216665D01*
X217887Y216746D01*
X217888Y216831D01*
X217899Y216900D01*
X217899Y225871D01*
X218279Y225811D01*
X219800Y225316D01*
X221225Y224590D01*
X222519Y223650D01*
X222877Y223292D01*
X222903Y223273D01*
X222924Y223248D01*
X223016Y223188D01*
X223103Y223123D01*
X223133Y223111D01*
X223160Y223094D01*
X223265Y223062D01*
X223367Y223023D01*
X223399Y223021D01*
X223430Y223011D01*
X223539Y223010D01*
X223648Y223001D01*
X223680Y223008D01*
X223712Y223008D01*
X223817Y223037D01*
X223924Y223059D01*
X223953Y223074D01*
X223984Y223083D01*
X224077Y223140D01*
X224173Y223191D01*
X224196Y223214D01*
X224224Y223231D01*
X224297Y223312D01*
X224375Y223388D01*
X224391Y223416D01*
X224413Y223440D01*
X224460Y223539D01*
X224514Y223634D01*
X224522Y223665D01*
X224536Y223694D01*
X224550Y223784D01*
X224579Y223908D01*
X224577Y223956D01*
X224583Y223999D01*
X224583Y232551D01*
X224579Y232583D01*
X224581Y232615D01*
X224559Y232722D01*
X224543Y232830D01*
X224530Y232859D01*
X224524Y232891D01*
X224472Y232988D01*
X224427Y233087D01*
X224406Y233112D01*
X224391Y233140D01*
X224315Y233218D01*
X224244Y233301D01*
X224217Y233319D01*
X224194Y233342D01*
X224099Y233396D01*
X224008Y233456D01*
X223977Y233465D01*
X223949Y233481D01*
X223843Y233506D01*
X223738Y233538D01*
X223706Y233539D01*
X223675Y233546D01*
X223565Y233540D01*
X223456Y233542D01*
X223425Y233533D01*
X223393Y233532D01*
X223290Y233496D01*
X223184Y233467D01*
X223157Y233450D01*
X223126Y233439D01*
X223053Y233386D01*
X222944Y233319D01*
X222912Y233283D01*
X222877Y233257D01*
X221916Y232296D01*
X218013Y230679D01*
X213787Y230679D01*
X209884Y232296D01*
X206896Y235284D01*
X205279Y239187D01*
X205279Y243413D01*
X206896Y247316D01*
X209884Y250304D01*
X213787Y251921D01*
X218013Y251921D01*
X221916Y250304D01*
X222877Y249343D01*
X222903Y249323D01*
X222924Y249299D01*
X223016Y249239D01*
X223103Y249173D01*
X223133Y249162D01*
X223160Y249144D01*
X223265Y249112D01*
X223367Y249074D01*
X223399Y249071D01*
X223430Y249062D01*
X223539Y249060D01*
X223648Y249052D01*
X223680Y249059D01*
X223712Y249058D01*
X223817Y249087D01*
X223924Y249110D01*
X223953Y249125D01*
X223984Y249133D01*
X224077Y249191D01*
X224173Y249242D01*
X224196Y249265D01*
X224224Y249281D01*
X224297Y249362D01*
X224375Y249439D01*
X224391Y249467D01*
X224413Y249491D01*
X224460Y249589D01*
X224514Y249684D01*
X224522Y249716D01*
X224536Y249745D01*
X224550Y249834D01*
X224579Y249959D01*
X224577Y250007D01*
X224583Y250049D01*
X224583Y257951D01*
X224579Y257983D01*
X224581Y258015D01*
X224559Y258122D01*
X224543Y258230D01*
X224530Y258259D01*
X224524Y258291D01*
X224472Y258388D01*
X224427Y258487D01*
X224406Y258512D01*
X224391Y258540D01*
X224315Y258618D01*
X224244Y258701D01*
X224217Y258719D01*
X224194Y258742D01*
X224099Y258796D01*
X224008Y258856D01*
X223977Y258865D01*
X223949Y258881D01*
X223843Y258906D01*
X223738Y258938D01*
X223706Y258939D01*
X223675Y258946D01*
X223565Y258940D01*
X223456Y258942D01*
X223425Y258933D01*
X223393Y258932D01*
X223290Y258896D01*
X223184Y258867D01*
X223157Y258850D01*
X223126Y258839D01*
X223053Y258786D01*
X222944Y258719D01*
X222912Y258683D01*
X222877Y258657D01*
X221916Y257696D01*
X218013Y256079D01*
X213787Y256079D01*
X209884Y257696D01*
X206896Y260684D01*
X205279Y264587D01*
X205279Y268813D01*
X206896Y272716D01*
X209884Y275704D01*
X213787Y277321D01*
X218013Y277321D01*
X221916Y275704D01*
X222877Y274743D01*
X222903Y274723D01*
X222924Y274699D01*
X223016Y274639D01*
X223103Y274573D01*
X223133Y274562D01*
X223160Y274544D01*
X223265Y274512D01*
X223367Y274474D01*
X223399Y274471D01*
X223430Y274462D01*
X223539Y274460D01*
X223648Y274452D01*
X223680Y274459D01*
X223712Y274458D01*
X223817Y274487D01*
X223924Y274510D01*
X223953Y274525D01*
X223984Y274533D01*
X224077Y274591D01*
X224173Y274642D01*
X224196Y274665D01*
X224224Y274681D01*
X224297Y274762D01*
X224375Y274839D01*
X224391Y274867D01*
X224413Y274891D01*
X224460Y274989D01*
X224514Y275084D01*
X224522Y275116D01*
X224536Y275145D01*
X224550Y275234D01*
X224579Y275359D01*
X224577Y275407D01*
X224583Y275449D01*
X224583Y283351D01*
X224579Y283383D01*
X224581Y283415D01*
X224559Y283522D01*
X224543Y283630D01*
X224530Y283659D01*
X224524Y283691D01*
X224472Y283788D01*
X224427Y283887D01*
X224406Y283912D01*
X224391Y283940D01*
X224315Y284018D01*
X224244Y284101D01*
X224217Y284119D01*
X224194Y284142D01*
X224099Y284196D01*
X224008Y284256D01*
X223977Y284265D01*
X223949Y284281D01*
X223843Y284306D01*
X223738Y284338D01*
X223706Y284339D01*
X223675Y284346D01*
X223565Y284340D01*
X223456Y284342D01*
X223425Y284333D01*
X223393Y284332D01*
X223290Y284296D01*
X223184Y284267D01*
X223157Y284250D01*
X223126Y284239D01*
X223053Y284186D01*
X222944Y284119D01*
X222912Y284083D01*
X222877Y284057D01*
X221916Y283096D01*
X218013Y281479D01*
X213787Y281479D01*
X209884Y283096D01*
X206896Y286084D01*
X205279Y289987D01*
X205279Y294213D01*
X206896Y298116D01*
X209884Y301104D01*
X213787Y302721D01*
X216230Y302721D01*
X216294Y302730D01*
X216358Y302729D01*
X216433Y302750D01*
X216509Y302761D01*
X216568Y302787D01*
X216630Y302804D01*
X216696Y302845D01*
X216766Y302877D01*
X216815Y302919D01*
X216870Y302952D01*
X216922Y303010D01*
X216980Y303060D01*
X217016Y303114D01*
X217059Y303162D01*
X217092Y303231D01*
X217135Y303296D01*
X217154Y303358D01*
X217182Y303415D01*
X217193Y303485D01*
X217217Y303566D01*
X217218Y303651D01*
X217229Y303720D01*
X217229Y305880D01*
X217220Y305944D01*
X217221Y306008D01*
X217200Y306083D01*
X217189Y306159D01*
X217163Y306218D01*
X217146Y306280D01*
X217105Y306346D01*
X217073Y306416D01*
X217031Y306465D01*
X216998Y306520D01*
X216940Y306572D01*
X216890Y306630D01*
X216836Y306666D01*
X216788Y306709D01*
X216719Y306742D01*
X216654Y306785D01*
X216592Y306804D01*
X216535Y306832D01*
X216465Y306843D01*
X216384Y306867D01*
X216299Y306868D01*
X216230Y306879D01*
X213787Y306879D01*
X209884Y308496D01*
X206896Y311484D01*
X205279Y315387D01*
X205279Y319613D01*
X206896Y323516D01*
X209884Y326504D01*
X213787Y328121D01*
X216244Y328121D01*
X216361Y328137D01*
X216480Y328149D01*
X216501Y328157D01*
X216523Y328161D01*
X216631Y328210D01*
X216742Y328254D01*
X216759Y328267D01*
X216780Y328277D01*
X216870Y328354D01*
X216964Y328427D01*
X216977Y328446D01*
X216994Y328460D01*
X217060Y328560D01*
X217129Y328656D01*
X217136Y328677D01*
X217149Y328696D01*
X217184Y328810D01*
X217223Y328922D01*
X217225Y328944D01*
X217231Y328966D01*
X217233Y329084D01*
X217240Y329203D01*
X217235Y329224D01*
X217235Y329248D01*
X217229Y329268D01*
X217229Y331280D01*
X217220Y331344D01*
X217221Y331408D01*
X217200Y331483D01*
X217189Y331559D01*
X217163Y331618D01*
X217146Y331680D01*
X217105Y331746D01*
X217073Y331816D01*
X217031Y331865D01*
X216998Y331920D01*
X216940Y331972D01*
X216890Y332030D01*
X216836Y332066D01*
X216788Y332109D01*
X216719Y332142D01*
X216654Y332185D01*
X216592Y332204D01*
X216535Y332232D01*
X216465Y332243D01*
X216384Y332267D01*
X216299Y332268D01*
X216230Y332279D01*
X213787Y332279D01*
X209884Y333896D01*
X206896Y336884D01*
X205279Y340787D01*
X205279Y345013D01*
X206896Y348916D01*
X209884Y351904D01*
X213787Y353521D01*
X216230Y353521D01*
X216294Y353530D01*
X216358Y353529D01*
X216433Y353550D01*
X216509Y353561D01*
X216568Y353587D01*
X216630Y353604D01*
X216696Y353645D01*
X216766Y353677D01*
X216815Y353719D01*
X216870Y353752D01*
X216922Y353810D01*
X216980Y353860D01*
X217016Y353914D01*
X217059Y353962D01*
X217092Y354031D01*
X217135Y354096D01*
X217154Y354158D01*
X217182Y354215D01*
X217193Y354285D01*
X217217Y354366D01*
X217218Y354451D01*
X217229Y354520D01*
X217229Y356680D01*
X217220Y356744D01*
X217221Y356808D01*
X217200Y356883D01*
X217189Y356959D01*
X217163Y357018D01*
X217146Y357080D01*
X217105Y357146D01*
X217073Y357216D01*
X217031Y357265D01*
X216998Y357320D01*
X216940Y357372D01*
X216890Y357430D01*
X216836Y357466D01*
X216788Y357509D01*
X216719Y357542D01*
X216654Y357585D01*
X216592Y357604D01*
X216535Y357632D01*
X216465Y357643D01*
X216384Y357667D01*
X216299Y357668D01*
X216230Y357679D01*
X213787Y357679D01*
X209884Y359296D01*
X207477Y361703D01*
X207451Y361723D01*
X207430Y361747D01*
X207338Y361807D01*
X207251Y361873D01*
X207221Y361884D01*
X207194Y361902D01*
X207089Y361934D01*
X206987Y361972D01*
X206955Y361975D01*
X206924Y361984D01*
X206815Y361986D01*
X206706Y361994D01*
X206674Y361987D01*
X206642Y361988D01*
X206537Y361959D01*
X206430Y361936D01*
X206401Y361921D01*
X206370Y361913D01*
X206277Y361855D01*
X206181Y361804D01*
X206158Y361782D01*
X206130Y361765D01*
X206057Y361683D01*
X205979Y361607D01*
X205963Y361579D01*
X205941Y361555D01*
X205894Y361457D01*
X205840Y361362D01*
X205832Y361330D01*
X205818Y361301D01*
X205804Y361212D01*
X205775Y361087D01*
X205777Y361039D01*
X205771Y360997D01*
X205771Y359352D01*
X204892Y357231D01*
X203269Y355608D01*
X201148Y354729D01*
X198852Y354729D01*
X196731Y355608D01*
X195108Y357231D01*
X194229Y359352D01*
X194229Y361648D01*
X195108Y363769D01*
X196731Y365392D01*
X198852Y366271D01*
X201148Y366271D01*
X203269Y365392D01*
X203711Y364950D01*
X203780Y364898D01*
X203844Y364839D01*
X203893Y364814D01*
X203937Y364781D01*
X204018Y364750D01*
X204095Y364711D01*
X204149Y364701D01*
X204200Y364681D01*
X204287Y364675D01*
X204372Y364658D01*
X204427Y364664D01*
X204482Y364659D01*
X204567Y364677D01*
X204653Y364686D01*
X204704Y364706D01*
X204758Y364717D01*
X204834Y364758D01*
X204915Y364790D01*
X204958Y364824D01*
X205007Y364850D01*
X205069Y364910D01*
X205137Y364964D01*
X205169Y365008D01*
X205209Y365046D01*
X205252Y365122D01*
X205302Y365192D01*
X205321Y365244D01*
X205348Y365292D01*
X205368Y365376D01*
X205397Y365458D01*
X205400Y365513D01*
X205413Y365566D01*
X205408Y365653D01*
X205413Y365740D01*
X205401Y365789D01*
X205398Y365848D01*
X205361Y365955D01*
X205341Y366039D01*
X205279Y366187D01*
X205279Y370413D01*
X206896Y374316D01*
X209884Y377304D01*
X213787Y378921D01*
X216230Y378921D01*
X216294Y378930D01*
X216358Y378929D01*
X216433Y378950D01*
X216509Y378961D01*
X216568Y378987D01*
X216630Y379004D01*
X216696Y379045D01*
X216766Y379077D01*
X216815Y379119D01*
X216870Y379152D01*
X216922Y379210D01*
X216980Y379260D01*
X217016Y379314D01*
X217059Y379362D01*
X217092Y379431D01*
X217135Y379496D01*
X217154Y379558D01*
X217182Y379615D01*
X217193Y379685D01*
X217217Y379766D01*
X217218Y379851D01*
X217229Y379920D01*
X217229Y382080D01*
X217220Y382144D01*
X217221Y382208D01*
X217200Y382283D01*
X217189Y382359D01*
X217163Y382418D01*
X217146Y382480D01*
X217105Y382546D01*
X217073Y382616D01*
X217031Y382665D01*
X216998Y382720D01*
X216940Y382772D01*
X216890Y382830D01*
X216836Y382866D01*
X216788Y382909D01*
X216719Y382942D01*
X216654Y382985D01*
X216592Y383004D01*
X216535Y383032D01*
X216465Y383043D01*
X216384Y383067D01*
X216299Y383068D01*
X216230Y383079D01*
X213787Y383079D01*
X209884Y384696D01*
X208619Y385961D01*
X208567Y386000D01*
X208522Y386046D01*
X208455Y386084D01*
X208393Y386131D01*
X208333Y386153D01*
X208277Y386185D01*
X208201Y386203D01*
X208129Y386230D01*
X208065Y386235D01*
X208002Y386250D01*
X207925Y386246D01*
X207848Y386252D01*
X207785Y386239D01*
X207721Y386236D01*
X207648Y386210D01*
X207572Y386194D01*
X207515Y386164D01*
X207454Y386143D01*
X207398Y386102D01*
X207323Y386062D01*
X207262Y386003D01*
X207205Y385961D01*
X205776Y384532D01*
X203838Y383729D01*
X203137Y383729D01*
X203105Y383725D01*
X203073Y383727D01*
X202966Y383705D01*
X202858Y383689D01*
X202828Y383676D01*
X202797Y383670D01*
X202701Y383618D01*
X202601Y383573D01*
X202576Y383552D01*
X202548Y383537D01*
X202470Y383461D01*
X202387Y383390D01*
X202369Y383363D01*
X202346Y383340D01*
X202292Y383245D01*
X202232Y383154D01*
X202223Y383123D01*
X202207Y383095D01*
X202182Y382989D01*
X202150Y382884D01*
X202149Y382852D01*
X202142Y382821D01*
X202147Y382711D01*
X202146Y382602D01*
X202155Y382571D01*
X202156Y382539D01*
X202192Y382436D01*
X202221Y382330D01*
X202238Y382303D01*
X202249Y382272D01*
X202302Y382199D01*
X202369Y382090D01*
X202405Y382058D01*
X202431Y382023D01*
X203968Y380486D01*
X204771Y378548D01*
X204771Y376452D01*
X203968Y374514D01*
X202486Y373032D01*
X200548Y372229D01*
X198452Y372229D01*
X196514Y373032D01*
X195032Y374514D01*
X194229Y376452D01*
X194229Y378548D01*
X195032Y380486D01*
X196514Y381968D01*
X198452Y382771D01*
X199153Y382771D01*
X199185Y382775D01*
X199217Y382773D01*
X199324Y382795D01*
X199432Y382811D01*
X199462Y382824D01*
X199493Y382830D01*
X199589Y382882D01*
X199689Y382927D01*
X199714Y382948D01*
X199742Y382963D01*
X199820Y383039D01*
X199903Y383110D01*
X199921Y383137D01*
X199944Y383160D01*
X199998Y383255D01*
X200058Y383346D01*
X200067Y383377D01*
X200083Y383405D01*
X200108Y383511D01*
X200140Y383616D01*
X200141Y383648D01*
X200148Y383679D01*
X200143Y383789D01*
X200144Y383898D01*
X200135Y383929D01*
X200134Y383961D01*
X200098Y384064D01*
X200069Y384170D01*
X200052Y384197D01*
X200041Y384228D01*
X199988Y384301D01*
X199921Y384410D01*
X199885Y384442D01*
X199859Y384477D01*
X198322Y386014D01*
X197519Y387952D01*
X197519Y390048D01*
X198322Y391986D01*
X199359Y393023D01*
X199377Y393047D01*
X199398Y393064D01*
X199399Y393066D01*
X199403Y393070D01*
X199463Y393162D01*
X199529Y393249D01*
X199540Y393279D01*
X199558Y393306D01*
X199590Y393411D01*
X199628Y393513D01*
X199631Y393545D01*
X199640Y393576D01*
X199642Y393685D01*
X199650Y393794D01*
X199644Y393826D01*
X199644Y393858D01*
X199615Y393963D01*
X199593Y394070D01*
X199577Y394099D01*
X199569Y394130D01*
X199511Y394223D01*
X199460Y394319D01*
X199438Y394342D01*
X199421Y394370D01*
X199340Y394443D01*
X199263Y394521D01*
X199235Y394537D01*
X199211Y394559D01*
X199113Y394606D01*
X199018Y394660D01*
X198986Y394668D01*
X198958Y394682D01*
X198868Y394696D01*
X198743Y394725D01*
X198695Y394723D01*
X198653Y394729D01*
X197452Y394729D01*
X195514Y395532D01*
X194032Y397014D01*
X193229Y398952D01*
X193229Y401048D01*
X194032Y402986D01*
X195339Y404293D01*
X195378Y404345D01*
X195424Y404390D01*
X195462Y404457D01*
X195509Y404519D01*
X195531Y404579D01*
X195563Y404635D01*
X195581Y404710D01*
X195608Y404783D01*
X195613Y404847D01*
X195628Y404909D01*
X195624Y404987D01*
X195630Y405064D01*
X195617Y405127D01*
X195614Y405191D01*
X195588Y405264D01*
X195572Y405340D01*
X195542Y405397D01*
X195521Y405458D01*
X195480Y405514D01*
X195440Y405589D01*
X195381Y405650D01*
X195339Y405707D01*
X194032Y407014D01*
X193229Y408952D01*
X193229Y411048D01*
X194032Y412986D01*
X195514Y414468D01*
X197452Y415271D01*
X199548Y415271D01*
X201486Y414468D01*
X202968Y412986D01*
X203771Y411048D01*
X203771Y410639D01*
X203772Y410630D01*
X203771Y410620D01*
X203792Y410490D01*
X203811Y410360D01*
X203814Y410351D01*
X203816Y410342D01*
X203873Y410223D01*
X203927Y410103D01*
X203933Y410096D01*
X203937Y410087D01*
X204025Y409989D01*
X204110Y409889D01*
X204118Y409884D01*
X204124Y409876D01*
X204190Y409836D01*
X204346Y409734D01*
X204369Y409727D01*
X204388Y409716D01*
X204986Y409468D01*
X206468Y407986D01*
X207271Y406048D01*
X207271Y403952D01*
X206463Y402002D01*
X206442Y401918D01*
X206411Y401837D01*
X206407Y401782D01*
X206393Y401729D01*
X206396Y401642D01*
X206389Y401555D01*
X206400Y401502D01*
X206402Y401447D01*
X206429Y401364D01*
X206447Y401279D01*
X206472Y401231D01*
X206490Y401179D01*
X206538Y401107D01*
X206579Y401030D01*
X206617Y400991D01*
X206648Y400946D01*
X206715Y400890D01*
X206776Y400828D01*
X206824Y400801D01*
X206866Y400766D01*
X206946Y400732D01*
X207021Y400689D01*
X207075Y400677D01*
X207125Y400655D01*
X207211Y400644D01*
X207296Y400624D01*
X207351Y400627D01*
X207405Y400620D01*
X207491Y400634D01*
X207577Y400639D01*
X207629Y400657D01*
X207683Y400665D01*
X207762Y400703D01*
X207844Y400731D01*
X207885Y400761D01*
X207938Y400786D01*
X208023Y400862D01*
X208093Y400913D01*
X209884Y402704D01*
X213787Y404321D01*
X216230Y404321D01*
X216294Y404330D01*
X216358Y404329D01*
X216433Y404350D01*
X216509Y404361D01*
X216568Y404387D01*
X216630Y404404D01*
X216696Y404445D01*
X216766Y404477D01*
X216815Y404519D01*
X216870Y404552D01*
X216922Y404610D01*
X216980Y404660D01*
X217016Y404714D01*
X217059Y404762D01*
X217092Y404831D01*
X217135Y404896D01*
X217154Y404958D01*
X217182Y405015D01*
X217193Y405085D01*
X217217Y405166D01*
X217218Y405251D01*
X217229Y405320D01*
X217229Y407480D01*
X217220Y407544D01*
X217221Y407608D01*
X217200Y407683D01*
X217189Y407759D01*
X217163Y407818D01*
X217146Y407880D01*
X217105Y407946D01*
X217073Y408016D01*
X217031Y408065D01*
X216998Y408120D01*
X216940Y408172D01*
X216890Y408230D01*
X216836Y408266D01*
X216788Y408309D01*
X216719Y408342D01*
X216654Y408385D01*
X216592Y408404D01*
X216535Y408432D01*
X216465Y408443D01*
X216384Y408467D01*
X216299Y408468D01*
X216230Y408479D01*
X213787Y408479D01*
X209884Y410096D01*
X206896Y413084D01*
X205279Y416987D01*
X205279Y421213D01*
X205411Y421532D01*
X205433Y421616D01*
X205464Y421697D01*
X205468Y421752D01*
X205481Y421805D01*
X205479Y421892D01*
X205485Y421978D01*
X205474Y422032D01*
X205472Y422087D01*
X205446Y422169D01*
X205428Y422254D01*
X205402Y422303D01*
X205385Y422355D01*
X205336Y422427D01*
X205295Y422503D01*
X205257Y422543D01*
X205226Y422588D01*
X205159Y422643D01*
X205099Y422705D01*
X205051Y422732D01*
X205008Y422767D01*
X204929Y422802D01*
X204853Y422844D01*
X204800Y422857D01*
X204749Y422879D01*
X204663Y422889D01*
X204579Y422909D01*
X204524Y422906D01*
X204469Y422913D01*
X204384Y422899D01*
X204297Y422895D01*
X204245Y422877D01*
X204191Y422868D01*
X204113Y422831D01*
X204031Y422802D01*
X203989Y422772D01*
X203936Y422747D01*
X203851Y422671D01*
X203782Y422621D01*
X203269Y422108D01*
X201148Y421229D01*
X198852Y421229D01*
X196731Y422108D01*
X195108Y423731D01*
X194229Y425852D01*
X194229Y428148D01*
X194838Y429618D01*
X194862Y429711D01*
X194894Y429801D01*
X194897Y429847D01*
X194908Y429891D01*
X194905Y429987D01*
X194911Y430083D01*
X194901Y430124D01*
X194899Y430173D01*
X194859Y430294D01*
X194838Y430382D01*
X194229Y431852D01*
X194229Y434148D01*
X195108Y436269D01*
X196731Y437892D01*
X198852Y438771D01*
X201148Y438771D01*
X203269Y437892D01*
X204892Y436269D01*
X205771Y434148D01*
X205771Y431852D01*
X205162Y430382D01*
X205138Y430289D01*
X205106Y430199D01*
X205103Y430153D01*
X205092Y430109D01*
X205095Y430013D01*
X205089Y429917D01*
X205099Y429876D01*
X205101Y429827D01*
X205141Y429706D01*
X205162Y429618D01*
X205771Y428148D01*
X205771Y426403D01*
X205775Y426371D01*
X205773Y426339D01*
X205795Y426232D01*
X205811Y426124D01*
X205824Y426095D01*
X205830Y426063D01*
X205882Y425967D01*
X205927Y425867D01*
X205948Y425842D01*
X205963Y425814D01*
X206039Y425736D01*
X206110Y425653D01*
X206137Y425635D01*
X206160Y425612D01*
X206255Y425558D01*
X206346Y425498D01*
X206377Y425489D01*
X206405Y425473D01*
X206511Y425448D01*
X206616Y425416D01*
X206648Y425415D01*
X206679Y425408D01*
X206789Y425414D01*
X206898Y425412D01*
X206929Y425421D01*
X206961Y425422D01*
X207064Y425458D01*
X207170Y425487D01*
X207197Y425504D01*
X207228Y425515D01*
X207301Y425568D01*
X207410Y425635D01*
X207442Y425671D01*
X207477Y425697D01*
X209884Y428104D01*
X213787Y429721D01*
X218013Y429721D01*
X221916Y428104D01*
X222877Y427143D01*
X222903Y427123D01*
X222924Y427099D01*
X223016Y427039D01*
X223103Y426973D01*
X223133Y426962D01*
X223160Y426944D01*
X223265Y426912D01*
X223367Y426874D01*
X223399Y426871D01*
X223430Y426862D01*
X223539Y426860D01*
X223648Y426852D01*
X223680Y426859D01*
X223712Y426858D01*
X223817Y426887D01*
X223924Y426910D01*
X223953Y426925D01*
X223984Y426933D01*
X224077Y426991D01*
X224173Y427042D01*
X224196Y427065D01*
X224224Y427081D01*
X224297Y427162D01*
X224375Y427239D01*
X224391Y427267D01*
X224413Y427291D01*
X224460Y427389D01*
X224514Y427484D01*
X224522Y427516D01*
X224536Y427545D01*
X224550Y427634D01*
X224579Y427759D01*
X224577Y427807D01*
X224583Y427849D01*
X224583Y435751D01*
X224579Y435783D01*
X224581Y435815D01*
X224559Y435922D01*
X224543Y436030D01*
X224530Y436059D01*
X224524Y436091D01*
X224472Y436188D01*
X224427Y436287D01*
X224406Y436312D01*
X224391Y436340D01*
X224315Y436418D01*
X224244Y436501D01*
X224217Y436519D01*
X224194Y436542D01*
X224099Y436596D01*
X224008Y436656D01*
X223977Y436665D01*
X223949Y436681D01*
X223843Y436706D01*
X223738Y436738D01*
X223706Y436739D01*
X223675Y436746D01*
X223565Y436740D01*
X223456Y436742D01*
X223425Y436733D01*
X223393Y436732D01*
X223290Y436696D01*
X223184Y436667D01*
X223157Y436650D01*
X223126Y436639D01*
X223053Y436586D01*
X222944Y436519D01*
X222912Y436483D01*
X222877Y436457D01*
X221916Y435496D01*
X218013Y433879D01*
X213787Y433879D01*
X209884Y435496D01*
X206896Y438484D01*
X205279Y442387D01*
X205279Y446613D01*
X206670Y449971D01*
X206686Y450034D01*
X206712Y450093D01*
X206721Y450169D01*
X206741Y450244D01*
X206738Y450309D01*
X206746Y450372D01*
X206734Y450449D01*
X206731Y450526D01*
X206712Y450587D01*
X206701Y450651D01*
X206668Y450721D01*
X206644Y450794D01*
X206608Y450848D01*
X206580Y450906D01*
X206529Y450963D01*
X206485Y451027D01*
X206436Y451068D01*
X206393Y451116D01*
X206333Y451153D01*
X206267Y451207D01*
X206190Y451240D01*
X206130Y451277D01*
X205514Y451532D01*
X204032Y453014D01*
X203229Y454952D01*
X203229Y457048D01*
X204032Y458986D01*
X205514Y460468D01*
X207525Y461301D01*
X207627Y461361D01*
X207732Y461417D01*
X207748Y461433D01*
X207768Y461445D01*
X207849Y461531D01*
X207934Y461614D01*
X207945Y461634D01*
X207961Y461650D01*
X208014Y461756D01*
X208073Y461859D01*
X208078Y461881D01*
X208088Y461902D01*
X208110Y462018D01*
X208138Y462134D01*
X208137Y462157D01*
X208141Y462179D01*
X208129Y462297D01*
X208123Y462415D01*
X208116Y462437D01*
X208114Y462460D01*
X208070Y462569D01*
X208031Y462682D01*
X208018Y462699D01*
X208009Y462722D01*
X207894Y462869D01*
X207849Y462931D01*
X206896Y463884D01*
X205279Y467787D01*
X205279Y472013D01*
X206896Y475916D01*
X209884Y478904D01*
X213787Y480521D01*
X216230Y480521D01*
X216294Y480530D01*
X216358Y480529D01*
X216433Y480550D01*
X216509Y480561D01*
X216568Y480587D01*
X216630Y480604D01*
X216696Y480645D01*
X216766Y480677D01*
X216815Y480719D01*
X216870Y480752D01*
X216922Y480810D01*
X216980Y480860D01*
X217016Y480914D01*
X217059Y480962D01*
X217092Y481031D01*
X217135Y481096D01*
X217154Y481158D01*
X217182Y481215D01*
X217193Y481285D01*
X217217Y481366D01*
X217218Y481451D01*
X217229Y481520D01*
X217229Y483680D01*
X217220Y483742D01*
X217221Y483785D01*
X217221Y483786D01*
X217221Y483808D01*
X217200Y483883D01*
X217189Y483959D01*
X217163Y484018D01*
X217146Y484080D01*
X217105Y484146D01*
X217073Y484216D01*
X217031Y484265D01*
X216998Y484320D01*
X216940Y484372D01*
X216890Y484430D01*
X216836Y484466D01*
X216788Y484509D01*
X216719Y484542D01*
X216654Y484585D01*
X216592Y484604D01*
X216535Y484632D01*
X216465Y484643D01*
X216384Y484667D01*
X216299Y484668D01*
X216230Y484679D01*
X213787Y484679D01*
X209884Y486296D01*
X206896Y489284D01*
X205279Y493187D01*
X205279Y497413D01*
X206896Y501316D01*
X209884Y504304D01*
X213787Y505921D01*
X216230Y505921D01*
X216294Y505930D01*
X216358Y505929D01*
X216433Y505950D01*
X216509Y505961D01*
X216568Y505987D01*
X216630Y506004D01*
X216696Y506045D01*
X216766Y506077D01*
X216815Y506119D01*
X216870Y506152D01*
X216922Y506210D01*
X216980Y506260D01*
X217016Y506314D01*
X217059Y506362D01*
X217092Y506431D01*
X217135Y506496D01*
X217154Y506558D01*
X217182Y506615D01*
X217193Y506685D01*
X217217Y506766D01*
X217218Y506851D01*
X217229Y506920D01*
X217229Y509080D01*
X217220Y509144D01*
X217221Y509208D01*
X217200Y509283D01*
X217189Y509359D01*
X217163Y509418D01*
X217146Y509480D01*
X217105Y509546D01*
X217073Y509616D01*
X217031Y509665D01*
X216998Y509720D01*
X216940Y509772D01*
X216890Y509830D01*
X216836Y509866D01*
X216788Y509909D01*
X216719Y509942D01*
X216654Y509985D01*
X216592Y510004D01*
X216535Y510032D01*
X216465Y510043D01*
X216384Y510067D01*
X216299Y510068D01*
X216230Y510079D01*
X213787Y510079D01*
X209884Y511696D01*
X208609Y512971D01*
X208514Y513043D01*
X208422Y513118D01*
X208401Y513127D01*
X208383Y513141D01*
X208272Y513183D01*
X208163Y513229D01*
X208140Y513232D01*
X208119Y513240D01*
X208001Y513249D01*
X207883Y513264D01*
X207861Y513260D01*
X207838Y513262D01*
X207722Y513238D01*
X207605Y513219D01*
X207584Y513209D01*
X207562Y513204D01*
X207457Y513149D01*
X207350Y513098D01*
X207333Y513083D01*
X207313Y513072D01*
X207228Y512989D01*
X207139Y512910D01*
X207128Y512892D01*
X207111Y512875D01*
X207019Y512713D01*
X206979Y512647D01*
X206392Y511231D01*
X204769Y509608D01*
X202648Y508729D01*
X200352Y508729D01*
X198231Y509608D01*
X197853Y509986D01*
X197802Y510025D01*
X197757Y510071D01*
X197689Y510109D01*
X197627Y510155D01*
X197567Y510178D01*
X197511Y510210D01*
X197436Y510227D01*
X197364Y510255D01*
X197300Y510260D01*
X197237Y510275D01*
X197160Y510271D01*
X197082Y510277D01*
X197019Y510263D01*
X196955Y510260D01*
X196882Y510235D01*
X196806Y510219D01*
X196750Y510189D01*
X196689Y510168D01*
X196632Y510126D01*
X196557Y510086D01*
X196497Y510027D01*
X196440Y509986D01*
X194986Y508532D01*
X193048Y507729D01*
X190952Y507729D01*
X189014Y508532D01*
X187532Y510014D01*
X186729Y511952D01*
X186729Y514048D01*
X187532Y515986D01*
X189014Y517468D01*
X190952Y518271D01*
X193048Y518271D01*
X194986Y517468D01*
X194987Y517467D01*
X195082Y517396D01*
X195174Y517320D01*
X195194Y517311D01*
X195213Y517298D01*
X195324Y517256D01*
X195433Y517209D01*
X195455Y517206D01*
X195477Y517198D01*
X195595Y517189D01*
X195713Y517174D01*
X195735Y517178D01*
X195758Y517176D01*
X195874Y517200D01*
X195991Y517219D01*
X196012Y517229D01*
X196034Y517234D01*
X196139Y517290D01*
X196246Y517340D01*
X196263Y517355D01*
X196283Y517366D01*
X196368Y517449D01*
X196457Y517528D01*
X196468Y517546D01*
X196485Y517563D01*
X196577Y517726D01*
X196597Y517758D01*
X198231Y519392D01*
X200352Y520271D01*
X202648Y520271D01*
X203898Y519753D01*
X204012Y519724D01*
X204126Y519689D01*
X204149Y519689D01*
X204171Y519683D01*
X204289Y519687D01*
X204408Y519685D01*
X204430Y519691D01*
X204453Y519692D01*
X204566Y519729D01*
X204680Y519760D01*
X204699Y519772D01*
X204721Y519779D01*
X204819Y519846D01*
X204920Y519909D01*
X204935Y519926D01*
X204954Y519938D01*
X205029Y520030D01*
X205109Y520118D01*
X205119Y520138D01*
X205133Y520156D01*
X205180Y520265D01*
X205232Y520372D01*
X205235Y520393D01*
X205245Y520415D01*
X205267Y520600D01*
X205279Y520676D01*
X205279Y522813D01*
X206896Y526716D01*
X209884Y529704D01*
X213787Y531321D01*
X216230Y531321D01*
X216294Y531330D01*
X216358Y531329D01*
X216433Y531350D01*
X216509Y531361D01*
X216568Y531387D01*
X216630Y531404D01*
X216696Y531445D01*
X216766Y531477D01*
X216815Y531519D01*
X216870Y531552D01*
X216922Y531610D01*
X216980Y531660D01*
X217016Y531714D01*
X217059Y531762D01*
X217092Y531831D01*
X217135Y531896D01*
X217154Y531958D01*
X217182Y532015D01*
X217193Y532085D01*
X217217Y532166D01*
X217218Y532251D01*
X217229Y532320D01*
X217229Y534648D01*
X218108Y536769D01*
X219731Y538392D01*
X221852Y539271D01*
X223584Y539271D01*
X223648Y539280D01*
X223712Y539279D01*
X223787Y539300D01*
X223863Y539311D01*
X223922Y539337D01*
X223984Y539354D01*
X224050Y539395D01*
X224120Y539427D01*
X224169Y539469D01*
X224224Y539502D01*
X224276Y539560D01*
X224334Y539610D01*
X224370Y539664D01*
X224413Y539712D01*
X224446Y539781D01*
X224489Y539846D01*
X224508Y539908D01*
X224536Y539965D01*
X224547Y540035D01*
X224571Y540116D01*
X224572Y540201D01*
X224583Y540270D01*
X224583Y660400D01*
X224577Y660442D01*
X224580Y660478D01*
X224329Y663667D01*
X224298Y663807D01*
X224283Y663898D01*
X222313Y669963D01*
X222312Y669965D01*
X222311Y669967D01*
X222296Y669998D01*
X222189Y670216D01*
X222177Y670228D01*
X222171Y670241D01*
X218422Y675401D01*
X218421Y675403D01*
X218419Y675405D01*
X218395Y675429D01*
X218226Y675604D01*
X218212Y675612D01*
X218201Y675622D01*
X213041Y679371D01*
X213039Y679372D01*
X213038Y679373D01*
X213007Y679389D01*
X212792Y679503D01*
X212776Y679506D01*
X212763Y679513D01*
X206698Y681483D01*
X206556Y681508D01*
X206467Y681529D01*
X203278Y681780D01*
X203237Y681778D01*
X203200Y681783D01*
X25400Y681783D01*
X25358Y681777D01*
X25322Y681780D01*
X22133Y681529D01*
X21993Y681498D01*
X21902Y681483D01*
X15837Y679513D01*
X15835Y679512D01*
X15833Y679511D01*
X15802Y679496D01*
X15584Y679389D01*
X15572Y679377D01*
X15559Y679371D01*
X10399Y675622D01*
X10397Y675621D01*
X10395Y675619D01*
X10371Y675595D01*
X10196Y675426D01*
X10188Y675412D01*
X10178Y675401D01*
X6429Y670242D01*
X6428Y670240D01*
X6427Y670238D01*
X6411Y670207D01*
X6297Y669992D01*
X6294Y669976D01*
X6287Y669963D01*
X4317Y663898D01*
X4292Y663756D01*
X4271Y663667D01*
X4020Y660479D01*
X4022Y660437D01*
X4017Y660400D01*
X4017Y529449D01*
X4021Y529417D01*
X4019Y529385D01*
X4041Y529278D01*
X4057Y529170D01*
X4070Y529141D01*
X4076Y529109D01*
X4128Y529012D01*
X4173Y528913D01*
X4194Y528888D01*
X4209Y528860D01*
X4285Y528782D01*
X4356Y528699D01*
X4383Y528681D01*
X4406Y528658D01*
X4501Y528604D01*
X4592Y528544D01*
X4623Y528535D01*
X4651Y528519D01*
X4757Y528494D01*
X4862Y528462D01*
X4894Y528461D01*
X4925Y528454D01*
X5035Y528460D01*
X5144Y528458D01*
X5175Y528467D01*
X5207Y528468D01*
X5310Y528504D01*
X5416Y528533D01*
X5443Y528550D01*
X5474Y528561D01*
X5547Y528614D01*
X5656Y528681D01*
X5688Y528717D01*
X5723Y528743D01*
X6684Y529704D01*
X10587Y531321D01*
X14813Y531321D01*
X18716Y529704D01*
X21704Y526716D01*
X23321Y522813D01*
X23321Y518587D01*
X21704Y514684D01*
X18716Y511696D01*
X14813Y510079D01*
X10587Y510079D01*
X6684Y511696D01*
X5723Y512657D01*
X5697Y512677D01*
X5676Y512701D01*
X5584Y512761D01*
X5497Y512827D01*
X5467Y512838D01*
X5440Y512856D01*
X5335Y512888D01*
X5233Y512926D01*
X5201Y512929D01*
X5170Y512938D01*
X5061Y512940D01*
X4952Y512948D01*
X4920Y512941D01*
X4888Y512942D01*
X4783Y512913D01*
X4676Y512890D01*
X4647Y512875D01*
X4616Y512867D01*
X4523Y512809D01*
X4427Y512758D01*
X4404Y512735D01*
X4376Y512719D01*
X4303Y512638D01*
X4225Y512561D01*
X4209Y512533D01*
X4187Y512509D01*
X4140Y512411D01*
X4086Y512316D01*
X4078Y512284D01*
X4064Y512255D01*
X4050Y512166D01*
X4021Y512041D01*
X4023Y511993D01*
X4017Y511951D01*
X4017Y504049D01*
X4021Y504017D01*
X4019Y503985D01*
X4041Y503878D01*
X4057Y503770D01*
X4070Y503741D01*
X4076Y503709D01*
X4128Y503612D01*
X4173Y503513D01*
X4194Y503488D01*
X4209Y503460D01*
X4285Y503382D01*
X4356Y503299D01*
X4383Y503281D01*
X4406Y503258D01*
X4501Y503204D01*
X4592Y503144D01*
X4623Y503135D01*
X4651Y503119D01*
X4757Y503094D01*
X4862Y503062D01*
X4894Y503061D01*
X4925Y503054D01*
X5035Y503060D01*
X5144Y503058D01*
X5175Y503067D01*
X5207Y503068D01*
X5310Y503104D01*
X5416Y503133D01*
X5443Y503150D01*
X5474Y503161D01*
X5547Y503214D01*
X5656Y503281D01*
X5688Y503317D01*
X5723Y503343D01*
X6684Y504304D01*
X10587Y505921D01*
X14813Y505921D01*
X18716Y504304D01*
X21704Y501316D01*
X23314Y497429D01*
X23374Y497327D01*
X23430Y497222D01*
X23446Y497206D01*
X23458Y497186D01*
X23544Y497105D01*
X23627Y497020D01*
X23647Y497009D01*
X23663Y496993D01*
X23769Y496940D01*
X23872Y496881D01*
X23894Y496876D01*
X23915Y496866D01*
X24031Y496843D01*
X24147Y496816D01*
X24169Y496817D01*
X24192Y496813D01*
X24310Y496825D01*
X24428Y496831D01*
X24450Y496838D01*
X24473Y496840D01*
X24583Y496884D01*
X24695Y496923D01*
X24712Y496936D01*
X24735Y496945D01*
X24881Y497059D01*
X24944Y497105D01*
X25731Y497892D01*
X27852Y498771D01*
X30148Y498771D01*
X32269Y497892D01*
X33892Y496269D01*
X34771Y494148D01*
X34771Y491852D01*
X33892Y489731D01*
X32269Y488108D01*
X30148Y487229D01*
X27852Y487229D01*
X25731Y488108D01*
X24108Y489731D01*
X23922Y490181D01*
X23905Y490208D01*
X23895Y490239D01*
X23834Y490329D01*
X23778Y490423D01*
X23754Y490445D01*
X23736Y490472D01*
X23652Y490541D01*
X23572Y490616D01*
X23544Y490631D01*
X23519Y490651D01*
X23418Y490695D01*
X23321Y490744D01*
X23289Y490750D01*
X23260Y490763D01*
X23151Y490776D01*
X23044Y490796D01*
X23012Y490793D01*
X22980Y490797D01*
X22872Y490780D01*
X22763Y490769D01*
X22733Y490757D01*
X22701Y490752D01*
X22603Y490705D01*
X22501Y490665D01*
X22476Y490645D01*
X22447Y490631D01*
X22365Y490559D01*
X22279Y490491D01*
X22260Y490465D01*
X22236Y490444D01*
X22189Y490366D01*
X22114Y490263D01*
X22097Y490217D01*
X22075Y490181D01*
X21704Y489284D01*
X18716Y486296D01*
X14813Y484679D01*
X10587Y484679D01*
X6684Y486296D01*
X5723Y487257D01*
X5697Y487277D01*
X5676Y487301D01*
X5584Y487361D01*
X5497Y487427D01*
X5467Y487438D01*
X5440Y487456D01*
X5335Y487488D01*
X5233Y487526D01*
X5201Y487529D01*
X5170Y487538D01*
X5061Y487540D01*
X4952Y487548D01*
X4920Y487541D01*
X4888Y487542D01*
X4783Y487513D01*
X4676Y487490D01*
X4647Y487475D01*
X4616Y487467D01*
X4523Y487409D01*
X4427Y487358D01*
X4404Y487335D01*
X4376Y487319D01*
X4303Y487238D01*
X4225Y487161D01*
X4209Y487133D01*
X4187Y487109D01*
X4140Y487011D01*
X4086Y486916D01*
X4078Y486884D01*
X4064Y486855D01*
X4050Y486766D01*
X4021Y486641D01*
X4023Y486593D01*
X4017Y486551D01*
X4017Y478649D01*
X4021Y478617D01*
X4019Y478585D01*
X4025Y478554D01*
X4025Y478533D01*
X4042Y478470D01*
X4057Y478370D01*
X4070Y478341D01*
X4076Y478309D01*
X4098Y478268D01*
X4100Y478261D01*
X4114Y478238D01*
X4128Y478212D01*
X4173Y478113D01*
X4194Y478088D01*
X4209Y478060D01*
X4285Y477982D01*
X4356Y477899D01*
X4383Y477881D01*
X4406Y477858D01*
X4501Y477804D01*
X4592Y477744D01*
X4623Y477735D01*
X4651Y477719D01*
X4757Y477694D01*
X4862Y477662D01*
X4894Y477661D01*
X4925Y477654D01*
X5035Y477660D01*
X5144Y477658D01*
X5175Y477667D01*
X5207Y477668D01*
X5298Y477700D01*
X5307Y477701D01*
X5318Y477706D01*
X5416Y477733D01*
X5443Y477750D01*
X5474Y477761D01*
X5530Y477802D01*
X5563Y477817D01*
X5594Y477843D01*
X5656Y477881D01*
X5688Y477917D01*
X5723Y477943D01*
X6684Y478904D01*
X10587Y480521D01*
X14813Y480521D01*
X18716Y478904D01*
X21704Y475916D01*
X23321Y472013D01*
X23321Y471187D01*
X23325Y471155D01*
X23323Y471123D01*
X23345Y471016D01*
X23361Y470908D01*
X23374Y470878D01*
X23380Y470847D01*
X23432Y470750D01*
X23477Y470651D01*
X23498Y470626D01*
X23513Y470598D01*
X23589Y470520D01*
X23660Y470437D01*
X23687Y470419D01*
X23710Y470396D01*
X23805Y470342D01*
X23896Y470282D01*
X23927Y470273D01*
X23955Y470257D01*
X24061Y470232D01*
X24166Y470200D01*
X24198Y470199D01*
X24229Y470192D01*
X24339Y470197D01*
X24448Y470196D01*
X24479Y470205D01*
X24511Y470206D01*
X24614Y470242D01*
X24720Y470271D01*
X24747Y470288D01*
X24778Y470299D01*
X24851Y470352D01*
X24960Y470419D01*
X24992Y470455D01*
X25027Y470481D01*
X26014Y471468D01*
X27952Y472271D01*
X30048Y472271D01*
X31986Y471468D01*
X33468Y469986D01*
X34271Y468048D01*
X34271Y465952D01*
X33468Y464014D01*
X31986Y462532D01*
X30800Y462041D01*
X30698Y461980D01*
X30593Y461925D01*
X30577Y461909D01*
X30558Y461897D01*
X30477Y461811D01*
X30391Y461728D01*
X30380Y461708D01*
X30365Y461691D01*
X30311Y461586D01*
X30252Y461482D01*
X30247Y461460D01*
X30237Y461440D01*
X30215Y461323D01*
X30187Y461208D01*
X30189Y461185D01*
X30184Y461163D01*
X30196Y461045D01*
X30202Y460926D01*
X30209Y460905D01*
X30211Y460882D01*
X30255Y460772D01*
X30294Y460660D01*
X30307Y460642D01*
X30316Y460620D01*
X30431Y460473D01*
X30476Y460411D01*
X31293Y459594D01*
X32096Y457657D01*
X32096Y455560D01*
X31293Y453622D01*
X29769Y452098D01*
X29730Y452047D01*
X29684Y452002D01*
X29646Y451935D01*
X29600Y451873D01*
X29577Y451813D01*
X29545Y451757D01*
X29527Y451681D01*
X29500Y451609D01*
X29495Y451545D01*
X29480Y451482D01*
X29484Y451405D01*
X29478Y451328D01*
X29491Y451265D01*
X29495Y451201D01*
X29520Y451127D01*
X29536Y451052D01*
X29566Y450995D01*
X29587Y450934D01*
X29628Y450877D01*
X29668Y450803D01*
X29727Y450742D01*
X29769Y450685D01*
X30968Y449486D01*
X31771Y447548D01*
X31771Y445452D01*
X30968Y443514D01*
X29486Y442032D01*
X27548Y441229D01*
X25452Y441229D01*
X24147Y441770D01*
X24084Y441786D01*
X24025Y441811D01*
X23948Y441821D01*
X23873Y441840D01*
X23809Y441838D01*
X23745Y441846D01*
X23669Y441833D01*
X23591Y441831D01*
X23530Y441811D01*
X23467Y441801D01*
X23397Y441767D01*
X23323Y441743D01*
X23270Y441707D01*
X23212Y441680D01*
X23154Y441628D01*
X23090Y441585D01*
X23049Y441535D01*
X23001Y441492D01*
X22965Y441432D01*
X22911Y441367D01*
X22877Y441289D01*
X22841Y441229D01*
X21704Y438484D01*
X18716Y435496D01*
X14813Y433879D01*
X10587Y433879D01*
X6684Y435496D01*
X5723Y436457D01*
X5697Y436477D01*
X5676Y436501D01*
X5584Y436561D01*
X5497Y436627D01*
X5467Y436638D01*
X5440Y436656D01*
X5335Y436688D01*
X5233Y436726D01*
X5201Y436729D01*
X5170Y436738D01*
X5061Y436740D01*
X4952Y436748D01*
X4920Y436741D01*
X4888Y436742D01*
X4783Y436713D01*
X4676Y436690D01*
X4647Y436675D01*
X4616Y436667D01*
X4523Y436609D01*
X4427Y436558D01*
X4404Y436535D01*
X4376Y436519D01*
X4303Y436438D01*
X4225Y436361D01*
X4209Y436333D01*
X4187Y436309D01*
X4140Y436211D01*
X4086Y436116D01*
X4078Y436084D01*
X4064Y436055D01*
X4050Y435966D01*
X4021Y435841D01*
X4023Y435793D01*
X4017Y435751D01*
X4017Y427849D01*
X4021Y427817D01*
X4019Y427785D01*
X4041Y427678D01*
X4057Y427570D01*
X4070Y427541D01*
X4076Y427509D01*
X4128Y427412D01*
X4173Y427313D01*
X4194Y427288D01*
X4209Y427260D01*
X4285Y427182D01*
X4356Y427099D01*
X4383Y427081D01*
X4406Y427058D01*
X4501Y427004D01*
X4592Y426944D01*
X4623Y426935D01*
X4651Y426919D01*
X4757Y426894D01*
X4862Y426862D01*
X4894Y426861D01*
X4925Y426854D01*
X5035Y426860D01*
X5144Y426858D01*
X5175Y426867D01*
X5207Y426868D01*
X5310Y426904D01*
X5416Y426933D01*
X5443Y426950D01*
X5474Y426961D01*
X5547Y427014D01*
X5656Y427081D01*
X5688Y427117D01*
X5723Y427143D01*
X6684Y428104D01*
X10587Y429721D01*
X14813Y429721D01*
X18716Y428104D01*
X18811Y428033D01*
X18902Y427958D01*
X18923Y427949D01*
X18941Y427935D01*
X19052Y427893D01*
X19161Y427846D01*
X19184Y427844D01*
X19205Y427835D01*
X19323Y427826D01*
X19441Y427812D01*
X19464Y427815D01*
X19486Y427814D01*
X19602Y427838D01*
X19719Y427857D01*
X19740Y427867D01*
X19762Y427871D01*
X19867Y427927D01*
X19974Y427978D01*
X19991Y427993D01*
X20011Y428004D01*
X20096Y428086D01*
X20185Y428165D01*
X20196Y428184D01*
X20213Y428200D01*
X20306Y428363D01*
X20345Y428428D01*
X21108Y430269D01*
X22731Y431892D01*
X24852Y432771D01*
X27148Y432771D01*
X29269Y431892D01*
X30892Y430269D01*
X31771Y428148D01*
X31771Y425852D01*
X30892Y423731D01*
X29269Y422108D01*
X27148Y421229D01*
X24852Y421229D01*
X24702Y421291D01*
X24588Y421321D01*
X24474Y421355D01*
X24451Y421356D01*
X24429Y421361D01*
X24311Y421358D01*
X24192Y421359D01*
X24170Y421353D01*
X24147Y421352D01*
X24035Y421316D01*
X23920Y421284D01*
X23901Y421272D01*
X23879Y421265D01*
X23781Y421198D01*
X23680Y421136D01*
X23665Y421119D01*
X23646Y421106D01*
X23571Y421014D01*
X23491Y420926D01*
X23481Y420906D01*
X23467Y420888D01*
X23420Y420779D01*
X23368Y420673D01*
X23365Y420651D01*
X23355Y420629D01*
X23333Y420445D01*
X23321Y420368D01*
X23321Y416987D01*
X21704Y413084D01*
X18716Y410096D01*
X14813Y408479D01*
X10587Y408479D01*
X6684Y410096D01*
X5723Y411057D01*
X5697Y411077D01*
X5676Y411101D01*
X5584Y411161D01*
X5497Y411227D01*
X5467Y411238D01*
X5440Y411256D01*
X5335Y411288D01*
X5233Y411326D01*
X5201Y411329D01*
X5170Y411338D01*
X5061Y411340D01*
X4952Y411348D01*
X4920Y411341D01*
X4888Y411342D01*
X4783Y411313D01*
X4676Y411290D01*
X4647Y411275D01*
X4616Y411267D01*
X4523Y411209D01*
X4427Y411158D01*
X4404Y411135D01*
X4376Y411119D01*
X4303Y411038D01*
X4225Y410961D01*
X4209Y410933D01*
X4187Y410909D01*
X4140Y410811D01*
X4086Y410716D01*
X4078Y410684D01*
X4064Y410655D01*
X4050Y410566D01*
X4021Y410441D01*
X4023Y410393D01*
X4017Y410351D01*
X4017Y402449D01*
X4021Y402417D01*
X4019Y402385D01*
X4041Y402278D01*
X4057Y402170D01*
X4070Y402141D01*
X4076Y402109D01*
X4128Y402012D01*
X4173Y401913D01*
X4194Y401888D01*
X4209Y401860D01*
X4285Y401782D01*
X4356Y401699D01*
X4383Y401681D01*
X4406Y401658D01*
X4501Y401604D01*
X4592Y401544D01*
X4623Y401535D01*
X4651Y401519D01*
X4757Y401494D01*
X4862Y401462D01*
X4894Y401461D01*
X4925Y401454D01*
X5035Y401460D01*
X5144Y401458D01*
X5175Y401467D01*
X5207Y401468D01*
X5310Y401504D01*
X5416Y401533D01*
X5443Y401550D01*
X5474Y401561D01*
X5547Y401614D01*
X5656Y401681D01*
X5688Y401717D01*
X5723Y401743D01*
X6684Y402704D01*
X10587Y404321D01*
X14813Y404321D01*
X18716Y402704D01*
X21704Y399716D01*
X23251Y395982D01*
X23283Y395927D01*
X23307Y395867D01*
X23355Y395806D01*
X23394Y395739D01*
X23441Y395695D01*
X23481Y395644D01*
X23544Y395599D01*
X23600Y395546D01*
X23657Y395517D01*
X23709Y395479D01*
X23782Y395454D01*
X23851Y395418D01*
X23915Y395406D01*
X23975Y395385D01*
X24052Y395380D01*
X24128Y395366D01*
X24192Y395372D01*
X24257Y395368D01*
X24325Y395385D01*
X24409Y395393D01*
X24488Y395424D01*
X24556Y395441D01*
X25352Y395771D01*
X27648Y395771D01*
X29769Y394892D01*
X31392Y393269D01*
X32271Y391148D01*
X32271Y388852D01*
X31392Y386731D01*
X29769Y385108D01*
X27648Y384229D01*
X25352Y384229D01*
X23231Y385108D01*
X21886Y386453D01*
X21835Y386491D01*
X21790Y386538D01*
X21757Y386556D01*
X21754Y386559D01*
X21741Y386565D01*
X21722Y386576D01*
X21660Y386622D01*
X21600Y386645D01*
X21544Y386677D01*
X21469Y386694D01*
X21397Y386722D01*
X21333Y386727D01*
X21270Y386741D01*
X21193Y386738D01*
X21115Y386744D01*
X21052Y386730D01*
X20988Y386727D01*
X20915Y386702D01*
X20839Y386686D01*
X20783Y386656D01*
X20722Y386635D01*
X20665Y386593D01*
X20632Y386576D01*
X20627Y386573D01*
X20626Y386572D01*
X20590Y386553D01*
X20530Y386494D01*
X20473Y386453D01*
X18716Y384696D01*
X14813Y383079D01*
X10587Y383079D01*
X6684Y384696D01*
X5723Y385657D01*
X5697Y385677D01*
X5676Y385701D01*
X5584Y385761D01*
X5497Y385827D01*
X5467Y385838D01*
X5440Y385856D01*
X5335Y385888D01*
X5233Y385926D01*
X5201Y385929D01*
X5170Y385938D01*
X5061Y385940D01*
X4952Y385948D01*
X4920Y385941D01*
X4888Y385942D01*
X4783Y385913D01*
X4676Y385890D01*
X4647Y385875D01*
X4616Y385867D01*
X4523Y385809D01*
X4427Y385758D01*
X4404Y385735D01*
X4376Y385719D01*
X4303Y385638D01*
X4225Y385561D01*
X4209Y385533D01*
X4187Y385509D01*
X4140Y385411D01*
X4086Y385316D01*
X4078Y385284D01*
X4064Y385255D01*
X4050Y385166D01*
X4021Y385041D01*
X4023Y384993D01*
X4017Y384951D01*
X4017Y377049D01*
X4021Y377017D01*
X4019Y376985D01*
X4041Y376878D01*
X4057Y376770D01*
X4070Y376741D01*
X4076Y376709D01*
X4128Y376612D01*
X4173Y376513D01*
X4194Y376488D01*
X4209Y376460D01*
X4285Y376382D01*
X4356Y376299D01*
X4383Y376281D01*
X4406Y376258D01*
X4501Y376204D01*
X4592Y376144D01*
X4623Y376135D01*
X4651Y376119D01*
X4757Y376094D01*
X4862Y376062D01*
X4894Y376061D01*
X4925Y376054D01*
X5035Y376060D01*
X5144Y376058D01*
X5175Y376067D01*
X5207Y376068D01*
X5310Y376104D01*
X5416Y376133D01*
X5443Y376150D01*
X5474Y376161D01*
X5547Y376214D01*
X5656Y376281D01*
X5688Y376317D01*
X5723Y376343D01*
X6684Y377304D01*
X10587Y378921D01*
X14813Y378921D01*
X18716Y377304D01*
X21704Y374316D01*
X23321Y370413D01*
X23321Y366187D01*
X21704Y362284D01*
X18716Y359296D01*
X14813Y357679D01*
X10587Y357679D01*
X6684Y359296D01*
X5723Y360257D01*
X5697Y360277D01*
X5676Y360301D01*
X5584Y360361D01*
X5497Y360427D01*
X5467Y360438D01*
X5440Y360456D01*
X5335Y360488D01*
X5233Y360526D01*
X5201Y360529D01*
X5170Y360538D01*
X5061Y360540D01*
X4952Y360548D01*
X4920Y360541D01*
X4888Y360542D01*
X4783Y360513D01*
X4676Y360490D01*
X4647Y360475D01*
X4616Y360467D01*
X4523Y360409D01*
X4427Y360358D01*
X4404Y360335D01*
X4376Y360319D01*
X4303Y360238D01*
X4225Y360161D01*
X4209Y360133D01*
X4187Y360109D01*
X4140Y360011D01*
X4086Y359916D01*
X4078Y359884D01*
X4064Y359855D01*
X4050Y359766D01*
X4021Y359641D01*
X4023Y359593D01*
X4017Y359551D01*
X4017Y351649D01*
X4021Y351617D01*
X4019Y351585D01*
X4041Y351478D01*
X4057Y351370D01*
X4070Y351341D01*
X4076Y351309D01*
X4128Y351212D01*
X4173Y351113D01*
X4194Y351088D01*
X4209Y351060D01*
X4285Y350982D01*
X4356Y350899D01*
X4383Y350881D01*
X4406Y350858D01*
X4501Y350804D01*
X4592Y350744D01*
X4623Y350735D01*
X4651Y350719D01*
X4757Y350694D01*
X4862Y350662D01*
X4894Y350661D01*
X4925Y350654D01*
X5035Y350660D01*
X5144Y350658D01*
X5175Y350667D01*
X5207Y350668D01*
X5310Y350704D01*
X5416Y350733D01*
X5443Y350750D01*
X5474Y350761D01*
X5547Y350814D01*
X5656Y350881D01*
X5688Y350917D01*
X5723Y350943D01*
X6684Y351904D01*
X10587Y353521D01*
X14813Y353521D01*
X18716Y351904D01*
X21704Y348916D01*
X23321Y345013D01*
X23321Y340787D01*
X21704Y336884D01*
X18716Y333896D01*
X14813Y332279D01*
X10587Y332279D01*
X6684Y333896D01*
X5723Y334857D01*
X5697Y334877D01*
X5676Y334901D01*
X5584Y334961D01*
X5497Y335027D01*
X5467Y335038D01*
X5440Y335056D01*
X5335Y335088D01*
X5233Y335126D01*
X5201Y335129D01*
X5170Y335138D01*
X5061Y335140D01*
X4952Y335148D01*
X4920Y335141D01*
X4888Y335142D01*
X4783Y335113D01*
X4676Y335090D01*
X4647Y335075D01*
X4616Y335067D01*
X4523Y335009D01*
X4427Y334958D01*
X4404Y334935D01*
X4376Y334919D01*
X4303Y334838D01*
X4225Y334761D01*
X4209Y334733D01*
X4187Y334709D01*
X4140Y334611D01*
X4086Y334516D01*
X4078Y334484D01*
X4064Y334455D01*
X4050Y334366D01*
X4021Y334241D01*
X4023Y334193D01*
X4017Y334151D01*
X4017Y326249D01*
X4021Y326217D01*
X4019Y326185D01*
X4041Y326078D01*
X4057Y325970D01*
X4070Y325941D01*
X4076Y325909D01*
X4128Y325812D01*
X4173Y325713D01*
X4194Y325688D01*
X4209Y325660D01*
X4285Y325582D01*
X4356Y325499D01*
X4383Y325481D01*
X4406Y325458D01*
X4501Y325404D01*
X4592Y325344D01*
X4623Y325335D01*
X4651Y325319D01*
X4757Y325294D01*
X4862Y325262D01*
X4894Y325261D01*
X4925Y325254D01*
X5035Y325260D01*
X5144Y325258D01*
X5175Y325267D01*
X5207Y325268D01*
X5310Y325304D01*
X5416Y325333D01*
X5443Y325350D01*
X5474Y325361D01*
X5547Y325414D01*
X5656Y325481D01*
X5688Y325517D01*
X5723Y325543D01*
X6684Y326504D01*
X10587Y328121D01*
X14813Y328121D01*
X18716Y326504D01*
X21704Y323516D01*
X23321Y319613D01*
X23321Y318464D01*
X23333Y318378D01*
X23336Y318292D01*
X23353Y318239D01*
X23361Y318185D01*
X23396Y318106D01*
X23423Y318024D01*
X23454Y317978D01*
X23477Y317928D01*
X23533Y317862D01*
X23582Y317791D01*
X23624Y317756D01*
X23660Y317714D01*
X23733Y317666D01*
X23800Y317611D01*
X23850Y317590D01*
X23896Y317559D01*
X23979Y317534D01*
X24059Y317500D01*
X24113Y317493D01*
X24166Y317477D01*
X24253Y317476D01*
X24339Y317465D01*
X24393Y317474D01*
X24448Y317473D01*
X24532Y317496D01*
X24617Y317510D01*
X24667Y317534D01*
X24720Y317549D01*
X24793Y317594D01*
X24872Y317631D01*
X24913Y317668D01*
X24960Y317697D01*
X25018Y317761D01*
X25083Y317819D01*
X25109Y317862D01*
X25149Y317906D01*
X25198Y318008D01*
X25243Y318082D01*
X26032Y319986D01*
X27514Y321468D01*
X29452Y322271D01*
X31548Y322271D01*
X33486Y321468D01*
X34968Y319986D01*
X35789Y318004D01*
X35822Y317949D01*
X35846Y317889D01*
X35893Y317828D01*
X35933Y317761D01*
X35980Y317717D01*
X36019Y317667D01*
X36082Y317621D01*
X36138Y317568D01*
X36196Y317539D01*
X36248Y317502D01*
X36321Y317476D01*
X36390Y317441D01*
X36453Y317429D01*
X36514Y317407D01*
X36591Y317403D01*
X36667Y317388D01*
X36731Y317394D01*
X36795Y317391D01*
X36863Y317407D01*
X36948Y317415D01*
X37026Y317447D01*
X37095Y317463D01*
X37918Y317804D01*
X40015Y317804D01*
X41952Y317002D01*
X43435Y315519D01*
X44122Y313860D01*
X44171Y313777D01*
X44212Y313690D01*
X44243Y313656D01*
X44266Y313617D01*
X44336Y313551D01*
X44400Y313480D01*
X44436Y313457D01*
X44471Y313424D01*
X44586Y313366D01*
X44663Y313319D01*
X46322Y312632D01*
X47805Y311149D01*
X48607Y309212D01*
X48607Y307115D01*
X47805Y305178D01*
X46322Y303695D01*
X44385Y302893D01*
X42288Y302893D01*
X40351Y303695D01*
X38868Y305178D01*
X38181Y306837D01*
X38132Y306920D01*
X38091Y307007D01*
X38060Y307041D01*
X38037Y307080D01*
X37967Y307146D01*
X37903Y307217D01*
X37867Y307240D01*
X37832Y307273D01*
X37717Y307331D01*
X37640Y307378D01*
X35981Y308065D01*
X34498Y309548D01*
X33677Y311530D01*
X33645Y311585D01*
X33621Y311645D01*
X33573Y311706D01*
X33534Y311772D01*
X33487Y311816D01*
X33447Y311867D01*
X33385Y311912D01*
X33328Y311965D01*
X33271Y311994D01*
X33219Y312032D01*
X33146Y312058D01*
X33077Y312093D01*
X33013Y312105D01*
X32953Y312126D01*
X32876Y312131D01*
X32799Y312145D01*
X32736Y312139D01*
X32671Y312143D01*
X32603Y312126D01*
X32519Y312118D01*
X32440Y312087D01*
X32372Y312070D01*
X31548Y311729D01*
X29452Y311729D01*
X27514Y312532D01*
X26032Y314014D01*
X25243Y315918D01*
X25199Y315993D01*
X25163Y316072D01*
X25127Y316114D01*
X25100Y316161D01*
X25036Y316220D01*
X24980Y316286D01*
X24934Y316316D01*
X24894Y316354D01*
X24817Y316393D01*
X24744Y316441D01*
X24691Y316457D01*
X24642Y316481D01*
X24557Y316498D01*
X24474Y316523D01*
X24419Y316524D01*
X24365Y316534D01*
X24279Y316526D01*
X24192Y316527D01*
X24139Y316512D01*
X24085Y316507D01*
X24004Y316475D01*
X23920Y316451D01*
X23873Y316423D01*
X23823Y316402D01*
X23754Y316349D01*
X23680Y316303D01*
X23644Y316263D01*
X23600Y316229D01*
X23549Y316158D01*
X23491Y316094D01*
X23467Y316045D01*
X23435Y316000D01*
X23406Y315918D01*
X23368Y315840D01*
X23360Y315790D01*
X23341Y315734D01*
X23334Y315621D01*
X23321Y315536D01*
X23321Y315387D01*
X21704Y311484D01*
X21596Y311376D01*
X21544Y311306D01*
X21484Y311243D01*
X21459Y311194D01*
X21426Y311150D01*
X21396Y311069D01*
X21356Y310992D01*
X21346Y310938D01*
X21327Y310886D01*
X21320Y310800D01*
X21304Y310714D01*
X21309Y310660D01*
X21305Y310605D01*
X21323Y310520D01*
X21331Y310434D01*
X21351Y310383D01*
X21363Y310329D01*
X21403Y310252D01*
X21436Y310172D01*
X21469Y310129D01*
X21495Y310080D01*
X21556Y310018D01*
X21609Y309949D01*
X21654Y309917D01*
X21692Y309878D01*
X21768Y309835D01*
X21838Y309784D01*
X21889Y309766D01*
X21937Y309739D01*
X22022Y309719D01*
X22104Y309690D01*
X22158Y309687D01*
X22212Y309674D01*
X22298Y309678D01*
X22385Y309673D01*
X22435Y309685D01*
X22493Y309688D01*
X22601Y309726D01*
X22685Y309746D01*
X23952Y310271D01*
X26048Y310271D01*
X27986Y309468D01*
X29468Y307986D01*
X30271Y306048D01*
X30271Y303952D01*
X29468Y302014D01*
X27986Y300532D01*
X26048Y299729D01*
X23952Y299729D01*
X22002Y300537D01*
X21918Y300558D01*
X21837Y300589D01*
X21782Y300593D01*
X21729Y300607D01*
X21642Y300604D01*
X21555Y300611D01*
X21502Y300600D01*
X21447Y300598D01*
X21364Y300571D01*
X21279Y300553D01*
X21231Y300528D01*
X21179Y300510D01*
X21107Y300462D01*
X21030Y300421D01*
X20991Y300382D01*
X20946Y300352D01*
X20890Y300285D01*
X20828Y300224D01*
X20801Y300176D01*
X20766Y300134D01*
X20732Y300054D01*
X20689Y299979D01*
X20677Y299925D01*
X20655Y299875D01*
X20644Y299789D01*
X20624Y299704D01*
X20627Y299649D01*
X20620Y299595D01*
X20634Y299509D01*
X20639Y299423D01*
X20657Y299371D01*
X20665Y299317D01*
X20703Y299238D01*
X20731Y299156D01*
X20761Y299115D01*
X20786Y299062D01*
X20862Y298977D01*
X20913Y298907D01*
X21704Y298116D01*
X23321Y294213D01*
X23321Y289987D01*
X21704Y286084D01*
X18716Y283096D01*
X14813Y281479D01*
X12770Y281479D01*
X12706Y281470D01*
X12642Y281471D01*
X12567Y281450D01*
X12491Y281439D01*
X12432Y281413D01*
X12370Y281396D01*
X12304Y281355D01*
X12234Y281323D01*
X12185Y281281D01*
X12130Y281248D01*
X12078Y281190D01*
X12020Y281140D01*
X11984Y281086D01*
X11941Y281038D01*
X11908Y280969D01*
X11865Y280904D01*
X11846Y280842D01*
X11818Y280785D01*
X11807Y280715D01*
X11783Y280634D01*
X11782Y280549D01*
X11771Y280480D01*
X11771Y278320D01*
X11780Y278256D01*
X11779Y278192D01*
X11800Y278117D01*
X11811Y278041D01*
X11837Y277982D01*
X11854Y277920D01*
X11895Y277854D01*
X11927Y277784D01*
X11969Y277735D01*
X12002Y277680D01*
X12060Y277628D01*
X12110Y277570D01*
X12164Y277534D01*
X12212Y277491D01*
X12281Y277458D01*
X12346Y277415D01*
X12408Y277396D01*
X12465Y277368D01*
X12535Y277357D01*
X12616Y277333D01*
X12701Y277332D01*
X12770Y277321D01*
X14813Y277321D01*
X18716Y275704D01*
X21704Y272716D01*
X23321Y268813D01*
X23321Y264587D01*
X21704Y260684D01*
X18716Y257696D01*
X14813Y256079D01*
X12770Y256079D01*
X12706Y256070D01*
X12642Y256071D01*
X12567Y256050D01*
X12491Y256039D01*
X12432Y256013D01*
X12370Y255996D01*
X12304Y255955D01*
X12234Y255923D01*
X12185Y255881D01*
X12130Y255848D01*
X12078Y255790D01*
X12020Y255740D01*
X11984Y255686D01*
X11941Y255638D01*
X11908Y255569D01*
X11865Y255504D01*
X11846Y255442D01*
X11818Y255385D01*
X11807Y255315D01*
X11783Y255234D01*
X11782Y255149D01*
X11771Y255080D01*
X11771Y252920D01*
X11780Y252856D01*
X11779Y252792D01*
X11800Y252717D01*
X11811Y252641D01*
X11837Y252582D01*
X11854Y252520D01*
X11895Y252454D01*
X11927Y252384D01*
X11969Y252335D01*
X12002Y252280D01*
X12060Y252228D01*
X12110Y252170D01*
X12164Y252134D01*
X12212Y252091D01*
X12281Y252058D01*
X12346Y252015D01*
X12408Y251996D01*
X12465Y251968D01*
X12535Y251957D01*
X12616Y251933D01*
X12701Y251932D01*
X12770Y251921D01*
X14813Y251921D01*
X18716Y250304D01*
X21704Y247316D01*
X23321Y243413D01*
X23321Y239187D01*
X21704Y235284D01*
X18716Y232296D01*
X14813Y230679D01*
X10587Y230679D01*
X6684Y232296D01*
X5723Y233257D01*
X5697Y233277D01*
X5676Y233301D01*
X5584Y233361D01*
X5497Y233427D01*
X5467Y233438D01*
X5440Y233456D01*
X5335Y233488D01*
X5233Y233526D01*
X5201Y233529D01*
X5170Y233538D01*
X5061Y233540D01*
X4952Y233548D01*
X4920Y233541D01*
X4888Y233542D01*
X4783Y233513D01*
X4676Y233490D01*
X4647Y233475D01*
X4616Y233467D01*
X4523Y233409D01*
X4427Y233358D01*
X4404Y233335D01*
X4376Y233319D01*
X4303Y233238D01*
X4225Y233161D01*
X4209Y233133D01*
X4187Y233109D01*
X4140Y233011D01*
X4086Y232916D01*
X4078Y232884D01*
X4064Y232855D01*
X4050Y232766D01*
X4021Y232641D01*
X4023Y232593D01*
X4017Y232551D01*
X4017Y25400D01*
X4023Y25358D01*
X4020Y25322D01*
X4271Y22133D01*
X4302Y21993D01*
X4317Y21902D01*
X6287Y15837D01*
X6288Y15835D01*
X6289Y15833D01*
X6304Y15802D01*
X6411Y15584D01*
X6423Y15572D01*
X6429Y15559D01*
X10178Y10399D01*
X10179Y10397D01*
X10181Y10395D01*
X10194Y10382D01*
X10200Y10372D01*
X10232Y10344D01*
X10374Y10196D01*
X10388Y10188D01*
X10399Y10178D01*
X15559Y6429D01*
X15561Y6428D01*
X15562Y6427D01*
X15593Y6411D01*
X15808Y6297D01*
X15824Y6294D01*
X15837Y6287D01*
X21902Y4317D01*
X22044Y4292D01*
X22133Y4271D01*
X25322Y4020D01*
X25363Y4022D01*
X25400Y4017D01*
X65173Y4017D01*
X65237Y4026D01*
G37*
%LPC*%
G36*
X146750Y241749D02*
X146750Y241749D01*
X117477Y271022D01*
X117451Y271042D01*
X117430Y271066D01*
X117338Y271126D01*
X117251Y271192D01*
X117221Y271203D01*
X117194Y271221D01*
X117089Y271253D01*
X116987Y271291D01*
X116955Y271294D01*
X116924Y271303D01*
X116815Y271305D01*
X116706Y271313D01*
X116674Y271306D01*
X116642Y271307D01*
X116537Y271278D01*
X116430Y271255D01*
X116401Y271240D01*
X116370Y271232D01*
X116277Y271174D01*
X116181Y271123D01*
X116158Y271100D01*
X116130Y271084D01*
X116057Y271002D01*
X115979Y270926D01*
X115963Y270898D01*
X115941Y270874D01*
X115894Y270776D01*
X115840Y270681D01*
X115832Y270649D01*
X115818Y270620D01*
X115804Y270531D01*
X115775Y270406D01*
X115777Y270358D01*
X115771Y270316D01*
X115771Y269852D01*
X114892Y267731D01*
X113269Y266108D01*
X111148Y265229D01*
X108852Y265229D01*
X106731Y266108D01*
X105108Y267731D01*
X104229Y269852D01*
X104229Y272148D01*
X104341Y272418D01*
X104349Y272450D01*
X104364Y272479D01*
X104384Y272586D01*
X104411Y272692D01*
X104410Y272724D01*
X104416Y272756D01*
X104406Y272864D01*
X104402Y272974D01*
X104392Y273004D01*
X104389Y273036D01*
X104349Y273138D01*
X104315Y273242D01*
X104297Y273268D01*
X104285Y273298D01*
X104218Y273384D01*
X104156Y273475D01*
X104131Y273495D01*
X104111Y273521D01*
X104023Y273585D01*
X103938Y273654D01*
X103909Y273667D01*
X103883Y273686D01*
X103780Y273722D01*
X103679Y273765D01*
X103647Y273769D01*
X103617Y273780D01*
X103508Y273787D01*
X103399Y273800D01*
X103368Y273795D01*
X103335Y273797D01*
X103247Y273775D01*
X103121Y273755D01*
X103077Y273734D01*
X103036Y273724D01*
X103011Y273714D01*
X102953Y273711D01*
X102910Y273696D01*
X102865Y273689D01*
X102778Y273650D01*
X102687Y273618D01*
X102652Y273593D01*
X102608Y273573D01*
X102511Y273490D01*
X102438Y273437D01*
X86978Y257977D01*
X86958Y257951D01*
X86934Y257930D01*
X86874Y257838D01*
X86808Y257751D01*
X86797Y257721D01*
X86779Y257694D01*
X86747Y257589D01*
X86709Y257487D01*
X86706Y257455D01*
X86697Y257424D01*
X86695Y257315D01*
X86687Y257206D01*
X86694Y257174D01*
X86693Y257142D01*
X86722Y257037D01*
X86745Y256930D01*
X86760Y256901D01*
X86768Y256870D01*
X86826Y256777D01*
X86877Y256681D01*
X86900Y256658D01*
X86916Y256630D01*
X86998Y256557D01*
X87074Y256479D01*
X87102Y256463D01*
X87126Y256441D01*
X87224Y256394D01*
X87319Y256340D01*
X87351Y256332D01*
X87380Y256318D01*
X87469Y256304D01*
X87594Y256275D01*
X87642Y256277D01*
X87684Y256271D01*
X89148Y256271D01*
X91269Y255392D01*
X92892Y253769D01*
X93771Y251648D01*
X93771Y249352D01*
X92892Y247231D01*
X91269Y245608D01*
X89148Y244729D01*
X86852Y244729D01*
X84731Y245608D01*
X83108Y247231D01*
X82229Y249352D01*
X82229Y250816D01*
X82225Y250848D01*
X82227Y250880D01*
X82205Y250987D01*
X82189Y251095D01*
X82176Y251124D01*
X82170Y251156D01*
X82118Y251253D01*
X82073Y251352D01*
X82052Y251376D01*
X82037Y251405D01*
X81961Y251483D01*
X81890Y251566D01*
X81863Y251584D01*
X81840Y251607D01*
X81745Y251661D01*
X81654Y251721D01*
X81623Y251730D01*
X81595Y251746D01*
X81488Y251771D01*
X81384Y251803D01*
X81352Y251804D01*
X81321Y251811D01*
X81211Y251805D01*
X81102Y251807D01*
X81071Y251798D01*
X81039Y251797D01*
X80936Y251761D01*
X80830Y251732D01*
X80803Y251715D01*
X80772Y251704D01*
X80699Y251651D01*
X80590Y251584D01*
X80558Y251547D01*
X80523Y251522D01*
X78929Y249928D01*
X78904Y249895D01*
X78873Y249867D01*
X78828Y249794D01*
X78760Y249703D01*
X78739Y249647D01*
X78713Y249604D01*
X78468Y249014D01*
X76986Y247532D01*
X76396Y247287D01*
X76360Y247266D01*
X76321Y247253D01*
X76251Y247202D01*
X76153Y247144D01*
X76113Y247101D01*
X76072Y247071D01*
X73793Y244792D01*
X73500Y244499D01*
X54928Y263071D01*
X54895Y263096D01*
X54867Y263127D01*
X54794Y263172D01*
X54703Y263240D01*
X54647Y263261D01*
X54604Y263287D01*
X54014Y263532D01*
X52532Y265014D01*
X52287Y265604D01*
X52266Y265640D01*
X52253Y265679D01*
X52202Y265749D01*
X52144Y265847D01*
X52101Y265887D01*
X52071Y265928D01*
X37928Y280071D01*
X37895Y280096D01*
X37867Y280127D01*
X37794Y280172D01*
X37703Y280240D01*
X37647Y280261D01*
X37604Y280287D01*
X37014Y280532D01*
X35532Y282014D01*
X35287Y282604D01*
X35266Y282640D01*
X35253Y282679D01*
X35202Y282749D01*
X35144Y282847D01*
X35101Y282887D01*
X35071Y282928D01*
X33792Y284207D01*
X33499Y284500D01*
X34437Y285438D01*
X34494Y285514D01*
X34559Y285586D01*
X34579Y285627D01*
X34606Y285663D01*
X34640Y285753D01*
X34682Y285840D01*
X34688Y285882D01*
X34705Y285927D01*
X34711Y286005D01*
X35532Y287986D01*
X37014Y289468D01*
X38989Y290286D01*
X39047Y290289D01*
X39090Y290304D01*
X39135Y290311D01*
X39222Y290350D01*
X39313Y290382D01*
X39348Y290407D01*
X39392Y290427D01*
X39489Y290510D01*
X39562Y290563D01*
X60437Y311438D01*
X60494Y311514D01*
X60559Y311586D01*
X60579Y311627D01*
X60606Y311663D01*
X60640Y311753D01*
X60682Y311840D01*
X60688Y311882D01*
X60705Y311927D01*
X60715Y312055D01*
X60729Y312144D01*
X60729Y312548D01*
X61532Y314486D01*
X63014Y315968D01*
X64952Y316771D01*
X67048Y316771D01*
X68986Y315968D01*
X69661Y315293D01*
X69737Y315236D01*
X69809Y315171D01*
X69850Y315151D01*
X69886Y315124D01*
X69976Y315090D01*
X70063Y315048D01*
X70105Y315042D01*
X70150Y315025D01*
X70278Y315015D01*
X70367Y315001D01*
X79010Y315001D01*
X79127Y315017D01*
X79246Y315029D01*
X79267Y315037D01*
X79289Y315041D01*
X79397Y315089D01*
X79508Y315133D01*
X79525Y315147D01*
X79546Y315157D01*
X79636Y315234D01*
X79730Y315307D01*
X79743Y315325D01*
X79761Y315340D01*
X79826Y315440D01*
X79895Y315536D01*
X79903Y315557D01*
X79915Y315576D01*
X79950Y315690D01*
X79989Y315801D01*
X79991Y315824D01*
X79997Y315846D01*
X79999Y315964D01*
X80006Y316083D01*
X80001Y316104D01*
X80001Y316128D01*
X79951Y316307D01*
X79933Y316382D01*
X79229Y318082D01*
X79229Y320378D01*
X80108Y322499D01*
X81731Y324122D01*
X83852Y325001D01*
X86148Y325001D01*
X88269Y324122D01*
X89892Y322499D01*
X90771Y320378D01*
X90771Y320270D01*
X90780Y320206D01*
X90779Y320142D01*
X90800Y320067D01*
X90811Y319991D01*
X90837Y319932D01*
X90854Y319870D01*
X90895Y319804D01*
X90927Y319734D01*
X90969Y319685D01*
X91002Y319630D01*
X91060Y319578D01*
X91110Y319520D01*
X91164Y319484D01*
X91212Y319441D01*
X91281Y319408D01*
X91346Y319365D01*
X91408Y319346D01*
X91465Y319318D01*
X91535Y319307D01*
X91616Y319283D01*
X91701Y319282D01*
X91770Y319271D01*
X92548Y319271D01*
X94486Y318468D01*
X95968Y316986D01*
X96771Y315048D01*
X96771Y314644D01*
X96784Y314549D01*
X96789Y314453D01*
X96804Y314410D01*
X96811Y314365D01*
X96850Y314277D01*
X96882Y314187D01*
X96907Y314152D01*
X96927Y314108D01*
X97010Y314011D01*
X97063Y313938D01*
X102938Y308063D01*
X103014Y308006D01*
X103086Y307941D01*
X103127Y307921D01*
X103163Y307894D01*
X103253Y307860D01*
X103340Y307818D01*
X103382Y307812D01*
X103427Y307795D01*
X103555Y307785D01*
X103644Y307771D01*
X104548Y307771D01*
X106486Y306968D01*
X107968Y305486D01*
X108771Y303548D01*
X108771Y301452D01*
X107968Y299514D01*
X106428Y297974D01*
X106375Y297943D01*
X106368Y297936D01*
X106360Y297931D01*
X106272Y297833D01*
X106182Y297737D01*
X106178Y297729D01*
X106171Y297722D01*
X106114Y297603D01*
X106054Y297486D01*
X106052Y297476D01*
X106048Y297468D01*
X106036Y297391D01*
X106002Y297209D01*
X106004Y297185D01*
X106001Y297163D01*
X106001Y282867D01*
X106014Y282772D01*
X106019Y282676D01*
X106034Y282633D01*
X106041Y282588D01*
X106080Y282500D01*
X106112Y282409D01*
X106137Y282375D01*
X106157Y282331D01*
X106240Y282234D01*
X106293Y282160D01*
X106468Y281986D01*
X107271Y280048D01*
X107271Y277944D01*
X107268Y277933D01*
X107253Y277904D01*
X107233Y277797D01*
X107206Y277691D01*
X107207Y277659D01*
X107201Y277627D01*
X107211Y277519D01*
X107215Y277409D01*
X107225Y277379D01*
X107228Y277346D01*
X107269Y277245D01*
X107302Y277141D01*
X107320Y277114D01*
X107332Y277084D01*
X107400Y276998D01*
X107461Y276908D01*
X107486Y276888D01*
X107506Y276862D01*
X107594Y276798D01*
X107679Y276729D01*
X107709Y276716D01*
X107735Y276697D01*
X107837Y276661D01*
X107938Y276617D01*
X107970Y276613D01*
X108000Y276603D01*
X108109Y276596D01*
X108218Y276583D01*
X108250Y276588D01*
X108282Y276586D01*
X108370Y276607D01*
X108496Y276628D01*
X108540Y276649D01*
X108582Y276659D01*
X108852Y276771D01*
X111148Y276771D01*
X112022Y276409D01*
X112053Y276401D01*
X112082Y276386D01*
X112189Y276366D01*
X112295Y276339D01*
X112327Y276340D01*
X112359Y276334D01*
X112468Y276344D01*
X112577Y276348D01*
X112608Y276358D01*
X112640Y276361D01*
X112741Y276401D01*
X112845Y276435D01*
X112872Y276453D01*
X112902Y276465D01*
X112988Y276532D01*
X113078Y276594D01*
X113099Y276619D01*
X113124Y276639D01*
X113188Y276727D01*
X113258Y276812D01*
X113270Y276841D01*
X113289Y276867D01*
X113326Y276970D01*
X113369Y277071D01*
X113373Y277103D01*
X113384Y277133D01*
X113390Y277242D01*
X113403Y277351D01*
X113398Y277382D01*
X113400Y277415D01*
X113379Y277503D01*
X113358Y277629D01*
X113338Y277673D01*
X113328Y277714D01*
X113229Y277952D01*
X113229Y280048D01*
X114032Y281986D01*
X114207Y282161D01*
X114264Y282237D01*
X114329Y282309D01*
X114349Y282350D01*
X114376Y282386D01*
X114410Y282476D01*
X114452Y282563D01*
X114458Y282605D01*
X114475Y282650D01*
X114485Y282778D01*
X114499Y282867D01*
X114499Y297633D01*
X114486Y297728D01*
X114481Y297824D01*
X114466Y297867D01*
X114459Y297912D01*
X114420Y298000D01*
X114388Y298090D01*
X114363Y298125D01*
X114343Y298169D01*
X114260Y298266D01*
X114207Y298339D01*
X113032Y299514D01*
X112229Y301452D01*
X112229Y303548D01*
X113032Y305486D01*
X114514Y306968D01*
X116452Y307771D01*
X116856Y307771D01*
X116951Y307784D01*
X117047Y307789D01*
X117090Y307804D01*
X117135Y307811D01*
X117222Y307850D01*
X117313Y307882D01*
X117348Y307907D01*
X117392Y307927D01*
X117489Y308010D01*
X117562Y308063D01*
X123437Y313938D01*
X123494Y314014D01*
X123559Y314086D01*
X123579Y314127D01*
X123606Y314163D01*
X123640Y314253D01*
X123682Y314340D01*
X123688Y314382D01*
X123705Y314427D01*
X123711Y314505D01*
X124532Y316486D01*
X126014Y317968D01*
X127989Y318786D01*
X128047Y318789D01*
X128090Y318804D01*
X128135Y318811D01*
X128222Y318850D01*
X128313Y318882D01*
X128348Y318907D01*
X128392Y318927D01*
X128478Y319001D01*
X128520Y319001D01*
X128586Y318941D01*
X128627Y318921D01*
X128663Y318894D01*
X128753Y318860D01*
X128840Y318818D01*
X128882Y318812D01*
X128927Y318795D01*
X129055Y318785D01*
X129144Y318771D01*
X130230Y318771D01*
X130294Y318780D01*
X130358Y318779D01*
X130433Y318800D01*
X130509Y318811D01*
X130568Y318837D01*
X130630Y318854D01*
X130696Y318895D01*
X130766Y318927D01*
X130815Y318969D01*
X130870Y319002D01*
X130922Y319060D01*
X130980Y319110D01*
X131016Y319164D01*
X131059Y319212D01*
X131092Y319281D01*
X131135Y319346D01*
X131154Y319408D01*
X131182Y319465D01*
X131193Y319535D01*
X131217Y319616D01*
X131218Y319701D01*
X131229Y319770D01*
X131229Y320148D01*
X132108Y322269D01*
X133731Y323892D01*
X135852Y324771D01*
X138148Y324771D01*
X140269Y323892D01*
X141892Y322269D01*
X142771Y320148D01*
X142771Y317852D01*
X142162Y316382D01*
X142132Y316268D01*
X142098Y316154D01*
X142098Y316131D01*
X142092Y316109D01*
X142096Y315991D01*
X142094Y315872D01*
X142100Y315850D01*
X142101Y315827D01*
X142138Y315715D01*
X142169Y315600D01*
X142181Y315581D01*
X142188Y315559D01*
X142255Y315461D01*
X142317Y315360D01*
X142334Y315345D01*
X142347Y315326D01*
X142439Y315251D01*
X142527Y315171D01*
X142547Y315161D01*
X142565Y315147D01*
X142674Y315100D01*
X142781Y315048D01*
X142802Y315045D01*
X142824Y315035D01*
X143009Y315013D01*
X143085Y315001D01*
X147633Y315001D01*
X147728Y315014D01*
X147824Y315019D01*
X147867Y315034D01*
X147912Y315041D01*
X148000Y315080D01*
X148090Y315112D01*
X148125Y315137D01*
X148169Y315157D01*
X148266Y315240D01*
X148339Y315293D01*
X148514Y315468D01*
X150452Y316271D01*
X152548Y316271D01*
X154486Y315468D01*
X155968Y313986D01*
X156771Y312048D01*
X156771Y311144D01*
X156784Y311049D01*
X156789Y310953D01*
X156804Y310910D01*
X156811Y310865D01*
X156850Y310778D01*
X156882Y310687D01*
X156907Y310652D01*
X156927Y310608D01*
X157010Y310511D01*
X157063Y310438D01*
X179938Y287563D01*
X180014Y287506D01*
X180086Y287441D01*
X180127Y287421D01*
X180163Y287394D01*
X180253Y287360D01*
X180340Y287318D01*
X180382Y287312D01*
X180427Y287295D01*
X180555Y287285D01*
X180644Y287271D01*
X181048Y287271D01*
X182986Y286468D01*
X184468Y284986D01*
X185271Y283048D01*
X185271Y282644D01*
X185284Y282549D01*
X185289Y282453D01*
X185304Y282410D01*
X185311Y282365D01*
X185350Y282278D01*
X185382Y282187D01*
X185407Y282152D01*
X185427Y282108D01*
X185510Y282011D01*
X185563Y281938D01*
X186251Y281250D01*
X184929Y279928D01*
X184904Y279895D01*
X184873Y279867D01*
X184828Y279793D01*
X184760Y279703D01*
X184739Y279648D01*
X184713Y279604D01*
X184468Y279014D01*
X182986Y277532D01*
X182396Y277287D01*
X182360Y277266D01*
X182321Y277253D01*
X182251Y277202D01*
X182153Y277144D01*
X182113Y277101D01*
X182072Y277071D01*
X170063Y265062D01*
X170006Y264986D01*
X169941Y264914D01*
X169921Y264873D01*
X169894Y264837D01*
X169860Y264747D01*
X169818Y264660D01*
X169812Y264618D01*
X169795Y264573D01*
X169789Y264495D01*
X168968Y262514D01*
X167486Y261032D01*
X165511Y260214D01*
X165453Y260211D01*
X165410Y260196D01*
X165365Y260189D01*
X165277Y260150D01*
X165187Y260118D01*
X165152Y260093D01*
X165108Y260073D01*
X165011Y259990D01*
X164938Y259937D01*
X162978Y257977D01*
X162958Y257951D01*
X162934Y257930D01*
X162874Y257838D01*
X162808Y257751D01*
X162797Y257721D01*
X162779Y257694D01*
X162747Y257589D01*
X162709Y257487D01*
X162706Y257455D01*
X162697Y257424D01*
X162695Y257315D01*
X162687Y257206D01*
X162694Y257174D01*
X162693Y257142D01*
X162722Y257037D01*
X162745Y256930D01*
X162760Y256901D01*
X162768Y256870D01*
X162826Y256777D01*
X162877Y256681D01*
X162900Y256658D01*
X162916Y256630D01*
X162998Y256557D01*
X163074Y256479D01*
X163102Y256463D01*
X163126Y256441D01*
X163224Y256394D01*
X163319Y256340D01*
X163351Y256332D01*
X163380Y256318D01*
X163469Y256304D01*
X163594Y256275D01*
X163642Y256277D01*
X163684Y256271D01*
X165648Y256271D01*
X167769Y255392D01*
X169392Y253769D01*
X170271Y251648D01*
X170271Y249352D01*
X169392Y247231D01*
X167769Y245608D01*
X165648Y244729D01*
X163352Y244729D01*
X161231Y245608D01*
X159608Y247231D01*
X158729Y249352D01*
X158729Y251316D01*
X158725Y251348D01*
X158727Y251380D01*
X158705Y251487D01*
X158689Y251595D01*
X158676Y251624D01*
X158670Y251656D01*
X158618Y251753D01*
X158573Y251852D01*
X158552Y251876D01*
X158537Y251905D01*
X158461Y251983D01*
X158390Y252066D01*
X158363Y252084D01*
X158340Y252107D01*
X158245Y252161D01*
X158154Y252221D01*
X158123Y252230D01*
X158095Y252246D01*
X157988Y252271D01*
X157884Y252303D01*
X157852Y252304D01*
X157821Y252311D01*
X157711Y252305D01*
X157602Y252307D01*
X157571Y252298D01*
X157539Y252297D01*
X157436Y252261D01*
X157330Y252232D01*
X157303Y252215D01*
X157272Y252204D01*
X157199Y252151D01*
X157090Y252084D01*
X157058Y252047D01*
X157023Y252022D01*
X151929Y246928D01*
X151904Y246895D01*
X151873Y246867D01*
X151828Y246794D01*
X151760Y246703D01*
X151739Y246647D01*
X151713Y246604D01*
X151468Y246014D01*
X149986Y244532D01*
X149396Y244287D01*
X149360Y244266D01*
X149321Y244253D01*
X149251Y244202D01*
X149153Y244144D01*
X149113Y244101D01*
X149072Y244071D01*
X147043Y242042D01*
X146750Y241749D01*
X146750Y241749D01*
G37*
%LPD*%
%LPC*%
G36*
X199572Y7159D02*
X199572Y7159D01*
X192867Y9936D01*
X187736Y15067D01*
X184959Y21772D01*
X184959Y29028D01*
X187736Y35733D01*
X190687Y38683D01*
X190731Y38741D01*
X190782Y38793D01*
X190815Y38854D01*
X190856Y38909D01*
X190882Y38977D01*
X190917Y39041D01*
X190931Y39108D01*
X190956Y39173D01*
X190962Y39245D01*
X190977Y39316D01*
X190972Y39385D01*
X190978Y39454D01*
X190963Y39525D01*
X190958Y39597D01*
X190934Y39663D01*
X190920Y39730D01*
X190886Y39794D01*
X190861Y39862D01*
X190820Y39918D01*
X190788Y39979D01*
X190737Y40031D01*
X190694Y40090D01*
X190639Y40132D01*
X190591Y40181D01*
X190528Y40217D01*
X190470Y40261D01*
X190406Y40286D01*
X190345Y40320D01*
X190275Y40337D01*
X190207Y40363D01*
X190144Y40368D01*
X190071Y40385D01*
X189976Y40380D01*
X189900Y40386D01*
X189851Y40382D01*
X189804Y40412D01*
X189750Y40427D01*
X189700Y40452D01*
X189624Y40464D01*
X189622Y40464D01*
X188621Y41465D01*
X188587Y41491D01*
X188562Y41520D01*
X187487Y42434D01*
X187474Y42488D01*
X187447Y42537D01*
X187429Y42590D01*
X187384Y42652D01*
X187383Y42654D01*
X187383Y44069D01*
X187377Y44112D01*
X187380Y44150D01*
X187266Y45556D01*
X187295Y45604D01*
X187311Y45657D01*
X187335Y45708D01*
X187347Y45784D01*
X187348Y45785D01*
X188265Y46702D01*
X188294Y46742D01*
X188331Y46775D01*
X188379Y46854D01*
X188434Y46928D01*
X188451Y46974D01*
X188477Y47016D01*
X188501Y47105D01*
X188534Y47192D01*
X188537Y47241D01*
X188550Y47289D01*
X188548Y47381D01*
X188555Y47473D01*
X188545Y47521D01*
X188544Y47571D01*
X188519Y47648D01*
X188498Y47749D01*
X188466Y47809D01*
X188448Y47864D01*
X187086Y50531D01*
X187566Y52014D01*
X188216Y54020D01*
X191627Y56501D01*
X195332Y56501D01*
X195384Y56459D01*
X198041Y54925D01*
X199575Y52268D01*
X199617Y52214D01*
X199617Y49060D01*
X199514Y48957D01*
X199493Y48929D01*
X199466Y48906D01*
X199418Y48830D01*
X199345Y48732D01*
X199326Y48683D01*
X199302Y48644D01*
X199103Y48180D01*
X199080Y48095D01*
X199048Y48013D01*
X199045Y47964D01*
X199030Y47908D01*
X199032Y47793D01*
X199027Y47725D01*
X199020Y47717D01*
X199007Y47696D01*
X198990Y47680D01*
X198932Y47577D01*
X198870Y47478D01*
X198863Y47455D01*
X198851Y47434D01*
X198824Y47320D01*
X198792Y47207D01*
X198792Y47183D01*
X198786Y47160D01*
X198792Y47042D01*
X198793Y46925D01*
X198800Y46902D01*
X198801Y46878D01*
X198839Y46767D01*
X198873Y46654D01*
X198885Y46634D01*
X198893Y46612D01*
X198947Y46538D01*
X199025Y46417D01*
X199054Y46391D01*
X199075Y46363D01*
X199617Y45821D01*
X199617Y44640D01*
X199626Y44576D01*
X199625Y44512D01*
X199646Y44437D01*
X199657Y44361D01*
X199683Y44302D01*
X199701Y44240D01*
X199741Y44174D01*
X199773Y44104D01*
X199815Y44055D01*
X199849Y44000D01*
X199906Y43948D01*
X199957Y43890D01*
X200010Y43854D01*
X200058Y43811D01*
X200128Y43778D01*
X200193Y43735D01*
X200254Y43716D01*
X200312Y43688D01*
X200381Y43677D01*
X200462Y43653D01*
X200547Y43652D01*
X200616Y43641D01*
X206828Y43641D01*
X213533Y40864D01*
X218664Y35733D01*
X221441Y29028D01*
X221441Y21772D01*
X218664Y15067D01*
X213533Y9936D01*
X206828Y7159D01*
X199572Y7159D01*
G37*
%LPD*%
%LPC*%
G36*
X21772Y7159D02*
X21772Y7159D01*
X15067Y9936D01*
X9936Y15067D01*
X7159Y21772D01*
X7159Y29028D01*
X9936Y35733D01*
X15067Y40864D01*
X21772Y43641D01*
X29028Y43641D01*
X35733Y40864D01*
X40864Y35733D01*
X43641Y29028D01*
X43641Y21772D01*
X40864Y15067D01*
X35733Y9936D01*
X29028Y7159D01*
X21772Y7159D01*
G37*
%LPD*%
%LPC*%
G36*
X199572Y540559D02*
X199572Y540559D01*
X192867Y543336D01*
X187736Y548467D01*
X184959Y555172D01*
X184959Y562428D01*
X187736Y569133D01*
X192867Y574264D01*
X199572Y577041D01*
X206828Y577041D01*
X213533Y574264D01*
X218664Y569133D01*
X221441Y562428D01*
X221441Y555172D01*
X218664Y548467D01*
X213533Y543336D01*
X206828Y540559D01*
X199572Y540559D01*
G37*
%LPD*%
%LPC*%
G36*
X21772Y540559D02*
X21772Y540559D01*
X15067Y543336D01*
X9936Y548467D01*
X7159Y555172D01*
X7159Y562428D01*
X9936Y569133D01*
X15067Y574264D01*
X21772Y577041D01*
X29028Y577041D01*
X35733Y574264D01*
X40864Y569133D01*
X43641Y562428D01*
X43641Y555172D01*
X40864Y548467D01*
X35733Y543336D01*
X29028Y540559D01*
X21772Y540559D01*
G37*
%LPD*%
%LPC*%
G36*
X61452Y34229D02*
X61452Y34229D01*
X59514Y35032D01*
X58032Y36514D01*
X57229Y38452D01*
X57229Y40548D01*
X58032Y42486D01*
X59514Y43968D01*
X61452Y44771D01*
X63548Y44771D01*
X64791Y44256D01*
X64905Y44227D01*
X65019Y44192D01*
X65042Y44192D01*
X65064Y44186D01*
X65182Y44190D01*
X65301Y44188D01*
X65323Y44194D01*
X65346Y44195D01*
X65458Y44232D01*
X65573Y44264D01*
X65592Y44276D01*
X65614Y44283D01*
X65712Y44349D01*
X65813Y44412D01*
X65828Y44429D01*
X65847Y44442D01*
X65922Y44533D01*
X66002Y44621D01*
X66012Y44642D01*
X66026Y44659D01*
X66073Y44768D01*
X66125Y44875D01*
X66128Y44896D01*
X66138Y44918D01*
X66160Y45103D01*
X66172Y45179D01*
X66172Y49444D01*
X66166Y49485D01*
X66169Y49527D01*
X66149Y49611D01*
X66132Y49723D01*
X66108Y49777D01*
X66096Y49827D01*
X65329Y51678D01*
X65329Y53974D01*
X66096Y55825D01*
X66107Y55866D01*
X66125Y55903D01*
X66138Y55988D01*
X66166Y56099D01*
X66164Y56157D01*
X66172Y56208D01*
X66172Y63029D01*
X66247Y63104D01*
X72511Y63104D01*
X72543Y63108D01*
X72575Y63106D01*
X72682Y63128D01*
X72790Y63144D01*
X72820Y63157D01*
X72851Y63163D01*
X72948Y63215D01*
X73047Y63260D01*
X73072Y63281D01*
X73100Y63296D01*
X73178Y63372D01*
X73261Y63443D01*
X73279Y63470D01*
X73302Y63493D01*
X73356Y63588D01*
X73416Y63679D01*
X73425Y63710D01*
X73441Y63738D01*
X73466Y63844D01*
X73498Y63949D01*
X73499Y63981D01*
X73506Y64012D01*
X73501Y64122D01*
X73502Y64231D01*
X73493Y64262D01*
X73492Y64294D01*
X73456Y64397D01*
X73427Y64503D01*
X73410Y64530D01*
X73399Y64561D01*
X73346Y64634D01*
X73279Y64743D01*
X73243Y64775D01*
X73218Y64810D01*
X71566Y66461D01*
X70687Y68582D01*
X70687Y69534D01*
X70671Y69651D01*
X70659Y69769D01*
X70651Y69791D01*
X70648Y69813D01*
X70599Y69921D01*
X70555Y70031D01*
X70541Y70049D01*
X70531Y70070D01*
X70454Y70160D01*
X70381Y70254D01*
X70363Y70267D01*
X70348Y70284D01*
X70249Y70350D01*
X70153Y70419D01*
X70131Y70426D01*
X70112Y70439D01*
X69999Y70474D01*
X69887Y70513D01*
X69864Y70515D01*
X69842Y70521D01*
X69724Y70523D01*
X69605Y70530D01*
X69584Y70525D01*
X69560Y70525D01*
X69381Y70475D01*
X69306Y70457D01*
X67548Y69729D01*
X65452Y69729D01*
X63514Y70532D01*
X62032Y72014D01*
X61229Y73952D01*
X61229Y76048D01*
X62032Y77986D01*
X63514Y79468D01*
X65452Y80271D01*
X67548Y80271D01*
X69486Y79468D01*
X70968Y77986D01*
X71771Y76048D01*
X71771Y75530D01*
X71787Y75413D01*
X71799Y75295D01*
X71807Y75273D01*
X71811Y75251D01*
X71859Y75143D01*
X71903Y75033D01*
X71917Y75015D01*
X71927Y74994D01*
X72004Y74904D01*
X72077Y74810D01*
X72095Y74797D01*
X72110Y74780D01*
X72209Y74715D01*
X72306Y74645D01*
X72327Y74638D01*
X72346Y74625D01*
X72460Y74591D01*
X72571Y74551D01*
X72594Y74549D01*
X72616Y74543D01*
X72734Y74541D01*
X72853Y74534D01*
X72874Y74539D01*
X72898Y74539D01*
X73077Y74589D01*
X73152Y74607D01*
X75310Y75501D01*
X77606Y75501D01*
X79727Y74622D01*
X81350Y72999D01*
X82229Y70878D01*
X82229Y68582D01*
X81350Y66461D01*
X79727Y64838D01*
X77606Y63959D01*
X77427Y63959D01*
X77363Y63950D01*
X77299Y63951D01*
X77224Y63930D01*
X77148Y63919D01*
X77089Y63893D01*
X77027Y63876D01*
X76961Y63835D01*
X76891Y63803D01*
X76842Y63761D01*
X76787Y63728D01*
X76735Y63670D01*
X76677Y63620D01*
X76641Y63566D01*
X76598Y63518D01*
X76565Y63449D01*
X76522Y63384D01*
X76503Y63322D01*
X76475Y63265D01*
X76464Y63195D01*
X76440Y63114D01*
X76439Y63029D01*
X76428Y62960D01*
X76428Y55242D01*
X76434Y55201D01*
X76431Y55159D01*
X76451Y55075D01*
X76468Y54963D01*
X76492Y54909D01*
X76504Y54860D01*
X76871Y53974D01*
X76871Y51678D01*
X76504Y50792D01*
X76493Y50752D01*
X76475Y50714D01*
X76462Y50629D01*
X76434Y50519D01*
X76436Y50460D01*
X76428Y50410D01*
X76428Y45221D01*
X76444Y45103D01*
X76456Y44985D01*
X76464Y44964D01*
X76468Y44942D01*
X76516Y44834D01*
X76560Y44723D01*
X76574Y44705D01*
X76584Y44685D01*
X76661Y44594D01*
X76734Y44501D01*
X76752Y44488D01*
X76767Y44470D01*
X76867Y44405D01*
X76963Y44336D01*
X76984Y44328D01*
X77003Y44316D01*
X77117Y44281D01*
X77228Y44242D01*
X77251Y44240D01*
X77273Y44234D01*
X77391Y44232D01*
X77510Y44225D01*
X77531Y44230D01*
X77555Y44230D01*
X77734Y44279D01*
X77809Y44298D01*
X78732Y44680D01*
X78787Y44712D01*
X78847Y44736D01*
X78908Y44784D01*
X78974Y44823D01*
X79018Y44870D01*
X79069Y44910D01*
X79114Y44973D01*
X79167Y45029D01*
X79196Y45086D01*
X79234Y45138D01*
X79260Y45211D01*
X79295Y45280D01*
X79307Y45344D01*
X79329Y45404D01*
X79333Y45481D01*
X79348Y45558D01*
X79341Y45621D01*
X79345Y45686D01*
X79329Y45754D01*
X79320Y45838D01*
X79289Y45917D01*
X79272Y45985D01*
X79149Y46283D01*
X79149Y48769D01*
X80101Y51067D01*
X81859Y52825D01*
X84157Y53777D01*
X86643Y53777D01*
X88941Y52825D01*
X89096Y52670D01*
X89147Y52632D01*
X89192Y52585D01*
X89259Y52547D01*
X89321Y52501D01*
X89382Y52478D01*
X89437Y52446D01*
X89513Y52429D01*
X89585Y52401D01*
X89649Y52396D01*
X89712Y52381D01*
X89789Y52385D01*
X89866Y52379D01*
X89929Y52393D01*
X89994Y52396D01*
X90067Y52421D01*
X90143Y52437D01*
X90199Y52467D01*
X90260Y52488D01*
X90317Y52530D01*
X90392Y52569D01*
X90452Y52629D01*
X90509Y52670D01*
X91231Y53392D01*
X93352Y54271D01*
X95648Y54271D01*
X97769Y53392D01*
X99392Y51769D01*
X99851Y50661D01*
X99867Y50634D01*
X99877Y50603D01*
X99939Y50513D01*
X99995Y50419D01*
X100018Y50397D01*
X100036Y50370D01*
X100121Y50300D01*
X100200Y50226D01*
X100229Y50211D01*
X100254Y50191D01*
X100354Y50147D01*
X100452Y50098D01*
X100483Y50092D01*
X100513Y50079D01*
X100621Y50066D01*
X100729Y50045D01*
X100761Y50049D01*
X100793Y50045D01*
X100901Y50062D01*
X101010Y50073D01*
X101039Y50084D01*
X101071Y50090D01*
X101170Y50136D01*
X101272Y50177D01*
X101297Y50197D01*
X101326Y50211D01*
X101408Y50283D01*
X101494Y50350D01*
X101513Y50377D01*
X101537Y50398D01*
X101584Y50475D01*
X101659Y50579D01*
X101675Y50625D01*
X101697Y50661D01*
X101832Y50986D01*
X103314Y52468D01*
X105252Y53271D01*
X107348Y53271D01*
X109286Y52468D01*
X110768Y50986D01*
X110877Y50724D01*
X110893Y50696D01*
X110903Y50665D01*
X110965Y50575D01*
X111020Y50481D01*
X111044Y50459D01*
X111062Y50432D01*
X111146Y50363D01*
X111226Y50288D01*
X111255Y50273D01*
X111280Y50253D01*
X111380Y50210D01*
X111478Y50160D01*
X111509Y50154D01*
X111539Y50142D01*
X111647Y50128D01*
X111755Y50108D01*
X111787Y50111D01*
X111819Y50107D01*
X111927Y50124D01*
X112035Y50135D01*
X112065Y50147D01*
X112097Y50152D01*
X112196Y50199D01*
X112297Y50239D01*
X112323Y50259D01*
X112352Y50273D01*
X112434Y50346D01*
X112520Y50413D01*
X112539Y50439D01*
X112563Y50461D01*
X112610Y50538D01*
X112685Y50642D01*
X112701Y50687D01*
X112723Y50724D01*
X112832Y50986D01*
X114314Y52468D01*
X116252Y53271D01*
X118348Y53271D01*
X120286Y52468D01*
X121768Y50986D01*
X122571Y49048D01*
X122571Y46952D01*
X121768Y45014D01*
X120286Y43532D01*
X118348Y42729D01*
X116252Y42729D01*
X114314Y43532D01*
X112832Y45014D01*
X112723Y45276D01*
X112707Y45304D01*
X112697Y45335D01*
X112635Y45425D01*
X112580Y45519D01*
X112556Y45541D01*
X112538Y45568D01*
X112454Y45637D01*
X112374Y45712D01*
X112345Y45727D01*
X112320Y45747D01*
X112220Y45790D01*
X112122Y45840D01*
X112091Y45846D01*
X112061Y45858D01*
X111953Y45872D01*
X111845Y45892D01*
X111813Y45889D01*
X111781Y45893D01*
X111673Y45876D01*
X111565Y45865D01*
X111535Y45853D01*
X111503Y45848D01*
X111404Y45801D01*
X111303Y45761D01*
X111277Y45741D01*
X111248Y45727D01*
X111166Y45654D01*
X111080Y45587D01*
X111061Y45561D01*
X111037Y45539D01*
X110990Y45462D01*
X110915Y45358D01*
X110899Y45313D01*
X110877Y45276D01*
X110768Y45014D01*
X109286Y43532D01*
X107348Y42729D01*
X105252Y42729D01*
X103314Y43532D01*
X101753Y45093D01*
X101684Y45145D01*
X101620Y45205D01*
X101571Y45230D01*
X101527Y45262D01*
X101446Y45293D01*
X101369Y45332D01*
X101315Y45343D01*
X101263Y45362D01*
X101177Y45369D01*
X101092Y45385D01*
X101037Y45380D01*
X100982Y45384D01*
X100897Y45366D01*
X100811Y45358D01*
X100760Y45337D01*
X100706Y45326D01*
X100630Y45285D01*
X100549Y45253D01*
X100506Y45219D01*
X100457Y45194D01*
X100395Y45133D01*
X100327Y45080D01*
X100294Y45035D01*
X100255Y44997D01*
X100212Y44921D01*
X100162Y44851D01*
X100143Y44799D01*
X100116Y44752D01*
X100096Y44667D01*
X100067Y44585D01*
X100064Y44531D01*
X100051Y44477D01*
X100056Y44390D01*
X100051Y44304D01*
X100063Y44254D01*
X100066Y44195D01*
X100103Y44088D01*
X100123Y44004D01*
X100271Y43648D01*
X100271Y41352D01*
X99392Y39231D01*
X97769Y37608D01*
X95648Y36729D01*
X93352Y36729D01*
X91231Y37608D01*
X89608Y39231D01*
X88833Y41101D01*
X88801Y41156D01*
X88777Y41216D01*
X88729Y41277D01*
X88690Y41344D01*
X88643Y41388D01*
X88603Y41438D01*
X88540Y41484D01*
X88484Y41536D01*
X88427Y41566D01*
X88375Y41603D01*
X88302Y41629D01*
X88233Y41664D01*
X88169Y41676D01*
X88109Y41698D01*
X88032Y41702D01*
X87955Y41717D01*
X87892Y41710D01*
X87827Y41714D01*
X87759Y41698D01*
X87675Y41690D01*
X87596Y41658D01*
X87528Y41642D01*
X86643Y41275D01*
X86270Y41275D01*
X86206Y41266D01*
X86142Y41267D01*
X86067Y41246D01*
X85991Y41235D01*
X85932Y41209D01*
X85870Y41192D01*
X85804Y41151D01*
X85734Y41119D01*
X85685Y41077D01*
X85630Y41044D01*
X85578Y40986D01*
X85520Y40936D01*
X85484Y40882D01*
X85441Y40834D01*
X85408Y40765D01*
X85365Y40700D01*
X85346Y40638D01*
X85318Y40581D01*
X85307Y40511D01*
X85283Y40430D01*
X85282Y40345D01*
X85271Y40276D01*
X85271Y38452D01*
X84468Y36514D01*
X82986Y35032D01*
X81048Y34229D01*
X78952Y34229D01*
X77014Y35032D01*
X75532Y36514D01*
X74729Y38452D01*
X74729Y40596D01*
X74759Y40695D01*
X74760Y40718D01*
X74765Y40740D01*
X74762Y40858D01*
X74763Y40977D01*
X74757Y40999D01*
X74756Y41022D01*
X74720Y41134D01*
X74688Y41249D01*
X74676Y41268D01*
X74669Y41290D01*
X74602Y41387D01*
X74540Y41489D01*
X74523Y41504D01*
X74510Y41523D01*
X74419Y41598D01*
X74331Y41678D01*
X74310Y41688D01*
X74293Y41702D01*
X74183Y41749D01*
X74077Y41801D01*
X74056Y41804D01*
X74033Y41814D01*
X73848Y41836D01*
X73772Y41848D01*
X68728Y41848D01*
X68610Y41832D01*
X68492Y41820D01*
X68471Y41812D01*
X68449Y41808D01*
X68341Y41760D01*
X68230Y41716D01*
X68212Y41702D01*
X68192Y41692D01*
X68101Y41615D01*
X68008Y41542D01*
X67995Y41524D01*
X67977Y41509D01*
X67912Y41409D01*
X67843Y41313D01*
X67835Y41292D01*
X67823Y41273D01*
X67788Y41159D01*
X67748Y41048D01*
X67747Y41025D01*
X67741Y41003D01*
X67739Y40885D01*
X67732Y40766D01*
X67737Y40745D01*
X67737Y40721D01*
X67771Y40598D01*
X67771Y38452D01*
X66968Y36514D01*
X65486Y35032D01*
X63548Y34229D01*
X61452Y34229D01*
G37*
%LPD*%
%LPC*%
G36*
X82952Y333729D02*
X82952Y333729D01*
X81014Y334532D01*
X79689Y335857D01*
X79613Y335914D01*
X79541Y335979D01*
X79500Y335999D01*
X79464Y336026D01*
X79374Y336060D01*
X79287Y336102D01*
X79245Y336108D01*
X79200Y336125D01*
X79072Y336135D01*
X78983Y336149D01*
X77155Y336149D01*
X75484Y336841D01*
X75391Y336865D01*
X75300Y336897D01*
X75255Y336900D01*
X75211Y336911D01*
X75115Y336908D01*
X75019Y336914D01*
X74977Y336904D01*
X74929Y336902D01*
X74807Y336863D01*
X74719Y336841D01*
X73048Y336149D01*
X70952Y336149D01*
X70620Y336287D01*
X70611Y336289D01*
X70602Y336294D01*
X70473Y336324D01*
X70347Y336357D01*
X70337Y336356D01*
X70328Y336359D01*
X70195Y336352D01*
X70065Y336348D01*
X70056Y336345D01*
X70046Y336344D01*
X69921Y336301D01*
X69797Y336260D01*
X69789Y336255D01*
X69780Y336252D01*
X69718Y336207D01*
X69563Y336101D01*
X69548Y336083D01*
X69531Y336070D01*
X68989Y335528D01*
X67052Y334726D01*
X64955Y334726D01*
X62880Y335585D01*
X62787Y335609D01*
X62696Y335641D01*
X62651Y335644D01*
X62607Y335655D01*
X62511Y335652D01*
X62415Y335658D01*
X62373Y335648D01*
X62325Y335646D01*
X62203Y335607D01*
X62115Y335585D01*
X60048Y334729D01*
X57952Y334729D01*
X56014Y335532D01*
X54758Y336788D01*
X54688Y336840D01*
X54625Y336900D01*
X54576Y336924D01*
X54532Y336957D01*
X54451Y336988D01*
X54374Y337027D01*
X54353Y337031D01*
X54355Y337058D01*
X54368Y337111D01*
X54363Y337198D01*
X54368Y337284D01*
X54356Y337334D01*
X54353Y337393D01*
X54316Y337500D01*
X54296Y337584D01*
X53729Y338952D01*
X53729Y341048D01*
X54532Y342986D01*
X56014Y344468D01*
X57612Y345130D01*
X57621Y345135D01*
X57630Y345138D01*
X57742Y345207D01*
X57855Y345274D01*
X57862Y345281D01*
X57870Y345286D01*
X57958Y345384D01*
X58048Y345480D01*
X58052Y345488D01*
X58059Y345495D01*
X58116Y345614D01*
X58176Y345731D01*
X58178Y345740D01*
X58182Y345749D01*
X58194Y345825D01*
X58228Y346008D01*
X58226Y346032D01*
X58229Y346053D01*
X58229Y346758D01*
X59032Y348696D01*
X60514Y350178D01*
X61767Y350697D01*
X61850Y350746D01*
X61937Y350787D01*
X61971Y350818D01*
X62010Y350841D01*
X62075Y350911D01*
X62147Y350975D01*
X62169Y351011D01*
X62203Y351046D01*
X62261Y351161D01*
X62308Y351238D01*
X63032Y352986D01*
X64089Y354043D01*
X64122Y354087D01*
X64130Y354094D01*
X64135Y354102D01*
X64174Y354140D01*
X64212Y354207D01*
X64259Y354269D01*
X64278Y354320D01*
X64284Y354330D01*
X64287Y354340D01*
X64313Y354385D01*
X64331Y354460D01*
X64358Y354533D01*
X64362Y354585D01*
X64367Y354599D01*
X64367Y354612D01*
X64378Y354660D01*
X64374Y354737D01*
X64380Y354814D01*
X64370Y354861D01*
X64370Y354881D01*
X64366Y354898D01*
X64364Y354941D01*
X64338Y355014D01*
X64322Y355090D01*
X64302Y355128D01*
X64295Y355153D01*
X64283Y355172D01*
X64271Y355208D01*
X64230Y355264D01*
X64190Y355339D01*
X64164Y355366D01*
X64147Y355393D01*
X64114Y355423D01*
X64089Y355457D01*
X63032Y356514D01*
X62203Y358516D01*
X62154Y358598D01*
X62113Y358685D01*
X62082Y358719D01*
X62059Y358758D01*
X61989Y358824D01*
X61925Y358896D01*
X61889Y358918D01*
X61853Y358951D01*
X61739Y359009D01*
X61662Y359056D01*
X60514Y359532D01*
X59032Y361014D01*
X58203Y363016D01*
X58154Y363098D01*
X58113Y363185D01*
X58082Y363219D01*
X58059Y363258D01*
X57989Y363324D01*
X57925Y363396D01*
X57889Y363418D01*
X57853Y363451D01*
X57739Y363509D01*
X57662Y363556D01*
X56514Y364032D01*
X55032Y365514D01*
X54203Y367516D01*
X54154Y367598D01*
X54113Y367685D01*
X54082Y367719D01*
X54059Y367758D01*
X53989Y367824D01*
X53925Y367896D01*
X53889Y367918D01*
X53853Y367951D01*
X53739Y368009D01*
X53662Y368056D01*
X52514Y368532D01*
X51032Y370014D01*
X50500Y371297D01*
X50452Y371380D01*
X50410Y371467D01*
X50380Y371501D01*
X50357Y371540D01*
X50287Y371605D01*
X50223Y371677D01*
X50187Y371699D01*
X50151Y371733D01*
X50037Y371791D01*
X49960Y371838D01*
X48284Y372532D01*
X46802Y374014D01*
X45999Y375952D01*
X45999Y378048D01*
X46802Y379986D01*
X48284Y381468D01*
X50222Y382271D01*
X52318Y382271D01*
X54256Y381468D01*
X55738Y379986D01*
X56270Y378703D01*
X56318Y378620D01*
X56360Y378533D01*
X56390Y378499D01*
X56413Y378460D01*
X56483Y378395D01*
X56547Y378323D01*
X56583Y378301D01*
X56619Y378267D01*
X56733Y378209D01*
X56810Y378162D01*
X58486Y377468D01*
X59968Y375986D01*
X60797Y373984D01*
X60846Y373902D01*
X60887Y373815D01*
X60918Y373781D01*
X60941Y373742D01*
X61011Y373676D01*
X61075Y373604D01*
X61111Y373582D01*
X61147Y373549D01*
X61261Y373491D01*
X61338Y373444D01*
X62486Y372968D01*
X63968Y371486D01*
X64797Y369484D01*
X64846Y369402D01*
X64887Y369315D01*
X64918Y369281D01*
X64941Y369242D01*
X65011Y369176D01*
X65075Y369104D01*
X65111Y369082D01*
X65147Y369049D01*
X65261Y368991D01*
X65338Y368944D01*
X66486Y368468D01*
X67968Y366986D01*
X68797Y364984D01*
X68846Y364902D01*
X68887Y364815D01*
X68918Y364781D01*
X68941Y364742D01*
X69011Y364676D01*
X69075Y364604D01*
X69111Y364582D01*
X69147Y364549D01*
X69261Y364491D01*
X69338Y364444D01*
X70486Y363968D01*
X71968Y362486D01*
X72772Y360546D01*
X72772Y360544D01*
X72771Y360535D01*
X72792Y360404D01*
X72811Y360274D01*
X72814Y360266D01*
X72816Y360256D01*
X72873Y360137D01*
X72927Y360017D01*
X72933Y360010D01*
X72937Y360001D01*
X73025Y359903D01*
X73110Y359803D01*
X73118Y359798D01*
X73124Y359791D01*
X73190Y359750D01*
X73346Y359649D01*
X73369Y359641D01*
X73388Y359630D01*
X74986Y358968D01*
X76468Y357486D01*
X77271Y355548D01*
X77271Y353452D01*
X76468Y351514D01*
X74986Y350032D01*
X73234Y349306D01*
X73152Y349257D01*
X73065Y349216D01*
X73031Y349186D01*
X72992Y349163D01*
X72926Y349093D01*
X72854Y349029D01*
X72832Y348992D01*
X72799Y348957D01*
X72741Y348843D01*
X72694Y348766D01*
X72394Y348043D01*
X72378Y347981D01*
X72353Y347922D01*
X72344Y347845D01*
X72324Y347770D01*
X72326Y347706D01*
X72319Y347642D01*
X72331Y347566D01*
X72333Y347488D01*
X72353Y347427D01*
X72364Y347364D01*
X72397Y347294D01*
X72421Y347220D01*
X72457Y347167D01*
X72485Y347109D01*
X72536Y347051D01*
X72580Y346987D01*
X72629Y346946D01*
X72672Y346898D01*
X72732Y346862D01*
X72797Y346808D01*
X72875Y346774D01*
X72935Y346738D01*
X74719Y345999D01*
X74812Y345975D01*
X74903Y345943D01*
X74948Y345940D01*
X74992Y345929D01*
X75088Y345932D01*
X75185Y345926D01*
X75226Y345936D01*
X75274Y345938D01*
X75396Y345977D01*
X75484Y345999D01*
X77155Y346691D01*
X79252Y346691D01*
X81189Y345888D01*
X82514Y344563D01*
X82591Y344506D01*
X82662Y344441D01*
X82703Y344421D01*
X82740Y344394D01*
X82830Y344360D01*
X82916Y344318D01*
X82958Y344312D01*
X83003Y344295D01*
X83131Y344285D01*
X83221Y344271D01*
X85048Y344271D01*
X86986Y343468D01*
X88468Y341986D01*
X89271Y340048D01*
X89271Y337952D01*
X88468Y336014D01*
X86986Y334532D01*
X85048Y333729D01*
X82952Y333729D01*
G37*
%LPD*%
%LPC*%
G36*
X128022Y333729D02*
X128022Y333729D01*
X126084Y334532D01*
X124602Y336014D01*
X123799Y337952D01*
X123799Y340085D01*
X123809Y340134D01*
X123836Y340240D01*
X123835Y340273D01*
X123841Y340304D01*
X123830Y340413D01*
X123827Y340522D01*
X123817Y340553D01*
X123814Y340585D01*
X123773Y340686D01*
X123739Y340790D01*
X123721Y340817D01*
X123709Y340847D01*
X123642Y340933D01*
X123580Y341023D01*
X123556Y341044D01*
X123536Y341069D01*
X123447Y341133D01*
X123363Y341203D01*
X123333Y341215D01*
X123307Y341234D01*
X123204Y341271D01*
X123104Y341314D01*
X123072Y341318D01*
X123041Y341329D01*
X122932Y341335D01*
X122824Y341349D01*
X122792Y341344D01*
X122760Y341345D01*
X122672Y341324D01*
X122545Y341304D01*
X122502Y341283D01*
X122460Y341273D01*
X121148Y340729D01*
X118852Y340729D01*
X116731Y341608D01*
X115108Y343231D01*
X114923Y343677D01*
X114907Y343705D01*
X114897Y343735D01*
X114835Y343826D01*
X114780Y343920D01*
X114756Y343942D01*
X114738Y343968D01*
X114654Y344038D01*
X114574Y344113D01*
X114545Y344127D01*
X114520Y344148D01*
X114420Y344191D01*
X114322Y344240D01*
X114291Y344246D01*
X114261Y344259D01*
X114153Y344272D01*
X114045Y344293D01*
X114013Y344290D01*
X113981Y344294D01*
X113873Y344276D01*
X113765Y344266D01*
X113735Y344254D01*
X113703Y344248D01*
X113604Y344202D01*
X113503Y344161D01*
X113477Y344141D01*
X113448Y344127D01*
X113366Y344055D01*
X113280Y343988D01*
X113261Y343961D01*
X113237Y343940D01*
X113190Y343863D01*
X113115Y343759D01*
X113099Y343713D01*
X113077Y343677D01*
X112892Y343231D01*
X111269Y341608D01*
X109148Y340729D01*
X106852Y340729D01*
X104731Y341608D01*
X103108Y343231D01*
X102229Y345352D01*
X102229Y347648D01*
X103108Y349769D01*
X104731Y351392D01*
X106852Y352271D01*
X109148Y352271D01*
X111269Y351392D01*
X112892Y349769D01*
X113077Y349323D01*
X113093Y349295D01*
X113103Y349265D01*
X113165Y349175D01*
X113220Y349080D01*
X113244Y349058D01*
X113262Y349032D01*
X113346Y348962D01*
X113426Y348888D01*
X113455Y348873D01*
X113480Y348852D01*
X113580Y348809D01*
X113678Y348760D01*
X113709Y348754D01*
X113739Y348741D01*
X113847Y348728D01*
X113955Y348707D01*
X113987Y348710D01*
X114019Y348706D01*
X114127Y348724D01*
X114235Y348734D01*
X114265Y348746D01*
X114297Y348751D01*
X114396Y348798D01*
X114497Y348839D01*
X114523Y348859D01*
X114552Y348873D01*
X114634Y348945D01*
X114720Y349012D01*
X114739Y349038D01*
X114763Y349060D01*
X114810Y349137D01*
X114885Y349241D01*
X114901Y349287D01*
X114923Y349323D01*
X115108Y349769D01*
X116731Y351392D01*
X118852Y352271D01*
X121148Y352271D01*
X122126Y351866D01*
X122241Y351836D01*
X122354Y351802D01*
X122377Y351801D01*
X122399Y351796D01*
X122517Y351799D01*
X122636Y351798D01*
X122658Y351804D01*
X122681Y351805D01*
X122793Y351841D01*
X122908Y351873D01*
X122927Y351885D01*
X122949Y351892D01*
X123047Y351959D01*
X123148Y352021D01*
X123163Y352038D01*
X123182Y352051D01*
X123257Y352142D01*
X123337Y352230D01*
X123347Y352251D01*
X123361Y352269D01*
X123408Y352378D01*
X123460Y352484D01*
X123463Y352506D01*
X123473Y352528D01*
X123495Y352712D01*
X123507Y352789D01*
X123507Y353270D01*
X124310Y355208D01*
X125792Y356690D01*
X127319Y357322D01*
X127402Y357371D01*
X127488Y357413D01*
X127522Y357443D01*
X127562Y357466D01*
X127627Y357536D01*
X127699Y357600D01*
X127721Y357636D01*
X127754Y357672D01*
X127813Y357786D01*
X127860Y357863D01*
X128532Y359486D01*
X130014Y360968D01*
X131766Y361694D01*
X131848Y361743D01*
X131935Y361784D01*
X131969Y361814D01*
X132008Y361837D01*
X132074Y361907D01*
X132146Y361971D01*
X132168Y362008D01*
X132201Y362043D01*
X132259Y362157D01*
X132306Y362234D01*
X133032Y363986D01*
X134514Y365468D01*
X136452Y366271D01*
X137252Y366271D01*
X137315Y366280D01*
X137380Y366279D01*
X137454Y366300D01*
X137531Y366311D01*
X137589Y366337D01*
X137652Y366354D01*
X137718Y366395D01*
X137788Y366427D01*
X137837Y366469D01*
X137891Y366502D01*
X137943Y366560D01*
X138002Y366610D01*
X138037Y366664D01*
X138081Y366712D01*
X138114Y366781D01*
X138157Y366846D01*
X138176Y366908D01*
X138204Y366965D01*
X138214Y367035D01*
X138239Y367116D01*
X138240Y367201D01*
X138251Y367270D01*
X138251Y368188D01*
X139054Y370126D01*
X140536Y371608D01*
X142473Y372411D01*
X142730Y372411D01*
X142794Y372420D01*
X142858Y372419D01*
X142933Y372440D01*
X143009Y372451D01*
X143068Y372477D01*
X143130Y372494D01*
X143196Y372535D01*
X143266Y372567D01*
X143315Y372609D01*
X143370Y372642D01*
X143422Y372700D01*
X143480Y372750D01*
X143516Y372804D01*
X143559Y372852D01*
X143592Y372921D01*
X143635Y372986D01*
X143654Y373048D01*
X143682Y373105D01*
X143693Y373175D01*
X143717Y373256D01*
X143718Y373341D01*
X143729Y373410D01*
X143729Y373548D01*
X144532Y375486D01*
X146014Y376968D01*
X147952Y377771D01*
X150048Y377771D01*
X151986Y376968D01*
X153468Y375486D01*
X154271Y373548D01*
X154271Y371452D01*
X153468Y369514D01*
X151986Y368032D01*
X150048Y367229D01*
X149792Y367229D01*
X149728Y367220D01*
X149664Y367221D01*
X149589Y367200D01*
X149513Y367189D01*
X149454Y367163D01*
X149392Y367146D01*
X149326Y367105D01*
X149256Y367073D01*
X149207Y367031D01*
X149152Y366998D01*
X149100Y366940D01*
X149041Y366890D01*
X149006Y366836D01*
X148963Y366788D01*
X148929Y366719D01*
X148887Y366654D01*
X148868Y366592D01*
X148840Y366535D01*
X148829Y366465D01*
X148805Y366384D01*
X148803Y366299D01*
X148793Y366230D01*
X148793Y366092D01*
X147990Y364154D01*
X146508Y362672D01*
X144570Y361869D01*
X143770Y361869D01*
X143706Y361860D01*
X143642Y361861D01*
X143567Y361840D01*
X143491Y361829D01*
X143432Y361803D01*
X143370Y361786D01*
X143304Y361745D01*
X143234Y361713D01*
X143185Y361671D01*
X143130Y361638D01*
X143078Y361580D01*
X143020Y361530D01*
X142984Y361476D01*
X142941Y361428D01*
X142908Y361359D01*
X142865Y361294D01*
X142846Y361232D01*
X142818Y361175D01*
X142807Y361105D01*
X142783Y361024D01*
X142782Y360939D01*
X142771Y360870D01*
X142771Y359952D01*
X141968Y358014D01*
X140486Y356532D01*
X138734Y355806D01*
X138652Y355757D01*
X138565Y355716D01*
X138531Y355686D01*
X138492Y355663D01*
X138426Y355593D01*
X138354Y355529D01*
X138332Y355492D01*
X138299Y355457D01*
X138241Y355343D01*
X138194Y355266D01*
X137468Y353514D01*
X135986Y352032D01*
X134459Y351399D01*
X134377Y351351D01*
X134290Y351309D01*
X134256Y351279D01*
X134217Y351256D01*
X134151Y351186D01*
X134079Y351122D01*
X134057Y351085D01*
X134024Y351050D01*
X133966Y350936D01*
X133919Y350859D01*
X133246Y349236D01*
X131764Y347754D01*
X129827Y346951D01*
X127730Y346951D01*
X127152Y347190D01*
X127038Y347220D01*
X126924Y347254D01*
X126901Y347255D01*
X126879Y347260D01*
X126761Y347257D01*
X126642Y347258D01*
X126620Y347252D01*
X126597Y347251D01*
X126485Y347215D01*
X126370Y347183D01*
X126351Y347171D01*
X126329Y347164D01*
X126231Y347097D01*
X126130Y347035D01*
X126115Y347018D01*
X126096Y347005D01*
X126021Y346913D01*
X125941Y346825D01*
X125931Y346805D01*
X125917Y346787D01*
X125870Y346678D01*
X125818Y346572D01*
X125815Y346550D01*
X125805Y346528D01*
X125783Y346343D01*
X125771Y346267D01*
X125771Y345352D01*
X125687Y345150D01*
X125679Y345119D01*
X125664Y345090D01*
X125644Y344983D01*
X125617Y344877D01*
X125618Y344845D01*
X125612Y344813D01*
X125623Y344704D01*
X125626Y344595D01*
X125636Y344564D01*
X125639Y344532D01*
X125680Y344431D01*
X125713Y344327D01*
X125732Y344300D01*
X125744Y344270D01*
X125811Y344184D01*
X125872Y344094D01*
X125897Y344073D01*
X125917Y344048D01*
X126006Y343984D01*
X126090Y343915D01*
X126120Y343902D01*
X126146Y343883D01*
X126249Y343846D01*
X126349Y343803D01*
X126381Y343799D01*
X126411Y343788D01*
X126521Y343782D01*
X126629Y343769D01*
X126661Y343774D01*
X126693Y343772D01*
X126781Y343793D01*
X126907Y343814D01*
X126951Y343835D01*
X126993Y343845D01*
X128022Y344271D01*
X130118Y344271D01*
X132056Y343468D01*
X133538Y341986D01*
X134341Y340048D01*
X134341Y337952D01*
X133538Y336014D01*
X132056Y334532D01*
X130118Y333729D01*
X128022Y333729D01*
G37*
%LPD*%
%LPC*%
G36*
X179485Y429263D02*
X179485Y429263D01*
X177548Y430065D01*
X176065Y431548D01*
X175388Y433182D01*
X175340Y433264D01*
X175298Y433351D01*
X175268Y433385D01*
X175245Y433425D01*
X175175Y433490D01*
X175111Y433562D01*
X175074Y433584D01*
X175039Y433617D01*
X174925Y433675D01*
X174848Y433723D01*
X173180Y434414D01*
X171697Y435896D01*
X170843Y437957D01*
X170794Y438040D01*
X170753Y438127D01*
X170723Y438161D01*
X170700Y438200D01*
X170630Y438266D01*
X170566Y438338D01*
X170529Y438360D01*
X170494Y438393D01*
X170380Y438451D01*
X170302Y438498D01*
X169014Y439032D01*
X167532Y440514D01*
X167056Y441662D01*
X167007Y441745D01*
X166966Y441832D01*
X166936Y441866D01*
X166913Y441905D01*
X166843Y441970D01*
X166779Y442042D01*
X166742Y442064D01*
X166707Y442098D01*
X166593Y442156D01*
X166516Y442203D01*
X164514Y443032D01*
X163032Y444514D01*
X162229Y446452D01*
X162229Y448548D01*
X163032Y450486D01*
X163569Y451023D01*
X163589Y451049D01*
X163613Y451070D01*
X163673Y451162D01*
X163739Y451249D01*
X163750Y451279D01*
X163768Y451306D01*
X163800Y451411D01*
X163838Y451513D01*
X163841Y451545D01*
X163850Y451576D01*
X163852Y451685D01*
X163860Y451794D01*
X163854Y451826D01*
X163854Y451858D01*
X163825Y451963D01*
X163803Y452070D01*
X163787Y452099D01*
X163779Y452130D01*
X163721Y452223D01*
X163670Y452319D01*
X163648Y452342D01*
X163631Y452370D01*
X163550Y452443D01*
X163473Y452521D01*
X163445Y452537D01*
X163421Y452559D01*
X163323Y452606D01*
X163228Y452660D01*
X163196Y452668D01*
X163168Y452682D01*
X163078Y452696D01*
X162953Y452725D01*
X162905Y452723D01*
X162863Y452729D01*
X162452Y452729D01*
X160514Y453532D01*
X159032Y455014D01*
X158229Y456952D01*
X158229Y459048D01*
X159032Y460986D01*
X160514Y462468D01*
X162452Y463271D01*
X164548Y463271D01*
X166618Y462414D01*
X166711Y462390D01*
X166801Y462358D01*
X166847Y462355D01*
X166891Y462344D01*
X166987Y462347D01*
X167083Y462341D01*
X167124Y462351D01*
X167173Y462353D01*
X167294Y462392D01*
X167382Y462414D01*
X169452Y463271D01*
X171548Y463271D01*
X173348Y462525D01*
X173462Y462496D01*
X173576Y462461D01*
X173599Y462461D01*
X173621Y462455D01*
X173739Y462459D01*
X173858Y462458D01*
X173880Y462464D01*
X173903Y462464D01*
X174015Y462501D01*
X174130Y462533D01*
X174149Y462545D01*
X174171Y462552D01*
X174269Y462619D01*
X174370Y462681D01*
X174385Y462698D01*
X174404Y462711D01*
X174479Y462802D01*
X174559Y462890D01*
X174569Y462911D01*
X174583Y462928D01*
X174630Y463037D01*
X174682Y463144D01*
X174685Y463165D01*
X174695Y463188D01*
X174717Y463372D01*
X174729Y463449D01*
X174729Y464048D01*
X175532Y465986D01*
X177014Y467468D01*
X178952Y468271D01*
X181048Y468271D01*
X182986Y467468D01*
X184468Y465986D01*
X185271Y464048D01*
X185271Y461952D01*
X184468Y460014D01*
X182951Y458497D01*
X182866Y458452D01*
X182850Y458436D01*
X182830Y458424D01*
X182749Y458338D01*
X182664Y458255D01*
X182653Y458235D01*
X182638Y458219D01*
X182584Y458113D01*
X182525Y458010D01*
X182520Y457988D01*
X182510Y457967D01*
X182488Y457851D01*
X182460Y457735D01*
X182461Y457713D01*
X182457Y457690D01*
X182469Y457572D01*
X182475Y457454D01*
X182482Y457432D01*
X182484Y457409D01*
X182528Y457299D01*
X182567Y457187D01*
X182580Y457170D01*
X182589Y457148D01*
X182704Y457000D01*
X182749Y456938D01*
X184005Y455682D01*
X184807Y453745D01*
X184807Y451648D01*
X184005Y449711D01*
X182522Y448228D01*
X180585Y447426D01*
X178294Y447426D01*
X178199Y447412D01*
X178103Y447407D01*
X178059Y447392D01*
X178014Y447386D01*
X177927Y447346D01*
X177836Y447315D01*
X177802Y447290D01*
X177758Y447270D01*
X177660Y447187D01*
X177587Y447133D01*
X177078Y446625D01*
X177073Y446617D01*
X177065Y446611D01*
X176988Y446504D01*
X176909Y446399D01*
X176906Y446390D01*
X176900Y446382D01*
X176856Y446258D01*
X176810Y446135D01*
X176809Y446126D01*
X176806Y446117D01*
X176798Y445985D01*
X176788Y445854D01*
X176790Y445845D01*
X176789Y445835D01*
X176807Y445760D01*
X176845Y445578D01*
X176857Y445557D01*
X176862Y445536D01*
X177322Y444424D01*
X177371Y444342D01*
X177412Y444255D01*
X177442Y444221D01*
X177466Y444182D01*
X177536Y444116D01*
X177600Y444044D01*
X177636Y444022D01*
X177671Y443989D01*
X177786Y443931D01*
X177863Y443884D01*
X179151Y443350D01*
X180634Y441868D01*
X181310Y440234D01*
X181359Y440151D01*
X181401Y440064D01*
X181431Y440030D01*
X181454Y439991D01*
X181524Y439925D01*
X181588Y439853D01*
X181624Y439831D01*
X181660Y439798D01*
X181774Y439740D01*
X181851Y439693D01*
X183519Y439002D01*
X185002Y437519D01*
X185804Y435582D01*
X185804Y433485D01*
X185002Y431548D01*
X183519Y430065D01*
X181582Y429263D01*
X179485Y429263D01*
G37*
%LPD*%
%LPC*%
G36*
X92452Y484729D02*
X92452Y484729D01*
X90514Y485532D01*
X89032Y487014D01*
X88320Y488733D01*
X88303Y488761D01*
X88293Y488792D01*
X88232Y488882D01*
X88176Y488976D01*
X88152Y488998D01*
X88134Y489025D01*
X88050Y489094D01*
X87970Y489169D01*
X87942Y489184D01*
X87917Y489204D01*
X87816Y489247D01*
X87719Y489297D01*
X87687Y489303D01*
X87658Y489316D01*
X87549Y489329D01*
X87442Y489349D01*
X87410Y489346D01*
X87378Y489350D01*
X87270Y489333D01*
X87161Y489322D01*
X87131Y489310D01*
X87099Y489305D01*
X87001Y489258D01*
X86899Y489218D01*
X86874Y489198D01*
X86845Y489184D01*
X86763Y489112D01*
X86677Y489044D01*
X86658Y489018D01*
X86634Y488997D01*
X86587Y488919D01*
X86512Y488816D01*
X86495Y488770D01*
X86473Y488733D01*
X85968Y487514D01*
X84486Y486032D01*
X82548Y485229D01*
X80452Y485229D01*
X78382Y486086D01*
X78289Y486110D01*
X78199Y486142D01*
X78153Y486145D01*
X78109Y486156D01*
X78013Y486153D01*
X77917Y486159D01*
X77876Y486149D01*
X77827Y486147D01*
X77706Y486108D01*
X77618Y486086D01*
X75548Y485229D01*
X73452Y485229D01*
X71514Y486032D01*
X70032Y487514D01*
X69229Y489452D01*
X69229Y491548D01*
X70032Y493486D01*
X71514Y494968D01*
X73452Y495771D01*
X75548Y495771D01*
X77618Y494914D01*
X77711Y494890D01*
X77801Y494858D01*
X77847Y494855D01*
X77891Y494844D01*
X77987Y494847D01*
X78083Y494841D01*
X78124Y494851D01*
X78173Y494853D01*
X78294Y494892D01*
X78382Y494914D01*
X80619Y495840D01*
X80702Y495889D01*
X80789Y495930D01*
X80823Y495961D01*
X80862Y495984D01*
X80927Y496054D01*
X80999Y496118D01*
X81022Y496154D01*
X81055Y496189D01*
X81113Y496304D01*
X81160Y496381D01*
X82032Y498486D01*
X83514Y499968D01*
X85452Y500771D01*
X86361Y500771D01*
X86370Y500772D01*
X86380Y500771D01*
X86510Y500792D01*
X86640Y500811D01*
X86649Y500814D01*
X86658Y500816D01*
X86777Y500873D01*
X86897Y500927D01*
X86904Y500933D01*
X86913Y500937D01*
X87011Y501025D01*
X87111Y501110D01*
X87116Y501118D01*
X87123Y501124D01*
X87163Y501190D01*
X87266Y501346D01*
X87273Y501369D01*
X87284Y501388D01*
X87532Y501986D01*
X89014Y503468D01*
X91112Y504337D01*
X91121Y504342D01*
X91130Y504345D01*
X91242Y504414D01*
X91355Y504481D01*
X91362Y504488D01*
X91370Y504493D01*
X91458Y504591D01*
X91548Y504687D01*
X91552Y504695D01*
X91559Y504702D01*
X91616Y504821D01*
X91676Y504938D01*
X91678Y504947D01*
X91682Y504956D01*
X91694Y505032D01*
X91728Y505215D01*
X91726Y505239D01*
X91729Y505261D01*
X91729Y505548D01*
X92532Y507486D01*
X94014Y508968D01*
X95952Y509771D01*
X96730Y509771D01*
X96794Y509780D01*
X96858Y509779D01*
X96933Y509800D01*
X97009Y509811D01*
X97068Y509837D01*
X97130Y509854D01*
X97196Y509895D01*
X97266Y509927D01*
X97315Y509969D01*
X97370Y510002D01*
X97422Y510060D01*
X97480Y510110D01*
X97516Y510164D01*
X97559Y510212D01*
X97592Y510281D01*
X97635Y510346D01*
X97654Y510408D01*
X97682Y510465D01*
X97693Y510535D01*
X97717Y510616D01*
X97718Y510701D01*
X97729Y510770D01*
X97729Y512048D01*
X98532Y513986D01*
X100014Y515468D01*
X101952Y516271D01*
X102230Y516271D01*
X102294Y516280D01*
X102358Y516279D01*
X102433Y516300D01*
X102509Y516311D01*
X102568Y516337D01*
X102630Y516354D01*
X102696Y516395D01*
X102766Y516427D01*
X102815Y516469D01*
X102870Y516502D01*
X102922Y516560D01*
X102980Y516610D01*
X103016Y516664D01*
X103059Y516712D01*
X103092Y516781D01*
X103135Y516846D01*
X103154Y516908D01*
X103182Y516965D01*
X103193Y517035D01*
X103217Y517116D01*
X103217Y517119D01*
X104108Y519269D01*
X105731Y520892D01*
X107852Y521771D01*
X110148Y521771D01*
X112269Y520892D01*
X113892Y519269D01*
X114771Y517148D01*
X114771Y514852D01*
X113892Y512731D01*
X112269Y511108D01*
X110148Y510229D01*
X109053Y510229D01*
X109044Y510228D01*
X109035Y510229D01*
X108904Y510208D01*
X108774Y510189D01*
X108766Y510186D01*
X108756Y510184D01*
X108637Y510127D01*
X108517Y510073D01*
X108510Y510067D01*
X108501Y510063D01*
X108403Y509975D01*
X108303Y509890D01*
X108298Y509882D01*
X108291Y509876D01*
X108250Y509810D01*
X108149Y509654D01*
X108141Y509631D01*
X108130Y509612D01*
X107468Y508014D01*
X105986Y506532D01*
X104048Y505729D01*
X103270Y505729D01*
X103206Y505720D01*
X103142Y505721D01*
X103067Y505700D01*
X102991Y505689D01*
X102932Y505663D01*
X102870Y505646D01*
X102804Y505605D01*
X102734Y505573D01*
X102685Y505531D01*
X102630Y505498D01*
X102578Y505440D01*
X102520Y505390D01*
X102484Y505336D01*
X102441Y505288D01*
X102408Y505219D01*
X102365Y505154D01*
X102346Y505092D01*
X102318Y505035D01*
X102307Y504965D01*
X102283Y504884D01*
X102282Y504799D01*
X102271Y504730D01*
X102271Y503452D01*
X101468Y501514D01*
X99986Y500032D01*
X97888Y499163D01*
X97879Y499158D01*
X97870Y499155D01*
X97758Y499086D01*
X97645Y499019D01*
X97638Y499012D01*
X97630Y499007D01*
X97542Y498909D01*
X97452Y498813D01*
X97448Y498805D01*
X97441Y498798D01*
X97384Y498679D01*
X97324Y498562D01*
X97322Y498553D01*
X97318Y498544D01*
X97306Y498468D01*
X97272Y498285D01*
X97274Y498261D01*
X97271Y498239D01*
X97271Y497952D01*
X96468Y496014D01*
X96411Y495957D01*
X96372Y495905D01*
X96326Y495860D01*
X96288Y495793D01*
X96241Y495731D01*
X96219Y495671D01*
X96187Y495615D01*
X96169Y495540D01*
X96142Y495467D01*
X96137Y495403D01*
X96122Y495340D01*
X96126Y495263D01*
X96120Y495186D01*
X96133Y495123D01*
X96136Y495059D01*
X96162Y494986D01*
X96178Y494910D01*
X96208Y494853D01*
X96229Y494792D01*
X96270Y494736D01*
X96310Y494661D01*
X96369Y494600D01*
X96411Y494543D01*
X97968Y492986D01*
X98771Y491048D01*
X98771Y488952D01*
X97968Y487014D01*
X96486Y485532D01*
X94548Y484729D01*
X92452Y484729D01*
G37*
%LPD*%
%LPC*%
G36*
X167452Y364729D02*
X167452Y364729D01*
X165514Y365532D01*
X164032Y367014D01*
X163229Y368952D01*
X163229Y371048D01*
X164032Y372986D01*
X165514Y374468D01*
X167452Y375271D01*
X168068Y375271D01*
X168077Y375272D01*
X168087Y375271D01*
X168216Y375292D01*
X168347Y375311D01*
X168356Y375314D01*
X168365Y375316D01*
X168485Y375373D01*
X168604Y375427D01*
X168611Y375433D01*
X168620Y375437D01*
X168719Y375525D01*
X168818Y375610D01*
X168824Y375618D01*
X168831Y375624D01*
X168871Y375690D01*
X168973Y375846D01*
X168980Y375869D01*
X168991Y375888D01*
X169032Y375986D01*
X170514Y377468D01*
X172452Y378271D01*
X174557Y378271D01*
X174597Y378260D01*
X174656Y378235D01*
X174733Y378225D01*
X174808Y378206D01*
X174872Y378208D01*
X174936Y378200D01*
X175012Y378213D01*
X175090Y378215D01*
X175151Y378235D01*
X175215Y378245D01*
X175284Y378279D01*
X175358Y378303D01*
X175411Y378339D01*
X175469Y378366D01*
X175527Y378418D01*
X175591Y378462D01*
X175632Y378511D01*
X175680Y378554D01*
X175717Y378614D01*
X175770Y378679D01*
X175804Y378757D01*
X175841Y378817D01*
X176577Y380596D01*
X176580Y380605D01*
X176585Y380614D01*
X176615Y380742D01*
X176648Y380869D01*
X176647Y380879D01*
X176649Y380888D01*
X176643Y381020D01*
X176639Y381151D01*
X176636Y381160D01*
X176635Y381170D01*
X176592Y381294D01*
X176551Y381419D01*
X176546Y381427D01*
X176543Y381436D01*
X176497Y381499D01*
X176392Y381652D01*
X176374Y381668D01*
X176361Y381685D01*
X176032Y382014D01*
X175229Y383952D01*
X175229Y385236D01*
X175216Y385331D01*
X175211Y385427D01*
X175196Y385470D01*
X175189Y385515D01*
X175150Y385603D01*
X175118Y385693D01*
X175093Y385728D01*
X175073Y385772D01*
X174990Y385869D01*
X174937Y385942D01*
X173322Y387557D01*
X173034Y388251D01*
X173018Y388279D01*
X173008Y388310D01*
X172946Y388400D01*
X172891Y388494D01*
X172867Y388516D01*
X172849Y388543D01*
X172765Y388612D01*
X172685Y388687D01*
X172656Y388702D01*
X172631Y388722D01*
X172531Y388765D01*
X172433Y388815D01*
X172402Y388821D01*
X172372Y388834D01*
X172264Y388847D01*
X172156Y388867D01*
X172124Y388864D01*
X172092Y388868D01*
X171984Y388851D01*
X171876Y388840D01*
X171846Y388828D01*
X171814Y388823D01*
X171715Y388776D01*
X171614Y388736D01*
X171588Y388716D01*
X171559Y388702D01*
X171477Y388629D01*
X171391Y388562D01*
X171372Y388536D01*
X171348Y388515D01*
X171301Y388437D01*
X171226Y388334D01*
X171210Y388288D01*
X171188Y388251D01*
X170468Y386514D01*
X168986Y385032D01*
X167048Y384229D01*
X164952Y384229D01*
X163014Y385032D01*
X161532Y386514D01*
X160729Y388452D01*
X160729Y390548D01*
X161532Y392486D01*
X163014Y393968D01*
X164952Y394771D01*
X167048Y394771D01*
X168986Y393968D01*
X170468Y392486D01*
X170756Y391792D01*
X170772Y391764D01*
X170782Y391733D01*
X170844Y391643D01*
X170899Y391549D01*
X170923Y391527D01*
X170941Y391500D01*
X171025Y391431D01*
X171105Y391356D01*
X171134Y391341D01*
X171159Y391321D01*
X171259Y391278D01*
X171357Y391228D01*
X171388Y391222D01*
X171418Y391209D01*
X171526Y391196D01*
X171634Y391176D01*
X171666Y391179D01*
X171698Y391175D01*
X171806Y391192D01*
X171914Y391203D01*
X171944Y391215D01*
X171976Y391220D01*
X172075Y391267D01*
X172176Y391307D01*
X172202Y391327D01*
X172231Y391341D01*
X172313Y391414D01*
X172399Y391481D01*
X172418Y391507D01*
X172442Y391528D01*
X172489Y391606D01*
X172564Y391709D01*
X172580Y391755D01*
X172602Y391792D01*
X173322Y393529D01*
X174804Y395011D01*
X176742Y395814D01*
X178838Y395814D01*
X180776Y395011D01*
X182258Y393529D01*
X183061Y391591D01*
X183061Y390307D01*
X183074Y390212D01*
X183079Y390116D01*
X183094Y390073D01*
X183101Y390028D01*
X183140Y389940D01*
X183172Y389850D01*
X183197Y389815D01*
X183217Y389771D01*
X183300Y389674D01*
X183353Y389601D01*
X184968Y387986D01*
X185771Y386048D01*
X185771Y383952D01*
X184923Y381904D01*
X184920Y381895D01*
X184915Y381886D01*
X184885Y381758D01*
X184852Y381631D01*
X184853Y381621D01*
X184851Y381612D01*
X184857Y381480D01*
X184861Y381349D01*
X184864Y381340D01*
X184865Y381330D01*
X184908Y381206D01*
X184949Y381081D01*
X184954Y381073D01*
X184957Y381064D01*
X185003Y381001D01*
X185108Y380848D01*
X185126Y380832D01*
X185139Y380815D01*
X185468Y380486D01*
X186271Y378548D01*
X186271Y376452D01*
X185468Y374514D01*
X183986Y373032D01*
X182048Y372229D01*
X179943Y372229D01*
X179903Y372240D01*
X179844Y372265D01*
X179767Y372275D01*
X179692Y372294D01*
X179628Y372292D01*
X179564Y372300D01*
X179488Y372287D01*
X179410Y372285D01*
X179349Y372265D01*
X179285Y372255D01*
X179216Y372221D01*
X179142Y372197D01*
X179089Y372161D01*
X179031Y372134D01*
X178973Y372082D01*
X178909Y372038D01*
X178868Y371989D01*
X178820Y371946D01*
X178783Y371886D01*
X178730Y371821D01*
X178696Y371743D01*
X178659Y371683D01*
X177968Y370014D01*
X176486Y368532D01*
X174548Y367729D01*
X173932Y367729D01*
X173923Y367728D01*
X173913Y367729D01*
X173784Y367708D01*
X173653Y367689D01*
X173644Y367686D01*
X173635Y367684D01*
X173515Y367627D01*
X173396Y367573D01*
X173389Y367567D01*
X173380Y367563D01*
X173281Y367475D01*
X173182Y367390D01*
X173176Y367382D01*
X173169Y367376D01*
X173129Y367310D01*
X173027Y367154D01*
X173020Y367131D01*
X173009Y367112D01*
X172968Y367014D01*
X171486Y365532D01*
X169548Y364729D01*
X167452Y364729D01*
G37*
%LPD*%
%LPC*%
G36*
X146852Y22229D02*
X146852Y22229D01*
X144731Y23108D01*
X143108Y24731D01*
X142229Y26852D01*
X142229Y29148D01*
X143108Y31269D01*
X143300Y31461D01*
X143306Y31469D01*
X143313Y31475D01*
X143390Y31582D01*
X143469Y31687D01*
X143473Y31696D01*
X143478Y31703D01*
X143522Y31827D01*
X143569Y31951D01*
X143570Y31960D01*
X143573Y31969D01*
X143581Y32100D01*
X143591Y32232D01*
X143589Y32241D01*
X143589Y32251D01*
X143571Y32326D01*
X143533Y32508D01*
X143522Y32529D01*
X143517Y32550D01*
X142729Y34452D01*
X142729Y36548D01*
X143532Y38486D01*
X144615Y39569D01*
X144635Y39595D01*
X144659Y39616D01*
X144719Y39708D01*
X144785Y39795D01*
X144796Y39825D01*
X144814Y39852D01*
X144846Y39957D01*
X144884Y40059D01*
X144887Y40091D01*
X144896Y40122D01*
X144898Y40231D01*
X144906Y40340D01*
X144900Y40372D01*
X144900Y40404D01*
X144871Y40509D01*
X144849Y40616D01*
X144833Y40645D01*
X144825Y40676D01*
X144767Y40769D01*
X144716Y40865D01*
X144694Y40888D01*
X144677Y40916D01*
X144596Y40989D01*
X144519Y41067D01*
X144491Y41083D01*
X144467Y41105D01*
X144369Y41152D01*
X144274Y41206D01*
X144242Y41214D01*
X144214Y41228D01*
X144124Y41242D01*
X143999Y41271D01*
X143951Y41269D01*
X143909Y41275D01*
X141957Y41275D01*
X141414Y41500D01*
X141351Y41516D01*
X141292Y41542D01*
X141215Y41551D01*
X141140Y41570D01*
X141076Y41568D01*
X141012Y41576D01*
X140936Y41564D01*
X140859Y41561D01*
X140797Y41541D01*
X140734Y41531D01*
X140664Y41498D01*
X140590Y41474D01*
X140537Y41438D01*
X140479Y41410D01*
X140422Y41359D01*
X140357Y41315D01*
X140317Y41265D01*
X140269Y41223D01*
X140232Y41163D01*
X140178Y41097D01*
X140145Y41019D01*
X140108Y40959D01*
X139392Y39231D01*
X137769Y37608D01*
X135648Y36729D01*
X133352Y36729D01*
X131231Y37608D01*
X129608Y39231D01*
X128729Y41352D01*
X128729Y43648D01*
X129338Y45118D01*
X129362Y45211D01*
X129394Y45301D01*
X129397Y45347D01*
X129408Y45391D01*
X129405Y45487D01*
X129411Y45583D01*
X129401Y45624D01*
X129399Y45673D01*
X129359Y45794D01*
X129338Y45882D01*
X128729Y47352D01*
X128729Y49648D01*
X129608Y51769D01*
X131231Y53392D01*
X133352Y54271D01*
X135648Y54271D01*
X137769Y53392D01*
X138291Y52870D01*
X138342Y52831D01*
X138387Y52785D01*
X138455Y52747D01*
X138517Y52701D01*
X138577Y52678D01*
X138633Y52646D01*
X138708Y52629D01*
X138780Y52601D01*
X138844Y52596D01*
X138907Y52581D01*
X138985Y52585D01*
X139062Y52579D01*
X139124Y52593D01*
X139189Y52596D01*
X139262Y52621D01*
X139338Y52637D01*
X139395Y52667D01*
X139455Y52688D01*
X139512Y52730D01*
X139587Y52769D01*
X139632Y52814D01*
X141957Y53777D01*
X144443Y53777D01*
X146741Y52825D01*
X148499Y51067D01*
X149451Y48769D01*
X149451Y46283D01*
X148499Y43985D01*
X146990Y42477D01*
X146971Y42451D01*
X146947Y42430D01*
X146887Y42338D01*
X146821Y42251D01*
X146810Y42221D01*
X146792Y42194D01*
X146760Y42089D01*
X146722Y41987D01*
X146719Y41955D01*
X146710Y41924D01*
X146708Y41815D01*
X146700Y41706D01*
X146706Y41674D01*
X146706Y41642D01*
X146735Y41537D01*
X146757Y41430D01*
X146773Y41401D01*
X146781Y41370D01*
X146839Y41277D01*
X146890Y41181D01*
X146912Y41158D01*
X146929Y41130D01*
X147010Y41057D01*
X147087Y40979D01*
X147115Y40963D01*
X147139Y40941D01*
X147237Y40894D01*
X147332Y40840D01*
X147363Y40832D01*
X147392Y40818D01*
X147482Y40804D01*
X147606Y40775D01*
X147655Y40777D01*
X147697Y40771D01*
X149048Y40771D01*
X150986Y39968D01*
X152468Y38486D01*
X153271Y36548D01*
X153271Y34452D01*
X152483Y32550D01*
X152481Y32541D01*
X152476Y32533D01*
X152446Y32404D01*
X152413Y32277D01*
X152413Y32268D01*
X152411Y32258D01*
X152418Y32126D01*
X152422Y31995D01*
X152425Y31986D01*
X152426Y31977D01*
X152469Y31853D01*
X152510Y31727D01*
X152515Y31719D01*
X152518Y31710D01*
X152564Y31648D01*
X152668Y31494D01*
X152687Y31479D01*
X152700Y31461D01*
X152892Y31269D01*
X153771Y29148D01*
X153771Y26852D01*
X152892Y24731D01*
X151269Y23108D01*
X149148Y22229D01*
X146852Y22229D01*
G37*
%LPD*%
%LPC*%
G36*
X132952Y492729D02*
X132952Y492729D01*
X131014Y493532D01*
X129532Y495014D01*
X128729Y496952D01*
X128729Y499230D01*
X128720Y499294D01*
X128721Y499358D01*
X128700Y499433D01*
X128689Y499509D01*
X128663Y499568D01*
X128646Y499630D01*
X128605Y499696D01*
X128573Y499766D01*
X128531Y499815D01*
X128498Y499870D01*
X128440Y499922D01*
X128390Y499980D01*
X128336Y500016D01*
X128288Y500059D01*
X128219Y500092D01*
X128154Y500135D01*
X128092Y500154D01*
X128035Y500182D01*
X127965Y500193D01*
X127884Y500217D01*
X127799Y500218D01*
X127730Y500229D01*
X125952Y500229D01*
X124014Y501032D01*
X122532Y502514D01*
X121870Y504112D01*
X121865Y504120D01*
X121862Y504130D01*
X121793Y504243D01*
X121726Y504355D01*
X121719Y504362D01*
X121714Y504370D01*
X121616Y504458D01*
X121520Y504548D01*
X121512Y504552D01*
X121505Y504559D01*
X121387Y504616D01*
X121269Y504676D01*
X121260Y504678D01*
X121251Y504682D01*
X121175Y504694D01*
X120992Y504728D01*
X120968Y504726D01*
X120947Y504729D01*
X120452Y504729D01*
X118514Y505532D01*
X117032Y507014D01*
X116229Y508952D01*
X116229Y511048D01*
X117032Y512986D01*
X118514Y514468D01*
X120452Y515271D01*
X122548Y515271D01*
X124486Y514468D01*
X125968Y512986D01*
X126630Y511388D01*
X126635Y511380D01*
X126638Y511370D01*
X126707Y511257D01*
X126774Y511145D01*
X126781Y511138D01*
X126786Y511130D01*
X126884Y511042D01*
X126980Y510952D01*
X126988Y510948D01*
X126995Y510941D01*
X127113Y510884D01*
X127231Y510824D01*
X127240Y510822D01*
X127249Y510818D01*
X127325Y510806D01*
X127508Y510772D01*
X127532Y510774D01*
X127553Y510771D01*
X128048Y510771D01*
X130096Y509923D01*
X130106Y509920D01*
X130114Y509915D01*
X130242Y509885D01*
X130369Y509852D01*
X130379Y509853D01*
X130388Y509851D01*
X130520Y509857D01*
X130651Y509861D01*
X130660Y509864D01*
X130670Y509865D01*
X130793Y509908D01*
X130919Y509949D01*
X130927Y509954D01*
X130936Y509957D01*
X130998Y510003D01*
X131082Y510060D01*
X133060Y510879D01*
X134864Y510879D01*
X134874Y510880D01*
X134883Y510879D01*
X135013Y510900D01*
X135144Y510919D01*
X135152Y510923D01*
X135162Y510924D01*
X135281Y510981D01*
X135401Y511035D01*
X135408Y511041D01*
X135416Y511045D01*
X135515Y511133D01*
X135615Y511218D01*
X135620Y511226D01*
X135627Y511233D01*
X135667Y511299D01*
X135769Y511454D01*
X135776Y511477D01*
X135788Y511496D01*
X136108Y512269D01*
X137731Y513892D01*
X139852Y514771D01*
X142148Y514771D01*
X144269Y513892D01*
X145892Y512269D01*
X146771Y510148D01*
X146771Y507852D01*
X145892Y505731D01*
X144269Y504108D01*
X142148Y503229D01*
X139829Y503229D01*
X139780Y503250D01*
X139703Y503260D01*
X139628Y503279D01*
X139563Y503277D01*
X139500Y503285D01*
X139423Y503273D01*
X139346Y503270D01*
X139285Y503250D01*
X139221Y503240D01*
X139151Y503207D01*
X139078Y503183D01*
X139025Y503146D01*
X138967Y503119D01*
X138909Y503067D01*
X138845Y503024D01*
X138804Y502974D01*
X138756Y502931D01*
X138719Y502871D01*
X138665Y502806D01*
X138632Y502728D01*
X138595Y502668D01*
X138577Y502623D01*
X138411Y502457D01*
X138372Y502405D01*
X138326Y502360D01*
X138288Y502293D01*
X138241Y502231D01*
X138219Y502171D01*
X138187Y502115D01*
X138169Y502040D01*
X138142Y501967D01*
X138137Y501903D01*
X138122Y501840D01*
X138126Y501763D01*
X138120Y501686D01*
X138133Y501623D01*
X138136Y501559D01*
X138162Y501486D01*
X138178Y501410D01*
X138208Y501353D01*
X138229Y501292D01*
X138270Y501236D01*
X138310Y501161D01*
X138369Y501100D01*
X138411Y501043D01*
X138468Y500986D01*
X139271Y499048D01*
X139271Y496952D01*
X138468Y495014D01*
X136986Y493532D01*
X135048Y492729D01*
X132952Y492729D01*
G37*
%LPD*%
%LPC*%
G36*
X59352Y191229D02*
X59352Y191229D01*
X57231Y192108D01*
X55608Y193731D01*
X54729Y195852D01*
X54729Y198148D01*
X55608Y200269D01*
X57231Y201892D01*
X59352Y202771D01*
X61648Y202771D01*
X63769Y201892D01*
X63793Y201868D01*
X63845Y201829D01*
X63890Y201783D01*
X63957Y201745D01*
X64019Y201698D01*
X64079Y201676D01*
X64135Y201644D01*
X64210Y201626D01*
X64283Y201599D01*
X64347Y201594D01*
X64409Y201579D01*
X64487Y201583D01*
X64564Y201577D01*
X64627Y201590D01*
X64691Y201593D01*
X64764Y201619D01*
X64840Y201635D01*
X64897Y201665D01*
X64958Y201686D01*
X65014Y201727D01*
X65089Y201767D01*
X65150Y201826D01*
X65207Y201868D01*
X65231Y201892D01*
X67352Y202771D01*
X69648Y202771D01*
X71769Y201892D01*
X71793Y201868D01*
X71845Y201829D01*
X71890Y201783D01*
X71957Y201745D01*
X72019Y201698D01*
X72079Y201676D01*
X72135Y201644D01*
X72210Y201626D01*
X72283Y201599D01*
X72347Y201594D01*
X72409Y201579D01*
X72487Y201583D01*
X72564Y201577D01*
X72627Y201590D01*
X72691Y201593D01*
X72764Y201619D01*
X72840Y201635D01*
X72897Y201665D01*
X72958Y201686D01*
X73014Y201727D01*
X73089Y201767D01*
X73150Y201826D01*
X73207Y201868D01*
X73231Y201892D01*
X75352Y202771D01*
X77648Y202771D01*
X79769Y201892D01*
X79793Y201868D01*
X79845Y201829D01*
X79890Y201783D01*
X79957Y201745D01*
X80019Y201698D01*
X80079Y201676D01*
X80135Y201644D01*
X80210Y201626D01*
X80283Y201599D01*
X80347Y201594D01*
X80409Y201579D01*
X80487Y201583D01*
X80564Y201577D01*
X80627Y201590D01*
X80691Y201593D01*
X80764Y201619D01*
X80840Y201635D01*
X80897Y201665D01*
X80958Y201686D01*
X81014Y201727D01*
X81089Y201767D01*
X81150Y201826D01*
X81207Y201868D01*
X81231Y201892D01*
X83352Y202771D01*
X85648Y202771D01*
X87769Y201892D01*
X89392Y200269D01*
X90271Y198148D01*
X90271Y195852D01*
X89392Y193731D01*
X87769Y192108D01*
X85648Y191229D01*
X83352Y191229D01*
X81231Y192108D01*
X81207Y192132D01*
X81155Y192171D01*
X81110Y192217D01*
X81043Y192255D01*
X80981Y192302D01*
X80921Y192324D01*
X80865Y192356D01*
X80790Y192374D01*
X80717Y192401D01*
X80653Y192406D01*
X80590Y192421D01*
X80513Y192417D01*
X80436Y192423D01*
X80373Y192410D01*
X80309Y192407D01*
X80236Y192381D01*
X80160Y192365D01*
X80103Y192335D01*
X80042Y192314D01*
X79986Y192273D01*
X79911Y192233D01*
X79850Y192174D01*
X79793Y192132D01*
X79769Y192108D01*
X77648Y191229D01*
X75352Y191229D01*
X73231Y192108D01*
X73207Y192132D01*
X73155Y192171D01*
X73110Y192217D01*
X73043Y192255D01*
X72981Y192302D01*
X72921Y192324D01*
X72865Y192356D01*
X72790Y192374D01*
X72717Y192401D01*
X72653Y192406D01*
X72590Y192421D01*
X72513Y192417D01*
X72436Y192423D01*
X72373Y192410D01*
X72309Y192407D01*
X72236Y192381D01*
X72160Y192365D01*
X72103Y192335D01*
X72042Y192314D01*
X71986Y192273D01*
X71911Y192233D01*
X71850Y192174D01*
X71793Y192132D01*
X71769Y192108D01*
X69648Y191229D01*
X67352Y191229D01*
X65231Y192108D01*
X65207Y192132D01*
X65155Y192171D01*
X65110Y192217D01*
X65043Y192255D01*
X64981Y192302D01*
X64921Y192324D01*
X64865Y192356D01*
X64790Y192374D01*
X64717Y192401D01*
X64653Y192406D01*
X64590Y192421D01*
X64513Y192417D01*
X64436Y192423D01*
X64373Y192410D01*
X64309Y192407D01*
X64236Y192381D01*
X64160Y192365D01*
X64103Y192335D01*
X64042Y192314D01*
X63986Y192273D01*
X63911Y192233D01*
X63850Y192174D01*
X63793Y192132D01*
X63769Y192108D01*
X61648Y191229D01*
X59352Y191229D01*
G37*
%LPD*%
%LPC*%
G36*
X150852Y143229D02*
X150852Y143229D01*
X148731Y144108D01*
X147108Y145731D01*
X146229Y147852D01*
X146229Y148234D01*
X146228Y148243D01*
X146229Y148253D01*
X146208Y148383D01*
X146189Y148513D01*
X146186Y148522D01*
X146184Y148531D01*
X146127Y148650D01*
X146073Y148770D01*
X146067Y148777D01*
X146063Y148786D01*
X145976Y148884D01*
X145890Y148984D01*
X145882Y148989D01*
X145876Y148997D01*
X145810Y149037D01*
X145788Y149051D01*
X144108Y150731D01*
X143229Y152852D01*
X143229Y155148D01*
X144108Y157269D01*
X145731Y158892D01*
X147852Y159771D01*
X150148Y159771D01*
X151618Y159162D01*
X151711Y159138D01*
X151801Y159106D01*
X151847Y159103D01*
X151891Y159092D01*
X151987Y159095D01*
X152083Y159089D01*
X152124Y159099D01*
X152173Y159101D01*
X152294Y159141D01*
X152382Y159162D01*
X153852Y159771D01*
X156148Y159771D01*
X157618Y159162D01*
X157711Y159138D01*
X157801Y159106D01*
X157847Y159103D01*
X157891Y159092D01*
X157987Y159095D01*
X158083Y159089D01*
X158124Y159099D01*
X158173Y159101D01*
X158294Y159141D01*
X158382Y159162D01*
X159852Y159771D01*
X162148Y159771D01*
X164269Y158892D01*
X165892Y157269D01*
X166771Y155148D01*
X166771Y152852D01*
X165892Y150731D01*
X164217Y149056D01*
X164145Y149013D01*
X164138Y149007D01*
X164130Y149001D01*
X164042Y148904D01*
X163952Y148808D01*
X163948Y148799D01*
X163941Y148792D01*
X163884Y148673D01*
X163824Y148556D01*
X163822Y148547D01*
X163818Y148538D01*
X163806Y148462D01*
X163772Y148279D01*
X163774Y148255D01*
X163771Y148234D01*
X163771Y147852D01*
X162892Y145731D01*
X161269Y144108D01*
X159148Y143229D01*
X156852Y143229D01*
X155382Y143838D01*
X155344Y143848D01*
X155310Y143864D01*
X155262Y143872D01*
X155199Y143894D01*
X155153Y143897D01*
X155109Y143908D01*
X155042Y143906D01*
X155006Y143912D01*
X154994Y143912D01*
X154967Y143908D01*
X154917Y143911D01*
X154876Y143901D01*
X154827Y143899D01*
X154766Y143879D01*
X154715Y143872D01*
X154666Y143850D01*
X154618Y143838D01*
X153148Y143229D01*
X150852Y143229D01*
G37*
%LPD*%
%LPC*%
G36*
X50222Y427729D02*
X50222Y427729D01*
X48284Y428532D01*
X46802Y430014D01*
X45999Y431952D01*
X45999Y434048D01*
X46802Y435986D01*
X48156Y437340D01*
X48195Y437391D01*
X48241Y437436D01*
X48279Y437504D01*
X48325Y437565D01*
X48348Y437625D01*
X48380Y437681D01*
X48397Y437757D01*
X48425Y437829D01*
X48430Y437893D01*
X48445Y437956D01*
X48441Y438033D01*
X48447Y438111D01*
X48433Y438173D01*
X48430Y438238D01*
X48405Y438311D01*
X48389Y438387D01*
X48359Y438443D01*
X48338Y438504D01*
X48296Y438561D01*
X48256Y438636D01*
X48197Y438696D01*
X48156Y438753D01*
X46678Y440231D01*
X45799Y442352D01*
X45799Y444648D01*
X46678Y446769D01*
X48301Y448392D01*
X50422Y449271D01*
X52718Y449271D01*
X54839Y448392D01*
X55318Y447913D01*
X55369Y447874D01*
X55414Y447828D01*
X55482Y447790D01*
X55544Y447744D01*
X55604Y447721D01*
X55660Y447689D01*
X55735Y447672D01*
X55807Y447644D01*
X55871Y447639D01*
X55934Y447624D01*
X56012Y447628D01*
X56089Y447622D01*
X56151Y447636D01*
X56216Y447639D01*
X56289Y447664D01*
X56365Y447680D01*
X56421Y447710D01*
X56482Y447731D01*
X56539Y447773D01*
X56614Y447812D01*
X56674Y447872D01*
X56731Y447913D01*
X57735Y448917D01*
X59856Y449796D01*
X62152Y449796D01*
X64273Y448917D01*
X65896Y447294D01*
X66775Y445173D01*
X66775Y442877D01*
X65896Y440756D01*
X64273Y439133D01*
X62152Y438254D01*
X59856Y438254D01*
X57735Y439133D01*
X57256Y439612D01*
X57205Y439651D01*
X57160Y439697D01*
X57093Y439735D01*
X57031Y439781D01*
X56971Y439804D01*
X56915Y439836D01*
X56839Y439854D01*
X56767Y439881D01*
X56703Y439886D01*
X56640Y439901D01*
X56563Y439897D01*
X56486Y439903D01*
X56423Y439890D01*
X56359Y439886D01*
X56285Y439861D01*
X56210Y439845D01*
X56153Y439815D01*
X56092Y439794D01*
X56035Y439752D01*
X55961Y439713D01*
X55900Y439653D01*
X55843Y439612D01*
X54768Y438537D01*
X54760Y438533D01*
X54711Y438480D01*
X54698Y438467D01*
X54695Y438463D01*
X54679Y438446D01*
X54594Y438363D01*
X54583Y438343D01*
X54567Y438327D01*
X54513Y438221D01*
X54455Y438117D01*
X54449Y438096D01*
X54439Y438076D01*
X54417Y437959D01*
X54390Y437843D01*
X54391Y437821D01*
X54387Y437799D01*
X54398Y437680D01*
X54404Y437561D01*
X54411Y437540D01*
X54413Y437518D01*
X54457Y437408D01*
X54496Y437295D01*
X54509Y437278D01*
X54518Y437256D01*
X54634Y437107D01*
X54678Y437046D01*
X55738Y435986D01*
X56541Y434048D01*
X56541Y431952D01*
X55738Y430014D01*
X54256Y428532D01*
X52318Y427729D01*
X50222Y427729D01*
G37*
%LPD*%
%LPC*%
G36*
X37952Y68729D02*
X37952Y68729D01*
X36014Y69532D01*
X34532Y71014D01*
X33729Y72952D01*
X33729Y75048D01*
X34532Y76986D01*
X35839Y78293D01*
X35878Y78345D01*
X35924Y78390D01*
X35962Y78457D01*
X36009Y78519D01*
X36031Y78579D01*
X36063Y78635D01*
X36081Y78710D01*
X36108Y78783D01*
X36113Y78847D01*
X36128Y78910D01*
X36124Y78987D01*
X36130Y79064D01*
X36117Y79127D01*
X36114Y79191D01*
X36088Y79264D01*
X36072Y79340D01*
X36042Y79397D01*
X36021Y79458D01*
X35980Y79514D01*
X35940Y79589D01*
X35881Y79650D01*
X35839Y79707D01*
X34532Y81014D01*
X33654Y83132D01*
X33650Y83141D01*
X33647Y83150D01*
X33578Y83262D01*
X33511Y83375D01*
X33504Y83382D01*
X33499Y83390D01*
X33401Y83478D01*
X33305Y83568D01*
X33297Y83572D01*
X33290Y83579D01*
X33171Y83636D01*
X33054Y83696D01*
X33044Y83698D01*
X33036Y83702D01*
X32960Y83714D01*
X32776Y83748D01*
X32753Y83746D01*
X32731Y83749D01*
X30852Y83749D01*
X28731Y84628D01*
X27108Y86251D01*
X26229Y88372D01*
X26229Y90668D01*
X27108Y92789D01*
X28731Y94412D01*
X30852Y95291D01*
X33148Y95291D01*
X35269Y94412D01*
X36892Y92789D01*
X37771Y90668D01*
X37771Y90270D01*
X37780Y90206D01*
X37779Y90142D01*
X37800Y90067D01*
X37811Y89991D01*
X37837Y89932D01*
X37854Y89870D01*
X37895Y89804D01*
X37927Y89734D01*
X37969Y89685D01*
X38002Y89630D01*
X38060Y89578D01*
X38110Y89520D01*
X38164Y89484D01*
X38212Y89441D01*
X38281Y89408D01*
X38346Y89365D01*
X38408Y89346D01*
X38465Y89318D01*
X38535Y89307D01*
X38616Y89283D01*
X38701Y89282D01*
X38770Y89271D01*
X40048Y89271D01*
X41986Y88468D01*
X43468Y86986D01*
X44271Y85048D01*
X44271Y82952D01*
X43468Y81014D01*
X42161Y79707D01*
X42122Y79655D01*
X42076Y79610D01*
X42038Y79543D01*
X41991Y79481D01*
X41969Y79421D01*
X41937Y79365D01*
X41919Y79290D01*
X41892Y79217D01*
X41887Y79153D01*
X41872Y79091D01*
X41876Y79013D01*
X41870Y78936D01*
X41883Y78873D01*
X41886Y78809D01*
X41912Y78736D01*
X41928Y78660D01*
X41958Y78603D01*
X41979Y78542D01*
X42020Y78486D01*
X42060Y78411D01*
X42119Y78350D01*
X42130Y78335D01*
X42139Y78321D01*
X42144Y78317D01*
X42161Y78293D01*
X43468Y76986D01*
X44271Y75048D01*
X44271Y72952D01*
X43468Y71014D01*
X41986Y69532D01*
X40048Y68729D01*
X37952Y68729D01*
G37*
%LPD*%
%LPC*%
G36*
X29452Y221729D02*
X29452Y221729D01*
X27514Y222532D01*
X26032Y224014D01*
X25229Y225952D01*
X25229Y228048D01*
X26032Y229986D01*
X27514Y231468D01*
X29452Y232271D01*
X31548Y232271D01*
X33486Y231468D01*
X33784Y231170D01*
X33879Y231099D01*
X33970Y231023D01*
X33991Y231014D01*
X34010Y231001D01*
X34121Y230959D01*
X34230Y230912D01*
X34252Y230909D01*
X34274Y230901D01*
X34392Y230892D01*
X34509Y230877D01*
X34532Y230881D01*
X34555Y230879D01*
X34671Y230903D01*
X34788Y230922D01*
X34809Y230932D01*
X34831Y230937D01*
X34935Y230992D01*
X35043Y231043D01*
X35060Y231059D01*
X35080Y231069D01*
X35165Y231152D01*
X35253Y231231D01*
X35265Y231249D01*
X35282Y231266D01*
X35374Y231428D01*
X35414Y231494D01*
X36032Y232986D01*
X37514Y234468D01*
X39452Y235271D01*
X41548Y235271D01*
X43486Y234468D01*
X44968Y232986D01*
X45009Y232888D01*
X45014Y232879D01*
X45016Y232870D01*
X45085Y232758D01*
X45152Y232645D01*
X45159Y232638D01*
X45164Y232630D01*
X45262Y232542D01*
X45358Y232452D01*
X45367Y232448D01*
X45374Y232441D01*
X45492Y232384D01*
X45610Y232324D01*
X45619Y232322D01*
X45628Y232318D01*
X45704Y232306D01*
X45887Y232272D01*
X45911Y232274D01*
X45932Y232271D01*
X46548Y232271D01*
X48486Y231468D01*
X49968Y229986D01*
X50771Y228048D01*
X50771Y225952D01*
X49968Y224014D01*
X48486Y222532D01*
X46548Y221729D01*
X44452Y221729D01*
X42514Y222532D01*
X41032Y224014D01*
X40991Y224112D01*
X40986Y224121D01*
X40984Y224130D01*
X40915Y224242D01*
X40848Y224355D01*
X40841Y224362D01*
X40836Y224370D01*
X40738Y224458D01*
X40642Y224548D01*
X40633Y224552D01*
X40626Y224559D01*
X40508Y224616D01*
X40390Y224676D01*
X40381Y224678D01*
X40372Y224682D01*
X40296Y224694D01*
X40113Y224728D01*
X40089Y224726D01*
X40068Y224729D01*
X39452Y224729D01*
X37514Y225532D01*
X37216Y225830D01*
X37121Y225901D01*
X37030Y225977D01*
X37009Y225986D01*
X36990Y225999D01*
X36879Y226041D01*
X36770Y226088D01*
X36748Y226091D01*
X36726Y226099D01*
X36608Y226108D01*
X36491Y226123D01*
X36468Y226119D01*
X36445Y226121D01*
X36329Y226097D01*
X36212Y226078D01*
X36191Y226068D01*
X36169Y226063D01*
X36065Y226008D01*
X35957Y225957D01*
X35940Y225941D01*
X35920Y225931D01*
X35835Y225848D01*
X35747Y225769D01*
X35735Y225751D01*
X35718Y225734D01*
X35626Y225572D01*
X35586Y225506D01*
X34968Y224014D01*
X33486Y222532D01*
X31548Y221729D01*
X29452Y221729D01*
G37*
%LPD*%
%LPC*%
G36*
X152247Y41848D02*
X152247Y41848D01*
X152172Y41923D01*
X152172Y50410D01*
X152166Y50451D01*
X152169Y50493D01*
X152149Y50576D01*
X152132Y50689D01*
X152108Y50743D01*
X152096Y50792D01*
X151729Y51678D01*
X151729Y53974D01*
X152096Y54860D01*
X152107Y54900D01*
X152125Y54938D01*
X152138Y55023D01*
X152166Y55133D01*
X152164Y55192D01*
X152172Y55242D01*
X152172Y63029D01*
X152247Y63104D01*
X162353Y63104D01*
X162428Y63029D01*
X162428Y56208D01*
X162434Y56167D01*
X162431Y56125D01*
X162451Y56041D01*
X162468Y55929D01*
X162492Y55875D01*
X162504Y55825D01*
X163271Y53974D01*
X163271Y51678D01*
X162504Y49827D01*
X162493Y49786D01*
X162475Y49749D01*
X162462Y49664D01*
X162434Y49553D01*
X162436Y49495D01*
X162428Y49444D01*
X162428Y41923D01*
X162353Y41848D01*
X152247Y41848D01*
G37*
%LPD*%
%LPC*%
G36*
X143852Y192729D02*
X143852Y192729D01*
X141731Y193608D01*
X140108Y195231D01*
X139153Y197536D01*
X139114Y197603D01*
X139073Y197692D01*
X139052Y197717D01*
X139037Y197745D01*
X139018Y197765D01*
X139010Y197778D01*
X138957Y197828D01*
X138890Y197906D01*
X138863Y197924D01*
X138840Y197947D01*
X138814Y197962D01*
X138804Y197971D01*
X138743Y198002D01*
X138654Y198061D01*
X138623Y198070D01*
X138595Y198086D01*
X138564Y198093D01*
X138552Y198099D01*
X138488Y198111D01*
X138384Y198143D01*
X138352Y198144D01*
X138321Y198151D01*
X138287Y198149D01*
X138275Y198152D01*
X138211Y198145D01*
X138102Y198147D01*
X138071Y198138D01*
X138039Y198137D01*
X138008Y198126D01*
X137995Y198124D01*
X137934Y198100D01*
X137830Y198072D01*
X137803Y198055D01*
X137772Y198044D01*
X137747Y198026D01*
X137733Y198020D01*
X137680Y197979D01*
X137590Y197924D01*
X137558Y197888D01*
X137523Y197862D01*
X136269Y196608D01*
X134148Y195729D01*
X131852Y195729D01*
X129731Y196608D01*
X128108Y198231D01*
X127229Y200352D01*
X127229Y202648D01*
X128108Y204769D01*
X129731Y206392D01*
X131852Y207271D01*
X134148Y207271D01*
X136269Y206392D01*
X137892Y204769D01*
X138847Y202464D01*
X138886Y202397D01*
X138927Y202308D01*
X138948Y202283D01*
X138963Y202255D01*
X138982Y202235D01*
X138990Y202222D01*
X139043Y202172D01*
X139110Y202094D01*
X139137Y202076D01*
X139160Y202053D01*
X139186Y202038D01*
X139196Y202029D01*
X139257Y201998D01*
X139346Y201939D01*
X139377Y201930D01*
X139405Y201914D01*
X139436Y201907D01*
X139448Y201901D01*
X139512Y201889D01*
X139616Y201857D01*
X139648Y201856D01*
X139679Y201849D01*
X139713Y201851D01*
X139725Y201848D01*
X139788Y201855D01*
X139789Y201855D01*
X139898Y201853D01*
X139929Y201862D01*
X139961Y201863D01*
X139992Y201874D01*
X140005Y201876D01*
X140066Y201900D01*
X140170Y201928D01*
X140197Y201945D01*
X140228Y201956D01*
X140253Y201974D01*
X140267Y201980D01*
X140317Y202018D01*
X140329Y202024D01*
X140341Y202034D01*
X140410Y202076D01*
X140442Y202112D01*
X140477Y202138D01*
X141731Y203392D01*
X143852Y204271D01*
X146148Y204271D01*
X148269Y203392D01*
X149892Y201769D01*
X150771Y199648D01*
X150771Y197352D01*
X149892Y195231D01*
X148269Y193608D01*
X146148Y192729D01*
X143852Y192729D01*
G37*
%LPD*%
%LPC*%
G36*
X106852Y484729D02*
X106852Y484729D01*
X104731Y485608D01*
X103108Y487231D01*
X102229Y489352D01*
X102229Y491648D01*
X103108Y493769D01*
X104731Y495392D01*
X106852Y496271D01*
X109148Y496271D01*
X111269Y495392D01*
X112892Y493769D01*
X113327Y492720D01*
X113343Y492692D01*
X113353Y492661D01*
X113415Y492571D01*
X113470Y492477D01*
X113494Y492455D01*
X113512Y492428D01*
X113596Y492359D01*
X113676Y492284D01*
X113705Y492269D01*
X113730Y492249D01*
X113830Y492206D01*
X113928Y492156D01*
X113959Y492150D01*
X113989Y492137D01*
X114097Y492124D01*
X114205Y492104D01*
X114237Y492107D01*
X114269Y492103D01*
X114377Y492120D01*
X114485Y492131D01*
X114515Y492143D01*
X114547Y492148D01*
X114646Y492195D01*
X114747Y492235D01*
X114773Y492255D01*
X114802Y492269D01*
X114884Y492342D01*
X114970Y492409D01*
X114989Y492435D01*
X115013Y492456D01*
X115060Y492534D01*
X115135Y492637D01*
X115151Y492683D01*
X115173Y492720D01*
X115608Y493769D01*
X117231Y495392D01*
X119352Y496271D01*
X121648Y496271D01*
X123769Y495392D01*
X125392Y493769D01*
X126271Y491648D01*
X126271Y489352D01*
X125392Y487231D01*
X123769Y485608D01*
X121648Y484729D01*
X119352Y484729D01*
X117231Y485608D01*
X115608Y487231D01*
X115173Y488280D01*
X115157Y488308D01*
X115147Y488339D01*
X115085Y488429D01*
X115030Y488523D01*
X115006Y488545D01*
X114988Y488572D01*
X114903Y488641D01*
X114824Y488716D01*
X114795Y488731D01*
X114770Y488751D01*
X114670Y488794D01*
X114572Y488844D01*
X114541Y488850D01*
X114511Y488863D01*
X114403Y488876D01*
X114295Y488896D01*
X114263Y488893D01*
X114231Y488897D01*
X114123Y488880D01*
X114015Y488869D01*
X113985Y488857D01*
X113953Y488852D01*
X113854Y488805D01*
X113753Y488765D01*
X113727Y488745D01*
X113698Y488731D01*
X113616Y488658D01*
X113530Y488591D01*
X113511Y488565D01*
X113487Y488544D01*
X113440Y488466D01*
X113365Y488363D01*
X113349Y488317D01*
X113327Y488280D01*
X112892Y487231D01*
X111269Y485608D01*
X109148Y484729D01*
X106852Y484729D01*
G37*
%LPD*%
%LPC*%
G36*
X56352Y534729D02*
X56352Y534729D01*
X54231Y535608D01*
X52608Y537231D01*
X51729Y539352D01*
X51729Y541648D01*
X52608Y543769D01*
X53132Y544293D01*
X53171Y544345D01*
X53217Y544390D01*
X53255Y544457D01*
X53302Y544519D01*
X53324Y544579D01*
X53356Y544635D01*
X53374Y544710D01*
X53401Y544783D01*
X53406Y544847D01*
X53421Y544910D01*
X53417Y544987D01*
X53423Y545064D01*
X53410Y545127D01*
X53407Y545191D01*
X53381Y545264D01*
X53365Y545340D01*
X53335Y545397D01*
X53314Y545458D01*
X53273Y545514D01*
X53233Y545589D01*
X53174Y545650D01*
X53132Y545707D01*
X52608Y546231D01*
X51729Y548352D01*
X51729Y550648D01*
X52608Y552769D01*
X54231Y554392D01*
X56352Y555271D01*
X58648Y555271D01*
X60769Y554392D01*
X62392Y552769D01*
X63271Y550648D01*
X63271Y548352D01*
X62392Y546231D01*
X61868Y545707D01*
X61829Y545655D01*
X61783Y545610D01*
X61745Y545543D01*
X61698Y545481D01*
X61676Y545421D01*
X61644Y545365D01*
X61626Y545290D01*
X61599Y545217D01*
X61594Y545153D01*
X61579Y545091D01*
X61583Y545013D01*
X61577Y544936D01*
X61590Y544873D01*
X61593Y544809D01*
X61619Y544736D01*
X61635Y544660D01*
X61665Y544603D01*
X61686Y544542D01*
X61727Y544486D01*
X61767Y544411D01*
X61826Y544350D01*
X61868Y544293D01*
X62392Y543769D01*
X63271Y541648D01*
X63271Y539352D01*
X62392Y537231D01*
X60769Y535608D01*
X58648Y534729D01*
X56352Y534729D01*
G37*
%LPD*%
%LPC*%
G36*
X113352Y417729D02*
X113352Y417729D01*
X111231Y418608D01*
X109608Y420231D01*
X108719Y422377D01*
X108729Y422443D01*
X108729Y424648D01*
X109542Y426610D01*
X109558Y426672D01*
X109583Y426732D01*
X109593Y426808D01*
X109612Y426883D01*
X109610Y426948D01*
X109618Y427011D01*
X109606Y427088D01*
X109603Y427165D01*
X109583Y427226D01*
X109573Y427290D01*
X109540Y427360D01*
X109516Y427433D01*
X109479Y427487D01*
X109452Y427545D01*
X109400Y427602D01*
X109357Y427666D01*
X109307Y427707D01*
X109264Y427755D01*
X109204Y427792D01*
X109139Y427846D01*
X109061Y427879D01*
X109001Y427916D01*
X107514Y428532D01*
X106032Y430014D01*
X105229Y431952D01*
X105229Y434048D01*
X106032Y435986D01*
X107514Y437468D01*
X109452Y438271D01*
X111548Y438271D01*
X113486Y437468D01*
X114968Y435986D01*
X115771Y434048D01*
X115771Y431952D01*
X115187Y430543D01*
X115171Y430481D01*
X115146Y430422D01*
X115136Y430345D01*
X115117Y430270D01*
X115119Y430206D01*
X115111Y430142D01*
X115124Y430065D01*
X115126Y429988D01*
X115146Y429927D01*
X115156Y429863D01*
X115190Y429794D01*
X115214Y429720D01*
X115250Y429667D01*
X115278Y429609D01*
X115329Y429551D01*
X115373Y429487D01*
X115422Y429446D01*
X115465Y429398D01*
X115525Y429361D01*
X115590Y429308D01*
X115668Y429274D01*
X115728Y429237D01*
X117769Y428392D01*
X119392Y426769D01*
X120271Y424648D01*
X120271Y422443D01*
X120280Y422375D01*
X119392Y420231D01*
X117769Y418608D01*
X115648Y417729D01*
X113352Y417729D01*
G37*
%LPD*%
%LPC*%
G36*
X58352Y140229D02*
X58352Y140229D01*
X56231Y141108D01*
X54608Y142731D01*
X53805Y144668D01*
X53773Y144724D01*
X53749Y144783D01*
X53701Y144844D01*
X53662Y144911D01*
X53615Y144955D01*
X53575Y145006D01*
X53512Y145051D01*
X53456Y145104D01*
X53399Y145133D01*
X53347Y145171D01*
X53274Y145197D01*
X53205Y145232D01*
X53141Y145244D01*
X53081Y145265D01*
X53004Y145270D01*
X52928Y145284D01*
X52864Y145278D01*
X52799Y145282D01*
X52731Y145265D01*
X52647Y145257D01*
X52577Y145229D01*
X50452Y145229D01*
X48514Y146032D01*
X47032Y147514D01*
X46229Y149452D01*
X46229Y151548D01*
X47032Y153486D01*
X48514Y154968D01*
X50452Y155771D01*
X52548Y155771D01*
X54486Y154968D01*
X55968Y153486D01*
X56541Y152102D01*
X56574Y152047D01*
X56598Y151987D01*
X56646Y151926D01*
X56685Y151860D01*
X56732Y151816D01*
X56771Y151765D01*
X56834Y151720D01*
X56891Y151667D01*
X56948Y151637D01*
X57000Y151600D01*
X57073Y151574D01*
X57142Y151539D01*
X57205Y151527D01*
X57266Y151505D01*
X57343Y151501D01*
X57419Y151486D01*
X57483Y151493D01*
X57547Y151489D01*
X57616Y151505D01*
X57700Y151514D01*
X57779Y151545D01*
X57847Y151561D01*
X58352Y151771D01*
X60648Y151771D01*
X62769Y150892D01*
X64392Y149269D01*
X65271Y147148D01*
X65271Y144852D01*
X64392Y142731D01*
X62769Y141108D01*
X60648Y140229D01*
X58352Y140229D01*
G37*
%LPD*%
%LPC*%
G36*
X171168Y332946D02*
X171168Y332946D01*
X169231Y333748D01*
X167748Y335231D01*
X166994Y337051D01*
X166978Y337079D01*
X166968Y337109D01*
X166906Y337200D01*
X166851Y337294D01*
X166827Y337316D01*
X166809Y337342D01*
X166725Y337412D01*
X166645Y337486D01*
X166616Y337501D01*
X166591Y337522D01*
X166491Y337565D01*
X166394Y337614D01*
X166362Y337620D01*
X166332Y337633D01*
X166224Y337646D01*
X166116Y337667D01*
X166084Y337664D01*
X166052Y337668D01*
X165945Y337650D01*
X165836Y337640D01*
X165806Y337628D01*
X165774Y337622D01*
X165675Y337575D01*
X165574Y337535D01*
X165548Y337515D01*
X165519Y337501D01*
X165437Y337429D01*
X165351Y337362D01*
X165333Y337335D01*
X165308Y337314D01*
X165261Y337237D01*
X165186Y337133D01*
X165170Y337087D01*
X165148Y337051D01*
X164542Y335588D01*
X163059Y334106D01*
X161122Y333303D01*
X159025Y333303D01*
X157088Y334106D01*
X155605Y335588D01*
X154803Y337525D01*
X154803Y339622D01*
X155605Y341560D01*
X157088Y343042D01*
X159025Y343845D01*
X161122Y343845D01*
X163059Y343042D01*
X164542Y341559D01*
X165296Y339739D01*
X165312Y339712D01*
X165322Y339681D01*
X165384Y339591D01*
X165440Y339497D01*
X165463Y339475D01*
X165481Y339448D01*
X165566Y339379D01*
X165645Y339304D01*
X165674Y339289D01*
X165699Y339269D01*
X165799Y339226D01*
X165897Y339176D01*
X165928Y339170D01*
X165958Y339157D01*
X166066Y339144D01*
X166174Y339124D01*
X166206Y339127D01*
X166238Y339123D01*
X166346Y339140D01*
X166455Y339151D01*
X166484Y339163D01*
X166516Y339168D01*
X166615Y339215D01*
X166717Y339255D01*
X166742Y339275D01*
X166771Y339289D01*
X166853Y339362D01*
X166939Y339429D01*
X166958Y339455D01*
X166982Y339476D01*
X167029Y339553D01*
X167104Y339657D01*
X167120Y339703D01*
X167142Y339739D01*
X167748Y341202D01*
X169231Y342685D01*
X171168Y343487D01*
X173265Y343487D01*
X175202Y342685D01*
X176685Y341202D01*
X177487Y339265D01*
X177487Y337168D01*
X176685Y335231D01*
X175202Y333748D01*
X173265Y332946D01*
X171168Y332946D01*
G37*
%LPD*%
%LPC*%
G36*
X165352Y22229D02*
X165352Y22229D01*
X163231Y23108D01*
X161608Y24731D01*
X160729Y26852D01*
X160729Y29148D01*
X161608Y31269D01*
X161800Y31461D01*
X161806Y31469D01*
X161813Y31475D01*
X161890Y31582D01*
X161969Y31687D01*
X161973Y31696D01*
X161978Y31703D01*
X162022Y31827D01*
X162069Y31951D01*
X162070Y31960D01*
X162073Y31969D01*
X162081Y32100D01*
X162091Y32232D01*
X162089Y32241D01*
X162089Y32251D01*
X162071Y32326D01*
X162033Y32508D01*
X162022Y32529D01*
X162017Y32550D01*
X161229Y34452D01*
X161229Y36548D01*
X162032Y38486D01*
X163514Y39968D01*
X165452Y40771D01*
X167548Y40771D01*
X169486Y39968D01*
X170968Y38486D01*
X171771Y36548D01*
X171771Y34452D01*
X170983Y32550D01*
X170981Y32541D01*
X170976Y32533D01*
X170946Y32404D01*
X170913Y32277D01*
X170913Y32268D01*
X170911Y32258D01*
X170918Y32126D01*
X170922Y31995D01*
X170925Y31986D01*
X170926Y31977D01*
X170969Y31853D01*
X171010Y31727D01*
X171015Y31719D01*
X171018Y31710D01*
X171064Y31648D01*
X171168Y31494D01*
X171187Y31479D01*
X171200Y31461D01*
X171392Y31269D01*
X172271Y29148D01*
X172271Y26852D01*
X171392Y24731D01*
X169769Y23108D01*
X167648Y22229D01*
X165352Y22229D01*
G37*
%LPD*%
%LPC*%
G36*
X11952Y584729D02*
X11952Y584729D01*
X10014Y585532D01*
X8532Y587014D01*
X7729Y588952D01*
X7729Y591048D01*
X8532Y592986D01*
X10014Y594468D01*
X11952Y595271D01*
X14048Y595271D01*
X15986Y594468D01*
X16293Y594161D01*
X16345Y594122D01*
X16390Y594076D01*
X16457Y594038D01*
X16519Y593991D01*
X16579Y593969D01*
X16635Y593937D01*
X16710Y593919D01*
X16783Y593892D01*
X16847Y593887D01*
X16909Y593872D01*
X16987Y593876D01*
X17064Y593870D01*
X17127Y593883D01*
X17191Y593886D01*
X17264Y593912D01*
X17340Y593928D01*
X17397Y593958D01*
X17458Y593979D01*
X17514Y594020D01*
X17589Y594060D01*
X17650Y594119D01*
X17707Y594161D01*
X19014Y595468D01*
X20952Y596271D01*
X23048Y596271D01*
X24986Y595468D01*
X26468Y593986D01*
X27271Y592048D01*
X27271Y589952D01*
X26468Y588014D01*
X24986Y586532D01*
X23048Y585729D01*
X20952Y585729D01*
X19014Y586532D01*
X18707Y586839D01*
X18655Y586878D01*
X18610Y586924D01*
X18543Y586962D01*
X18481Y587009D01*
X18421Y587031D01*
X18365Y587063D01*
X18290Y587081D01*
X18217Y587108D01*
X18153Y587113D01*
X18090Y587128D01*
X18013Y587124D01*
X17936Y587130D01*
X17873Y587117D01*
X17809Y587114D01*
X17736Y587088D01*
X17660Y587072D01*
X17603Y587042D01*
X17542Y587021D01*
X17486Y586980D01*
X17411Y586940D01*
X17350Y586881D01*
X17293Y586839D01*
X15986Y585532D01*
X14048Y584729D01*
X11952Y584729D01*
G37*
%LPD*%
%LPC*%
G36*
X187452Y309729D02*
X187452Y309729D01*
X185514Y310532D01*
X184032Y312014D01*
X183229Y313952D01*
X183229Y316048D01*
X183577Y316889D01*
X183580Y316898D01*
X183585Y316907D01*
X183615Y317035D01*
X183648Y317162D01*
X183647Y317172D01*
X183649Y317181D01*
X183643Y317313D01*
X183639Y317444D01*
X183636Y317453D01*
X183635Y317463D01*
X183592Y317587D01*
X183551Y317712D01*
X183546Y317720D01*
X183543Y317729D01*
X183498Y317791D01*
X183392Y317945D01*
X183374Y317961D01*
X183361Y317978D01*
X182608Y318731D01*
X181729Y320852D01*
X181729Y323148D01*
X182608Y325269D01*
X184231Y326892D01*
X186352Y327771D01*
X188648Y327771D01*
X190769Y326892D01*
X192392Y325269D01*
X193271Y323148D01*
X193271Y320852D01*
X192598Y319228D01*
X192596Y319219D01*
X192591Y319211D01*
X192561Y319082D01*
X192528Y318955D01*
X192528Y318946D01*
X192526Y318936D01*
X192533Y318804D01*
X192537Y318673D01*
X192540Y318664D01*
X192540Y318655D01*
X192584Y318530D01*
X192624Y318405D01*
X192630Y318397D01*
X192633Y318388D01*
X192679Y318326D01*
X192783Y318172D01*
X192802Y318157D01*
X192815Y318139D01*
X192968Y317986D01*
X193771Y316048D01*
X193771Y313952D01*
X192968Y312014D01*
X191486Y310532D01*
X189548Y309729D01*
X187452Y309729D01*
G37*
%LPD*%
%LPC*%
G36*
X167952Y485229D02*
X167952Y485229D01*
X166014Y486032D01*
X164532Y487514D01*
X163729Y489452D01*
X163729Y491548D01*
X164532Y493486D01*
X166014Y494968D01*
X166612Y495216D01*
X166621Y495221D01*
X166630Y495223D01*
X166742Y495293D01*
X166855Y495360D01*
X166862Y495367D01*
X166870Y495372D01*
X166958Y495470D01*
X167048Y495565D01*
X167052Y495574D01*
X167059Y495581D01*
X167116Y495699D01*
X167176Y495817D01*
X167178Y495826D01*
X167182Y495835D01*
X167193Y495910D01*
X167228Y496094D01*
X167226Y496118D01*
X167229Y496139D01*
X167229Y497048D01*
X168032Y498986D01*
X169514Y500468D01*
X171452Y501271D01*
X173548Y501271D01*
X175486Y500468D01*
X176968Y498986D01*
X177771Y497048D01*
X177771Y494952D01*
X176968Y493014D01*
X175486Y491532D01*
X174888Y491284D01*
X174879Y491279D01*
X174870Y491277D01*
X174758Y491207D01*
X174645Y491140D01*
X174638Y491133D01*
X174630Y491128D01*
X174542Y491030D01*
X174452Y490935D01*
X174448Y490926D01*
X174441Y490919D01*
X174384Y490801D01*
X174324Y490683D01*
X174322Y490674D01*
X174318Y490665D01*
X174306Y490589D01*
X174272Y490406D01*
X174274Y490382D01*
X174271Y490361D01*
X174271Y489452D01*
X173468Y487514D01*
X171986Y486032D01*
X170048Y485229D01*
X167952Y485229D01*
G37*
%LPD*%
%LPC*%
G36*
X76952Y399729D02*
X76952Y399729D01*
X75014Y400532D01*
X73532Y402014D01*
X72729Y403952D01*
X72729Y406048D01*
X73532Y407986D01*
X75014Y409468D01*
X76952Y410271D01*
X79048Y410271D01*
X79919Y409910D01*
X80012Y409886D01*
X80103Y409854D01*
X80148Y409851D01*
X80192Y409840D01*
X80288Y409843D01*
X80384Y409837D01*
X80426Y409848D01*
X80474Y409849D01*
X80596Y409889D01*
X80684Y409910D01*
X82762Y410771D01*
X84858Y410771D01*
X86796Y409968D01*
X88278Y408486D01*
X89081Y406548D01*
X89081Y404452D01*
X88278Y402514D01*
X86796Y401032D01*
X84858Y400229D01*
X82762Y400229D01*
X81891Y400590D01*
X81798Y400614D01*
X81707Y400646D01*
X81662Y400649D01*
X81618Y400660D01*
X81522Y400657D01*
X81426Y400663D01*
X81384Y400652D01*
X81336Y400651D01*
X81214Y400611D01*
X81126Y400590D01*
X79048Y399729D01*
X76952Y399729D01*
G37*
%LPD*%
%LPC*%
G36*
X46852Y327229D02*
X46852Y327229D01*
X44731Y328108D01*
X43108Y329731D01*
X42229Y331852D01*
X42229Y334148D01*
X43108Y336269D01*
X44731Y337892D01*
X46852Y338771D01*
X49148Y338771D01*
X51269Y337892D01*
X52666Y336495D01*
X52735Y336443D01*
X52799Y336384D01*
X52848Y336359D01*
X52892Y336326D01*
X52973Y336295D01*
X53050Y336256D01*
X53070Y336252D01*
X53069Y336225D01*
X53056Y336172D01*
X53061Y336085D01*
X53056Y335999D01*
X53068Y335949D01*
X53071Y335890D01*
X53108Y335783D01*
X53128Y335699D01*
X53771Y334148D01*
X53771Y331852D01*
X52892Y329731D01*
X51269Y328108D01*
X49148Y327229D01*
X46852Y327229D01*
G37*
%LPD*%
%LPC*%
G36*
X99852Y415229D02*
X99852Y415229D01*
X97731Y416108D01*
X96108Y417731D01*
X95229Y419852D01*
X95229Y422148D01*
X96108Y424269D01*
X97731Y425892D01*
X99852Y426771D01*
X102148Y426771D01*
X104269Y425892D01*
X105892Y424269D01*
X106781Y422123D01*
X106771Y422057D01*
X106771Y419852D01*
X105892Y417731D01*
X104269Y416108D01*
X102148Y415229D01*
X99852Y415229D01*
G37*
%LPD*%
%LPC*%
G36*
X126852Y415229D02*
X126852Y415229D01*
X124731Y416108D01*
X123108Y417731D01*
X122229Y419852D01*
X122229Y422057D01*
X122220Y422125D01*
X123108Y424269D01*
X124731Y425892D01*
X126852Y426771D01*
X129148Y426771D01*
X131269Y425892D01*
X132892Y424269D01*
X133771Y422148D01*
X133771Y419852D01*
X132892Y417731D01*
X131269Y416108D01*
X129148Y415229D01*
X126852Y415229D01*
G37*
%LPD*%
%LPC*%
G36*
X33852Y640229D02*
X33852Y640229D01*
X31731Y641108D01*
X30108Y642731D01*
X29229Y644852D01*
X29229Y647148D01*
X30108Y649269D01*
X31731Y650892D01*
X33852Y651771D01*
X36148Y651771D01*
X38269Y650892D01*
X39892Y649269D01*
X40771Y647148D01*
X40771Y644852D01*
X39892Y642731D01*
X38269Y641108D01*
X36148Y640229D01*
X33852Y640229D01*
G37*
%LPD*%
%LPC*%
G36*
X64852Y661229D02*
X64852Y661229D01*
X62731Y662108D01*
X61108Y663731D01*
X60229Y665852D01*
X60229Y668148D01*
X61108Y670269D01*
X62731Y671892D01*
X64852Y672771D01*
X67148Y672771D01*
X69269Y671892D01*
X70892Y670269D01*
X71771Y668148D01*
X71771Y665852D01*
X70892Y663731D01*
X69269Y662108D01*
X67148Y661229D01*
X64852Y661229D01*
G37*
%LPD*%
%LPC*%
G36*
X113152Y96729D02*
X113152Y96729D01*
X111031Y97608D01*
X109408Y99231D01*
X108529Y101352D01*
X108529Y103648D01*
X109408Y105769D01*
X111031Y107392D01*
X113152Y108271D01*
X115448Y108271D01*
X117569Y107392D01*
X119192Y105769D01*
X120071Y103648D01*
X120071Y101352D01*
X119192Y99231D01*
X117569Y97608D01*
X115448Y96729D01*
X113152Y96729D01*
G37*
%LPD*%
%LPC*%
G36*
X72852Y646229D02*
X72852Y646229D01*
X70731Y647108D01*
X69108Y648731D01*
X68229Y650852D01*
X68229Y653148D01*
X69108Y655269D01*
X70731Y656892D01*
X72852Y657771D01*
X75148Y657771D01*
X77269Y656892D01*
X78892Y655269D01*
X79771Y653148D01*
X79771Y650852D01*
X78892Y648731D01*
X77269Y647108D01*
X75148Y646229D01*
X72852Y646229D01*
G37*
%LPD*%
%LPC*%
G36*
X213852Y645729D02*
X213852Y645729D01*
X211731Y646608D01*
X210108Y648231D01*
X209229Y650352D01*
X209229Y652648D01*
X210108Y654769D01*
X211731Y656392D01*
X213852Y657271D01*
X216148Y657271D01*
X218269Y656392D01*
X219892Y654769D01*
X220771Y652648D01*
X220771Y650352D01*
X219892Y648231D01*
X218269Y646608D01*
X216148Y645729D01*
X213852Y645729D01*
G37*
%LPD*%
%LPC*%
G36*
X99352Y200229D02*
X99352Y200229D01*
X97231Y201108D01*
X95608Y202731D01*
X94729Y204852D01*
X94729Y207148D01*
X95608Y209269D01*
X97231Y210892D01*
X99352Y211771D01*
X101648Y211771D01*
X103769Y210892D01*
X105392Y209269D01*
X106271Y207148D01*
X106271Y204852D01*
X105392Y202731D01*
X103769Y201108D01*
X101648Y200229D01*
X99352Y200229D01*
G37*
%LPD*%
%LPC*%
G36*
X151852Y645229D02*
X151852Y645229D01*
X149731Y646108D01*
X148108Y647731D01*
X147229Y649852D01*
X147229Y652148D01*
X148108Y654269D01*
X149731Y655892D01*
X151852Y656771D01*
X154148Y656771D01*
X156269Y655892D01*
X157892Y654269D01*
X158771Y652148D01*
X158771Y649852D01*
X157892Y647731D01*
X156269Y646108D01*
X154148Y645229D01*
X151852Y645229D01*
G37*
%LPD*%
%LPC*%
G36*
X63352Y571729D02*
X63352Y571729D01*
X61231Y572608D01*
X59608Y574231D01*
X58729Y576352D01*
X58729Y578648D01*
X59608Y580769D01*
X61231Y582392D01*
X63352Y583271D01*
X65648Y583271D01*
X67769Y582392D01*
X69392Y580769D01*
X70271Y578648D01*
X70271Y576352D01*
X69392Y574231D01*
X67769Y572608D01*
X65648Y571729D01*
X63352Y571729D01*
G37*
%LPD*%
%LPC*%
G36*
X87852Y227729D02*
X87852Y227729D01*
X85731Y228608D01*
X84108Y230231D01*
X83229Y232352D01*
X83229Y234648D01*
X84108Y236769D01*
X85731Y238392D01*
X87852Y239271D01*
X90148Y239271D01*
X92269Y238392D01*
X93892Y236769D01*
X94771Y234648D01*
X94771Y232352D01*
X93892Y230231D01*
X92269Y228608D01*
X90148Y227729D01*
X87852Y227729D01*
G37*
%LPD*%
%LPC*%
G36*
X112852Y626229D02*
X112852Y626229D01*
X110731Y627108D01*
X109108Y628731D01*
X108229Y630852D01*
X108229Y633148D01*
X109108Y635269D01*
X110731Y636892D01*
X112852Y637771D01*
X115148Y637771D01*
X117269Y636892D01*
X118892Y635269D01*
X119771Y633148D01*
X119771Y630852D01*
X118892Y628731D01*
X117269Y627108D01*
X115148Y626229D01*
X112852Y626229D01*
G37*
%LPD*%
%LPC*%
G36*
X72352Y616229D02*
X72352Y616229D01*
X70231Y617108D01*
X68608Y618731D01*
X67729Y620852D01*
X67729Y623148D01*
X68608Y625269D01*
X70231Y626892D01*
X72352Y627771D01*
X74648Y627771D01*
X76769Y626892D01*
X78392Y625269D01*
X79271Y623148D01*
X79271Y620852D01*
X78392Y618731D01*
X76769Y617108D01*
X74648Y616229D01*
X72352Y616229D01*
G37*
%LPD*%
%LPC*%
G36*
X176852Y6229D02*
X176852Y6229D01*
X174731Y7108D01*
X173108Y8731D01*
X172229Y10852D01*
X172229Y13148D01*
X173108Y15269D01*
X174731Y16892D01*
X176852Y17771D01*
X179148Y17771D01*
X181269Y16892D01*
X182892Y15269D01*
X183771Y13148D01*
X183771Y10852D01*
X182892Y8731D01*
X181269Y7108D01*
X179148Y6229D01*
X176852Y6229D01*
G37*
%LPD*%
%LPC*%
G36*
X136852Y602729D02*
X136852Y602729D01*
X134731Y603608D01*
X133108Y605231D01*
X132229Y607352D01*
X132229Y609648D01*
X133108Y611769D01*
X134731Y613392D01*
X136852Y614271D01*
X139148Y614271D01*
X141269Y613392D01*
X142892Y611769D01*
X143771Y609648D01*
X143771Y607352D01*
X142892Y605231D01*
X141269Y603608D01*
X139148Y602729D01*
X136852Y602729D01*
G37*
%LPD*%
%LPC*%
G36*
X54852Y6729D02*
X54852Y6729D01*
X52731Y7608D01*
X51108Y9231D01*
X50229Y11352D01*
X50229Y13648D01*
X51108Y15769D01*
X52731Y17392D01*
X54852Y18271D01*
X57148Y18271D01*
X59269Y17392D01*
X60892Y15769D01*
X61771Y13648D01*
X61771Y11352D01*
X60892Y9231D01*
X59269Y7608D01*
X57148Y6729D01*
X54852Y6729D01*
G37*
%LPD*%
%LPC*%
G36*
X128852Y14229D02*
X128852Y14229D01*
X126731Y15108D01*
X125108Y16731D01*
X124229Y18852D01*
X124229Y21148D01*
X125108Y23269D01*
X126731Y24892D01*
X128852Y25771D01*
X131148Y25771D01*
X133269Y24892D01*
X134892Y23269D01*
X135771Y21148D01*
X135771Y18852D01*
X134892Y16731D01*
X133269Y15108D01*
X131148Y14229D01*
X128852Y14229D01*
G37*
%LPD*%
%LPC*%
G36*
X169852Y584229D02*
X169852Y584229D01*
X167731Y585108D01*
X166108Y586731D01*
X165229Y588852D01*
X165229Y591148D01*
X166108Y593269D01*
X167731Y594892D01*
X169852Y595771D01*
X172148Y595771D01*
X174269Y594892D01*
X175892Y593269D01*
X176771Y591148D01*
X176771Y588852D01*
X175892Y586731D01*
X174269Y585108D01*
X172148Y584229D01*
X169852Y584229D01*
G37*
%LPD*%
%LPC*%
G36*
X211352Y583229D02*
X211352Y583229D01*
X209231Y584108D01*
X207608Y585731D01*
X206729Y587852D01*
X206729Y590148D01*
X207608Y592269D01*
X209231Y593892D01*
X211352Y594771D01*
X213648Y594771D01*
X215769Y593892D01*
X217392Y592269D01*
X218271Y590148D01*
X218271Y587852D01*
X217392Y585731D01*
X215769Y584108D01*
X213648Y583229D01*
X211352Y583229D01*
G37*
%LPD*%
%LPC*%
G36*
X10852Y42729D02*
X10852Y42729D01*
X8731Y43608D01*
X7108Y45231D01*
X6229Y47352D01*
X6229Y49648D01*
X7108Y51769D01*
X8731Y53392D01*
X10852Y54271D01*
X13148Y54271D01*
X15269Y53392D01*
X16892Y51769D01*
X17771Y49648D01*
X17771Y47352D01*
X16892Y45231D01*
X15269Y43608D01*
X13148Y42729D01*
X10852Y42729D01*
G37*
%LPD*%
%LPC*%
G36*
X51932Y408309D02*
X51932Y408309D01*
X49811Y409188D01*
X48188Y410811D01*
X47309Y412932D01*
X47309Y415228D01*
X48188Y417349D01*
X49811Y418972D01*
X51932Y419851D01*
X54228Y419851D01*
X56349Y418972D01*
X57972Y417349D01*
X58851Y415228D01*
X58851Y412932D01*
X57972Y410811D01*
X56349Y409188D01*
X54228Y408309D01*
X51932Y408309D01*
G37*
%LPD*%
%LPC*%
G36*
X162852Y397729D02*
X162852Y397729D01*
X160731Y398608D01*
X159108Y400231D01*
X158229Y402352D01*
X158229Y404648D01*
X159108Y406769D01*
X160731Y408392D01*
X162852Y409271D01*
X165148Y409271D01*
X167269Y408392D01*
X168892Y406769D01*
X169771Y404648D01*
X169771Y402352D01*
X168892Y400231D01*
X167269Y398608D01*
X165148Y397729D01*
X162852Y397729D01*
G37*
%LPD*%
%LPC*%
G36*
X36852Y47729D02*
X36852Y47729D01*
X34731Y48608D01*
X33108Y50231D01*
X32229Y52352D01*
X32229Y54648D01*
X33108Y56769D01*
X34731Y58392D01*
X36852Y59271D01*
X39148Y59271D01*
X41269Y58392D01*
X42892Y56769D01*
X43771Y54648D01*
X43771Y52352D01*
X42892Y50231D01*
X41269Y48608D01*
X39148Y47729D01*
X36852Y47729D01*
G37*
%LPD*%
%LPC*%
G36*
X61352Y81729D02*
X61352Y81729D01*
X59231Y82608D01*
X57608Y84231D01*
X56729Y86352D01*
X56729Y88648D01*
X57608Y90769D01*
X59231Y92392D01*
X61352Y93271D01*
X63648Y93271D01*
X65769Y92392D01*
X67392Y90769D01*
X68271Y88648D01*
X68271Y86352D01*
X67392Y84231D01*
X65769Y82608D01*
X63648Y81729D01*
X61352Y81729D01*
G37*
%LPD*%
%LPC*%
G36*
X50552Y391729D02*
X50552Y391729D01*
X48431Y392608D01*
X46808Y394231D01*
X45929Y396352D01*
X45929Y398648D01*
X46808Y400769D01*
X48431Y402392D01*
X50552Y403271D01*
X52848Y403271D01*
X54969Y402392D01*
X56592Y400769D01*
X57471Y398648D01*
X57471Y396352D01*
X56592Y394231D01*
X54969Y392608D01*
X52848Y391729D01*
X50552Y391729D01*
G37*
%LPD*%
%LPC*%
G36*
X194852Y522229D02*
X194852Y522229D01*
X192731Y523108D01*
X191108Y524731D01*
X190229Y526852D01*
X190229Y529148D01*
X191108Y531269D01*
X192731Y532892D01*
X194852Y533771D01*
X197148Y533771D01*
X199269Y532892D01*
X200892Y531269D01*
X201771Y529148D01*
X201771Y526852D01*
X200892Y524731D01*
X199269Y523108D01*
X197148Y522229D01*
X194852Y522229D01*
G37*
%LPD*%
%LPC*%
G36*
X126852Y381229D02*
X126852Y381229D01*
X124731Y382108D01*
X123108Y383731D01*
X122229Y385852D01*
X122229Y388148D01*
X123108Y390269D01*
X124731Y391892D01*
X126852Y392771D01*
X129148Y392771D01*
X131269Y391892D01*
X132892Y390269D01*
X133771Y388148D01*
X133771Y385852D01*
X132892Y383731D01*
X131269Y382108D01*
X129148Y381229D01*
X126852Y381229D01*
G37*
%LPD*%
%LPC*%
G36*
X99852Y381229D02*
X99852Y381229D01*
X97731Y382108D01*
X96108Y383731D01*
X95229Y385852D01*
X95229Y388148D01*
X96108Y390269D01*
X97731Y391892D01*
X99852Y392771D01*
X102148Y392771D01*
X104269Y391892D01*
X105892Y390269D01*
X106771Y388148D01*
X106771Y385852D01*
X105892Y383731D01*
X104269Y382108D01*
X102148Y381229D01*
X99852Y381229D01*
G37*
%LPD*%
%LPC*%
G36*
X206852Y88229D02*
X206852Y88229D01*
X204731Y89108D01*
X203108Y90731D01*
X202229Y92852D01*
X202229Y95148D01*
X203108Y97269D01*
X204731Y98892D01*
X206852Y99771D01*
X209148Y99771D01*
X211269Y98892D01*
X212892Y97269D01*
X213771Y95148D01*
X213771Y92852D01*
X212892Y90731D01*
X211269Y89108D01*
X209148Y88229D01*
X206852Y88229D01*
G37*
%LPD*%
%LPC*%
G36*
X148452Y455229D02*
X148452Y455229D01*
X146514Y456032D01*
X145032Y457514D01*
X144229Y459452D01*
X144229Y461548D01*
X145032Y463486D01*
X146189Y464643D01*
X146241Y464713D01*
X146301Y464776D01*
X146326Y464825D01*
X146359Y464869D01*
X146389Y464950D01*
X146390Y464951D01*
X146425Y464953D01*
X146532Y464990D01*
X146616Y465010D01*
X148452Y465771D01*
X150548Y465771D01*
X152486Y464968D01*
X153968Y463486D01*
X154771Y461548D01*
X154771Y459452D01*
X153968Y457514D01*
X152486Y456032D01*
X150548Y455229D01*
X148452Y455229D01*
G37*
%LPD*%
%LPC*%
G36*
X141168Y465513D02*
X141168Y465513D01*
X139231Y466315D01*
X137748Y467798D01*
X136946Y469735D01*
X136946Y471832D01*
X137748Y473769D01*
X139231Y475252D01*
X141168Y476054D01*
X143265Y476054D01*
X145202Y475252D01*
X146685Y473769D01*
X147487Y471832D01*
X147487Y469735D01*
X146685Y467798D01*
X145527Y466640D01*
X145475Y466571D01*
X145416Y466508D01*
X145391Y466459D01*
X145358Y466415D01*
X145327Y466333D01*
X145327Y466332D01*
X145292Y466331D01*
X145184Y466293D01*
X145100Y466273D01*
X143265Y465513D01*
X141168Y465513D01*
G37*
%LPD*%
%LPC*%
G36*
X191452Y661229D02*
X191452Y661229D01*
X189514Y662032D01*
X188032Y663514D01*
X187229Y665452D01*
X187229Y667548D01*
X188032Y669486D01*
X189514Y670968D01*
X191452Y671771D01*
X193548Y671771D01*
X195486Y670968D01*
X196968Y669486D01*
X197771Y667548D01*
X197771Y665452D01*
X196968Y663514D01*
X195486Y662032D01*
X193548Y661229D01*
X191452Y661229D01*
G37*
%LPD*%
%LPC*%
G36*
X191452Y646229D02*
X191452Y646229D01*
X189514Y647032D01*
X188032Y648514D01*
X187229Y650452D01*
X187229Y652548D01*
X188032Y654486D01*
X189514Y655968D01*
X191452Y656771D01*
X193548Y656771D01*
X195486Y655968D01*
X196968Y654486D01*
X197771Y652548D01*
X197771Y650452D01*
X196968Y648514D01*
X195486Y647032D01*
X193548Y646229D01*
X191452Y646229D01*
G37*
%LPD*%
%LPC*%
G36*
X191452Y631729D02*
X191452Y631729D01*
X189514Y632532D01*
X188032Y634014D01*
X187229Y635952D01*
X187229Y638048D01*
X188032Y639986D01*
X189514Y641468D01*
X191452Y642271D01*
X193548Y642271D01*
X195486Y641468D01*
X196968Y639986D01*
X197771Y638048D01*
X197771Y635952D01*
X196968Y634014D01*
X195486Y632532D01*
X193548Y631729D01*
X191452Y631729D01*
G37*
%LPD*%
%LPC*%
G36*
X160952Y507729D02*
X160952Y507729D01*
X159014Y508532D01*
X157532Y510014D01*
X156729Y511952D01*
X156729Y514048D01*
X157532Y515986D01*
X159014Y517468D01*
X160952Y518271D01*
X163048Y518271D01*
X164986Y517468D01*
X166468Y515986D01*
X167271Y514048D01*
X167271Y511952D01*
X166468Y510014D01*
X164986Y508532D01*
X163048Y507729D01*
X160952Y507729D01*
G37*
%LPD*%
%LPC*%
G36*
X153452Y485729D02*
X153452Y485729D01*
X151514Y486532D01*
X150032Y488014D01*
X149229Y489952D01*
X149229Y492048D01*
X150032Y493986D01*
X151514Y495468D01*
X153452Y496271D01*
X155548Y496271D01*
X157486Y495468D01*
X158968Y493986D01*
X159771Y492048D01*
X159771Y489952D01*
X158968Y488014D01*
X157486Y486532D01*
X155548Y485729D01*
X153452Y485729D01*
G37*
%LPD*%
%LPC*%
G36*
X79452Y511229D02*
X79452Y511229D01*
X77514Y512032D01*
X76032Y513514D01*
X75229Y515452D01*
X75229Y517548D01*
X76032Y519486D01*
X77514Y520968D01*
X79452Y521771D01*
X81548Y521771D01*
X83486Y520968D01*
X84968Y519486D01*
X85771Y517548D01*
X85771Y515452D01*
X84968Y513514D01*
X83486Y512032D01*
X81548Y511229D01*
X79452Y511229D01*
G37*
%LPD*%
%LPC*%
G36*
X191452Y601729D02*
X191452Y601729D01*
X189514Y602532D01*
X188032Y604014D01*
X187229Y605952D01*
X187229Y608048D01*
X188032Y609986D01*
X189514Y611468D01*
X191452Y612271D01*
X193548Y612271D01*
X195486Y611468D01*
X196968Y609986D01*
X197771Y608048D01*
X197771Y605952D01*
X196968Y604014D01*
X195486Y602532D01*
X193548Y601729D01*
X191452Y601729D01*
G37*
%LPD*%
%LPC*%
G36*
X11952Y611229D02*
X11952Y611229D01*
X10014Y612032D01*
X8532Y613514D01*
X7729Y615452D01*
X7729Y617548D01*
X8532Y619486D01*
X10014Y620968D01*
X11952Y621771D01*
X14048Y621771D01*
X15986Y620968D01*
X17468Y619486D01*
X18271Y617548D01*
X18271Y615452D01*
X17468Y613514D01*
X15986Y612032D01*
X14048Y611229D01*
X11952Y611229D01*
G37*
%LPD*%
%LPC*%
G36*
X196452Y494729D02*
X196452Y494729D01*
X194514Y495532D01*
X193032Y497014D01*
X192229Y498952D01*
X192229Y501048D01*
X193032Y502986D01*
X194514Y504468D01*
X196452Y505271D01*
X198548Y505271D01*
X200486Y504468D01*
X201968Y502986D01*
X202771Y501048D01*
X202771Y498952D01*
X201968Y497014D01*
X200486Y495532D01*
X198548Y494729D01*
X196452Y494729D01*
G37*
%LPD*%
%LPC*%
G36*
X149952Y536729D02*
X149952Y536729D01*
X148014Y537532D01*
X146532Y539014D01*
X145729Y540952D01*
X145729Y543048D01*
X146532Y544986D01*
X148014Y546468D01*
X149952Y547271D01*
X152048Y547271D01*
X153986Y546468D01*
X155468Y544986D01*
X156271Y543048D01*
X156271Y540952D01*
X155468Y539014D01*
X153986Y537532D01*
X152048Y536729D01*
X149952Y536729D01*
G37*
%LPD*%
%LPC*%
G36*
X109952Y192229D02*
X109952Y192229D01*
X108014Y193032D01*
X106532Y194514D01*
X105729Y196452D01*
X105729Y198548D01*
X106532Y200486D01*
X108014Y201968D01*
X109952Y202771D01*
X112048Y202771D01*
X113986Y201968D01*
X115468Y200486D01*
X116271Y198548D01*
X116271Y196452D01*
X115468Y194514D01*
X113986Y193032D01*
X112048Y192229D01*
X109952Y192229D01*
G37*
%LPD*%
%LPC*%
G36*
X24452Y186729D02*
X24452Y186729D01*
X22514Y187532D01*
X21032Y189014D01*
X20229Y190952D01*
X20229Y193048D01*
X21032Y194986D01*
X22514Y196468D01*
X24452Y197271D01*
X26548Y197271D01*
X28486Y196468D01*
X29968Y194986D01*
X30771Y193048D01*
X30771Y190952D01*
X29968Y189014D01*
X28486Y187532D01*
X26548Y186729D01*
X24452Y186729D01*
G37*
%LPD*%
%LPC*%
G36*
X24452Y171729D02*
X24452Y171729D01*
X22514Y172532D01*
X21032Y174014D01*
X20229Y175952D01*
X20229Y178048D01*
X21032Y179986D01*
X22514Y181468D01*
X24452Y182271D01*
X26548Y182271D01*
X28486Y181468D01*
X29968Y179986D01*
X30771Y178048D01*
X30771Y175952D01*
X29968Y174014D01*
X28486Y172532D01*
X26548Y171729D01*
X24452Y171729D01*
G37*
%LPD*%
%LPC*%
G36*
X149952Y549729D02*
X149952Y549729D01*
X148014Y550532D01*
X146532Y552014D01*
X145729Y553952D01*
X145729Y556048D01*
X146532Y557986D01*
X148014Y559468D01*
X149952Y560271D01*
X152048Y560271D01*
X153986Y559468D01*
X155468Y557986D01*
X156271Y556048D01*
X156271Y553952D01*
X155468Y552014D01*
X153986Y550532D01*
X152048Y549729D01*
X149952Y549729D01*
G37*
%LPD*%
%LPC*%
G36*
X149952Y563229D02*
X149952Y563229D01*
X148014Y564032D01*
X146532Y565514D01*
X145729Y567452D01*
X145729Y569548D01*
X146532Y571486D01*
X148014Y572968D01*
X149952Y573771D01*
X152048Y573771D01*
X153986Y572968D01*
X155468Y571486D01*
X156271Y569548D01*
X156271Y567452D01*
X155468Y565514D01*
X153986Y564032D01*
X152048Y563229D01*
X149952Y563229D01*
G37*
%LPD*%
%LPC*%
G36*
X120952Y133869D02*
X120952Y133869D01*
X119014Y134672D01*
X117532Y136154D01*
X116729Y138092D01*
X116729Y140188D01*
X117532Y142126D01*
X119014Y143608D01*
X120952Y144411D01*
X123048Y144411D01*
X124986Y143608D01*
X126468Y142126D01*
X127271Y140188D01*
X127271Y138092D01*
X126468Y136154D01*
X124986Y134672D01*
X123048Y133869D01*
X120952Y133869D01*
G37*
%LPD*%
%LPC*%
G36*
X15992Y122229D02*
X15992Y122229D01*
X14054Y123032D01*
X12572Y124514D01*
X11769Y126452D01*
X11769Y128548D01*
X12572Y130486D01*
X14054Y131968D01*
X15992Y132771D01*
X18088Y132771D01*
X20026Y131968D01*
X21508Y130486D01*
X22311Y128548D01*
X22311Y126452D01*
X21508Y124514D01*
X20026Y123032D01*
X18088Y122229D01*
X15992Y122229D01*
G37*
%LPD*%
%LPC*%
G36*
X203952Y119729D02*
X203952Y119729D01*
X202014Y120532D01*
X200532Y122014D01*
X199729Y123952D01*
X199729Y126048D01*
X200532Y127986D01*
X202014Y129468D01*
X203952Y130271D01*
X206048Y130271D01*
X207986Y129468D01*
X209468Y127986D01*
X210271Y126048D01*
X210271Y123952D01*
X209468Y122014D01*
X207986Y120532D01*
X206048Y119729D01*
X203952Y119729D01*
G37*
%LPD*%
%LPC*%
G36*
X194952Y464729D02*
X194952Y464729D01*
X193014Y465532D01*
X191532Y467014D01*
X190729Y468952D01*
X190729Y471048D01*
X191532Y472986D01*
X193014Y474468D01*
X194952Y475271D01*
X197048Y475271D01*
X198986Y474468D01*
X200468Y472986D01*
X201271Y471048D01*
X201271Y468952D01*
X200468Y467014D01*
X198986Y465532D01*
X197048Y464729D01*
X194952Y464729D01*
G37*
%LPD*%
%LPC*%
G36*
X72952Y499229D02*
X72952Y499229D01*
X71014Y500032D01*
X69532Y501514D01*
X68729Y503452D01*
X68729Y505548D01*
X69532Y507486D01*
X71014Y508968D01*
X72952Y509771D01*
X75048Y509771D01*
X76986Y508968D01*
X78468Y507486D01*
X79271Y505548D01*
X79271Y503452D01*
X78468Y501514D01*
X76986Y500032D01*
X75048Y499229D01*
X72952Y499229D01*
G37*
%LPD*%
%LPC*%
G36*
X191452Y616729D02*
X191452Y616729D01*
X189514Y617532D01*
X188032Y619014D01*
X187229Y620952D01*
X187229Y623048D01*
X188032Y624986D01*
X189514Y626468D01*
X191452Y627271D01*
X193548Y627271D01*
X195486Y626468D01*
X196968Y624986D01*
X197771Y623048D01*
X197771Y620952D01*
X196968Y619014D01*
X195486Y617532D01*
X193548Y616729D01*
X191452Y616729D01*
G37*
%LPD*%
%LPC*%
G36*
X144421Y393198D02*
X144421Y393198D01*
X142483Y394001D01*
X141001Y395483D01*
X140198Y397421D01*
X140198Y399517D01*
X141001Y401455D01*
X142483Y402937D01*
X144421Y403740D01*
X146517Y403740D01*
X148455Y402937D01*
X149937Y401455D01*
X150740Y399517D01*
X150740Y397421D01*
X149937Y395483D01*
X148455Y394001D01*
X146517Y393198D01*
X144421Y393198D01*
G37*
%LPD*%
%LPC*%
G36*
X120952Y570229D02*
X120952Y570229D01*
X119014Y571032D01*
X117532Y572514D01*
X116729Y574452D01*
X116729Y576548D01*
X117532Y578486D01*
X119014Y579968D01*
X120952Y580771D01*
X123048Y580771D01*
X124986Y579968D01*
X126468Y578486D01*
X127271Y576548D01*
X127271Y574452D01*
X126468Y572514D01*
X124986Y571032D01*
X123048Y570229D01*
X120952Y570229D01*
G37*
%LPD*%
%LPC*%
G36*
X135952Y570229D02*
X135952Y570229D01*
X134014Y571032D01*
X132532Y572514D01*
X131729Y574452D01*
X131729Y576548D01*
X132532Y578486D01*
X134014Y579968D01*
X135952Y580771D01*
X138048Y580771D01*
X139986Y579968D01*
X141468Y578486D01*
X142271Y576548D01*
X142271Y574452D01*
X141468Y572514D01*
X139986Y571032D01*
X138048Y570229D01*
X135952Y570229D01*
G37*
%LPD*%
%LPC*%
G36*
X96735Y395946D02*
X96735Y395946D01*
X94798Y396748D01*
X93315Y398231D01*
X92513Y400168D01*
X92513Y402265D01*
X93315Y404202D01*
X94798Y405685D01*
X96735Y406487D01*
X98832Y406487D01*
X100769Y405685D01*
X102252Y404202D01*
X103054Y402265D01*
X103054Y400168D01*
X102252Y398231D01*
X100769Y396748D01*
X98832Y395946D01*
X96735Y395946D01*
G37*
%LPD*%
%LPC*%
G36*
X34452Y667729D02*
X34452Y667729D01*
X32514Y668532D01*
X31032Y670014D01*
X30229Y671952D01*
X30229Y674048D01*
X31032Y675986D01*
X32514Y677468D01*
X34452Y678271D01*
X36548Y678271D01*
X38486Y677468D01*
X39968Y675986D01*
X40771Y674048D01*
X40771Y671952D01*
X39968Y670014D01*
X38486Y668532D01*
X36548Y667729D01*
X34452Y667729D01*
G37*
%LPD*%
%LPC*%
G36*
X174952Y413229D02*
X174952Y413229D01*
X173014Y414032D01*
X171532Y415514D01*
X170729Y417452D01*
X170729Y419548D01*
X171532Y421486D01*
X173014Y422968D01*
X174952Y423771D01*
X177048Y423771D01*
X178986Y422968D01*
X180468Y421486D01*
X181271Y419548D01*
X181271Y417452D01*
X180468Y415514D01*
X178986Y414032D01*
X177048Y413229D01*
X174952Y413229D01*
G37*
%LPD*%
%LPC*%
G36*
X84452Y414229D02*
X84452Y414229D01*
X82514Y415032D01*
X81032Y416514D01*
X80229Y418452D01*
X80229Y420548D01*
X81032Y422486D01*
X82514Y423968D01*
X84452Y424771D01*
X86548Y424771D01*
X88486Y423968D01*
X89968Y422486D01*
X90771Y420548D01*
X90771Y418452D01*
X89968Y416514D01*
X88486Y415032D01*
X86548Y414229D01*
X84452Y414229D01*
G37*
%LPD*%
%LPC*%
G36*
X35452Y584729D02*
X35452Y584729D01*
X33514Y585532D01*
X32032Y587014D01*
X31229Y588952D01*
X31229Y591048D01*
X32032Y592986D01*
X33514Y594468D01*
X35452Y595271D01*
X37548Y595271D01*
X39486Y594468D01*
X40968Y592986D01*
X41771Y591048D01*
X41771Y588952D01*
X40968Y587014D01*
X39486Y585532D01*
X37548Y584729D01*
X35452Y584729D01*
G37*
%LPD*%
%LPC*%
G36*
X55952Y590229D02*
X55952Y590229D01*
X54014Y591032D01*
X52532Y592514D01*
X51729Y594452D01*
X51729Y596548D01*
X52532Y598486D01*
X54014Y599968D01*
X55952Y600771D01*
X58048Y600771D01*
X59986Y599968D01*
X61468Y598486D01*
X62271Y596548D01*
X62271Y594452D01*
X61468Y592514D01*
X59986Y591032D01*
X58048Y590229D01*
X55952Y590229D01*
G37*
%LPD*%
%LPC*%
G36*
X107952Y598729D02*
X107952Y598729D01*
X106014Y599532D01*
X104532Y601014D01*
X103729Y602952D01*
X103729Y605048D01*
X104532Y606986D01*
X106014Y608468D01*
X107952Y609271D01*
X110048Y609271D01*
X111986Y608468D01*
X113468Y606986D01*
X114271Y605048D01*
X114271Y602952D01*
X113468Y601014D01*
X111986Y599532D01*
X110048Y598729D01*
X107952Y598729D01*
G37*
%LPD*%
%LPC*%
G36*
X205929Y217899D02*
X205929Y217899D01*
X205989Y218279D01*
X206484Y219800D01*
X207210Y221225D01*
X208150Y222519D01*
X209281Y223650D01*
X210575Y224590D01*
X212000Y225316D01*
X213521Y225811D01*
X213901Y225871D01*
X213901Y217899D01*
X205929Y217899D01*
G37*
%LPD*%
%LPC*%
G36*
X213521Y205989D02*
X213521Y205989D01*
X212000Y206484D01*
X210575Y207210D01*
X209281Y208150D01*
X208150Y209281D01*
X207210Y210575D01*
X206484Y212000D01*
X205989Y213521D01*
X205929Y213901D01*
X213901Y213901D01*
X213901Y205929D01*
X213521Y205989D01*
G37*
%LPD*%
D10*
X195854Y50619D02*
X195852Y50709D01*
X195846Y50799D01*
X195837Y50888D01*
X195824Y50977D01*
X195806Y51065D01*
X195786Y51153D01*
X195761Y51239D01*
X195733Y51325D01*
X195701Y51409D01*
X195666Y51492D01*
X195627Y51573D01*
X195585Y51652D01*
X195539Y51730D01*
X195491Y51806D01*
X195439Y51879D01*
X195384Y51950D01*
X195326Y52019D01*
X195265Y52085D01*
X195201Y52149D01*
X195135Y52210D01*
X195066Y52268D01*
X194995Y52323D01*
X194922Y52375D01*
X194846Y52423D01*
X194768Y52469D01*
X194689Y52511D01*
X194608Y52550D01*
X194525Y52585D01*
X194441Y52617D01*
X194355Y52645D01*
X194269Y52670D01*
X194181Y52690D01*
X194093Y52708D01*
X194004Y52721D01*
X193915Y52730D01*
X193825Y52736D01*
X193735Y52738D01*
X193631Y52736D01*
X193528Y52730D01*
X193424Y52720D01*
X193322Y52706D01*
X193219Y52689D01*
X193118Y52667D01*
X193017Y52642D01*
X192918Y52612D01*
X192820Y52579D01*
X192723Y52543D01*
X192627Y52502D01*
X192533Y52458D01*
X192441Y52411D01*
X192351Y52360D01*
X192262Y52305D01*
X192176Y52247D01*
X192092Y52186D01*
X192011Y52122D01*
X191932Y52055D01*
X191855Y51985D01*
X191782Y51912D01*
X191711Y51836D01*
X191643Y51758D01*
X191578Y51677D01*
X191517Y51593D01*
X191458Y51508D01*
X191403Y51420D01*
X191351Y51330D01*
X191303Y51238D01*
X191258Y51145D01*
X191217Y51049D01*
X191179Y50953D01*
X191145Y50855D01*
X195148Y48971D02*
X195213Y49036D01*
X195276Y49103D01*
X195336Y49173D01*
X195393Y49246D01*
X195447Y49320D01*
X195498Y49397D01*
X195546Y49476D01*
X195591Y49556D01*
X195632Y49639D01*
X195670Y49722D01*
X195705Y49808D01*
X195736Y49895D01*
X195763Y49983D01*
X195787Y50072D01*
X195808Y50161D01*
X195824Y50252D01*
X195837Y50343D01*
X195847Y50435D01*
X195852Y50527D01*
X195854Y50619D01*
X195148Y48971D02*
X191146Y44262D01*
X195854Y44262D01*
D11*
X215900Y520700D03*
X215900Y495300D03*
X215900Y469900D03*
X215900Y444500D03*
X215900Y419100D03*
X215900Y393700D03*
X215900Y368300D03*
X215900Y342900D03*
X215900Y317500D03*
X215900Y292100D03*
X215900Y266700D03*
X215900Y241300D03*
X215900Y215900D03*
X215900Y190500D03*
X215900Y165100D03*
X215900Y139700D03*
X12700Y241300D03*
X12700Y266700D03*
X12700Y292100D03*
X12700Y317500D03*
X12700Y342900D03*
X12700Y368300D03*
X12700Y393700D03*
X12700Y419100D03*
X12700Y444500D03*
X12700Y469900D03*
X12700Y495300D03*
X12700Y520700D03*
D12*
X60500Y197000D03*
X68500Y197000D03*
X76500Y197000D03*
X84500Y197000D03*
X94500Y42500D03*
X94500Y48500D03*
X134500Y48500D03*
X134500Y42500D03*
X59500Y146000D03*
X114300Y102500D03*
X149000Y154000D03*
X161000Y154000D03*
X152000Y149000D03*
X158000Y149000D03*
X35000Y646000D03*
X120000Y346500D03*
X120500Y490500D03*
X200000Y433000D03*
X200000Y360500D03*
X32000Y89520D03*
X51570Y443500D03*
X101000Y421000D03*
X128000Y421000D03*
X128000Y387000D03*
X101000Y387000D03*
X155000Y154000D03*
X164000Y403500D03*
X187500Y322000D03*
X141000Y509000D03*
X196000Y528000D03*
X110000Y271000D03*
X164500Y250500D03*
X88000Y250500D03*
X145000Y198500D03*
X137000Y319000D03*
X109000Y516000D03*
X57500Y549500D03*
X74000Y652000D03*
X66000Y667000D03*
X73500Y622000D03*
X153000Y651000D03*
X114000Y632000D03*
X138000Y608500D03*
X171000Y590000D03*
X212500Y589000D03*
X215000Y651500D03*
X64500Y577500D03*
X130000Y20000D03*
X148000Y28000D03*
X166500Y28000D03*
X56000Y12500D03*
X38000Y53500D03*
X12000Y48500D03*
X178000Y12000D03*
X62500Y87500D03*
X208000Y94000D03*
X223000Y330500D03*
X223000Y305000D03*
X223000Y355500D03*
X223000Y381000D03*
X223000Y406500D03*
X200000Y427000D03*
X223000Y482500D03*
X223000Y508000D03*
X201500Y514500D03*
X223000Y533500D03*
X29000Y493000D03*
X6000Y254000D03*
X6000Y279500D03*
X100500Y206000D03*
D13*
X202000Y405000D03*
X162000Y513000D03*
X111000Y197500D03*
X163500Y458000D03*
X170500Y458000D03*
X39000Y84000D03*
X45500Y227000D03*
X43336Y308164D03*
X39000Y74000D03*
X40500Y230000D03*
X38967Y312534D03*
X208500Y456000D03*
X192000Y513000D03*
X78000Y405000D03*
X83810Y405500D03*
X26500Y446500D03*
X19515Y457690D03*
X26825Y456608D03*
X24500Y462000D03*
X110500Y433000D03*
X154500Y491000D03*
X84000Y339000D03*
X78203Y341420D03*
X72000Y341420D03*
X66003Y339997D03*
X59000Y340000D03*
X199500Y377500D03*
X180534Y434534D03*
D12*
X110500Y289500D03*
X114332Y78368D03*
X109500Y312500D03*
X68000Y118000D03*
X28000Y127000D03*
X10000Y127670D03*
X32000Y157000D03*
X25500Y184500D03*
X51500Y211000D03*
X51500Y205000D03*
X107000Y148500D03*
X100000Y148500D03*
X93000Y148500D03*
X86000Y148500D03*
X176500Y140000D03*
X100332Y83368D03*
X62000Y62000D03*
X140832Y78368D03*
X178832Y61868D03*
X51500Y158500D03*
X100500Y185500D03*
X100500Y191500D03*
X70000Y405000D03*
X26000Y436000D03*
X179000Y445500D03*
X114000Y497000D03*
X182277Y328321D03*
X200000Y352500D03*
X119500Y369000D03*
X136500Y385000D03*
X139500Y404480D03*
X97500Y430000D03*
X15500Y672000D03*
X41500Y666500D03*
X42000Y651500D03*
X42000Y637000D03*
X42000Y622000D03*
X73500Y567000D03*
X131000Y430500D03*
X152000Y604000D03*
X153000Y673000D03*
X120000Y521500D03*
X86500Y391500D03*
X48000Y504000D03*
X39000Y65000D03*
X222000Y126500D03*
X155000Y466500D03*
X47500Y535500D03*
X127500Y673000D03*
D13*
X25500Y192000D03*
X25500Y177000D03*
X106300Y48000D03*
X117300Y48000D03*
D12*
X71100Y52826D03*
X157500Y52826D03*
X157500Y11026D03*
X71100Y11026D03*
D13*
X148000Y35500D03*
X166500Y35500D03*
X80000Y39500D03*
X62500Y39500D03*
X151000Y555000D03*
X74000Y504500D03*
X151000Y568500D03*
X151000Y542000D03*
X74500Y490500D03*
X80500Y516500D03*
X97784Y401217D03*
X172500Y496000D03*
X196000Y470000D03*
X169000Y490500D03*
X197500Y500000D03*
X192500Y607000D03*
X122000Y575500D03*
X137000Y575500D03*
D12*
X26000Y427000D03*
D13*
X57000Y595500D03*
X97000Y504500D03*
X192500Y637000D03*
X103000Y511000D03*
X192500Y666500D03*
X180000Y463000D03*
X192500Y622000D03*
X179536Y452697D03*
D12*
X51700Y397500D03*
X53080Y414080D03*
D13*
X91500Y314000D03*
X103500Y302500D03*
X89000Y300000D03*
X82000Y300000D03*
X89000Y293000D03*
X57000Y268000D03*
X40000Y285000D03*
X74000Y252000D03*
X102000Y279000D03*
X66000Y311500D03*
X117500Y302500D03*
X129000Y313500D03*
X164500Y265500D03*
X180000Y282000D03*
X147000Y249000D03*
X118500Y279000D03*
X151500Y311000D03*
D12*
X108000Y346500D03*
X108000Y490500D03*
X48000Y333000D03*
X57500Y540500D03*
X89000Y233500D03*
D13*
X173500Y373000D03*
X168500Y370000D03*
X160074Y338574D03*
X198500Y400000D03*
X181000Y377500D03*
X180500Y385000D03*
X66500Y75000D03*
X202790Y389000D03*
X188500Y315000D03*
X205000Y125000D03*
X198500Y410000D03*
X192500Y651500D03*
X17040Y127500D03*
X145469Y398469D03*
X172217Y338217D03*
X166000Y389500D03*
D12*
X61004Y444025D03*
X114500Y423500D03*
X133000Y201500D03*
D13*
X30500Y227000D03*
X63500Y345710D03*
X25000Y305000D03*
X85500Y419500D03*
X29000Y467000D03*
X13000Y590000D03*
X86500Y495500D03*
X36500Y590000D03*
X81500Y490500D03*
X22000Y591000D03*
X35500Y673000D03*
X13000Y616500D03*
X93500Y490000D03*
X137500Y361000D03*
X143522Y367140D03*
X149000Y372500D03*
X142217Y470784D03*
X149500Y460500D03*
X92000Y499000D03*
X55500Y373000D03*
X59500Y368500D03*
X63500Y364000D03*
X67500Y359500D03*
X72000Y354500D03*
X173000Y450000D03*
X172000Y443500D03*
X51270Y377000D03*
X51500Y150500D03*
X67500Y350000D03*
X30500Y317000D03*
D12*
X76458Y69730D03*
D13*
X122000Y139140D03*
X129070Y339000D03*
X176000Y418500D03*
X134108Y505608D03*
X109000Y604000D03*
D12*
X26500Y390000D03*
X85000Y319230D03*
D13*
X177790Y390543D03*
X128778Y352222D03*
X133000Y356500D03*
X51270Y433000D03*
X121500Y510000D03*
X127000Y505500D03*
X134000Y498000D03*
X176165Y438882D03*
X167500Y447500D03*
M02*
