G04 EAGLE Gerber RS-274X export*
G75*
%MOMM*%
%FSLAX34Y34*%
%LPD*%
%INSolderpaste Top*%
%IPPOS*%
%AMOC8*
5,1,8,0,0,1.08239X$1,22.5*%
G01*
%ADD10C,0.102000*%
%ADD11C,0.102500*%
%ADD12C,0.100000*%
%ADD13C,0.096000*%
%ADD14C,0.300000*%
%ADD15R,0.175000X0.900000*%
%ADD16R,0.900000X0.175000*%
%ADD17C,0.099000*%
%ADD18C,0.105000*%
%ADD19C,0.104000*%

G36*
X157300Y42427D02*
X157300Y42427D01*
X157301Y42427D01*
X158369Y42446D01*
X158376Y42451D01*
X158380Y42447D01*
X159417Y42703D01*
X159422Y42710D01*
X159428Y42707D01*
X160382Y43188D01*
X160386Y43195D01*
X160391Y43194D01*
X161215Y43875D01*
X161216Y43883D01*
X161222Y43883D01*
X161873Y44730D01*
X161873Y44738D01*
X161879Y44739D01*
X162326Y45710D01*
X162324Y45718D01*
X162329Y45720D01*
X162548Y46766D01*
X162545Y46773D01*
X162549Y46776D01*
X162549Y58776D01*
X162546Y58781D01*
X162549Y58784D01*
X162369Y59879D01*
X162363Y59885D01*
X162366Y59890D01*
X161947Y60918D01*
X161940Y60922D01*
X161942Y60927D01*
X161305Y61836D01*
X161297Y61839D01*
X161297Y61844D01*
X160474Y62588D01*
X160466Y62589D01*
X160465Y62595D01*
X159497Y63137D01*
X159488Y63136D01*
X159486Y63142D01*
X158422Y63455D01*
X158417Y63453D01*
X158413Y63453D01*
X158411Y63457D01*
X157303Y63525D01*
X157297Y63521D01*
X157293Y63525D01*
X156185Y63355D01*
X156179Y63349D01*
X156174Y63352D01*
X155132Y62940D01*
X155128Y62933D01*
X155123Y62935D01*
X154198Y62301D01*
X154196Y62293D01*
X154190Y62294D01*
X153430Y61471D01*
X153429Y61462D01*
X153423Y61462D01*
X152866Y60490D01*
X152867Y60482D01*
X152861Y60480D01*
X152534Y59408D01*
X152537Y59400D01*
X152532Y59397D01*
X152451Y58280D01*
X152452Y58277D01*
X152451Y58276D01*
X152451Y46276D01*
X152456Y46269D01*
X152452Y46265D01*
X152671Y45321D01*
X152677Y45315D01*
X152675Y45310D01*
X153099Y44438D01*
X153106Y44435D01*
X153104Y44429D01*
X153711Y43673D01*
X153719Y43671D01*
X153719Y43665D01*
X154479Y43064D01*
X154488Y43064D01*
X154489Y43058D01*
X155364Y42640D01*
X155372Y42642D01*
X155374Y42637D01*
X156320Y42425D01*
X156327Y42428D01*
X156331Y42423D01*
X157300Y42427D01*
G37*
G36*
X71881Y42436D02*
X71881Y42436D01*
X71888Y42441D01*
X71892Y42437D01*
X72944Y42687D01*
X72949Y42693D01*
X72954Y42690D01*
X73924Y43167D01*
X73927Y43175D01*
X73933Y43173D01*
X74772Y43854D01*
X74774Y43862D01*
X74780Y43862D01*
X75446Y44713D01*
X75447Y44721D01*
X75452Y44722D01*
X75913Y45699D01*
X75911Y45707D01*
X75917Y45710D01*
X76148Y46765D01*
X76145Y46773D01*
X76149Y46776D01*
X76149Y58776D01*
X76145Y58781D01*
X76149Y58784D01*
X75956Y59890D01*
X75950Y59895D01*
X75953Y59900D01*
X75520Y60935D01*
X75513Y60939D01*
X75515Y60944D01*
X74862Y61857D01*
X74854Y61859D01*
X74855Y61865D01*
X74016Y62609D01*
X74007Y62610D01*
X74007Y62615D01*
X73023Y63154D01*
X73015Y63153D01*
X73013Y63158D01*
X71934Y63465D01*
X71926Y63462D01*
X71923Y63467D01*
X70803Y63525D01*
X70798Y63522D01*
X70795Y63525D01*
X69749Y63407D01*
X69743Y63401D01*
X69738Y63405D01*
X68744Y63057D01*
X68740Y63050D01*
X68735Y63052D01*
X67843Y62492D01*
X67841Y62485D01*
X67835Y62485D01*
X67091Y61741D01*
X67089Y61733D01*
X67084Y61733D01*
X66524Y60841D01*
X66524Y60833D01*
X66519Y60832D01*
X66171Y59838D01*
X66174Y59830D01*
X66169Y59827D01*
X66051Y58782D01*
X66053Y58778D01*
X66051Y58776D01*
X66051Y46776D01*
X66054Y46771D01*
X66051Y46768D01*
X66209Y45772D01*
X66215Y45766D01*
X66212Y45761D01*
X66587Y44825D01*
X66594Y44821D01*
X66592Y44815D01*
X67166Y43986D01*
X67174Y43983D01*
X67173Y43978D01*
X67917Y43297D01*
X67926Y43296D01*
X67926Y43290D01*
X68803Y42792D01*
X68812Y42793D01*
X68814Y42788D01*
X69779Y42497D01*
X69787Y42500D01*
X69790Y42495D01*
X70797Y42427D01*
X70799Y42428D01*
X70800Y42427D01*
X71881Y42436D01*
G37*
G36*
X157804Y2931D02*
X157804Y2931D01*
X157807Y2927D01*
X158883Y3082D01*
X158888Y3088D01*
X158893Y3085D01*
X159907Y3475D01*
X159911Y3482D01*
X159917Y3481D01*
X160819Y4087D01*
X160821Y4095D01*
X160827Y4094D01*
X161571Y4886D01*
X161572Y4894D01*
X161578Y4894D01*
X162127Y5832D01*
X162126Y5840D01*
X162132Y5842D01*
X162459Y6878D01*
X162456Y6886D01*
X162461Y6889D01*
X162549Y7972D01*
X162547Y7975D01*
X162549Y7976D01*
X162549Y13976D01*
X162546Y13980D01*
X162549Y13982D01*
X162399Y15115D01*
X162393Y15121D01*
X162396Y15126D01*
X161998Y16196D01*
X161991Y16200D01*
X161993Y16206D01*
X161366Y17161D01*
X161358Y17164D01*
X161359Y17169D01*
X160536Y17961D01*
X160528Y17962D01*
X160527Y17968D01*
X159548Y18557D01*
X159540Y18556D01*
X159538Y18561D01*
X158453Y18917D01*
X158445Y18915D01*
X158442Y18919D01*
X157305Y19025D01*
X157296Y19020D01*
X157291Y19024D01*
X156154Y18817D01*
X156148Y18811D01*
X156143Y18814D01*
X155081Y18359D01*
X155077Y18352D01*
X155071Y18354D01*
X154136Y17674D01*
X154134Y17666D01*
X154128Y17667D01*
X153368Y16796D01*
X153368Y16788D01*
X153362Y16787D01*
X152815Y15768D01*
X152816Y15760D01*
X152811Y15758D01*
X152807Y15745D01*
X152794Y15696D01*
X152793Y15696D01*
X152794Y15696D01*
X152780Y15647D01*
X152766Y15597D01*
X152753Y15548D01*
X152739Y15499D01*
X152726Y15450D01*
X152712Y15400D01*
X152699Y15351D01*
X152685Y15302D01*
X152671Y15253D01*
X152658Y15203D01*
X152644Y15154D01*
X152631Y15105D01*
X152617Y15056D01*
X152604Y15006D01*
X152590Y14957D01*
X152577Y14908D01*
X152576Y14908D01*
X152563Y14859D01*
X152549Y14809D01*
X152504Y14644D01*
X152507Y14636D01*
X152502Y14633D01*
X152451Y13478D01*
X152452Y13477D01*
X152451Y13476D01*
X152451Y7476D01*
X152455Y7470D01*
X152452Y7467D01*
X152664Y6386D01*
X152670Y6381D01*
X152667Y6376D01*
X153114Y5370D01*
X153121Y5366D01*
X153119Y5360D01*
X153779Y4479D01*
X153787Y4476D01*
X153787Y4471D01*
X154626Y3758D01*
X154634Y3758D01*
X154635Y3752D01*
X155612Y3244D01*
X155620Y3245D01*
X155622Y3240D01*
X156687Y2962D01*
X156695Y2965D01*
X156698Y2961D01*
X157799Y2927D01*
X157804Y2931D01*
G37*
G36*
X71302Y2931D02*
X71302Y2931D01*
X71307Y2927D01*
X72394Y3072D01*
X72400Y3078D01*
X72405Y3075D01*
X73433Y3459D01*
X73438Y3465D01*
X73443Y3464D01*
X74360Y4066D01*
X74363Y4074D01*
X74369Y4073D01*
X75129Y4865D01*
X75130Y4873D01*
X75136Y4874D01*
X75700Y5815D01*
X75700Y5818D01*
X75701Y5819D01*
X75700Y5821D01*
X75699Y5823D01*
X75705Y5825D01*
X76046Y6868D01*
X76044Y6876D01*
X76048Y6879D01*
X76149Y7972D01*
X76147Y7974D01*
X76149Y7976D01*
X76149Y13976D01*
X76147Y13979D01*
X76149Y13981D01*
X76048Y15073D01*
X76043Y15079D01*
X76046Y15084D01*
X75705Y16127D01*
X75698Y16132D01*
X75700Y16137D01*
X75136Y17078D01*
X75128Y17081D01*
X75129Y17087D01*
X74369Y17879D01*
X74361Y17880D01*
X74360Y17886D01*
X73443Y18489D01*
X73435Y18488D01*
X73433Y18494D01*
X72405Y18877D01*
X72397Y18875D01*
X72394Y18880D01*
X71307Y19025D01*
X71299Y19021D01*
X71295Y19025D01*
X70158Y18919D01*
X70152Y18914D01*
X70147Y18917D01*
X69062Y18561D01*
X69057Y18554D01*
X69052Y18557D01*
X68073Y17968D01*
X68070Y17960D01*
X68064Y17961D01*
X67241Y17169D01*
X67240Y17161D01*
X67234Y17161D01*
X66607Y16206D01*
X66608Y16198D01*
X66602Y16196D01*
X66204Y15126D01*
X66206Y15118D01*
X66201Y15115D01*
X66051Y13982D01*
X66054Y13978D01*
X66051Y13976D01*
X66051Y7976D01*
X66054Y7972D01*
X66051Y7970D01*
X66201Y6837D01*
X66207Y6831D01*
X66204Y6826D01*
X66602Y5756D01*
X66609Y5752D01*
X66607Y5746D01*
X67234Y4791D01*
X67242Y4788D01*
X67241Y4783D01*
X68064Y3991D01*
X68072Y3990D01*
X68073Y3984D01*
X69052Y3395D01*
X69060Y3396D01*
X69062Y3391D01*
X70147Y3035D01*
X70155Y3038D01*
X70158Y3033D01*
X71295Y2927D01*
X71302Y2931D01*
G37*
D10*
X122790Y54086D02*
X120810Y54086D01*
X120810Y63066D01*
X122790Y63066D01*
X122790Y54086D01*
X122790Y55055D02*
X120810Y55055D01*
X120810Y56024D02*
X122790Y56024D01*
X122790Y56993D02*
X120810Y56993D01*
X120810Y57962D02*
X122790Y57962D01*
X122790Y58931D02*
X120810Y58931D01*
X120810Y59900D02*
X122790Y59900D01*
X122790Y60869D02*
X120810Y60869D01*
X120810Y61838D02*
X122790Y61838D01*
X122790Y62807D02*
X120810Y62807D01*
X117790Y54086D02*
X115810Y54086D01*
X115810Y63066D01*
X117790Y63066D01*
X117790Y54086D01*
X117790Y55055D02*
X115810Y55055D01*
X115810Y56024D02*
X117790Y56024D01*
X117790Y56993D02*
X115810Y56993D01*
X115810Y57962D02*
X117790Y57962D01*
X117790Y58931D02*
X115810Y58931D01*
X115810Y59900D02*
X117790Y59900D01*
X117790Y60869D02*
X115810Y60869D01*
X115810Y61838D02*
X117790Y61838D01*
X117790Y62807D02*
X115810Y62807D01*
X144060Y54086D02*
X149040Y54086D01*
X144060Y54086D02*
X144060Y63066D01*
X149040Y63066D01*
X149040Y54086D01*
X149040Y55055D02*
X144060Y55055D01*
X144060Y56024D02*
X149040Y56024D01*
X149040Y56993D02*
X144060Y56993D01*
X144060Y57962D02*
X149040Y57962D01*
X149040Y58931D02*
X144060Y58931D01*
X144060Y59900D02*
X149040Y59900D01*
X149040Y60869D02*
X144060Y60869D01*
X144060Y61838D02*
X149040Y61838D01*
X149040Y62807D02*
X144060Y62807D01*
X141290Y54086D02*
X136310Y54086D01*
X136310Y63066D01*
X141290Y63066D01*
X141290Y54086D01*
X141290Y55055D02*
X136310Y55055D01*
X136310Y56024D02*
X141290Y56024D01*
X141290Y56993D02*
X136310Y56993D01*
X136310Y57962D02*
X141290Y57962D01*
X141290Y58931D02*
X136310Y58931D01*
X136310Y59900D02*
X141290Y59900D01*
X141290Y60869D02*
X136310Y60869D01*
X136310Y61838D02*
X141290Y61838D01*
X141290Y62807D02*
X136310Y62807D01*
X132790Y54086D02*
X130810Y54086D01*
X130810Y63066D01*
X132790Y63066D01*
X132790Y54086D01*
X132790Y55055D02*
X130810Y55055D01*
X130810Y56024D02*
X132790Y56024D01*
X132790Y56993D02*
X130810Y56993D01*
X130810Y57962D02*
X132790Y57962D01*
X132790Y58931D02*
X130810Y58931D01*
X130810Y59900D02*
X132790Y59900D01*
X132790Y60869D02*
X130810Y60869D01*
X130810Y61838D02*
X132790Y61838D01*
X132790Y62807D02*
X130810Y62807D01*
X127790Y54086D02*
X125810Y54086D01*
X125810Y63066D01*
X127790Y63066D01*
X127790Y54086D01*
X127790Y55055D02*
X125810Y55055D01*
X125810Y56024D02*
X127790Y56024D01*
X127790Y56993D02*
X125810Y56993D01*
X125810Y57962D02*
X127790Y57962D01*
X127790Y58931D02*
X125810Y58931D01*
X125810Y59900D02*
X127790Y59900D01*
X127790Y60869D02*
X125810Y60869D01*
X125810Y61838D02*
X127790Y61838D01*
X127790Y62807D02*
X125810Y62807D01*
X107790Y63066D02*
X105810Y63066D01*
X107790Y63066D02*
X107790Y54086D01*
X105810Y54086D01*
X105810Y63066D01*
X105810Y55055D02*
X107790Y55055D01*
X107790Y56024D02*
X105810Y56024D01*
X105810Y56993D02*
X107790Y56993D01*
X107790Y57962D02*
X105810Y57962D01*
X105810Y58931D02*
X107790Y58931D01*
X107790Y59900D02*
X105810Y59900D01*
X105810Y60869D02*
X107790Y60869D01*
X107790Y61838D02*
X105810Y61838D01*
X105810Y62807D02*
X107790Y62807D01*
X110810Y63066D02*
X112790Y63066D01*
X112790Y54086D01*
X110810Y54086D01*
X110810Y63066D01*
X110810Y55055D02*
X112790Y55055D01*
X112790Y56024D02*
X110810Y56024D01*
X110810Y56993D02*
X112790Y56993D01*
X112790Y57962D02*
X110810Y57962D01*
X110810Y58931D02*
X112790Y58931D01*
X112790Y59900D02*
X110810Y59900D01*
X110810Y60869D02*
X112790Y60869D01*
X112790Y61838D02*
X110810Y61838D01*
X110810Y62807D02*
X112790Y62807D01*
X84540Y63066D02*
X79560Y63066D01*
X84540Y63066D02*
X84540Y54086D01*
X79560Y54086D01*
X79560Y63066D01*
X79560Y55055D02*
X84540Y55055D01*
X84540Y56024D02*
X79560Y56024D01*
X79560Y56993D02*
X84540Y56993D01*
X84540Y57962D02*
X79560Y57962D01*
X79560Y58931D02*
X84540Y58931D01*
X84540Y59900D02*
X79560Y59900D01*
X79560Y60869D02*
X84540Y60869D01*
X84540Y61838D02*
X79560Y61838D01*
X79560Y62807D02*
X84540Y62807D01*
X87310Y63066D02*
X92290Y63066D01*
X92290Y54086D01*
X87310Y54086D01*
X87310Y63066D01*
X87310Y55055D02*
X92290Y55055D01*
X92290Y56024D02*
X87310Y56024D01*
X87310Y56993D02*
X92290Y56993D01*
X92290Y57962D02*
X87310Y57962D01*
X87310Y58931D02*
X92290Y58931D01*
X92290Y59900D02*
X87310Y59900D01*
X87310Y60869D02*
X92290Y60869D01*
X92290Y61838D02*
X87310Y61838D01*
X87310Y62807D02*
X92290Y62807D01*
X95810Y63066D02*
X97790Y63066D01*
X97790Y54086D01*
X95810Y54086D01*
X95810Y63066D01*
X95810Y55055D02*
X97790Y55055D01*
X97790Y56024D02*
X95810Y56024D01*
X95810Y56993D02*
X97790Y56993D01*
X97790Y57962D02*
X95810Y57962D01*
X95810Y58931D02*
X97790Y58931D01*
X97790Y59900D02*
X95810Y59900D01*
X95810Y60869D02*
X97790Y60869D01*
X97790Y61838D02*
X95810Y61838D01*
X95810Y62807D02*
X97790Y62807D01*
X100810Y63066D02*
X102790Y63066D01*
X102790Y54086D01*
X100810Y54086D01*
X100810Y63066D01*
X100810Y55055D02*
X102790Y55055D01*
X102790Y56024D02*
X100810Y56024D01*
X100810Y56993D02*
X102790Y56993D01*
X102790Y57962D02*
X100810Y57962D01*
X100810Y58931D02*
X102790Y58931D01*
X102790Y59900D02*
X100810Y59900D01*
X100810Y60869D02*
X102790Y60869D01*
X102790Y61838D02*
X100810Y61838D01*
X100810Y62807D02*
X102790Y62807D01*
D11*
X110038Y82912D02*
X110038Y87988D01*
X110038Y82912D02*
X108562Y82912D01*
X108562Y87988D01*
X110038Y87988D01*
X110038Y83886D02*
X108562Y83886D01*
X108562Y84860D02*
X110038Y84860D01*
X110038Y85834D02*
X108562Y85834D01*
X108562Y86808D02*
X110038Y86808D01*
X110038Y87782D02*
X108562Y87782D01*
X115038Y87488D02*
X115038Y82912D01*
X113562Y82912D01*
X113562Y87488D01*
X115038Y87488D01*
X115038Y83886D02*
X113562Y83886D01*
X113562Y84860D02*
X115038Y84860D01*
X115038Y85834D02*
X113562Y85834D01*
X113562Y86808D02*
X115038Y86808D01*
X120038Y87488D02*
X120038Y82912D01*
X118562Y82912D01*
X118562Y87488D01*
X120038Y87488D01*
X120038Y83886D02*
X118562Y83886D01*
X118562Y84860D02*
X120038Y84860D01*
X120038Y85834D02*
X118562Y85834D01*
X118562Y86808D02*
X120038Y86808D01*
X118562Y91512D02*
X118562Y96088D01*
X120038Y96088D01*
X120038Y91512D01*
X118562Y91512D01*
X118562Y92486D02*
X120038Y92486D01*
X120038Y93460D02*
X118562Y93460D01*
X118562Y94434D02*
X120038Y94434D01*
X120038Y95408D02*
X118562Y95408D01*
X113562Y96088D02*
X113562Y91512D01*
X113562Y96088D02*
X115038Y96088D01*
X115038Y91512D01*
X113562Y91512D01*
X113562Y92486D02*
X115038Y92486D01*
X115038Y93460D02*
X113562Y93460D01*
X113562Y94434D02*
X115038Y94434D01*
X115038Y95408D02*
X113562Y95408D01*
X108562Y96088D02*
X108562Y91512D01*
X108562Y96088D02*
X110038Y96088D01*
X110038Y91512D01*
X108562Y91512D01*
X108562Y92486D02*
X110038Y92486D01*
X110038Y93460D02*
X108562Y93460D01*
X108562Y94434D02*
X110038Y94434D01*
X110038Y95408D02*
X108562Y95408D01*
D12*
X95060Y163300D02*
X95060Y172300D01*
X95060Y163300D02*
X50060Y163300D01*
X50060Y172300D01*
X95060Y172300D01*
X95060Y164250D02*
X50060Y164250D01*
X50060Y165200D02*
X95060Y165200D01*
X95060Y166150D02*
X50060Y166150D01*
X50060Y167100D02*
X95060Y167100D01*
X95060Y168050D02*
X50060Y168050D01*
X50060Y169000D02*
X95060Y169000D01*
X95060Y169950D02*
X50060Y169950D01*
X50060Y170900D02*
X95060Y170900D01*
X95060Y171850D02*
X50060Y171850D01*
X95060Y183300D02*
X95060Y192300D01*
X95060Y183300D02*
X50060Y183300D01*
X50060Y192300D01*
X95060Y192300D01*
X95060Y184250D02*
X50060Y184250D01*
X50060Y185200D02*
X95060Y185200D01*
X95060Y186150D02*
X50060Y186150D01*
X50060Y187100D02*
X95060Y187100D01*
X95060Y188050D02*
X50060Y188050D01*
X50060Y189000D02*
X95060Y189000D01*
X95060Y189950D02*
X50060Y189950D01*
X50060Y190900D02*
X95060Y190900D01*
X95060Y191850D02*
X50060Y191850D01*
D13*
X37080Y151320D02*
X4040Y151320D01*
X37080Y151320D02*
X37080Y136280D01*
X4040Y136280D01*
X4040Y151320D01*
X4040Y137192D02*
X37080Y137192D01*
X37080Y138104D02*
X4040Y138104D01*
X4040Y139016D02*
X37080Y139016D01*
X37080Y139928D02*
X4040Y139928D01*
X4040Y140840D02*
X37080Y140840D01*
X37080Y141752D02*
X4040Y141752D01*
X4040Y142664D02*
X37080Y142664D01*
X37080Y143576D02*
X4040Y143576D01*
X4040Y144488D02*
X37080Y144488D01*
X37080Y145400D02*
X4040Y145400D01*
X4040Y146312D02*
X37080Y146312D01*
X37080Y147224D02*
X4040Y147224D01*
X4040Y148136D02*
X37080Y148136D01*
X37080Y149048D02*
X4040Y149048D01*
X4040Y149960D02*
X37080Y149960D01*
X37080Y150872D02*
X4040Y150872D01*
X4040Y219320D02*
X37080Y219320D01*
X37080Y204280D01*
X4040Y204280D01*
X4040Y219320D01*
X4040Y205192D02*
X37080Y205192D01*
X37080Y206104D02*
X4040Y206104D01*
X4040Y207016D02*
X37080Y207016D01*
X37080Y207928D02*
X4040Y207928D01*
X4040Y208840D02*
X37080Y208840D01*
X37080Y209752D02*
X4040Y209752D01*
X4040Y210664D02*
X37080Y210664D01*
X37080Y211576D02*
X4040Y211576D01*
X4040Y212488D02*
X37080Y212488D01*
X37080Y213400D02*
X4040Y213400D01*
X4040Y214312D02*
X37080Y214312D01*
X37080Y215224D02*
X4040Y215224D01*
X4040Y216136D02*
X37080Y216136D01*
X37080Y217048D02*
X4040Y217048D01*
X4040Y217960D02*
X37080Y217960D01*
X37080Y218872D02*
X4040Y218872D01*
D14*
X107500Y172530D02*
X114500Y172530D01*
X114500Y165530D01*
X107500Y165530D01*
X107500Y172530D01*
X107500Y168380D02*
X114500Y168380D01*
X114500Y171230D02*
X107500Y171230D01*
X107500Y190070D02*
X114500Y190070D01*
X114500Y183070D01*
X107500Y183070D01*
X107500Y190070D01*
X107500Y185920D02*
X114500Y185920D01*
X114500Y188770D02*
X107500Y188770D01*
D10*
X169510Y57490D02*
X169510Y52510D01*
X169510Y57490D02*
X174490Y57490D01*
X174490Y52510D01*
X169510Y52510D01*
X169510Y53479D02*
X174490Y53479D01*
X174490Y54448D02*
X169510Y54448D01*
X169510Y55417D02*
X174490Y55417D01*
X174490Y56386D02*
X169510Y56386D01*
X169510Y57355D02*
X174490Y57355D01*
X169510Y47490D02*
X169510Y42510D01*
X169510Y47490D02*
X174490Y47490D01*
X174490Y42510D01*
X169510Y42510D01*
X169510Y43479D02*
X174490Y43479D01*
X174490Y44448D02*
X169510Y44448D01*
X169510Y45417D02*
X174490Y45417D01*
X174490Y46386D02*
X169510Y46386D01*
X169510Y47355D02*
X174490Y47355D01*
X54510Y52510D02*
X54510Y57490D01*
X59490Y57490D01*
X59490Y52510D01*
X54510Y52510D01*
X54510Y53479D02*
X59490Y53479D01*
X59490Y54448D02*
X54510Y54448D01*
X54510Y55417D02*
X59490Y55417D01*
X59490Y56386D02*
X54510Y56386D01*
X54510Y57355D02*
X59490Y57355D01*
X54510Y47490D02*
X54510Y42510D01*
X54510Y47490D02*
X59490Y47490D01*
X59490Y42510D01*
X54510Y42510D01*
X54510Y43479D02*
X59490Y43479D01*
X59490Y44448D02*
X54510Y44448D01*
X54510Y45417D02*
X59490Y45417D01*
X59490Y46386D02*
X54510Y46386D01*
X54510Y47355D02*
X59490Y47355D01*
D13*
X4530Y111380D02*
X4530Y122420D01*
X23570Y122420D01*
X23570Y111380D01*
X4530Y111380D01*
X4530Y112292D02*
X23570Y112292D01*
X23570Y113204D02*
X4530Y113204D01*
X4530Y114116D02*
X23570Y114116D01*
X23570Y115028D02*
X4530Y115028D01*
X4530Y115940D02*
X23570Y115940D01*
X23570Y116852D02*
X4530Y116852D01*
X4530Y117764D02*
X23570Y117764D01*
X23570Y118676D02*
X4530Y118676D01*
X4530Y119588D02*
X23570Y119588D01*
X23570Y120500D02*
X4530Y120500D01*
X4530Y121412D02*
X23570Y121412D01*
X23570Y122324D02*
X4530Y122324D01*
X4530Y66420D02*
X4530Y55380D01*
X4530Y66420D02*
X23570Y66420D01*
X23570Y55380D01*
X4530Y55380D01*
X4530Y56292D02*
X23570Y56292D01*
X23570Y57204D02*
X4530Y57204D01*
X4530Y58116D02*
X23570Y58116D01*
X23570Y59028D02*
X4530Y59028D01*
X4530Y59940D02*
X23570Y59940D01*
X23570Y60852D02*
X4530Y60852D01*
X4530Y61764D02*
X23570Y61764D01*
X23570Y62676D02*
X4530Y62676D01*
X4530Y63588D02*
X23570Y63588D01*
X23570Y64500D02*
X4530Y64500D01*
X4530Y65412D02*
X23570Y65412D01*
X23570Y66324D02*
X4530Y66324D01*
D10*
X44560Y101410D02*
X44560Y106390D01*
X57040Y106390D01*
X57040Y101410D01*
X44560Y101410D01*
X44560Y102379D02*
X57040Y102379D01*
X57040Y103348D02*
X44560Y103348D01*
X44560Y104317D02*
X57040Y104317D01*
X57040Y105286D02*
X44560Y105286D01*
X44560Y106255D02*
X57040Y106255D01*
X44560Y96390D02*
X44560Y91410D01*
X44560Y96390D02*
X57040Y96390D01*
X57040Y91410D01*
X44560Y91410D01*
X44560Y92379D02*
X57040Y92379D01*
X57040Y93348D02*
X44560Y93348D01*
X44560Y94317D02*
X57040Y94317D01*
X57040Y95286D02*
X44560Y95286D01*
X44560Y96255D02*
X57040Y96255D01*
X44560Y86390D02*
X44560Y81410D01*
X44560Y86390D02*
X57040Y86390D01*
X57040Y81410D01*
X44560Y81410D01*
X44560Y82379D02*
X57040Y82379D01*
X57040Y83348D02*
X44560Y83348D01*
X44560Y84317D02*
X57040Y84317D01*
X57040Y85286D02*
X44560Y85286D01*
X44560Y86255D02*
X57040Y86255D01*
X44560Y76390D02*
X44560Y71410D01*
X44560Y76390D02*
X57040Y76390D01*
X57040Y71410D01*
X44560Y71410D01*
X44560Y72379D02*
X57040Y72379D01*
X57040Y73348D02*
X44560Y73348D01*
X44560Y74317D02*
X57040Y74317D01*
X57040Y75286D02*
X44560Y75286D01*
X44560Y76255D02*
X57040Y76255D01*
D12*
X56800Y662300D02*
X56800Y671300D01*
X56800Y662300D02*
X46800Y662300D01*
X46800Y671300D01*
X56800Y671300D01*
X56800Y663250D02*
X46800Y663250D01*
X46800Y664200D02*
X56800Y664200D01*
X56800Y665150D02*
X46800Y665150D01*
X46800Y666100D02*
X56800Y666100D01*
X56800Y667050D02*
X46800Y667050D01*
X46800Y668000D02*
X56800Y668000D01*
X56800Y668950D02*
X46800Y668950D01*
X46800Y669900D02*
X56800Y669900D01*
X56800Y670850D02*
X46800Y670850D01*
X66300Y656300D02*
X66300Y647300D01*
X47300Y647300D01*
X47300Y656300D01*
X66300Y656300D01*
X66300Y648250D02*
X47300Y648250D01*
X47300Y649200D02*
X66300Y649200D01*
X66300Y650150D02*
X47300Y650150D01*
X47300Y651100D02*
X66300Y651100D01*
X66300Y652050D02*
X47300Y652050D01*
X47300Y653000D02*
X66300Y653000D01*
X66300Y653950D02*
X47300Y653950D01*
X47300Y654900D02*
X66300Y654900D01*
X66300Y655850D02*
X47300Y655850D01*
X66300Y641300D02*
X66300Y632300D01*
X47300Y632300D01*
X47300Y641300D01*
X66300Y641300D01*
X66300Y633250D02*
X47300Y633250D01*
X47300Y634200D02*
X66300Y634200D01*
X66300Y635150D02*
X47300Y635150D01*
X47300Y636100D02*
X66300Y636100D01*
X66300Y637050D02*
X47300Y637050D01*
X47300Y638000D02*
X66300Y638000D01*
X66300Y638950D02*
X47300Y638950D01*
X47300Y639900D02*
X66300Y639900D01*
X66300Y640850D02*
X47300Y640850D01*
X66300Y626300D02*
X66300Y617300D01*
X47300Y617300D01*
X47300Y626300D01*
X66300Y626300D01*
X66300Y618250D02*
X47300Y618250D01*
X47300Y619200D02*
X66300Y619200D01*
X66300Y620150D02*
X47300Y620150D01*
X47300Y621100D02*
X66300Y621100D01*
X66300Y622050D02*
X47300Y622050D01*
X47300Y623000D02*
X66300Y623000D01*
X66300Y623950D02*
X47300Y623950D01*
X47300Y624900D02*
X66300Y624900D01*
X66300Y625850D02*
X47300Y625850D01*
X66300Y611300D02*
X66300Y602300D01*
X47300Y602300D01*
X47300Y611300D01*
X66300Y611300D01*
X66300Y603250D02*
X47300Y603250D01*
X47300Y604200D02*
X66300Y604200D01*
X66300Y605150D02*
X47300Y605150D01*
X47300Y606100D02*
X66300Y606100D01*
X66300Y607050D02*
X47300Y607050D01*
X47300Y608000D02*
X66300Y608000D01*
X66300Y608950D02*
X47300Y608950D01*
X47300Y609900D02*
X66300Y609900D01*
X66300Y610850D02*
X47300Y610850D01*
X72300Y598800D02*
X81300Y598800D01*
X81300Y579800D01*
X72300Y579800D01*
X72300Y598800D01*
X72300Y580750D02*
X81300Y580750D01*
X81300Y581700D02*
X72300Y581700D01*
X72300Y582650D02*
X81300Y582650D01*
X81300Y583600D02*
X72300Y583600D01*
X72300Y584550D02*
X81300Y584550D01*
X81300Y585500D02*
X72300Y585500D01*
X72300Y586450D02*
X81300Y586450D01*
X81300Y587400D02*
X72300Y587400D01*
X72300Y588350D02*
X81300Y588350D01*
X81300Y589300D02*
X72300Y589300D01*
X72300Y590250D02*
X81300Y590250D01*
X81300Y591200D02*
X72300Y591200D01*
X72300Y592150D02*
X81300Y592150D01*
X81300Y593100D02*
X72300Y593100D01*
X72300Y594050D02*
X81300Y594050D01*
X81300Y595000D02*
X72300Y595000D01*
X72300Y595950D02*
X81300Y595950D01*
X81300Y596900D02*
X72300Y596900D01*
X72300Y597850D02*
X81300Y597850D01*
X81300Y598800D02*
X72300Y598800D01*
X87300Y598800D02*
X96300Y598800D01*
X96300Y579800D01*
X87300Y579800D01*
X87300Y598800D01*
X87300Y580750D02*
X96300Y580750D01*
X96300Y581700D02*
X87300Y581700D01*
X87300Y582650D02*
X96300Y582650D01*
X96300Y583600D02*
X87300Y583600D01*
X87300Y584550D02*
X96300Y584550D01*
X96300Y585500D02*
X87300Y585500D01*
X87300Y586450D02*
X96300Y586450D01*
X96300Y587400D02*
X87300Y587400D01*
X87300Y588350D02*
X96300Y588350D01*
X96300Y589300D02*
X87300Y589300D01*
X87300Y590250D02*
X96300Y590250D01*
X96300Y591200D02*
X87300Y591200D01*
X87300Y592150D02*
X96300Y592150D01*
X96300Y593100D02*
X87300Y593100D01*
X87300Y594050D02*
X96300Y594050D01*
X96300Y595000D02*
X87300Y595000D01*
X87300Y595950D02*
X96300Y595950D01*
X96300Y596900D02*
X87300Y596900D01*
X87300Y597850D02*
X96300Y597850D01*
X96300Y598800D02*
X87300Y598800D01*
X102300Y598800D02*
X111300Y598800D01*
X111300Y579800D01*
X102300Y579800D01*
X102300Y598800D01*
X102300Y580750D02*
X111300Y580750D01*
X111300Y581700D02*
X102300Y581700D01*
X102300Y582650D02*
X111300Y582650D01*
X111300Y583600D02*
X102300Y583600D01*
X102300Y584550D02*
X111300Y584550D01*
X111300Y585500D02*
X102300Y585500D01*
X102300Y586450D02*
X111300Y586450D01*
X111300Y587400D02*
X102300Y587400D01*
X102300Y588350D02*
X111300Y588350D01*
X111300Y589300D02*
X102300Y589300D01*
X102300Y590250D02*
X111300Y590250D01*
X111300Y591200D02*
X102300Y591200D01*
X102300Y592150D02*
X111300Y592150D01*
X111300Y593100D02*
X102300Y593100D01*
X102300Y594050D02*
X111300Y594050D01*
X111300Y595000D02*
X102300Y595000D01*
X102300Y595950D02*
X111300Y595950D01*
X111300Y596900D02*
X102300Y596900D01*
X102300Y597850D02*
X111300Y597850D01*
X111300Y598800D02*
X102300Y598800D01*
X117300Y598800D02*
X126300Y598800D01*
X126300Y579800D01*
X117300Y579800D01*
X117300Y598800D01*
X117300Y580750D02*
X126300Y580750D01*
X126300Y581700D02*
X117300Y581700D01*
X117300Y582650D02*
X126300Y582650D01*
X126300Y583600D02*
X117300Y583600D01*
X117300Y584550D02*
X126300Y584550D01*
X126300Y585500D02*
X117300Y585500D01*
X117300Y586450D02*
X126300Y586450D01*
X126300Y587400D02*
X117300Y587400D01*
X117300Y588350D02*
X126300Y588350D01*
X126300Y589300D02*
X117300Y589300D01*
X117300Y590250D02*
X126300Y590250D01*
X126300Y591200D02*
X117300Y591200D01*
X117300Y592150D02*
X126300Y592150D01*
X126300Y593100D02*
X117300Y593100D01*
X117300Y594050D02*
X126300Y594050D01*
X126300Y595000D02*
X117300Y595000D01*
X117300Y595950D02*
X126300Y595950D01*
X126300Y596900D02*
X117300Y596900D01*
X117300Y597850D02*
X126300Y597850D01*
X126300Y598800D02*
X117300Y598800D01*
X132300Y598800D02*
X141300Y598800D01*
X141300Y579800D01*
X132300Y579800D01*
X132300Y598800D01*
X132300Y580750D02*
X141300Y580750D01*
X141300Y581700D02*
X132300Y581700D01*
X132300Y582650D02*
X141300Y582650D01*
X141300Y583600D02*
X132300Y583600D01*
X132300Y584550D02*
X141300Y584550D01*
X141300Y585500D02*
X132300Y585500D01*
X132300Y586450D02*
X141300Y586450D01*
X141300Y587400D02*
X132300Y587400D01*
X132300Y588350D02*
X141300Y588350D01*
X141300Y589300D02*
X132300Y589300D01*
X132300Y590250D02*
X141300Y590250D01*
X141300Y591200D02*
X132300Y591200D01*
X132300Y592150D02*
X141300Y592150D01*
X141300Y593100D02*
X132300Y593100D01*
X132300Y594050D02*
X141300Y594050D01*
X141300Y595000D02*
X132300Y595000D01*
X132300Y595950D02*
X141300Y595950D01*
X141300Y596900D02*
X132300Y596900D01*
X132300Y597850D02*
X141300Y597850D01*
X141300Y598800D02*
X132300Y598800D01*
X147300Y598800D02*
X156300Y598800D01*
X156300Y579800D01*
X147300Y579800D01*
X147300Y598800D01*
X147300Y580750D02*
X156300Y580750D01*
X156300Y581700D02*
X147300Y581700D01*
X147300Y582650D02*
X156300Y582650D01*
X156300Y583600D02*
X147300Y583600D01*
X147300Y584550D02*
X156300Y584550D01*
X156300Y585500D02*
X147300Y585500D01*
X147300Y586450D02*
X156300Y586450D01*
X156300Y587400D02*
X147300Y587400D01*
X147300Y588350D02*
X156300Y588350D01*
X156300Y589300D02*
X147300Y589300D01*
X147300Y590250D02*
X156300Y590250D01*
X156300Y591200D02*
X147300Y591200D01*
X147300Y592150D02*
X156300Y592150D01*
X156300Y593100D02*
X147300Y593100D01*
X147300Y594050D02*
X156300Y594050D01*
X156300Y595000D02*
X147300Y595000D01*
X147300Y595950D02*
X156300Y595950D01*
X156300Y596900D02*
X147300Y596900D01*
X147300Y597850D02*
X156300Y597850D01*
X156300Y598800D02*
X147300Y598800D01*
X162300Y602300D02*
X162300Y611300D01*
X181300Y611300D01*
X181300Y602300D01*
X162300Y602300D01*
X162300Y603250D02*
X181300Y603250D01*
X181300Y604200D02*
X162300Y604200D01*
X162300Y605150D02*
X181300Y605150D01*
X181300Y606100D02*
X162300Y606100D01*
X162300Y607050D02*
X181300Y607050D01*
X181300Y608000D02*
X162300Y608000D01*
X162300Y608950D02*
X181300Y608950D01*
X181300Y609900D02*
X162300Y609900D01*
X162300Y610850D02*
X181300Y610850D01*
X162300Y617300D02*
X162300Y626300D01*
X181300Y626300D01*
X181300Y617300D01*
X162300Y617300D01*
X162300Y618250D02*
X181300Y618250D01*
X181300Y619200D02*
X162300Y619200D01*
X162300Y620150D02*
X181300Y620150D01*
X181300Y621100D02*
X162300Y621100D01*
X162300Y622050D02*
X181300Y622050D01*
X181300Y623000D02*
X162300Y623000D01*
X162300Y623950D02*
X181300Y623950D01*
X181300Y624900D02*
X162300Y624900D01*
X162300Y625850D02*
X181300Y625850D01*
X162300Y632300D02*
X162300Y641300D01*
X181300Y641300D01*
X181300Y632300D01*
X162300Y632300D01*
X162300Y633250D02*
X181300Y633250D01*
X181300Y634200D02*
X162300Y634200D01*
X162300Y635150D02*
X181300Y635150D01*
X181300Y636100D02*
X162300Y636100D01*
X162300Y637050D02*
X181300Y637050D01*
X181300Y638000D02*
X162300Y638000D01*
X162300Y638950D02*
X181300Y638950D01*
X181300Y639900D02*
X162300Y639900D01*
X162300Y640850D02*
X181300Y640850D01*
X162300Y647300D02*
X162300Y656300D01*
X181300Y656300D01*
X181300Y647300D01*
X162300Y647300D01*
X162300Y648250D02*
X181300Y648250D01*
X181300Y649200D02*
X162300Y649200D01*
X162300Y650150D02*
X181300Y650150D01*
X181300Y651100D02*
X162300Y651100D01*
X162300Y652050D02*
X181300Y652050D01*
X181300Y653000D02*
X162300Y653000D01*
X162300Y653950D02*
X181300Y653950D01*
X181300Y654900D02*
X162300Y654900D01*
X162300Y655850D02*
X181300Y655850D01*
X162300Y662300D02*
X162300Y671300D01*
X181300Y671300D01*
X181300Y662300D01*
X162300Y662300D01*
X162300Y663250D02*
X181300Y663250D01*
X181300Y664200D02*
X162300Y664200D01*
X162300Y665150D02*
X181300Y665150D01*
X181300Y666100D02*
X162300Y666100D01*
X162300Y667050D02*
X181300Y667050D01*
X181300Y668000D02*
X162300Y668000D01*
X162300Y668950D02*
X181300Y668950D01*
X181300Y669900D02*
X162300Y669900D01*
X162300Y670850D02*
X181300Y670850D01*
D15*
X54300Y328750D03*
X59300Y328750D03*
X64300Y328750D03*
X69300Y328750D03*
X74300Y328750D03*
X79300Y328750D03*
X84300Y328750D03*
X89300Y328750D03*
X94300Y328750D03*
X99300Y328750D03*
X104300Y328750D03*
X109300Y328750D03*
X114300Y328750D03*
X119300Y328750D03*
X124300Y328750D03*
X129300Y328750D03*
X134300Y328750D03*
X139300Y328750D03*
X144300Y328750D03*
X149300Y328750D03*
X154300Y328750D03*
X159300Y328750D03*
X164300Y328750D03*
X169300Y328750D03*
X174300Y328750D03*
D16*
X190550Y345000D03*
X190550Y350000D03*
X190550Y355000D03*
X190550Y360000D03*
X190550Y365000D03*
X190550Y370000D03*
X190550Y375000D03*
X190550Y380000D03*
X190550Y385000D03*
X190550Y390000D03*
X190550Y395000D03*
X190550Y400000D03*
X190550Y405000D03*
X190550Y410000D03*
X190550Y415000D03*
X190550Y420000D03*
X190550Y425000D03*
X190550Y430000D03*
X190550Y435000D03*
X190550Y440000D03*
X190550Y445000D03*
X190550Y450000D03*
X190550Y455000D03*
X190550Y460000D03*
X190550Y465000D03*
D15*
X174300Y481250D03*
X169300Y481250D03*
X164300Y481250D03*
X159300Y481250D03*
X154300Y481250D03*
X149300Y481250D03*
X144300Y481250D03*
X139300Y481250D03*
X134300Y481250D03*
X129300Y481250D03*
X124300Y481250D03*
X119300Y481250D03*
X114300Y481250D03*
X109300Y481250D03*
X104300Y481250D03*
X99300Y481250D03*
X94300Y481250D03*
X89300Y481250D03*
X84300Y481250D03*
X79300Y481250D03*
X74300Y481250D03*
X69300Y481250D03*
X64300Y481250D03*
X59300Y481250D03*
X54300Y481250D03*
D16*
X38050Y465000D03*
X38050Y460000D03*
X38050Y455000D03*
X38050Y450000D03*
X38050Y445000D03*
X38050Y440000D03*
X38050Y435000D03*
X38050Y430000D03*
X38050Y425000D03*
X38050Y420000D03*
X38050Y415000D03*
X38050Y410000D03*
X38050Y405000D03*
X38050Y400000D03*
X38050Y395000D03*
X38050Y390000D03*
X38050Y385000D03*
X38050Y380000D03*
X38050Y375000D03*
X38050Y370000D03*
X38050Y365000D03*
X38050Y360000D03*
X38050Y355000D03*
X38050Y350000D03*
X38050Y345000D03*
D12*
X49969Y285011D02*
X56333Y278647D01*
X49969Y285011D02*
X61989Y297031D01*
X68353Y290667D01*
X56333Y278647D01*
X57283Y279597D02*
X55383Y279597D01*
X54433Y280547D02*
X58233Y280547D01*
X59183Y281497D02*
X53483Y281497D01*
X52533Y282447D02*
X60133Y282447D01*
X61083Y283397D02*
X51583Y283397D01*
X50633Y284347D02*
X62033Y284347D01*
X62983Y285297D02*
X50255Y285297D01*
X51205Y286247D02*
X63933Y286247D01*
X64883Y287197D02*
X52155Y287197D01*
X53105Y288147D02*
X65833Y288147D01*
X66783Y289097D02*
X54055Y289097D01*
X55005Y290047D02*
X67733Y290047D01*
X68023Y290997D02*
X55955Y290997D01*
X56905Y291947D02*
X67073Y291947D01*
X66123Y292897D02*
X57855Y292897D01*
X58805Y293847D02*
X65173Y293847D01*
X64223Y294797D02*
X59755Y294797D01*
X60705Y295747D02*
X63273Y295747D01*
X62323Y296697D02*
X61655Y296697D01*
X67647Y267333D02*
X74011Y260969D01*
X67647Y267333D02*
X79667Y279353D01*
X86031Y272989D01*
X74011Y260969D01*
X74961Y261919D02*
X73061Y261919D01*
X72111Y262869D02*
X75911Y262869D01*
X76861Y263819D02*
X71161Y263819D01*
X70211Y264769D02*
X77811Y264769D01*
X78761Y265719D02*
X69261Y265719D01*
X68311Y266669D02*
X79711Y266669D01*
X80661Y267619D02*
X67933Y267619D01*
X68883Y268569D02*
X81611Y268569D01*
X82561Y269519D02*
X69833Y269519D01*
X70783Y270469D02*
X83511Y270469D01*
X84461Y271419D02*
X71733Y271419D01*
X72683Y272369D02*
X85411Y272369D01*
X85701Y273319D02*
X73633Y273319D01*
X74583Y274269D02*
X84751Y274269D01*
X83801Y275219D02*
X75533Y275219D01*
X76483Y276169D02*
X82851Y276169D01*
X81901Y277119D02*
X77433Y277119D01*
X78383Y278069D02*
X80951Y278069D01*
X80001Y279019D02*
X79333Y279019D01*
D10*
X80057Y294464D02*
X76536Y297985D01*
X80057Y294464D02*
X76536Y290943D01*
X73015Y294464D01*
X76536Y297985D01*
X77505Y291912D02*
X75567Y291912D01*
X74598Y292881D02*
X78474Y292881D01*
X79443Y293850D02*
X73629Y293850D01*
X73370Y294819D02*
X79702Y294819D01*
X78733Y295788D02*
X74339Y295788D01*
X75308Y296757D02*
X77764Y296757D01*
X76795Y297726D02*
X76277Y297726D01*
X72985Y301536D02*
X69464Y305057D01*
X72985Y301536D02*
X69464Y298015D01*
X65943Y301536D01*
X69464Y305057D01*
X70433Y298984D02*
X68495Y298984D01*
X67526Y299953D02*
X71402Y299953D01*
X72371Y300922D02*
X66557Y300922D01*
X66298Y301891D02*
X72630Y301891D01*
X71661Y302860D02*
X67267Y302860D01*
X68236Y303829D02*
X70692Y303829D01*
X69723Y304798D02*
X69205Y304798D01*
X79943Y287536D02*
X83464Y284015D01*
X79943Y287536D02*
X83464Y291057D01*
X86985Y287536D01*
X83464Y284015D01*
X84433Y284984D02*
X82495Y284984D01*
X81526Y285953D02*
X85402Y285953D01*
X86371Y286922D02*
X80557Y286922D01*
X80298Y287891D02*
X86630Y287891D01*
X85661Y288860D02*
X81267Y288860D01*
X82236Y289829D02*
X84692Y289829D01*
X83723Y290798D02*
X83205Y290798D01*
X87015Y280464D02*
X90536Y276943D01*
X87015Y280464D02*
X90536Y283985D01*
X94057Y280464D01*
X90536Y276943D01*
X91505Y277912D02*
X89567Y277912D01*
X88598Y278881D02*
X92474Y278881D01*
X93443Y279850D02*
X87629Y279850D01*
X87370Y280819D02*
X93702Y280819D01*
X92733Y281788D02*
X88339Y281788D01*
X89308Y282757D02*
X91764Y282757D01*
X90795Y283726D02*
X90277Y283726D01*
D17*
X143983Y291375D02*
X153181Y300573D01*
X160259Y293495D01*
X151061Y284297D01*
X143983Y291375D01*
X150121Y285237D02*
X152001Y285237D01*
X152941Y286177D02*
X149181Y286177D01*
X148241Y287117D02*
X153881Y287117D01*
X154821Y288057D02*
X147301Y288057D01*
X146361Y288997D02*
X155761Y288997D01*
X156701Y289937D02*
X145421Y289937D01*
X144481Y290877D02*
X157641Y290877D01*
X158581Y291817D02*
X144425Y291817D01*
X145365Y292757D02*
X159521Y292757D01*
X160057Y293697D02*
X146305Y293697D01*
X147245Y294637D02*
X159117Y294637D01*
X158177Y295577D02*
X148185Y295577D01*
X149125Y296517D02*
X157237Y296517D01*
X156297Y297457D02*
X150065Y297457D01*
X151005Y298397D02*
X155357Y298397D01*
X154417Y299337D02*
X151945Y299337D01*
X152885Y300277D02*
X153477Y300277D01*
X137625Y285017D02*
X128427Y275819D01*
X137625Y285017D02*
X144703Y277939D01*
X135505Y268741D01*
X128427Y275819D01*
X134565Y269681D02*
X136445Y269681D01*
X137385Y270621D02*
X133625Y270621D01*
X132685Y271561D02*
X138325Y271561D01*
X139265Y272501D02*
X131745Y272501D01*
X130805Y273441D02*
X140205Y273441D01*
X141145Y274381D02*
X129865Y274381D01*
X128925Y275321D02*
X142085Y275321D01*
X143025Y276261D02*
X128869Y276261D01*
X129809Y277201D02*
X143965Y277201D01*
X144501Y278141D02*
X130749Y278141D01*
X131689Y279081D02*
X143561Y279081D01*
X142621Y280021D02*
X132629Y280021D01*
X133569Y280961D02*
X141681Y280961D01*
X140741Y281901D02*
X134509Y281901D01*
X135449Y282841D02*
X139801Y282841D01*
X138861Y283781D02*
X136389Y283781D01*
X137329Y284721D02*
X137921Y284721D01*
X148939Y273703D02*
X139741Y264505D01*
X148939Y273703D02*
X156017Y266625D01*
X146819Y257427D01*
X139741Y264505D01*
X145879Y258367D02*
X147759Y258367D01*
X148699Y259307D02*
X144939Y259307D01*
X143999Y260247D02*
X149639Y260247D01*
X150579Y261187D02*
X143059Y261187D01*
X142119Y262127D02*
X151519Y262127D01*
X152459Y263067D02*
X141179Y263067D01*
X140239Y264007D02*
X153399Y264007D01*
X154339Y264947D02*
X140183Y264947D01*
X141123Y265887D02*
X155279Y265887D01*
X155815Y266827D02*
X142063Y266827D01*
X143003Y267767D02*
X154875Y267767D01*
X153935Y268707D02*
X143943Y268707D01*
X144883Y269647D02*
X152995Y269647D01*
X152055Y270587D02*
X145823Y270587D01*
X146763Y271527D02*
X151115Y271527D01*
X150175Y272467D02*
X147703Y272467D01*
X148643Y273407D02*
X149235Y273407D01*
X155297Y280061D02*
X164495Y289259D01*
X171573Y282181D01*
X162375Y272983D01*
X155297Y280061D01*
X161435Y273923D02*
X163315Y273923D01*
X164255Y274863D02*
X160495Y274863D01*
X159555Y275803D02*
X165195Y275803D01*
X166135Y276743D02*
X158615Y276743D01*
X157675Y277683D02*
X167075Y277683D01*
X168015Y278623D02*
X156735Y278623D01*
X155795Y279563D02*
X168955Y279563D01*
X169895Y280503D02*
X155739Y280503D01*
X156679Y281443D02*
X170835Y281443D01*
X171371Y282383D02*
X157619Y282383D01*
X158559Y283323D02*
X170431Y283323D01*
X169491Y284263D02*
X159499Y284263D01*
X160439Y285203D02*
X168551Y285203D01*
X167611Y286143D02*
X161379Y286143D01*
X162319Y287083D02*
X166671Y287083D01*
X165731Y288023D02*
X163259Y288023D01*
X164199Y288963D02*
X164791Y288963D01*
X167505Y118505D02*
X167505Y110495D01*
X158495Y110495D01*
X158495Y118505D01*
X167505Y118505D01*
X167505Y111435D02*
X158495Y111435D01*
X158495Y112375D02*
X167505Y112375D01*
X167505Y113315D02*
X158495Y113315D01*
X158495Y114255D02*
X167505Y114255D01*
X167505Y115195D02*
X158495Y115195D01*
X158495Y116135D02*
X167505Y116135D01*
X167505Y117075D02*
X158495Y117075D01*
X158495Y118015D02*
X167505Y118015D01*
X183505Y118505D02*
X183505Y110495D01*
X174495Y110495D01*
X174495Y118505D01*
X183505Y118505D01*
X183505Y111435D02*
X174495Y111435D01*
X174495Y112375D02*
X183505Y112375D01*
X183505Y113315D02*
X174495Y113315D01*
X174495Y114255D02*
X183505Y114255D01*
X183505Y115195D02*
X174495Y115195D01*
X174495Y116135D02*
X183505Y116135D01*
X183505Y117075D02*
X174495Y117075D01*
X174495Y118015D02*
X183505Y118015D01*
X183505Y77505D02*
X183505Y69495D01*
X174495Y69495D01*
X174495Y77505D01*
X183505Y77505D01*
X183505Y70435D02*
X174495Y70435D01*
X174495Y71375D02*
X183505Y71375D01*
X183505Y72315D02*
X174495Y72315D01*
X174495Y73255D02*
X183505Y73255D01*
X183505Y74195D02*
X174495Y74195D01*
X174495Y75135D02*
X183505Y75135D01*
X183505Y76075D02*
X174495Y76075D01*
X174495Y77015D02*
X183505Y77015D01*
X167505Y77505D02*
X167505Y69495D01*
X158495Y69495D01*
X158495Y77505D01*
X167505Y77505D01*
X167505Y70435D02*
X158495Y70435D01*
X158495Y71375D02*
X167505Y71375D01*
X167505Y72315D02*
X158495Y72315D01*
X158495Y73255D02*
X167505Y73255D01*
X167505Y74195D02*
X158495Y74195D01*
X158495Y75135D02*
X167505Y75135D01*
X167505Y76075D02*
X158495Y76075D01*
X158495Y77015D02*
X167505Y77015D01*
X211495Y77505D02*
X211495Y69495D01*
X211495Y77505D02*
X220505Y77505D01*
X220505Y69495D01*
X211495Y69495D01*
X211495Y70435D02*
X220505Y70435D01*
X220505Y71375D02*
X211495Y71375D01*
X211495Y72315D02*
X220505Y72315D01*
X220505Y73255D02*
X211495Y73255D01*
X211495Y74195D02*
X220505Y74195D01*
X220505Y75135D02*
X211495Y75135D01*
X211495Y76075D02*
X220505Y76075D01*
X220505Y77015D02*
X211495Y77015D01*
X195495Y77505D02*
X195495Y69495D01*
X195495Y77505D02*
X204505Y77505D01*
X204505Y69495D01*
X195495Y69495D01*
X195495Y70435D02*
X204505Y70435D01*
X204505Y71375D02*
X195495Y71375D01*
X195495Y72315D02*
X204505Y72315D01*
X204505Y73255D02*
X195495Y73255D01*
X195495Y74195D02*
X204505Y74195D01*
X204505Y75135D02*
X195495Y75135D01*
X195495Y76075D02*
X204505Y76075D01*
X204505Y77015D02*
X195495Y77015D01*
X195495Y110495D02*
X195495Y118505D01*
X204505Y118505D01*
X204505Y110495D01*
X195495Y110495D01*
X195495Y111435D02*
X204505Y111435D01*
X204505Y112375D02*
X195495Y112375D01*
X195495Y113315D02*
X204505Y113315D01*
X204505Y114255D02*
X195495Y114255D01*
X195495Y115195D02*
X204505Y115195D01*
X204505Y116135D02*
X195495Y116135D01*
X195495Y117075D02*
X204505Y117075D01*
X204505Y118015D02*
X195495Y118015D01*
X211495Y118505D02*
X211495Y110495D01*
X211495Y118505D02*
X220505Y118505D01*
X220505Y110495D01*
X211495Y110495D01*
X211495Y111435D02*
X220505Y111435D01*
X220505Y112375D02*
X211495Y112375D01*
X211495Y113315D02*
X220505Y113315D01*
X220505Y114255D02*
X211495Y114255D01*
X211495Y115195D02*
X220505Y115195D01*
X220505Y116135D02*
X211495Y116135D01*
X211495Y117075D02*
X220505Y117075D01*
X220505Y118015D02*
X211495Y118015D01*
D14*
X16730Y622500D02*
X16730Y629500D01*
X16730Y622500D02*
X9730Y622500D01*
X9730Y629500D01*
X16730Y629500D01*
X16730Y625350D02*
X9730Y625350D01*
X9730Y628200D02*
X16730Y628200D01*
X34270Y629500D02*
X34270Y622500D01*
X27270Y622500D01*
X27270Y629500D01*
X34270Y629500D01*
X34270Y625350D02*
X27270Y625350D01*
X27270Y628200D02*
X34270Y628200D01*
D18*
X18475Y661175D02*
X18475Y667125D01*
X18475Y661175D02*
X12525Y661175D01*
X12525Y667125D01*
X18475Y667125D01*
X18475Y662172D02*
X12525Y662172D01*
X12525Y663169D02*
X18475Y663169D01*
X18475Y664166D02*
X12525Y664166D01*
X12525Y665163D02*
X18475Y665163D01*
X18475Y666160D02*
X12525Y666160D01*
X29475Y667125D02*
X29475Y661175D01*
X23525Y661175D01*
X23525Y667125D01*
X29475Y667125D01*
X29475Y662172D02*
X23525Y662172D01*
X23525Y663169D02*
X29475Y663169D01*
X29475Y664166D02*
X23525Y664166D01*
X23525Y665163D02*
X29475Y665163D01*
X29475Y666160D02*
X23525Y666160D01*
X29475Y648825D02*
X29475Y642875D01*
X23525Y642875D01*
X23525Y648825D01*
X29475Y648825D01*
X29475Y643872D02*
X23525Y643872D01*
X23525Y644869D02*
X29475Y644869D01*
X29475Y645866D02*
X23525Y645866D01*
X23525Y646863D02*
X29475Y646863D01*
X29475Y647860D02*
X23525Y647860D01*
X18475Y648825D02*
X18475Y642875D01*
X12525Y642875D01*
X12525Y648825D01*
X18475Y648825D01*
X18475Y643872D02*
X12525Y643872D01*
X12525Y644869D02*
X18475Y644869D01*
X18475Y645866D02*
X12525Y645866D01*
X12525Y646863D02*
X18475Y646863D01*
X18475Y647860D02*
X12525Y647860D01*
D14*
X16730Y602500D02*
X16730Y595500D01*
X9730Y595500D01*
X9730Y602500D01*
X16730Y602500D01*
X16730Y598350D02*
X9730Y598350D01*
X9730Y601200D02*
X16730Y601200D01*
X34270Y602500D02*
X34270Y595500D01*
X27270Y595500D01*
X27270Y602500D01*
X34270Y602500D01*
X34270Y598350D02*
X27270Y598350D01*
X27270Y601200D02*
X34270Y601200D01*
D19*
X76020Y133980D02*
X82980Y133980D01*
X82980Y123020D01*
X76020Y123020D01*
X76020Y133980D01*
X76020Y124008D02*
X82980Y124008D01*
X82980Y124996D02*
X76020Y124996D01*
X76020Y125984D02*
X82980Y125984D01*
X82980Y126972D02*
X76020Y126972D01*
X76020Y127960D02*
X82980Y127960D01*
X82980Y128948D02*
X76020Y128948D01*
X76020Y129936D02*
X82980Y129936D01*
X82980Y130924D02*
X76020Y130924D01*
X76020Y131912D02*
X82980Y131912D01*
X82980Y132900D02*
X76020Y132900D01*
X76020Y133888D02*
X82980Y133888D01*
X64980Y133980D02*
X58020Y133980D01*
X64980Y133980D02*
X64980Y123020D01*
X58020Y123020D01*
X58020Y133980D01*
X58020Y124008D02*
X64980Y124008D01*
X64980Y124996D02*
X58020Y124996D01*
X58020Y125984D02*
X64980Y125984D01*
X64980Y126972D02*
X58020Y126972D01*
X58020Y127960D02*
X64980Y127960D01*
X64980Y128948D02*
X58020Y128948D01*
X58020Y129936D02*
X64980Y129936D01*
X64980Y130924D02*
X58020Y130924D01*
X58020Y131912D02*
X64980Y131912D01*
X64980Y132900D02*
X58020Y132900D01*
X58020Y133888D02*
X64980Y133888D01*
X95020Y112980D02*
X101980Y112980D01*
X101980Y105020D01*
X95020Y105020D01*
X95020Y112980D01*
X95020Y106008D02*
X101980Y106008D01*
X101980Y106996D02*
X95020Y106996D01*
X95020Y107984D02*
X101980Y107984D01*
X101980Y108972D02*
X95020Y108972D01*
X95020Y109960D02*
X101980Y109960D01*
X101980Y110948D02*
X95020Y110948D01*
X95020Y111936D02*
X101980Y111936D01*
X101980Y112924D02*
X95020Y112924D01*
X82980Y112980D02*
X76020Y112980D01*
X82980Y112980D02*
X82980Y105020D01*
X76020Y105020D01*
X76020Y112980D01*
X76020Y106008D02*
X82980Y106008D01*
X82980Y106996D02*
X76020Y106996D01*
X76020Y107984D02*
X82980Y107984D01*
X82980Y108972D02*
X76020Y108972D01*
X76020Y109960D02*
X82980Y109960D01*
X82980Y110948D02*
X76020Y110948D01*
X76020Y111936D02*
X82980Y111936D01*
X82980Y112924D02*
X76020Y112924D01*
X85520Y91980D02*
X92480Y91980D01*
X92480Y84020D01*
X85520Y84020D01*
X85520Y91980D01*
X85520Y85008D02*
X92480Y85008D01*
X92480Y85996D02*
X85520Y85996D01*
X85520Y86984D02*
X92480Y86984D01*
X92480Y87972D02*
X85520Y87972D01*
X85520Y88960D02*
X92480Y88960D01*
X92480Y89948D02*
X85520Y89948D01*
X85520Y90936D02*
X92480Y90936D01*
X92480Y91924D02*
X85520Y91924D01*
D10*
X96010Y128510D02*
X96010Y133490D01*
X100990Y133490D01*
X100990Y128510D01*
X96010Y128510D01*
X96010Y129479D02*
X100990Y129479D01*
X100990Y130448D02*
X96010Y130448D01*
X96010Y131417D02*
X100990Y131417D01*
X100990Y132386D02*
X96010Y132386D01*
X96010Y133355D02*
X100990Y133355D01*
X96010Y123490D02*
X96010Y118510D01*
X96010Y123490D02*
X100990Y123490D01*
X100990Y118510D01*
X96010Y118510D01*
X96010Y119479D02*
X100990Y119479D01*
X100990Y120448D02*
X96010Y120448D01*
X96010Y121417D02*
X100990Y121417D01*
X100990Y122386D02*
X96010Y122386D01*
X96010Y123355D02*
X100990Y123355D01*
X88990Y79490D02*
X84010Y79490D01*
X88990Y79490D02*
X88990Y74510D01*
X84010Y74510D01*
X84010Y79490D01*
X84010Y75479D02*
X88990Y75479D01*
X88990Y76448D02*
X84010Y76448D01*
X84010Y77417D02*
X88990Y77417D01*
X88990Y78386D02*
X84010Y78386D01*
X84010Y79355D02*
X88990Y79355D01*
X78990Y79490D02*
X74010Y79490D01*
X78990Y79490D02*
X78990Y74510D01*
X74010Y74510D01*
X74010Y79490D01*
X74010Y75479D02*
X78990Y75479D01*
X78990Y76448D02*
X74010Y76448D01*
X74010Y77417D02*
X78990Y77417D01*
X78990Y78386D02*
X74010Y78386D01*
X74010Y79355D02*
X78990Y79355D01*
M02*
