G04 EAGLE Gerber RS-274X export*
G75*
%MOMM*%
%FSLAX34Y34*%
%LPD*%
%INSoldermask Bottom*%
%IPPOS*%
%AMOC8*
5,1,8,0,0,1.08239X$1,22.5*%
G01*
%ADD10C,2.006600*%
%ADD11C,0.777000*%
%ADD12C,0.223409*%
%ADD13C,0.225369*%
%ADD14C,0.228344*%
%ADD15R,0.440000X0.840000*%
%ADD16R,1.520000X0.940000*%
%ADD17C,3.175000*%
%ADD18C,0.762000*%
%ADD19C,0.225719*%
%ADD20C,0.228688*%
%ADD21C,0.235400*%
%ADD22C,1.397000*%
%ADD23C,0.231750*%
%ADD24C,0.230800*%
%ADD25C,1.143000*%
%ADD26C,0.889000*%
%ADD27R,0.400000X0.770000*%

G36*
X128016Y526506D02*
X128016Y526506D01*
X128033Y526503D01*
X128083Y526525D01*
X128134Y526540D01*
X128145Y526553D01*
X128161Y526560D01*
X128191Y526605D01*
X128226Y526645D01*
X128229Y526662D01*
X128238Y526677D01*
X128249Y526750D01*
X128249Y569000D01*
X128244Y569016D01*
X128247Y569033D01*
X128225Y569083D01*
X128210Y569134D01*
X128197Y569145D01*
X128190Y569161D01*
X128145Y569191D01*
X128105Y569226D01*
X128088Y569229D01*
X128074Y569238D01*
X128000Y569249D01*
X92000Y569249D01*
X91984Y569244D01*
X91967Y569247D01*
X91917Y569225D01*
X91866Y569210D01*
X91855Y569197D01*
X91839Y569190D01*
X91809Y569145D01*
X91774Y569105D01*
X91771Y569088D01*
X91762Y569074D01*
X91751Y569000D01*
X91751Y533250D01*
X91768Y533192D01*
X91780Y533134D01*
X91788Y533122D01*
X91790Y533116D01*
X91798Y533109D01*
X91824Y533074D01*
X98324Y526574D01*
X98376Y526545D01*
X98427Y526512D01*
X98441Y526510D01*
X98446Y526507D01*
X98457Y526507D01*
X98500Y526501D01*
X128000Y526501D01*
X128016Y526506D01*
G37*
G36*
X122605Y391722D02*
X122605Y391722D01*
X122631Y391723D01*
X122685Y391753D01*
X122743Y391775D01*
X122760Y391794D01*
X122783Y391806D01*
X122818Y391857D01*
X122860Y391902D01*
X122868Y391927D01*
X122883Y391948D01*
X122899Y392032D01*
X122910Y392068D01*
X122908Y392078D01*
X122910Y392090D01*
X122910Y405790D01*
X122906Y405810D01*
X122907Y405837D01*
X122807Y406637D01*
X122799Y406661D01*
X122796Y406694D01*
X122596Y407394D01*
X122577Y407428D01*
X122556Y407486D01*
X121956Y408486D01*
X121936Y408506D01*
X121868Y408587D01*
X121368Y408987D01*
X121363Y408989D01*
X121358Y408994D01*
X120958Y409294D01*
X120923Y409309D01*
X120871Y409343D01*
X120371Y409543D01*
X120342Y409547D01*
X120305Y409563D01*
X119805Y409663D01*
X119799Y409663D01*
X119793Y409665D01*
X119193Y409765D01*
X119166Y409763D01*
X119130Y409770D01*
X117930Y409770D01*
X117915Y409767D01*
X117900Y409769D01*
X117768Y409732D01*
X117761Y409731D01*
X117761Y409730D01*
X117760Y409730D01*
X117384Y409542D01*
X117360Y409530D01*
X117341Y409514D01*
X117317Y409505D01*
X117275Y409459D01*
X117227Y409419D01*
X117217Y409397D01*
X117200Y409378D01*
X117182Y409318D01*
X117156Y409261D01*
X117158Y409236D01*
X117150Y409212D01*
X117161Y409150D01*
X117164Y409088D01*
X117176Y409066D01*
X117180Y409041D01*
X117229Y408968D01*
X117247Y408936D01*
X117255Y408931D01*
X117261Y408921D01*
X117361Y408821D01*
X117393Y408801D01*
X117460Y408750D01*
X117860Y408550D01*
X117883Y408544D01*
X117910Y408529D01*
X118125Y408458D01*
X118598Y407985D01*
X118650Y407828D01*
X118650Y407552D01*
X118585Y407359D01*
X118435Y407132D01*
X117916Y406614D01*
X117521Y406456D01*
X117092Y406370D01*
X116377Y406370D01*
X115686Y406543D01*
X115190Y406874D01*
X114869Y407275D01*
X114710Y407752D01*
X114710Y408321D01*
X114957Y408979D01*
X115599Y409621D01*
X115604Y409630D01*
X115614Y409637D01*
X116414Y410537D01*
X116415Y410539D01*
X116416Y410540D01*
X117116Y411340D01*
X117132Y411369D01*
X117162Y411405D01*
X117662Y412305D01*
X117673Y412343D01*
X117701Y412408D01*
X117901Y413308D01*
X117901Y413310D01*
X117902Y413312D01*
X117901Y413341D01*
X117910Y413390D01*
X117910Y414190D01*
X117902Y414227D01*
X117891Y414310D01*
X117591Y415210D01*
X117572Y415241D01*
X117552Y415292D01*
X117052Y416092D01*
X117031Y416113D01*
X116963Y416190D01*
X116063Y416890D01*
X116039Y416901D01*
X116012Y416924D01*
X114912Y417524D01*
X114893Y417529D01*
X114879Y417539D01*
X114846Y417546D01*
X114798Y417564D01*
X113698Y417764D01*
X113669Y417763D01*
X113630Y417770D01*
X112630Y417770D01*
X112597Y417763D01*
X112548Y417761D01*
X111648Y417561D01*
X111615Y417545D01*
X111560Y417530D01*
X111554Y417527D01*
X110794Y417147D01*
X110160Y416830D01*
X110138Y416812D01*
X110102Y416794D01*
X109702Y416494D01*
X109687Y416476D01*
X109661Y416459D01*
X109561Y416359D01*
X109548Y416337D01*
X109528Y416321D01*
X109502Y416264D01*
X109470Y416212D01*
X109467Y416186D01*
X109457Y416162D01*
X109459Y416101D01*
X109453Y416039D01*
X109462Y416015D01*
X109463Y415989D01*
X109493Y415935D01*
X109515Y415877D01*
X109534Y415860D01*
X109546Y415837D01*
X109597Y415802D01*
X109642Y415760D01*
X109667Y415752D01*
X109688Y415737D01*
X109772Y415721D01*
X109808Y415710D01*
X109818Y415712D01*
X109830Y415710D01*
X109930Y415710D01*
X109945Y415713D01*
X109960Y415711D01*
X110092Y415748D01*
X110099Y415749D01*
X110099Y415750D01*
X110100Y415750D01*
X110220Y415810D01*
X110683Y415810D01*
X111038Y415721D01*
X111046Y415721D01*
X111055Y415717D01*
X111506Y415627D01*
X111829Y415465D01*
X112150Y415225D01*
X112301Y414999D01*
X112378Y414844D01*
X112450Y414628D01*
X112450Y414137D01*
X112377Y413846D01*
X112035Y413332D01*
X111480Y412778D01*
X111110Y412501D01*
X110839Y412320D01*
X110607Y412204D01*
X110497Y412149D01*
X109783Y411970D01*
X109592Y411970D01*
X109435Y412022D01*
X109243Y412215D01*
X109182Y412336D01*
X109110Y412552D01*
X109110Y413390D01*
X109098Y413441D01*
X109097Y413485D01*
X109089Y413499D01*
X109085Y413526D01*
X109075Y413541D01*
X109071Y413559D01*
X109029Y413610D01*
X109014Y413637D01*
X109006Y413642D01*
X108988Y413670D01*
X108972Y413679D01*
X108961Y413692D01*
X108897Y413721D01*
X108885Y413728D01*
X108872Y413737D01*
X108868Y413738D01*
X108837Y413755D01*
X108819Y413756D01*
X108802Y413763D01*
X108746Y413761D01*
X108730Y413764D01*
X108720Y413764D01*
X108710Y413762D01*
X108664Y413764D01*
X108645Y413757D01*
X108629Y413757D01*
X108595Y413738D01*
X108574Y413730D01*
X108552Y413725D01*
X108544Y413718D01*
X108528Y413712D01*
X107728Y413212D01*
X107701Y413185D01*
X107646Y413143D01*
X106846Y412243D01*
X106833Y412220D01*
X106809Y412194D01*
X106109Y411094D01*
X106097Y411060D01*
X106069Y411010D01*
X105569Y409510D01*
X105567Y409488D01*
X105556Y409460D01*
X105256Y407860D01*
X105258Y407824D01*
X105250Y407768D01*
X105350Y406068D01*
X105359Y406037D01*
X105362Y405993D01*
X105862Y404093D01*
X105880Y404061D01*
X105898Y404005D01*
X106898Y402205D01*
X106915Y402187D01*
X106930Y402157D01*
X107630Y401257D01*
X107646Y401243D01*
X107661Y401221D01*
X108461Y400421D01*
X108471Y400415D01*
X108480Y400404D01*
X109280Y399704D01*
X109305Y399690D01*
X109334Y399664D01*
X110334Y399064D01*
X110359Y399056D01*
X110389Y399037D01*
X111389Y398637D01*
X111408Y398634D01*
X111430Y398623D01*
X112530Y398323D01*
X112547Y398323D01*
X112568Y398315D01*
X113768Y398115D01*
X113794Y398117D01*
X113830Y398110D01*
X115699Y398110D01*
X116196Y398027D01*
X117094Y397488D01*
X118051Y396532D01*
X119241Y395143D01*
X119252Y395135D01*
X119261Y395121D01*
X120449Y393933D01*
X120938Y393347D01*
X120950Y393337D01*
X120961Y393321D01*
X121428Y392854D01*
X121704Y392394D01*
X121729Y392368D01*
X121761Y392321D01*
X122261Y391821D01*
X122283Y391808D01*
X122299Y391788D01*
X122356Y391762D01*
X122408Y391730D01*
X122434Y391727D01*
X122458Y391717D01*
X122519Y391719D01*
X122581Y391713D01*
X122605Y391722D01*
G37*
G36*
X31335Y629472D02*
X31335Y629472D01*
X31401Y629474D01*
X31444Y629492D01*
X31491Y629500D01*
X31548Y629534D01*
X31608Y629559D01*
X31643Y629590D01*
X31684Y629615D01*
X31726Y629666D01*
X31774Y629710D01*
X31796Y629752D01*
X31825Y629789D01*
X31846Y629851D01*
X31877Y629910D01*
X31885Y629964D01*
X31897Y630001D01*
X31896Y630041D01*
X31904Y630095D01*
X31904Y633905D01*
X31893Y633970D01*
X31891Y634036D01*
X31873Y634079D01*
X31865Y634126D01*
X31831Y634183D01*
X31806Y634243D01*
X31775Y634278D01*
X31750Y634319D01*
X31699Y634361D01*
X31655Y634409D01*
X31613Y634431D01*
X31576Y634460D01*
X31514Y634481D01*
X31455Y634512D01*
X31401Y634520D01*
X31364Y634532D01*
X31324Y634531D01*
X31270Y634539D01*
X28730Y634539D01*
X28665Y634528D01*
X28599Y634526D01*
X28556Y634508D01*
X28509Y634500D01*
X28452Y634466D01*
X28392Y634441D01*
X28357Y634410D01*
X28316Y634385D01*
X28275Y634334D01*
X28226Y634290D01*
X28204Y634248D01*
X28175Y634211D01*
X28154Y634149D01*
X28123Y634090D01*
X28115Y634036D01*
X28103Y633999D01*
X28103Y633995D01*
X28103Y633994D01*
X28104Y633959D01*
X28096Y633905D01*
X28096Y630095D01*
X28107Y630030D01*
X28109Y629964D01*
X28127Y629921D01*
X28135Y629874D01*
X28169Y629817D01*
X28194Y629757D01*
X28225Y629722D01*
X28250Y629681D01*
X28301Y629640D01*
X28345Y629591D01*
X28387Y629569D01*
X28424Y629540D01*
X28486Y629519D01*
X28545Y629488D01*
X28599Y629480D01*
X28636Y629468D01*
X28676Y629469D01*
X28730Y629461D01*
X31270Y629461D01*
X31335Y629472D01*
G37*
G36*
X71835Y215472D02*
X71835Y215472D01*
X71901Y215474D01*
X71944Y215492D01*
X71991Y215500D01*
X72048Y215534D01*
X72108Y215559D01*
X72143Y215590D01*
X72184Y215615D01*
X72226Y215666D01*
X72274Y215710D01*
X72296Y215752D01*
X72325Y215789D01*
X72346Y215851D01*
X72377Y215910D01*
X72385Y215964D01*
X72397Y216001D01*
X72396Y216041D01*
X72404Y216095D01*
X72404Y219905D01*
X72393Y219970D01*
X72391Y220036D01*
X72373Y220079D01*
X72365Y220126D01*
X72331Y220183D01*
X72306Y220243D01*
X72275Y220278D01*
X72250Y220319D01*
X72199Y220361D01*
X72155Y220409D01*
X72113Y220431D01*
X72076Y220460D01*
X72014Y220481D01*
X71955Y220512D01*
X71901Y220520D01*
X71864Y220532D01*
X71824Y220531D01*
X71770Y220539D01*
X69230Y220539D01*
X69165Y220528D01*
X69099Y220526D01*
X69056Y220508D01*
X69009Y220500D01*
X68952Y220466D01*
X68892Y220441D01*
X68857Y220410D01*
X68816Y220385D01*
X68775Y220334D01*
X68726Y220290D01*
X68704Y220248D01*
X68675Y220211D01*
X68654Y220149D01*
X68623Y220090D01*
X68615Y220036D01*
X68603Y219999D01*
X68603Y219995D01*
X68603Y219994D01*
X68604Y219959D01*
X68596Y219905D01*
X68596Y216095D01*
X68607Y216030D01*
X68609Y215964D01*
X68627Y215921D01*
X68635Y215874D01*
X68669Y215817D01*
X68694Y215757D01*
X68725Y215722D01*
X68750Y215681D01*
X68801Y215640D01*
X68845Y215591D01*
X68887Y215569D01*
X68924Y215540D01*
X68986Y215519D01*
X69045Y215488D01*
X69099Y215480D01*
X69136Y215468D01*
X69176Y215469D01*
X69230Y215461D01*
X71770Y215461D01*
X71835Y215472D01*
G37*
G36*
X16215Y214032D02*
X16215Y214032D01*
X16281Y214034D01*
X16324Y214052D01*
X16371Y214060D01*
X16428Y214094D01*
X16488Y214119D01*
X16523Y214150D01*
X16564Y214175D01*
X16606Y214226D01*
X16654Y214270D01*
X16676Y214312D01*
X16705Y214349D01*
X16726Y214411D01*
X16757Y214470D01*
X16765Y214524D01*
X16777Y214561D01*
X16776Y214601D01*
X16784Y214655D01*
X16784Y218465D01*
X16773Y218530D01*
X16771Y218596D01*
X16753Y218639D01*
X16745Y218686D01*
X16711Y218743D01*
X16686Y218803D01*
X16655Y218838D01*
X16630Y218879D01*
X16579Y218921D01*
X16535Y218969D01*
X16493Y218991D01*
X16456Y219020D01*
X16394Y219041D01*
X16335Y219072D01*
X16281Y219080D01*
X16244Y219092D01*
X16204Y219091D01*
X16150Y219099D01*
X13610Y219099D01*
X13545Y219088D01*
X13479Y219086D01*
X13436Y219068D01*
X13389Y219060D01*
X13332Y219026D01*
X13272Y219001D01*
X13237Y218970D01*
X13196Y218945D01*
X13155Y218894D01*
X13106Y218850D01*
X13084Y218808D01*
X13055Y218771D01*
X13034Y218709D01*
X13003Y218650D01*
X12995Y218596D01*
X12983Y218559D01*
X12983Y218555D01*
X12983Y218554D01*
X12984Y218519D01*
X12976Y218465D01*
X12976Y214655D01*
X12987Y214590D01*
X12989Y214524D01*
X13007Y214481D01*
X13015Y214434D01*
X13049Y214377D01*
X13074Y214317D01*
X13105Y214282D01*
X13130Y214241D01*
X13181Y214200D01*
X13225Y214151D01*
X13267Y214129D01*
X13304Y214100D01*
X13366Y214079D01*
X13425Y214048D01*
X13479Y214040D01*
X13516Y214028D01*
X13556Y214029D01*
X13610Y214021D01*
X16150Y214021D01*
X16215Y214032D01*
G37*
G36*
X16335Y86552D02*
X16335Y86552D01*
X16401Y86554D01*
X16444Y86572D01*
X16491Y86580D01*
X16548Y86614D01*
X16608Y86639D01*
X16643Y86670D01*
X16684Y86695D01*
X16726Y86746D01*
X16774Y86790D01*
X16796Y86832D01*
X16825Y86869D01*
X16846Y86931D01*
X16877Y86990D01*
X16885Y87044D01*
X16897Y87081D01*
X16896Y87121D01*
X16904Y87175D01*
X16904Y90985D01*
X16893Y91050D01*
X16891Y91116D01*
X16873Y91159D01*
X16865Y91206D01*
X16831Y91263D01*
X16806Y91323D01*
X16775Y91358D01*
X16750Y91399D01*
X16699Y91441D01*
X16655Y91489D01*
X16613Y91511D01*
X16576Y91540D01*
X16514Y91561D01*
X16455Y91592D01*
X16401Y91600D01*
X16364Y91612D01*
X16324Y91611D01*
X16270Y91619D01*
X13730Y91619D01*
X13665Y91608D01*
X13599Y91606D01*
X13556Y91588D01*
X13509Y91580D01*
X13452Y91546D01*
X13392Y91521D01*
X13357Y91490D01*
X13316Y91465D01*
X13275Y91414D01*
X13226Y91370D01*
X13204Y91328D01*
X13175Y91291D01*
X13154Y91229D01*
X13123Y91170D01*
X13115Y91116D01*
X13103Y91079D01*
X13103Y91075D01*
X13103Y91074D01*
X13104Y91039D01*
X13096Y90985D01*
X13096Y87175D01*
X13107Y87110D01*
X13109Y87044D01*
X13127Y87001D01*
X13135Y86954D01*
X13169Y86897D01*
X13194Y86837D01*
X13225Y86802D01*
X13250Y86761D01*
X13301Y86720D01*
X13345Y86671D01*
X13387Y86649D01*
X13424Y86620D01*
X13486Y86599D01*
X13545Y86568D01*
X13599Y86560D01*
X13636Y86548D01*
X13676Y86549D01*
X13730Y86541D01*
X16270Y86541D01*
X16335Y86552D01*
G37*
G36*
X16335Y76392D02*
X16335Y76392D01*
X16401Y76394D01*
X16444Y76412D01*
X16491Y76420D01*
X16548Y76454D01*
X16608Y76479D01*
X16643Y76510D01*
X16684Y76535D01*
X16726Y76586D01*
X16774Y76630D01*
X16796Y76672D01*
X16825Y76709D01*
X16846Y76771D01*
X16877Y76830D01*
X16885Y76884D01*
X16897Y76921D01*
X16896Y76961D01*
X16904Y77015D01*
X16904Y80825D01*
X16893Y80890D01*
X16891Y80956D01*
X16873Y80999D01*
X16865Y81046D01*
X16831Y81103D01*
X16806Y81163D01*
X16775Y81198D01*
X16750Y81239D01*
X16699Y81281D01*
X16655Y81329D01*
X16613Y81351D01*
X16576Y81380D01*
X16514Y81401D01*
X16455Y81432D01*
X16401Y81440D01*
X16364Y81452D01*
X16324Y81451D01*
X16270Y81459D01*
X13730Y81459D01*
X13665Y81448D01*
X13599Y81446D01*
X13556Y81428D01*
X13509Y81420D01*
X13452Y81386D01*
X13392Y81361D01*
X13357Y81330D01*
X13316Y81305D01*
X13275Y81254D01*
X13226Y81210D01*
X13204Y81168D01*
X13175Y81131D01*
X13154Y81069D01*
X13123Y81010D01*
X13115Y80956D01*
X13103Y80919D01*
X13103Y80915D01*
X13103Y80914D01*
X13104Y80879D01*
X13096Y80825D01*
X13096Y77015D01*
X13107Y76950D01*
X13109Y76884D01*
X13127Y76841D01*
X13135Y76794D01*
X13169Y76737D01*
X13194Y76677D01*
X13225Y76642D01*
X13250Y76601D01*
X13301Y76560D01*
X13345Y76511D01*
X13387Y76489D01*
X13424Y76460D01*
X13486Y76439D01*
X13545Y76408D01*
X13599Y76400D01*
X13636Y76388D01*
X13676Y76389D01*
X13730Y76381D01*
X16270Y76381D01*
X16335Y76392D01*
G37*
G36*
X214955Y60844D02*
X214955Y60844D01*
X215021Y60846D01*
X215064Y60864D01*
X215111Y60872D01*
X215168Y60906D01*
X215228Y60931D01*
X215263Y60962D01*
X215304Y60987D01*
X215346Y61038D01*
X215394Y61082D01*
X215416Y61124D01*
X215445Y61161D01*
X215466Y61223D01*
X215497Y61282D01*
X215505Y61336D01*
X215517Y61373D01*
X215516Y61413D01*
X215524Y61467D01*
X215524Y65277D01*
X215513Y65342D01*
X215511Y65408D01*
X215493Y65451D01*
X215485Y65498D01*
X215451Y65555D01*
X215426Y65615D01*
X215395Y65650D01*
X215370Y65691D01*
X215319Y65733D01*
X215275Y65781D01*
X215233Y65803D01*
X215196Y65832D01*
X215134Y65853D01*
X215075Y65884D01*
X215021Y65892D01*
X214984Y65904D01*
X214944Y65903D01*
X214890Y65911D01*
X212350Y65911D01*
X212285Y65900D01*
X212219Y65898D01*
X212176Y65880D01*
X212129Y65872D01*
X212072Y65838D01*
X212012Y65813D01*
X211977Y65782D01*
X211936Y65757D01*
X211895Y65706D01*
X211846Y65662D01*
X211824Y65620D01*
X211795Y65583D01*
X211774Y65521D01*
X211743Y65462D01*
X211735Y65408D01*
X211723Y65371D01*
X211723Y65367D01*
X211723Y65366D01*
X211724Y65331D01*
X211716Y65277D01*
X211716Y61467D01*
X211727Y61402D01*
X211729Y61336D01*
X211747Y61293D01*
X211755Y61246D01*
X211789Y61189D01*
X211814Y61129D01*
X211845Y61094D01*
X211870Y61053D01*
X211921Y61012D01*
X211965Y60963D01*
X212007Y60941D01*
X212044Y60912D01*
X212106Y60891D01*
X212165Y60860D01*
X212219Y60852D01*
X212256Y60840D01*
X212296Y60841D01*
X212350Y60833D01*
X214890Y60833D01*
X214955Y60844D01*
G37*
G36*
X116270Y615107D02*
X116270Y615107D01*
X116336Y615109D01*
X116379Y615127D01*
X116426Y615135D01*
X116483Y615169D01*
X116543Y615194D01*
X116578Y615225D01*
X116619Y615250D01*
X116661Y615301D01*
X116709Y615345D01*
X116731Y615387D01*
X116760Y615424D01*
X116781Y615486D01*
X116812Y615545D01*
X116820Y615599D01*
X116832Y615636D01*
X116831Y615676D01*
X116839Y615730D01*
X116839Y618270D01*
X116828Y618335D01*
X116826Y618401D01*
X116808Y618444D01*
X116800Y618491D01*
X116766Y618548D01*
X116741Y618608D01*
X116710Y618643D01*
X116685Y618684D01*
X116634Y618726D01*
X116590Y618774D01*
X116548Y618796D01*
X116511Y618825D01*
X116449Y618846D01*
X116390Y618877D01*
X116336Y618885D01*
X116299Y618897D01*
X116259Y618896D01*
X116205Y618904D01*
X112395Y618904D01*
X112330Y618893D01*
X112264Y618891D01*
X112221Y618873D01*
X112174Y618865D01*
X112117Y618831D01*
X112057Y618806D01*
X112022Y618775D01*
X111981Y618750D01*
X111940Y618699D01*
X111891Y618655D01*
X111869Y618613D01*
X111840Y618576D01*
X111819Y618514D01*
X111788Y618455D01*
X111780Y618401D01*
X111768Y618364D01*
X111768Y618361D01*
X111769Y618324D01*
X111761Y618270D01*
X111761Y615730D01*
X111772Y615665D01*
X111774Y615599D01*
X111792Y615556D01*
X111800Y615509D01*
X111834Y615452D01*
X111859Y615392D01*
X111890Y615357D01*
X111915Y615316D01*
X111966Y615275D01*
X112010Y615226D01*
X112052Y615204D01*
X112089Y615175D01*
X112151Y615154D01*
X112210Y615123D01*
X112264Y615115D01*
X112301Y615103D01*
X112341Y615104D01*
X112395Y615096D01*
X116205Y615096D01*
X116270Y615107D01*
G37*
D10*
X215900Y520700D03*
X215900Y495300D03*
X215900Y469900D03*
X215900Y444500D03*
X215900Y419100D03*
X215900Y393700D03*
X215900Y368300D03*
X215900Y342900D03*
X215900Y317500D03*
X215900Y292100D03*
X215900Y266700D03*
X215900Y241300D03*
X215900Y215900D03*
X215900Y190500D03*
X215900Y165100D03*
X215900Y139700D03*
X12700Y241300D03*
X12700Y266700D03*
X12700Y292100D03*
X12700Y317500D03*
X12700Y342900D03*
X12700Y368300D03*
X12700Y393700D03*
X12700Y419100D03*
X12700Y444500D03*
X12700Y469900D03*
X12700Y495300D03*
X12700Y520700D03*
D11*
X85400Y47526D03*
X143200Y47526D03*
D12*
X120517Y159232D02*
X120517Y163768D01*
X120517Y159232D02*
X109481Y159232D01*
X109481Y163768D01*
X120517Y163768D01*
X120517Y161354D02*
X109481Y161354D01*
X109481Y163476D02*
X120517Y163476D01*
X120517Y168732D02*
X120517Y173268D01*
X120517Y168732D02*
X109481Y168732D01*
X109481Y173268D01*
X120517Y173268D01*
X120517Y170854D02*
X109481Y170854D01*
X109481Y172976D02*
X120517Y172976D01*
X120517Y178232D02*
X120517Y182768D01*
X120517Y178232D02*
X109481Y178232D01*
X109481Y182768D01*
X120517Y182768D01*
X120517Y180354D02*
X109481Y180354D01*
X109481Y182476D02*
X120517Y182476D01*
X146519Y182768D02*
X146519Y178232D01*
X135483Y178232D01*
X135483Y182768D01*
X146519Y182768D01*
X146519Y180354D02*
X135483Y180354D01*
X135483Y182476D02*
X146519Y182476D01*
X146519Y163768D02*
X146519Y159232D01*
X135483Y159232D01*
X135483Y163768D01*
X146519Y163768D01*
X146519Y161354D02*
X135483Y161354D01*
X135483Y163476D02*
X146519Y163476D01*
X27748Y161563D02*
X23212Y161563D01*
X23212Y172599D01*
X27748Y172599D01*
X27748Y161563D01*
X27748Y163685D02*
X23212Y163685D01*
X23212Y165807D02*
X27748Y165807D01*
X27748Y167929D02*
X23212Y167929D01*
X23212Y170051D02*
X27748Y170051D01*
X27748Y172173D02*
X23212Y172173D01*
X32712Y161563D02*
X37248Y161563D01*
X32712Y161563D02*
X32712Y172599D01*
X37248Y172599D01*
X37248Y161563D01*
X37248Y163685D02*
X32712Y163685D01*
X32712Y165807D02*
X37248Y165807D01*
X37248Y167929D02*
X32712Y167929D01*
X32712Y170051D02*
X37248Y170051D01*
X37248Y172173D02*
X32712Y172173D01*
X42212Y161563D02*
X46748Y161563D01*
X42212Y161563D02*
X42212Y172599D01*
X46748Y172599D01*
X46748Y161563D01*
X46748Y163685D02*
X42212Y163685D01*
X42212Y165807D02*
X46748Y165807D01*
X46748Y167929D02*
X42212Y167929D01*
X42212Y170051D02*
X46748Y170051D01*
X46748Y172173D02*
X42212Y172173D01*
X42212Y135561D02*
X46748Y135561D01*
X42212Y135561D02*
X42212Y146597D01*
X46748Y146597D01*
X46748Y135561D01*
X46748Y137683D02*
X42212Y137683D01*
X42212Y139805D02*
X46748Y139805D01*
X46748Y141927D02*
X42212Y141927D01*
X42212Y144049D02*
X46748Y144049D01*
X46748Y146171D02*
X42212Y146171D01*
X27748Y135561D02*
X23212Y135561D01*
X23212Y146597D01*
X27748Y146597D01*
X27748Y135561D01*
X27748Y137683D02*
X23212Y137683D01*
X23212Y139805D02*
X27748Y139805D01*
X27748Y141927D02*
X23212Y141927D01*
X23212Y144049D02*
X27748Y144049D01*
X27748Y146171D02*
X23212Y146171D01*
D13*
X42552Y129648D02*
X47568Y129648D01*
X47568Y124632D01*
X42552Y124632D01*
X42552Y129648D01*
X42552Y126773D02*
X47568Y126773D01*
X47568Y128914D02*
X42552Y128914D01*
X37568Y129648D02*
X32552Y129648D01*
X37568Y129648D02*
X37568Y124632D01*
X32552Y124632D01*
X32552Y129648D01*
X32552Y126773D02*
X37568Y126773D01*
X37568Y128914D02*
X32552Y128914D01*
X40572Y181128D02*
X45588Y181128D01*
X45588Y176112D01*
X40572Y176112D01*
X40572Y181128D01*
X40572Y178253D02*
X45588Y178253D01*
X45588Y180394D02*
X40572Y180394D01*
X35588Y181128D02*
X30572Y181128D01*
X35588Y181128D02*
X35588Y176112D01*
X30572Y176112D01*
X30572Y181128D01*
X30572Y178253D02*
X35588Y178253D01*
X35588Y180394D02*
X30572Y180394D01*
X32492Y114492D02*
X37508Y114492D01*
X32492Y114492D02*
X32492Y119508D01*
X37508Y119508D01*
X37508Y114492D01*
X37508Y116633D02*
X32492Y116633D01*
X32492Y118774D02*
X37508Y118774D01*
X42492Y114492D02*
X47508Y114492D01*
X42492Y114492D02*
X42492Y119508D01*
X47508Y119508D01*
X47508Y114492D01*
X47508Y116633D02*
X42492Y116633D01*
X42492Y118774D02*
X47508Y118774D01*
X12672Y154432D02*
X12672Y159448D01*
X17688Y159448D01*
X17688Y154432D01*
X12672Y154432D01*
X12672Y156573D02*
X17688Y156573D01*
X17688Y158714D02*
X12672Y158714D01*
X12672Y149448D02*
X12672Y144432D01*
X12672Y149448D02*
X17688Y149448D01*
X17688Y144432D01*
X12672Y144432D01*
X12672Y146573D02*
X17688Y146573D01*
X17688Y148714D02*
X12672Y148714D01*
D14*
X9036Y218971D02*
X9036Y224563D01*
X20724Y224563D01*
X20724Y218971D01*
X9036Y218971D01*
X9036Y221140D02*
X20724Y221140D01*
X20724Y223309D02*
X9036Y223309D01*
X9036Y214149D02*
X9036Y208557D01*
X9036Y214149D02*
X20724Y214149D01*
X20724Y208557D01*
X9036Y208557D01*
X9036Y210726D02*
X20724Y210726D01*
X20724Y212895D02*
X9036Y212895D01*
D15*
X45500Y219900D03*
X40500Y219900D03*
X35500Y219900D03*
X30500Y219900D03*
X30500Y199900D03*
X35500Y199900D03*
X40500Y199900D03*
X45500Y199900D03*
D16*
X38000Y210000D03*
D13*
X35508Y186492D02*
X30492Y186492D01*
X30492Y191508D01*
X35508Y191508D01*
X35508Y186492D01*
X35508Y188633D02*
X30492Y188633D01*
X30492Y190774D02*
X35508Y190774D01*
X40492Y186492D02*
X45508Y186492D01*
X40492Y186492D02*
X40492Y191508D01*
X45508Y191508D01*
X45508Y186492D01*
X45508Y188633D02*
X40492Y188633D01*
X40492Y190774D02*
X45508Y190774D01*
D14*
X207776Y71375D02*
X207776Y65783D01*
X207776Y71375D02*
X219464Y71375D01*
X219464Y65783D01*
X207776Y65783D01*
X207776Y67952D02*
X219464Y67952D01*
X219464Y70121D02*
X207776Y70121D01*
X207776Y60961D02*
X207776Y55369D01*
X207776Y60961D02*
X219464Y60961D01*
X219464Y55369D01*
X207776Y55369D01*
X207776Y57538D02*
X219464Y57538D01*
X219464Y59707D02*
X207776Y59707D01*
X9156Y91618D02*
X9156Y97210D01*
X20844Y97210D01*
X20844Y91618D01*
X9156Y91618D01*
X9156Y93787D02*
X20844Y93787D01*
X20844Y95956D02*
X9156Y95956D01*
X9156Y86796D02*
X9156Y81204D01*
X9156Y86796D02*
X20844Y86796D01*
X20844Y81204D01*
X9156Y81204D01*
X9156Y83373D02*
X20844Y83373D01*
X20844Y85542D02*
X9156Y85542D01*
X9156Y76382D02*
X9156Y70790D01*
X9156Y76382D02*
X20844Y76382D01*
X20844Y70790D01*
X9156Y70790D01*
X9156Y72959D02*
X20844Y72959D01*
X20844Y75128D02*
X9156Y75128D01*
D13*
X18492Y63508D02*
X23508Y63508D01*
X23508Y58492D01*
X18492Y58492D01*
X18492Y63508D01*
X18492Y60633D02*
X23508Y60633D01*
X23508Y62774D02*
X18492Y62774D01*
X13508Y63508D02*
X8492Y63508D01*
X13508Y63508D02*
X13508Y58492D01*
X8492Y58492D01*
X8492Y63508D01*
X8492Y60633D02*
X13508Y60633D01*
X13508Y62774D02*
X8492Y62774D01*
X18492Y109508D02*
X23508Y109508D01*
X23508Y104492D01*
X18492Y104492D01*
X18492Y109508D01*
X18492Y106633D02*
X23508Y106633D01*
X23508Y108774D02*
X18492Y108774D01*
X13508Y109508D02*
X8492Y109508D01*
X13508Y109508D02*
X13508Y104492D01*
X8492Y104492D01*
X8492Y109508D01*
X8492Y106633D02*
X13508Y106633D01*
X13508Y108774D02*
X8492Y108774D01*
D17*
X25400Y25400D03*
X203200Y25400D03*
D18*
X45000Y7500D03*
X220000Y665000D03*
D19*
X87919Y73449D02*
X87919Y64435D01*
X83905Y64435D01*
X83905Y73449D01*
X87919Y73449D01*
X87919Y66579D02*
X83905Y66579D01*
X83905Y68723D02*
X87919Y68723D01*
X87919Y70867D02*
X83905Y70867D01*
X83905Y73011D02*
X87919Y73011D01*
X98919Y73449D02*
X98919Y64435D01*
X94905Y64435D01*
X94905Y73449D01*
X98919Y73449D01*
X98919Y66579D02*
X94905Y66579D01*
X94905Y68723D02*
X98919Y68723D01*
X98919Y70867D02*
X94905Y70867D01*
X94905Y73011D02*
X98919Y73011D01*
X109919Y73449D02*
X109919Y64435D01*
X105905Y64435D01*
X105905Y73449D01*
X109919Y73449D01*
X109919Y66579D02*
X105905Y66579D01*
X105905Y68723D02*
X109919Y68723D01*
X109919Y70867D02*
X105905Y70867D01*
X105905Y73011D02*
X109919Y73011D01*
X120919Y73449D02*
X120919Y64435D01*
X116905Y64435D01*
X116905Y73449D01*
X120919Y73449D01*
X120919Y66579D02*
X116905Y66579D01*
X116905Y68723D02*
X120919Y68723D01*
X120919Y70867D02*
X116905Y70867D01*
X116905Y73011D02*
X120919Y73011D01*
X131919Y73449D02*
X131919Y64435D01*
X127905Y64435D01*
X127905Y73449D01*
X131919Y73449D01*
X131919Y66579D02*
X127905Y66579D01*
X127905Y68723D02*
X131919Y68723D01*
X131919Y70867D02*
X127905Y70867D01*
X127905Y73011D02*
X131919Y73011D01*
X142919Y73449D02*
X142919Y64435D01*
X138905Y64435D01*
X138905Y73449D01*
X142919Y73449D01*
X142919Y66579D02*
X138905Y66579D01*
X138905Y68723D02*
X142919Y68723D01*
X142919Y70867D02*
X138905Y70867D01*
X138905Y73011D02*
X142919Y73011D01*
X153919Y73449D02*
X153919Y64435D01*
X149905Y64435D01*
X149905Y73449D01*
X153919Y73449D01*
X153919Y66579D02*
X149905Y66579D01*
X149905Y68723D02*
X153919Y68723D01*
X153919Y70867D02*
X149905Y70867D01*
X149905Y73011D02*
X153919Y73011D01*
X164919Y73449D02*
X164919Y64435D01*
X160905Y64435D01*
X160905Y73449D01*
X164919Y73449D01*
X164919Y66579D02*
X160905Y66579D01*
X160905Y68723D02*
X164919Y68723D01*
X164919Y70867D02*
X160905Y70867D01*
X160905Y73011D02*
X164919Y73011D01*
D20*
X71004Y92350D02*
X64820Y92350D01*
X64820Y99134D01*
X71004Y99134D01*
X71004Y92350D01*
X71004Y94523D02*
X64820Y94523D01*
X64820Y96696D02*
X71004Y96696D01*
X71004Y98869D02*
X64820Y98869D01*
D21*
X72620Y103584D02*
X72620Y113300D01*
X72620Y103584D02*
X63204Y103584D01*
X63204Y113300D01*
X72620Y113300D01*
X72620Y105820D02*
X63204Y105820D01*
X63204Y108056D02*
X72620Y108056D01*
X72620Y110292D02*
X63204Y110292D01*
X63204Y112528D02*
X72620Y112528D01*
X72620Y129084D02*
X72620Y140000D01*
X72620Y129084D02*
X63204Y129084D01*
X63204Y140000D01*
X72620Y140000D01*
X72620Y131320D02*
X63204Y131320D01*
X63204Y133556D02*
X72620Y133556D01*
X72620Y135792D02*
X63204Y135792D01*
X63204Y138028D02*
X72620Y138028D01*
X179370Y134300D02*
X179370Y123384D01*
X169954Y123384D01*
X169954Y134300D01*
X179370Y134300D01*
X179370Y125620D02*
X169954Y125620D01*
X169954Y127856D02*
X179370Y127856D01*
X179370Y130092D02*
X169954Y130092D01*
X169954Y132328D02*
X179370Y132328D01*
X179370Y108400D02*
X179370Y85584D01*
X169954Y85584D01*
X169954Y108400D01*
X179370Y108400D01*
X179370Y87820D02*
X169954Y87820D01*
X169954Y90056D02*
X179370Y90056D01*
X179370Y92292D02*
X169954Y92292D01*
X169954Y94528D02*
X179370Y94528D01*
X179370Y96764D02*
X169954Y96764D01*
X169954Y99000D02*
X179370Y99000D01*
X179370Y101236D02*
X169954Y101236D01*
X169954Y103472D02*
X179370Y103472D01*
X179370Y105708D02*
X169954Y105708D01*
X169954Y107944D02*
X179370Y107944D01*
D12*
X156930Y143560D02*
X128794Y143560D01*
X156930Y143560D02*
X156930Y139024D01*
X128794Y139024D01*
X128794Y143560D01*
X128794Y141146D02*
X156930Y141146D01*
X156930Y143268D02*
X128794Y143268D01*
X115030Y143560D02*
X86894Y143560D01*
X115030Y143560D02*
X115030Y139024D01*
X86894Y139024D01*
X86894Y143560D01*
X86894Y141146D02*
X115030Y141146D01*
X115030Y143268D02*
X86894Y143268D01*
D19*
X78493Y526943D02*
X78493Y530957D01*
X86007Y530957D01*
X86007Y526943D01*
X78493Y526943D01*
X78493Y529087D02*
X86007Y529087D01*
X78493Y539643D02*
X78493Y543657D01*
X86007Y543657D01*
X86007Y539643D01*
X78493Y539643D01*
X78493Y541787D02*
X86007Y541787D01*
X78493Y552343D02*
X78493Y556357D01*
X86007Y556357D01*
X86007Y552343D01*
X78493Y552343D01*
X78493Y554487D02*
X86007Y554487D01*
X78493Y565043D02*
X78493Y569057D01*
X86007Y569057D01*
X86007Y565043D01*
X78493Y565043D01*
X78493Y567187D02*
X86007Y567187D01*
X133993Y556357D02*
X133993Y552343D01*
X133993Y556357D02*
X141507Y556357D01*
X141507Y552343D01*
X133993Y552343D01*
X133993Y554487D02*
X141507Y554487D01*
X133993Y565043D02*
X133993Y569057D01*
X141507Y569057D01*
X141507Y565043D01*
X133993Y565043D01*
X133993Y567187D02*
X141507Y567187D01*
X133993Y543657D02*
X133993Y539643D01*
X133993Y543657D02*
X141507Y543657D01*
X141507Y539643D01*
X133993Y539643D01*
X133993Y541787D02*
X141507Y541787D01*
X133993Y530957D02*
X133993Y526943D01*
X133993Y530957D02*
X141507Y530957D01*
X141507Y526943D01*
X133993Y526943D01*
X133993Y529087D02*
X141507Y529087D01*
D13*
X192508Y444508D02*
X192508Y439492D01*
X187492Y439492D01*
X187492Y444508D01*
X192508Y444508D01*
X192508Y441633D02*
X187492Y441633D01*
X187492Y443774D02*
X192508Y443774D01*
X192508Y449492D02*
X192508Y454508D01*
X192508Y449492D02*
X187492Y449492D01*
X187492Y454508D01*
X192508Y454508D01*
X192508Y451633D02*
X187492Y451633D01*
X187492Y453774D02*
X192508Y453774D01*
X117492Y338508D02*
X117492Y333492D01*
X117492Y338508D02*
X122508Y338508D01*
X122508Y333492D01*
X117492Y333492D01*
X117492Y335633D02*
X122508Y335633D01*
X122508Y337774D02*
X117492Y337774D01*
X117492Y328508D02*
X117492Y323492D01*
X117492Y328508D02*
X122508Y328508D01*
X122508Y323492D01*
X117492Y323492D01*
X117492Y325633D02*
X122508Y325633D01*
X122508Y327774D02*
X117492Y327774D01*
X46508Y446008D02*
X41492Y446008D01*
X46508Y446008D02*
X46508Y440992D01*
X41492Y440992D01*
X41492Y446008D01*
X41492Y443133D02*
X46508Y443133D01*
X46508Y445274D02*
X41492Y445274D01*
X36508Y446008D02*
X31492Y446008D01*
X36508Y446008D02*
X36508Y440992D01*
X31492Y440992D01*
X31492Y446008D01*
X31492Y443133D02*
X36508Y443133D01*
X36508Y445274D02*
X31492Y445274D01*
X117492Y480492D02*
X117492Y485508D01*
X122508Y485508D01*
X122508Y480492D01*
X117492Y480492D01*
X117492Y482633D02*
X122508Y482633D01*
X122508Y484774D02*
X117492Y484774D01*
X117492Y475508D02*
X117492Y470492D01*
X117492Y475508D02*
X122508Y475508D01*
X122508Y470492D01*
X117492Y470492D01*
X117492Y472633D02*
X122508Y472633D01*
X122508Y474774D02*
X117492Y474774D01*
X181992Y358508D02*
X181992Y353492D01*
X181992Y358508D02*
X187008Y358508D01*
X187008Y353492D01*
X181992Y353492D01*
X181992Y355633D02*
X187008Y355633D01*
X187008Y357774D02*
X181992Y357774D01*
X181992Y348508D02*
X181992Y343492D01*
X181992Y348508D02*
X187008Y348508D01*
X187008Y343492D01*
X181992Y343492D01*
X181992Y345633D02*
X187008Y345633D01*
X187008Y347774D02*
X181992Y347774D01*
X105492Y338508D02*
X105492Y333492D01*
X105492Y338508D02*
X110508Y338508D01*
X110508Y333492D01*
X105492Y333492D01*
X105492Y335633D02*
X110508Y335633D01*
X110508Y337774D02*
X105492Y337774D01*
X105492Y328508D02*
X105492Y323492D01*
X105492Y328508D02*
X110508Y328508D01*
X110508Y323492D01*
X105492Y323492D01*
X105492Y325633D02*
X110508Y325633D01*
X110508Y327774D02*
X105492Y327774D01*
X105492Y480492D02*
X105492Y485508D01*
X110508Y485508D01*
X110508Y480492D01*
X105492Y480492D01*
X105492Y482633D02*
X110508Y482633D01*
X110508Y484774D02*
X105492Y484774D01*
X105492Y475508D02*
X105492Y470492D01*
X105492Y475508D02*
X110508Y475508D01*
X110508Y470492D01*
X105492Y470492D01*
X105492Y472633D02*
X110508Y472633D01*
X110508Y474774D02*
X105492Y474774D01*
X46508Y435008D02*
X41492Y435008D01*
X46508Y435008D02*
X46508Y429992D01*
X41492Y429992D01*
X41492Y435008D01*
X41492Y432133D02*
X46508Y432133D01*
X46508Y434274D02*
X41492Y434274D01*
X36508Y435008D02*
X31492Y435008D01*
X36508Y435008D02*
X36508Y429992D01*
X31492Y429992D01*
X31492Y435008D01*
X31492Y432133D02*
X36508Y432133D01*
X36508Y434274D02*
X31492Y434274D01*
D12*
X55232Y492517D02*
X59768Y492517D01*
X59768Y481481D01*
X55232Y481481D01*
X55232Y492517D01*
X55232Y483603D02*
X59768Y483603D01*
X59768Y485725D02*
X55232Y485725D01*
X55232Y487847D02*
X59768Y487847D01*
X59768Y489969D02*
X55232Y489969D01*
X55232Y492091D02*
X59768Y492091D01*
X50268Y492517D02*
X45732Y492517D01*
X50268Y492517D02*
X50268Y481481D01*
X45732Y481481D01*
X45732Y492517D01*
X45732Y483603D02*
X50268Y483603D01*
X50268Y485725D02*
X45732Y485725D01*
X45732Y487847D02*
X50268Y487847D01*
X50268Y489969D02*
X45732Y489969D01*
X45732Y492091D02*
X50268Y492091D01*
X40768Y492517D02*
X36232Y492517D01*
X40768Y492517D02*
X40768Y481481D01*
X36232Y481481D01*
X36232Y492517D01*
X36232Y483603D02*
X40768Y483603D01*
X40768Y485725D02*
X36232Y485725D01*
X36232Y487847D02*
X40768Y487847D01*
X40768Y489969D02*
X36232Y489969D01*
X36232Y492091D02*
X40768Y492091D01*
X40768Y518519D02*
X36232Y518519D01*
X40768Y518519D02*
X40768Y507483D01*
X36232Y507483D01*
X36232Y518519D01*
X36232Y509605D02*
X40768Y509605D01*
X40768Y511727D02*
X36232Y511727D01*
X36232Y513849D02*
X40768Y513849D01*
X40768Y515971D02*
X36232Y515971D01*
X36232Y518093D02*
X40768Y518093D01*
X55232Y518519D02*
X59768Y518519D01*
X59768Y507483D01*
X55232Y507483D01*
X55232Y518519D01*
X55232Y509605D02*
X59768Y509605D01*
X59768Y511727D02*
X55232Y511727D01*
X55232Y513849D02*
X59768Y513849D01*
X59768Y515971D02*
X55232Y515971D01*
X55232Y518093D02*
X59768Y518093D01*
D13*
X60008Y529508D02*
X54992Y529508D01*
X60008Y529508D02*
X60008Y524492D01*
X54992Y524492D01*
X54992Y529508D01*
X54992Y526633D02*
X60008Y526633D01*
X60008Y528774D02*
X54992Y528774D01*
X50008Y529508D02*
X44992Y529508D01*
X50008Y529508D02*
X50008Y524492D01*
X44992Y524492D01*
X44992Y529508D01*
X44992Y526633D02*
X50008Y526633D01*
X50008Y528774D02*
X44992Y528774D01*
X58536Y471582D02*
X54990Y468036D01*
X58536Y471582D02*
X62082Y468036D01*
X58536Y464490D01*
X54990Y468036D01*
X56395Y466631D02*
X60677Y466631D01*
X61346Y468772D02*
X55726Y468772D01*
X57867Y470913D02*
X59205Y470913D01*
X51464Y464510D02*
X47918Y460964D01*
X51464Y464510D02*
X55010Y460964D01*
X51464Y457418D01*
X47918Y460964D01*
X49323Y459559D02*
X53605Y459559D01*
X54274Y461700D02*
X48654Y461700D01*
X50795Y463841D02*
X52133Y463841D01*
X37508Y104492D02*
X32492Y104492D01*
X32492Y109508D01*
X37508Y109508D01*
X37508Y104492D01*
X37508Y106633D02*
X32492Y106633D01*
X32492Y108774D02*
X37508Y108774D01*
X42492Y104492D02*
X47508Y104492D01*
X42492Y104492D02*
X42492Y109508D01*
X47508Y109508D01*
X47508Y104492D01*
X47508Y106633D02*
X42492Y106633D01*
X42492Y108774D02*
X47508Y108774D01*
X166464Y339918D02*
X170010Y343464D01*
X166464Y339918D02*
X162918Y343464D01*
X166464Y347010D01*
X170010Y343464D01*
X168605Y342059D02*
X164323Y342059D01*
X163654Y344200D02*
X169274Y344200D01*
X167133Y346341D02*
X165795Y346341D01*
X173536Y346990D02*
X177082Y350536D01*
X173536Y346990D02*
X169990Y350536D01*
X173536Y354082D01*
X177082Y350536D01*
X175677Y349131D02*
X171395Y349131D01*
X170726Y351272D02*
X176346Y351272D01*
X174205Y353413D02*
X172867Y353413D01*
X13508Y114492D02*
X8492Y114492D01*
X8492Y119508D01*
X13508Y119508D01*
X13508Y114492D01*
X13508Y116633D02*
X8492Y116633D01*
X8492Y118774D02*
X13508Y118774D01*
X18492Y114492D02*
X23508Y114492D01*
X18492Y114492D02*
X18492Y119508D01*
X23508Y119508D01*
X23508Y114492D01*
X23508Y116633D02*
X18492Y116633D01*
X18492Y118774D02*
X23508Y118774D01*
X120492Y189492D02*
X125508Y189492D01*
X120492Y189492D02*
X120492Y194508D01*
X125508Y194508D01*
X125508Y189492D01*
X125508Y191633D02*
X120492Y191633D01*
X120492Y193774D02*
X125508Y193774D01*
X130492Y189492D02*
X135508Y189492D01*
X130492Y189492D02*
X130492Y194508D01*
X135508Y194508D01*
X135508Y189492D01*
X135508Y191633D02*
X130492Y191633D01*
X130492Y193774D02*
X135508Y193774D01*
X104508Y164508D02*
X104508Y159492D01*
X99492Y159492D01*
X99492Y164508D01*
X104508Y164508D01*
X104508Y161633D02*
X99492Y161633D01*
X99492Y163774D02*
X104508Y163774D01*
X104508Y169492D02*
X104508Y174508D01*
X104508Y169492D02*
X99492Y169492D01*
X99492Y174508D01*
X104508Y174508D01*
X104508Y171633D02*
X99492Y171633D01*
X99492Y173774D02*
X104508Y173774D01*
X138492Y153508D02*
X143508Y153508D01*
X143508Y148492D01*
X138492Y148492D01*
X138492Y153508D01*
X138492Y150633D02*
X143508Y150633D01*
X143508Y152774D02*
X138492Y152774D01*
X133508Y153508D02*
X128492Y153508D01*
X133508Y153508D02*
X133508Y148492D01*
X128492Y148492D01*
X128492Y153508D01*
X128492Y150633D02*
X133508Y150633D01*
X133508Y152774D02*
X128492Y152774D01*
D14*
X35844Y623997D02*
X35844Y629589D01*
X35844Y623997D02*
X24156Y623997D01*
X24156Y629589D01*
X35844Y629589D01*
X35844Y626166D02*
X24156Y626166D01*
X24156Y628335D02*
X35844Y628335D01*
X35844Y634411D02*
X35844Y640003D01*
X35844Y634411D02*
X24156Y634411D01*
X24156Y640003D01*
X35844Y640003D01*
X35844Y636580D02*
X24156Y636580D01*
X24156Y638749D02*
X35844Y638749D01*
D13*
X10492Y611508D02*
X10492Y606492D01*
X10492Y611508D02*
X15508Y611508D01*
X15508Y606492D01*
X10492Y606492D01*
X10492Y608633D02*
X15508Y608633D01*
X15508Y610774D02*
X10492Y610774D01*
X10492Y601508D02*
X10492Y596492D01*
X10492Y601508D02*
X15508Y601508D01*
X15508Y596492D01*
X10492Y596492D01*
X10492Y598633D02*
X15508Y598633D01*
X15508Y600774D02*
X10492Y600774D01*
X10492Y634492D02*
X10492Y639508D01*
X15508Y639508D01*
X15508Y634492D01*
X10492Y634492D01*
X10492Y636633D02*
X15508Y636633D01*
X15508Y638774D02*
X10492Y638774D01*
X10492Y629508D02*
X10492Y624492D01*
X10492Y629508D02*
X15508Y629508D01*
X15508Y624492D01*
X10492Y624492D01*
X10492Y626633D02*
X15508Y626633D01*
X15508Y628774D02*
X10492Y628774D01*
D22*
X182700Y528400D03*
X157300Y528400D03*
X182700Y503000D03*
X157300Y503000D03*
X182700Y477600D03*
X157300Y477600D03*
X88900Y672700D03*
X88900Y647300D03*
X114300Y672700D03*
X139700Y672700D03*
X139700Y647300D03*
D23*
X159024Y624024D02*
X165976Y624024D01*
X159024Y624024D02*
X159024Y631976D01*
X165976Y631976D01*
X165976Y624024D01*
X165976Y626226D02*
X159024Y626226D01*
X159024Y628428D02*
X165976Y628428D01*
X165976Y630630D02*
X159024Y630630D01*
X178024Y624024D02*
X184976Y624024D01*
X178024Y624024D02*
X178024Y631976D01*
X184976Y631976D01*
X184976Y624024D01*
X184976Y626226D02*
X178024Y626226D01*
X178024Y628428D02*
X184976Y628428D01*
X184976Y630630D02*
X178024Y630630D01*
X175476Y603024D02*
X168524Y603024D01*
X168524Y610976D01*
X175476Y610976D01*
X175476Y603024D01*
X175476Y605226D02*
X168524Y605226D01*
X168524Y607428D02*
X175476Y607428D01*
X175476Y609630D02*
X168524Y609630D01*
D24*
X161379Y418229D02*
X163827Y415781D01*
X158199Y410153D01*
X155751Y412601D01*
X161379Y418229D01*
X160392Y412346D02*
X156006Y412346D01*
X157689Y414539D02*
X162585Y414539D01*
X162876Y416732D02*
X159882Y416732D01*
X158170Y421437D02*
X155722Y423885D01*
X158170Y421437D02*
X152542Y415809D01*
X150094Y418257D01*
X155722Y423885D01*
X154735Y418002D02*
X150349Y418002D01*
X152032Y420195D02*
X156928Y420195D01*
X157219Y422388D02*
X154225Y422388D01*
X152513Y427094D02*
X150065Y429542D01*
X152513Y427094D02*
X146885Y421466D01*
X144437Y423914D01*
X150065Y429542D01*
X149078Y423659D02*
X144692Y423659D01*
X146375Y425852D02*
X151271Y425852D01*
X151562Y428045D02*
X148568Y428045D01*
X146856Y432751D02*
X144408Y435199D01*
X146856Y432751D02*
X141228Y427123D01*
X138780Y429571D01*
X144408Y435199D01*
X143421Y429316D02*
X139035Y429316D01*
X140718Y431509D02*
X145614Y431509D01*
X145905Y433702D02*
X142911Y433702D01*
X141199Y438408D02*
X138751Y440856D01*
X141199Y438408D02*
X135571Y432780D01*
X133123Y435228D01*
X138751Y440856D01*
X137764Y434973D02*
X133378Y434973D01*
X135061Y437166D02*
X139957Y437166D01*
X140248Y439359D02*
X137254Y439359D01*
X135542Y444065D02*
X133094Y446513D01*
X135542Y444065D02*
X129914Y438437D01*
X127466Y440885D01*
X133094Y446513D01*
X132107Y440630D02*
X127721Y440630D01*
X129404Y442823D02*
X134300Y442823D01*
X134591Y445016D02*
X131597Y445016D01*
X129885Y449722D02*
X127437Y452170D01*
X129885Y449722D02*
X124257Y444094D01*
X121809Y446542D01*
X127437Y452170D01*
X126450Y446287D02*
X122064Y446287D01*
X123747Y448480D02*
X128643Y448480D01*
X128934Y450673D02*
X125940Y450673D01*
X124229Y455379D02*
X121781Y457827D01*
X124229Y455379D02*
X118601Y449751D01*
X116153Y452199D01*
X121781Y457827D01*
X120794Y451944D02*
X116408Y451944D01*
X118091Y454137D02*
X122987Y454137D01*
X123278Y456330D02*
X120284Y456330D01*
X133801Y469847D02*
X136249Y467399D01*
X130621Y461771D01*
X128173Y464219D01*
X133801Y469847D01*
X132814Y463964D02*
X128428Y463964D01*
X130111Y466157D02*
X135007Y466157D01*
X135298Y468350D02*
X132304Y468350D01*
X139458Y464191D02*
X141906Y461743D01*
X136278Y456115D01*
X133830Y458563D01*
X139458Y464191D01*
X138471Y458308D02*
X134085Y458308D01*
X135768Y460501D02*
X140664Y460501D01*
X140955Y462694D02*
X137961Y462694D01*
X145115Y458534D02*
X147563Y456086D01*
X141935Y450458D01*
X139487Y452906D01*
X145115Y458534D01*
X144128Y452651D02*
X139742Y452651D01*
X141425Y454844D02*
X146321Y454844D01*
X146612Y457037D02*
X143618Y457037D01*
X150772Y452877D02*
X153220Y450429D01*
X147592Y444801D01*
X145144Y447249D01*
X150772Y452877D01*
X149785Y446994D02*
X145399Y446994D01*
X147082Y449187D02*
X151978Y449187D01*
X152269Y451380D02*
X149275Y451380D01*
X156429Y447220D02*
X158877Y444772D01*
X153249Y439144D01*
X150801Y441592D01*
X156429Y447220D01*
X155442Y441337D02*
X151056Y441337D01*
X152739Y443530D02*
X157635Y443530D01*
X157926Y445723D02*
X154932Y445723D01*
X162086Y441563D02*
X164534Y439115D01*
X158906Y433487D01*
X156458Y435935D01*
X162086Y441563D01*
X161099Y435680D02*
X156713Y435680D01*
X158396Y437873D02*
X163292Y437873D01*
X163583Y440066D02*
X160589Y440066D01*
X167743Y435906D02*
X170191Y433458D01*
X164563Y427830D01*
X162115Y430278D01*
X167743Y435906D01*
X166756Y430023D02*
X162370Y430023D01*
X164053Y432216D02*
X168949Y432216D01*
X169240Y434409D02*
X166246Y434409D01*
X173399Y430249D02*
X175847Y427801D01*
X170219Y422173D01*
X167771Y424621D01*
X173399Y430249D01*
X172412Y424366D02*
X168026Y424366D01*
X169709Y426559D02*
X174605Y426559D01*
X174896Y428752D02*
X171902Y428752D01*
X106219Y457827D02*
X103771Y455379D01*
X106219Y457827D02*
X111847Y452199D01*
X109399Y449751D01*
X103771Y455379D01*
X107206Y451944D02*
X111592Y451944D01*
X109909Y454137D02*
X105013Y454137D01*
X104722Y456330D02*
X107716Y456330D01*
X100563Y452170D02*
X98115Y449722D01*
X100563Y452170D02*
X106191Y446542D01*
X103743Y444094D01*
X98115Y449722D01*
X101550Y446287D02*
X105936Y446287D01*
X104253Y448480D02*
X99357Y448480D01*
X99066Y450673D02*
X102060Y450673D01*
X94906Y446513D02*
X92458Y444065D01*
X94906Y446513D02*
X100534Y440885D01*
X98086Y438437D01*
X92458Y444065D01*
X95893Y440630D02*
X100279Y440630D01*
X98596Y442823D02*
X93700Y442823D01*
X93409Y445016D02*
X96403Y445016D01*
X89249Y440856D02*
X86801Y438408D01*
X89249Y440856D02*
X94877Y435228D01*
X92429Y432780D01*
X86801Y438408D01*
X90236Y434973D02*
X94622Y434973D01*
X92939Y437166D02*
X88043Y437166D01*
X87752Y439359D02*
X90746Y439359D01*
X83592Y435199D02*
X81144Y432751D01*
X83592Y435199D02*
X89220Y429571D01*
X86772Y427123D01*
X81144Y432751D01*
X84579Y429316D02*
X88965Y429316D01*
X87282Y431509D02*
X82386Y431509D01*
X82095Y433702D02*
X85089Y433702D01*
X77935Y429542D02*
X75487Y427094D01*
X77935Y429542D02*
X83563Y423914D01*
X81115Y421466D01*
X75487Y427094D01*
X78922Y423659D02*
X83308Y423659D01*
X81625Y425852D02*
X76729Y425852D01*
X76438Y428045D02*
X79432Y428045D01*
X72278Y423885D02*
X69830Y421437D01*
X72278Y423885D02*
X77906Y418257D01*
X75458Y415809D01*
X69830Y421437D01*
X73265Y418002D02*
X77651Y418002D01*
X75968Y420195D02*
X71072Y420195D01*
X70781Y422388D02*
X73775Y422388D01*
X66621Y418229D02*
X64173Y415781D01*
X66621Y418229D02*
X72249Y412601D01*
X69801Y410153D01*
X64173Y415781D01*
X67608Y412346D02*
X71994Y412346D01*
X70311Y414539D02*
X65415Y414539D01*
X65124Y416732D02*
X68118Y416732D01*
X54601Y430249D02*
X52153Y427801D01*
X54601Y430249D02*
X60229Y424621D01*
X57781Y422173D01*
X52153Y427801D01*
X55588Y424366D02*
X59974Y424366D01*
X58291Y426559D02*
X53395Y426559D01*
X53104Y428752D02*
X56098Y428752D01*
X57809Y433458D02*
X60257Y435906D01*
X65885Y430278D01*
X63437Y427830D01*
X57809Y433458D01*
X61244Y430023D02*
X65630Y430023D01*
X63947Y432216D02*
X59051Y432216D01*
X58760Y434409D02*
X61754Y434409D01*
X63466Y439115D02*
X65914Y441563D01*
X71542Y435935D01*
X69094Y433487D01*
X63466Y439115D01*
X66901Y435680D02*
X71287Y435680D01*
X69604Y437873D02*
X64708Y437873D01*
X64417Y440066D02*
X67411Y440066D01*
X69123Y444772D02*
X71571Y447220D01*
X77199Y441592D01*
X74751Y439144D01*
X69123Y444772D01*
X72558Y441337D02*
X76944Y441337D01*
X75261Y443530D02*
X70365Y443530D01*
X70074Y445723D02*
X73068Y445723D01*
X74780Y450429D02*
X77228Y452877D01*
X82856Y447249D01*
X80408Y444801D01*
X74780Y450429D01*
X78215Y446994D02*
X82601Y446994D01*
X80918Y449187D02*
X76022Y449187D01*
X75731Y451380D02*
X78725Y451380D01*
X80437Y456086D02*
X82885Y458534D01*
X88513Y452906D01*
X86065Y450458D01*
X80437Y456086D01*
X83872Y452651D02*
X88258Y452651D01*
X86575Y454844D02*
X81679Y454844D01*
X81388Y457037D02*
X84382Y457037D01*
X86094Y461743D02*
X88542Y464191D01*
X94170Y458563D01*
X91722Y456115D01*
X86094Y461743D01*
X89529Y458308D02*
X93915Y458308D01*
X92232Y460501D02*
X87336Y460501D01*
X87045Y462694D02*
X90039Y462694D01*
X91751Y467399D02*
X94199Y469847D01*
X99827Y464219D01*
X97379Y461771D01*
X91751Y467399D01*
X95186Y463964D02*
X99572Y463964D01*
X97889Y466157D02*
X92993Y466157D01*
X92702Y468350D02*
X95696Y468350D01*
X97379Y348229D02*
X99827Y345781D01*
X94199Y340153D01*
X91751Y342601D01*
X97379Y348229D01*
X96392Y342346D02*
X92006Y342346D01*
X93689Y344539D02*
X98585Y344539D01*
X98876Y346732D02*
X95882Y346732D01*
X94170Y351437D02*
X91722Y353885D01*
X94170Y351437D02*
X88542Y345809D01*
X86094Y348257D01*
X91722Y353885D01*
X90735Y348002D02*
X86349Y348002D01*
X88032Y350195D02*
X92928Y350195D01*
X93219Y352388D02*
X90225Y352388D01*
X88513Y357094D02*
X86065Y359542D01*
X88513Y357094D02*
X82885Y351466D01*
X80437Y353914D01*
X86065Y359542D01*
X85078Y353659D02*
X80692Y353659D01*
X82375Y355852D02*
X87271Y355852D01*
X87562Y358045D02*
X84568Y358045D01*
X82856Y362751D02*
X80408Y365199D01*
X82856Y362751D02*
X77228Y357123D01*
X74780Y359571D01*
X80408Y365199D01*
X79421Y359316D02*
X75035Y359316D01*
X76718Y361509D02*
X81614Y361509D01*
X81905Y363702D02*
X78911Y363702D01*
X77199Y368408D02*
X74751Y370856D01*
X77199Y368408D02*
X71571Y362780D01*
X69123Y365228D01*
X74751Y370856D01*
X73764Y364973D02*
X69378Y364973D01*
X71061Y367166D02*
X75957Y367166D01*
X76248Y369359D02*
X73254Y369359D01*
X71542Y374065D02*
X69094Y376513D01*
X71542Y374065D02*
X65914Y368437D01*
X63466Y370885D01*
X69094Y376513D01*
X68107Y370630D02*
X63721Y370630D01*
X65404Y372823D02*
X70300Y372823D01*
X70591Y375016D02*
X67597Y375016D01*
X65885Y379722D02*
X63437Y382170D01*
X65885Y379722D02*
X60257Y374094D01*
X57809Y376542D01*
X63437Y382170D01*
X62450Y376287D02*
X58064Y376287D01*
X59747Y378480D02*
X64643Y378480D01*
X64934Y380673D02*
X61940Y380673D01*
X60229Y385379D02*
X57781Y387827D01*
X60229Y385379D02*
X54601Y379751D01*
X52153Y382199D01*
X57781Y387827D01*
X56794Y381944D02*
X52408Y381944D01*
X54091Y384137D02*
X58987Y384137D01*
X59278Y386330D02*
X56284Y386330D01*
X69801Y399847D02*
X72249Y397399D01*
X66621Y391771D01*
X64173Y394219D01*
X69801Y399847D01*
X68814Y393964D02*
X64428Y393964D01*
X66111Y396157D02*
X71007Y396157D01*
X71298Y398350D02*
X68304Y398350D01*
X75458Y394191D02*
X77906Y391743D01*
X72278Y386115D01*
X69830Y388563D01*
X75458Y394191D01*
X74471Y388308D02*
X70085Y388308D01*
X71768Y390501D02*
X76664Y390501D01*
X76955Y392694D02*
X73961Y392694D01*
X81115Y388534D02*
X83563Y386086D01*
X77935Y380458D01*
X75487Y382906D01*
X81115Y388534D01*
X80128Y382651D02*
X75742Y382651D01*
X77425Y384844D02*
X82321Y384844D01*
X82612Y387037D02*
X79618Y387037D01*
X86772Y382877D02*
X89220Y380429D01*
X83592Y374801D01*
X81144Y377249D01*
X86772Y382877D01*
X85785Y376994D02*
X81399Y376994D01*
X83082Y379187D02*
X87978Y379187D01*
X88269Y381380D02*
X85275Y381380D01*
X92429Y377220D02*
X94877Y374772D01*
X89249Y369144D01*
X86801Y371592D01*
X92429Y377220D01*
X91442Y371337D02*
X87056Y371337D01*
X88739Y373530D02*
X93635Y373530D01*
X93926Y375723D02*
X90932Y375723D01*
X98086Y371563D02*
X100534Y369115D01*
X94906Y363487D01*
X92458Y365935D01*
X98086Y371563D01*
X97099Y365680D02*
X92713Y365680D01*
X94396Y367873D02*
X99292Y367873D01*
X99583Y370066D02*
X96589Y370066D01*
X103743Y365906D02*
X106191Y363458D01*
X100563Y357830D01*
X98115Y360278D01*
X103743Y365906D01*
X102756Y360023D02*
X98370Y360023D01*
X100053Y362216D02*
X104949Y362216D01*
X105240Y364409D02*
X102246Y364409D01*
X109399Y360249D02*
X111847Y357801D01*
X106219Y352173D01*
X103771Y354621D01*
X109399Y360249D01*
X108412Y354366D02*
X104026Y354366D01*
X105709Y356559D02*
X110605Y356559D01*
X110896Y358752D02*
X107902Y358752D01*
X121781Y352173D02*
X124229Y354621D01*
X121781Y352173D02*
X116153Y357801D01*
X118601Y360249D01*
X124229Y354621D01*
X123974Y354366D02*
X119588Y354366D01*
X117395Y356559D02*
X122291Y356559D01*
X120098Y358752D02*
X117104Y358752D01*
X127437Y357830D02*
X129885Y360278D01*
X127437Y357830D02*
X121809Y363458D01*
X124257Y365906D01*
X129885Y360278D01*
X129630Y360023D02*
X125244Y360023D01*
X123051Y362216D02*
X127947Y362216D01*
X125754Y364409D02*
X122760Y364409D01*
X133094Y363487D02*
X135542Y365935D01*
X133094Y363487D02*
X127466Y369115D01*
X129914Y371563D01*
X135542Y365935D01*
X135287Y365680D02*
X130901Y365680D01*
X128708Y367873D02*
X133604Y367873D01*
X131411Y370066D02*
X128417Y370066D01*
X138751Y369144D02*
X141199Y371592D01*
X138751Y369144D02*
X133123Y374772D01*
X135571Y377220D01*
X141199Y371592D01*
X140944Y371337D02*
X136558Y371337D01*
X134365Y373530D02*
X139261Y373530D01*
X137068Y375723D02*
X134074Y375723D01*
X144408Y374801D02*
X146856Y377249D01*
X144408Y374801D02*
X138780Y380429D01*
X141228Y382877D01*
X146856Y377249D01*
X146601Y376994D02*
X142215Y376994D01*
X140022Y379187D02*
X144918Y379187D01*
X142725Y381380D02*
X139731Y381380D01*
X150065Y380458D02*
X152513Y382906D01*
X150065Y380458D02*
X144437Y386086D01*
X146885Y388534D01*
X152513Y382906D01*
X152258Y382651D02*
X147872Y382651D01*
X145679Y384844D02*
X150575Y384844D01*
X148382Y387037D02*
X145388Y387037D01*
X155722Y386115D02*
X158170Y388563D01*
X155722Y386115D02*
X150094Y391743D01*
X152542Y394191D01*
X158170Y388563D01*
X157915Y388308D02*
X153529Y388308D01*
X151336Y390501D02*
X156232Y390501D01*
X154039Y392694D02*
X151045Y392694D01*
X161379Y391771D02*
X163827Y394219D01*
X161379Y391771D02*
X155751Y397399D01*
X158199Y399847D01*
X163827Y394219D01*
X163572Y393964D02*
X159186Y393964D01*
X156993Y396157D02*
X161889Y396157D01*
X159696Y398350D02*
X156702Y398350D01*
X173399Y379751D02*
X175847Y382199D01*
X173399Y379751D02*
X167771Y385379D01*
X170219Y387827D01*
X175847Y382199D01*
X175592Y381944D02*
X171206Y381944D01*
X169013Y384137D02*
X173909Y384137D01*
X171716Y386330D02*
X168722Y386330D01*
X170191Y376542D02*
X167743Y374094D01*
X162115Y379722D01*
X164563Y382170D01*
X170191Y376542D01*
X169936Y376287D02*
X165550Y376287D01*
X163357Y378480D02*
X168253Y378480D01*
X166060Y380673D02*
X163066Y380673D01*
X164534Y370885D02*
X162086Y368437D01*
X156458Y374065D01*
X158906Y376513D01*
X164534Y370885D01*
X164279Y370630D02*
X159893Y370630D01*
X157700Y372823D02*
X162596Y372823D01*
X160403Y375016D02*
X157409Y375016D01*
X158877Y365228D02*
X156429Y362780D01*
X150801Y368408D01*
X153249Y370856D01*
X158877Y365228D01*
X158622Y364973D02*
X154236Y364973D01*
X152043Y367166D02*
X156939Y367166D01*
X154746Y369359D02*
X151752Y369359D01*
X153220Y359571D02*
X150772Y357123D01*
X145144Y362751D01*
X147592Y365199D01*
X153220Y359571D01*
X152965Y359316D02*
X148579Y359316D01*
X146386Y361509D02*
X151282Y361509D01*
X149089Y363702D02*
X146095Y363702D01*
X147563Y353914D02*
X145115Y351466D01*
X139487Y357094D01*
X141935Y359542D01*
X147563Y353914D01*
X147308Y353659D02*
X142922Y353659D01*
X140729Y355852D02*
X145625Y355852D01*
X143432Y358045D02*
X140438Y358045D01*
X141906Y348257D02*
X139458Y345809D01*
X133830Y351437D01*
X136278Y353885D01*
X141906Y348257D01*
X141651Y348002D02*
X137265Y348002D01*
X135072Y350195D02*
X139968Y350195D01*
X137775Y352388D02*
X134781Y352388D01*
X136249Y342601D02*
X133801Y340153D01*
X128173Y345781D01*
X130621Y348229D01*
X136249Y342601D01*
X135994Y342346D02*
X131608Y342346D01*
X129415Y344539D02*
X134311Y344539D01*
X132118Y346732D02*
X129124Y346732D01*
D22*
X50800Y673100D03*
D25*
X38100Y457200D03*
D22*
X203200Y596900D03*
D26*
X25400Y406400D03*
D22*
X203200Y647700D03*
X63500Y609600D03*
X203200Y622300D03*
X203200Y673100D03*
D17*
X25400Y558800D03*
X203200Y558800D03*
D27*
X58500Y169450D03*
X63500Y169450D03*
X68500Y169450D03*
X73500Y169450D03*
X73500Y154550D03*
X68500Y154550D03*
X63500Y154550D03*
X58500Y154550D03*
D23*
X93476Y158524D02*
X93476Y165476D01*
X93476Y158524D02*
X82524Y158524D01*
X82524Y165476D01*
X93476Y165476D01*
X93476Y160726D02*
X82524Y160726D01*
X82524Y162928D02*
X93476Y162928D01*
X93476Y165130D02*
X82524Y165130D01*
X93476Y176524D02*
X93476Y183476D01*
X93476Y176524D02*
X82524Y176524D01*
X82524Y183476D01*
X93476Y183476D01*
X93476Y178726D02*
X82524Y178726D01*
X82524Y180928D02*
X93476Y180928D01*
X93476Y183130D02*
X82524Y183130D01*
D13*
X125492Y513992D02*
X130508Y513992D01*
X125492Y513992D02*
X125492Y519008D01*
X130508Y519008D01*
X130508Y513992D01*
X130508Y516133D02*
X125492Y516133D01*
X125492Y518274D02*
X130508Y518274D01*
X135492Y513992D02*
X140508Y513992D01*
X135492Y513992D02*
X135492Y519008D01*
X140508Y519008D01*
X140508Y513992D01*
X140508Y516133D02*
X135492Y516133D01*
X135492Y518274D02*
X140508Y518274D01*
X18508Y651492D02*
X13492Y651492D01*
X13492Y656508D01*
X18508Y656508D01*
X18508Y651492D01*
X18508Y653633D02*
X13492Y653633D01*
X13492Y655774D02*
X18508Y655774D01*
X23492Y651492D02*
X28508Y651492D01*
X23492Y651492D02*
X23492Y656508D01*
X28508Y656508D01*
X28508Y651492D01*
X28508Y653633D02*
X23492Y653633D01*
X23492Y655774D02*
X28508Y655774D01*
X151508Y620508D02*
X151508Y615492D01*
X146492Y615492D01*
X146492Y620508D01*
X151508Y620508D01*
X151508Y617633D02*
X146492Y617633D01*
X146492Y619774D02*
X151508Y619774D01*
X151508Y625492D02*
X151508Y630508D01*
X151508Y625492D02*
X146492Y625492D01*
X146492Y630508D01*
X151508Y630508D01*
X151508Y627633D02*
X146492Y627633D01*
X146492Y629774D02*
X151508Y629774D01*
D23*
X163476Y165976D02*
X163476Y159024D01*
X152524Y159024D01*
X152524Y165976D01*
X163476Y165976D01*
X163476Y161226D02*
X152524Y161226D01*
X152524Y163428D02*
X163476Y163428D01*
X163476Y165630D02*
X152524Y165630D01*
X163476Y177024D02*
X163476Y183976D01*
X163476Y177024D02*
X152524Y177024D01*
X152524Y183976D01*
X163476Y183976D01*
X163476Y179226D02*
X152524Y179226D01*
X152524Y181428D02*
X163476Y181428D01*
X163476Y183630D02*
X152524Y183630D01*
D13*
X36508Y407992D02*
X31492Y407992D01*
X31492Y413008D01*
X36508Y413008D01*
X36508Y407992D01*
X36508Y410133D02*
X31492Y410133D01*
X31492Y412274D02*
X36508Y412274D01*
X41492Y407992D02*
X46508Y407992D01*
X41492Y407992D02*
X41492Y413008D01*
X46508Y413008D01*
X46508Y407992D01*
X46508Y410133D02*
X41492Y410133D01*
X41492Y412274D02*
X46508Y412274D01*
X36508Y396992D02*
X31492Y396992D01*
X31492Y402008D01*
X36508Y402008D01*
X36508Y396992D01*
X36508Y399133D02*
X31492Y399133D01*
X31492Y401274D02*
X36508Y401274D01*
X41492Y396992D02*
X46508Y396992D01*
X41492Y396992D02*
X41492Y402008D01*
X46508Y402008D01*
X46508Y396992D01*
X46508Y399133D02*
X41492Y399133D01*
X41492Y401274D02*
X46508Y401274D01*
X36508Y385992D02*
X31492Y385992D01*
X31492Y391008D01*
X36508Y391008D01*
X36508Y385992D01*
X36508Y388133D02*
X31492Y388133D01*
X31492Y390274D02*
X36508Y390274D01*
X41492Y385992D02*
X46508Y385992D01*
X41492Y385992D02*
X41492Y391008D01*
X46508Y391008D01*
X46508Y385992D01*
X46508Y388133D02*
X41492Y388133D01*
X41492Y390274D02*
X46508Y390274D01*
D26*
X190500Y419100D03*
D14*
X122303Y622844D02*
X116711Y622844D01*
X122303Y622844D02*
X122303Y611156D01*
X116711Y611156D01*
X116711Y622844D01*
X116711Y613325D02*
X122303Y613325D01*
X122303Y615494D02*
X116711Y615494D01*
X116711Y617663D02*
X122303Y617663D01*
X122303Y619832D02*
X116711Y619832D01*
X116711Y622001D02*
X122303Y622001D01*
X111889Y622844D02*
X106297Y622844D01*
X111889Y622844D02*
X111889Y611156D01*
X106297Y611156D01*
X106297Y622844D01*
X106297Y613325D02*
X111889Y613325D01*
X111889Y615494D02*
X106297Y615494D01*
X106297Y617663D02*
X111889Y617663D01*
X111889Y619832D02*
X106297Y619832D01*
X106297Y622001D02*
X111889Y622001D01*
D13*
X36508Y374992D02*
X31492Y374992D01*
X31492Y380008D01*
X36508Y380008D01*
X36508Y374992D01*
X36508Y377133D02*
X31492Y377133D01*
X31492Y379274D02*
X36508Y379274D01*
X41492Y374992D02*
X46508Y374992D01*
X41492Y374992D02*
X41492Y380008D01*
X46508Y380008D01*
X46508Y374992D01*
X46508Y377133D02*
X41492Y377133D01*
X41492Y379274D02*
X46508Y379274D01*
X36508Y418992D02*
X31492Y418992D01*
X31492Y424008D01*
X36508Y424008D01*
X36508Y418992D01*
X36508Y421133D02*
X31492Y421133D01*
X31492Y423274D02*
X36508Y423274D01*
X41492Y418992D02*
X46508Y418992D01*
X41492Y418992D02*
X41492Y424008D01*
X46508Y424008D01*
X46508Y418992D01*
X46508Y421133D02*
X41492Y421133D01*
X41492Y423274D02*
X46508Y423274D01*
D14*
X76344Y215589D02*
X76344Y209997D01*
X64656Y209997D01*
X64656Y215589D01*
X76344Y215589D01*
X76344Y212166D02*
X64656Y212166D01*
X64656Y214335D02*
X76344Y214335D01*
X76344Y220411D02*
X76344Y226003D01*
X76344Y220411D02*
X64656Y220411D01*
X64656Y226003D01*
X76344Y226003D01*
X76344Y222580D02*
X64656Y222580D01*
X64656Y224749D02*
X76344Y224749D01*
D13*
X181992Y412508D02*
X187008Y412508D01*
X187008Y407492D01*
X181992Y407492D01*
X181992Y412508D01*
X181992Y409633D02*
X187008Y409633D01*
X187008Y411774D02*
X181992Y411774D01*
X177008Y412508D02*
X171992Y412508D01*
X177008Y412508D02*
X177008Y407492D01*
X171992Y407492D01*
X171992Y412508D01*
X171992Y409633D02*
X177008Y409633D01*
X177008Y411774D02*
X171992Y411774D01*
X181992Y402008D02*
X187008Y402008D01*
X187008Y396992D01*
X181992Y396992D01*
X181992Y402008D01*
X181992Y399133D02*
X187008Y399133D01*
X187008Y401274D02*
X181992Y401274D01*
X177008Y402008D02*
X171992Y402008D01*
X177008Y402008D02*
X177008Y396992D01*
X171992Y396992D01*
X171992Y402008D01*
X171992Y399133D02*
X177008Y399133D01*
X177008Y401274D02*
X171992Y401274D01*
X135492Y625492D02*
X135492Y630508D01*
X140508Y630508D01*
X140508Y625492D01*
X135492Y625492D01*
X135492Y627633D02*
X140508Y627633D01*
X140508Y629774D02*
X135492Y629774D01*
X135492Y620508D02*
X135492Y615492D01*
X135492Y620508D02*
X140508Y620508D01*
X140508Y615492D01*
X135492Y615492D01*
X135492Y617633D02*
X140508Y617633D01*
X140508Y619774D02*
X135492Y619774D01*
M02*
