G04 EAGLE Gerber RS-274X export*
G75*
%MOMM*%
%FSLAX34Y34*%
%LPD*%
%INInner Layer 14*%
%IPPOS*%
%AMOC8*
5,1,8,0,0,1.08239X$1,22.5*%
G01*
%ADD10C,0.152400*%
%ADD11C,1.524000*%
%ADD12C,0.554000*%
%ADD13C,0.600000*%
%ADD14C,0.454000*%
%ADD15C,0.150000*%
%ADD16C,0.200000*%


D10*
X207529Y54238D02*
X205646Y47646D01*
X210354Y47646D01*
X208942Y49529D02*
X208942Y45762D01*
D11*
X215900Y520700D03*
X215900Y495300D03*
X215900Y469900D03*
X215900Y444500D03*
X215900Y419100D03*
X215900Y393700D03*
X215900Y368300D03*
X215900Y342900D03*
X215900Y317500D03*
X215900Y292100D03*
X215900Y266700D03*
X215900Y241300D03*
X215900Y215900D03*
X215900Y190500D03*
X215900Y165100D03*
X215900Y139700D03*
X12700Y241300D03*
X12700Y266700D03*
X12700Y292100D03*
X12700Y317500D03*
X12700Y342900D03*
X12700Y368300D03*
X12700Y393700D03*
X12700Y419100D03*
X12700Y444500D03*
X12700Y469900D03*
X12700Y495300D03*
X12700Y520700D03*
D12*
X60500Y197000D03*
X68500Y197000D03*
X76500Y197000D03*
X84500Y197000D03*
X94500Y42500D03*
X94500Y48500D03*
X134500Y48500D03*
X134500Y42500D03*
X59500Y146000D03*
X114300Y102500D03*
X149000Y154000D03*
X161000Y154000D03*
X152000Y149000D03*
X158000Y149000D03*
X35000Y646000D03*
X120000Y346500D03*
X120500Y490500D03*
X200000Y432500D03*
X199500Y360000D03*
D13*
X215900Y165100D02*
X166100Y165100D01*
X155000Y154000D01*
D12*
X32000Y89520D03*
X51570Y443500D03*
X101000Y421000D03*
X128000Y421000D03*
X128000Y387000D03*
X101000Y387000D03*
X155000Y154000D03*
X164000Y403500D03*
X186500Y316500D03*
X141000Y509000D03*
X192000Y527500D03*
D14*
X202500Y405000D03*
X162000Y513000D03*
X111000Y197500D03*
X163500Y458000D03*
D15*
X181790Y476290D02*
X196890Y476290D01*
X215900Y495300D01*
X181790Y476290D02*
X163500Y458000D01*
D14*
X170500Y458000D03*
D15*
X204000Y458000D01*
X215900Y469900D01*
D14*
X39000Y84000D03*
X45500Y227000D03*
X43336Y308164D03*
X39000Y74000D03*
X40500Y230000D03*
X38967Y312534D03*
X208500Y456000D03*
X192000Y513000D03*
X78000Y405000D03*
D15*
X198900Y301800D02*
X198900Y275300D01*
X202400Y271800D02*
X202400Y254800D01*
X215900Y241300D01*
X202400Y271800D02*
X198900Y275300D01*
X198900Y301800D02*
X193500Y307200D01*
X193500Y325500D01*
X173000Y346000D01*
X165500Y346000D01*
X156000Y355500D01*
X156000Y373520D01*
X82500Y400500D02*
X78000Y405000D01*
X82500Y400500D02*
X85500Y400500D01*
X124000Y405520D02*
X156000Y373520D01*
X124000Y405520D02*
X90520Y405520D01*
X85500Y400500D01*
D14*
X83810Y405500D03*
D15*
X88810Y414000D02*
X144000Y414000D01*
X88810Y414000D02*
X83810Y409000D01*
X83810Y405500D01*
X144000Y414000D02*
X153500Y404500D01*
X165750Y350500D02*
X174000Y350500D01*
X198500Y326000D01*
X202500Y280100D02*
X215900Y266700D01*
X165750Y350500D02*
X159000Y357250D01*
X159000Y382500D01*
X198500Y326000D02*
X198500Y310000D01*
X202500Y306000D01*
X202500Y280100D01*
X153500Y388000D02*
X153500Y404500D01*
X153500Y388000D02*
X159000Y382500D01*
D14*
X26500Y446500D03*
D15*
X37500Y451000D02*
X48500Y451000D01*
X33000Y446500D02*
X26500Y446500D01*
X33000Y446500D02*
X37500Y451000D01*
X48500Y451000D02*
X56000Y458500D01*
X111000Y458500D02*
X157500Y412000D01*
X111000Y458500D02*
X56000Y458500D01*
X202400Y327600D02*
X202400Y313100D01*
X206900Y308600D02*
X206900Y301100D01*
X215900Y292100D01*
X206900Y308600D02*
X202400Y313100D01*
X202400Y327600D02*
X176000Y354000D01*
X162000Y385000D02*
X157500Y389500D01*
X162000Y359500D02*
X167500Y354000D01*
X176000Y354000D01*
X157500Y389500D02*
X157500Y412000D01*
X162000Y385000D02*
X162000Y359500D01*
D14*
X19515Y457690D03*
D15*
X25205Y452000D01*
X33500Y452000D01*
X36500Y455000D01*
X46500Y455000D01*
X54000Y462500D01*
X113900Y462500D02*
X186500Y389900D01*
X113900Y462500D02*
X54000Y462500D01*
X186500Y389900D02*
X186500Y350400D01*
X206900Y330000D02*
X206900Y326500D01*
X215900Y317500D01*
X206900Y330000D02*
X186500Y350400D01*
D14*
X26825Y456608D03*
D15*
X32325Y456608D01*
X34825Y459108D01*
X45608Y459108D01*
X53000Y466500D01*
X114800Y466500D02*
X190000Y391300D01*
X114800Y466500D02*
X53000Y466500D01*
X190000Y391300D02*
X190000Y353000D01*
X200100Y342900D01*
X215900Y342900D01*
D14*
X24500Y462000D03*
D15*
X31000Y462000D02*
X32500Y463500D01*
X31000Y462000D02*
X24500Y462000D01*
X32500Y463500D02*
X45000Y463500D01*
X52000Y470500D01*
X115500Y470500D02*
X193900Y392100D01*
X115500Y470500D02*
X52000Y470500D01*
X193900Y392100D02*
X193900Y374800D01*
X200400Y368300D02*
X215900Y368300D01*
X200400Y368300D02*
X193900Y374800D01*
X21200Y326000D02*
X12700Y317500D01*
X96500Y336500D02*
X96500Y343500D01*
X58500Y381500D01*
X86000Y326000D02*
X21200Y326000D01*
D14*
X110500Y433000D03*
X154500Y491000D03*
D15*
X58500Y409807D02*
X58500Y381500D01*
X96500Y336500D02*
X86000Y326000D01*
X102807Y433000D02*
X100287Y435520D01*
X102807Y433000D02*
X110500Y433000D01*
X84214Y435520D02*
X58500Y409807D01*
X84214Y435520D02*
X100287Y435520D01*
D14*
X84000Y339000D03*
X78203Y341420D03*
X72000Y341420D03*
X66003Y339997D03*
D15*
X65997Y339997D01*
X57223Y335710D02*
X54710Y338223D01*
X43500Y368500D02*
X37000Y368500D01*
X32020Y373480D01*
X65997Y339997D02*
X61710Y335710D01*
X57223Y335710D01*
X54710Y338223D02*
X54710Y357290D01*
X43500Y368500D01*
X32020Y399780D02*
X12700Y419100D01*
X32020Y399780D02*
X32020Y373480D01*
D14*
X59000Y340000D03*
D15*
X25180Y441520D02*
X22200Y444500D01*
X12700Y444500D01*
X28287Y441520D02*
X32000Y437807D01*
X28287Y441520D02*
X25180Y441520D01*
X37500Y376000D02*
X43500Y376000D01*
X59000Y360500D01*
X59000Y340000D01*
X34420Y379080D02*
X34420Y404774D01*
X32000Y407194D01*
X34420Y379080D02*
X37500Y376000D01*
X32000Y407194D02*
X32000Y437807D01*
X12700Y469900D02*
X27300Y484500D01*
X114000Y484500D01*
X173000Y425500D01*
X178500Y425500D01*
X189000Y415000D01*
X189000Y404000D01*
D14*
X201500Y375000D03*
D15*
X201500Y384000D01*
X198000Y387500D01*
X198000Y395000D02*
X189000Y404000D01*
X198000Y395000D02*
X198000Y387500D01*
D14*
X180534Y434534D03*
D15*
X203900Y508700D02*
X215900Y520700D01*
X180534Y434534D02*
X170034Y434534D01*
X157284Y447284D01*
X157284Y460284D01*
X203900Y493400D02*
X203900Y508700D01*
X203900Y493400D02*
X193500Y483000D01*
X180000Y483000D01*
X157284Y460284D01*
D12*
X110500Y289500D03*
X114332Y78368D03*
X109500Y312500D03*
X68000Y118000D03*
X28000Y127000D03*
X10000Y127670D03*
X32000Y157000D03*
X25500Y184500D03*
X51500Y211000D03*
X51500Y205000D03*
X107000Y148500D03*
X100000Y148500D03*
X93000Y148500D03*
X86000Y148500D03*
X176500Y140000D03*
X100332Y83368D03*
X61500Y65000D03*
X140832Y78368D03*
X178832Y61868D03*
X51500Y158500D03*
X100500Y185500D03*
X100500Y191500D03*
X70000Y405000D03*
X26000Y436000D03*
X179000Y445500D03*
X114000Y497000D03*
X185777Y325321D03*
X201000Y352500D03*
X119500Y369000D03*
X136500Y385000D03*
X139500Y404480D03*
X97500Y430000D03*
X15500Y672000D03*
X42000Y667000D03*
X42000Y651500D03*
X42000Y637000D03*
X42000Y622000D03*
X76500Y567000D03*
X131000Y430500D03*
X152000Y604000D03*
X153000Y673000D03*
X122000Y521500D03*
X86500Y391500D03*
X48000Y504000D03*
D14*
X25500Y192000D03*
X25500Y177000D03*
X106300Y48000D03*
X117300Y48000D03*
D12*
X71100Y52826D03*
X157500Y52826D03*
X157500Y11026D03*
X71100Y11026D03*
D14*
X148000Y39500D03*
X166500Y39500D03*
X80000Y39500D03*
X62500Y39500D03*
X151000Y554500D03*
X74000Y504500D03*
X151000Y567000D03*
X151000Y542000D03*
X74500Y490500D03*
X80500Y516500D03*
X97784Y401217D03*
X172500Y496000D03*
X195000Y470000D03*
X169000Y490500D03*
X197500Y500000D03*
X192500Y607000D03*
X122000Y575500D03*
X137000Y575500D03*
D12*
X26000Y427000D03*
D14*
X57000Y595500D03*
X97000Y504500D03*
X192500Y637000D03*
X103000Y511000D03*
X192500Y666500D03*
X180000Y463000D03*
X192500Y622000D03*
X179536Y452697D03*
D12*
X51700Y397500D03*
X53080Y414080D03*
D14*
X91500Y314000D03*
X103500Y302500D03*
X89000Y300000D03*
X82000Y300000D03*
X89000Y293000D03*
X57000Y268000D03*
X40000Y285000D03*
X74000Y252000D03*
X102000Y279000D03*
X66000Y311500D03*
X117500Y302500D03*
X129000Y313500D03*
X164500Y265500D03*
X180000Y282000D03*
X147000Y249000D03*
X118500Y279000D03*
X151500Y311000D03*
D12*
X108000Y346500D03*
X108000Y490500D03*
X48000Y333000D03*
X57500Y540500D03*
D16*
X130000Y190500D02*
X215900Y190500D01*
X130000Y190500D02*
X85000Y235500D01*
D12*
X85000Y235500D03*
D14*
X174000Y367000D03*
X168500Y364500D03*
X161074Y340574D03*
X199500Y400000D03*
X180500Y377000D03*
X180500Y385000D03*
X66500Y75000D03*
X202790Y390000D03*
X186500Y309000D03*
X208000Y122500D03*
X199000Y410000D03*
X192500Y651500D03*
X17040Y127500D03*
X145469Y398469D03*
X179717Y329717D03*
X166000Y389500D03*
D12*
X61004Y444025D03*
D16*
X67479Y450500D01*
X105000Y450500D02*
X120000Y435500D01*
X120000Y429000D01*
X114500Y423500D01*
D12*
X114500Y423500D03*
X133000Y201500D03*
D16*
X105000Y450500D02*
X67479Y450500D01*
D14*
X30500Y227000D03*
X63500Y345710D03*
D15*
X30500Y253606D02*
X30500Y227000D01*
X25000Y259106D02*
X25000Y305000D01*
D14*
X25000Y305000D03*
D15*
X25000Y259106D02*
X30500Y253606D01*
D14*
X85500Y419500D03*
X29000Y467000D03*
X13000Y590000D03*
X86500Y495500D03*
X36500Y590000D03*
X81500Y490500D03*
X22000Y591000D03*
X35500Y673000D03*
X13000Y616500D03*
X93500Y490000D03*
X139000Y362500D03*
X149210Y318828D03*
X147000Y370500D03*
X142217Y470784D03*
X149500Y460500D03*
X92000Y499000D03*
X55500Y373000D03*
X59500Y368500D03*
X63500Y364000D03*
X67500Y359500D03*
X72000Y354500D03*
X173000Y450000D03*
X172000Y443500D03*
X51270Y377000D03*
X51500Y150500D03*
X67500Y350000D03*
D15*
X44980Y157214D02*
X51597Y150597D01*
X51500Y150500D01*
X44980Y157214D02*
X44980Y217980D01*
X51500Y224500D01*
X51500Y239000D01*
D14*
X30500Y317000D03*
D15*
X28400Y300000D02*
X28400Y262100D01*
X28400Y300000D02*
X30500Y302100D01*
X30500Y317000D01*
X28400Y262100D02*
X51500Y239000D01*
D12*
X76458Y69730D03*
D14*
X122000Y139140D03*
X129070Y339000D03*
X176000Y418500D03*
X134108Y505608D03*
X109000Y604000D03*
D12*
X26500Y390000D03*
X85000Y319230D03*
D14*
X177790Y390543D03*
X130278Y353722D03*
X134500Y358000D03*
X51270Y433000D03*
X121500Y510000D03*
X127000Y505500D03*
X134000Y498000D03*
X176165Y438882D03*
X167500Y447500D03*
M02*
