M48
;GenerationSoftware,Autodesk,EAGLE,9.6.2*%
;CreationDate,2023-12-07T16:57:07Z*%
FMAT,2
ICI,OFF
METRIC,TZ,000.000
T5C0.200
T4C0.300
T3C0.650
T2C1.016
T1C3.048
%
G90
M71
T1
X20320Y55880
X2540Y55880
X20320Y2540
X2540Y2540
T2
X21590Y34290
X21590Y36830
X21590Y39370
X21590Y41910
X21590Y44450
X21590Y46990
X21590Y49530
X21590Y52070
X1270Y24130
X21590Y13970
X21590Y16510
X1270Y49530
X1270Y46990
X1270Y44450
X1270Y41910
X1270Y39370
X1270Y36830
X1270Y34290
X1270Y31750
X1270Y29210
X21590Y19050
X21590Y29210
X21590Y31750
X1270Y52070
X21590Y21590
X1270Y26670
X21590Y24130
X21590Y26670
T3
X14320Y4753
X8540Y4753
T4
X6050Y19700
X6850Y19700
X7650Y19700
X8450Y19700
X9450Y4250
X9450Y4850
X13450Y4850
X13450Y4250
X5950Y14600
X11430Y10250
X14900Y15400
X16100Y15400
X15200Y14900
X15800Y14900
X3500Y64600
X12000Y34650
X12050Y49050
X20000Y43250
X19950Y36000
X3200Y8952
X5157Y44350
X10100Y42100
X12800Y42100
X12800Y38700
X10100Y38700
X15500Y15400
X16400Y40350
X18650Y31650
X14100Y50900
X19200Y52750
X15750Y5283
X15750Y1103
X7110Y1103
X2600Y42700
X3200Y15700
X5170Y39750
X5308Y41408
X10800Y34650
X10800Y49050
X4800Y33300
X5750Y54050
X8500Y23550
X6100Y44403
X11450Y42350
X13300Y20150
X7646Y6973
X2650Y39000
X8500Y31923
X11050Y28950
X11433Y7837
X10950Y31250
X6800Y11800
X2800Y12700
X1000Y12767
X2550Y18450
X5150Y21100
X5150Y20500
X10700Y14850
X10000Y14850
X9300Y14850
X8600Y14850
X17650Y14000
X10033Y8337
X6150Y6500
X14083Y7837
X17883Y6187
X5150Y15850
X10050Y18550
X10050Y19150
X7000Y40500
X2600Y43600
X17900Y44550
X11400Y49700
X18578Y32532
X20100Y35250
X11950Y36900
X13650Y38500
X13950Y40448
X9750Y43000
X1550Y67200
X4200Y66700
X4200Y65150
X4200Y63700
X4200Y62200
X7650Y56700
X13100Y43050
X15200Y60400
X15300Y67300
X12200Y52150
X8650Y39150
X4800Y50400
X7110Y5283
T5
X20250Y40500
X16200Y51300
X16350Y45800
X17050Y45800
X3900Y8400
X4550Y22700
X4334Y30816
X3900Y7400
X4050Y23000
X3897Y31253
X20850Y45600
X19200Y51300
X7800Y40500
X8381Y40550
X2650Y44650
X1951Y45769
X2682Y45661
X2450Y46200
X5700Y26800
X4000Y28500
X7400Y25200
X10200Y27900
X6600Y31150
X11750Y30250
X12900Y31350
X16450Y26550
X18000Y28200
X14700Y24900
X11850Y27900
X15150Y31100
X19250Y66650
X18000Y46300
X19250Y62200
X17954Y45270
X19250Y63700
X17400Y36700
X16850Y36450
X16107Y34057
X19950Y40000
X18050Y37700
X18050Y38500
X6650Y7500
X20279Y39000
X18650Y30900
X20800Y12250
X19900Y41000
X19250Y65150
X1704Y12750
X14547Y39847
X17972Y32972
X16600Y38950
X10300Y51100
X9150Y31400
X10350Y30250
X3050Y22700
X6350Y34571
X2500Y30500
X8550Y41950
X2900Y46700
X1300Y59000
X8650Y49550
X3650Y59000
X8150Y49050
X2200Y59100
X3550Y67300
X1300Y61650
X9350Y49000
X13900Y36250
X14921Y31883
X14700Y37050
X5700Y59550
X14950Y46050
X9200Y49900
X5550Y37300
X5950Y36850
X6350Y36400
X6750Y35950
X7200Y35450
X17300Y45000
X17200Y44350
X5127Y37700
X5150Y15050
X6750Y35000
X3050Y31700
X8900Y30000
X12200Y13914
X12907Y33900
X17600Y41850
X13411Y50561
X10900Y60400
X8200Y30000
X8900Y29300
X17779Y39054
X13028Y35372
X13450Y35800
X5127Y43300
X12150Y51000
X12700Y50550
X13400Y49800
X17617Y43888
X16750Y44750
X13700Y57550
X9700Y50450
X12200Y57550
X19250Y60700
X19750Y50000
X16900Y49050
X19500Y47000
X17250Y49600
X9778Y40122
X8050Y51650
X7450Y49050
X15100Y54200
X15100Y56700
X7400Y50450
X15100Y55450
X6250Y3950
X8000Y3950
X16650Y3950
X14800Y3950
X11730Y4800
X10630Y4800
X2550Y17700
X2550Y19200
X11100Y19750
X18053Y43453
X20150Y37500
X5900Y34000
X6600Y34000
X7200Y34142
X7820Y34142
X8400Y33900
X15450Y49100
X11050Y43300
X14222Y47078
M30