G04 EAGLE Gerber RS-274X export*
G75*
%MOMM*%
%FSLAX34Y34*%
%LPD*%
%INInner Layer 2*%
%IPPOS*%
%AMOC8*
5,1,8,0,0,1.08239X$1,22.5*%
G01*
%ADD10C,0.152400*%
%ADD11C,1.524000*%
%ADD12C,0.554000*%
%ADD13C,0.454000*%

G36*
X65237Y4026D02*
X65237Y4026D01*
X65301Y4025D01*
X65376Y4046D01*
X65452Y4057D01*
X65511Y4083D01*
X65573Y4100D01*
X65639Y4141D01*
X65709Y4173D01*
X65758Y4215D01*
X65813Y4248D01*
X65865Y4306D01*
X65923Y4356D01*
X65959Y4410D01*
X66002Y4458D01*
X66035Y4527D01*
X66078Y4592D01*
X66097Y4654D01*
X66125Y4711D01*
X66136Y4781D01*
X66160Y4862D01*
X66161Y4947D01*
X66172Y5016D01*
X66172Y7644D01*
X66166Y7685D01*
X66169Y7727D01*
X66149Y7811D01*
X66132Y7923D01*
X66108Y7977D01*
X66096Y8027D01*
X65329Y9878D01*
X65329Y12174D01*
X66096Y14025D01*
X66107Y14066D01*
X66125Y14103D01*
X66138Y14188D01*
X66166Y14299D01*
X66164Y14357D01*
X66172Y14408D01*
X66172Y19029D01*
X66247Y19104D01*
X76353Y19104D01*
X76428Y19029D01*
X76428Y13442D01*
X76434Y13401D01*
X76431Y13359D01*
X76451Y13275D01*
X76468Y13163D01*
X76492Y13109D01*
X76504Y13060D01*
X76871Y12174D01*
X76871Y9878D01*
X76504Y8992D01*
X76493Y8952D01*
X76475Y8914D01*
X76462Y8829D01*
X76434Y8719D01*
X76436Y8660D01*
X76428Y8610D01*
X76428Y5016D01*
X76437Y4952D01*
X76436Y4888D01*
X76457Y4813D01*
X76468Y4737D01*
X76494Y4678D01*
X76511Y4616D01*
X76552Y4550D01*
X76584Y4480D01*
X76626Y4431D01*
X76659Y4376D01*
X76717Y4324D01*
X76767Y4266D01*
X76821Y4230D01*
X76869Y4187D01*
X76938Y4154D01*
X77003Y4111D01*
X77065Y4092D01*
X77122Y4064D01*
X77192Y4053D01*
X77273Y4029D01*
X77358Y4028D01*
X77427Y4017D01*
X151173Y4017D01*
X151237Y4026D01*
X151301Y4025D01*
X151376Y4046D01*
X151452Y4057D01*
X151511Y4083D01*
X151573Y4100D01*
X151639Y4141D01*
X151709Y4173D01*
X151758Y4215D01*
X151813Y4248D01*
X151865Y4306D01*
X151923Y4356D01*
X151959Y4410D01*
X152002Y4458D01*
X152035Y4527D01*
X152078Y4592D01*
X152097Y4654D01*
X152125Y4711D01*
X152136Y4781D01*
X152160Y4862D01*
X152161Y4947D01*
X152172Y5016D01*
X152172Y8610D01*
X152166Y8651D01*
X152169Y8693D01*
X152149Y8777D01*
X152132Y8889D01*
X152108Y8943D01*
X152096Y8992D01*
X151729Y9878D01*
X151729Y12174D01*
X152096Y13060D01*
X152107Y13100D01*
X152125Y13138D01*
X152138Y13223D01*
X152166Y13333D01*
X152164Y13392D01*
X152172Y13442D01*
X152172Y19029D01*
X152247Y19104D01*
X162353Y19104D01*
X162428Y19029D01*
X162428Y14408D01*
X162434Y14367D01*
X162431Y14325D01*
X162451Y14241D01*
X162468Y14129D01*
X162492Y14075D01*
X162504Y14025D01*
X163271Y12174D01*
X163271Y9878D01*
X162504Y8027D01*
X162493Y7986D01*
X162475Y7949D01*
X162462Y7864D01*
X162434Y7753D01*
X162436Y7695D01*
X162428Y7644D01*
X162428Y5016D01*
X162437Y4952D01*
X162436Y4888D01*
X162457Y4813D01*
X162468Y4737D01*
X162494Y4678D01*
X162511Y4616D01*
X162552Y4550D01*
X162584Y4480D01*
X162626Y4431D01*
X162659Y4376D01*
X162717Y4324D01*
X162767Y4266D01*
X162821Y4230D01*
X162869Y4187D01*
X162938Y4154D01*
X163003Y4111D01*
X163065Y4092D01*
X163122Y4064D01*
X163192Y4053D01*
X163273Y4029D01*
X163358Y4028D01*
X163427Y4017D01*
X203200Y4017D01*
X203242Y4023D01*
X203278Y4020D01*
X206467Y4271D01*
X206607Y4302D01*
X206698Y4317D01*
X212763Y6287D01*
X212765Y6288D01*
X212767Y6289D01*
X212798Y6304D01*
X213016Y6411D01*
X213028Y6423D01*
X213041Y6429D01*
X218201Y10178D01*
X218203Y10179D01*
X218205Y10181D01*
X218229Y10205D01*
X218364Y10336D01*
X218382Y10352D01*
X218386Y10357D01*
X218404Y10374D01*
X218412Y10388D01*
X218422Y10399D01*
X222171Y15559D01*
X222172Y15561D01*
X222173Y15562D01*
X222189Y15593D01*
X222303Y15808D01*
X222306Y15824D01*
X222313Y15837D01*
X224283Y21902D01*
X224308Y22044D01*
X224329Y22133D01*
X224580Y25322D01*
X224578Y25363D01*
X224583Y25400D01*
X224583Y130951D01*
X224579Y130983D01*
X224581Y131015D01*
X224575Y131045D01*
X224575Y131049D01*
X224571Y131064D01*
X224559Y131122D01*
X224543Y131230D01*
X224530Y131259D01*
X224524Y131291D01*
X224472Y131388D01*
X224427Y131487D01*
X224406Y131512D01*
X224391Y131540D01*
X224315Y131618D01*
X224244Y131701D01*
X224217Y131719D01*
X224194Y131742D01*
X224099Y131796D01*
X224008Y131856D01*
X223977Y131865D01*
X223949Y131881D01*
X223843Y131906D01*
X223738Y131938D01*
X223706Y131939D01*
X223675Y131946D01*
X223565Y131940D01*
X223456Y131942D01*
X223425Y131933D01*
X223393Y131932D01*
X223290Y131896D01*
X223184Y131867D01*
X223157Y131850D01*
X223126Y131839D01*
X223053Y131786D01*
X223021Y131766D01*
X223018Y131765D01*
X223017Y131763D01*
X222944Y131719D01*
X222912Y131683D01*
X222877Y131657D01*
X221916Y130696D01*
X218013Y129079D01*
X213787Y129079D01*
X209884Y130696D01*
X206896Y133684D01*
X205279Y137587D01*
X205279Y141813D01*
X206896Y145716D01*
X209884Y148704D01*
X213787Y150321D01*
X218013Y150321D01*
X221916Y148704D01*
X222877Y147743D01*
X222903Y147723D01*
X222924Y147699D01*
X223016Y147639D01*
X223103Y147573D01*
X223133Y147562D01*
X223160Y147544D01*
X223265Y147512D01*
X223367Y147474D01*
X223399Y147471D01*
X223430Y147462D01*
X223539Y147460D01*
X223648Y147452D01*
X223680Y147459D01*
X223712Y147458D01*
X223817Y147487D01*
X223924Y147510D01*
X223953Y147525D01*
X223984Y147533D01*
X224077Y147591D01*
X224173Y147642D01*
X224196Y147665D01*
X224224Y147681D01*
X224297Y147762D01*
X224375Y147839D01*
X224391Y147867D01*
X224413Y147891D01*
X224460Y147989D01*
X224514Y148084D01*
X224522Y148116D01*
X224536Y148145D01*
X224550Y148234D01*
X224579Y148359D01*
X224577Y148407D01*
X224583Y148449D01*
X224583Y156351D01*
X224579Y156383D01*
X224581Y156415D01*
X224559Y156522D01*
X224543Y156630D01*
X224530Y156659D01*
X224524Y156691D01*
X224472Y156788D01*
X224427Y156887D01*
X224406Y156912D01*
X224391Y156940D01*
X224315Y157018D01*
X224244Y157101D01*
X224217Y157119D01*
X224194Y157142D01*
X224099Y157196D01*
X224008Y157256D01*
X223977Y157265D01*
X223949Y157281D01*
X223843Y157306D01*
X223738Y157338D01*
X223706Y157339D01*
X223675Y157346D01*
X223565Y157340D01*
X223456Y157342D01*
X223425Y157333D01*
X223393Y157332D01*
X223290Y157296D01*
X223184Y157267D01*
X223157Y157250D01*
X223126Y157239D01*
X223053Y157186D01*
X222944Y157119D01*
X222912Y157083D01*
X222877Y157057D01*
X221916Y156096D01*
X218013Y154479D01*
X213787Y154479D01*
X209884Y156096D01*
X206896Y159084D01*
X205279Y162987D01*
X205279Y167213D01*
X206896Y171116D01*
X209884Y174104D01*
X213787Y175721D01*
X218013Y175721D01*
X221916Y174104D01*
X222877Y173143D01*
X222903Y173123D01*
X222924Y173099D01*
X223016Y173039D01*
X223103Y172973D01*
X223133Y172962D01*
X223160Y172944D01*
X223265Y172912D01*
X223367Y172874D01*
X223399Y172871D01*
X223430Y172862D01*
X223539Y172860D01*
X223648Y172852D01*
X223680Y172859D01*
X223712Y172858D01*
X223817Y172887D01*
X223924Y172910D01*
X223953Y172925D01*
X223984Y172933D01*
X224077Y172991D01*
X224173Y173042D01*
X224196Y173065D01*
X224224Y173081D01*
X224297Y173162D01*
X224375Y173239D01*
X224391Y173267D01*
X224413Y173291D01*
X224460Y173389D01*
X224514Y173484D01*
X224522Y173516D01*
X224536Y173545D01*
X224550Y173634D01*
X224579Y173759D01*
X224577Y173807D01*
X224583Y173849D01*
X224583Y181751D01*
X224579Y181783D01*
X224581Y181815D01*
X224559Y181922D01*
X224543Y182030D01*
X224530Y182059D01*
X224524Y182091D01*
X224472Y182188D01*
X224427Y182287D01*
X224406Y182312D01*
X224391Y182340D01*
X224315Y182418D01*
X224244Y182501D01*
X224217Y182519D01*
X224194Y182542D01*
X224099Y182596D01*
X224008Y182656D01*
X223977Y182665D01*
X223949Y182681D01*
X223843Y182706D01*
X223738Y182738D01*
X223706Y182739D01*
X223675Y182746D01*
X223565Y182740D01*
X223456Y182742D01*
X223425Y182733D01*
X223393Y182732D01*
X223290Y182696D01*
X223184Y182667D01*
X223157Y182650D01*
X223126Y182639D01*
X223053Y182586D01*
X222944Y182519D01*
X222912Y182483D01*
X222877Y182457D01*
X221916Y181496D01*
X218013Y179879D01*
X213787Y179879D01*
X209884Y181496D01*
X206896Y184484D01*
X205279Y188387D01*
X205279Y192613D01*
X206896Y196516D01*
X209884Y199504D01*
X213787Y201121D01*
X218013Y201121D01*
X221916Y199504D01*
X222877Y198543D01*
X222903Y198523D01*
X222924Y198499D01*
X223016Y198439D01*
X223103Y198373D01*
X223133Y198362D01*
X223160Y198344D01*
X223265Y198312D01*
X223367Y198274D01*
X223399Y198271D01*
X223430Y198262D01*
X223539Y198260D01*
X223648Y198252D01*
X223680Y198259D01*
X223712Y198258D01*
X223817Y198287D01*
X223924Y198310D01*
X223953Y198325D01*
X223984Y198333D01*
X224077Y198391D01*
X224173Y198442D01*
X224196Y198465D01*
X224224Y198481D01*
X224297Y198562D01*
X224375Y198639D01*
X224391Y198667D01*
X224413Y198691D01*
X224460Y198789D01*
X224514Y198884D01*
X224522Y198916D01*
X224536Y198945D01*
X224550Y199034D01*
X224579Y199159D01*
X224577Y199207D01*
X224583Y199249D01*
X224583Y207801D01*
X224579Y207833D01*
X224581Y207866D01*
X224559Y207973D01*
X224543Y208081D01*
X224530Y208110D01*
X224524Y208142D01*
X224472Y208238D01*
X224427Y208338D01*
X224406Y208362D01*
X224391Y208391D01*
X224315Y208469D01*
X224244Y208552D01*
X224217Y208570D01*
X224194Y208593D01*
X224099Y208646D01*
X224008Y208706D01*
X223977Y208716D01*
X223949Y208732D01*
X223843Y208757D01*
X223738Y208789D01*
X223706Y208789D01*
X223674Y208797D01*
X223565Y208791D01*
X223456Y208792D01*
X223425Y208784D01*
X223393Y208782D01*
X223290Y208746D01*
X223184Y208717D01*
X223157Y208700D01*
X223126Y208690D01*
X223053Y208636D01*
X222944Y208569D01*
X222912Y208533D01*
X222877Y208508D01*
X222519Y208150D01*
X221225Y207210D01*
X219800Y206484D01*
X218279Y205989D01*
X217899Y205929D01*
X217899Y214900D01*
X217891Y214960D01*
X217891Y214986D01*
X217890Y214988D01*
X217891Y215028D01*
X217870Y215102D01*
X217859Y215179D01*
X217833Y215238D01*
X217816Y215300D01*
X217775Y215366D01*
X217743Y215436D01*
X217701Y215485D01*
X217668Y215540D01*
X217610Y215591D01*
X217560Y215650D01*
X217506Y215686D01*
X217458Y215729D01*
X217389Y215762D01*
X217324Y215805D01*
X217262Y215824D01*
X217205Y215852D01*
X217135Y215862D01*
X217054Y215887D01*
X216969Y215888D01*
X216900Y215899D01*
X215899Y215899D01*
X215899Y215901D01*
X216900Y215901D01*
X216964Y215910D01*
X217028Y215909D01*
X217103Y215930D01*
X217179Y215941D01*
X217238Y215967D01*
X217300Y215984D01*
X217366Y216025D01*
X217436Y216057D01*
X217485Y216099D01*
X217540Y216132D01*
X217592Y216190D01*
X217650Y216240D01*
X217686Y216294D01*
X217729Y216342D01*
X217762Y216411D01*
X217805Y216476D01*
X217824Y216538D01*
X217852Y216596D01*
X217862Y216665D01*
X217887Y216746D01*
X217888Y216831D01*
X217899Y216900D01*
X217899Y225871D01*
X218279Y225811D01*
X219800Y225316D01*
X221225Y224590D01*
X222519Y223650D01*
X222877Y223292D01*
X222903Y223273D01*
X222924Y223248D01*
X223016Y223188D01*
X223103Y223123D01*
X223133Y223111D01*
X223160Y223094D01*
X223265Y223062D01*
X223367Y223023D01*
X223399Y223021D01*
X223430Y223011D01*
X223539Y223010D01*
X223648Y223001D01*
X223680Y223008D01*
X223712Y223008D01*
X223817Y223037D01*
X223924Y223059D01*
X223953Y223074D01*
X223984Y223083D01*
X224077Y223140D01*
X224173Y223191D01*
X224196Y223214D01*
X224224Y223231D01*
X224297Y223312D01*
X224375Y223388D01*
X224391Y223416D01*
X224413Y223440D01*
X224460Y223539D01*
X224514Y223634D01*
X224522Y223665D01*
X224536Y223694D01*
X224550Y223784D01*
X224579Y223908D01*
X224577Y223956D01*
X224583Y223999D01*
X224583Y232551D01*
X224579Y232583D01*
X224581Y232615D01*
X224559Y232722D01*
X224543Y232830D01*
X224530Y232859D01*
X224524Y232891D01*
X224472Y232988D01*
X224427Y233087D01*
X224406Y233112D01*
X224391Y233140D01*
X224315Y233218D01*
X224244Y233301D01*
X224217Y233319D01*
X224194Y233342D01*
X224099Y233396D01*
X224008Y233456D01*
X223977Y233465D01*
X223949Y233481D01*
X223843Y233506D01*
X223738Y233538D01*
X223706Y233539D01*
X223675Y233546D01*
X223565Y233540D01*
X223456Y233542D01*
X223425Y233533D01*
X223393Y233532D01*
X223290Y233496D01*
X223184Y233467D01*
X223157Y233450D01*
X223126Y233439D01*
X223053Y233386D01*
X222944Y233319D01*
X222912Y233283D01*
X222877Y233257D01*
X221916Y232296D01*
X218013Y230679D01*
X213787Y230679D01*
X209884Y232296D01*
X206896Y235284D01*
X205279Y239187D01*
X205279Y243413D01*
X206896Y247316D01*
X209884Y250304D01*
X213787Y251921D01*
X218013Y251921D01*
X221916Y250304D01*
X222877Y249343D01*
X222903Y249323D01*
X222924Y249299D01*
X223016Y249239D01*
X223103Y249173D01*
X223133Y249162D01*
X223160Y249144D01*
X223265Y249112D01*
X223367Y249074D01*
X223399Y249071D01*
X223430Y249062D01*
X223539Y249060D01*
X223648Y249052D01*
X223680Y249059D01*
X223712Y249058D01*
X223817Y249087D01*
X223924Y249110D01*
X223953Y249125D01*
X223984Y249133D01*
X224077Y249191D01*
X224173Y249242D01*
X224196Y249265D01*
X224224Y249281D01*
X224297Y249362D01*
X224375Y249439D01*
X224391Y249467D01*
X224413Y249491D01*
X224460Y249589D01*
X224514Y249684D01*
X224522Y249716D01*
X224536Y249745D01*
X224550Y249834D01*
X224579Y249959D01*
X224577Y250007D01*
X224583Y250049D01*
X224583Y257951D01*
X224579Y257983D01*
X224581Y258015D01*
X224559Y258122D01*
X224543Y258230D01*
X224530Y258259D01*
X224524Y258291D01*
X224472Y258388D01*
X224427Y258487D01*
X224406Y258512D01*
X224391Y258540D01*
X224315Y258618D01*
X224244Y258701D01*
X224217Y258719D01*
X224194Y258742D01*
X224099Y258796D01*
X224008Y258856D01*
X223977Y258865D01*
X223949Y258881D01*
X223843Y258906D01*
X223738Y258938D01*
X223706Y258939D01*
X223675Y258946D01*
X223565Y258940D01*
X223456Y258942D01*
X223425Y258933D01*
X223393Y258932D01*
X223290Y258896D01*
X223184Y258867D01*
X223157Y258850D01*
X223126Y258839D01*
X223053Y258786D01*
X222944Y258719D01*
X222912Y258683D01*
X222877Y258657D01*
X221916Y257696D01*
X218013Y256079D01*
X213787Y256079D01*
X209884Y257696D01*
X206896Y260684D01*
X205279Y264587D01*
X205279Y268813D01*
X206896Y272716D01*
X209884Y275704D01*
X213787Y277321D01*
X218013Y277321D01*
X221916Y275704D01*
X222877Y274743D01*
X222903Y274723D01*
X222924Y274699D01*
X223016Y274639D01*
X223103Y274573D01*
X223133Y274562D01*
X223160Y274544D01*
X223265Y274512D01*
X223367Y274474D01*
X223399Y274471D01*
X223430Y274462D01*
X223539Y274460D01*
X223648Y274452D01*
X223680Y274459D01*
X223712Y274458D01*
X223817Y274487D01*
X223924Y274510D01*
X223953Y274525D01*
X223984Y274533D01*
X224077Y274591D01*
X224173Y274642D01*
X224196Y274665D01*
X224224Y274681D01*
X224297Y274762D01*
X224375Y274839D01*
X224391Y274867D01*
X224413Y274891D01*
X224460Y274989D01*
X224514Y275084D01*
X224522Y275116D01*
X224536Y275145D01*
X224550Y275234D01*
X224579Y275359D01*
X224577Y275407D01*
X224583Y275449D01*
X224583Y283351D01*
X224579Y283383D01*
X224581Y283415D01*
X224559Y283522D01*
X224543Y283630D01*
X224530Y283659D01*
X224524Y283691D01*
X224472Y283788D01*
X224427Y283887D01*
X224406Y283912D01*
X224391Y283940D01*
X224315Y284018D01*
X224244Y284101D01*
X224217Y284119D01*
X224194Y284142D01*
X224099Y284196D01*
X224008Y284256D01*
X223977Y284265D01*
X223949Y284281D01*
X223843Y284306D01*
X223738Y284338D01*
X223706Y284339D01*
X223675Y284346D01*
X223565Y284340D01*
X223456Y284342D01*
X223425Y284333D01*
X223393Y284332D01*
X223290Y284296D01*
X223184Y284267D01*
X223157Y284250D01*
X223126Y284239D01*
X223053Y284186D01*
X222944Y284119D01*
X222912Y284083D01*
X222877Y284057D01*
X221916Y283096D01*
X218013Y281479D01*
X213787Y281479D01*
X209884Y283096D01*
X206896Y286084D01*
X205279Y289987D01*
X205279Y294213D01*
X206896Y298116D01*
X209884Y301104D01*
X213787Y302721D01*
X218013Y302721D01*
X221916Y301104D01*
X222877Y300143D01*
X222903Y300123D01*
X222924Y300099D01*
X223016Y300039D01*
X223103Y299973D01*
X223133Y299962D01*
X223160Y299944D01*
X223265Y299912D01*
X223367Y299874D01*
X223399Y299871D01*
X223430Y299862D01*
X223539Y299860D01*
X223648Y299852D01*
X223680Y299859D01*
X223712Y299858D01*
X223817Y299887D01*
X223924Y299910D01*
X223953Y299925D01*
X223984Y299933D01*
X224077Y299991D01*
X224173Y300042D01*
X224196Y300065D01*
X224224Y300081D01*
X224297Y300162D01*
X224375Y300239D01*
X224391Y300267D01*
X224413Y300291D01*
X224460Y300389D01*
X224514Y300484D01*
X224522Y300516D01*
X224536Y300545D01*
X224550Y300634D01*
X224579Y300759D01*
X224577Y300807D01*
X224583Y300849D01*
X224583Y308751D01*
X224579Y308783D01*
X224581Y308815D01*
X224559Y308922D01*
X224543Y309030D01*
X224530Y309059D01*
X224524Y309091D01*
X224472Y309188D01*
X224427Y309287D01*
X224406Y309312D01*
X224391Y309340D01*
X224315Y309418D01*
X224244Y309501D01*
X224217Y309519D01*
X224194Y309542D01*
X224099Y309596D01*
X224008Y309656D01*
X223977Y309665D01*
X223949Y309681D01*
X223843Y309706D01*
X223738Y309738D01*
X223706Y309739D01*
X223675Y309746D01*
X223565Y309740D01*
X223456Y309742D01*
X223425Y309733D01*
X223393Y309732D01*
X223290Y309696D01*
X223184Y309667D01*
X223157Y309650D01*
X223126Y309639D01*
X223053Y309586D01*
X222944Y309519D01*
X222912Y309483D01*
X222877Y309457D01*
X221916Y308496D01*
X218013Y306879D01*
X213787Y306879D01*
X209884Y308496D01*
X206896Y311484D01*
X205279Y315387D01*
X205279Y319613D01*
X206896Y323516D01*
X209884Y326504D01*
X213787Y328121D01*
X218013Y328121D01*
X221916Y326504D01*
X222877Y325543D01*
X222903Y325523D01*
X222924Y325499D01*
X223016Y325439D01*
X223103Y325373D01*
X223133Y325362D01*
X223160Y325344D01*
X223265Y325312D01*
X223367Y325274D01*
X223399Y325271D01*
X223430Y325262D01*
X223539Y325260D01*
X223648Y325252D01*
X223680Y325259D01*
X223712Y325258D01*
X223817Y325287D01*
X223924Y325310D01*
X223953Y325325D01*
X223984Y325333D01*
X224077Y325391D01*
X224173Y325442D01*
X224196Y325465D01*
X224224Y325481D01*
X224297Y325562D01*
X224375Y325639D01*
X224391Y325667D01*
X224413Y325691D01*
X224460Y325789D01*
X224514Y325884D01*
X224522Y325916D01*
X224536Y325945D01*
X224550Y326034D01*
X224579Y326159D01*
X224577Y326207D01*
X224583Y326249D01*
X224583Y334151D01*
X224579Y334183D01*
X224581Y334215D01*
X224559Y334322D01*
X224543Y334430D01*
X224530Y334459D01*
X224524Y334491D01*
X224472Y334588D01*
X224427Y334687D01*
X224406Y334712D01*
X224391Y334740D01*
X224315Y334818D01*
X224244Y334901D01*
X224217Y334919D01*
X224194Y334942D01*
X224099Y334996D01*
X224008Y335056D01*
X223977Y335065D01*
X223949Y335081D01*
X223843Y335106D01*
X223738Y335138D01*
X223706Y335139D01*
X223675Y335146D01*
X223565Y335140D01*
X223456Y335142D01*
X223425Y335133D01*
X223393Y335132D01*
X223290Y335096D01*
X223184Y335067D01*
X223157Y335050D01*
X223126Y335039D01*
X223053Y334986D01*
X222944Y334919D01*
X222912Y334883D01*
X222877Y334857D01*
X221916Y333896D01*
X218013Y332279D01*
X213787Y332279D01*
X209884Y333896D01*
X206896Y336884D01*
X205279Y340787D01*
X205279Y345013D01*
X206896Y348916D01*
X209884Y351904D01*
X213787Y353521D01*
X218013Y353521D01*
X221916Y351904D01*
X222877Y350943D01*
X222903Y350923D01*
X222924Y350899D01*
X223016Y350839D01*
X223103Y350773D01*
X223133Y350762D01*
X223160Y350744D01*
X223265Y350712D01*
X223367Y350674D01*
X223399Y350671D01*
X223430Y350662D01*
X223539Y350660D01*
X223648Y350652D01*
X223680Y350659D01*
X223712Y350658D01*
X223817Y350687D01*
X223924Y350710D01*
X223953Y350725D01*
X223984Y350733D01*
X224077Y350791D01*
X224173Y350842D01*
X224196Y350865D01*
X224224Y350881D01*
X224297Y350962D01*
X224375Y351039D01*
X224391Y351067D01*
X224413Y351091D01*
X224460Y351189D01*
X224514Y351284D01*
X224522Y351316D01*
X224536Y351345D01*
X224550Y351434D01*
X224579Y351559D01*
X224577Y351607D01*
X224583Y351649D01*
X224583Y359551D01*
X224579Y359583D01*
X224581Y359615D01*
X224559Y359722D01*
X224543Y359830D01*
X224530Y359859D01*
X224524Y359891D01*
X224472Y359988D01*
X224427Y360087D01*
X224406Y360112D01*
X224391Y360140D01*
X224315Y360218D01*
X224244Y360301D01*
X224217Y360319D01*
X224194Y360342D01*
X224099Y360396D01*
X224008Y360456D01*
X223977Y360465D01*
X223949Y360481D01*
X223843Y360506D01*
X223738Y360538D01*
X223706Y360539D01*
X223675Y360546D01*
X223565Y360540D01*
X223456Y360542D01*
X223425Y360533D01*
X223393Y360532D01*
X223290Y360496D01*
X223184Y360467D01*
X223157Y360450D01*
X223126Y360439D01*
X223053Y360386D01*
X222944Y360319D01*
X222912Y360283D01*
X222877Y360257D01*
X221916Y359296D01*
X218013Y357679D01*
X213787Y357679D01*
X209884Y359296D01*
X206870Y362310D01*
X206801Y362362D01*
X206738Y362421D01*
X206689Y362446D01*
X206645Y362479D01*
X206564Y362510D01*
X206486Y362549D01*
X206432Y362559D01*
X206381Y362579D01*
X206294Y362585D01*
X206209Y362601D01*
X206154Y362596D01*
X206100Y362600D01*
X206015Y362583D01*
X205928Y362574D01*
X205877Y362554D01*
X205824Y362543D01*
X205747Y362502D01*
X205666Y362470D01*
X205623Y362436D01*
X205575Y362410D01*
X205512Y362350D01*
X205444Y362296D01*
X205412Y362252D01*
X205373Y362213D01*
X205330Y362138D01*
X205279Y362068D01*
X205261Y362016D01*
X205234Y361968D01*
X205213Y361883D01*
X205184Y361802D01*
X205181Y361747D01*
X205169Y361694D01*
X205173Y361607D01*
X205168Y361520D01*
X205180Y361471D01*
X205183Y361412D01*
X205220Y361305D01*
X205241Y361221D01*
X205271Y361148D01*
X205271Y358852D01*
X204392Y356731D01*
X202769Y355108D01*
X200648Y354229D01*
X198352Y354229D01*
X196231Y355108D01*
X194608Y356731D01*
X193729Y358852D01*
X193729Y361148D01*
X194608Y363269D01*
X196231Y364892D01*
X198352Y365771D01*
X200648Y365771D01*
X202769Y364892D01*
X204418Y363243D01*
X204488Y363191D01*
X204551Y363132D01*
X204600Y363107D01*
X204644Y363074D01*
X204725Y363043D01*
X204802Y363004D01*
X204856Y362994D01*
X204908Y362974D01*
X204994Y362967D01*
X205079Y362951D01*
X205134Y362957D01*
X205189Y362952D01*
X205274Y362970D01*
X205360Y362978D01*
X205411Y362999D01*
X205465Y363010D01*
X205542Y363051D01*
X205622Y363083D01*
X205665Y363117D01*
X205714Y363142D01*
X205776Y363203D01*
X205844Y363256D01*
X205877Y363301D01*
X205916Y363339D01*
X205959Y363415D01*
X206009Y363485D01*
X206028Y363537D01*
X206055Y363585D01*
X206075Y363669D01*
X206104Y363751D01*
X206107Y363805D01*
X206120Y363859D01*
X206115Y363946D01*
X206120Y364032D01*
X206108Y364082D01*
X206105Y364141D01*
X206068Y364248D01*
X206048Y364332D01*
X205279Y366187D01*
X205279Y369365D01*
X205263Y369482D01*
X205251Y369600D01*
X205243Y369622D01*
X205239Y369644D01*
X205191Y369752D01*
X205147Y369862D01*
X205133Y369880D01*
X205123Y369901D01*
X205046Y369991D01*
X204973Y370085D01*
X204955Y370098D01*
X204940Y370115D01*
X204840Y370180D01*
X204744Y370250D01*
X204723Y370257D01*
X204704Y370270D01*
X204590Y370304D01*
X204479Y370344D01*
X204456Y370346D01*
X204434Y370352D01*
X204316Y370354D01*
X204197Y370361D01*
X204176Y370356D01*
X204152Y370356D01*
X203973Y370306D01*
X203898Y370288D01*
X202548Y369729D01*
X200452Y369729D01*
X198514Y370532D01*
X197032Y372014D01*
X196229Y373952D01*
X196229Y376048D01*
X197032Y377986D01*
X198514Y379468D01*
X200452Y380271D01*
X202548Y380271D01*
X204486Y379468D01*
X205968Y377986D01*
X206743Y376116D01*
X206803Y376014D01*
X206859Y375910D01*
X206875Y375893D01*
X206886Y375874D01*
X206973Y375793D01*
X207055Y375708D01*
X207075Y375696D01*
X207092Y375681D01*
X207198Y375627D01*
X207301Y375569D01*
X207323Y375563D01*
X207343Y375553D01*
X207460Y375531D01*
X207575Y375504D01*
X207598Y375505D01*
X207620Y375501D01*
X207738Y375512D01*
X207857Y375518D01*
X207878Y375526D01*
X207901Y375528D01*
X208011Y375572D01*
X208123Y375611D01*
X208141Y375623D01*
X208163Y375632D01*
X208310Y375747D01*
X208372Y375792D01*
X209884Y377304D01*
X213787Y378921D01*
X218013Y378921D01*
X221916Y377304D01*
X222877Y376343D01*
X222903Y376323D01*
X222924Y376299D01*
X223016Y376239D01*
X223103Y376173D01*
X223133Y376162D01*
X223160Y376144D01*
X223265Y376112D01*
X223367Y376074D01*
X223399Y376071D01*
X223430Y376062D01*
X223539Y376060D01*
X223648Y376052D01*
X223680Y376059D01*
X223712Y376058D01*
X223817Y376087D01*
X223924Y376110D01*
X223953Y376125D01*
X223984Y376133D01*
X224077Y376191D01*
X224173Y376242D01*
X224196Y376265D01*
X224224Y376281D01*
X224297Y376362D01*
X224375Y376439D01*
X224391Y376467D01*
X224413Y376491D01*
X224460Y376589D01*
X224514Y376684D01*
X224522Y376716D01*
X224536Y376745D01*
X224550Y376834D01*
X224579Y376959D01*
X224577Y377007D01*
X224583Y377049D01*
X224583Y384951D01*
X224579Y384983D01*
X224581Y385015D01*
X224559Y385122D01*
X224543Y385230D01*
X224530Y385259D01*
X224524Y385291D01*
X224472Y385388D01*
X224427Y385487D01*
X224406Y385512D01*
X224391Y385540D01*
X224315Y385618D01*
X224244Y385701D01*
X224217Y385719D01*
X224194Y385742D01*
X224099Y385796D01*
X224008Y385856D01*
X223977Y385865D01*
X223949Y385881D01*
X223843Y385906D01*
X223738Y385938D01*
X223706Y385939D01*
X223675Y385946D01*
X223565Y385940D01*
X223456Y385942D01*
X223425Y385933D01*
X223393Y385932D01*
X223290Y385896D01*
X223184Y385867D01*
X223157Y385850D01*
X223126Y385839D01*
X223053Y385786D01*
X222944Y385719D01*
X222912Y385683D01*
X222877Y385657D01*
X221916Y384696D01*
X218013Y383079D01*
X213787Y383079D01*
X209884Y384696D01*
X208119Y386461D01*
X208067Y386500D01*
X208022Y386546D01*
X207955Y386584D01*
X207893Y386631D01*
X207833Y386653D01*
X207777Y386685D01*
X207701Y386703D01*
X207629Y386730D01*
X207565Y386735D01*
X207502Y386750D01*
X207425Y386746D01*
X207348Y386752D01*
X207285Y386739D01*
X207221Y386736D01*
X207148Y386710D01*
X207072Y386694D01*
X207015Y386664D01*
X206954Y386643D01*
X206898Y386602D01*
X206823Y386562D01*
X206762Y386503D01*
X206705Y386461D01*
X205776Y385532D01*
X203838Y384729D01*
X201742Y384729D01*
X199804Y385532D01*
X198322Y387014D01*
X197519Y388952D01*
X197519Y391048D01*
X198322Y392986D01*
X198535Y393199D01*
X198606Y393294D01*
X198682Y393386D01*
X198691Y393406D01*
X198704Y393425D01*
X198746Y393536D01*
X198793Y393645D01*
X198796Y393667D01*
X198804Y393689D01*
X198813Y393807D01*
X198828Y393925D01*
X198824Y393947D01*
X198826Y393970D01*
X198802Y394086D01*
X198783Y394203D01*
X198773Y394224D01*
X198768Y394246D01*
X198713Y394350D01*
X198662Y394458D01*
X198646Y394475D01*
X198636Y394495D01*
X198553Y394580D01*
X198474Y394668D01*
X198456Y394680D01*
X198439Y394697D01*
X198277Y394789D01*
X198211Y394829D01*
X196514Y395532D01*
X195032Y397014D01*
X194229Y398952D01*
X194229Y401048D01*
X195032Y402986D01*
X196089Y404043D01*
X196099Y404055D01*
X196099Y404056D01*
X196101Y404059D01*
X196128Y404095D01*
X196174Y404140D01*
X196212Y404207D01*
X196259Y404269D01*
X196281Y404329D01*
X196313Y404385D01*
X196331Y404460D01*
X196358Y404533D01*
X196363Y404597D01*
X196378Y404659D01*
X196374Y404737D01*
X196380Y404814D01*
X196367Y404877D01*
X196364Y404941D01*
X196338Y405014D01*
X196322Y405090D01*
X196292Y405147D01*
X196271Y405208D01*
X196230Y405264D01*
X196190Y405339D01*
X196131Y405400D01*
X196089Y405457D01*
X194532Y407014D01*
X193729Y408952D01*
X193729Y411048D01*
X194532Y412986D01*
X196014Y414468D01*
X197952Y415271D01*
X200048Y415271D01*
X201986Y414468D01*
X203468Y412986D01*
X204271Y411048D01*
X204271Y410639D01*
X204272Y410630D01*
X204271Y410620D01*
X204292Y410490D01*
X204311Y410360D01*
X204314Y410351D01*
X204316Y410342D01*
X204373Y410223D01*
X204427Y410103D01*
X204433Y410096D01*
X204437Y410087D01*
X204525Y409989D01*
X204610Y409889D01*
X204618Y409884D01*
X204624Y409877D01*
X204690Y409837D01*
X204846Y409734D01*
X204869Y409727D01*
X204888Y409716D01*
X205486Y409468D01*
X206968Y407986D01*
X207771Y406048D01*
X207771Y403952D01*
X207317Y402855D01*
X207295Y402771D01*
X207265Y402690D01*
X207260Y402635D01*
X207247Y402582D01*
X207249Y402496D01*
X207243Y402409D01*
X207254Y402355D01*
X207256Y402300D01*
X207283Y402218D01*
X207300Y402133D01*
X207326Y402085D01*
X207343Y402032D01*
X207392Y401960D01*
X207433Y401884D01*
X207471Y401845D01*
X207502Y401799D01*
X207569Y401744D01*
X207630Y401682D01*
X207677Y401655D01*
X207720Y401620D01*
X207799Y401586D01*
X207875Y401543D01*
X207928Y401530D01*
X207979Y401508D01*
X208065Y401498D01*
X208149Y401478D01*
X208204Y401481D01*
X208259Y401474D01*
X208344Y401488D01*
X208431Y401492D01*
X208483Y401510D01*
X208537Y401519D01*
X208616Y401556D01*
X208697Y401585D01*
X208739Y401615D01*
X208792Y401640D01*
X208877Y401716D01*
X208946Y401766D01*
X209884Y402704D01*
X213787Y404321D01*
X218013Y404321D01*
X221916Y402704D01*
X222877Y401743D01*
X222903Y401723D01*
X222924Y401699D01*
X223016Y401639D01*
X223103Y401573D01*
X223133Y401562D01*
X223160Y401544D01*
X223265Y401512D01*
X223367Y401474D01*
X223399Y401471D01*
X223430Y401462D01*
X223539Y401460D01*
X223648Y401452D01*
X223680Y401459D01*
X223712Y401458D01*
X223817Y401487D01*
X223924Y401510D01*
X223953Y401525D01*
X223984Y401533D01*
X224077Y401591D01*
X224173Y401642D01*
X224196Y401665D01*
X224224Y401681D01*
X224297Y401762D01*
X224375Y401839D01*
X224391Y401867D01*
X224413Y401891D01*
X224460Y401989D01*
X224514Y402084D01*
X224522Y402116D01*
X224536Y402145D01*
X224550Y402234D01*
X224579Y402359D01*
X224577Y402407D01*
X224583Y402449D01*
X224583Y410351D01*
X224579Y410383D01*
X224581Y410415D01*
X224559Y410522D01*
X224543Y410630D01*
X224530Y410659D01*
X224524Y410691D01*
X224472Y410788D01*
X224427Y410887D01*
X224406Y410912D01*
X224391Y410940D01*
X224315Y411018D01*
X224244Y411101D01*
X224217Y411119D01*
X224194Y411142D01*
X224099Y411196D01*
X224008Y411256D01*
X223977Y411265D01*
X223949Y411281D01*
X223843Y411306D01*
X223738Y411338D01*
X223706Y411339D01*
X223675Y411346D01*
X223565Y411340D01*
X223456Y411342D01*
X223425Y411333D01*
X223393Y411332D01*
X223290Y411296D01*
X223184Y411267D01*
X223157Y411250D01*
X223126Y411239D01*
X223053Y411186D01*
X222944Y411119D01*
X222912Y411083D01*
X222877Y411057D01*
X221916Y410096D01*
X218013Y408479D01*
X213787Y408479D01*
X209884Y410096D01*
X206896Y413084D01*
X205279Y416987D01*
X205279Y421213D01*
X206896Y425116D01*
X209884Y428104D01*
X213787Y429721D01*
X218013Y429721D01*
X221916Y428104D01*
X222877Y427143D01*
X222903Y427123D01*
X222924Y427099D01*
X223016Y427039D01*
X223103Y426973D01*
X223133Y426962D01*
X223160Y426944D01*
X223265Y426912D01*
X223367Y426874D01*
X223399Y426871D01*
X223430Y426862D01*
X223539Y426860D01*
X223648Y426852D01*
X223680Y426859D01*
X223712Y426858D01*
X223817Y426887D01*
X223924Y426910D01*
X223953Y426925D01*
X223984Y426933D01*
X224077Y426991D01*
X224173Y427042D01*
X224196Y427065D01*
X224224Y427081D01*
X224297Y427162D01*
X224375Y427239D01*
X224391Y427267D01*
X224413Y427291D01*
X224460Y427389D01*
X224514Y427484D01*
X224522Y427516D01*
X224536Y427545D01*
X224550Y427634D01*
X224579Y427759D01*
X224577Y427807D01*
X224583Y427849D01*
X224583Y435751D01*
X224579Y435783D01*
X224581Y435815D01*
X224559Y435922D01*
X224543Y436030D01*
X224530Y436059D01*
X224524Y436091D01*
X224472Y436188D01*
X224427Y436287D01*
X224406Y436312D01*
X224391Y436340D01*
X224315Y436418D01*
X224244Y436501D01*
X224217Y436519D01*
X224194Y436542D01*
X224099Y436596D01*
X224008Y436656D01*
X223977Y436665D01*
X223949Y436681D01*
X223843Y436706D01*
X223738Y436738D01*
X223706Y436739D01*
X223675Y436746D01*
X223565Y436740D01*
X223456Y436742D01*
X223425Y436733D01*
X223393Y436732D01*
X223290Y436696D01*
X223184Y436667D01*
X223157Y436650D01*
X223126Y436639D01*
X223053Y436586D01*
X222944Y436519D01*
X222912Y436483D01*
X222877Y436457D01*
X221916Y435496D01*
X218013Y433879D01*
X213787Y433879D01*
X209884Y435496D01*
X206896Y438484D01*
X205279Y442387D01*
X205279Y446613D01*
X206670Y449971D01*
X206686Y450034D01*
X206712Y450093D01*
X206721Y450169D01*
X206741Y450244D01*
X206738Y450309D01*
X206746Y450372D01*
X206734Y450449D01*
X206731Y450526D01*
X206712Y450587D01*
X206701Y450651D01*
X206668Y450721D01*
X206644Y450794D01*
X206608Y450848D01*
X206580Y450906D01*
X206529Y450963D01*
X206485Y451027D01*
X206436Y451068D01*
X206393Y451116D01*
X206333Y451153D01*
X206267Y451207D01*
X206190Y451240D01*
X206130Y451277D01*
X205514Y451532D01*
X204032Y453014D01*
X203229Y454952D01*
X203229Y457048D01*
X204032Y458986D01*
X205514Y460468D01*
X207525Y461301D01*
X207627Y461361D01*
X207732Y461417D01*
X207748Y461433D01*
X207768Y461445D01*
X207849Y461531D01*
X207934Y461614D01*
X207945Y461634D01*
X207961Y461650D01*
X208014Y461756D01*
X208073Y461859D01*
X208078Y461881D01*
X208088Y461902D01*
X208110Y462018D01*
X208138Y462134D01*
X208137Y462157D01*
X208141Y462179D01*
X208129Y462297D01*
X208123Y462415D01*
X208116Y462437D01*
X208114Y462460D01*
X208070Y462569D01*
X208031Y462682D01*
X208018Y462699D01*
X208009Y462722D01*
X207894Y462869D01*
X207849Y462931D01*
X206896Y463884D01*
X205279Y467787D01*
X205279Y472013D01*
X206896Y475916D01*
X209884Y478904D01*
X213787Y480521D01*
X218013Y480521D01*
X221916Y478904D01*
X222877Y477943D01*
X222903Y477923D01*
X222924Y477899D01*
X222983Y477860D01*
X223014Y477832D01*
X223045Y477817D01*
X223103Y477773D01*
X223133Y477762D01*
X223160Y477744D01*
X223254Y477715D01*
X223268Y477709D01*
X223278Y477707D01*
X223367Y477674D01*
X223399Y477671D01*
X223430Y477662D01*
X223539Y477660D01*
X223648Y477652D01*
X223680Y477659D01*
X223712Y477658D01*
X223817Y477687D01*
X223924Y477710D01*
X223953Y477725D01*
X223984Y477733D01*
X224077Y477791D01*
X224173Y477842D01*
X224196Y477865D01*
X224224Y477881D01*
X224297Y477962D01*
X224375Y478039D01*
X224391Y478067D01*
X224413Y478091D01*
X224460Y478189D01*
X224477Y478218D01*
X224489Y478237D01*
X224491Y478243D01*
X224514Y478284D01*
X224522Y478316D01*
X224536Y478345D01*
X224550Y478434D01*
X224551Y478441D01*
X224571Y478506D01*
X224572Y478527D01*
X224579Y478559D01*
X224577Y478607D01*
X224583Y478649D01*
X224583Y486551D01*
X224579Y486583D01*
X224581Y486615D01*
X224559Y486722D01*
X224543Y486830D01*
X224530Y486859D01*
X224524Y486891D01*
X224472Y486988D01*
X224427Y487087D01*
X224406Y487112D01*
X224391Y487140D01*
X224315Y487218D01*
X224244Y487301D01*
X224217Y487319D01*
X224194Y487342D01*
X224099Y487396D01*
X224008Y487456D01*
X223977Y487465D01*
X223949Y487481D01*
X223843Y487506D01*
X223738Y487538D01*
X223706Y487539D01*
X223675Y487546D01*
X223565Y487540D01*
X223456Y487542D01*
X223425Y487533D01*
X223393Y487532D01*
X223290Y487496D01*
X223184Y487467D01*
X223157Y487450D01*
X223126Y487439D01*
X223053Y487386D01*
X222944Y487319D01*
X222912Y487283D01*
X222877Y487257D01*
X221916Y486296D01*
X218013Y484679D01*
X213787Y484679D01*
X209884Y486296D01*
X206896Y489284D01*
X205279Y493187D01*
X205279Y497413D01*
X206896Y501316D01*
X209884Y504304D01*
X213787Y505921D01*
X218013Y505921D01*
X221916Y504304D01*
X222877Y503343D01*
X222903Y503323D01*
X222924Y503299D01*
X223016Y503239D01*
X223103Y503173D01*
X223133Y503162D01*
X223160Y503144D01*
X223265Y503112D01*
X223367Y503074D01*
X223399Y503071D01*
X223430Y503062D01*
X223539Y503060D01*
X223648Y503052D01*
X223680Y503059D01*
X223712Y503058D01*
X223817Y503087D01*
X223924Y503110D01*
X223953Y503125D01*
X223984Y503133D01*
X224077Y503191D01*
X224173Y503242D01*
X224196Y503265D01*
X224224Y503281D01*
X224297Y503362D01*
X224375Y503439D01*
X224391Y503467D01*
X224413Y503491D01*
X224460Y503589D01*
X224514Y503684D01*
X224522Y503716D01*
X224536Y503745D01*
X224550Y503834D01*
X224579Y503959D01*
X224577Y504007D01*
X224583Y504049D01*
X224583Y511951D01*
X224579Y511983D01*
X224581Y512015D01*
X224559Y512122D01*
X224543Y512230D01*
X224530Y512259D01*
X224524Y512291D01*
X224472Y512388D01*
X224427Y512487D01*
X224406Y512512D01*
X224391Y512540D01*
X224315Y512618D01*
X224244Y512701D01*
X224217Y512719D01*
X224194Y512742D01*
X224099Y512796D01*
X224008Y512856D01*
X223977Y512865D01*
X223949Y512881D01*
X223843Y512906D01*
X223738Y512938D01*
X223706Y512939D01*
X223675Y512946D01*
X223565Y512940D01*
X223456Y512942D01*
X223425Y512933D01*
X223393Y512932D01*
X223290Y512896D01*
X223184Y512867D01*
X223157Y512850D01*
X223126Y512839D01*
X223053Y512786D01*
X222944Y512719D01*
X222912Y512683D01*
X222877Y512657D01*
X221916Y511696D01*
X218013Y510079D01*
X213787Y510079D01*
X209884Y511696D01*
X206896Y514684D01*
X205279Y518587D01*
X205279Y522813D01*
X206896Y526716D01*
X209884Y529704D01*
X213787Y531321D01*
X218013Y531321D01*
X221916Y529704D01*
X222877Y528743D01*
X222903Y528723D01*
X222924Y528699D01*
X223016Y528639D01*
X223103Y528573D01*
X223133Y528562D01*
X223160Y528544D01*
X223265Y528512D01*
X223367Y528474D01*
X223399Y528471D01*
X223430Y528462D01*
X223539Y528460D01*
X223648Y528452D01*
X223680Y528459D01*
X223712Y528458D01*
X223817Y528487D01*
X223924Y528510D01*
X223953Y528525D01*
X223984Y528533D01*
X224077Y528591D01*
X224173Y528642D01*
X224196Y528665D01*
X224224Y528681D01*
X224297Y528762D01*
X224375Y528839D01*
X224391Y528867D01*
X224413Y528891D01*
X224460Y528989D01*
X224514Y529084D01*
X224522Y529116D01*
X224536Y529145D01*
X224550Y529234D01*
X224579Y529359D01*
X224577Y529407D01*
X224583Y529449D01*
X224583Y660400D01*
X224577Y660442D01*
X224580Y660478D01*
X224329Y663667D01*
X224298Y663807D01*
X224283Y663898D01*
X222313Y669963D01*
X222312Y669965D01*
X222311Y669967D01*
X222296Y669998D01*
X222189Y670216D01*
X222177Y670228D01*
X222171Y670241D01*
X218422Y675401D01*
X218421Y675403D01*
X218419Y675405D01*
X218395Y675429D01*
X218226Y675604D01*
X218212Y675612D01*
X218201Y675622D01*
X213041Y679371D01*
X213039Y679372D01*
X213038Y679373D01*
X213007Y679389D01*
X212792Y679503D01*
X212776Y679506D01*
X212763Y679513D01*
X206698Y681483D01*
X206556Y681508D01*
X206467Y681529D01*
X203278Y681780D01*
X203237Y681778D01*
X203200Y681783D01*
X25400Y681783D01*
X25358Y681777D01*
X25322Y681780D01*
X22133Y681529D01*
X21993Y681498D01*
X21902Y681483D01*
X15837Y679513D01*
X15835Y679512D01*
X15833Y679511D01*
X15802Y679496D01*
X15584Y679389D01*
X15572Y679377D01*
X15559Y679371D01*
X10399Y675622D01*
X10397Y675621D01*
X10395Y675619D01*
X10371Y675595D01*
X10196Y675426D01*
X10188Y675412D01*
X10178Y675401D01*
X6429Y670242D01*
X6428Y670240D01*
X6427Y670238D01*
X6411Y670207D01*
X6297Y669992D01*
X6294Y669976D01*
X6287Y669963D01*
X4317Y663898D01*
X4292Y663756D01*
X4271Y663667D01*
X4020Y660479D01*
X4022Y660437D01*
X4017Y660400D01*
X4017Y529449D01*
X4021Y529417D01*
X4019Y529385D01*
X4041Y529278D01*
X4057Y529170D01*
X4070Y529141D01*
X4076Y529109D01*
X4128Y529012D01*
X4173Y528913D01*
X4194Y528888D01*
X4209Y528860D01*
X4285Y528782D01*
X4356Y528699D01*
X4383Y528681D01*
X4406Y528658D01*
X4501Y528604D01*
X4592Y528544D01*
X4623Y528535D01*
X4651Y528519D01*
X4757Y528494D01*
X4862Y528462D01*
X4894Y528461D01*
X4925Y528454D01*
X5035Y528460D01*
X5144Y528458D01*
X5175Y528467D01*
X5207Y528468D01*
X5310Y528504D01*
X5416Y528533D01*
X5443Y528550D01*
X5474Y528561D01*
X5547Y528614D01*
X5656Y528681D01*
X5688Y528717D01*
X5723Y528743D01*
X6684Y529704D01*
X10587Y531321D01*
X14813Y531321D01*
X18716Y529704D01*
X21704Y526716D01*
X23321Y522813D01*
X23321Y518587D01*
X21704Y514684D01*
X18716Y511696D01*
X14813Y510079D01*
X10587Y510079D01*
X6684Y511696D01*
X5723Y512657D01*
X5697Y512677D01*
X5676Y512701D01*
X5584Y512761D01*
X5497Y512827D01*
X5467Y512838D01*
X5440Y512856D01*
X5335Y512888D01*
X5233Y512926D01*
X5201Y512929D01*
X5170Y512938D01*
X5061Y512940D01*
X4952Y512948D01*
X4920Y512941D01*
X4888Y512942D01*
X4783Y512913D01*
X4676Y512890D01*
X4647Y512875D01*
X4616Y512867D01*
X4523Y512809D01*
X4427Y512758D01*
X4404Y512735D01*
X4376Y512719D01*
X4303Y512638D01*
X4225Y512561D01*
X4209Y512533D01*
X4187Y512509D01*
X4140Y512411D01*
X4086Y512316D01*
X4078Y512284D01*
X4064Y512255D01*
X4050Y512166D01*
X4021Y512041D01*
X4023Y511993D01*
X4017Y511951D01*
X4017Y504049D01*
X4021Y504017D01*
X4019Y503985D01*
X4041Y503878D01*
X4057Y503770D01*
X4070Y503741D01*
X4076Y503709D01*
X4128Y503612D01*
X4173Y503513D01*
X4194Y503488D01*
X4209Y503460D01*
X4285Y503382D01*
X4356Y503299D01*
X4383Y503281D01*
X4406Y503258D01*
X4501Y503204D01*
X4592Y503144D01*
X4623Y503135D01*
X4651Y503119D01*
X4757Y503094D01*
X4862Y503062D01*
X4894Y503061D01*
X4925Y503054D01*
X5035Y503060D01*
X5144Y503058D01*
X5175Y503067D01*
X5207Y503068D01*
X5310Y503104D01*
X5416Y503133D01*
X5443Y503150D01*
X5474Y503161D01*
X5547Y503214D01*
X5656Y503281D01*
X5688Y503317D01*
X5723Y503343D01*
X6684Y504304D01*
X10587Y505921D01*
X14813Y505921D01*
X18716Y504304D01*
X21704Y501316D01*
X23321Y497413D01*
X23321Y493187D01*
X21704Y489284D01*
X18716Y486296D01*
X14813Y484679D01*
X10587Y484679D01*
X6684Y486296D01*
X5723Y487257D01*
X5697Y487277D01*
X5676Y487301D01*
X5584Y487361D01*
X5497Y487427D01*
X5467Y487438D01*
X5440Y487456D01*
X5335Y487488D01*
X5233Y487526D01*
X5201Y487529D01*
X5170Y487538D01*
X5061Y487540D01*
X4952Y487548D01*
X4920Y487541D01*
X4888Y487542D01*
X4783Y487513D01*
X4676Y487490D01*
X4647Y487475D01*
X4616Y487467D01*
X4523Y487409D01*
X4427Y487358D01*
X4404Y487335D01*
X4376Y487319D01*
X4303Y487238D01*
X4225Y487161D01*
X4209Y487133D01*
X4187Y487109D01*
X4140Y487011D01*
X4086Y486916D01*
X4078Y486884D01*
X4064Y486855D01*
X4050Y486766D01*
X4021Y486641D01*
X4023Y486593D01*
X4017Y486551D01*
X4017Y478649D01*
X4021Y478617D01*
X4019Y478585D01*
X4025Y478554D01*
X4025Y478533D01*
X4042Y478470D01*
X4057Y478370D01*
X4070Y478341D01*
X4076Y478309D01*
X4098Y478268D01*
X4100Y478261D01*
X4114Y478238D01*
X4128Y478212D01*
X4173Y478113D01*
X4194Y478088D01*
X4209Y478060D01*
X4285Y477982D01*
X4356Y477899D01*
X4383Y477881D01*
X4406Y477858D01*
X4501Y477804D01*
X4592Y477744D01*
X4623Y477735D01*
X4651Y477719D01*
X4757Y477694D01*
X4862Y477662D01*
X4894Y477661D01*
X4925Y477654D01*
X5035Y477660D01*
X5144Y477658D01*
X5175Y477667D01*
X5207Y477668D01*
X5298Y477700D01*
X5307Y477701D01*
X5318Y477706D01*
X5416Y477733D01*
X5443Y477750D01*
X5474Y477761D01*
X5530Y477802D01*
X5563Y477817D01*
X5594Y477843D01*
X5656Y477881D01*
X5688Y477917D01*
X5723Y477943D01*
X6684Y478904D01*
X10587Y480521D01*
X14813Y480521D01*
X18716Y478904D01*
X21704Y475916D01*
X23321Y472013D01*
X23321Y471187D01*
X23325Y471155D01*
X23323Y471123D01*
X23345Y471016D01*
X23361Y470908D01*
X23374Y470878D01*
X23380Y470847D01*
X23432Y470750D01*
X23477Y470651D01*
X23498Y470626D01*
X23513Y470598D01*
X23589Y470520D01*
X23660Y470437D01*
X23687Y470419D01*
X23710Y470396D01*
X23805Y470342D01*
X23896Y470282D01*
X23927Y470273D01*
X23955Y470257D01*
X24061Y470232D01*
X24166Y470200D01*
X24198Y470199D01*
X24229Y470192D01*
X24339Y470197D01*
X24448Y470196D01*
X24479Y470205D01*
X24511Y470206D01*
X24614Y470242D01*
X24720Y470271D01*
X24747Y470288D01*
X24778Y470299D01*
X24851Y470352D01*
X24960Y470419D01*
X24992Y470455D01*
X25027Y470481D01*
X26014Y471468D01*
X27952Y472271D01*
X30048Y472271D01*
X31986Y471468D01*
X33468Y469986D01*
X34271Y468048D01*
X34271Y465952D01*
X33468Y464014D01*
X31986Y462532D01*
X30800Y462041D01*
X30698Y461980D01*
X30593Y461925D01*
X30577Y461909D01*
X30558Y461897D01*
X30477Y461811D01*
X30391Y461728D01*
X30380Y461708D01*
X30365Y461691D01*
X30311Y461586D01*
X30252Y461482D01*
X30247Y461460D01*
X30237Y461440D01*
X30215Y461323D01*
X30187Y461208D01*
X30189Y461185D01*
X30184Y461163D01*
X30196Y461045D01*
X30202Y460926D01*
X30209Y460905D01*
X30211Y460882D01*
X30255Y460772D01*
X30294Y460660D01*
X30307Y460642D01*
X30316Y460620D01*
X30431Y460473D01*
X30476Y460411D01*
X31293Y459594D01*
X32096Y457657D01*
X32096Y455560D01*
X31293Y453622D01*
X29769Y452098D01*
X29730Y452047D01*
X29684Y452002D01*
X29646Y451935D01*
X29600Y451873D01*
X29577Y451813D01*
X29545Y451757D01*
X29527Y451681D01*
X29500Y451609D01*
X29495Y451545D01*
X29480Y451482D01*
X29484Y451405D01*
X29478Y451328D01*
X29491Y451265D01*
X29495Y451201D01*
X29520Y451127D01*
X29536Y451052D01*
X29566Y450995D01*
X29587Y450934D01*
X29628Y450877D01*
X29668Y450803D01*
X29727Y450742D01*
X29769Y450685D01*
X30968Y449486D01*
X31771Y447548D01*
X31771Y445452D01*
X30968Y443514D01*
X29486Y442032D01*
X27548Y441229D01*
X25452Y441229D01*
X24147Y441770D01*
X24084Y441786D01*
X24025Y441811D01*
X23948Y441821D01*
X23873Y441840D01*
X23809Y441838D01*
X23745Y441846D01*
X23669Y441833D01*
X23591Y441831D01*
X23530Y441811D01*
X23467Y441801D01*
X23397Y441767D01*
X23323Y441743D01*
X23270Y441707D01*
X23212Y441680D01*
X23154Y441628D01*
X23090Y441585D01*
X23049Y441535D01*
X23001Y441492D01*
X22965Y441432D01*
X22911Y441367D01*
X22877Y441289D01*
X22841Y441229D01*
X21704Y438484D01*
X18716Y435496D01*
X14813Y433879D01*
X10587Y433879D01*
X6684Y435496D01*
X5723Y436457D01*
X5697Y436477D01*
X5676Y436501D01*
X5584Y436561D01*
X5497Y436627D01*
X5467Y436638D01*
X5440Y436656D01*
X5335Y436688D01*
X5233Y436726D01*
X5201Y436729D01*
X5170Y436738D01*
X5061Y436740D01*
X4952Y436748D01*
X4920Y436741D01*
X4888Y436742D01*
X4783Y436713D01*
X4676Y436690D01*
X4647Y436675D01*
X4616Y436667D01*
X4523Y436609D01*
X4427Y436558D01*
X4404Y436535D01*
X4376Y436519D01*
X4303Y436438D01*
X4225Y436361D01*
X4209Y436333D01*
X4187Y436309D01*
X4140Y436211D01*
X4086Y436116D01*
X4078Y436084D01*
X4064Y436055D01*
X4050Y435966D01*
X4021Y435841D01*
X4023Y435793D01*
X4017Y435751D01*
X4017Y427849D01*
X4021Y427817D01*
X4019Y427785D01*
X4041Y427678D01*
X4057Y427570D01*
X4070Y427541D01*
X4076Y427509D01*
X4128Y427412D01*
X4173Y427313D01*
X4194Y427288D01*
X4209Y427260D01*
X4285Y427182D01*
X4356Y427099D01*
X4383Y427081D01*
X4406Y427058D01*
X4501Y427004D01*
X4592Y426944D01*
X4623Y426935D01*
X4651Y426919D01*
X4757Y426894D01*
X4862Y426862D01*
X4894Y426861D01*
X4925Y426854D01*
X5035Y426860D01*
X5144Y426858D01*
X5175Y426867D01*
X5207Y426868D01*
X5310Y426904D01*
X5416Y426933D01*
X5443Y426950D01*
X5474Y426961D01*
X5547Y427014D01*
X5656Y427081D01*
X5688Y427117D01*
X5723Y427143D01*
X6684Y428104D01*
X10587Y429721D01*
X14813Y429721D01*
X18716Y428104D01*
X18811Y428033D01*
X18902Y427958D01*
X18923Y427949D01*
X18941Y427935D01*
X19052Y427893D01*
X19161Y427846D01*
X19184Y427844D01*
X19205Y427835D01*
X19323Y427826D01*
X19441Y427812D01*
X19464Y427815D01*
X19486Y427814D01*
X19602Y427838D01*
X19719Y427857D01*
X19740Y427867D01*
X19762Y427871D01*
X19867Y427927D01*
X19974Y427978D01*
X19991Y427993D01*
X20011Y428004D01*
X20096Y428086D01*
X20185Y428165D01*
X20196Y428184D01*
X20213Y428200D01*
X20306Y428363D01*
X20345Y428428D01*
X21108Y430269D01*
X22731Y431892D01*
X24852Y432771D01*
X27148Y432771D01*
X29269Y431892D01*
X30892Y430269D01*
X31771Y428148D01*
X31771Y425852D01*
X30892Y423731D01*
X29269Y422108D01*
X27148Y421229D01*
X24852Y421229D01*
X24702Y421291D01*
X24588Y421321D01*
X24474Y421355D01*
X24451Y421356D01*
X24429Y421361D01*
X24311Y421358D01*
X24192Y421359D01*
X24170Y421353D01*
X24147Y421352D01*
X24035Y421316D01*
X23920Y421284D01*
X23901Y421272D01*
X23879Y421265D01*
X23781Y421198D01*
X23680Y421136D01*
X23665Y421119D01*
X23646Y421106D01*
X23571Y421014D01*
X23491Y420926D01*
X23481Y420906D01*
X23467Y420888D01*
X23420Y420779D01*
X23368Y420673D01*
X23365Y420651D01*
X23355Y420629D01*
X23333Y420445D01*
X23321Y420368D01*
X23321Y416987D01*
X21704Y413084D01*
X18716Y410096D01*
X14813Y408479D01*
X10587Y408479D01*
X6684Y410096D01*
X5723Y411057D01*
X5697Y411077D01*
X5676Y411101D01*
X5584Y411161D01*
X5497Y411227D01*
X5467Y411238D01*
X5440Y411256D01*
X5335Y411288D01*
X5233Y411326D01*
X5201Y411329D01*
X5170Y411338D01*
X5061Y411340D01*
X4952Y411348D01*
X4920Y411341D01*
X4888Y411342D01*
X4783Y411313D01*
X4676Y411290D01*
X4647Y411275D01*
X4616Y411267D01*
X4523Y411209D01*
X4427Y411158D01*
X4404Y411135D01*
X4376Y411119D01*
X4303Y411038D01*
X4225Y410961D01*
X4209Y410933D01*
X4187Y410909D01*
X4140Y410811D01*
X4086Y410716D01*
X4078Y410684D01*
X4064Y410655D01*
X4050Y410566D01*
X4021Y410441D01*
X4023Y410393D01*
X4017Y410351D01*
X4017Y402449D01*
X4021Y402417D01*
X4019Y402385D01*
X4041Y402278D01*
X4057Y402170D01*
X4070Y402141D01*
X4076Y402109D01*
X4128Y402012D01*
X4173Y401913D01*
X4194Y401888D01*
X4209Y401860D01*
X4285Y401782D01*
X4356Y401699D01*
X4383Y401681D01*
X4406Y401658D01*
X4501Y401604D01*
X4592Y401544D01*
X4623Y401535D01*
X4651Y401519D01*
X4757Y401494D01*
X4862Y401462D01*
X4894Y401461D01*
X4925Y401454D01*
X5035Y401460D01*
X5144Y401458D01*
X5175Y401467D01*
X5207Y401468D01*
X5310Y401504D01*
X5416Y401533D01*
X5443Y401550D01*
X5474Y401561D01*
X5547Y401614D01*
X5656Y401681D01*
X5688Y401717D01*
X5723Y401743D01*
X6684Y402704D01*
X10587Y404321D01*
X14813Y404321D01*
X18716Y402704D01*
X21704Y399716D01*
X23251Y395982D01*
X23283Y395927D01*
X23307Y395867D01*
X23355Y395806D01*
X23394Y395739D01*
X23441Y395695D01*
X23481Y395644D01*
X23544Y395599D01*
X23600Y395546D01*
X23657Y395517D01*
X23709Y395479D01*
X23782Y395454D01*
X23851Y395418D01*
X23915Y395406D01*
X23975Y395385D01*
X24052Y395380D01*
X24128Y395366D01*
X24192Y395372D01*
X24257Y395368D01*
X24325Y395385D01*
X24409Y395393D01*
X24488Y395424D01*
X24556Y395441D01*
X25352Y395771D01*
X27648Y395771D01*
X29769Y394892D01*
X31392Y393269D01*
X32271Y391148D01*
X32271Y388852D01*
X31392Y386731D01*
X29769Y385108D01*
X27648Y384229D01*
X25352Y384229D01*
X23231Y385108D01*
X21886Y386453D01*
X21835Y386491D01*
X21790Y386538D01*
X21757Y386556D01*
X21754Y386559D01*
X21741Y386565D01*
X21722Y386576D01*
X21660Y386622D01*
X21600Y386645D01*
X21544Y386677D01*
X21469Y386694D01*
X21397Y386722D01*
X21333Y386727D01*
X21270Y386741D01*
X21193Y386738D01*
X21115Y386744D01*
X21052Y386730D01*
X20988Y386727D01*
X20915Y386702D01*
X20839Y386686D01*
X20783Y386656D01*
X20722Y386635D01*
X20665Y386593D01*
X20632Y386576D01*
X20627Y386573D01*
X20626Y386572D01*
X20590Y386553D01*
X20530Y386494D01*
X20473Y386453D01*
X18716Y384696D01*
X14813Y383079D01*
X10587Y383079D01*
X6684Y384696D01*
X5723Y385657D01*
X5697Y385677D01*
X5676Y385701D01*
X5584Y385761D01*
X5497Y385827D01*
X5467Y385838D01*
X5440Y385856D01*
X5335Y385888D01*
X5233Y385926D01*
X5201Y385929D01*
X5170Y385938D01*
X5061Y385940D01*
X4952Y385948D01*
X4920Y385941D01*
X4888Y385942D01*
X4783Y385913D01*
X4676Y385890D01*
X4647Y385875D01*
X4616Y385867D01*
X4523Y385809D01*
X4427Y385758D01*
X4404Y385735D01*
X4376Y385719D01*
X4303Y385638D01*
X4225Y385561D01*
X4209Y385533D01*
X4187Y385509D01*
X4140Y385411D01*
X4086Y385316D01*
X4078Y385284D01*
X4064Y385255D01*
X4050Y385166D01*
X4021Y385041D01*
X4023Y384993D01*
X4017Y384951D01*
X4017Y377049D01*
X4021Y377017D01*
X4019Y376985D01*
X4041Y376878D01*
X4057Y376770D01*
X4070Y376741D01*
X4076Y376709D01*
X4128Y376612D01*
X4173Y376513D01*
X4194Y376488D01*
X4209Y376460D01*
X4285Y376382D01*
X4356Y376299D01*
X4383Y376281D01*
X4406Y376258D01*
X4501Y376204D01*
X4592Y376144D01*
X4623Y376135D01*
X4651Y376119D01*
X4757Y376094D01*
X4862Y376062D01*
X4894Y376061D01*
X4925Y376054D01*
X5035Y376060D01*
X5144Y376058D01*
X5175Y376067D01*
X5207Y376068D01*
X5310Y376104D01*
X5416Y376133D01*
X5443Y376150D01*
X5474Y376161D01*
X5547Y376214D01*
X5656Y376281D01*
X5688Y376317D01*
X5723Y376343D01*
X6684Y377304D01*
X10587Y378921D01*
X14813Y378921D01*
X18716Y377304D01*
X21704Y374316D01*
X23321Y370413D01*
X23321Y366187D01*
X21704Y362284D01*
X18716Y359296D01*
X14813Y357679D01*
X10587Y357679D01*
X6684Y359296D01*
X5723Y360257D01*
X5697Y360277D01*
X5676Y360301D01*
X5584Y360361D01*
X5497Y360427D01*
X5467Y360438D01*
X5440Y360456D01*
X5335Y360488D01*
X5233Y360526D01*
X5201Y360529D01*
X5170Y360538D01*
X5061Y360540D01*
X4952Y360548D01*
X4920Y360541D01*
X4888Y360542D01*
X4783Y360513D01*
X4676Y360490D01*
X4647Y360475D01*
X4616Y360467D01*
X4523Y360409D01*
X4427Y360358D01*
X4404Y360335D01*
X4376Y360319D01*
X4303Y360238D01*
X4225Y360161D01*
X4209Y360133D01*
X4187Y360109D01*
X4140Y360011D01*
X4086Y359916D01*
X4078Y359884D01*
X4064Y359855D01*
X4050Y359766D01*
X4021Y359641D01*
X4023Y359593D01*
X4017Y359551D01*
X4017Y351649D01*
X4021Y351617D01*
X4019Y351585D01*
X4041Y351478D01*
X4057Y351370D01*
X4070Y351341D01*
X4076Y351309D01*
X4128Y351212D01*
X4173Y351113D01*
X4194Y351088D01*
X4209Y351060D01*
X4285Y350982D01*
X4356Y350899D01*
X4383Y350881D01*
X4406Y350858D01*
X4501Y350804D01*
X4592Y350744D01*
X4623Y350735D01*
X4651Y350719D01*
X4757Y350694D01*
X4862Y350662D01*
X4894Y350661D01*
X4925Y350654D01*
X5035Y350660D01*
X5144Y350658D01*
X5175Y350667D01*
X5207Y350668D01*
X5310Y350704D01*
X5416Y350733D01*
X5443Y350750D01*
X5474Y350761D01*
X5547Y350814D01*
X5656Y350881D01*
X5688Y350917D01*
X5723Y350943D01*
X6684Y351904D01*
X10587Y353521D01*
X14813Y353521D01*
X18716Y351904D01*
X21704Y348916D01*
X23321Y345013D01*
X23321Y340787D01*
X21704Y336884D01*
X18716Y333896D01*
X14813Y332279D01*
X10587Y332279D01*
X6684Y333896D01*
X5723Y334857D01*
X5697Y334877D01*
X5676Y334901D01*
X5584Y334961D01*
X5497Y335027D01*
X5467Y335038D01*
X5440Y335056D01*
X5335Y335088D01*
X5233Y335126D01*
X5201Y335129D01*
X5170Y335138D01*
X5061Y335140D01*
X4952Y335148D01*
X4920Y335141D01*
X4888Y335142D01*
X4783Y335113D01*
X4676Y335090D01*
X4647Y335075D01*
X4616Y335067D01*
X4523Y335009D01*
X4427Y334958D01*
X4404Y334935D01*
X4376Y334919D01*
X4303Y334838D01*
X4225Y334761D01*
X4209Y334733D01*
X4187Y334709D01*
X4140Y334611D01*
X4086Y334516D01*
X4078Y334484D01*
X4064Y334455D01*
X4050Y334366D01*
X4021Y334241D01*
X4023Y334193D01*
X4017Y334151D01*
X4017Y326249D01*
X4021Y326217D01*
X4019Y326185D01*
X4041Y326078D01*
X4057Y325970D01*
X4070Y325941D01*
X4076Y325909D01*
X4128Y325812D01*
X4173Y325713D01*
X4194Y325688D01*
X4209Y325660D01*
X4285Y325582D01*
X4356Y325499D01*
X4383Y325481D01*
X4406Y325458D01*
X4501Y325404D01*
X4592Y325344D01*
X4623Y325335D01*
X4651Y325319D01*
X4757Y325294D01*
X4862Y325262D01*
X4894Y325261D01*
X4925Y325254D01*
X5035Y325260D01*
X5144Y325258D01*
X5175Y325267D01*
X5207Y325268D01*
X5310Y325304D01*
X5416Y325333D01*
X5443Y325350D01*
X5474Y325361D01*
X5547Y325414D01*
X5656Y325481D01*
X5688Y325517D01*
X5723Y325543D01*
X6684Y326504D01*
X10587Y328121D01*
X14813Y328121D01*
X18716Y326504D01*
X21704Y323516D01*
X23321Y319613D01*
X23321Y318464D01*
X23333Y318378D01*
X23336Y318292D01*
X23353Y318239D01*
X23361Y318185D01*
X23396Y318106D01*
X23423Y318024D01*
X23454Y317978D01*
X23477Y317928D01*
X23533Y317862D01*
X23582Y317791D01*
X23624Y317756D01*
X23660Y317714D01*
X23733Y317666D01*
X23800Y317611D01*
X23850Y317590D01*
X23896Y317559D01*
X23979Y317534D01*
X24059Y317500D01*
X24113Y317493D01*
X24166Y317477D01*
X24253Y317476D01*
X24339Y317465D01*
X24393Y317474D01*
X24448Y317473D01*
X24532Y317496D01*
X24617Y317510D01*
X24667Y317534D01*
X24720Y317549D01*
X24793Y317594D01*
X24872Y317631D01*
X24913Y317668D01*
X24960Y317697D01*
X25018Y317761D01*
X25083Y317819D01*
X25109Y317862D01*
X25149Y317906D01*
X25198Y318008D01*
X25243Y318082D01*
X26032Y319986D01*
X27514Y321468D01*
X29452Y322271D01*
X31548Y322271D01*
X33486Y321468D01*
X34968Y319986D01*
X35789Y318004D01*
X35822Y317949D01*
X35846Y317889D01*
X35893Y317828D01*
X35933Y317761D01*
X35980Y317717D01*
X36019Y317667D01*
X36082Y317621D01*
X36138Y317568D01*
X36196Y317539D01*
X36248Y317502D01*
X36321Y317476D01*
X36390Y317441D01*
X36453Y317429D01*
X36514Y317407D01*
X36591Y317403D01*
X36667Y317388D01*
X36731Y317394D01*
X36795Y317391D01*
X36863Y317407D01*
X36948Y317415D01*
X37026Y317447D01*
X37095Y317463D01*
X37918Y317804D01*
X40015Y317804D01*
X41952Y317002D01*
X43435Y315519D01*
X44122Y313860D01*
X44171Y313777D01*
X44212Y313690D01*
X44243Y313656D01*
X44266Y313617D01*
X44336Y313551D01*
X44400Y313480D01*
X44436Y313457D01*
X44471Y313424D01*
X44586Y313366D01*
X44663Y313319D01*
X46322Y312632D01*
X47805Y311149D01*
X48607Y309212D01*
X48607Y307115D01*
X47805Y305178D01*
X46322Y303695D01*
X44385Y302893D01*
X42288Y302893D01*
X40351Y303695D01*
X38868Y305178D01*
X38181Y306837D01*
X38132Y306920D01*
X38091Y307007D01*
X38060Y307041D01*
X38037Y307080D01*
X37967Y307146D01*
X37903Y307217D01*
X37867Y307240D01*
X37832Y307273D01*
X37717Y307331D01*
X37640Y307378D01*
X35981Y308065D01*
X34498Y309548D01*
X33677Y311530D01*
X33645Y311585D01*
X33621Y311645D01*
X33573Y311706D01*
X33534Y311772D01*
X33487Y311816D01*
X33447Y311867D01*
X33385Y311912D01*
X33328Y311965D01*
X33271Y311994D01*
X33219Y312032D01*
X33146Y312058D01*
X33077Y312093D01*
X33013Y312105D01*
X32953Y312126D01*
X32876Y312131D01*
X32799Y312145D01*
X32736Y312139D01*
X32671Y312143D01*
X32603Y312126D01*
X32519Y312118D01*
X32440Y312087D01*
X32372Y312070D01*
X31548Y311729D01*
X29452Y311729D01*
X27514Y312532D01*
X26032Y314014D01*
X25243Y315918D01*
X25199Y315993D01*
X25163Y316072D01*
X25127Y316114D01*
X25100Y316161D01*
X25036Y316220D01*
X24980Y316286D01*
X24934Y316316D01*
X24894Y316354D01*
X24817Y316393D01*
X24744Y316441D01*
X24691Y316457D01*
X24642Y316481D01*
X24557Y316498D01*
X24474Y316523D01*
X24419Y316524D01*
X24365Y316534D01*
X24279Y316526D01*
X24192Y316527D01*
X24139Y316512D01*
X24085Y316507D01*
X24004Y316475D01*
X23920Y316451D01*
X23873Y316423D01*
X23823Y316402D01*
X23754Y316349D01*
X23680Y316303D01*
X23644Y316263D01*
X23600Y316229D01*
X23549Y316158D01*
X23491Y316094D01*
X23467Y316045D01*
X23435Y316000D01*
X23406Y315918D01*
X23368Y315840D01*
X23360Y315790D01*
X23341Y315734D01*
X23334Y315621D01*
X23321Y315536D01*
X23321Y315387D01*
X21704Y311484D01*
X21596Y311376D01*
X21544Y311306D01*
X21484Y311243D01*
X21459Y311194D01*
X21426Y311150D01*
X21396Y311069D01*
X21356Y310992D01*
X21346Y310938D01*
X21327Y310886D01*
X21320Y310800D01*
X21304Y310714D01*
X21309Y310660D01*
X21305Y310605D01*
X21323Y310520D01*
X21331Y310434D01*
X21351Y310383D01*
X21363Y310329D01*
X21404Y310252D01*
X21436Y310172D01*
X21469Y310129D01*
X21495Y310080D01*
X21556Y310018D01*
X21609Y309949D01*
X21654Y309917D01*
X21692Y309878D01*
X21767Y309835D01*
X21838Y309784D01*
X21890Y309766D01*
X21937Y309739D01*
X22022Y309719D01*
X22104Y309690D01*
X22158Y309687D01*
X22212Y309674D01*
X22298Y309678D01*
X22385Y309673D01*
X22435Y309685D01*
X22493Y309688D01*
X22601Y309726D01*
X22685Y309746D01*
X23952Y310271D01*
X26048Y310271D01*
X27986Y309468D01*
X29468Y307986D01*
X30271Y306048D01*
X30271Y303952D01*
X29468Y302014D01*
X27986Y300532D01*
X26048Y299729D01*
X23952Y299729D01*
X22002Y300537D01*
X21918Y300558D01*
X21837Y300589D01*
X21782Y300593D01*
X21729Y300607D01*
X21642Y300604D01*
X21555Y300611D01*
X21502Y300600D01*
X21447Y300598D01*
X21364Y300571D01*
X21279Y300553D01*
X21231Y300528D01*
X21179Y300510D01*
X21107Y300461D01*
X21030Y300421D01*
X20991Y300382D01*
X20946Y300352D01*
X20890Y300285D01*
X20828Y300224D01*
X20801Y300176D01*
X20766Y300134D01*
X20732Y300054D01*
X20689Y299979D01*
X20677Y299925D01*
X20655Y299875D01*
X20644Y299789D01*
X20624Y299704D01*
X20627Y299649D01*
X20620Y299595D01*
X20634Y299509D01*
X20639Y299423D01*
X20657Y299371D01*
X20665Y299316D01*
X20703Y299238D01*
X20731Y299156D01*
X20761Y299115D01*
X20786Y299062D01*
X20862Y298977D01*
X20913Y298907D01*
X21704Y298116D01*
X23321Y294213D01*
X23321Y289987D01*
X21704Y286084D01*
X18716Y283096D01*
X14813Y281479D01*
X10587Y281479D01*
X6684Y283096D01*
X5723Y284057D01*
X5697Y284077D01*
X5676Y284101D01*
X5584Y284161D01*
X5497Y284227D01*
X5467Y284238D01*
X5440Y284256D01*
X5335Y284288D01*
X5233Y284326D01*
X5201Y284329D01*
X5170Y284338D01*
X5061Y284340D01*
X4952Y284348D01*
X4920Y284341D01*
X4888Y284342D01*
X4783Y284313D01*
X4676Y284290D01*
X4647Y284275D01*
X4616Y284267D01*
X4523Y284209D01*
X4427Y284158D01*
X4404Y284135D01*
X4376Y284119D01*
X4303Y284038D01*
X4225Y283961D01*
X4209Y283933D01*
X4187Y283909D01*
X4140Y283811D01*
X4086Y283716D01*
X4078Y283684D01*
X4064Y283655D01*
X4050Y283566D01*
X4021Y283441D01*
X4023Y283393D01*
X4017Y283351D01*
X4017Y275449D01*
X4021Y275417D01*
X4019Y275385D01*
X4041Y275278D01*
X4057Y275170D01*
X4070Y275141D01*
X4076Y275109D01*
X4128Y275012D01*
X4173Y274913D01*
X4194Y274888D01*
X4209Y274860D01*
X4285Y274782D01*
X4356Y274699D01*
X4383Y274681D01*
X4406Y274658D01*
X4501Y274604D01*
X4592Y274544D01*
X4623Y274535D01*
X4651Y274519D01*
X4757Y274494D01*
X4862Y274462D01*
X4894Y274461D01*
X4925Y274454D01*
X5035Y274460D01*
X5144Y274458D01*
X5175Y274467D01*
X5207Y274468D01*
X5310Y274504D01*
X5416Y274533D01*
X5443Y274550D01*
X5474Y274561D01*
X5547Y274614D01*
X5656Y274681D01*
X5688Y274717D01*
X5723Y274743D01*
X6684Y275704D01*
X10587Y277321D01*
X14813Y277321D01*
X18716Y275704D01*
X21704Y272716D01*
X23321Y268813D01*
X23321Y264587D01*
X21704Y260684D01*
X18716Y257696D01*
X14813Y256079D01*
X10587Y256079D01*
X6684Y257696D01*
X5723Y258657D01*
X5697Y258677D01*
X5676Y258701D01*
X5584Y258761D01*
X5497Y258827D01*
X5467Y258838D01*
X5440Y258856D01*
X5335Y258888D01*
X5233Y258926D01*
X5201Y258929D01*
X5170Y258938D01*
X5061Y258940D01*
X4952Y258948D01*
X4920Y258941D01*
X4888Y258942D01*
X4783Y258913D01*
X4676Y258890D01*
X4647Y258875D01*
X4616Y258867D01*
X4523Y258809D01*
X4427Y258758D01*
X4404Y258735D01*
X4376Y258719D01*
X4303Y258638D01*
X4225Y258561D01*
X4209Y258533D01*
X4187Y258509D01*
X4140Y258411D01*
X4086Y258316D01*
X4078Y258284D01*
X4064Y258255D01*
X4050Y258166D01*
X4021Y258041D01*
X4023Y257993D01*
X4017Y257951D01*
X4017Y250049D01*
X4021Y250017D01*
X4019Y249985D01*
X4041Y249878D01*
X4057Y249770D01*
X4070Y249741D01*
X4076Y249709D01*
X4128Y249612D01*
X4173Y249513D01*
X4194Y249488D01*
X4209Y249460D01*
X4285Y249382D01*
X4356Y249299D01*
X4383Y249281D01*
X4406Y249258D01*
X4501Y249204D01*
X4592Y249144D01*
X4623Y249135D01*
X4651Y249119D01*
X4757Y249094D01*
X4862Y249062D01*
X4894Y249061D01*
X4925Y249054D01*
X5035Y249060D01*
X5144Y249058D01*
X5175Y249067D01*
X5207Y249068D01*
X5310Y249104D01*
X5416Y249133D01*
X5443Y249150D01*
X5474Y249161D01*
X5547Y249214D01*
X5656Y249281D01*
X5688Y249317D01*
X5723Y249343D01*
X6684Y250304D01*
X10587Y251921D01*
X14813Y251921D01*
X18716Y250304D01*
X21704Y247316D01*
X23321Y243413D01*
X23321Y239187D01*
X21704Y235284D01*
X18716Y232296D01*
X14813Y230679D01*
X10587Y230679D01*
X6684Y232296D01*
X5723Y233257D01*
X5697Y233277D01*
X5676Y233301D01*
X5584Y233361D01*
X5497Y233427D01*
X5467Y233438D01*
X5440Y233456D01*
X5335Y233488D01*
X5233Y233526D01*
X5201Y233529D01*
X5170Y233538D01*
X5061Y233540D01*
X4952Y233548D01*
X4920Y233541D01*
X4888Y233542D01*
X4783Y233513D01*
X4676Y233490D01*
X4647Y233475D01*
X4616Y233467D01*
X4523Y233409D01*
X4427Y233358D01*
X4404Y233335D01*
X4376Y233319D01*
X4303Y233238D01*
X4225Y233161D01*
X4209Y233133D01*
X4187Y233109D01*
X4140Y233011D01*
X4086Y232916D01*
X4078Y232884D01*
X4064Y232855D01*
X4050Y232766D01*
X4021Y232641D01*
X4023Y232593D01*
X4017Y232551D01*
X4017Y25400D01*
X4023Y25358D01*
X4020Y25322D01*
X4271Y22133D01*
X4302Y21993D01*
X4317Y21902D01*
X6287Y15837D01*
X6288Y15835D01*
X6289Y15833D01*
X6304Y15802D01*
X6411Y15584D01*
X6423Y15572D01*
X6429Y15559D01*
X10178Y10399D01*
X10179Y10397D01*
X10181Y10395D01*
X10194Y10382D01*
X10200Y10372D01*
X10232Y10344D01*
X10374Y10196D01*
X10388Y10188D01*
X10399Y10178D01*
X15559Y6429D01*
X15561Y6428D01*
X15562Y6427D01*
X15593Y6411D01*
X15808Y6297D01*
X15824Y6294D01*
X15837Y6287D01*
X21902Y4317D01*
X22044Y4292D01*
X22133Y4271D01*
X25322Y4020D01*
X25363Y4022D01*
X25400Y4017D01*
X65173Y4017D01*
X65237Y4026D01*
G37*
%LPC*%
G36*
X146750Y241749D02*
X146750Y241749D01*
X114499Y274000D01*
X114499Y275133D01*
X114486Y275228D01*
X114481Y275324D01*
X114466Y275367D01*
X114459Y275412D01*
X114420Y275500D01*
X114388Y275590D01*
X114363Y275625D01*
X114343Y275669D01*
X114260Y275766D01*
X114207Y275839D01*
X114032Y276014D01*
X113229Y277952D01*
X113229Y280048D01*
X114032Y281986D01*
X114207Y282161D01*
X114264Y282237D01*
X114329Y282309D01*
X114349Y282350D01*
X114376Y282386D01*
X114410Y282476D01*
X114452Y282563D01*
X114458Y282605D01*
X114475Y282650D01*
X114485Y282778D01*
X114499Y282867D01*
X114499Y297633D01*
X114486Y297728D01*
X114481Y297824D01*
X114466Y297867D01*
X114459Y297912D01*
X114420Y298000D01*
X114388Y298090D01*
X114363Y298125D01*
X114343Y298169D01*
X114260Y298266D01*
X114207Y298339D01*
X113032Y299514D01*
X112229Y301452D01*
X112229Y303548D01*
X113032Y305486D01*
X114514Y306968D01*
X116452Y307771D01*
X116856Y307771D01*
X116951Y307784D01*
X117047Y307789D01*
X117090Y307804D01*
X117135Y307811D01*
X117222Y307850D01*
X117313Y307882D01*
X117348Y307907D01*
X117392Y307927D01*
X117489Y308010D01*
X117562Y308063D01*
X123437Y313938D01*
X123494Y314014D01*
X123559Y314086D01*
X123579Y314127D01*
X123606Y314163D01*
X123640Y314253D01*
X123682Y314340D01*
X123688Y314382D01*
X123705Y314427D01*
X123711Y314505D01*
X124532Y316486D01*
X126014Y317968D01*
X127989Y318786D01*
X128047Y318789D01*
X128090Y318804D01*
X128135Y318811D01*
X128222Y318850D01*
X128313Y318882D01*
X128348Y318907D01*
X128392Y318927D01*
X128478Y319001D01*
X128520Y319001D01*
X128586Y318941D01*
X128627Y318921D01*
X128663Y318894D01*
X128753Y318860D01*
X128840Y318818D01*
X128882Y318812D01*
X128927Y318795D01*
X129055Y318785D01*
X129144Y318771D01*
X130048Y318771D01*
X131986Y317968D01*
X133468Y316486D01*
X133828Y315618D01*
X133833Y315609D01*
X133835Y315600D01*
X133905Y315488D01*
X133971Y315375D01*
X133978Y315368D01*
X133983Y315360D01*
X134081Y315272D01*
X134177Y315182D01*
X134186Y315178D01*
X134193Y315171D01*
X134311Y315114D01*
X134429Y315054D01*
X134438Y315052D01*
X134446Y315048D01*
X134523Y315036D01*
X134706Y315002D01*
X134730Y315004D01*
X134751Y315001D01*
X143595Y315001D01*
X143712Y315017D01*
X143830Y315029D01*
X143852Y315037D01*
X143874Y315041D01*
X143982Y315089D01*
X144092Y315133D01*
X144110Y315147D01*
X144131Y315157D01*
X144221Y315234D01*
X144315Y315307D01*
X144328Y315325D01*
X144345Y315340D01*
X144410Y315440D01*
X144480Y315536D01*
X144487Y315557D01*
X144500Y315576D01*
X144534Y315690D01*
X144574Y315801D01*
X144576Y315824D01*
X144582Y315846D01*
X144584Y315964D01*
X144591Y316083D01*
X144586Y316104D01*
X144586Y316128D01*
X144536Y316307D01*
X144518Y316382D01*
X143939Y317780D01*
X143939Y319877D01*
X144742Y321814D01*
X146224Y323296D01*
X148162Y324099D01*
X150258Y324099D01*
X152196Y323296D01*
X153678Y321814D01*
X154481Y319877D01*
X154481Y317780D01*
X154047Y316732D01*
X154031Y316669D01*
X154005Y316610D01*
X153996Y316533D01*
X153977Y316459D01*
X153979Y316394D01*
X153971Y316330D01*
X153983Y316254D01*
X153986Y316177D01*
X154006Y316115D01*
X154016Y316052D01*
X154049Y315982D01*
X154073Y315909D01*
X154109Y315855D01*
X154137Y315797D01*
X154188Y315739D01*
X154232Y315676D01*
X154282Y315634D01*
X154325Y315586D01*
X154384Y315550D01*
X154450Y315496D01*
X154464Y315490D01*
X155968Y313986D01*
X156771Y312048D01*
X156771Y311144D01*
X156784Y311049D01*
X156789Y310953D01*
X156804Y310910D01*
X156811Y310865D01*
X156850Y310777D01*
X156882Y310687D01*
X156907Y310652D01*
X156927Y310608D01*
X157010Y310511D01*
X157063Y310438D01*
X179938Y287563D01*
X180014Y287506D01*
X180086Y287441D01*
X180127Y287421D01*
X180163Y287394D01*
X180253Y287360D01*
X180340Y287318D01*
X180382Y287312D01*
X180427Y287295D01*
X180555Y287285D01*
X180644Y287271D01*
X181048Y287271D01*
X182986Y286468D01*
X184468Y284986D01*
X185271Y283048D01*
X185271Y282644D01*
X185284Y282549D01*
X185289Y282453D01*
X185304Y282410D01*
X185311Y282365D01*
X185350Y282278D01*
X185382Y282187D01*
X185407Y282152D01*
X185427Y282108D01*
X185510Y282011D01*
X185563Y281938D01*
X186251Y281250D01*
X184929Y279928D01*
X184904Y279895D01*
X184873Y279867D01*
X184828Y279793D01*
X184760Y279703D01*
X184739Y279648D01*
X184713Y279604D01*
X184468Y279014D01*
X182986Y277532D01*
X182396Y277287D01*
X182360Y277266D01*
X182321Y277253D01*
X182251Y277202D01*
X182153Y277144D01*
X182113Y277101D01*
X182072Y277071D01*
X170063Y265062D01*
X170006Y264986D01*
X169941Y264914D01*
X169921Y264873D01*
X169894Y264837D01*
X169860Y264747D01*
X169818Y264660D01*
X169812Y264618D01*
X169795Y264573D01*
X169789Y264495D01*
X168968Y262514D01*
X167486Y261032D01*
X165511Y260214D01*
X165453Y260211D01*
X165410Y260196D01*
X165365Y260189D01*
X165278Y260150D01*
X165187Y260118D01*
X165152Y260093D01*
X165108Y260073D01*
X165011Y259990D01*
X164938Y259937D01*
X151929Y246928D01*
X151904Y246895D01*
X151873Y246867D01*
X151828Y246794D01*
X151760Y246703D01*
X151739Y246647D01*
X151713Y246604D01*
X151468Y246014D01*
X149986Y244532D01*
X149396Y244287D01*
X149360Y244266D01*
X149321Y244253D01*
X149251Y244202D01*
X149153Y244144D01*
X149113Y244101D01*
X149072Y244071D01*
X147043Y242042D01*
X146750Y241749D01*
X146750Y241749D01*
G37*
%LPD*%
%LPC*%
G36*
X73500Y244499D02*
X73500Y244499D01*
X54928Y263071D01*
X54895Y263096D01*
X54867Y263127D01*
X54794Y263172D01*
X54703Y263240D01*
X54647Y263261D01*
X54604Y263287D01*
X54014Y263532D01*
X52532Y265014D01*
X52287Y265604D01*
X52266Y265640D01*
X52253Y265679D01*
X52202Y265749D01*
X52144Y265847D01*
X52101Y265887D01*
X52071Y265928D01*
X37928Y280071D01*
X37895Y280096D01*
X37867Y280127D01*
X37794Y280172D01*
X37703Y280240D01*
X37647Y280261D01*
X37604Y280287D01*
X37014Y280532D01*
X35532Y282014D01*
X35287Y282604D01*
X35266Y282640D01*
X35253Y282679D01*
X35202Y282749D01*
X35144Y282847D01*
X35101Y282887D01*
X35071Y282928D01*
X33499Y284500D01*
X34437Y285438D01*
X34494Y285514D01*
X34559Y285586D01*
X34579Y285627D01*
X34606Y285663D01*
X34640Y285753D01*
X34682Y285840D01*
X34688Y285882D01*
X34705Y285927D01*
X34711Y286005D01*
X35532Y287986D01*
X37014Y289468D01*
X38989Y290286D01*
X39047Y290289D01*
X39090Y290304D01*
X39135Y290311D01*
X39223Y290350D01*
X39313Y290382D01*
X39348Y290407D01*
X39392Y290427D01*
X39489Y290510D01*
X39562Y290563D01*
X60437Y311438D01*
X60494Y311514D01*
X60559Y311586D01*
X60579Y311627D01*
X60606Y311663D01*
X60640Y311753D01*
X60682Y311840D01*
X60688Y311882D01*
X60705Y311927D01*
X60715Y312055D01*
X60729Y312144D01*
X60729Y312548D01*
X61532Y314486D01*
X63014Y315968D01*
X64952Y316771D01*
X67048Y316771D01*
X68986Y315968D01*
X69661Y315293D01*
X69737Y315236D01*
X69809Y315171D01*
X69850Y315151D01*
X69886Y315124D01*
X69976Y315090D01*
X70063Y315048D01*
X70105Y315042D01*
X70150Y315025D01*
X70278Y315015D01*
X70367Y315001D01*
X79010Y315001D01*
X79127Y315017D01*
X79246Y315029D01*
X79267Y315037D01*
X79289Y315041D01*
X79397Y315089D01*
X79508Y315133D01*
X79525Y315147D01*
X79546Y315157D01*
X79636Y315234D01*
X79730Y315307D01*
X79743Y315325D01*
X79761Y315340D01*
X79826Y315440D01*
X79895Y315536D01*
X79903Y315557D01*
X79915Y315576D01*
X79950Y315690D01*
X79989Y315801D01*
X79991Y315824D01*
X79997Y315846D01*
X79999Y315964D01*
X80006Y316083D01*
X80001Y316104D01*
X80001Y316128D01*
X79951Y316307D01*
X79933Y316382D01*
X79229Y318082D01*
X79229Y320378D01*
X80108Y322499D01*
X81731Y324122D01*
X83852Y325001D01*
X86148Y325001D01*
X88269Y324122D01*
X89892Y322499D01*
X90771Y320378D01*
X90771Y320270D01*
X90780Y320206D01*
X90779Y320142D01*
X90800Y320067D01*
X90811Y319991D01*
X90837Y319932D01*
X90854Y319870D01*
X90895Y319804D01*
X90927Y319734D01*
X90969Y319685D01*
X91002Y319630D01*
X91060Y319578D01*
X91110Y319520D01*
X91164Y319484D01*
X91212Y319441D01*
X91281Y319408D01*
X91346Y319365D01*
X91408Y319346D01*
X91465Y319318D01*
X91535Y319307D01*
X91616Y319283D01*
X91701Y319282D01*
X91770Y319271D01*
X92548Y319271D01*
X94486Y318468D01*
X95968Y316986D01*
X96771Y315048D01*
X96771Y314644D01*
X96784Y314549D01*
X96789Y314453D01*
X96804Y314410D01*
X96811Y314365D01*
X96850Y314277D01*
X96882Y314187D01*
X96907Y314152D01*
X96927Y314108D01*
X97010Y314011D01*
X97063Y313938D01*
X102938Y308063D01*
X103014Y308006D01*
X103086Y307941D01*
X103127Y307921D01*
X103163Y307894D01*
X103253Y307860D01*
X103340Y307818D01*
X103382Y307812D01*
X103427Y307795D01*
X103555Y307785D01*
X103644Y307771D01*
X104548Y307771D01*
X106486Y306968D01*
X107968Y305486D01*
X108771Y303548D01*
X108771Y301452D01*
X107968Y299514D01*
X106428Y297974D01*
X106375Y297943D01*
X106368Y297936D01*
X106360Y297931D01*
X106272Y297833D01*
X106182Y297737D01*
X106178Y297729D01*
X106171Y297722D01*
X106114Y297603D01*
X106054Y297486D01*
X106052Y297476D01*
X106048Y297468D01*
X106036Y297391D01*
X106002Y297209D01*
X106004Y297185D01*
X106001Y297163D01*
X106001Y282867D01*
X106014Y282772D01*
X106019Y282676D01*
X106034Y282633D01*
X106041Y282588D01*
X106080Y282500D01*
X106112Y282410D01*
X106137Y282375D01*
X106157Y282331D01*
X106240Y282234D01*
X106293Y282161D01*
X106468Y281986D01*
X107271Y280048D01*
X107271Y277952D01*
X106468Y276014D01*
X104986Y274532D01*
X103011Y273714D01*
X102953Y273711D01*
X102910Y273696D01*
X102865Y273689D01*
X102777Y273650D01*
X102687Y273618D01*
X102652Y273593D01*
X102608Y273573D01*
X102511Y273490D01*
X102438Y273437D01*
X78929Y249928D01*
X78904Y249895D01*
X78873Y249867D01*
X78828Y249794D01*
X78760Y249703D01*
X78739Y249647D01*
X78713Y249604D01*
X78468Y249014D01*
X76986Y247532D01*
X76396Y247287D01*
X76360Y247266D01*
X76321Y247253D01*
X76251Y247202D01*
X76153Y247144D01*
X76113Y247101D01*
X76072Y247071D01*
X73500Y244499D01*
X73500Y244499D01*
G37*
%LPD*%
%LPC*%
G36*
X199572Y7159D02*
X199572Y7159D01*
X192867Y9936D01*
X187736Y15067D01*
X184959Y21772D01*
X184959Y29028D01*
X187736Y35733D01*
X190687Y38683D01*
X190731Y38741D01*
X190782Y38793D01*
X190815Y38854D01*
X190856Y38909D01*
X190882Y38977D01*
X190917Y39041D01*
X190931Y39108D01*
X190956Y39173D01*
X190962Y39245D01*
X190977Y39316D01*
X190972Y39385D01*
X190978Y39454D01*
X190963Y39525D01*
X190958Y39597D01*
X190934Y39663D01*
X190920Y39730D01*
X190886Y39794D01*
X190861Y39862D01*
X190820Y39918D01*
X190788Y39979D01*
X190737Y40031D01*
X190694Y40090D01*
X190639Y40132D01*
X190591Y40181D01*
X190528Y40217D01*
X190470Y40261D01*
X190406Y40286D01*
X190345Y40320D01*
X190275Y40337D01*
X190207Y40363D01*
X190144Y40368D01*
X190071Y40385D01*
X189976Y40380D01*
X189900Y40386D01*
X189851Y40382D01*
X189804Y40412D01*
X189750Y40427D01*
X189700Y40452D01*
X189624Y40464D01*
X189622Y40464D01*
X188621Y41465D01*
X188587Y41491D01*
X188562Y41520D01*
X187487Y42434D01*
X187474Y42488D01*
X187447Y42537D01*
X187429Y42590D01*
X187384Y42652D01*
X187383Y42654D01*
X187383Y44069D01*
X187377Y44112D01*
X187380Y44150D01*
X187266Y45556D01*
X187295Y45604D01*
X187311Y45657D01*
X187335Y45708D01*
X187347Y45784D01*
X187348Y45785D01*
X188265Y46702D01*
X188294Y46742D01*
X188331Y46775D01*
X188379Y46854D01*
X188434Y46928D01*
X188451Y46974D01*
X188477Y47016D01*
X188501Y47105D01*
X188534Y47192D01*
X188537Y47241D01*
X188550Y47289D01*
X188548Y47381D01*
X188555Y47473D01*
X188545Y47521D01*
X188544Y47571D01*
X188519Y47648D01*
X188498Y47749D01*
X188466Y47809D01*
X188448Y47864D01*
X187086Y50531D01*
X187566Y52014D01*
X188216Y54020D01*
X191627Y56501D01*
X195332Y56501D01*
X195384Y56459D01*
X198041Y54925D01*
X199575Y52268D01*
X199617Y52214D01*
X199617Y49060D01*
X199514Y48957D01*
X199493Y48929D01*
X199466Y48906D01*
X199418Y48830D01*
X199345Y48732D01*
X199326Y48683D01*
X199302Y48644D01*
X199103Y48180D01*
X199080Y48095D01*
X199048Y48013D01*
X199045Y47964D01*
X199030Y47908D01*
X199032Y47793D01*
X199027Y47725D01*
X199020Y47717D01*
X199007Y47696D01*
X198990Y47680D01*
X198932Y47577D01*
X198870Y47478D01*
X198863Y47455D01*
X198851Y47434D01*
X198824Y47320D01*
X198792Y47207D01*
X198792Y47183D01*
X198786Y47160D01*
X198792Y47042D01*
X198793Y46925D01*
X198800Y46902D01*
X198801Y46878D01*
X198839Y46767D01*
X198873Y46654D01*
X198885Y46634D01*
X198893Y46612D01*
X198947Y46538D01*
X199025Y46417D01*
X199054Y46391D01*
X199075Y46363D01*
X199617Y45821D01*
X199617Y44640D01*
X199626Y44576D01*
X199625Y44512D01*
X199646Y44437D01*
X199657Y44361D01*
X199683Y44302D01*
X199701Y44240D01*
X199741Y44174D01*
X199773Y44104D01*
X199815Y44055D01*
X199849Y44000D01*
X199906Y43948D01*
X199957Y43890D01*
X200010Y43854D01*
X200058Y43811D01*
X200128Y43778D01*
X200193Y43735D01*
X200254Y43716D01*
X200312Y43688D01*
X200381Y43677D01*
X200462Y43653D01*
X200547Y43652D01*
X200616Y43641D01*
X206828Y43641D01*
X213533Y40864D01*
X218664Y35733D01*
X221441Y29028D01*
X221441Y21772D01*
X218664Y15067D01*
X213533Y9936D01*
X206828Y7159D01*
X199572Y7159D01*
G37*
%LPD*%
%LPC*%
G36*
X199572Y540559D02*
X199572Y540559D01*
X192867Y543336D01*
X187736Y548467D01*
X184959Y555172D01*
X184959Y562428D01*
X187736Y569133D01*
X192867Y574264D01*
X199572Y577041D01*
X206828Y577041D01*
X213533Y574264D01*
X218664Y569133D01*
X221441Y562428D01*
X221441Y555172D01*
X218664Y548467D01*
X213533Y543336D01*
X206828Y540559D01*
X199572Y540559D01*
G37*
%LPD*%
%LPC*%
G36*
X21772Y540559D02*
X21772Y540559D01*
X15067Y543336D01*
X9936Y548467D01*
X7159Y555172D01*
X7159Y562428D01*
X9936Y569133D01*
X15067Y574264D01*
X21772Y577041D01*
X29028Y577041D01*
X35733Y574264D01*
X40864Y569133D01*
X43641Y562428D01*
X43641Y555172D01*
X40864Y548467D01*
X35733Y543336D01*
X29028Y540559D01*
X21772Y540559D01*
G37*
%LPD*%
%LPC*%
G36*
X21772Y7159D02*
X21772Y7159D01*
X15067Y9936D01*
X9936Y15067D01*
X7159Y21772D01*
X7159Y29028D01*
X9936Y35733D01*
X15067Y40864D01*
X21772Y43641D01*
X29028Y43641D01*
X35733Y40864D01*
X40864Y35733D01*
X43641Y29028D01*
X43641Y21772D01*
X40864Y15067D01*
X35733Y9936D01*
X29028Y7159D01*
X21772Y7159D01*
G37*
%LPD*%
%LPC*%
G36*
X61452Y34229D02*
X61452Y34229D01*
X59514Y35032D01*
X58032Y36514D01*
X57229Y38452D01*
X57229Y40548D01*
X58032Y42486D01*
X59514Y43968D01*
X61452Y44771D01*
X63548Y44771D01*
X64791Y44256D01*
X64905Y44227D01*
X65019Y44192D01*
X65042Y44192D01*
X65064Y44186D01*
X65182Y44190D01*
X65301Y44188D01*
X65323Y44194D01*
X65346Y44195D01*
X65458Y44232D01*
X65573Y44264D01*
X65592Y44276D01*
X65614Y44283D01*
X65712Y44349D01*
X65813Y44412D01*
X65828Y44429D01*
X65847Y44442D01*
X65922Y44533D01*
X66002Y44621D01*
X66012Y44642D01*
X66026Y44659D01*
X66073Y44768D01*
X66125Y44875D01*
X66128Y44896D01*
X66138Y44918D01*
X66160Y45103D01*
X66172Y45179D01*
X66172Y49444D01*
X66166Y49485D01*
X66169Y49527D01*
X66149Y49611D01*
X66132Y49723D01*
X66108Y49777D01*
X66096Y49827D01*
X65329Y51678D01*
X65329Y53974D01*
X66096Y55825D01*
X66107Y55866D01*
X66125Y55903D01*
X66138Y55988D01*
X66166Y56099D01*
X66164Y56157D01*
X66172Y56208D01*
X66172Y63029D01*
X66247Y63104D01*
X72511Y63104D01*
X72543Y63108D01*
X72575Y63106D01*
X72682Y63128D01*
X72790Y63144D01*
X72820Y63157D01*
X72851Y63163D01*
X72948Y63215D01*
X73047Y63260D01*
X73072Y63281D01*
X73100Y63296D01*
X73178Y63372D01*
X73261Y63443D01*
X73279Y63470D01*
X73302Y63493D01*
X73356Y63588D01*
X73416Y63679D01*
X73425Y63710D01*
X73441Y63738D01*
X73466Y63844D01*
X73498Y63949D01*
X73499Y63981D01*
X73506Y64012D01*
X73501Y64122D01*
X73502Y64231D01*
X73493Y64262D01*
X73492Y64294D01*
X73456Y64397D01*
X73427Y64503D01*
X73410Y64530D01*
X73399Y64561D01*
X73346Y64634D01*
X73279Y64743D01*
X73243Y64775D01*
X73218Y64810D01*
X71566Y66461D01*
X70687Y68582D01*
X70687Y69534D01*
X70671Y69651D01*
X70659Y69769D01*
X70651Y69791D01*
X70648Y69813D01*
X70599Y69921D01*
X70555Y70031D01*
X70541Y70049D01*
X70531Y70070D01*
X70454Y70160D01*
X70381Y70254D01*
X70363Y70267D01*
X70348Y70284D01*
X70249Y70350D01*
X70153Y70419D01*
X70131Y70426D01*
X70112Y70439D01*
X69999Y70474D01*
X69887Y70513D01*
X69864Y70515D01*
X69842Y70521D01*
X69724Y70523D01*
X69605Y70530D01*
X69584Y70525D01*
X69560Y70525D01*
X69381Y70475D01*
X69306Y70457D01*
X67548Y69729D01*
X65452Y69729D01*
X63514Y70532D01*
X62032Y72014D01*
X61229Y73952D01*
X61229Y76048D01*
X62032Y77986D01*
X63514Y79468D01*
X65452Y80271D01*
X67548Y80271D01*
X69486Y79468D01*
X70968Y77986D01*
X71771Y76048D01*
X71771Y75530D01*
X71787Y75413D01*
X71799Y75295D01*
X71807Y75273D01*
X71811Y75251D01*
X71859Y75143D01*
X71903Y75033D01*
X71917Y75015D01*
X71927Y74994D01*
X72004Y74904D01*
X72077Y74810D01*
X72095Y74797D01*
X72110Y74780D01*
X72209Y74715D01*
X72306Y74645D01*
X72327Y74638D01*
X72346Y74625D01*
X72460Y74591D01*
X72571Y74551D01*
X72594Y74549D01*
X72616Y74543D01*
X72734Y74541D01*
X72853Y74534D01*
X72874Y74539D01*
X72898Y74539D01*
X73077Y74589D01*
X73152Y74607D01*
X75310Y75501D01*
X77606Y75501D01*
X79727Y74622D01*
X81350Y72999D01*
X82229Y70878D01*
X82229Y68582D01*
X81350Y66461D01*
X79727Y64838D01*
X77606Y63959D01*
X77427Y63959D01*
X77363Y63950D01*
X77299Y63951D01*
X77224Y63930D01*
X77148Y63919D01*
X77089Y63893D01*
X77027Y63876D01*
X76961Y63835D01*
X76891Y63803D01*
X76842Y63761D01*
X76787Y63728D01*
X76735Y63670D01*
X76677Y63620D01*
X76641Y63566D01*
X76598Y63518D01*
X76565Y63449D01*
X76522Y63384D01*
X76503Y63322D01*
X76475Y63265D01*
X76464Y63195D01*
X76440Y63114D01*
X76439Y63029D01*
X76428Y62960D01*
X76428Y55242D01*
X76434Y55201D01*
X76431Y55159D01*
X76451Y55075D01*
X76468Y54963D01*
X76492Y54909D01*
X76504Y54860D01*
X76871Y53974D01*
X76871Y51678D01*
X76504Y50792D01*
X76493Y50752D01*
X76475Y50714D01*
X76462Y50629D01*
X76434Y50519D01*
X76436Y50460D01*
X76428Y50410D01*
X76428Y45221D01*
X76444Y45103D01*
X76456Y44985D01*
X76464Y44964D01*
X76468Y44942D01*
X76516Y44834D01*
X76560Y44723D01*
X76574Y44705D01*
X76584Y44685D01*
X76661Y44594D01*
X76734Y44501D01*
X76752Y44488D01*
X76767Y44470D01*
X76867Y44405D01*
X76963Y44336D01*
X76984Y44328D01*
X77003Y44316D01*
X77117Y44281D01*
X77228Y44242D01*
X77251Y44240D01*
X77273Y44234D01*
X77391Y44232D01*
X77510Y44225D01*
X77531Y44230D01*
X77555Y44230D01*
X77734Y44279D01*
X77809Y44298D01*
X78732Y44680D01*
X78787Y44712D01*
X78847Y44736D01*
X78908Y44784D01*
X78974Y44823D01*
X79018Y44870D01*
X79069Y44910D01*
X79114Y44973D01*
X79167Y45029D01*
X79196Y45086D01*
X79234Y45138D01*
X79260Y45211D01*
X79295Y45280D01*
X79307Y45344D01*
X79329Y45404D01*
X79333Y45481D01*
X79348Y45558D01*
X79341Y45621D01*
X79345Y45686D01*
X79329Y45754D01*
X79320Y45838D01*
X79289Y45917D01*
X79272Y45985D01*
X79149Y46283D01*
X79149Y48769D01*
X80101Y51067D01*
X81859Y52825D01*
X84157Y53777D01*
X86643Y53777D01*
X88941Y52825D01*
X89096Y52670D01*
X89147Y52632D01*
X89192Y52585D01*
X89259Y52547D01*
X89321Y52501D01*
X89382Y52478D01*
X89437Y52446D01*
X89513Y52429D01*
X89585Y52401D01*
X89649Y52396D01*
X89712Y52381D01*
X89789Y52385D01*
X89866Y52379D01*
X89929Y52393D01*
X89994Y52396D01*
X90067Y52421D01*
X90143Y52437D01*
X90199Y52467D01*
X90260Y52488D01*
X90317Y52530D01*
X90392Y52569D01*
X90452Y52629D01*
X90509Y52670D01*
X91231Y53392D01*
X93352Y54271D01*
X95648Y54271D01*
X97769Y53392D01*
X99392Y51769D01*
X99851Y50661D01*
X99867Y50634D01*
X99877Y50603D01*
X99939Y50513D01*
X99995Y50419D01*
X100018Y50397D01*
X100036Y50370D01*
X100121Y50300D01*
X100200Y50226D01*
X100229Y50211D01*
X100254Y50191D01*
X100354Y50147D01*
X100452Y50098D01*
X100483Y50092D01*
X100513Y50079D01*
X100621Y50066D01*
X100729Y50045D01*
X100761Y50049D01*
X100793Y50045D01*
X100901Y50062D01*
X101010Y50073D01*
X101039Y50084D01*
X101071Y50090D01*
X101170Y50136D01*
X101272Y50177D01*
X101297Y50197D01*
X101326Y50211D01*
X101408Y50283D01*
X101494Y50350D01*
X101513Y50377D01*
X101537Y50398D01*
X101584Y50475D01*
X101659Y50579D01*
X101675Y50625D01*
X101697Y50661D01*
X101832Y50986D01*
X103314Y52468D01*
X105252Y53271D01*
X107348Y53271D01*
X109286Y52468D01*
X110768Y50986D01*
X110877Y50724D01*
X110893Y50696D01*
X110903Y50665D01*
X110965Y50575D01*
X111020Y50481D01*
X111044Y50459D01*
X111062Y50432D01*
X111146Y50363D01*
X111226Y50288D01*
X111255Y50273D01*
X111280Y50253D01*
X111380Y50210D01*
X111478Y50160D01*
X111509Y50154D01*
X111539Y50142D01*
X111647Y50128D01*
X111755Y50108D01*
X111787Y50111D01*
X111819Y50107D01*
X111927Y50124D01*
X112035Y50135D01*
X112065Y50147D01*
X112097Y50152D01*
X112196Y50199D01*
X112297Y50239D01*
X112323Y50259D01*
X112352Y50273D01*
X112434Y50346D01*
X112520Y50413D01*
X112539Y50439D01*
X112563Y50461D01*
X112610Y50538D01*
X112685Y50642D01*
X112701Y50687D01*
X112723Y50724D01*
X112832Y50986D01*
X114314Y52468D01*
X116252Y53271D01*
X118348Y53271D01*
X120286Y52468D01*
X121768Y50986D01*
X122571Y49048D01*
X122571Y46952D01*
X121768Y45014D01*
X120286Y43532D01*
X118348Y42729D01*
X116252Y42729D01*
X114314Y43532D01*
X112832Y45014D01*
X112723Y45276D01*
X112707Y45304D01*
X112697Y45335D01*
X112635Y45425D01*
X112580Y45519D01*
X112556Y45541D01*
X112538Y45568D01*
X112454Y45637D01*
X112374Y45712D01*
X112345Y45727D01*
X112320Y45747D01*
X112220Y45790D01*
X112122Y45840D01*
X112091Y45846D01*
X112061Y45858D01*
X111953Y45872D01*
X111845Y45892D01*
X111813Y45889D01*
X111781Y45893D01*
X111673Y45876D01*
X111565Y45865D01*
X111535Y45853D01*
X111503Y45848D01*
X111404Y45801D01*
X111303Y45761D01*
X111277Y45741D01*
X111248Y45727D01*
X111166Y45654D01*
X111080Y45587D01*
X111061Y45561D01*
X111037Y45539D01*
X110990Y45462D01*
X110915Y45358D01*
X110899Y45313D01*
X110877Y45276D01*
X110768Y45014D01*
X109286Y43532D01*
X107348Y42729D01*
X105252Y42729D01*
X103314Y43532D01*
X101753Y45093D01*
X101684Y45145D01*
X101620Y45205D01*
X101571Y45230D01*
X101527Y45262D01*
X101446Y45293D01*
X101369Y45332D01*
X101315Y45343D01*
X101263Y45362D01*
X101177Y45369D01*
X101092Y45385D01*
X101037Y45380D01*
X100982Y45384D01*
X100897Y45366D01*
X100811Y45358D01*
X100760Y45337D01*
X100706Y45326D01*
X100630Y45285D01*
X100549Y45253D01*
X100506Y45219D01*
X100457Y45194D01*
X100395Y45133D01*
X100327Y45080D01*
X100294Y45035D01*
X100255Y44997D01*
X100212Y44921D01*
X100162Y44851D01*
X100143Y44799D01*
X100116Y44752D01*
X100096Y44667D01*
X100067Y44585D01*
X100064Y44531D01*
X100051Y44477D01*
X100056Y44390D01*
X100051Y44304D01*
X100063Y44254D01*
X100066Y44195D01*
X100103Y44088D01*
X100123Y44004D01*
X100271Y43648D01*
X100271Y41352D01*
X99392Y39231D01*
X97769Y37608D01*
X95648Y36729D01*
X93352Y36729D01*
X91231Y37608D01*
X89608Y39231D01*
X88833Y41101D01*
X88801Y41156D01*
X88777Y41216D01*
X88729Y41277D01*
X88690Y41344D01*
X88643Y41388D01*
X88603Y41438D01*
X88540Y41484D01*
X88484Y41536D01*
X88427Y41566D01*
X88375Y41603D01*
X88302Y41629D01*
X88233Y41664D01*
X88169Y41676D01*
X88109Y41698D01*
X88032Y41702D01*
X87955Y41717D01*
X87892Y41710D01*
X87827Y41714D01*
X87759Y41698D01*
X87675Y41690D01*
X87596Y41658D01*
X87528Y41642D01*
X86643Y41275D01*
X86270Y41275D01*
X86206Y41266D01*
X86142Y41267D01*
X86067Y41246D01*
X85991Y41235D01*
X85932Y41209D01*
X85870Y41192D01*
X85804Y41151D01*
X85734Y41119D01*
X85685Y41077D01*
X85630Y41044D01*
X85578Y40986D01*
X85520Y40936D01*
X85484Y40882D01*
X85441Y40834D01*
X85408Y40765D01*
X85365Y40700D01*
X85346Y40638D01*
X85318Y40581D01*
X85307Y40511D01*
X85283Y40430D01*
X85282Y40345D01*
X85271Y40276D01*
X85271Y38452D01*
X84468Y36514D01*
X82986Y35032D01*
X81048Y34229D01*
X78952Y34229D01*
X77014Y35032D01*
X75532Y36514D01*
X74729Y38452D01*
X74729Y40596D01*
X74759Y40695D01*
X74760Y40718D01*
X74765Y40740D01*
X74762Y40858D01*
X74763Y40977D01*
X74757Y40999D01*
X74756Y41022D01*
X74720Y41134D01*
X74688Y41249D01*
X74676Y41268D01*
X74669Y41290D01*
X74602Y41387D01*
X74540Y41489D01*
X74523Y41504D01*
X74510Y41523D01*
X74419Y41598D01*
X74331Y41678D01*
X74310Y41688D01*
X74293Y41702D01*
X74183Y41749D01*
X74077Y41801D01*
X74056Y41804D01*
X74033Y41814D01*
X73848Y41836D01*
X73772Y41848D01*
X68728Y41848D01*
X68610Y41832D01*
X68492Y41820D01*
X68471Y41812D01*
X68449Y41808D01*
X68341Y41760D01*
X68230Y41716D01*
X68212Y41702D01*
X68192Y41692D01*
X68101Y41615D01*
X68008Y41542D01*
X67995Y41524D01*
X67977Y41509D01*
X67912Y41409D01*
X67843Y41313D01*
X67835Y41292D01*
X67823Y41273D01*
X67788Y41159D01*
X67748Y41048D01*
X67747Y41025D01*
X67741Y41003D01*
X67739Y40885D01*
X67732Y40766D01*
X67737Y40745D01*
X67737Y40721D01*
X67771Y40598D01*
X67771Y38452D01*
X66968Y36514D01*
X65486Y35032D01*
X63548Y34229D01*
X61452Y34229D01*
G37*
%LPD*%
%LPC*%
G36*
X82952Y333729D02*
X82952Y333729D01*
X81014Y334532D01*
X79689Y335857D01*
X79613Y335914D01*
X79541Y335979D01*
X79500Y335999D01*
X79464Y336026D01*
X79374Y336060D01*
X79287Y336102D01*
X79245Y336108D01*
X79200Y336125D01*
X79072Y336135D01*
X78983Y336149D01*
X77155Y336149D01*
X75484Y336841D01*
X75391Y336865D01*
X75300Y336897D01*
X75255Y336900D01*
X75211Y336911D01*
X75115Y336908D01*
X75019Y336914D01*
X74977Y336904D01*
X74929Y336902D01*
X74807Y336863D01*
X74719Y336841D01*
X73048Y336149D01*
X70952Y336149D01*
X70620Y336287D01*
X70611Y336289D01*
X70602Y336294D01*
X70473Y336324D01*
X70347Y336357D01*
X70337Y336356D01*
X70328Y336359D01*
X70195Y336352D01*
X70065Y336348D01*
X70056Y336345D01*
X70046Y336344D01*
X69921Y336301D01*
X69797Y336260D01*
X69789Y336255D01*
X69780Y336252D01*
X69718Y336207D01*
X69563Y336101D01*
X69548Y336083D01*
X69531Y336070D01*
X68989Y335528D01*
X67052Y334726D01*
X64955Y334726D01*
X62880Y335585D01*
X62787Y335609D01*
X62696Y335641D01*
X62651Y335644D01*
X62607Y335655D01*
X62511Y335652D01*
X62415Y335658D01*
X62373Y335648D01*
X62325Y335646D01*
X62203Y335607D01*
X62115Y335585D01*
X60048Y334729D01*
X57952Y334729D01*
X56014Y335532D01*
X54758Y336788D01*
X54688Y336840D01*
X54625Y336900D01*
X54576Y336924D01*
X54532Y336957D01*
X54451Y336988D01*
X54374Y337027D01*
X54353Y337031D01*
X54355Y337058D01*
X54368Y337111D01*
X54363Y337198D01*
X54368Y337284D01*
X54356Y337334D01*
X54353Y337393D01*
X54316Y337500D01*
X54296Y337584D01*
X53729Y338952D01*
X53729Y341048D01*
X54532Y342986D01*
X56014Y344468D01*
X57612Y345130D01*
X57620Y345135D01*
X57630Y345138D01*
X57743Y345207D01*
X57855Y345274D01*
X57862Y345281D01*
X57870Y345286D01*
X57958Y345384D01*
X58048Y345480D01*
X58052Y345488D01*
X58059Y345495D01*
X58116Y345613D01*
X58176Y345731D01*
X58178Y345740D01*
X58182Y345749D01*
X58194Y345825D01*
X58228Y346008D01*
X58226Y346032D01*
X58229Y346053D01*
X58229Y346758D01*
X59032Y348696D01*
X60514Y350178D01*
X61767Y350697D01*
X61850Y350746D01*
X61937Y350787D01*
X61971Y350818D01*
X62010Y350841D01*
X62075Y350911D01*
X62147Y350975D01*
X62169Y351011D01*
X62203Y351047D01*
X62261Y351161D01*
X62308Y351238D01*
X63032Y352986D01*
X64089Y354043D01*
X64122Y354087D01*
X64130Y354094D01*
X64135Y354102D01*
X64174Y354140D01*
X64212Y354207D01*
X64259Y354269D01*
X64278Y354320D01*
X64284Y354330D01*
X64287Y354340D01*
X64313Y354385D01*
X64331Y354460D01*
X64358Y354533D01*
X64362Y354585D01*
X64367Y354599D01*
X64367Y354612D01*
X64378Y354660D01*
X64374Y354737D01*
X64380Y354814D01*
X64370Y354861D01*
X64370Y354881D01*
X64366Y354898D01*
X64364Y354941D01*
X64338Y355014D01*
X64322Y355090D01*
X64302Y355128D01*
X64295Y355153D01*
X64283Y355172D01*
X64271Y355208D01*
X64230Y355264D01*
X64190Y355339D01*
X64164Y355366D01*
X64147Y355393D01*
X64114Y355423D01*
X64089Y355457D01*
X63032Y356514D01*
X62203Y358516D01*
X62154Y358598D01*
X62113Y358685D01*
X62082Y358719D01*
X62059Y358758D01*
X61989Y358824D01*
X61925Y358896D01*
X61889Y358918D01*
X61853Y358951D01*
X61739Y359009D01*
X61662Y359056D01*
X60514Y359532D01*
X59032Y361014D01*
X58203Y363016D01*
X58154Y363098D01*
X58113Y363185D01*
X58082Y363219D01*
X58059Y363258D01*
X57989Y363324D01*
X57925Y363396D01*
X57889Y363418D01*
X57853Y363451D01*
X57739Y363509D01*
X57662Y363556D01*
X56514Y364032D01*
X55032Y365514D01*
X54203Y367516D01*
X54154Y367598D01*
X54113Y367685D01*
X54082Y367719D01*
X54059Y367758D01*
X53989Y367824D01*
X53925Y367896D01*
X53889Y367918D01*
X53853Y367951D01*
X53739Y368009D01*
X53662Y368056D01*
X52514Y368532D01*
X51032Y370014D01*
X50500Y371297D01*
X50452Y371380D01*
X50410Y371467D01*
X50380Y371501D01*
X50357Y371540D01*
X50287Y371605D01*
X50223Y371677D01*
X50187Y371699D01*
X50151Y371733D01*
X50037Y371791D01*
X49960Y371838D01*
X48284Y372532D01*
X46802Y374014D01*
X45999Y375952D01*
X45999Y378048D01*
X46802Y379986D01*
X48284Y381468D01*
X50222Y382271D01*
X52318Y382271D01*
X54256Y381468D01*
X55738Y379986D01*
X56270Y378703D01*
X56319Y378620D01*
X56360Y378533D01*
X56390Y378500D01*
X56413Y378460D01*
X56483Y378395D01*
X56547Y378323D01*
X56584Y378300D01*
X56619Y378267D01*
X56733Y378209D01*
X56810Y378162D01*
X58486Y377468D01*
X59968Y375986D01*
X60797Y373984D01*
X60846Y373902D01*
X60887Y373815D01*
X60918Y373781D01*
X60941Y373742D01*
X61011Y373676D01*
X61075Y373604D01*
X61111Y373582D01*
X61147Y373549D01*
X61261Y373491D01*
X61338Y373444D01*
X62486Y372968D01*
X63968Y371486D01*
X64797Y369484D01*
X64846Y369402D01*
X64887Y369315D01*
X64918Y369281D01*
X64941Y369242D01*
X65011Y369176D01*
X65075Y369104D01*
X65111Y369082D01*
X65147Y369049D01*
X65261Y368991D01*
X65338Y368944D01*
X66486Y368468D01*
X67968Y366986D01*
X68797Y364984D01*
X68846Y364902D01*
X68887Y364815D01*
X68918Y364781D01*
X68941Y364742D01*
X69011Y364676D01*
X69075Y364604D01*
X69111Y364582D01*
X69147Y364549D01*
X69261Y364491D01*
X69338Y364444D01*
X70486Y363968D01*
X71968Y362486D01*
X72772Y360546D01*
X72772Y360544D01*
X72771Y360535D01*
X72792Y360404D01*
X72811Y360274D01*
X72814Y360266D01*
X72816Y360256D01*
X72873Y360137D01*
X72927Y360017D01*
X72933Y360010D01*
X72937Y360001D01*
X73025Y359903D01*
X73110Y359803D01*
X73118Y359798D01*
X73124Y359791D01*
X73190Y359750D01*
X73346Y359649D01*
X73369Y359641D01*
X73388Y359630D01*
X74986Y358968D01*
X76468Y357486D01*
X77271Y355548D01*
X77271Y353452D01*
X76468Y351514D01*
X74986Y350032D01*
X73234Y349306D01*
X73152Y349257D01*
X73065Y349216D01*
X73031Y349186D01*
X72992Y349163D01*
X72926Y349093D01*
X72854Y349029D01*
X72832Y348992D01*
X72799Y348957D01*
X72741Y348843D01*
X72694Y348766D01*
X72394Y348043D01*
X72378Y347981D01*
X72353Y347922D01*
X72344Y347845D01*
X72324Y347770D01*
X72326Y347706D01*
X72319Y347642D01*
X72331Y347566D01*
X72333Y347488D01*
X72353Y347427D01*
X72364Y347364D01*
X72397Y347294D01*
X72421Y347220D01*
X72457Y347167D01*
X72485Y347109D01*
X72536Y347051D01*
X72580Y346987D01*
X72629Y346946D01*
X72672Y346898D01*
X72732Y346862D01*
X72797Y346808D01*
X72875Y346774D01*
X72935Y346738D01*
X74719Y345999D01*
X74812Y345975D01*
X74903Y345943D01*
X74948Y345940D01*
X74992Y345929D01*
X75088Y345932D01*
X75185Y345926D01*
X75226Y345936D01*
X75274Y345938D01*
X75396Y345977D01*
X75484Y345999D01*
X77155Y346691D01*
X79252Y346691D01*
X81189Y345888D01*
X82514Y344563D01*
X82591Y344506D01*
X82662Y344441D01*
X82703Y344421D01*
X82740Y344394D01*
X82830Y344360D01*
X82916Y344318D01*
X82958Y344312D01*
X83003Y344295D01*
X83131Y344285D01*
X83221Y344271D01*
X85048Y344271D01*
X86986Y343468D01*
X88468Y341986D01*
X89271Y340048D01*
X89271Y337952D01*
X88468Y336014D01*
X86986Y334532D01*
X85048Y333729D01*
X82952Y333729D01*
G37*
%LPD*%
%LPC*%
G36*
X146952Y34229D02*
X146952Y34229D01*
X145014Y35032D01*
X143532Y36514D01*
X142729Y38452D01*
X142729Y40288D01*
X142728Y40297D01*
X142729Y40306D01*
X142708Y40436D01*
X142689Y40567D01*
X142686Y40575D01*
X142684Y40585D01*
X142627Y40705D01*
X142573Y40824D01*
X142567Y40831D01*
X142563Y40840D01*
X142475Y40938D01*
X142390Y41038D01*
X142382Y41043D01*
X142376Y41050D01*
X142310Y41090D01*
X142154Y41192D01*
X142131Y41200D01*
X142112Y41211D01*
X141414Y41500D01*
X141351Y41516D01*
X141292Y41542D01*
X141215Y41551D01*
X141140Y41570D01*
X141076Y41568D01*
X141012Y41576D01*
X140936Y41564D01*
X140859Y41561D01*
X140797Y41541D01*
X140734Y41531D01*
X140664Y41498D01*
X140590Y41474D01*
X140537Y41438D01*
X140479Y41410D01*
X140421Y41359D01*
X140357Y41315D01*
X140317Y41265D01*
X140269Y41223D01*
X140232Y41163D01*
X140178Y41097D01*
X140145Y41019D01*
X140108Y40959D01*
X139392Y39231D01*
X137769Y37608D01*
X135648Y36729D01*
X133352Y36729D01*
X131231Y37608D01*
X129608Y39231D01*
X128729Y41352D01*
X128729Y43648D01*
X129338Y45118D01*
X129362Y45211D01*
X129394Y45301D01*
X129397Y45347D01*
X129408Y45391D01*
X129405Y45487D01*
X129411Y45583D01*
X129401Y45624D01*
X129399Y45673D01*
X129359Y45794D01*
X129338Y45882D01*
X128729Y47352D01*
X128729Y49648D01*
X129608Y51769D01*
X131231Y53392D01*
X133352Y54271D01*
X135648Y54271D01*
X137769Y53392D01*
X138291Y52870D01*
X138342Y52831D01*
X138387Y52785D01*
X138455Y52747D01*
X138517Y52701D01*
X138577Y52678D01*
X138633Y52646D01*
X138708Y52629D01*
X138780Y52601D01*
X138844Y52596D01*
X138907Y52581D01*
X138985Y52585D01*
X139062Y52579D01*
X139124Y52593D01*
X139189Y52596D01*
X139262Y52621D01*
X139338Y52637D01*
X139395Y52667D01*
X139455Y52688D01*
X139512Y52730D01*
X139587Y52769D01*
X139632Y52814D01*
X141957Y53777D01*
X144443Y53777D01*
X146741Y52825D01*
X148499Y51067D01*
X149451Y48769D01*
X149451Y46283D01*
X149240Y45773D01*
X149224Y45711D01*
X149198Y45652D01*
X149189Y45575D01*
X149170Y45500D01*
X149172Y45436D01*
X149164Y45372D01*
X149176Y45295D01*
X149179Y45218D01*
X149199Y45157D01*
X149209Y45093D01*
X149242Y45024D01*
X149266Y44950D01*
X149302Y44897D01*
X149330Y44839D01*
X149381Y44781D01*
X149425Y44717D01*
X149474Y44676D01*
X149517Y44628D01*
X149577Y44591D01*
X149643Y44538D01*
X149720Y44504D01*
X149780Y44468D01*
X150791Y44049D01*
X150821Y44041D01*
X150835Y44034D01*
X150869Y44029D01*
X150906Y44020D01*
X151019Y43985D01*
X151042Y43985D01*
X151064Y43979D01*
X151183Y43983D01*
X151301Y43981D01*
X151323Y43987D01*
X151346Y43988D01*
X151458Y44025D01*
X151573Y44056D01*
X151592Y44068D01*
X151614Y44076D01*
X151712Y44142D01*
X151813Y44205D01*
X151828Y44222D01*
X151847Y44234D01*
X151920Y44323D01*
X151923Y44326D01*
X151926Y44330D01*
X152002Y44414D01*
X152012Y44435D01*
X152026Y44452D01*
X152065Y44542D01*
X152078Y44562D01*
X152085Y44587D01*
X152125Y44668D01*
X152128Y44689D01*
X152138Y44711D01*
X152147Y44789D01*
X152160Y44832D01*
X152161Y44902D01*
X152172Y44972D01*
X152172Y50410D01*
X152166Y50451D01*
X152169Y50493D01*
X152149Y50576D01*
X152132Y50689D01*
X152108Y50743D01*
X152096Y50792D01*
X151729Y51678D01*
X151729Y53974D01*
X152096Y54860D01*
X152107Y54900D01*
X152125Y54938D01*
X152138Y55023D01*
X152166Y55133D01*
X152164Y55192D01*
X152172Y55242D01*
X152172Y63029D01*
X152247Y63104D01*
X162353Y63104D01*
X162428Y63029D01*
X162428Y56208D01*
X162434Y56167D01*
X162431Y56125D01*
X162451Y56041D01*
X162468Y55929D01*
X162492Y55875D01*
X162504Y55825D01*
X163271Y53974D01*
X163271Y51678D01*
X162504Y49827D01*
X162493Y49786D01*
X162475Y49749D01*
X162462Y49664D01*
X162434Y49553D01*
X162436Y49495D01*
X162428Y49444D01*
X162428Y45014D01*
X162444Y44896D01*
X162456Y44778D01*
X162464Y44757D01*
X162468Y44734D01*
X162516Y44626D01*
X162560Y44516D01*
X162574Y44498D01*
X162584Y44478D01*
X162661Y44387D01*
X162734Y44294D01*
X162752Y44281D01*
X162767Y44263D01*
X162867Y44198D01*
X162963Y44129D01*
X162984Y44121D01*
X163003Y44109D01*
X163117Y44074D01*
X163228Y44034D01*
X163251Y44033D01*
X163273Y44026D01*
X163391Y44025D01*
X163510Y44018D01*
X163531Y44023D01*
X163555Y44023D01*
X163734Y44072D01*
X163809Y44091D01*
X165452Y44771D01*
X167548Y44771D01*
X169486Y43968D01*
X170968Y42486D01*
X171771Y40548D01*
X171771Y38452D01*
X170968Y36514D01*
X169486Y35032D01*
X167548Y34229D01*
X165452Y34229D01*
X163514Y35032D01*
X162032Y36514D01*
X161229Y38452D01*
X161229Y40596D01*
X161259Y40695D01*
X161260Y40718D01*
X161265Y40740D01*
X161262Y40858D01*
X161263Y40977D01*
X161257Y40999D01*
X161256Y41022D01*
X161220Y41134D01*
X161188Y41249D01*
X161176Y41268D01*
X161169Y41290D01*
X161102Y41387D01*
X161040Y41489D01*
X161023Y41504D01*
X161010Y41523D01*
X160919Y41598D01*
X160831Y41678D01*
X160810Y41688D01*
X160793Y41702D01*
X160683Y41749D01*
X160577Y41801D01*
X160556Y41804D01*
X160533Y41814D01*
X160348Y41836D01*
X160272Y41848D01*
X154228Y41848D01*
X154110Y41832D01*
X153992Y41820D01*
X153971Y41812D01*
X153949Y41808D01*
X153841Y41760D01*
X153730Y41716D01*
X153712Y41702D01*
X153692Y41692D01*
X153601Y41615D01*
X153508Y41542D01*
X153495Y41524D01*
X153477Y41509D01*
X153412Y41409D01*
X153343Y41313D01*
X153335Y41292D01*
X153323Y41273D01*
X153288Y41159D01*
X153248Y41048D01*
X153247Y41025D01*
X153241Y41003D01*
X153239Y40885D01*
X153232Y40766D01*
X153237Y40745D01*
X153237Y40721D01*
X153271Y40598D01*
X153271Y38452D01*
X152468Y36514D01*
X150986Y35032D01*
X149048Y34229D01*
X146952Y34229D01*
G37*
%LPD*%
%LPC*%
G36*
X179485Y429263D02*
X179485Y429263D01*
X177548Y430065D01*
X176065Y431548D01*
X175388Y433182D01*
X175339Y433265D01*
X175298Y433351D01*
X175268Y433385D01*
X175245Y433425D01*
X175175Y433490D01*
X175111Y433562D01*
X175074Y433584D01*
X175039Y433617D01*
X174925Y433676D01*
X174848Y433723D01*
X173180Y434414D01*
X171697Y435896D01*
X170843Y437957D01*
X170794Y438040D01*
X170753Y438127D01*
X170723Y438161D01*
X170700Y438200D01*
X170630Y438266D01*
X170566Y438338D01*
X170529Y438360D01*
X170494Y438393D01*
X170380Y438451D01*
X170302Y438498D01*
X169014Y439032D01*
X167532Y440514D01*
X167056Y441662D01*
X167007Y441745D01*
X166966Y441832D01*
X166936Y441866D01*
X166913Y441905D01*
X166843Y441970D01*
X166779Y442042D01*
X166742Y442064D01*
X166707Y442098D01*
X166593Y442156D01*
X166516Y442203D01*
X164514Y443032D01*
X163032Y444514D01*
X162229Y446452D01*
X162229Y448548D01*
X163032Y450486D01*
X163569Y451023D01*
X163589Y451049D01*
X163613Y451070D01*
X163673Y451162D01*
X163739Y451249D01*
X163750Y451279D01*
X163768Y451306D01*
X163800Y451411D01*
X163838Y451513D01*
X163841Y451545D01*
X163850Y451576D01*
X163852Y451685D01*
X163860Y451794D01*
X163854Y451826D01*
X163854Y451858D01*
X163825Y451963D01*
X163803Y452070D01*
X163787Y452099D01*
X163779Y452130D01*
X163721Y452223D01*
X163670Y452319D01*
X163648Y452342D01*
X163631Y452370D01*
X163550Y452443D01*
X163473Y452521D01*
X163445Y452537D01*
X163421Y452559D01*
X163323Y452606D01*
X163228Y452660D01*
X163196Y452668D01*
X163168Y452682D01*
X163078Y452696D01*
X162953Y452725D01*
X162905Y452723D01*
X162863Y452729D01*
X162452Y452729D01*
X160514Y453532D01*
X159032Y455014D01*
X158229Y456952D01*
X158229Y459048D01*
X159032Y460986D01*
X160514Y462468D01*
X162452Y463271D01*
X164548Y463271D01*
X166618Y462414D01*
X166711Y462390D01*
X166801Y462358D01*
X166847Y462355D01*
X166891Y462344D01*
X166987Y462347D01*
X167083Y462341D01*
X167124Y462351D01*
X167173Y462353D01*
X167294Y462392D01*
X167382Y462414D01*
X169452Y463271D01*
X171548Y463271D01*
X173348Y462525D01*
X173462Y462496D01*
X173576Y462461D01*
X173599Y462461D01*
X173621Y462455D01*
X173739Y462459D01*
X173858Y462458D01*
X173880Y462464D01*
X173903Y462464D01*
X174015Y462501D01*
X174130Y462533D01*
X174149Y462545D01*
X174171Y462552D01*
X174269Y462619D01*
X174370Y462681D01*
X174385Y462698D01*
X174404Y462711D01*
X174479Y462802D01*
X174559Y462890D01*
X174569Y462911D01*
X174583Y462928D01*
X174630Y463037D01*
X174682Y463144D01*
X174685Y463165D01*
X174695Y463188D01*
X174717Y463372D01*
X174729Y463449D01*
X174729Y464048D01*
X175532Y465986D01*
X177014Y467468D01*
X178952Y468271D01*
X181048Y468271D01*
X182986Y467468D01*
X184468Y465986D01*
X185271Y464048D01*
X185271Y461952D01*
X184468Y460014D01*
X182951Y458497D01*
X182866Y458452D01*
X182850Y458436D01*
X182830Y458424D01*
X182749Y458338D01*
X182664Y458255D01*
X182653Y458235D01*
X182638Y458219D01*
X182584Y458113D01*
X182525Y458010D01*
X182520Y457988D01*
X182510Y457967D01*
X182488Y457851D01*
X182460Y457735D01*
X182461Y457713D01*
X182457Y457690D01*
X182469Y457572D01*
X182475Y457454D01*
X182482Y457432D01*
X182484Y457409D01*
X182528Y457299D01*
X182567Y457187D01*
X182580Y457170D01*
X182589Y457148D01*
X182704Y457000D01*
X182749Y456938D01*
X184005Y455682D01*
X184807Y453745D01*
X184807Y451648D01*
X184005Y449711D01*
X182522Y448228D01*
X180585Y447426D01*
X178294Y447426D01*
X178199Y447412D01*
X178103Y447407D01*
X178059Y447392D01*
X178014Y447386D01*
X177927Y447346D01*
X177836Y447315D01*
X177802Y447290D01*
X177758Y447270D01*
X177660Y447187D01*
X177587Y447133D01*
X177078Y446625D01*
X177073Y446617D01*
X177065Y446611D01*
X176988Y446504D01*
X176909Y446399D01*
X176906Y446390D01*
X176900Y446382D01*
X176856Y446258D01*
X176810Y446135D01*
X176809Y446126D01*
X176806Y446117D01*
X176798Y445985D01*
X176788Y445854D01*
X176790Y445845D01*
X176789Y445835D01*
X176807Y445760D01*
X176845Y445578D01*
X176857Y445557D01*
X176862Y445536D01*
X177322Y444424D01*
X177371Y444342D01*
X177412Y444255D01*
X177442Y444221D01*
X177466Y444182D01*
X177536Y444116D01*
X177600Y444044D01*
X177636Y444022D01*
X177671Y443989D01*
X177786Y443931D01*
X177863Y443884D01*
X179151Y443350D01*
X180634Y441868D01*
X181310Y440234D01*
X181359Y440151D01*
X181401Y440064D01*
X181431Y440030D01*
X181454Y439991D01*
X181524Y439925D01*
X181588Y439853D01*
X181624Y439831D01*
X181660Y439798D01*
X181774Y439740D01*
X181851Y439693D01*
X183519Y439002D01*
X185002Y437519D01*
X185804Y435582D01*
X185804Y433485D01*
X185002Y431548D01*
X183519Y430065D01*
X181582Y429263D01*
X179485Y429263D01*
G37*
%LPD*%
%LPC*%
G36*
X128022Y333729D02*
X128022Y333729D01*
X126084Y334532D01*
X124602Y336014D01*
X123799Y337952D01*
X123799Y340085D01*
X123809Y340134D01*
X123836Y340240D01*
X123835Y340273D01*
X123841Y340304D01*
X123830Y340413D01*
X123827Y340522D01*
X123817Y340553D01*
X123814Y340585D01*
X123773Y340686D01*
X123739Y340790D01*
X123721Y340817D01*
X123709Y340847D01*
X123642Y340933D01*
X123580Y341023D01*
X123556Y341044D01*
X123536Y341069D01*
X123447Y341133D01*
X123363Y341203D01*
X123333Y341215D01*
X123307Y341234D01*
X123204Y341271D01*
X123104Y341314D01*
X123072Y341318D01*
X123041Y341329D01*
X122932Y341335D01*
X122824Y341349D01*
X122792Y341344D01*
X122760Y341345D01*
X122672Y341324D01*
X122545Y341304D01*
X122502Y341283D01*
X122460Y341273D01*
X121148Y340729D01*
X118852Y340729D01*
X116731Y341608D01*
X115108Y343231D01*
X114923Y343677D01*
X114907Y343705D01*
X114897Y343735D01*
X114835Y343826D01*
X114780Y343920D01*
X114756Y343942D01*
X114738Y343968D01*
X114654Y344038D01*
X114574Y344113D01*
X114545Y344127D01*
X114520Y344148D01*
X114420Y344191D01*
X114322Y344240D01*
X114291Y344246D01*
X114261Y344259D01*
X114153Y344272D01*
X114045Y344293D01*
X114013Y344290D01*
X113981Y344294D01*
X113873Y344276D01*
X113765Y344266D01*
X113735Y344254D01*
X113703Y344248D01*
X113604Y344202D01*
X113503Y344161D01*
X113477Y344141D01*
X113448Y344127D01*
X113366Y344055D01*
X113280Y343988D01*
X113261Y343961D01*
X113237Y343940D01*
X113190Y343863D01*
X113115Y343759D01*
X113099Y343713D01*
X113077Y343677D01*
X112892Y343231D01*
X111269Y341608D01*
X109148Y340729D01*
X106852Y340729D01*
X104731Y341608D01*
X103108Y343231D01*
X102229Y345352D01*
X102229Y347648D01*
X103108Y349769D01*
X104731Y351392D01*
X106852Y352271D01*
X109148Y352271D01*
X111269Y351392D01*
X112892Y349769D01*
X113077Y349323D01*
X113093Y349295D01*
X113103Y349265D01*
X113165Y349175D01*
X113220Y349080D01*
X113244Y349058D01*
X113262Y349032D01*
X113346Y348962D01*
X113426Y348888D01*
X113455Y348873D01*
X113480Y348852D01*
X113580Y348809D01*
X113678Y348760D01*
X113709Y348754D01*
X113739Y348741D01*
X113847Y348728D01*
X113955Y348707D01*
X113987Y348710D01*
X114019Y348706D01*
X114127Y348724D01*
X114235Y348734D01*
X114265Y348746D01*
X114297Y348751D01*
X114396Y348798D01*
X114497Y348839D01*
X114523Y348859D01*
X114552Y348873D01*
X114634Y348945D01*
X114720Y349012D01*
X114739Y349038D01*
X114763Y349060D01*
X114810Y349137D01*
X114885Y349241D01*
X114901Y349287D01*
X114923Y349323D01*
X115108Y349769D01*
X116731Y351392D01*
X118852Y352271D01*
X121148Y352271D01*
X123269Y351392D01*
X123591Y351071D01*
X123660Y351018D01*
X123723Y350959D01*
X123772Y350934D01*
X123816Y350901D01*
X123897Y350871D01*
X123975Y350831D01*
X124029Y350821D01*
X124080Y350802D01*
X124167Y350795D01*
X124252Y350779D01*
X124306Y350784D01*
X124361Y350780D01*
X124446Y350798D01*
X124533Y350806D01*
X124583Y350826D01*
X124637Y350837D01*
X124714Y350878D01*
X124794Y350910D01*
X124838Y350944D01*
X124886Y350970D01*
X124948Y351031D01*
X125017Y351084D01*
X125049Y351128D01*
X125088Y351167D01*
X125131Y351242D01*
X125182Y351313D01*
X125200Y351364D01*
X125227Y351412D01*
X125247Y351496D01*
X125276Y351578D01*
X125280Y351633D01*
X125292Y351687D01*
X125288Y351773D01*
X125293Y351860D01*
X125281Y351909D01*
X125278Y351968D01*
X125241Y352076D01*
X125220Y352159D01*
X125007Y352673D01*
X125007Y354770D01*
X125810Y356708D01*
X127292Y358190D01*
X128819Y358822D01*
X128902Y358871D01*
X128988Y358913D01*
X129022Y358943D01*
X129062Y358966D01*
X129127Y359036D01*
X129167Y359071D01*
X129189Y359090D01*
X129190Y359092D01*
X129199Y359100D01*
X129221Y359136D01*
X129254Y359172D01*
X129297Y359256D01*
X129343Y359326D01*
X129349Y359346D01*
X129360Y359363D01*
X130032Y360986D01*
X131514Y362468D01*
X133266Y363194D01*
X133348Y363243D01*
X133435Y363284D01*
X133469Y363314D01*
X133508Y363337D01*
X133574Y363407D01*
X133646Y363471D01*
X133668Y363508D01*
X133701Y363543D01*
X133759Y363657D01*
X133806Y363734D01*
X134532Y365486D01*
X136014Y366968D01*
X137952Y367771D01*
X140048Y367771D01*
X140689Y367505D01*
X140720Y367497D01*
X140749Y367483D01*
X140856Y367462D01*
X140962Y367435D01*
X140994Y367436D01*
X141026Y367430D01*
X141135Y367441D01*
X141244Y367444D01*
X141275Y367454D01*
X141307Y367457D01*
X141408Y367498D01*
X141512Y367532D01*
X141539Y367550D01*
X141569Y367562D01*
X141655Y367629D01*
X141745Y367691D01*
X141766Y367716D01*
X141791Y367735D01*
X141855Y367824D01*
X141925Y367908D01*
X141937Y367938D01*
X141956Y367964D01*
X141993Y368067D01*
X142036Y368167D01*
X142040Y368199D01*
X142051Y368230D01*
X142057Y368339D01*
X142071Y368447D01*
X142065Y368479D01*
X142067Y368511D01*
X142046Y368599D01*
X142025Y368726D01*
X142005Y368769D01*
X141995Y368811D01*
X141729Y369452D01*
X141729Y371548D01*
X142532Y373486D01*
X144014Y374968D01*
X145952Y375771D01*
X148048Y375771D01*
X149986Y374968D01*
X151468Y373486D01*
X152271Y371548D01*
X152271Y369452D01*
X151468Y367514D01*
X149986Y366032D01*
X148048Y365229D01*
X145952Y365229D01*
X145311Y365495D01*
X145280Y365503D01*
X145251Y365517D01*
X145144Y365538D01*
X145038Y365565D01*
X145006Y365564D01*
X144974Y365570D01*
X144865Y365559D01*
X144756Y365556D01*
X144725Y365546D01*
X144693Y365543D01*
X144592Y365502D01*
X144488Y365468D01*
X144461Y365450D01*
X144431Y365438D01*
X144345Y365371D01*
X144255Y365309D01*
X144234Y365284D01*
X144209Y365265D01*
X144145Y365176D01*
X144075Y365092D01*
X144063Y365062D01*
X144044Y365036D01*
X144007Y364933D01*
X143964Y364833D01*
X143960Y364801D01*
X143949Y364770D01*
X143943Y364661D01*
X143929Y364553D01*
X143935Y364521D01*
X143933Y364489D01*
X143954Y364401D01*
X143975Y364274D01*
X143995Y364231D01*
X144005Y364189D01*
X144271Y363548D01*
X144271Y361452D01*
X143468Y359514D01*
X141986Y358032D01*
X140234Y357306D01*
X140152Y357257D01*
X140065Y357216D01*
X140031Y357186D01*
X139992Y357163D01*
X139926Y357093D01*
X139854Y357029D01*
X139832Y356992D01*
X139799Y356957D01*
X139741Y356843D01*
X139694Y356766D01*
X138968Y355014D01*
X137486Y353532D01*
X135959Y352899D01*
X135877Y352851D01*
X135790Y352809D01*
X135756Y352779D01*
X135717Y352756D01*
X135651Y352686D01*
X135579Y352622D01*
X135557Y352585D01*
X135524Y352550D01*
X135466Y352436D01*
X135419Y352359D01*
X134746Y350736D01*
X133264Y349254D01*
X131327Y348451D01*
X129230Y348451D01*
X127293Y349254D01*
X127112Y349435D01*
X127042Y349487D01*
X126979Y349546D01*
X126930Y349571D01*
X126886Y349604D01*
X126805Y349634D01*
X126727Y349674D01*
X126673Y349684D01*
X126622Y349703D01*
X126536Y349710D01*
X126450Y349726D01*
X126396Y349721D01*
X126341Y349725D01*
X126256Y349707D01*
X126170Y349699D01*
X126119Y349679D01*
X126065Y349668D01*
X125988Y349627D01*
X125908Y349595D01*
X125864Y349561D01*
X125816Y349535D01*
X125754Y349475D01*
X125685Y349421D01*
X125653Y349377D01*
X125614Y349338D01*
X125571Y349263D01*
X125520Y349192D01*
X125502Y349141D01*
X125475Y349093D01*
X125455Y349009D01*
X125426Y348927D01*
X125422Y348872D01*
X125410Y348819D01*
X125414Y348732D01*
X125409Y348645D01*
X125421Y348596D01*
X125424Y348537D01*
X125461Y348429D01*
X125482Y348346D01*
X125771Y347648D01*
X125771Y345352D01*
X125687Y345150D01*
X125679Y345119D01*
X125664Y345090D01*
X125644Y344983D01*
X125617Y344877D01*
X125618Y344845D01*
X125612Y344813D01*
X125623Y344704D01*
X125626Y344595D01*
X125636Y344564D01*
X125639Y344532D01*
X125680Y344431D01*
X125713Y344327D01*
X125732Y344300D01*
X125744Y344270D01*
X125811Y344184D01*
X125872Y344094D01*
X125897Y344073D01*
X125917Y344048D01*
X126006Y343984D01*
X126090Y343915D01*
X126120Y343902D01*
X126146Y343883D01*
X126249Y343846D01*
X126349Y343803D01*
X126381Y343799D01*
X126412Y343788D01*
X126521Y343782D01*
X126629Y343769D01*
X126661Y343774D01*
X126693Y343772D01*
X126781Y343793D01*
X126907Y343814D01*
X126951Y343834D01*
X126993Y343845D01*
X128022Y344271D01*
X130118Y344271D01*
X132056Y343468D01*
X133538Y341986D01*
X134341Y340048D01*
X134341Y337952D01*
X133538Y336014D01*
X132056Y334532D01*
X130118Y333729D01*
X128022Y333729D01*
G37*
%LPD*%
%LPC*%
G36*
X92452Y484729D02*
X92452Y484729D01*
X90514Y485532D01*
X89032Y487014D01*
X88320Y488733D01*
X88303Y488761D01*
X88293Y488792D01*
X88232Y488882D01*
X88176Y488976D01*
X88152Y488998D01*
X88134Y489025D01*
X88050Y489094D01*
X87970Y489169D01*
X87942Y489184D01*
X87917Y489204D01*
X87816Y489247D01*
X87719Y489297D01*
X87687Y489303D01*
X87658Y489316D01*
X87549Y489329D01*
X87442Y489349D01*
X87410Y489346D01*
X87378Y489350D01*
X87270Y489333D01*
X87161Y489322D01*
X87131Y489310D01*
X87099Y489305D01*
X87001Y489258D01*
X86899Y489218D01*
X86874Y489198D01*
X86845Y489184D01*
X86763Y489112D01*
X86677Y489044D01*
X86658Y489018D01*
X86634Y488997D01*
X86587Y488919D01*
X86512Y488816D01*
X86495Y488770D01*
X86473Y488733D01*
X85968Y487514D01*
X84486Y486032D01*
X82548Y485229D01*
X80452Y485229D01*
X78382Y486086D01*
X78289Y486110D01*
X78199Y486142D01*
X78153Y486145D01*
X78109Y486156D01*
X78013Y486153D01*
X77917Y486159D01*
X77876Y486149D01*
X77827Y486147D01*
X77706Y486108D01*
X77618Y486086D01*
X75548Y485229D01*
X73452Y485229D01*
X71514Y486032D01*
X70032Y487514D01*
X69229Y489452D01*
X69229Y491548D01*
X70032Y493486D01*
X71514Y494968D01*
X73452Y495771D01*
X75548Y495771D01*
X77618Y494914D01*
X77711Y494890D01*
X77801Y494858D01*
X77847Y494855D01*
X77891Y494844D01*
X77987Y494847D01*
X78083Y494841D01*
X78124Y494851D01*
X78173Y494853D01*
X78294Y494892D01*
X78382Y494914D01*
X80619Y495840D01*
X80702Y495889D01*
X80789Y495930D01*
X80823Y495961D01*
X80862Y495984D01*
X80927Y496054D01*
X80999Y496118D01*
X81022Y496154D01*
X81055Y496189D01*
X81113Y496304D01*
X81160Y496381D01*
X82032Y498486D01*
X83514Y499968D01*
X85452Y500771D01*
X86361Y500771D01*
X86370Y500772D01*
X86380Y500771D01*
X86510Y500792D01*
X86640Y500811D01*
X86649Y500814D01*
X86658Y500816D01*
X86777Y500873D01*
X86897Y500927D01*
X86904Y500933D01*
X86913Y500937D01*
X87011Y501025D01*
X87111Y501110D01*
X87116Y501118D01*
X87123Y501124D01*
X87163Y501190D01*
X87266Y501346D01*
X87273Y501369D01*
X87284Y501388D01*
X87532Y501986D01*
X89014Y503468D01*
X91112Y504337D01*
X91121Y504342D01*
X91130Y504345D01*
X91242Y504414D01*
X91355Y504481D01*
X91362Y504488D01*
X91370Y504493D01*
X91458Y504591D01*
X91548Y504687D01*
X91552Y504695D01*
X91559Y504702D01*
X91616Y504821D01*
X91676Y504938D01*
X91678Y504947D01*
X91682Y504956D01*
X91694Y505032D01*
X91728Y505215D01*
X91726Y505239D01*
X91729Y505261D01*
X91729Y505548D01*
X92532Y507486D01*
X94014Y508968D01*
X95952Y509771D01*
X96730Y509771D01*
X96794Y509780D01*
X96858Y509779D01*
X96933Y509800D01*
X97009Y509811D01*
X97068Y509837D01*
X97130Y509854D01*
X97196Y509895D01*
X97266Y509927D01*
X97315Y509969D01*
X97370Y510002D01*
X97422Y510060D01*
X97480Y510110D01*
X97516Y510164D01*
X97559Y510212D01*
X97592Y510281D01*
X97635Y510346D01*
X97654Y510408D01*
X97682Y510465D01*
X97693Y510535D01*
X97717Y510616D01*
X97718Y510701D01*
X97729Y510770D01*
X97729Y512048D01*
X98532Y513986D01*
X100014Y515468D01*
X101952Y516271D01*
X104048Y516271D01*
X105986Y515468D01*
X107468Y513986D01*
X108271Y512048D01*
X108271Y509952D01*
X107468Y508014D01*
X105986Y506532D01*
X104048Y505729D01*
X103270Y505729D01*
X103206Y505720D01*
X103142Y505721D01*
X103067Y505700D01*
X102991Y505689D01*
X102932Y505663D01*
X102870Y505646D01*
X102804Y505605D01*
X102734Y505573D01*
X102685Y505531D01*
X102630Y505498D01*
X102578Y505440D01*
X102520Y505390D01*
X102484Y505336D01*
X102441Y505288D01*
X102408Y505219D01*
X102365Y505154D01*
X102346Y505092D01*
X102318Y505035D01*
X102307Y504965D01*
X102283Y504884D01*
X102282Y504799D01*
X102271Y504730D01*
X102271Y503452D01*
X101468Y501514D01*
X99986Y500032D01*
X97888Y499163D01*
X97879Y499158D01*
X97870Y499155D01*
X97758Y499086D01*
X97645Y499019D01*
X97638Y499012D01*
X97630Y499007D01*
X97542Y498909D01*
X97452Y498813D01*
X97448Y498805D01*
X97441Y498798D01*
X97384Y498679D01*
X97324Y498562D01*
X97322Y498553D01*
X97318Y498544D01*
X97306Y498468D01*
X97272Y498285D01*
X97274Y498261D01*
X97271Y498239D01*
X97271Y497952D01*
X96468Y496014D01*
X96411Y495957D01*
X96372Y495905D01*
X96326Y495860D01*
X96288Y495793D01*
X96241Y495731D01*
X96219Y495671D01*
X96187Y495615D01*
X96169Y495540D01*
X96142Y495467D01*
X96137Y495403D01*
X96122Y495340D01*
X96126Y495263D01*
X96120Y495186D01*
X96133Y495123D01*
X96136Y495059D01*
X96162Y494986D01*
X96178Y494910D01*
X96208Y494853D01*
X96229Y494792D01*
X96270Y494736D01*
X96310Y494661D01*
X96369Y494600D01*
X96411Y494543D01*
X97968Y492986D01*
X98771Y491048D01*
X98771Y488952D01*
X97968Y487014D01*
X96486Y485532D01*
X94548Y484729D01*
X92452Y484729D01*
G37*
%LPD*%
%LPC*%
G36*
X167452Y359229D02*
X167452Y359229D01*
X165514Y360032D01*
X164032Y361514D01*
X163229Y363452D01*
X163229Y365548D01*
X164032Y367486D01*
X165514Y368968D01*
X167452Y369771D01*
X168903Y369771D01*
X168998Y369784D01*
X169094Y369789D01*
X169137Y369804D01*
X169182Y369811D01*
X169270Y369850D01*
X169360Y369882D01*
X169395Y369907D01*
X169439Y369927D01*
X169536Y370010D01*
X169609Y370063D01*
X171014Y371468D01*
X172952Y372271D01*
X175048Y372271D01*
X175062Y372265D01*
X175146Y372243D01*
X175228Y372213D01*
X175282Y372209D01*
X175336Y372195D01*
X175422Y372198D01*
X175509Y372191D01*
X175563Y372202D01*
X175617Y372204D01*
X175700Y372231D01*
X175785Y372249D01*
X175833Y372274D01*
X175886Y372291D01*
X175957Y372340D01*
X176034Y372381D01*
X176073Y372419D01*
X176119Y372450D01*
X176174Y372517D01*
X176236Y372578D01*
X176263Y372626D01*
X176298Y372668D01*
X176332Y372748D01*
X176375Y372823D01*
X176388Y372877D01*
X176409Y372927D01*
X176420Y373013D01*
X176440Y373098D01*
X176437Y373153D01*
X176444Y373207D01*
X176430Y373293D01*
X176426Y373379D01*
X176408Y373431D01*
X176399Y373485D01*
X176362Y373564D01*
X176333Y373646D01*
X176303Y373687D01*
X176278Y373740D01*
X176202Y373825D01*
X176151Y373895D01*
X176032Y374014D01*
X175229Y375952D01*
X175229Y378048D01*
X176032Y379986D01*
X176339Y380293D01*
X176378Y380345D01*
X176424Y380390D01*
X176462Y380457D01*
X176509Y380519D01*
X176531Y380579D01*
X176563Y380635D01*
X176581Y380710D01*
X176608Y380783D01*
X176613Y380847D01*
X176628Y380909D01*
X176624Y380987D01*
X176630Y381064D01*
X176617Y381127D01*
X176614Y381191D01*
X176588Y381264D01*
X176572Y381340D01*
X176542Y381397D01*
X176521Y381458D01*
X176480Y381514D01*
X176440Y381589D01*
X176381Y381650D01*
X176339Y381707D01*
X176032Y382014D01*
X175229Y383952D01*
X175229Y385236D01*
X175216Y385331D01*
X175211Y385427D01*
X175196Y385470D01*
X175189Y385515D01*
X175150Y385603D01*
X175118Y385693D01*
X175093Y385728D01*
X175073Y385772D01*
X174990Y385869D01*
X174937Y385942D01*
X173322Y387557D01*
X173034Y388251D01*
X173018Y388279D01*
X173008Y388310D01*
X172946Y388400D01*
X172891Y388494D01*
X172867Y388516D01*
X172849Y388543D01*
X172765Y388612D01*
X172685Y388687D01*
X172656Y388702D01*
X172631Y388722D01*
X172531Y388765D01*
X172433Y388815D01*
X172402Y388821D01*
X172372Y388834D01*
X172264Y388847D01*
X172156Y388867D01*
X172124Y388864D01*
X172092Y388868D01*
X171984Y388851D01*
X171876Y388840D01*
X171846Y388828D01*
X171814Y388823D01*
X171715Y388776D01*
X171614Y388736D01*
X171588Y388716D01*
X171559Y388702D01*
X171477Y388629D01*
X171391Y388562D01*
X171372Y388536D01*
X171348Y388515D01*
X171301Y388437D01*
X171226Y388333D01*
X171210Y388288D01*
X171188Y388251D01*
X170468Y386514D01*
X168986Y385032D01*
X167048Y384229D01*
X164952Y384229D01*
X163014Y385032D01*
X161532Y386514D01*
X160729Y388452D01*
X160729Y390548D01*
X161532Y392486D01*
X163014Y393968D01*
X164952Y394771D01*
X167048Y394771D01*
X168986Y393968D01*
X170468Y392486D01*
X170756Y391792D01*
X170772Y391764D01*
X170782Y391733D01*
X170844Y391643D01*
X170899Y391549D01*
X170923Y391527D01*
X170941Y391500D01*
X171025Y391431D01*
X171105Y391356D01*
X171134Y391341D01*
X171159Y391321D01*
X171259Y391278D01*
X171357Y391228D01*
X171388Y391222D01*
X171418Y391209D01*
X171526Y391196D01*
X171634Y391176D01*
X171666Y391179D01*
X171698Y391175D01*
X171806Y391192D01*
X171914Y391203D01*
X171944Y391215D01*
X171976Y391220D01*
X172075Y391267D01*
X172176Y391307D01*
X172202Y391327D01*
X172231Y391341D01*
X172313Y391414D01*
X172399Y391481D01*
X172418Y391507D01*
X172442Y391528D01*
X172489Y391606D01*
X172564Y391710D01*
X172580Y391755D01*
X172602Y391792D01*
X173322Y393529D01*
X174804Y395011D01*
X176742Y395814D01*
X178838Y395814D01*
X180776Y395011D01*
X182258Y393529D01*
X183061Y391591D01*
X183061Y390307D01*
X183074Y390212D01*
X183079Y390116D01*
X183094Y390073D01*
X183101Y390028D01*
X183140Y389940D01*
X183172Y389850D01*
X183197Y389815D01*
X183217Y389771D01*
X183300Y389674D01*
X183353Y389601D01*
X184968Y387986D01*
X185771Y386048D01*
X185771Y383952D01*
X184968Y382014D01*
X184661Y381707D01*
X184622Y381655D01*
X184576Y381610D01*
X184538Y381543D01*
X184491Y381481D01*
X184469Y381421D01*
X184437Y381365D01*
X184419Y381290D01*
X184392Y381217D01*
X184387Y381153D01*
X184372Y381090D01*
X184376Y381013D01*
X184370Y380936D01*
X184383Y380873D01*
X184386Y380809D01*
X184412Y380736D01*
X184428Y380660D01*
X184458Y380603D01*
X184479Y380542D01*
X184520Y380486D01*
X184560Y380411D01*
X184619Y380350D01*
X184661Y380293D01*
X184968Y379986D01*
X185771Y378048D01*
X185771Y375952D01*
X184968Y374014D01*
X183486Y372532D01*
X181548Y371729D01*
X179452Y371729D01*
X179438Y371735D01*
X179354Y371757D01*
X179272Y371787D01*
X179218Y371791D01*
X179164Y371805D01*
X179078Y371802D01*
X178991Y371809D01*
X178937Y371798D01*
X178883Y371796D01*
X178800Y371769D01*
X178715Y371751D01*
X178667Y371726D01*
X178614Y371709D01*
X178543Y371660D01*
X178466Y371619D01*
X178427Y371581D01*
X178381Y371550D01*
X178326Y371483D01*
X178264Y371422D01*
X178237Y371374D01*
X178202Y371332D01*
X178168Y371252D01*
X178125Y371177D01*
X178112Y371123D01*
X178091Y371073D01*
X178080Y370987D01*
X178060Y370902D01*
X178063Y370847D01*
X178056Y370793D01*
X178070Y370707D01*
X178074Y370621D01*
X178092Y370569D01*
X178101Y370515D01*
X178138Y370436D01*
X178167Y370354D01*
X178197Y370313D01*
X178222Y370260D01*
X178298Y370175D01*
X178349Y370105D01*
X178468Y369986D01*
X179271Y368048D01*
X179271Y365952D01*
X178468Y364014D01*
X176986Y362532D01*
X175048Y361729D01*
X173597Y361729D01*
X173502Y361716D01*
X173406Y361711D01*
X173363Y361696D01*
X173318Y361689D01*
X173230Y361650D01*
X173140Y361618D01*
X173105Y361593D01*
X173061Y361573D01*
X172964Y361490D01*
X172891Y361437D01*
X171486Y360032D01*
X169548Y359229D01*
X167452Y359229D01*
G37*
%LPD*%
%LPC*%
G36*
X132952Y492729D02*
X132952Y492729D01*
X131014Y493532D01*
X129532Y495014D01*
X128729Y496952D01*
X128729Y499230D01*
X128720Y499294D01*
X128721Y499358D01*
X128700Y499433D01*
X128689Y499509D01*
X128663Y499568D01*
X128646Y499630D01*
X128605Y499696D01*
X128573Y499766D01*
X128531Y499815D01*
X128498Y499870D01*
X128440Y499922D01*
X128390Y499980D01*
X128336Y500016D01*
X128288Y500059D01*
X128219Y500092D01*
X128154Y500135D01*
X128092Y500154D01*
X128035Y500182D01*
X127965Y500193D01*
X127884Y500217D01*
X127799Y500218D01*
X127730Y500229D01*
X125952Y500229D01*
X124014Y501032D01*
X122532Y502514D01*
X121870Y504112D01*
X121865Y504120D01*
X121862Y504130D01*
X121793Y504243D01*
X121726Y504355D01*
X121719Y504362D01*
X121714Y504370D01*
X121616Y504458D01*
X121520Y504548D01*
X121512Y504552D01*
X121505Y504559D01*
X121387Y504616D01*
X121269Y504676D01*
X121260Y504678D01*
X121251Y504682D01*
X121175Y504694D01*
X120992Y504728D01*
X120968Y504726D01*
X120947Y504729D01*
X120452Y504729D01*
X118514Y505532D01*
X117032Y507014D01*
X116229Y508952D01*
X116229Y511048D01*
X117032Y512986D01*
X118514Y514468D01*
X120452Y515271D01*
X122548Y515271D01*
X124486Y514468D01*
X125968Y512986D01*
X126630Y511388D01*
X126635Y511380D01*
X126638Y511370D01*
X126707Y511257D01*
X126774Y511145D01*
X126781Y511138D01*
X126786Y511130D01*
X126884Y511042D01*
X126980Y510952D01*
X126988Y510948D01*
X126995Y510941D01*
X127113Y510884D01*
X127231Y510824D01*
X127240Y510822D01*
X127249Y510818D01*
X127325Y510806D01*
X127508Y510772D01*
X127532Y510774D01*
X127553Y510771D01*
X128048Y510771D01*
X130096Y509923D01*
X130106Y509920D01*
X130114Y509915D01*
X130242Y509885D01*
X130369Y509852D01*
X130379Y509853D01*
X130388Y509851D01*
X130520Y509857D01*
X130651Y509861D01*
X130660Y509864D01*
X130670Y509865D01*
X130793Y509908D01*
X130919Y509949D01*
X130927Y509954D01*
X130936Y509957D01*
X130998Y510003D01*
X131082Y510060D01*
X133060Y510879D01*
X134864Y510879D01*
X134874Y510880D01*
X134883Y510879D01*
X135013Y510900D01*
X135144Y510919D01*
X135152Y510923D01*
X135162Y510924D01*
X135281Y510981D01*
X135401Y511035D01*
X135408Y511041D01*
X135416Y511045D01*
X135515Y511133D01*
X135615Y511218D01*
X135620Y511226D01*
X135627Y511233D01*
X135667Y511299D01*
X135769Y511454D01*
X135776Y511477D01*
X135788Y511496D01*
X136108Y512269D01*
X137731Y513892D01*
X139852Y514771D01*
X142148Y514771D01*
X144269Y513892D01*
X145892Y512269D01*
X146771Y510148D01*
X146771Y507852D01*
X145892Y505731D01*
X144269Y504108D01*
X142148Y503229D01*
X139829Y503229D01*
X139780Y503250D01*
X139703Y503260D01*
X139628Y503279D01*
X139563Y503277D01*
X139500Y503285D01*
X139423Y503273D01*
X139346Y503270D01*
X139285Y503250D01*
X139221Y503240D01*
X139151Y503207D01*
X139078Y503183D01*
X139025Y503146D01*
X138967Y503119D01*
X138909Y503067D01*
X138845Y503024D01*
X138804Y502974D01*
X138756Y502931D01*
X138719Y502871D01*
X138665Y502806D01*
X138632Y502728D01*
X138595Y502668D01*
X138577Y502623D01*
X138411Y502457D01*
X138372Y502405D01*
X138326Y502360D01*
X138288Y502293D01*
X138241Y502231D01*
X138219Y502171D01*
X138187Y502115D01*
X138169Y502040D01*
X138142Y501967D01*
X138137Y501903D01*
X138122Y501840D01*
X138126Y501763D01*
X138120Y501686D01*
X138133Y501623D01*
X138136Y501559D01*
X138162Y501486D01*
X138178Y501410D01*
X138208Y501353D01*
X138229Y501292D01*
X138270Y501236D01*
X138310Y501161D01*
X138369Y501100D01*
X138411Y501043D01*
X138468Y500986D01*
X139271Y499048D01*
X139271Y496952D01*
X138468Y495014D01*
X136986Y493532D01*
X135048Y492729D01*
X132952Y492729D01*
G37*
%LPD*%
%LPC*%
G36*
X59352Y191229D02*
X59352Y191229D01*
X57231Y192108D01*
X55608Y193731D01*
X54729Y195852D01*
X54729Y198148D01*
X55608Y200269D01*
X57231Y201892D01*
X59352Y202771D01*
X61648Y202771D01*
X63769Y201892D01*
X63793Y201868D01*
X63845Y201829D01*
X63890Y201783D01*
X63957Y201745D01*
X64019Y201698D01*
X64079Y201676D01*
X64135Y201644D01*
X64210Y201626D01*
X64283Y201599D01*
X64347Y201594D01*
X64409Y201579D01*
X64487Y201583D01*
X64564Y201577D01*
X64627Y201590D01*
X64691Y201593D01*
X64764Y201619D01*
X64840Y201635D01*
X64897Y201665D01*
X64958Y201686D01*
X65014Y201727D01*
X65089Y201767D01*
X65150Y201826D01*
X65207Y201868D01*
X65231Y201892D01*
X67352Y202771D01*
X69648Y202771D01*
X71769Y201892D01*
X71793Y201868D01*
X71845Y201829D01*
X71890Y201783D01*
X71957Y201745D01*
X72019Y201698D01*
X72079Y201676D01*
X72135Y201644D01*
X72210Y201626D01*
X72283Y201599D01*
X72347Y201594D01*
X72409Y201579D01*
X72487Y201583D01*
X72564Y201577D01*
X72627Y201590D01*
X72691Y201593D01*
X72764Y201619D01*
X72840Y201635D01*
X72897Y201665D01*
X72958Y201686D01*
X73014Y201727D01*
X73089Y201767D01*
X73150Y201826D01*
X73207Y201868D01*
X73231Y201892D01*
X75352Y202771D01*
X77648Y202771D01*
X79769Y201892D01*
X79793Y201868D01*
X79845Y201829D01*
X79890Y201783D01*
X79957Y201745D01*
X80019Y201698D01*
X80079Y201676D01*
X80135Y201644D01*
X80210Y201626D01*
X80283Y201599D01*
X80347Y201594D01*
X80409Y201579D01*
X80487Y201583D01*
X80564Y201577D01*
X80627Y201590D01*
X80691Y201593D01*
X80764Y201619D01*
X80840Y201635D01*
X80897Y201665D01*
X80958Y201686D01*
X81014Y201727D01*
X81089Y201767D01*
X81150Y201826D01*
X81207Y201868D01*
X81231Y201892D01*
X83352Y202771D01*
X85648Y202771D01*
X87769Y201892D01*
X89392Y200269D01*
X90271Y198148D01*
X90271Y195852D01*
X89392Y193731D01*
X87769Y192108D01*
X85648Y191229D01*
X83352Y191229D01*
X81231Y192108D01*
X81207Y192132D01*
X81155Y192171D01*
X81110Y192217D01*
X81043Y192255D01*
X80981Y192302D01*
X80921Y192324D01*
X80865Y192356D01*
X80790Y192374D01*
X80717Y192401D01*
X80653Y192406D01*
X80590Y192421D01*
X80513Y192417D01*
X80436Y192423D01*
X80373Y192410D01*
X80309Y192407D01*
X80236Y192381D01*
X80160Y192365D01*
X80103Y192335D01*
X80042Y192314D01*
X79986Y192273D01*
X79911Y192233D01*
X79850Y192174D01*
X79793Y192132D01*
X79769Y192108D01*
X77648Y191229D01*
X75352Y191229D01*
X73231Y192108D01*
X73207Y192132D01*
X73155Y192171D01*
X73110Y192217D01*
X73043Y192255D01*
X72981Y192302D01*
X72921Y192324D01*
X72865Y192356D01*
X72790Y192374D01*
X72717Y192401D01*
X72653Y192406D01*
X72590Y192421D01*
X72513Y192417D01*
X72436Y192423D01*
X72373Y192410D01*
X72309Y192407D01*
X72236Y192381D01*
X72160Y192365D01*
X72103Y192335D01*
X72042Y192314D01*
X71986Y192273D01*
X71911Y192233D01*
X71850Y192174D01*
X71793Y192132D01*
X71769Y192108D01*
X69648Y191229D01*
X67352Y191229D01*
X65231Y192108D01*
X65207Y192132D01*
X65155Y192171D01*
X65110Y192217D01*
X65043Y192255D01*
X64981Y192302D01*
X64921Y192324D01*
X64865Y192356D01*
X64790Y192374D01*
X64717Y192401D01*
X64653Y192406D01*
X64590Y192421D01*
X64513Y192417D01*
X64436Y192423D01*
X64373Y192410D01*
X64309Y192407D01*
X64236Y192381D01*
X64160Y192365D01*
X64103Y192335D01*
X64042Y192314D01*
X63986Y192273D01*
X63911Y192233D01*
X63850Y192174D01*
X63793Y192132D01*
X63769Y192108D01*
X61648Y191229D01*
X59352Y191229D01*
G37*
%LPD*%
%LPC*%
G36*
X150852Y143229D02*
X150852Y143229D01*
X148731Y144108D01*
X147108Y145731D01*
X146229Y147852D01*
X146229Y148234D01*
X146228Y148243D01*
X146229Y148253D01*
X146208Y148383D01*
X146189Y148513D01*
X146186Y148522D01*
X146184Y148531D01*
X146127Y148650D01*
X146073Y148770D01*
X146067Y148777D01*
X146063Y148786D01*
X145976Y148884D01*
X145890Y148984D01*
X145882Y148989D01*
X145876Y148997D01*
X145810Y149037D01*
X145788Y149051D01*
X144108Y150731D01*
X143229Y152852D01*
X143229Y155148D01*
X144108Y157269D01*
X145731Y158892D01*
X147852Y159771D01*
X150148Y159771D01*
X151618Y159162D01*
X151711Y159138D01*
X151801Y159106D01*
X151847Y159103D01*
X151891Y159092D01*
X151987Y159095D01*
X152083Y159089D01*
X152124Y159099D01*
X152173Y159101D01*
X152294Y159141D01*
X152382Y159162D01*
X153852Y159771D01*
X156148Y159771D01*
X157618Y159162D01*
X157711Y159138D01*
X157801Y159106D01*
X157847Y159103D01*
X157891Y159092D01*
X157987Y159095D01*
X158083Y159089D01*
X158124Y159099D01*
X158173Y159101D01*
X158294Y159141D01*
X158382Y159162D01*
X159852Y159771D01*
X162148Y159771D01*
X164269Y158892D01*
X165892Y157269D01*
X166771Y155148D01*
X166771Y152852D01*
X165892Y150731D01*
X164217Y149056D01*
X164145Y149013D01*
X164138Y149007D01*
X164130Y149001D01*
X164042Y148904D01*
X163952Y148808D01*
X163948Y148799D01*
X163941Y148792D01*
X163884Y148673D01*
X163824Y148556D01*
X163822Y148547D01*
X163818Y148538D01*
X163806Y148462D01*
X163772Y148279D01*
X163774Y148255D01*
X163771Y148234D01*
X163771Y147852D01*
X162892Y145731D01*
X161269Y144108D01*
X159148Y143229D01*
X156852Y143229D01*
X155382Y143838D01*
X155344Y143848D01*
X155310Y143864D01*
X155262Y143872D01*
X155199Y143894D01*
X155153Y143897D01*
X155109Y143908D01*
X155042Y143906D01*
X155006Y143912D01*
X154994Y143912D01*
X154967Y143908D01*
X154917Y143911D01*
X154876Y143901D01*
X154827Y143899D01*
X154766Y143879D01*
X154715Y143872D01*
X154666Y143850D01*
X154618Y143838D01*
X153148Y143229D01*
X150852Y143229D01*
G37*
%LPD*%
%LPC*%
G36*
X50222Y427729D02*
X50222Y427729D01*
X48284Y428532D01*
X46802Y430014D01*
X45999Y431952D01*
X45999Y434048D01*
X46802Y435986D01*
X48156Y437340D01*
X48195Y437391D01*
X48241Y437436D01*
X48279Y437504D01*
X48325Y437565D01*
X48348Y437625D01*
X48380Y437681D01*
X48397Y437757D01*
X48425Y437829D01*
X48430Y437893D01*
X48445Y437956D01*
X48441Y438033D01*
X48447Y438111D01*
X48433Y438173D01*
X48430Y438238D01*
X48405Y438311D01*
X48389Y438387D01*
X48359Y438443D01*
X48338Y438504D01*
X48296Y438561D01*
X48256Y438636D01*
X48197Y438696D01*
X48156Y438753D01*
X46678Y440231D01*
X45799Y442352D01*
X45799Y444648D01*
X46678Y446769D01*
X48301Y448392D01*
X50422Y449271D01*
X52718Y449271D01*
X54839Y448392D01*
X55318Y447913D01*
X55369Y447874D01*
X55414Y447828D01*
X55482Y447790D01*
X55544Y447744D01*
X55604Y447721D01*
X55660Y447689D01*
X55735Y447672D01*
X55807Y447644D01*
X55871Y447639D01*
X55934Y447624D01*
X56012Y447628D01*
X56089Y447622D01*
X56151Y447636D01*
X56216Y447639D01*
X56289Y447664D01*
X56365Y447680D01*
X56421Y447710D01*
X56482Y447731D01*
X56539Y447773D01*
X56614Y447812D01*
X56674Y447872D01*
X56731Y447913D01*
X57735Y448917D01*
X59856Y449796D01*
X62152Y449796D01*
X64273Y448917D01*
X65896Y447294D01*
X66775Y445173D01*
X66775Y442877D01*
X65896Y440756D01*
X64273Y439133D01*
X62152Y438254D01*
X59856Y438254D01*
X57735Y439133D01*
X57256Y439612D01*
X57205Y439651D01*
X57160Y439697D01*
X57093Y439735D01*
X57031Y439781D01*
X56971Y439804D01*
X56915Y439836D01*
X56839Y439854D01*
X56767Y439881D01*
X56703Y439886D01*
X56640Y439901D01*
X56563Y439897D01*
X56486Y439903D01*
X56423Y439890D01*
X56359Y439886D01*
X56285Y439861D01*
X56210Y439845D01*
X56153Y439815D01*
X56092Y439794D01*
X56035Y439752D01*
X55961Y439713D01*
X55900Y439653D01*
X55843Y439612D01*
X54768Y438537D01*
X54760Y438533D01*
X54711Y438480D01*
X54698Y438467D01*
X54695Y438463D01*
X54679Y438446D01*
X54594Y438363D01*
X54583Y438343D01*
X54567Y438327D01*
X54513Y438221D01*
X54455Y438117D01*
X54449Y438096D01*
X54439Y438076D01*
X54417Y437959D01*
X54390Y437843D01*
X54391Y437821D01*
X54387Y437799D01*
X54398Y437680D01*
X54404Y437561D01*
X54411Y437540D01*
X54413Y437518D01*
X54457Y437408D01*
X54496Y437295D01*
X54509Y437278D01*
X54518Y437256D01*
X54634Y437107D01*
X54678Y437046D01*
X55738Y435986D01*
X56541Y434048D01*
X56541Y431952D01*
X55738Y430014D01*
X54256Y428532D01*
X52318Y427729D01*
X50222Y427729D01*
G37*
%LPD*%
%LPC*%
G36*
X37952Y68729D02*
X37952Y68729D01*
X36014Y69532D01*
X34532Y71014D01*
X33729Y72952D01*
X33729Y75048D01*
X34532Y76986D01*
X35839Y78293D01*
X35878Y78345D01*
X35924Y78390D01*
X35962Y78457D01*
X36009Y78519D01*
X36031Y78579D01*
X36063Y78635D01*
X36081Y78710D01*
X36108Y78783D01*
X36113Y78847D01*
X36128Y78910D01*
X36124Y78987D01*
X36130Y79064D01*
X36117Y79127D01*
X36114Y79191D01*
X36088Y79264D01*
X36072Y79340D01*
X36042Y79397D01*
X36021Y79458D01*
X35980Y79514D01*
X35940Y79589D01*
X35881Y79650D01*
X35839Y79707D01*
X34532Y81014D01*
X33654Y83132D01*
X33650Y83141D01*
X33647Y83150D01*
X33578Y83262D01*
X33511Y83375D01*
X33504Y83382D01*
X33499Y83390D01*
X33401Y83478D01*
X33305Y83568D01*
X33297Y83572D01*
X33290Y83579D01*
X33171Y83636D01*
X33054Y83696D01*
X33044Y83698D01*
X33036Y83702D01*
X32960Y83714D01*
X32776Y83748D01*
X32753Y83746D01*
X32731Y83749D01*
X30852Y83749D01*
X28731Y84628D01*
X27108Y86251D01*
X26229Y88372D01*
X26229Y90668D01*
X27108Y92789D01*
X28731Y94412D01*
X30852Y95291D01*
X33148Y95291D01*
X35269Y94412D01*
X36892Y92789D01*
X37771Y90668D01*
X37771Y90270D01*
X37780Y90206D01*
X37779Y90142D01*
X37800Y90067D01*
X37811Y89991D01*
X37837Y89932D01*
X37854Y89870D01*
X37895Y89804D01*
X37927Y89734D01*
X37969Y89685D01*
X38002Y89630D01*
X38060Y89578D01*
X38110Y89520D01*
X38164Y89484D01*
X38212Y89441D01*
X38281Y89408D01*
X38346Y89365D01*
X38408Y89346D01*
X38465Y89318D01*
X38535Y89307D01*
X38616Y89283D01*
X38701Y89282D01*
X38770Y89271D01*
X40048Y89271D01*
X41986Y88468D01*
X43468Y86986D01*
X44271Y85048D01*
X44271Y82952D01*
X43468Y81014D01*
X42161Y79707D01*
X42122Y79655D01*
X42076Y79610D01*
X42038Y79543D01*
X41991Y79481D01*
X41969Y79421D01*
X41937Y79365D01*
X41919Y79290D01*
X41892Y79217D01*
X41887Y79153D01*
X41872Y79091D01*
X41876Y79013D01*
X41870Y78936D01*
X41883Y78873D01*
X41886Y78809D01*
X41912Y78736D01*
X41928Y78660D01*
X41958Y78603D01*
X41979Y78542D01*
X42020Y78486D01*
X42060Y78411D01*
X42119Y78350D01*
X42130Y78335D01*
X42139Y78321D01*
X42144Y78317D01*
X42161Y78293D01*
X43468Y76986D01*
X44271Y75048D01*
X44271Y72952D01*
X43468Y71014D01*
X41986Y69532D01*
X40048Y68729D01*
X37952Y68729D01*
G37*
%LPD*%
%LPC*%
G36*
X149952Y536729D02*
X149952Y536729D01*
X148014Y537532D01*
X146532Y539014D01*
X145729Y540952D01*
X145729Y543048D01*
X146532Y544986D01*
X148014Y546468D01*
X150087Y547327D01*
X150115Y547343D01*
X150145Y547353D01*
X150236Y547415D01*
X150330Y547470D01*
X150352Y547494D01*
X150378Y547512D01*
X150448Y547597D01*
X150523Y547676D01*
X150537Y547705D01*
X150558Y547730D01*
X150601Y547830D01*
X150650Y547928D01*
X150656Y547959D01*
X150669Y547989D01*
X150682Y548097D01*
X150703Y548205D01*
X150700Y548237D01*
X150704Y548269D01*
X150686Y548377D01*
X150676Y548485D01*
X150664Y548515D01*
X150659Y548547D01*
X150612Y548646D01*
X150571Y548747D01*
X150551Y548773D01*
X150538Y548802D01*
X150465Y548884D01*
X150398Y548970D01*
X150372Y548989D01*
X150350Y549013D01*
X150273Y549060D01*
X150169Y549135D01*
X150123Y549151D01*
X150087Y549173D01*
X148014Y550032D01*
X146532Y551514D01*
X145729Y553452D01*
X145729Y555548D01*
X146532Y557486D01*
X148014Y558968D01*
X150087Y559827D01*
X150115Y559843D01*
X150145Y559853D01*
X150236Y559915D01*
X150330Y559970D01*
X150352Y559994D01*
X150378Y560012D01*
X150448Y560096D01*
X150523Y560176D01*
X150537Y560205D01*
X150558Y560230D01*
X150601Y560330D01*
X150650Y560428D01*
X150656Y560459D01*
X150669Y560489D01*
X150683Y560597D01*
X150703Y560705D01*
X150700Y560737D01*
X150704Y560769D01*
X150686Y560877D01*
X150676Y560985D01*
X150664Y561015D01*
X150659Y561047D01*
X150612Y561146D01*
X150571Y561247D01*
X150551Y561273D01*
X150538Y561302D01*
X150465Y561384D01*
X150398Y561470D01*
X150372Y561489D01*
X150350Y561513D01*
X150273Y561560D01*
X150169Y561635D01*
X150123Y561651D01*
X150087Y561673D01*
X148014Y562532D01*
X146532Y564014D01*
X145729Y565952D01*
X145729Y568048D01*
X146532Y569986D01*
X148014Y571468D01*
X149952Y572271D01*
X152048Y572271D01*
X153986Y571468D01*
X155468Y569986D01*
X156271Y568048D01*
X156271Y565952D01*
X155468Y564014D01*
X153986Y562532D01*
X151913Y561673D01*
X151885Y561657D01*
X151855Y561647D01*
X151764Y561585D01*
X151670Y561530D01*
X151648Y561506D01*
X151622Y561488D01*
X151552Y561403D01*
X151477Y561324D01*
X151463Y561295D01*
X151442Y561270D01*
X151399Y561170D01*
X151350Y561072D01*
X151344Y561041D01*
X151331Y561011D01*
X151318Y560903D01*
X151297Y560795D01*
X151300Y560763D01*
X151296Y560731D01*
X151314Y560623D01*
X151324Y560515D01*
X151336Y560485D01*
X151341Y560453D01*
X151388Y560354D01*
X151429Y560253D01*
X151449Y560227D01*
X151462Y560198D01*
X151535Y560116D01*
X151602Y560030D01*
X151628Y560011D01*
X151650Y559987D01*
X151727Y559940D01*
X151831Y559865D01*
X151877Y559849D01*
X151913Y559827D01*
X153986Y558968D01*
X155468Y557486D01*
X156271Y555548D01*
X156271Y553452D01*
X155468Y551514D01*
X153986Y550032D01*
X151913Y549173D01*
X151885Y549157D01*
X151855Y549147D01*
X151764Y549085D01*
X151670Y549030D01*
X151648Y549006D01*
X151622Y548988D01*
X151552Y548904D01*
X151477Y548824D01*
X151463Y548795D01*
X151442Y548770D01*
X151399Y548670D01*
X151350Y548572D01*
X151344Y548541D01*
X151331Y548511D01*
X151317Y548403D01*
X151297Y548295D01*
X151300Y548263D01*
X151296Y548231D01*
X151314Y548123D01*
X151324Y548015D01*
X151336Y547985D01*
X151341Y547953D01*
X151388Y547854D01*
X151429Y547753D01*
X151449Y547727D01*
X151462Y547698D01*
X151535Y547616D01*
X151602Y547530D01*
X151628Y547511D01*
X151650Y547487D01*
X151727Y547440D01*
X151831Y547365D01*
X151877Y547349D01*
X151913Y547327D01*
X153986Y546468D01*
X155468Y544986D01*
X156271Y543048D01*
X156271Y540952D01*
X155468Y539014D01*
X153986Y537532D01*
X152048Y536729D01*
X149952Y536729D01*
G37*
%LPD*%
%LPC*%
G36*
X29452Y221729D02*
X29452Y221729D01*
X27514Y222532D01*
X26032Y224014D01*
X25229Y225952D01*
X25229Y228048D01*
X26032Y229986D01*
X27514Y231468D01*
X29452Y232271D01*
X31548Y232271D01*
X33486Y231468D01*
X33784Y231170D01*
X33879Y231099D01*
X33970Y231023D01*
X33991Y231014D01*
X34010Y231001D01*
X34121Y230959D01*
X34230Y230912D01*
X34252Y230909D01*
X34274Y230901D01*
X34392Y230892D01*
X34509Y230877D01*
X34532Y230881D01*
X34555Y230879D01*
X34671Y230903D01*
X34788Y230922D01*
X34809Y230932D01*
X34831Y230937D01*
X34935Y230992D01*
X35043Y231043D01*
X35060Y231059D01*
X35080Y231069D01*
X35165Y231152D01*
X35253Y231231D01*
X35265Y231249D01*
X35282Y231266D01*
X35374Y231428D01*
X35414Y231494D01*
X36032Y232986D01*
X37514Y234468D01*
X39452Y235271D01*
X41548Y235271D01*
X43486Y234468D01*
X44968Y232986D01*
X45009Y232888D01*
X45014Y232879D01*
X45016Y232870D01*
X45085Y232758D01*
X45152Y232645D01*
X45159Y232638D01*
X45164Y232630D01*
X45262Y232542D01*
X45358Y232452D01*
X45367Y232448D01*
X45374Y232441D01*
X45492Y232384D01*
X45610Y232324D01*
X45619Y232322D01*
X45628Y232318D01*
X45704Y232306D01*
X45887Y232272D01*
X45911Y232274D01*
X45932Y232271D01*
X46548Y232271D01*
X48486Y231468D01*
X49968Y229986D01*
X50771Y228048D01*
X50771Y225952D01*
X49968Y224014D01*
X48486Y222532D01*
X46548Y221729D01*
X44452Y221729D01*
X42514Y222532D01*
X41032Y224014D01*
X40991Y224112D01*
X40986Y224121D01*
X40984Y224130D01*
X40915Y224242D01*
X40848Y224355D01*
X40841Y224362D01*
X40836Y224370D01*
X40738Y224458D01*
X40642Y224548D01*
X40633Y224552D01*
X40626Y224559D01*
X40508Y224616D01*
X40390Y224676D01*
X40381Y224678D01*
X40372Y224682D01*
X40296Y224694D01*
X40113Y224728D01*
X40089Y224726D01*
X40068Y224729D01*
X39452Y224729D01*
X37514Y225532D01*
X37216Y225830D01*
X37121Y225901D01*
X37030Y225977D01*
X37009Y225986D01*
X36990Y225999D01*
X36879Y226041D01*
X36770Y226088D01*
X36748Y226091D01*
X36726Y226099D01*
X36608Y226108D01*
X36491Y226123D01*
X36468Y226119D01*
X36445Y226121D01*
X36329Y226097D01*
X36212Y226078D01*
X36192Y226068D01*
X36169Y226063D01*
X36064Y226007D01*
X35957Y225957D01*
X35940Y225941D01*
X35920Y225931D01*
X35835Y225848D01*
X35747Y225769D01*
X35735Y225751D01*
X35718Y225734D01*
X35626Y225572D01*
X35586Y225506D01*
X34968Y224014D01*
X33486Y222532D01*
X31548Y221729D01*
X29452Y221729D01*
G37*
%LPD*%
%LPC*%
G36*
X106852Y484729D02*
X106852Y484729D01*
X104731Y485608D01*
X103108Y487231D01*
X102229Y489352D01*
X102229Y491648D01*
X103108Y493769D01*
X104731Y495392D01*
X106852Y496271D01*
X109148Y496271D01*
X111269Y495392D01*
X112892Y493769D01*
X113327Y492720D01*
X113343Y492692D01*
X113353Y492661D01*
X113415Y492571D01*
X113470Y492477D01*
X113494Y492455D01*
X113512Y492428D01*
X113596Y492359D01*
X113676Y492284D01*
X113705Y492269D01*
X113730Y492249D01*
X113830Y492206D01*
X113928Y492156D01*
X113959Y492150D01*
X113989Y492137D01*
X114097Y492124D01*
X114205Y492104D01*
X114237Y492107D01*
X114269Y492103D01*
X114377Y492120D01*
X114485Y492131D01*
X114515Y492143D01*
X114547Y492148D01*
X114646Y492195D01*
X114747Y492235D01*
X114773Y492255D01*
X114802Y492269D01*
X114884Y492342D01*
X114970Y492409D01*
X114989Y492435D01*
X115013Y492456D01*
X115060Y492534D01*
X115135Y492637D01*
X115151Y492683D01*
X115173Y492720D01*
X115608Y493769D01*
X117231Y495392D01*
X119352Y496271D01*
X121648Y496271D01*
X123769Y495392D01*
X125392Y493769D01*
X126271Y491648D01*
X126271Y489352D01*
X125392Y487231D01*
X123769Y485608D01*
X121648Y484729D01*
X119352Y484729D01*
X117231Y485608D01*
X115608Y487231D01*
X115173Y488280D01*
X115157Y488308D01*
X115147Y488339D01*
X115085Y488429D01*
X115030Y488523D01*
X115006Y488545D01*
X114988Y488572D01*
X114903Y488641D01*
X114824Y488716D01*
X114795Y488731D01*
X114770Y488751D01*
X114670Y488794D01*
X114572Y488844D01*
X114541Y488850D01*
X114511Y488863D01*
X114403Y488876D01*
X114295Y488896D01*
X114263Y488893D01*
X114231Y488897D01*
X114123Y488880D01*
X114015Y488869D01*
X113985Y488857D01*
X113953Y488852D01*
X113854Y488805D01*
X113753Y488765D01*
X113727Y488745D01*
X113698Y488731D01*
X113616Y488658D01*
X113530Y488591D01*
X113511Y488565D01*
X113487Y488544D01*
X113440Y488466D01*
X113365Y488363D01*
X113349Y488317D01*
X113327Y488280D01*
X112892Y487231D01*
X111269Y485608D01*
X109148Y484729D01*
X106852Y484729D01*
G37*
%LPD*%
%LPC*%
G36*
X113352Y417729D02*
X113352Y417729D01*
X111231Y418608D01*
X109608Y420231D01*
X108719Y422377D01*
X108729Y422443D01*
X108729Y424648D01*
X109542Y426610D01*
X109558Y426672D01*
X109583Y426732D01*
X109593Y426808D01*
X109612Y426883D01*
X109610Y426948D01*
X109618Y427011D01*
X109606Y427088D01*
X109603Y427165D01*
X109583Y427226D01*
X109573Y427290D01*
X109540Y427360D01*
X109516Y427433D01*
X109479Y427487D01*
X109452Y427545D01*
X109400Y427602D01*
X109357Y427666D01*
X109307Y427707D01*
X109264Y427755D01*
X109204Y427792D01*
X109139Y427846D01*
X109061Y427879D01*
X109001Y427916D01*
X107514Y428532D01*
X106032Y430014D01*
X105229Y431952D01*
X105229Y434048D01*
X106032Y435986D01*
X107514Y437468D01*
X109452Y438271D01*
X111548Y438271D01*
X113486Y437468D01*
X114968Y435986D01*
X115771Y434048D01*
X115771Y431952D01*
X115187Y430543D01*
X115171Y430481D01*
X115146Y430422D01*
X115136Y430345D01*
X115117Y430270D01*
X115119Y430206D01*
X115111Y430142D01*
X115124Y430065D01*
X115126Y429988D01*
X115146Y429927D01*
X115156Y429863D01*
X115190Y429794D01*
X115214Y429720D01*
X115250Y429667D01*
X115278Y429609D01*
X115329Y429551D01*
X115373Y429487D01*
X115422Y429446D01*
X115465Y429398D01*
X115525Y429361D01*
X115590Y429308D01*
X115668Y429274D01*
X115728Y429237D01*
X117769Y428392D01*
X119392Y426769D01*
X120271Y424648D01*
X120271Y422443D01*
X120280Y422375D01*
X119392Y420231D01*
X117769Y418608D01*
X115648Y417729D01*
X113352Y417729D01*
G37*
%LPD*%
%LPC*%
G36*
X58352Y140229D02*
X58352Y140229D01*
X56231Y141108D01*
X54608Y142731D01*
X53805Y144668D01*
X53773Y144724D01*
X53749Y144783D01*
X53701Y144844D01*
X53662Y144911D01*
X53615Y144955D01*
X53575Y145006D01*
X53512Y145051D01*
X53456Y145104D01*
X53399Y145133D01*
X53347Y145171D01*
X53274Y145197D01*
X53205Y145232D01*
X53141Y145244D01*
X53081Y145265D01*
X53004Y145270D01*
X52928Y145284D01*
X52864Y145278D01*
X52799Y145282D01*
X52731Y145265D01*
X52647Y145257D01*
X52577Y145229D01*
X50452Y145229D01*
X48514Y146032D01*
X47032Y147514D01*
X46229Y149452D01*
X46229Y151548D01*
X47032Y153486D01*
X48514Y154968D01*
X50452Y155771D01*
X52548Y155771D01*
X54486Y154968D01*
X55968Y153486D01*
X56541Y152102D01*
X56574Y152047D01*
X56598Y151987D01*
X56646Y151926D01*
X56685Y151860D01*
X56732Y151816D01*
X56771Y151765D01*
X56834Y151720D01*
X56891Y151667D01*
X56948Y151637D01*
X57000Y151600D01*
X57073Y151574D01*
X57142Y151539D01*
X57205Y151527D01*
X57266Y151505D01*
X57343Y151501D01*
X57419Y151486D01*
X57483Y151493D01*
X57547Y151489D01*
X57616Y151505D01*
X57700Y151514D01*
X57779Y151545D01*
X57847Y151561D01*
X58352Y151771D01*
X60648Y151771D01*
X62769Y150892D01*
X64392Y149269D01*
X65271Y147148D01*
X65271Y144852D01*
X64392Y142731D01*
X62769Y141108D01*
X60648Y140229D01*
X58352Y140229D01*
G37*
%LPD*%
%LPC*%
G36*
X185452Y303729D02*
X185452Y303729D01*
X183514Y304532D01*
X182032Y306014D01*
X181229Y307952D01*
X181229Y310048D01*
X182017Y311950D01*
X182019Y311959D01*
X182024Y311967D01*
X182054Y312096D01*
X182087Y312223D01*
X182087Y312232D01*
X182089Y312242D01*
X182082Y312374D01*
X182078Y312505D01*
X182075Y312514D01*
X182074Y312523D01*
X182031Y312647D01*
X181990Y312773D01*
X181985Y312781D01*
X181982Y312790D01*
X181936Y312852D01*
X181832Y313006D01*
X181813Y313021D01*
X181800Y313039D01*
X181608Y313231D01*
X180729Y315352D01*
X180729Y317648D01*
X181608Y319769D01*
X183231Y321392D01*
X185352Y322271D01*
X187648Y322271D01*
X189769Y321392D01*
X191392Y319769D01*
X192271Y317648D01*
X192271Y315352D01*
X191392Y313231D01*
X191200Y313039D01*
X191194Y313031D01*
X191187Y313025D01*
X191110Y312918D01*
X191031Y312813D01*
X191027Y312804D01*
X191022Y312797D01*
X190978Y312673D01*
X190931Y312549D01*
X190930Y312540D01*
X190927Y312531D01*
X190919Y312400D01*
X190909Y312268D01*
X190911Y312259D01*
X190911Y312249D01*
X190929Y312174D01*
X190967Y311992D01*
X190978Y311971D01*
X190983Y311950D01*
X191771Y310048D01*
X191771Y307952D01*
X190968Y306014D01*
X189486Y304532D01*
X187548Y303729D01*
X185452Y303729D01*
G37*
%LPD*%
%LPC*%
G36*
X11952Y584729D02*
X11952Y584729D01*
X10014Y585532D01*
X8532Y587014D01*
X7729Y588952D01*
X7729Y591048D01*
X8532Y592986D01*
X10014Y594468D01*
X11952Y595271D01*
X14048Y595271D01*
X15986Y594468D01*
X16293Y594161D01*
X16345Y594122D01*
X16390Y594076D01*
X16457Y594038D01*
X16519Y593991D01*
X16579Y593969D01*
X16635Y593937D01*
X16710Y593919D01*
X16783Y593892D01*
X16847Y593887D01*
X16909Y593872D01*
X16987Y593876D01*
X17064Y593870D01*
X17127Y593883D01*
X17191Y593886D01*
X17264Y593912D01*
X17340Y593928D01*
X17397Y593958D01*
X17458Y593979D01*
X17514Y594020D01*
X17589Y594060D01*
X17650Y594119D01*
X17707Y594161D01*
X19014Y595468D01*
X20952Y596271D01*
X23048Y596271D01*
X24986Y595468D01*
X26468Y593986D01*
X27271Y592048D01*
X27271Y589952D01*
X26468Y588014D01*
X24986Y586532D01*
X23048Y585729D01*
X20952Y585729D01*
X19014Y586532D01*
X18707Y586839D01*
X18655Y586878D01*
X18610Y586924D01*
X18543Y586962D01*
X18481Y587009D01*
X18421Y587031D01*
X18365Y587063D01*
X18290Y587081D01*
X18217Y587108D01*
X18153Y587113D01*
X18090Y587128D01*
X18013Y587124D01*
X17936Y587130D01*
X17873Y587117D01*
X17809Y587114D01*
X17736Y587088D01*
X17660Y587072D01*
X17603Y587042D01*
X17542Y587021D01*
X17486Y586980D01*
X17411Y586940D01*
X17350Y586881D01*
X17293Y586839D01*
X15986Y585532D01*
X14048Y584729D01*
X11952Y584729D01*
G37*
%LPD*%
%LPC*%
G36*
X167952Y485229D02*
X167952Y485229D01*
X166014Y486032D01*
X164532Y487514D01*
X163729Y489452D01*
X163729Y491548D01*
X164532Y493486D01*
X166014Y494968D01*
X166612Y495216D01*
X166621Y495221D01*
X166630Y495223D01*
X166742Y495293D01*
X166855Y495360D01*
X166862Y495367D01*
X166870Y495372D01*
X166958Y495470D01*
X167048Y495565D01*
X167052Y495574D01*
X167059Y495581D01*
X167116Y495699D01*
X167176Y495817D01*
X167178Y495826D01*
X167182Y495835D01*
X167193Y495910D01*
X167228Y496094D01*
X167226Y496118D01*
X167229Y496139D01*
X167229Y497048D01*
X168032Y498986D01*
X169514Y500468D01*
X171452Y501271D01*
X173548Y501271D01*
X175486Y500468D01*
X176968Y498986D01*
X177771Y497048D01*
X177771Y494952D01*
X176968Y493014D01*
X175486Y491532D01*
X174888Y491284D01*
X174879Y491279D01*
X174870Y491277D01*
X174758Y491207D01*
X174645Y491140D01*
X174638Y491133D01*
X174630Y491128D01*
X174542Y491030D01*
X174452Y490935D01*
X174448Y490926D01*
X174441Y490919D01*
X174384Y490801D01*
X174324Y490683D01*
X174322Y490674D01*
X174318Y490665D01*
X174306Y490589D01*
X174272Y490406D01*
X174274Y490382D01*
X174271Y490361D01*
X174271Y489452D01*
X173468Y487514D01*
X171986Y486032D01*
X170048Y485229D01*
X167952Y485229D01*
G37*
%LPD*%
%LPC*%
G36*
X76952Y399729D02*
X76952Y399729D01*
X75014Y400532D01*
X73532Y402014D01*
X72729Y403952D01*
X72729Y406048D01*
X73532Y407986D01*
X75014Y409468D01*
X76952Y410271D01*
X79048Y410271D01*
X79919Y409910D01*
X80012Y409886D01*
X80103Y409854D01*
X80148Y409851D01*
X80192Y409840D01*
X80288Y409843D01*
X80384Y409837D01*
X80426Y409848D01*
X80474Y409849D01*
X80596Y409889D01*
X80684Y409910D01*
X82762Y410771D01*
X84858Y410771D01*
X86796Y409968D01*
X88278Y408486D01*
X89081Y406548D01*
X89081Y404452D01*
X88278Y402514D01*
X86796Y401032D01*
X84858Y400229D01*
X82762Y400229D01*
X81891Y400590D01*
X81798Y400614D01*
X81707Y400646D01*
X81662Y400649D01*
X81618Y400660D01*
X81522Y400657D01*
X81426Y400663D01*
X81384Y400652D01*
X81336Y400651D01*
X81214Y400611D01*
X81126Y400590D01*
X79048Y399729D01*
X76952Y399729D01*
G37*
%LPD*%
%LPC*%
G36*
X46852Y327229D02*
X46852Y327229D01*
X44731Y328108D01*
X43108Y329731D01*
X42229Y331852D01*
X42229Y334148D01*
X43108Y336269D01*
X44731Y337892D01*
X46852Y338771D01*
X49148Y338771D01*
X51269Y337892D01*
X52666Y336495D01*
X52735Y336443D01*
X52799Y336384D01*
X52848Y336359D01*
X52892Y336326D01*
X52973Y336295D01*
X53050Y336256D01*
X53070Y336252D01*
X53069Y336225D01*
X53056Y336172D01*
X53061Y336085D01*
X53056Y335999D01*
X53068Y335949D01*
X53071Y335890D01*
X53108Y335783D01*
X53128Y335699D01*
X53771Y334148D01*
X53771Y331852D01*
X52892Y329731D01*
X51269Y328108D01*
X49148Y327229D01*
X46852Y327229D01*
G37*
%LPD*%
%LPC*%
G36*
X99852Y415229D02*
X99852Y415229D01*
X97731Y416108D01*
X96108Y417731D01*
X95229Y419852D01*
X95229Y422148D01*
X96108Y424269D01*
X97731Y425892D01*
X99852Y426771D01*
X102148Y426771D01*
X104269Y425892D01*
X105892Y424269D01*
X106781Y422123D01*
X106771Y422057D01*
X106771Y419852D01*
X105892Y417731D01*
X104269Y416108D01*
X102148Y415229D01*
X99852Y415229D01*
G37*
%LPD*%
%LPC*%
G36*
X126852Y415229D02*
X126852Y415229D01*
X124731Y416108D01*
X123108Y417731D01*
X122229Y419852D01*
X122229Y422057D01*
X122220Y422125D01*
X123108Y424269D01*
X124731Y425892D01*
X126852Y426771D01*
X129148Y426771D01*
X131269Y425892D01*
X132892Y424269D01*
X133771Y422148D01*
X133771Y419852D01*
X132892Y417731D01*
X131269Y416108D01*
X129148Y415229D01*
X126852Y415229D01*
G37*
%LPD*%
%LPC*%
G36*
X99852Y381229D02*
X99852Y381229D01*
X97731Y382108D01*
X96108Y383731D01*
X95229Y385852D01*
X95229Y388148D01*
X96108Y390269D01*
X97731Y391892D01*
X99852Y392771D01*
X102148Y392771D01*
X104269Y391892D01*
X105892Y390269D01*
X106771Y388148D01*
X106771Y385852D01*
X105892Y383731D01*
X104269Y382108D01*
X102148Y381229D01*
X99852Y381229D01*
G37*
%LPD*%
%LPC*%
G36*
X83852Y229729D02*
X83852Y229729D01*
X81731Y230608D01*
X80108Y232231D01*
X79229Y234352D01*
X79229Y236648D01*
X80108Y238769D01*
X81731Y240392D01*
X83852Y241271D01*
X86148Y241271D01*
X88269Y240392D01*
X89892Y238769D01*
X90771Y236648D01*
X90771Y234352D01*
X89892Y232231D01*
X88269Y230608D01*
X86148Y229729D01*
X83852Y229729D01*
G37*
%LPD*%
%LPC*%
G36*
X131852Y195729D02*
X131852Y195729D01*
X129731Y196608D01*
X128108Y198231D01*
X127229Y200352D01*
X127229Y202648D01*
X128108Y204769D01*
X129731Y206392D01*
X131852Y207271D01*
X134148Y207271D01*
X136269Y206392D01*
X137892Y204769D01*
X138771Y202648D01*
X138771Y200352D01*
X137892Y198231D01*
X136269Y196608D01*
X134148Y195729D01*
X131852Y195729D01*
G37*
%LPD*%
%LPC*%
G36*
X33852Y640229D02*
X33852Y640229D01*
X31731Y641108D01*
X30108Y642731D01*
X29229Y644852D01*
X29229Y647148D01*
X30108Y649269D01*
X31731Y650892D01*
X33852Y651771D01*
X36148Y651771D01*
X38269Y650892D01*
X39892Y649269D01*
X40771Y647148D01*
X40771Y644852D01*
X39892Y642731D01*
X38269Y641108D01*
X36148Y640229D01*
X33852Y640229D01*
G37*
%LPD*%
%LPC*%
G36*
X113152Y96729D02*
X113152Y96729D01*
X111031Y97608D01*
X109408Y99231D01*
X108529Y101352D01*
X108529Y103648D01*
X109408Y105769D01*
X111031Y107392D01*
X113152Y108271D01*
X115448Y108271D01*
X117569Y107392D01*
X119192Y105769D01*
X120071Y103648D01*
X120071Y101352D01*
X119192Y99231D01*
X117569Y97608D01*
X115448Y96729D01*
X113152Y96729D01*
G37*
%LPD*%
%LPC*%
G36*
X190852Y521729D02*
X190852Y521729D01*
X188731Y522608D01*
X187108Y524231D01*
X186229Y526352D01*
X186229Y528648D01*
X187108Y530769D01*
X188731Y532392D01*
X190852Y533271D01*
X193148Y533271D01*
X195269Y532392D01*
X196892Y530769D01*
X197771Y528648D01*
X197771Y526352D01*
X196892Y524231D01*
X195269Y522608D01*
X193148Y521729D01*
X190852Y521729D01*
G37*
%LPD*%
%LPC*%
G36*
X126852Y381229D02*
X126852Y381229D01*
X124731Y382108D01*
X123108Y383731D01*
X122229Y385852D01*
X122229Y388148D01*
X123108Y390269D01*
X124731Y391892D01*
X126852Y392771D01*
X129148Y392771D01*
X131269Y391892D01*
X132892Y390269D01*
X133771Y388148D01*
X133771Y385852D01*
X132892Y383731D01*
X131269Y382108D01*
X129148Y381229D01*
X126852Y381229D01*
G37*
%LPD*%
%LPC*%
G36*
X198852Y426729D02*
X198852Y426729D01*
X196731Y427608D01*
X195108Y429231D01*
X194229Y431352D01*
X194229Y433648D01*
X195108Y435769D01*
X196731Y437392D01*
X198852Y438271D01*
X201148Y438271D01*
X203269Y437392D01*
X204892Y435769D01*
X205771Y433648D01*
X205771Y431352D01*
X204892Y429231D01*
X203269Y427608D01*
X201148Y426729D01*
X198852Y426729D01*
G37*
%LPD*%
%LPC*%
G36*
X56352Y534729D02*
X56352Y534729D01*
X54231Y535608D01*
X52608Y537231D01*
X51729Y539352D01*
X51729Y541648D01*
X52608Y543769D01*
X54231Y545392D01*
X56352Y546271D01*
X58648Y546271D01*
X60769Y545392D01*
X62392Y543769D01*
X63271Y541648D01*
X63271Y539352D01*
X62392Y537231D01*
X60769Y535608D01*
X58648Y534729D01*
X56352Y534729D01*
G37*
%LPD*%
%LPC*%
G36*
X51932Y408309D02*
X51932Y408309D01*
X49811Y409188D01*
X48188Y410811D01*
X47309Y412932D01*
X47309Y415228D01*
X48188Y417349D01*
X49811Y418972D01*
X51932Y419851D01*
X54228Y419851D01*
X56349Y418972D01*
X57972Y417349D01*
X58851Y415228D01*
X58851Y412932D01*
X57972Y410811D01*
X56349Y409188D01*
X54228Y408309D01*
X51932Y408309D01*
G37*
%LPD*%
%LPC*%
G36*
X162852Y397729D02*
X162852Y397729D01*
X160731Y398608D01*
X159108Y400231D01*
X158229Y402352D01*
X158229Y404648D01*
X159108Y406769D01*
X160731Y408392D01*
X162852Y409271D01*
X165148Y409271D01*
X167269Y408392D01*
X168892Y406769D01*
X169771Y404648D01*
X169771Y402352D01*
X168892Y400231D01*
X167269Y398608D01*
X165148Y397729D01*
X162852Y397729D01*
G37*
%LPD*%
%LPC*%
G36*
X50552Y391729D02*
X50552Y391729D01*
X48431Y392608D01*
X46808Y394231D01*
X45929Y396352D01*
X45929Y398648D01*
X46808Y400769D01*
X48431Y402392D01*
X50552Y403271D01*
X52848Y403271D01*
X54969Y402392D01*
X56592Y400769D01*
X57471Y398648D01*
X57471Y396352D01*
X56592Y394231D01*
X54969Y392608D01*
X52848Y391729D01*
X50552Y391729D01*
G37*
%LPD*%
%LPC*%
G36*
X148452Y455229D02*
X148452Y455229D01*
X146514Y456032D01*
X145032Y457514D01*
X144229Y459452D01*
X144229Y461548D01*
X145032Y463486D01*
X146189Y464643D01*
X146241Y464713D01*
X146301Y464776D01*
X146326Y464825D01*
X146359Y464869D01*
X146389Y464950D01*
X146390Y464951D01*
X146425Y464953D01*
X146532Y464990D01*
X146616Y465010D01*
X148452Y465771D01*
X150548Y465771D01*
X152486Y464968D01*
X153968Y463486D01*
X154771Y461548D01*
X154771Y459452D01*
X153968Y457514D01*
X152486Y456032D01*
X150548Y455229D01*
X148452Y455229D01*
G37*
%LPD*%
%LPC*%
G36*
X141168Y465513D02*
X141168Y465513D01*
X139231Y466315D01*
X137748Y467798D01*
X136946Y469735D01*
X136946Y471832D01*
X137748Y473769D01*
X139231Y475252D01*
X141168Y476054D01*
X143265Y476054D01*
X145202Y475252D01*
X146685Y473769D01*
X147487Y471832D01*
X147487Y469735D01*
X146685Y467798D01*
X145527Y466640D01*
X145475Y466571D01*
X145416Y466508D01*
X145391Y466459D01*
X145358Y466415D01*
X145327Y466333D01*
X145327Y466332D01*
X145292Y466331D01*
X145184Y466293D01*
X145100Y466273D01*
X143265Y465513D01*
X141168Y465513D01*
G37*
%LPD*%
%LPC*%
G36*
X191452Y646229D02*
X191452Y646229D01*
X189514Y647032D01*
X188032Y648514D01*
X187229Y650452D01*
X187229Y652548D01*
X188032Y654486D01*
X189514Y655968D01*
X191452Y656771D01*
X193548Y656771D01*
X195486Y655968D01*
X196968Y654486D01*
X197771Y652548D01*
X197771Y650452D01*
X196968Y648514D01*
X195486Y647032D01*
X193548Y646229D01*
X191452Y646229D01*
G37*
%LPD*%
%LPC*%
G36*
X191452Y631729D02*
X191452Y631729D01*
X189514Y632532D01*
X188032Y634014D01*
X187229Y635952D01*
X187229Y638048D01*
X188032Y639986D01*
X189514Y641468D01*
X191452Y642271D01*
X193548Y642271D01*
X195486Y641468D01*
X196968Y639986D01*
X197771Y638048D01*
X197771Y635952D01*
X196968Y634014D01*
X195486Y632532D01*
X193548Y631729D01*
X191452Y631729D01*
G37*
%LPD*%
%LPC*%
G36*
X193952Y464729D02*
X193952Y464729D01*
X192014Y465532D01*
X190532Y467014D01*
X189729Y468952D01*
X189729Y471048D01*
X190532Y472986D01*
X192014Y474468D01*
X193952Y475271D01*
X196048Y475271D01*
X197986Y474468D01*
X199468Y472986D01*
X200271Y471048D01*
X200271Y468952D01*
X199468Y467014D01*
X197986Y465532D01*
X196048Y464729D01*
X193952Y464729D01*
G37*
%LPD*%
%LPC*%
G36*
X84452Y414229D02*
X84452Y414229D01*
X82514Y415032D01*
X81032Y416514D01*
X80229Y418452D01*
X80229Y420548D01*
X81032Y422486D01*
X82514Y423968D01*
X84452Y424771D01*
X86548Y424771D01*
X88486Y423968D01*
X89968Y422486D01*
X90771Y420548D01*
X90771Y418452D01*
X89968Y416514D01*
X88486Y415032D01*
X86548Y414229D01*
X84452Y414229D01*
G37*
%LPD*%
%LPC*%
G36*
X174952Y413229D02*
X174952Y413229D01*
X173014Y414032D01*
X171532Y415514D01*
X170729Y417452D01*
X170729Y419548D01*
X171532Y421486D01*
X173014Y422968D01*
X174952Y423771D01*
X177048Y423771D01*
X178986Y422968D01*
X180468Y421486D01*
X181271Y419548D01*
X181271Y417452D01*
X180468Y415514D01*
X178986Y414032D01*
X177048Y413229D01*
X174952Y413229D01*
G37*
%LPD*%
%LPC*%
G36*
X153452Y485729D02*
X153452Y485729D01*
X151514Y486532D01*
X150032Y488014D01*
X149229Y489952D01*
X149229Y492048D01*
X150032Y493986D01*
X151514Y495468D01*
X153452Y496271D01*
X155548Y496271D01*
X157486Y495468D01*
X158968Y493986D01*
X159771Y492048D01*
X159771Y489952D01*
X158968Y488014D01*
X157486Y486532D01*
X155548Y485729D01*
X153452Y485729D01*
G37*
%LPD*%
%LPC*%
G36*
X196452Y494729D02*
X196452Y494729D01*
X194514Y495532D01*
X193032Y497014D01*
X192229Y498952D01*
X192229Y501048D01*
X193032Y502986D01*
X194514Y504468D01*
X196452Y505271D01*
X198548Y505271D01*
X200486Y504468D01*
X201968Y502986D01*
X202771Y501048D01*
X202771Y498952D01*
X201968Y497014D01*
X200486Y495532D01*
X198548Y494729D01*
X196452Y494729D01*
G37*
%LPD*%
%LPC*%
G36*
X160025Y335303D02*
X160025Y335303D01*
X158088Y336106D01*
X156605Y337588D01*
X155803Y339525D01*
X155803Y341622D01*
X156605Y343560D01*
X158088Y345042D01*
X160025Y345845D01*
X162122Y345845D01*
X164059Y345042D01*
X165542Y343560D01*
X166345Y341622D01*
X166345Y339525D01*
X165542Y337588D01*
X164059Y336106D01*
X162122Y335303D01*
X160025Y335303D01*
G37*
%LPD*%
%LPC*%
G36*
X72952Y499229D02*
X72952Y499229D01*
X71014Y500032D01*
X69532Y501514D01*
X68729Y503452D01*
X68729Y505548D01*
X69532Y507486D01*
X71014Y508968D01*
X72952Y509771D01*
X75048Y509771D01*
X76986Y508968D01*
X78468Y507486D01*
X79271Y505548D01*
X79271Y503452D01*
X78468Y501514D01*
X76986Y500032D01*
X75048Y499229D01*
X72952Y499229D01*
G37*
%LPD*%
%LPC*%
G36*
X178668Y324446D02*
X178668Y324446D01*
X176731Y325248D01*
X175248Y326731D01*
X174446Y328668D01*
X174446Y330765D01*
X175248Y332702D01*
X176731Y334185D01*
X178668Y334987D01*
X180765Y334987D01*
X182702Y334185D01*
X184185Y332702D01*
X184987Y330765D01*
X184987Y328668D01*
X184185Y326731D01*
X182702Y325248D01*
X180765Y324446D01*
X178668Y324446D01*
G37*
%LPD*%
%LPC*%
G36*
X160952Y507729D02*
X160952Y507729D01*
X159014Y508532D01*
X157532Y510014D01*
X156729Y511952D01*
X156729Y514048D01*
X157532Y515986D01*
X159014Y517468D01*
X160952Y518271D01*
X163048Y518271D01*
X164986Y517468D01*
X166468Y515986D01*
X167271Y514048D01*
X167271Y511952D01*
X166468Y510014D01*
X164986Y508532D01*
X163048Y507729D01*
X160952Y507729D01*
G37*
%LPD*%
%LPC*%
G36*
X190952Y507729D02*
X190952Y507729D01*
X189014Y508532D01*
X187532Y510014D01*
X186729Y511952D01*
X186729Y514048D01*
X187532Y515986D01*
X189014Y517468D01*
X190952Y518271D01*
X193048Y518271D01*
X194986Y517468D01*
X196468Y515986D01*
X197271Y514048D01*
X197271Y511952D01*
X196468Y510014D01*
X194986Y508532D01*
X193048Y507729D01*
X190952Y507729D01*
G37*
%LPD*%
%LPC*%
G36*
X79452Y511229D02*
X79452Y511229D01*
X77514Y512032D01*
X76032Y513514D01*
X75229Y515452D01*
X75229Y517548D01*
X76032Y519486D01*
X77514Y520968D01*
X79452Y521771D01*
X81548Y521771D01*
X83486Y520968D01*
X84968Y519486D01*
X85771Y517548D01*
X85771Y515452D01*
X84968Y513514D01*
X83486Y512032D01*
X81548Y511229D01*
X79452Y511229D01*
G37*
%LPD*%
%LPC*%
G36*
X96735Y395946D02*
X96735Y395946D01*
X94798Y396748D01*
X93315Y398231D01*
X92513Y400168D01*
X92513Y402265D01*
X93315Y404202D01*
X94798Y405685D01*
X96735Y406487D01*
X98832Y406487D01*
X100769Y405685D01*
X102252Y404202D01*
X103054Y402265D01*
X103054Y400168D01*
X102252Y398231D01*
X100769Y396748D01*
X98832Y395946D01*
X96735Y395946D01*
G37*
%LPD*%
%LPC*%
G36*
X107952Y598729D02*
X107952Y598729D01*
X106014Y599532D01*
X104532Y601014D01*
X103729Y602952D01*
X103729Y605048D01*
X104532Y606986D01*
X106014Y608468D01*
X107952Y609271D01*
X110048Y609271D01*
X111986Y608468D01*
X113468Y606986D01*
X114271Y605048D01*
X114271Y602952D01*
X113468Y601014D01*
X111986Y599532D01*
X110048Y598729D01*
X107952Y598729D01*
G37*
%LPD*%
%LPC*%
G36*
X191452Y616729D02*
X191452Y616729D01*
X189514Y617532D01*
X188032Y619014D01*
X187229Y620952D01*
X187229Y623048D01*
X188032Y624986D01*
X189514Y626468D01*
X191452Y627271D01*
X193548Y627271D01*
X195486Y626468D01*
X196968Y624986D01*
X197771Y623048D01*
X197771Y620952D01*
X196968Y619014D01*
X195486Y617532D01*
X193548Y616729D01*
X191452Y616729D01*
G37*
%LPD*%
%LPC*%
G36*
X144421Y393198D02*
X144421Y393198D01*
X142483Y394001D01*
X141001Y395483D01*
X140198Y397421D01*
X140198Y399517D01*
X141001Y401455D01*
X142483Y402937D01*
X144421Y403740D01*
X146517Y403740D01*
X148455Y402937D01*
X149937Y401455D01*
X150740Y399517D01*
X150740Y397421D01*
X149937Y395483D01*
X148455Y394001D01*
X146517Y393198D01*
X144421Y393198D01*
G37*
%LPD*%
%LPC*%
G36*
X120952Y570229D02*
X120952Y570229D01*
X119014Y571032D01*
X117532Y572514D01*
X116729Y574452D01*
X116729Y576548D01*
X117532Y578486D01*
X119014Y579968D01*
X120952Y580771D01*
X123048Y580771D01*
X124986Y579968D01*
X126468Y578486D01*
X127271Y576548D01*
X127271Y574452D01*
X126468Y572514D01*
X124986Y571032D01*
X123048Y570229D01*
X120952Y570229D01*
G37*
%LPD*%
%LPC*%
G36*
X109952Y192229D02*
X109952Y192229D01*
X108014Y193032D01*
X106532Y194514D01*
X105729Y196452D01*
X105729Y198548D01*
X106532Y200486D01*
X108014Y201968D01*
X109952Y202771D01*
X112048Y202771D01*
X113986Y201968D01*
X115468Y200486D01*
X116271Y198548D01*
X116271Y196452D01*
X115468Y194514D01*
X113986Y193032D01*
X112048Y192229D01*
X109952Y192229D01*
G37*
%LPD*%
%LPC*%
G36*
X24452Y186729D02*
X24452Y186729D01*
X22514Y187532D01*
X21032Y189014D01*
X20229Y190952D01*
X20229Y193048D01*
X21032Y194986D01*
X22514Y196468D01*
X24452Y197271D01*
X26548Y197271D01*
X28486Y196468D01*
X29968Y194986D01*
X30771Y193048D01*
X30771Y190952D01*
X29968Y189014D01*
X28486Y187532D01*
X26548Y186729D01*
X24452Y186729D01*
G37*
%LPD*%
%LPC*%
G36*
X24452Y171729D02*
X24452Y171729D01*
X22514Y172532D01*
X21032Y174014D01*
X20229Y175952D01*
X20229Y178048D01*
X21032Y179986D01*
X22514Y181468D01*
X24452Y182271D01*
X26548Y182271D01*
X28486Y181468D01*
X29968Y179986D01*
X30771Y178048D01*
X30771Y175952D01*
X29968Y174014D01*
X28486Y172532D01*
X26548Y171729D01*
X24452Y171729D01*
G37*
%LPD*%
%LPC*%
G36*
X135952Y570229D02*
X135952Y570229D01*
X134014Y571032D01*
X132532Y572514D01*
X131729Y574452D01*
X131729Y576548D01*
X132532Y578486D01*
X134014Y579968D01*
X135952Y580771D01*
X138048Y580771D01*
X139986Y579968D01*
X141468Y578486D01*
X142271Y576548D01*
X142271Y574452D01*
X141468Y572514D01*
X139986Y571032D01*
X138048Y570229D01*
X135952Y570229D01*
G37*
%LPD*%
%LPC*%
G36*
X34452Y667729D02*
X34452Y667729D01*
X32514Y668532D01*
X31032Y670014D01*
X30229Y671952D01*
X30229Y674048D01*
X31032Y675986D01*
X32514Y677468D01*
X34452Y678271D01*
X36548Y678271D01*
X38486Y677468D01*
X39968Y675986D01*
X40771Y674048D01*
X40771Y671952D01*
X39968Y670014D01*
X38486Y668532D01*
X36548Y667729D01*
X34452Y667729D01*
G37*
%LPD*%
%LPC*%
G36*
X120952Y133869D02*
X120952Y133869D01*
X119014Y134672D01*
X117532Y136154D01*
X116729Y138092D01*
X116729Y140188D01*
X117532Y142126D01*
X119014Y143608D01*
X120952Y144411D01*
X123048Y144411D01*
X124986Y143608D01*
X126468Y142126D01*
X127271Y140188D01*
X127271Y138092D01*
X126468Y136154D01*
X124986Y134672D01*
X123048Y133869D01*
X120952Y133869D01*
G37*
%LPD*%
%LPC*%
G36*
X15992Y122229D02*
X15992Y122229D01*
X14054Y123032D01*
X12572Y124514D01*
X11769Y126452D01*
X11769Y128548D01*
X12572Y130486D01*
X14054Y131968D01*
X15992Y132771D01*
X18088Y132771D01*
X20026Y131968D01*
X21508Y130486D01*
X22311Y128548D01*
X22311Y126452D01*
X21508Y124514D01*
X20026Y123032D01*
X18088Y122229D01*
X15992Y122229D01*
G37*
%LPD*%
%LPC*%
G36*
X206952Y117229D02*
X206952Y117229D01*
X205014Y118032D01*
X203532Y119514D01*
X202729Y121452D01*
X202729Y123548D01*
X203532Y125486D01*
X205014Y126968D01*
X206952Y127771D01*
X209048Y127771D01*
X210986Y126968D01*
X212468Y125486D01*
X213271Y123548D01*
X213271Y121452D01*
X212468Y119514D01*
X210986Y118032D01*
X209048Y117229D01*
X206952Y117229D01*
G37*
%LPD*%
%LPC*%
G36*
X191452Y661229D02*
X191452Y661229D01*
X189514Y662032D01*
X188032Y663514D01*
X187229Y665452D01*
X187229Y667548D01*
X188032Y669486D01*
X189514Y670968D01*
X191452Y671771D01*
X193548Y671771D01*
X195486Y670968D01*
X196968Y669486D01*
X197771Y667548D01*
X197771Y665452D01*
X196968Y663514D01*
X195486Y662032D01*
X193548Y661229D01*
X191452Y661229D01*
G37*
%LPD*%
%LPC*%
G36*
X35452Y584729D02*
X35452Y584729D01*
X33514Y585532D01*
X32032Y587014D01*
X31229Y588952D01*
X31229Y591048D01*
X32032Y592986D01*
X33514Y594468D01*
X35452Y595271D01*
X37548Y595271D01*
X39486Y594468D01*
X40968Y592986D01*
X41771Y591048D01*
X41771Y588952D01*
X40968Y587014D01*
X39486Y585532D01*
X37548Y584729D01*
X35452Y584729D01*
G37*
%LPD*%
%LPC*%
G36*
X55952Y590229D02*
X55952Y590229D01*
X54014Y591032D01*
X52532Y592514D01*
X51729Y594452D01*
X51729Y596548D01*
X52532Y598486D01*
X54014Y599968D01*
X55952Y600771D01*
X58048Y600771D01*
X59986Y599968D01*
X61468Y598486D01*
X62271Y596548D01*
X62271Y594452D01*
X61468Y592514D01*
X59986Y591032D01*
X58048Y590229D01*
X55952Y590229D01*
G37*
%LPD*%
%LPC*%
G36*
X191452Y601729D02*
X191452Y601729D01*
X189514Y602532D01*
X188032Y604014D01*
X187229Y605952D01*
X187229Y608048D01*
X188032Y609986D01*
X189514Y611468D01*
X191452Y612271D01*
X193548Y612271D01*
X195486Y611468D01*
X196968Y609986D01*
X197771Y608048D01*
X197771Y605952D01*
X196968Y604014D01*
X195486Y602532D01*
X193548Y601729D01*
X191452Y601729D01*
G37*
%LPD*%
%LPC*%
G36*
X11952Y611229D02*
X11952Y611229D01*
X10014Y612032D01*
X8532Y613514D01*
X7729Y615452D01*
X7729Y617548D01*
X8532Y619486D01*
X10014Y620968D01*
X11952Y621771D01*
X14048Y621771D01*
X15986Y620968D01*
X17468Y619486D01*
X18271Y617548D01*
X18271Y615452D01*
X17468Y613514D01*
X15986Y612032D01*
X14048Y611229D01*
X11952Y611229D01*
G37*
%LPD*%
%LPC*%
G36*
X205929Y217899D02*
X205929Y217899D01*
X205989Y218279D01*
X206484Y219800D01*
X207210Y221225D01*
X208150Y222519D01*
X209281Y223650D01*
X210575Y224590D01*
X212000Y225316D01*
X213521Y225811D01*
X213901Y225871D01*
X213901Y217899D01*
X205929Y217899D01*
G37*
%LPD*%
%LPC*%
G36*
X213521Y205989D02*
X213521Y205989D01*
X212000Y206484D01*
X210575Y207210D01*
X209281Y208150D01*
X208150Y209281D01*
X207210Y210575D01*
X206484Y212000D01*
X205989Y213521D01*
X205929Y213901D01*
X213901Y213901D01*
X213901Y205929D01*
X213521Y205989D01*
G37*
%LPD*%
D10*
X195854Y50619D02*
X195852Y50709D01*
X195846Y50799D01*
X195837Y50888D01*
X195824Y50977D01*
X195806Y51065D01*
X195786Y51153D01*
X195761Y51239D01*
X195733Y51325D01*
X195701Y51409D01*
X195666Y51492D01*
X195627Y51573D01*
X195585Y51652D01*
X195539Y51730D01*
X195491Y51806D01*
X195439Y51879D01*
X195384Y51950D01*
X195326Y52019D01*
X195265Y52085D01*
X195201Y52149D01*
X195135Y52210D01*
X195066Y52268D01*
X194995Y52323D01*
X194922Y52375D01*
X194846Y52423D01*
X194768Y52469D01*
X194689Y52511D01*
X194608Y52550D01*
X194525Y52585D01*
X194441Y52617D01*
X194355Y52645D01*
X194269Y52670D01*
X194181Y52690D01*
X194093Y52708D01*
X194004Y52721D01*
X193915Y52730D01*
X193825Y52736D01*
X193735Y52738D01*
X193631Y52736D01*
X193528Y52730D01*
X193424Y52720D01*
X193322Y52706D01*
X193219Y52689D01*
X193118Y52667D01*
X193017Y52642D01*
X192918Y52612D01*
X192820Y52579D01*
X192723Y52543D01*
X192627Y52502D01*
X192533Y52458D01*
X192441Y52411D01*
X192351Y52360D01*
X192262Y52305D01*
X192176Y52247D01*
X192092Y52186D01*
X192011Y52122D01*
X191932Y52055D01*
X191855Y51985D01*
X191782Y51912D01*
X191711Y51836D01*
X191643Y51758D01*
X191578Y51677D01*
X191517Y51593D01*
X191458Y51508D01*
X191403Y51420D01*
X191351Y51330D01*
X191303Y51238D01*
X191258Y51145D01*
X191217Y51049D01*
X191179Y50953D01*
X191145Y50855D01*
X195148Y48971D02*
X195213Y49036D01*
X195276Y49103D01*
X195336Y49173D01*
X195393Y49246D01*
X195447Y49320D01*
X195498Y49397D01*
X195546Y49476D01*
X195591Y49556D01*
X195632Y49639D01*
X195670Y49722D01*
X195705Y49808D01*
X195736Y49895D01*
X195763Y49983D01*
X195787Y50072D01*
X195808Y50161D01*
X195824Y50252D01*
X195837Y50343D01*
X195847Y50435D01*
X195852Y50527D01*
X195854Y50619D01*
X195148Y48971D02*
X191146Y44262D01*
X195854Y44262D01*
D11*
X215900Y520700D03*
X215900Y495300D03*
X215900Y469900D03*
X215900Y444500D03*
X215900Y419100D03*
X215900Y393700D03*
X215900Y368300D03*
X215900Y342900D03*
X215900Y317500D03*
X215900Y292100D03*
X215900Y266700D03*
X215900Y241300D03*
X215900Y215900D03*
X215900Y190500D03*
X215900Y165100D03*
X215900Y139700D03*
X12700Y241300D03*
X12700Y266700D03*
X12700Y292100D03*
X12700Y317500D03*
X12700Y342900D03*
X12700Y368300D03*
X12700Y393700D03*
X12700Y419100D03*
X12700Y444500D03*
X12700Y469900D03*
X12700Y495300D03*
X12700Y520700D03*
D12*
X60500Y197000D03*
X68500Y197000D03*
X76500Y197000D03*
X84500Y197000D03*
X94500Y42500D03*
X94500Y48500D03*
X134500Y48500D03*
X134500Y42500D03*
X59500Y146000D03*
X114300Y102500D03*
X149000Y154000D03*
X161000Y154000D03*
X152000Y149000D03*
X158000Y149000D03*
X35000Y646000D03*
X120000Y346500D03*
X120500Y490500D03*
X200000Y432500D03*
X199500Y360000D03*
X32000Y89520D03*
X51570Y443500D03*
X101000Y421000D03*
X128000Y421000D03*
X128000Y387000D03*
X101000Y387000D03*
X155000Y154000D03*
X164000Y403500D03*
X186500Y316500D03*
X141000Y509000D03*
X192000Y527500D03*
D13*
X202500Y405000D03*
X162000Y513000D03*
X111000Y197500D03*
X163500Y458000D03*
X170500Y458000D03*
X39000Y84000D03*
X45500Y227000D03*
X43336Y308164D03*
X39000Y74000D03*
X40500Y230000D03*
X38967Y312534D03*
X208500Y456000D03*
X192000Y513000D03*
X78000Y405000D03*
X83810Y405500D03*
X26500Y446500D03*
X19515Y457690D03*
X26825Y456608D03*
X24500Y462000D03*
X110500Y433000D03*
X154500Y491000D03*
X84000Y339000D03*
X78203Y341420D03*
X72000Y341420D03*
X66003Y339997D03*
X59000Y340000D03*
X201500Y375000D03*
X180534Y434534D03*
D12*
X110500Y289500D03*
X114332Y78368D03*
X109500Y312500D03*
X68000Y118000D03*
X28000Y127000D03*
X10000Y127670D03*
X32000Y157000D03*
X25500Y184500D03*
X51500Y211000D03*
X51500Y205000D03*
X107000Y148500D03*
X100000Y148500D03*
X93000Y148500D03*
X86000Y148500D03*
X176500Y140000D03*
X100332Y83368D03*
X61500Y65000D03*
X140832Y78368D03*
X178832Y61868D03*
X51500Y158500D03*
X100500Y185500D03*
X100500Y191500D03*
X70000Y405000D03*
X26000Y436000D03*
X179000Y445500D03*
X114000Y497000D03*
X185777Y325321D03*
X201000Y352500D03*
X119500Y369000D03*
X136500Y385000D03*
X139500Y404480D03*
X97500Y430000D03*
X15500Y672000D03*
X42000Y667000D03*
X42000Y651500D03*
X42000Y637000D03*
X42000Y622000D03*
X76500Y567000D03*
X131000Y430500D03*
X152000Y604000D03*
X153000Y673000D03*
X122000Y521500D03*
X86500Y391500D03*
X48000Y504000D03*
D13*
X25500Y192000D03*
X25500Y177000D03*
X106300Y48000D03*
X117300Y48000D03*
D12*
X71100Y52826D03*
X157500Y52826D03*
X157500Y11026D03*
X71100Y11026D03*
D13*
X148000Y39500D03*
X166500Y39500D03*
X80000Y39500D03*
X62500Y39500D03*
X151000Y554500D03*
X74000Y504500D03*
X151000Y567000D03*
X151000Y542000D03*
X74500Y490500D03*
X80500Y516500D03*
X97784Y401217D03*
X172500Y496000D03*
X195000Y470000D03*
X169000Y490500D03*
X197500Y500000D03*
X192500Y607000D03*
X122000Y575500D03*
X137000Y575500D03*
D12*
X26000Y427000D03*
D13*
X57000Y595500D03*
X97000Y504500D03*
X192500Y637000D03*
X103000Y511000D03*
X192500Y666500D03*
X180000Y463000D03*
X192500Y622000D03*
X179536Y452697D03*
D12*
X51700Y397500D03*
X53080Y414080D03*
D13*
X91500Y314000D03*
X103500Y302500D03*
X89000Y300000D03*
X82000Y300000D03*
X89000Y293000D03*
X57000Y268000D03*
X40000Y285000D03*
X74000Y252000D03*
X102000Y279000D03*
X66000Y311500D03*
X117500Y302500D03*
X129000Y313500D03*
X164500Y265500D03*
X180000Y282000D03*
X147000Y249000D03*
X118500Y279000D03*
X151500Y311000D03*
D12*
X108000Y346500D03*
X108000Y490500D03*
X48000Y333000D03*
X57500Y540500D03*
X85000Y235500D03*
D13*
X174000Y367000D03*
X168500Y364500D03*
X161074Y340574D03*
X199500Y400000D03*
X180500Y377000D03*
X180500Y385000D03*
X66500Y75000D03*
X202790Y390000D03*
X186500Y309000D03*
X208000Y122500D03*
X199000Y410000D03*
X192500Y651500D03*
X17040Y127500D03*
X145469Y398469D03*
X179717Y329717D03*
X166000Y389500D03*
D12*
X61004Y444025D03*
X114500Y423500D03*
X133000Y201500D03*
D13*
X30500Y227000D03*
X63500Y345710D03*
X25000Y305000D03*
X85500Y419500D03*
X29000Y467000D03*
X13000Y590000D03*
X86500Y495500D03*
X36500Y590000D03*
X81500Y490500D03*
X22000Y591000D03*
X35500Y673000D03*
X13000Y616500D03*
X93500Y490000D03*
X139000Y362500D03*
X149210Y318828D03*
X147000Y370500D03*
X142217Y470784D03*
X149500Y460500D03*
X92000Y499000D03*
X55500Y373000D03*
X59500Y368500D03*
X63500Y364000D03*
X67500Y359500D03*
X72000Y354500D03*
X173000Y450000D03*
X172000Y443500D03*
X51270Y377000D03*
X51500Y150500D03*
X67500Y350000D03*
X30500Y317000D03*
D12*
X76458Y69730D03*
D13*
X122000Y139140D03*
X129070Y339000D03*
X176000Y418500D03*
X134108Y505608D03*
X109000Y604000D03*
D12*
X26500Y390000D03*
X85000Y319230D03*
D13*
X177790Y390543D03*
X130278Y353722D03*
X134500Y358000D03*
X51270Y433000D03*
X121500Y510000D03*
X127000Y505500D03*
X134000Y498000D03*
X176165Y438882D03*
X167500Y447500D03*
M02*
