M48
;GenerationSoftware,Autodesk,EAGLE,9.6.2*%
;CreationDate,2023-12-15T16:51:10Z*%
FMAT,2
ICI,OFF
METRIC,TZ,000.000
T5C0.200
T4C0.300
T3C0.650
T2C1.016
T1C3.048
%
G90
M71
T1
X25908Y55880
X20320Y55880
X2540Y55880
X43688Y2540
X25908Y2540
X67056Y55880
X49276Y55880
X67056Y2540
X49276Y2540
X2540Y2540
X20320Y2540
X43688Y55880
T2
X1270Y24130
X21590Y13970
X21590Y16510
X21590Y52070
X1270Y34290
X1270Y31750
X1270Y26670
X1270Y29210
X21590Y19050
X21590Y21590
X21590Y24130
X48006Y49530
X48006Y46990
X48006Y44450
X48006Y41910
X48006Y39370
X48006Y36830
X48006Y34290
X48006Y31750
X48006Y29210
X48006Y26670
X48006Y24130
X68326Y13970
X68326Y16510
X68326Y19050
X68326Y21590
X68326Y24130
X68326Y26670
X68326Y29210
X68326Y31750
X68326Y34290
X68326Y36830
X68326Y39370
X68326Y41910
X68326Y44450
X68326Y46990
X68326Y49530
X68326Y52070
X24638Y52070
X21590Y26670
X24638Y49530
X24638Y46990
X24638Y44450
X24638Y41910
X24638Y39370
X24638Y36830
X24638Y34290
X24638Y31750
X24638Y29210
X24638Y26670
X24638Y24130
X44958Y13970
X44958Y16510
X44958Y19050
X48006Y52070
X21590Y29210
X21590Y31750
X21590Y34290
X21590Y36830
X21590Y39370
X21590Y41910
X21590Y44450
X21590Y46990
X44958Y21590
X44958Y24130
X44958Y26670
X21590Y49530
X44958Y29210
X44958Y31750
X44958Y34290
X44958Y36830
X44958Y39370
X44958Y41910
X44958Y44450
X44958Y46990
X44958Y49530
X44958Y52070
X1270Y52070
X1270Y49530
X1270Y46990
X1270Y44450
X1270Y41910
X1270Y39370
X1270Y36830
T3
X61056Y4753
X55276Y4753
X14320Y4753
X37688Y4753
X31908Y4753
X8540Y4753
T4
X6050Y19700
X6850Y19700
X7650Y19700
X8450Y19700
X9450Y4250
X9450Y4850
X13450Y4850
X13450Y4250
X5950Y14600
X11430Y10250
X14900Y15400
X16100Y15400
X15200Y14900
X15800Y14900
X3500Y64600
X12000Y34650
X12050Y49050
X20000Y43300
X20000Y36050
X3200Y8952
X5157Y44350
X10100Y42100
X12800Y42100
X12800Y38700
X10100Y38700
X15500Y15400
X16400Y40350
X18750Y32200
X14100Y50900
X19600Y52800
X11000Y27100
X16450Y25050
X8800Y25050
X14500Y19850
X13700Y31900
X10900Y51600
X5750Y54950
X7400Y65200
X6600Y66700
X7350Y62200
X15300Y65100
X11400Y63200
X13800Y60850
X17100Y59000
X21250Y58900
X21500Y65150
X6450Y57750
X13000Y2000
X14800Y2800
X16650Y2800
X5600Y1250
X3800Y5350
X1200Y4850
X17800Y1200
X6250Y8750
X20800Y9400
X22300Y33050
X22300Y30500
X22300Y35550
X22300Y38100
X22300Y40650
X20000Y42700
X22300Y48250
X22300Y50800
X20150Y51450
X22300Y53350
X2900Y49300
X600Y25400
X600Y27950
X10050Y20600
X63836Y59000
X67986Y58900
X68236Y65150
X53186Y57750
X59736Y2000
X61536Y2800
X63386Y2800
X52336Y1250
X50536Y5350
X47936Y4850
X64536Y1200
X52986Y8750
X67536Y9400
X69036Y33050
X69036Y30500
X69036Y35550
X69036Y38100
X69036Y40650
X66736Y42700
X69036Y48250
X69036Y50800
X66886Y51450
X69036Y53350
X49636Y49300
X47336Y25400
X47336Y27950
X56786Y20600
X57786Y28950
X11050Y28950
X11433Y7837
X10950Y31250
X6800Y11800
X2800Y12700
X1000Y12767
X3200Y15700
X2550Y18450
X5150Y21100
X5150Y20500
X10700Y14850
X10000Y14850
X9300Y14850
X8600Y14850
X17650Y14000
X10033Y8337
X6200Y6200
X14083Y7837
X17883Y6187
X5150Y15850
X10050Y18550
X10050Y19150
X7000Y40500
X2600Y43600
X17900Y44550
X11400Y49700
X18228Y32832
X20000Y35250
X11950Y36900
X13650Y38500
X13950Y40448
X9750Y43000
X1550Y67200
X4150Y66650
X4200Y65150
X4200Y63700
X4200Y62200
X7350Y56700
X13100Y43050
X15200Y60400
X15300Y67300
X12000Y52150
X8650Y39150
X4800Y50400
X3900Y6500
X22200Y12650
X15500Y46650
X4750Y53550
X12750Y67300
X58169Y7837
X57686Y31250
X53536Y11800
X49536Y12700
X7110Y5283
X15750Y5283
X15750Y1103
X7110Y1103
X47736Y12767
X49936Y15700
X49286Y18450
X51886Y21100
X51886Y20500
X57436Y14850
X56736Y14850
X56036Y14850
X55336Y14850
X64386Y14000
X56769Y8337
X52936Y6200
X60819Y7837
X64619Y6187
X51886Y15850
X56786Y18550
X56786Y19150
X53736Y40500
X2600Y42700
X49336Y43600
X64636Y44550
X58136Y49700
X64964Y32832
X66736Y35250
X58686Y36900
X60386Y38500
X60686Y40448
X5170Y39750
X5308Y41408
X56486Y43000
X48286Y67200
X50886Y66650
X50936Y65150
X50936Y63700
X50936Y62200
X54086Y56700
X59836Y43050
X61936Y60400
X62036Y67300
X58736Y52150
X55386Y39150
X51536Y50400
X50636Y6500
X68936Y12650
X62236Y46650
X59486Y67300
X10800Y34650
X10800Y49050
X4800Y33300
X5750Y54050
X8900Y23350
X53846Y5283
X62486Y5283
X62486Y1103
X53846Y1103
X49336Y42700
X51906Y39750
X52044Y41408
X57536Y34650
X57536Y49050
X51536Y33300
X52486Y54050
X55636Y23350
X52836Y44403
X58186Y42350
X60036Y20150
X54382Y6973
X6100Y44403
X11450Y42350
X13300Y20150
X49386Y39000
X55236Y31923
X7646Y6973
X2650Y39000
X8500Y31923
X29418Y19700
X30218Y19700
X31018Y19700
X31818Y19700
X32818Y4250
X32818Y4850
X36818Y4850
X36818Y4250
X29318Y14600
X34798Y10250
X38268Y15400
X39468Y15400
X38568Y14900
X39168Y14900
X26868Y64600
X35368Y34650
X35418Y49050
X43368Y43300
X43368Y36050
X26568Y8952
X28525Y44350
X33468Y42100
X36168Y42100
X36168Y38700
X33468Y38700
X38868Y15400
X39768Y40350
X42118Y32200
X37468Y50900
X42968Y52800
X34368Y27100
X39818Y25050
X32168Y25050
X37868Y19850
X37068Y31900
X34268Y51600
X29118Y54950
X30768Y65200
X29968Y66700
X30718Y62200
X38668Y65100
X34768Y63200
X37168Y60850
X40468Y59000
X44618Y58900
X44868Y65150
X29818Y57750
X36368Y2000
X38168Y2800
X40018Y2800
X28968Y1250
X27168Y5350
X24568Y4850
X41168Y1200
X29618Y8750
X44168Y9400
X45668Y33050
X45668Y30500
X45668Y35550
X45668Y38100
X45668Y40650
X43368Y42700
X45668Y48250
X45668Y50800
X43518Y51450
X45668Y53350
X26268Y49300
X23968Y25400
X23968Y27950
X33418Y20600
X66336Y52800
X34418Y28950
X34801Y7837
X34318Y31250
X30168Y11800
X26168Y12700
X24368Y12767
X26568Y15700
X25918Y18450
X28518Y21100
X28518Y20500
X34068Y14850
X33368Y14850
X32668Y14850
X31968Y14850
X41018Y14000
X33401Y8337
X29568Y6200
X37451Y7837
X41251Y6187
X28518Y15850
X33418Y18550
X33418Y19150
X30368Y40500
X25968Y43600
X41268Y44550
X34768Y49700
X41596Y32832
X43368Y35250
X35318Y36900
X37018Y38500
X37318Y40448
X33118Y43000
X24918Y67200
X27518Y66650
X27568Y65150
X27568Y63700
X27568Y62200
X30718Y56700
X36468Y43050
X38568Y60400
X38668Y67300
X35368Y52150
X32018Y39150
X28168Y50400
X27268Y6500
X45568Y12650
X38868Y46650
X28118Y53550
X36118Y67300
X30478Y5283
X39118Y5283
X39118Y1103
X30478Y1103
X25968Y42700
X28538Y39750
X28676Y41408
X51486Y53550
X34168Y34650
X34168Y49050
X28168Y33300
X29118Y54050
X32268Y23350
X29468Y44403
X34818Y42350
X36668Y20150
X31014Y6973
X26018Y39000
X31868Y31923
X52786Y19700
X53586Y19700
X54386Y19700
X55186Y19700
X56186Y4250
X56186Y4850
X60186Y4850
X60186Y4250
X52686Y14600
X58166Y10250
X61636Y15400
X62836Y15400
X61936Y14900
X62536Y14900
X50236Y64600
X58736Y34650
X58786Y49050
X66736Y43300
X66736Y36050
X49936Y8952
X51893Y44350
X56836Y42100
X59536Y42100
X59536Y38700
X56836Y38700
X62236Y15400
X63136Y40350
X65486Y32200
X60836Y50900
X57736Y27100
X63186Y25050
X55536Y25050
X61236Y19850
X60436Y31900
X57636Y51600
X52486Y54950
X54136Y65200
X53336Y66700
X54086Y62200
X62036Y65100
X58136Y63200
X60536Y60850
T5
X20200Y40500
X16200Y51300
X11100Y19750
X16350Y45800
X17050Y45800
X3900Y8400
X4550Y22700
X4334Y30816
X3900Y7400
X4050Y23000
X3897Y31253
X20850Y45600
X19200Y51300
X7800Y40500
X8381Y40550
X2650Y44650
X1951Y45769
X2682Y45661
X2450Y46200
X11050Y43300
X15450Y49100
X8400Y33900
X7820Y34142
X7200Y34142
X6600Y34000
X5900Y34000
X19950Y37750
X18053Y43453
X2550Y19200
X2550Y17700
X10630Y4800
X11730Y4800
X14800Y3550
X16650Y3550
X8000Y3950
X6250Y3950
X15100Y55500
X7400Y50450
X15100Y56850
X15100Y54200
X7450Y49050
X8050Y51650
X9778Y40122
X17250Y49600
X19600Y47000
X16900Y49050
X19750Y50000
X19250Y60700
X12200Y57550
X13700Y57550
X5700Y59550
X9700Y50450
X19250Y63700
X10300Y51100
X19250Y66650
X18000Y46300
X19250Y62200
X17954Y45270
X9150Y31400
X10350Y30250
X8900Y30000
X8200Y30000
X8900Y29300
X5700Y26800
X4000Y28500
X7400Y25200
X10200Y27900
X6600Y31150
X11750Y30250
X12900Y31350
X16450Y26550
X18000Y28200
X14700Y24900
X11850Y27900
X15150Y31100
X17350Y37300
X16850Y37000
X16007Y33857
X19850Y40000
X18100Y37750
X18050Y38500
X6650Y7500
X20279Y38900
X18850Y31500
X20500Y12500
X19850Y41000
X19250Y65150
X1704Y12750
X14547Y39847
X17222Y33822
X16600Y38950
X3050Y22700
X6350Y34571
X34268Y60400
X41368Y28200
X38068Y24900
X41147Y39054
X36246Y35222
X36668Y35650
X28495Y43300
X35518Y51000
X66936Y40500
X62936Y51300
X57836Y19750
X63086Y45800
X63786Y45800
X50636Y8400
X51286Y22700
X51070Y30816
X50636Y7400
X50786Y23000
X50633Y31253
X67586Y45600
X65936Y51300
X54536Y40500
X55117Y40550
X49386Y44650
X48687Y45769
X49418Y45661
X49186Y46200
X57786Y43300
X62186Y49100
X55136Y33900
X54556Y34142
X53936Y34142
X53336Y34000
X52636Y34000
X66686Y37750
X64789Y43453
X36068Y50550
X36768Y49800
X40985Y43888
X40118Y44750
X35218Y27900
X38518Y31100
X32268Y29300
X29068Y26800
X27368Y28500
X30768Y25200
X33568Y27900
X40718Y37300
X40218Y37000
X39375Y33857
X43218Y40000
X41468Y37750
X41418Y38500
X30018Y7500
X43647Y38900
X42218Y31500
X43868Y12500
X43218Y41000
X42618Y65150
X25072Y12750
X37915Y39847
X40590Y33822
X39968Y38950
X29968Y31150
X35118Y30250
X36268Y31350
X26418Y22700
X29718Y34571
X25868Y30500
X31568Y30000
X31918Y41950
X26268Y46700
X24668Y59000
X32018Y49550
X27018Y59000
X31518Y49050
X25568Y59100
X26918Y67300
X24668Y61650
X32718Y49000
X37118Y36100
X37720Y36714
X38268Y37250
X32268Y30000
X37590Y47078
X49286Y19200
X49286Y17700
X57366Y4800
X58466Y4800
X38318Y46050
X32568Y49900
X28918Y37300
X29318Y36850
X61536Y3550
X63386Y3550
X54736Y3950
X52986Y3950
X61836Y55500
X54136Y50450
X61836Y56850
X61836Y54200
X54186Y49050
X54786Y51650
X56514Y40122
X63986Y49600
X66336Y47000
X63636Y49050
X66486Y50000
X65986Y60700
X58936Y57550
X60436Y57550
X29718Y36400
X52436Y59550
X56436Y50450
X65986Y63700
X57036Y51100
X65986Y66650
X64736Y46300
X65986Y62200
X64690Y45270
X30118Y35950
X30568Y35450
X55886Y31400
X57086Y30250
X55636Y30000
X54936Y30000
X55636Y29300
X52436Y26800
X50736Y28500
X54136Y25200
X56936Y27900
X53336Y31150
X58486Y30250
X59636Y31350
X63186Y26550
X64736Y28200
X61436Y24900
X58586Y27900
X61886Y31100
X40668Y45000
X40568Y44350
X28495Y37700
X28518Y15050
X30118Y35000
X64086Y37300
X63586Y37000
X62743Y33857
X66586Y40000
X64836Y37750
X64786Y38500
X53386Y7500
X67015Y38900
X65586Y31500
X67236Y12500
X66586Y41000
X65986Y65150
X48440Y12750
X61283Y39847
X63958Y33822
X63336Y38950
X26418Y31700
X39818Y26550
X35568Y13914
X49786Y22700
X53086Y34571
X49236Y30500
X55286Y41950
X49636Y46700
X48036Y59000
X55386Y49550
X50386Y59000
X54886Y49050
X48936Y59100
X50286Y67300
X48036Y61650
X56086Y49000
X60486Y36100
X61088Y36714
X61636Y37250
X60958Y47078
X61686Y46050
X55936Y49900
X52286Y37300
X52686Y36850
X53086Y36400
X53486Y35950
X53936Y35450
X64036Y45000
X63936Y44350
X51863Y37700
X51886Y15050
X53486Y35000
X49786Y31700
X36275Y33900
X58936Y13914
X59643Y33900
X64336Y41850
X39718Y45800
X57636Y60400
X40968Y41850
X36779Y50561
X64515Y39054
X59614Y35222
X60036Y35650
X51863Y43300
X58886Y51000
X59436Y50550
X60136Y49800
X64353Y43888
X63486Y44750
X33718Y30250
X32518Y31400
X41322Y45270
X42618Y62200
X41368Y46300
X42618Y66650
X33668Y51100
X42618Y63700
X33068Y50450
X29068Y59550
X37068Y57550
X35568Y57550
X42618Y60700
X43118Y50000
X40268Y49050
X42968Y47000
X40618Y49600
X33146Y40122
X31418Y51650
X30818Y49050
X38468Y54200
X38468Y56850
X30768Y50450
X38468Y55500
X29618Y3950
X31368Y3950
X40018Y3550
X38168Y3550
X35098Y4800
X33998Y4800
X25918Y17700
X25918Y19200
X41421Y43453
X43318Y37750
X29268Y34000
X29968Y34000
X30568Y34142
X31188Y34142
X31768Y33900
X38818Y49100
X34418Y43300
X25818Y46200
X26050Y45661
X25319Y45769
X26018Y44650
X31749Y40550
X31168Y40500
X42568Y51300
X44218Y45600
X27265Y31253
X27418Y23000
X27268Y7400
X27702Y30816
X27918Y22700
X27268Y8400
X40418Y45800
X34468Y19750
X39568Y51300
X43568Y40500
X16750Y44750
X17617Y43888
X13400Y49800
X12700Y50550
X12150Y51000
X5127Y43300
X13300Y35650
X12878Y35222
X17779Y39054
X10900Y60400
X13411Y50561
X17600Y41850
X12907Y33900
X12200Y13914
X3050Y31700
X6750Y35000
X5150Y15050
X5127Y37700
X17200Y44350
X17300Y45000
X7200Y35450
X6750Y35950
X6350Y36400
X5950Y36850
X5550Y37300
X9200Y49900
X14950Y46050
X14222Y47078
X14900Y37250
X14352Y36714
X13750Y36100
X9350Y49000
X1300Y61650
X3550Y67300
X2200Y59100
X8150Y49050
X3650Y59000
X8650Y49550
X1300Y59000
X2900Y46700
X8550Y41950
X2500Y30500
X60147Y50561
M30