G04 EAGLE Gerber RS-274X export*
G75*
%MOMM*%
%FSLAX34Y34*%
%LPD*%
%INInner Layer 14*%
%IPPOS*%
%AMOC8*
5,1,8,0,0,1.08239X$1,22.5*%
G01*
%ADD10C,0.152400*%
%ADD11C,1.524000*%
%ADD12C,0.554000*%
%ADD13C,0.600000*%
%ADD14C,0.454000*%
%ADD15C,0.150000*%
%ADD16C,0.200000*%

G36*
X626362Y145997D02*
X626362Y145997D01*
X626364Y145996D01*
X631364Y150996D01*
X631364Y150999D01*
X631365Y151000D01*
X631365Y159498D01*
X633864Y161996D01*
X633864Y161998D01*
X633864Y161999D01*
X633865Y162000D01*
X633865Y168000D01*
X633861Y168005D01*
X633860Y168005D01*
X625860Y168005D01*
X625858Y168003D01*
X625856Y168004D01*
X613356Y155504D01*
X613356Y155502D01*
X613355Y155501D01*
X613356Y155501D01*
X613355Y155500D01*
X613355Y150500D01*
X613357Y150498D01*
X613356Y150496D01*
X617856Y145996D01*
X617859Y145996D01*
X617860Y145995D01*
X626360Y145995D01*
X626362Y145997D01*
G37*
G36*
X392682Y145997D02*
X392682Y145997D01*
X392684Y145996D01*
X397684Y150996D01*
X397684Y150999D01*
X397685Y151000D01*
X397685Y159498D01*
X400184Y161996D01*
X400184Y161998D01*
X400184Y161999D01*
X400185Y162000D01*
X400185Y168000D01*
X400181Y168005D01*
X400180Y168005D01*
X392180Y168005D01*
X392178Y168003D01*
X392176Y168004D01*
X379676Y155504D01*
X379676Y155502D01*
X379675Y155501D01*
X379676Y155501D01*
X379675Y155500D01*
X379675Y150500D01*
X379677Y150498D01*
X379676Y150496D01*
X384176Y145996D01*
X384179Y145996D01*
X384180Y145995D01*
X392680Y145995D01*
X392682Y145997D01*
G37*
G36*
X159002Y145997D02*
X159002Y145997D01*
X159004Y145996D01*
X164004Y150996D01*
X164004Y150999D01*
X164005Y151000D01*
X164005Y159498D01*
X166504Y161996D01*
X166504Y161998D01*
X166504Y161999D01*
X166505Y162000D01*
X166505Y168000D01*
X166501Y168005D01*
X166500Y168005D01*
X158500Y168005D01*
X158498Y168003D01*
X158496Y168004D01*
X145996Y155504D01*
X145996Y155502D01*
X145995Y155501D01*
X145996Y155501D01*
X145995Y155500D01*
X145995Y150500D01*
X145997Y150498D01*
X145996Y150496D01*
X150496Y145996D01*
X150499Y145996D01*
X150500Y145995D01*
X159000Y145995D01*
X159002Y145997D01*
G37*
D10*
X207529Y54238D02*
X205646Y47646D01*
X210354Y47646D01*
X208942Y49529D02*
X208942Y45762D01*
X439326Y47646D02*
X441209Y54238D01*
X439326Y47646D02*
X444034Y47646D01*
X442622Y49529D02*
X442622Y45762D01*
X673006Y47646D02*
X674889Y54238D01*
X673006Y47646D02*
X677714Y47646D01*
X676302Y49529D02*
X676302Y45762D01*
D11*
X215900Y520700D03*
X215900Y495300D03*
X215900Y469900D03*
X215900Y444500D03*
X215900Y419100D03*
X215900Y393700D03*
X215900Y368300D03*
X215900Y342900D03*
X215900Y317500D03*
X215900Y292100D03*
X215900Y266700D03*
X215900Y241300D03*
X215900Y215900D03*
X215900Y190500D03*
X215900Y165100D03*
X215900Y139700D03*
X12700Y241300D03*
X12700Y266700D03*
X12700Y292100D03*
X12700Y317500D03*
X12700Y342900D03*
X12700Y368300D03*
X12700Y393700D03*
X12700Y419100D03*
X12700Y444500D03*
X12700Y469900D03*
X12700Y495300D03*
X12700Y520700D03*
X449580Y520700D03*
X449580Y495300D03*
X449580Y469900D03*
X449580Y444500D03*
X449580Y419100D03*
X449580Y393700D03*
X449580Y368300D03*
X449580Y342900D03*
X449580Y317500D03*
X449580Y292100D03*
X449580Y266700D03*
X449580Y241300D03*
X449580Y215900D03*
X449580Y190500D03*
X449580Y165100D03*
X449580Y139700D03*
X246380Y241300D03*
X246380Y266700D03*
X246380Y292100D03*
X246380Y317500D03*
X246380Y342900D03*
X246380Y368300D03*
X246380Y393700D03*
X246380Y419100D03*
X246380Y444500D03*
X246380Y469900D03*
X246380Y495300D03*
X246380Y520700D03*
X683260Y520700D03*
X683260Y495300D03*
X683260Y469900D03*
X683260Y444500D03*
X683260Y419100D03*
X683260Y393700D03*
X683260Y368300D03*
X683260Y342900D03*
X683260Y317500D03*
X683260Y292100D03*
X683260Y266700D03*
X683260Y241300D03*
X683260Y215900D03*
X683260Y190500D03*
X683260Y165100D03*
X683260Y139700D03*
X480060Y241300D03*
X480060Y266700D03*
X480060Y292100D03*
X480060Y317500D03*
X480060Y342900D03*
X480060Y368300D03*
X480060Y393700D03*
X480060Y419100D03*
X480060Y444500D03*
X480060Y469900D03*
X480060Y495300D03*
X480060Y520700D03*
D12*
X60500Y197000D03*
X68500Y197000D03*
X76500Y197000D03*
X84500Y197000D03*
X94500Y42500D03*
X94500Y48500D03*
X134500Y48500D03*
X134500Y42500D03*
X59500Y146000D03*
X114300Y102500D03*
X149000Y154000D03*
X161000Y154000D03*
X152000Y149000D03*
X158000Y149000D03*
X35000Y646000D03*
X120000Y346500D03*
X120500Y490500D03*
X200000Y433000D03*
X200000Y360500D03*
D13*
X215900Y165100D02*
X166100Y165100D01*
X155000Y154000D01*
D12*
X32000Y89520D03*
X51570Y443500D03*
X101000Y421000D03*
X128000Y421000D03*
X128000Y387000D03*
X101000Y387000D03*
X155000Y154000D03*
X164000Y403500D03*
X187500Y322000D03*
X141000Y509000D03*
X196000Y528000D03*
X110000Y271000D03*
X164500Y250500D03*
X88000Y250500D03*
X145000Y198500D03*
X137000Y319000D03*
X109000Y516000D03*
X57500Y549500D03*
X74000Y652000D03*
X66000Y667000D03*
X73500Y622000D03*
X153000Y651000D03*
X114000Y632000D03*
X138000Y608500D03*
X171000Y590000D03*
X212500Y589000D03*
X215000Y651500D03*
X64500Y577500D03*
X130000Y20000D03*
X148000Y28000D03*
X166500Y28000D03*
X56000Y12500D03*
X38000Y53500D03*
X12000Y48500D03*
X178000Y12000D03*
X62500Y87500D03*
X208000Y94000D03*
X223000Y330500D03*
X223000Y305000D03*
X223000Y355500D03*
X223000Y381000D03*
X223000Y406500D03*
X200000Y427000D03*
X223000Y482500D03*
X223000Y508000D03*
X201500Y514500D03*
X223000Y533500D03*
X29000Y493000D03*
X6000Y254000D03*
X6000Y279500D03*
X100500Y206000D03*
D14*
X202000Y405000D03*
X162000Y513000D03*
X111000Y197500D03*
X163500Y458000D03*
D15*
X181790Y476290D02*
X196890Y476290D01*
X215900Y495300D01*
X181790Y476290D02*
X163500Y458000D01*
D14*
X170500Y458000D03*
D15*
X204000Y458000D01*
X215900Y469900D01*
D14*
X39000Y84000D03*
X45500Y227000D03*
X43336Y308164D03*
X39000Y74000D03*
X40500Y230000D03*
X38967Y312534D03*
X208500Y456000D03*
X192000Y513000D03*
X78000Y405000D03*
D15*
X198900Y301800D02*
X198900Y275300D01*
X202400Y271800D02*
X202400Y254800D01*
X215900Y241300D01*
X202400Y271800D02*
X198900Y275300D01*
X198900Y301800D02*
X193500Y307200D01*
X193500Y327000D01*
X174500Y346000D01*
X165500Y346000D01*
X156000Y355500D01*
X156000Y373520D01*
X82500Y400500D02*
X78000Y405000D01*
X82500Y400500D02*
X85500Y400500D01*
X124000Y405520D02*
X156000Y373520D01*
X124000Y405520D02*
X90520Y405520D01*
X85500Y400500D01*
D14*
X83810Y405500D03*
D15*
X88810Y414000D02*
X144000Y414000D01*
X88810Y414000D02*
X83810Y409000D01*
X83810Y405500D01*
X144000Y414000D02*
X153500Y404500D01*
X165750Y350500D02*
X175500Y350500D01*
X198500Y327500D01*
X202500Y280100D02*
X215900Y266700D01*
X165750Y350500D02*
X159000Y357250D01*
X159000Y382500D01*
X198500Y327500D02*
X198500Y310000D01*
X202500Y306000D01*
X202500Y280100D01*
X153500Y388000D02*
X153500Y404500D01*
X153500Y388000D02*
X159000Y382500D01*
D14*
X26500Y446500D03*
D15*
X37500Y451000D02*
X48500Y451000D01*
X33000Y446500D02*
X26500Y446500D01*
X33000Y446500D02*
X37500Y451000D01*
X48500Y451000D02*
X56000Y458500D01*
X111000Y458500D02*
X157500Y412000D01*
X111000Y458500D02*
X56000Y458500D01*
X202400Y329100D02*
X202400Y313100D01*
X206900Y308600D02*
X206900Y301100D01*
X215900Y292100D01*
X206900Y308600D02*
X202400Y313100D01*
X202400Y329100D02*
X177500Y354000D01*
X162000Y385000D02*
X157500Y389500D01*
X162000Y359500D02*
X167500Y354000D01*
X177500Y354000D01*
X157500Y389500D02*
X157500Y412000D01*
X162000Y385000D02*
X162000Y359500D01*
D14*
X19515Y457690D03*
D15*
X25205Y452000D01*
X33500Y452000D01*
X36500Y455000D01*
X46500Y455000D01*
X54000Y462500D01*
X113900Y462500D02*
X186500Y389900D01*
X113900Y462500D02*
X54000Y462500D01*
X186500Y389900D02*
X186500Y350400D01*
X206900Y330000D02*
X206900Y326500D01*
X215900Y317500D01*
X206900Y330000D02*
X186500Y350400D01*
D14*
X26825Y456608D03*
D15*
X32325Y456608D01*
X34825Y459108D01*
X45608Y459108D01*
X53000Y466500D01*
X114800Y466500D02*
X190000Y391300D01*
X114800Y466500D02*
X53000Y466500D01*
X190000Y391300D02*
X190000Y353000D01*
X200100Y342900D01*
X215900Y342900D01*
D14*
X24500Y462000D03*
D15*
X31000Y462000D02*
X32500Y463500D01*
X31000Y462000D02*
X24500Y462000D01*
X32500Y463500D02*
X45000Y463500D01*
X52000Y470500D01*
X115500Y470500D02*
X193900Y392100D01*
X115500Y470500D02*
X52000Y470500D01*
X193900Y392100D02*
X193900Y374800D01*
X200400Y368300D02*
X215900Y368300D01*
X200400Y368300D02*
X193900Y374800D01*
X21200Y326000D02*
X12700Y317500D01*
X96500Y336500D02*
X96500Y343500D01*
X58500Y381500D01*
X86000Y326000D02*
X21200Y326000D01*
D14*
X110500Y433000D03*
X154500Y491000D03*
D15*
X58500Y409807D02*
X58500Y381500D01*
X96500Y336500D02*
X86000Y326000D01*
X102807Y433000D02*
X100287Y435520D01*
X102807Y433000D02*
X110500Y433000D01*
X84214Y435520D02*
X58500Y409807D01*
X84214Y435520D02*
X100287Y435520D01*
D14*
X84000Y339000D03*
X78203Y341420D03*
X72000Y341420D03*
X66003Y339997D03*
D15*
X65997Y339997D01*
X57223Y335710D02*
X54710Y338223D01*
X43500Y368500D02*
X37000Y368500D01*
X32020Y373480D01*
X65997Y339997D02*
X61710Y335710D01*
X57223Y335710D01*
X54710Y338223D02*
X54710Y357290D01*
X43500Y368500D01*
X32020Y399780D02*
X12700Y419100D01*
X32020Y399780D02*
X32020Y373480D01*
D14*
X59000Y340000D03*
D15*
X25180Y441520D02*
X22200Y444500D01*
X12700Y444500D01*
X28287Y441520D02*
X32000Y437807D01*
X28287Y441520D02*
X25180Y441520D01*
X37500Y376000D02*
X43500Y376000D01*
X59000Y360500D01*
X59000Y340000D01*
X34420Y379080D02*
X34420Y404774D01*
X32000Y407194D01*
X34420Y379080D02*
X37500Y376000D01*
X32000Y407194D02*
X32000Y437807D01*
X12700Y469900D02*
X27300Y484500D01*
X114000Y484500D01*
X173000Y425500D01*
X178500Y425500D01*
X189000Y415000D01*
X189000Y403000D01*
D14*
X199500Y377500D03*
D15*
X199500Y386000D01*
X198000Y387500D01*
X198000Y394000D02*
X189000Y403000D01*
X198000Y394000D02*
X198000Y387500D01*
D14*
X180534Y434534D03*
D15*
X202900Y507700D02*
X215900Y520700D01*
X180534Y434534D02*
X170034Y434534D01*
X157284Y447284D01*
X157284Y459284D01*
X202900Y494400D02*
X202900Y507700D01*
X202900Y494400D02*
X191500Y483000D01*
X181000Y483000D01*
X157284Y459284D01*
D12*
X110500Y289500D03*
X114332Y78368D03*
X109500Y312500D03*
X68000Y118000D03*
X28000Y127000D03*
X10000Y127670D03*
X32000Y157000D03*
X25500Y184500D03*
X51500Y211000D03*
X51500Y205000D03*
X107000Y148500D03*
X100000Y148500D03*
X93000Y148500D03*
X86000Y148500D03*
X176500Y140000D03*
X100332Y83368D03*
X62000Y62000D03*
X140832Y78368D03*
X178832Y61868D03*
X51500Y158500D03*
X100500Y185500D03*
X100500Y191500D03*
X70000Y405000D03*
X26000Y436000D03*
X179000Y445500D03*
X114000Y497000D03*
X182277Y328321D03*
X200000Y352500D03*
X119500Y369000D03*
X136500Y385000D03*
X139500Y404480D03*
X97500Y430000D03*
X15500Y672000D03*
X41500Y666500D03*
X42000Y651500D03*
X42000Y637000D03*
X42000Y622000D03*
X73500Y567000D03*
X131000Y430500D03*
X152000Y604000D03*
X153000Y673000D03*
X120000Y521500D03*
X86500Y391500D03*
X48000Y504000D03*
X39000Y65000D03*
X222000Y126500D03*
X155000Y466500D03*
X47500Y535500D03*
X127500Y673000D03*
D14*
X25500Y192000D03*
X25500Y177000D03*
X106300Y48000D03*
X117300Y48000D03*
D12*
X71100Y52826D03*
X157500Y52826D03*
X157500Y11026D03*
X71100Y11026D03*
D14*
X148000Y35500D03*
X166500Y35500D03*
X80000Y39500D03*
X62500Y39500D03*
X151000Y555000D03*
X74000Y504500D03*
X151000Y568500D03*
X151000Y542000D03*
X74500Y490500D03*
X80500Y516500D03*
X97784Y401217D03*
X172500Y496000D03*
X196000Y470000D03*
X169000Y490500D03*
X197500Y500000D03*
X192500Y607000D03*
X122000Y575500D03*
X137000Y575500D03*
D12*
X26000Y427000D03*
D14*
X57000Y595500D03*
X97000Y504500D03*
X192500Y637000D03*
X103000Y511000D03*
X192500Y666500D03*
X180000Y463000D03*
X192500Y622000D03*
X179536Y452697D03*
D12*
X51700Y397500D03*
X53080Y414080D03*
D14*
X91500Y314000D03*
X103500Y302500D03*
X89000Y300000D03*
X82000Y300000D03*
X89000Y293000D03*
X57000Y268000D03*
X40000Y285000D03*
X74000Y252000D03*
X102000Y279000D03*
X66000Y311500D03*
X117500Y302500D03*
X129000Y313500D03*
X164500Y265500D03*
X180000Y282000D03*
X147000Y249000D03*
X118500Y279000D03*
X151500Y311000D03*
D12*
X108000Y346500D03*
X108000Y490500D03*
X48000Y333000D03*
X57500Y540500D03*
D16*
X132000Y190500D02*
X215900Y190500D01*
X132000Y190500D02*
X89000Y233500D01*
D12*
X89000Y233500D03*
D14*
X173500Y373000D03*
X168500Y370000D03*
X160074Y338574D03*
X198500Y400000D03*
X181000Y377500D03*
X180500Y385000D03*
X66500Y75000D03*
X202790Y389000D03*
X188500Y315000D03*
X205000Y125000D03*
X198500Y410000D03*
X192500Y651500D03*
X17040Y127500D03*
X145469Y398469D03*
X172217Y338217D03*
X166000Y389500D03*
D12*
X61004Y444025D03*
D16*
X67479Y450500D01*
X105000Y450500D02*
X120000Y435500D01*
X120000Y429000D01*
X114500Y423500D01*
D12*
X114500Y423500D03*
X133000Y201500D03*
D16*
X105000Y450500D02*
X67479Y450500D01*
D14*
X30500Y227000D03*
X63500Y345710D03*
D15*
X30500Y253606D02*
X30500Y227000D01*
X25000Y259106D02*
X25000Y305000D01*
D14*
X25000Y305000D03*
D15*
X25000Y259106D02*
X30500Y253606D01*
D14*
X85500Y419500D03*
X29000Y467000D03*
X13000Y590000D03*
X86500Y495500D03*
X36500Y590000D03*
X81500Y490500D03*
X22000Y591000D03*
X35500Y673000D03*
X13000Y616500D03*
X93500Y490000D03*
X137500Y361000D03*
X143522Y367140D03*
X149000Y372500D03*
X142217Y470784D03*
X149500Y460500D03*
X92000Y499000D03*
X55500Y373000D03*
X59500Y368500D03*
X63500Y364000D03*
X67500Y359500D03*
X72000Y354500D03*
X173000Y450000D03*
X172000Y443500D03*
X51270Y377000D03*
X51500Y150500D03*
X67500Y350000D03*
D15*
X44980Y157214D02*
X51597Y150597D01*
X51500Y150500D01*
X44980Y157214D02*
X44980Y217980D01*
X51500Y224500D01*
X51500Y239000D01*
D14*
X30500Y317000D03*
D15*
X28400Y300000D02*
X28400Y262100D01*
X28400Y300000D02*
X30500Y302100D01*
X30500Y317000D01*
X28400Y262100D02*
X51500Y239000D01*
D12*
X76458Y69730D03*
D14*
X122000Y139140D03*
X129070Y339000D03*
X176000Y418500D03*
X134108Y505608D03*
X109000Y604000D03*
D12*
X26500Y390000D03*
X85000Y319230D03*
D14*
X177790Y390543D03*
X128778Y352222D03*
X133000Y356500D03*
X51270Y433000D03*
X121500Y510000D03*
X127000Y505500D03*
X134000Y498000D03*
X176165Y438882D03*
X167500Y447500D03*
D12*
X294180Y197000D03*
X302180Y197000D03*
X310180Y197000D03*
X318180Y197000D03*
X328180Y42500D03*
X328180Y48500D03*
X368180Y48500D03*
X368180Y42500D03*
X293180Y146000D03*
X347980Y102500D03*
X382680Y154000D03*
X394680Y154000D03*
X385680Y149000D03*
X391680Y149000D03*
X268680Y646000D03*
X353680Y346500D03*
X354180Y490500D03*
X433680Y433000D03*
X433680Y360500D03*
D13*
X449580Y165100D02*
X399780Y165100D01*
X388680Y154000D01*
D12*
X265680Y89520D03*
X285250Y443500D03*
X334680Y421000D03*
X361680Y421000D03*
X361680Y387000D03*
X334680Y387000D03*
X388680Y154000D03*
X397680Y403500D03*
X421180Y322000D03*
X374680Y509000D03*
X429680Y528000D03*
X343680Y271000D03*
X398180Y250500D03*
X321680Y250500D03*
X378680Y198500D03*
X370680Y319000D03*
X342680Y516000D03*
X291180Y549500D03*
X307680Y652000D03*
X299680Y667000D03*
X307180Y622000D03*
X386680Y651000D03*
X347680Y632000D03*
X371680Y608500D03*
X404680Y590000D03*
X446180Y589000D03*
X448680Y651500D03*
X298180Y577500D03*
X363680Y20000D03*
X381680Y28000D03*
X400180Y28000D03*
X289680Y12500D03*
X271680Y53500D03*
X245680Y48500D03*
X411680Y12000D03*
X296180Y87500D03*
X441680Y94000D03*
X456680Y330500D03*
X456680Y305000D03*
X456680Y355500D03*
X456680Y381000D03*
X456680Y406500D03*
X433680Y427000D03*
X456680Y482500D03*
X456680Y508000D03*
X435180Y514500D03*
X456680Y533500D03*
X262680Y493000D03*
X239680Y254000D03*
X239680Y279500D03*
X334180Y206000D03*
D14*
X435680Y405000D03*
X395680Y513000D03*
X344680Y197500D03*
X397180Y458000D03*
D15*
X415470Y476290D02*
X430570Y476290D01*
X449580Y495300D01*
X415470Y476290D02*
X397180Y458000D01*
D14*
X404180Y458000D03*
D15*
X437680Y458000D01*
X449580Y469900D01*
D14*
X272680Y84000D03*
X279180Y227000D03*
X277016Y308164D03*
X272680Y74000D03*
X274180Y230000D03*
X272647Y312534D03*
X442180Y456000D03*
X425680Y513000D03*
X311680Y405000D03*
D15*
X432580Y301800D02*
X432580Y275300D01*
X436080Y271800D02*
X436080Y254800D01*
X449580Y241300D01*
X436080Y271800D02*
X432580Y275300D01*
X432580Y301800D02*
X427180Y307200D01*
X427180Y327000D01*
X408180Y346000D01*
X399180Y346000D01*
X389680Y355500D01*
X389680Y373520D01*
X316180Y400500D02*
X311680Y405000D01*
X316180Y400500D02*
X319180Y400500D01*
X357680Y405520D02*
X389680Y373520D01*
X357680Y405520D02*
X324200Y405520D01*
X319180Y400500D01*
D14*
X317490Y405500D03*
D15*
X322490Y414000D02*
X377680Y414000D01*
X322490Y414000D02*
X317490Y409000D01*
X317490Y405500D01*
X377680Y414000D02*
X387180Y404500D01*
X399430Y350500D02*
X409180Y350500D01*
X432180Y327500D01*
X436180Y280100D02*
X449580Y266700D01*
X399430Y350500D02*
X392680Y357250D01*
X392680Y382500D01*
X432180Y327500D02*
X432180Y310000D01*
X436180Y306000D01*
X436180Y280100D01*
X387180Y388000D02*
X387180Y404500D01*
X387180Y388000D02*
X392680Y382500D01*
D14*
X260180Y446500D03*
D15*
X271180Y451000D02*
X282180Y451000D01*
X266680Y446500D02*
X260180Y446500D01*
X266680Y446500D02*
X271180Y451000D01*
X282180Y451000D02*
X289680Y458500D01*
X344680Y458500D02*
X391180Y412000D01*
X344680Y458500D02*
X289680Y458500D01*
X436080Y329100D02*
X436080Y313100D01*
X440580Y308600D02*
X440580Y301100D01*
X449580Y292100D01*
X440580Y308600D02*
X436080Y313100D01*
X436080Y329100D02*
X411180Y354000D01*
X395680Y385000D02*
X391180Y389500D01*
X395680Y359500D02*
X401180Y354000D01*
X411180Y354000D01*
X391180Y389500D02*
X391180Y412000D01*
X395680Y385000D02*
X395680Y359500D01*
D14*
X253195Y457690D03*
D15*
X258885Y452000D01*
X267180Y452000D01*
X270180Y455000D01*
X280180Y455000D01*
X287680Y462500D01*
X347580Y462500D02*
X420180Y389900D01*
X347580Y462500D02*
X287680Y462500D01*
X420180Y389900D02*
X420180Y350400D01*
X440580Y330000D02*
X440580Y326500D01*
X449580Y317500D01*
X440580Y330000D02*
X420180Y350400D01*
D14*
X260505Y456608D03*
D15*
X266005Y456608D01*
X268505Y459108D01*
X279288Y459108D01*
X286680Y466500D01*
X348480Y466500D02*
X423680Y391300D01*
X348480Y466500D02*
X286680Y466500D01*
X423680Y391300D02*
X423680Y353000D01*
X433780Y342900D01*
X449580Y342900D01*
D14*
X258180Y462000D03*
D15*
X264680Y462000D02*
X266180Y463500D01*
X264680Y462000D02*
X258180Y462000D01*
X266180Y463500D02*
X278680Y463500D01*
X285680Y470500D01*
X349180Y470500D02*
X427580Y392100D01*
X349180Y470500D02*
X285680Y470500D01*
X427580Y392100D02*
X427580Y374800D01*
X434080Y368300D02*
X449580Y368300D01*
X434080Y368300D02*
X427580Y374800D01*
X254880Y326000D02*
X246380Y317500D01*
X330180Y336500D02*
X330180Y343500D01*
X292180Y381500D01*
X319680Y326000D02*
X254880Y326000D01*
D14*
X344180Y433000D03*
X388180Y491000D03*
D15*
X292180Y409807D02*
X292180Y381500D01*
X330180Y336500D02*
X319680Y326000D01*
X336487Y433000D02*
X333967Y435520D01*
X336487Y433000D02*
X344180Y433000D01*
X317894Y435520D02*
X292180Y409807D01*
X317894Y435520D02*
X333967Y435520D01*
D14*
X317680Y339000D03*
X311883Y341420D03*
X305680Y341420D03*
X299683Y339997D03*
D15*
X299677Y339997D01*
X290903Y335710D02*
X288390Y338223D01*
X277180Y368500D02*
X270680Y368500D01*
X265700Y373480D01*
X299677Y339997D02*
X295390Y335710D01*
X290903Y335710D01*
X288390Y338223D02*
X288390Y357290D01*
X277180Y368500D01*
X265700Y399780D02*
X246380Y419100D01*
X265700Y399780D02*
X265700Y373480D01*
D14*
X292680Y340000D03*
D15*
X258860Y441520D02*
X255880Y444500D01*
X246380Y444500D01*
X261967Y441520D02*
X265680Y437807D01*
X261967Y441520D02*
X258860Y441520D01*
X271180Y376000D02*
X277180Y376000D01*
X292680Y360500D01*
X292680Y340000D01*
X268100Y379080D02*
X268100Y404774D01*
X265680Y407194D01*
X268100Y379080D02*
X271180Y376000D01*
X265680Y407194D02*
X265680Y437807D01*
X246380Y469900D02*
X260980Y484500D01*
X347680Y484500D01*
X406680Y425500D01*
X412180Y425500D01*
X422680Y415000D01*
X422680Y403000D01*
D14*
X433180Y377500D03*
D15*
X433180Y386000D01*
X431680Y387500D01*
X431680Y394000D02*
X422680Y403000D01*
X431680Y394000D02*
X431680Y387500D01*
D14*
X414214Y434534D03*
D15*
X436580Y507700D02*
X449580Y520700D01*
X414214Y434534D02*
X403714Y434534D01*
X390964Y447284D01*
X390964Y459284D01*
X436580Y494400D02*
X436580Y507700D01*
X436580Y494400D02*
X425180Y483000D01*
X414680Y483000D01*
X390964Y459284D01*
D12*
X344180Y289500D03*
X348012Y78368D03*
X343180Y312500D03*
X301680Y118000D03*
X261680Y127000D03*
X243680Y127670D03*
X265680Y157000D03*
X259180Y184500D03*
X285180Y211000D03*
X285180Y205000D03*
X340680Y148500D03*
X333680Y148500D03*
X326680Y148500D03*
X319680Y148500D03*
X410180Y140000D03*
X334012Y83368D03*
X295680Y62000D03*
X374512Y78368D03*
X412512Y61868D03*
X285180Y158500D03*
X334180Y185500D03*
X334180Y191500D03*
X303680Y405000D03*
X259680Y436000D03*
X412680Y445500D03*
X347680Y497000D03*
X415957Y328321D03*
X433680Y352500D03*
X353180Y369000D03*
X370180Y385000D03*
X373180Y404480D03*
X331180Y430000D03*
X249180Y672000D03*
X275180Y666500D03*
X275680Y651500D03*
X275680Y637000D03*
X275680Y622000D03*
X307180Y567000D03*
X364680Y430500D03*
X385680Y604000D03*
X386680Y673000D03*
X353680Y521500D03*
X320180Y391500D03*
X281680Y504000D03*
X272680Y65000D03*
X455680Y126500D03*
X388680Y466500D03*
X281180Y535500D03*
X361180Y673000D03*
D14*
X259180Y192000D03*
X259180Y177000D03*
X339980Y48000D03*
X350980Y48000D03*
D12*
X304780Y52826D03*
X391180Y52826D03*
X391180Y11026D03*
X304780Y11026D03*
D14*
X381680Y35500D03*
X400180Y35500D03*
X313680Y39500D03*
X296180Y39500D03*
X384680Y555000D03*
X307680Y504500D03*
X384680Y568500D03*
X384680Y542000D03*
X308180Y490500D03*
X314180Y516500D03*
X331464Y401217D03*
X406180Y496000D03*
X429680Y470000D03*
X402680Y490500D03*
X431180Y500000D03*
X426180Y607000D03*
X355680Y575500D03*
X370680Y575500D03*
D12*
X259680Y427000D03*
D14*
X290680Y595500D03*
X330680Y504500D03*
X426180Y637000D03*
X336680Y511000D03*
X426180Y666500D03*
X413680Y463000D03*
X426180Y622000D03*
X413216Y452697D03*
D12*
X285380Y397500D03*
X286760Y414080D03*
D14*
X325180Y314000D03*
X337180Y302500D03*
X322680Y300000D03*
X315680Y300000D03*
X322680Y293000D03*
X290680Y268000D03*
X273680Y285000D03*
X307680Y252000D03*
X335680Y279000D03*
X299680Y311500D03*
X351180Y302500D03*
X362680Y313500D03*
X398180Y265500D03*
X413680Y282000D03*
X380680Y249000D03*
X352180Y279000D03*
X385180Y311000D03*
D12*
X341680Y346500D03*
X341680Y490500D03*
X281680Y333000D03*
X291180Y540500D03*
D16*
X365680Y190500D02*
X449580Y190500D01*
X365680Y190500D02*
X322680Y233500D01*
D12*
X322680Y233500D03*
D14*
X407180Y373000D03*
X402180Y370000D03*
X393754Y338574D03*
X432180Y400000D03*
X414680Y377500D03*
X414180Y385000D03*
X300180Y75000D03*
X436470Y389000D03*
X422180Y315000D03*
X438680Y125000D03*
X432180Y410000D03*
X426180Y651500D03*
X250720Y127500D03*
X379149Y398469D03*
X405897Y338217D03*
X399680Y389500D03*
D12*
X294684Y444025D03*
D16*
X301159Y450500D01*
X338680Y450500D02*
X353680Y435500D01*
X353680Y429000D01*
X348180Y423500D01*
D12*
X348180Y423500D03*
X366680Y201500D03*
D16*
X338680Y450500D02*
X301159Y450500D01*
D14*
X264180Y227000D03*
X297180Y345710D03*
D15*
X264180Y253606D02*
X264180Y227000D01*
X258680Y259106D02*
X258680Y305000D01*
D14*
X258680Y305000D03*
D15*
X258680Y259106D02*
X264180Y253606D01*
D14*
X319180Y419500D03*
X262680Y467000D03*
X246680Y590000D03*
X320180Y495500D03*
X270180Y590000D03*
X315180Y490500D03*
X255680Y591000D03*
X269180Y673000D03*
X246680Y616500D03*
X327180Y490000D03*
X371180Y361000D03*
X377202Y367140D03*
X382680Y372500D03*
X375897Y470784D03*
X383180Y460500D03*
X325680Y499000D03*
X289180Y373000D03*
X293180Y368500D03*
X297180Y364000D03*
X301180Y359500D03*
X305680Y354500D03*
X406680Y450000D03*
X405680Y443500D03*
X284950Y377000D03*
X285180Y150500D03*
X301180Y350000D03*
D15*
X278660Y157214D02*
X285277Y150597D01*
X285180Y150500D01*
X278660Y157214D02*
X278660Y217980D01*
X285180Y224500D01*
X285180Y239000D01*
D14*
X264180Y317000D03*
D15*
X262080Y300000D02*
X262080Y262100D01*
X262080Y300000D02*
X264180Y302100D01*
X264180Y317000D01*
X262080Y262100D02*
X285180Y239000D01*
D12*
X310138Y69730D03*
D14*
X355680Y139140D03*
X362750Y339000D03*
X409680Y418500D03*
X367788Y505608D03*
X342680Y604000D03*
D12*
X260180Y390000D03*
X318680Y319230D03*
D14*
X411470Y390543D03*
X362458Y352222D03*
X366680Y356500D03*
X284950Y433000D03*
X355180Y510000D03*
X360680Y505500D03*
X367680Y498000D03*
X409845Y438882D03*
X401180Y447500D03*
D12*
X527860Y197000D03*
X535860Y197000D03*
X543860Y197000D03*
X551860Y197000D03*
X561860Y42500D03*
X561860Y48500D03*
X601860Y48500D03*
X601860Y42500D03*
X526860Y146000D03*
X581660Y102500D03*
X616360Y154000D03*
X628360Y154000D03*
X619360Y149000D03*
X625360Y149000D03*
X502360Y646000D03*
X587360Y346500D03*
X587860Y490500D03*
X667360Y433000D03*
X667360Y360500D03*
D13*
X683260Y165100D02*
X633460Y165100D01*
X622360Y154000D01*
D12*
X499360Y89520D03*
X518930Y443500D03*
X568360Y421000D03*
X595360Y421000D03*
X595360Y387000D03*
X568360Y387000D03*
X622360Y154000D03*
X631360Y403500D03*
X654860Y322000D03*
X608360Y509000D03*
X663360Y528000D03*
X577360Y271000D03*
X631860Y250500D03*
X555360Y250500D03*
X612360Y198500D03*
X604360Y319000D03*
X576360Y516000D03*
X524860Y549500D03*
X541360Y652000D03*
X533360Y667000D03*
X540860Y622000D03*
X620360Y651000D03*
X581360Y632000D03*
X605360Y608500D03*
X638360Y590000D03*
X679860Y589000D03*
X682360Y651500D03*
X531860Y577500D03*
X597360Y20000D03*
X615360Y28000D03*
X633860Y28000D03*
X523360Y12500D03*
X505360Y53500D03*
X479360Y48500D03*
X645360Y12000D03*
X529860Y87500D03*
X675360Y94000D03*
X690360Y330500D03*
X690360Y305000D03*
X690360Y355500D03*
X690360Y381000D03*
X690360Y406500D03*
X667360Y427000D03*
X690360Y482500D03*
X690360Y508000D03*
X668860Y514500D03*
X690360Y533500D03*
X496360Y493000D03*
X473360Y254000D03*
X473360Y279500D03*
X567860Y206000D03*
D14*
X669360Y405000D03*
X629360Y513000D03*
X578360Y197500D03*
X630860Y458000D03*
D15*
X649150Y476290D02*
X664250Y476290D01*
X683260Y495300D01*
X649150Y476290D02*
X630860Y458000D01*
D14*
X637860Y458000D03*
D15*
X671360Y458000D01*
X683260Y469900D01*
D14*
X506360Y84000D03*
X512860Y227000D03*
X510696Y308164D03*
X506360Y74000D03*
X507860Y230000D03*
X506327Y312534D03*
X675860Y456000D03*
X659360Y513000D03*
X545360Y405000D03*
D15*
X666260Y301800D02*
X666260Y275300D01*
X669760Y271800D02*
X669760Y254800D01*
X683260Y241300D01*
X669760Y271800D02*
X666260Y275300D01*
X666260Y301800D02*
X660860Y307200D01*
X660860Y327000D01*
X641860Y346000D01*
X632860Y346000D01*
X623360Y355500D01*
X623360Y373520D01*
X549860Y400500D02*
X545360Y405000D01*
X549860Y400500D02*
X552860Y400500D01*
X591360Y405520D02*
X623360Y373520D01*
X591360Y405520D02*
X557880Y405520D01*
X552860Y400500D01*
D14*
X551170Y405500D03*
D15*
X556170Y414000D02*
X611360Y414000D01*
X556170Y414000D02*
X551170Y409000D01*
X551170Y405500D01*
X611360Y414000D02*
X620860Y404500D01*
X633110Y350500D02*
X642860Y350500D01*
X665860Y327500D01*
X669860Y280100D02*
X683260Y266700D01*
X633110Y350500D02*
X626360Y357250D01*
X626360Y382500D01*
X665860Y327500D02*
X665860Y310000D01*
X669860Y306000D01*
X669860Y280100D01*
X620860Y388000D02*
X620860Y404500D01*
X620860Y388000D02*
X626360Y382500D01*
D14*
X493860Y446500D03*
D15*
X504860Y451000D02*
X515860Y451000D01*
X500360Y446500D02*
X493860Y446500D01*
X500360Y446500D02*
X504860Y451000D01*
X515860Y451000D02*
X523360Y458500D01*
X578360Y458500D02*
X624860Y412000D01*
X578360Y458500D02*
X523360Y458500D01*
X669760Y329100D02*
X669760Y313100D01*
X674260Y308600D02*
X674260Y301100D01*
X683260Y292100D01*
X674260Y308600D02*
X669760Y313100D01*
X669760Y329100D02*
X644860Y354000D01*
X629360Y385000D02*
X624860Y389500D01*
X629360Y359500D02*
X634860Y354000D01*
X644860Y354000D01*
X624860Y389500D02*
X624860Y412000D01*
X629360Y385000D02*
X629360Y359500D01*
D14*
X486875Y457690D03*
D15*
X492565Y452000D01*
X500860Y452000D01*
X503860Y455000D01*
X513860Y455000D01*
X521360Y462500D01*
X581260Y462500D02*
X653860Y389900D01*
X581260Y462500D02*
X521360Y462500D01*
X653860Y389900D02*
X653860Y350400D01*
X674260Y330000D02*
X674260Y326500D01*
X683260Y317500D01*
X674260Y330000D02*
X653860Y350400D01*
D14*
X494185Y456608D03*
D15*
X499685Y456608D01*
X502185Y459108D01*
X512968Y459108D01*
X520360Y466500D01*
X582160Y466500D02*
X657360Y391300D01*
X582160Y466500D02*
X520360Y466500D01*
X657360Y391300D02*
X657360Y353000D01*
X667460Y342900D01*
X683260Y342900D01*
D14*
X491860Y462000D03*
D15*
X498360Y462000D02*
X499860Y463500D01*
X498360Y462000D02*
X491860Y462000D01*
X499860Y463500D02*
X512360Y463500D01*
X519360Y470500D01*
X582860Y470500D02*
X661260Y392100D01*
X582860Y470500D02*
X519360Y470500D01*
X661260Y392100D02*
X661260Y374800D01*
X667760Y368300D02*
X683260Y368300D01*
X667760Y368300D02*
X661260Y374800D01*
X488560Y326000D02*
X480060Y317500D01*
X563860Y336500D02*
X563860Y343500D01*
X525860Y381500D01*
X553360Y326000D02*
X488560Y326000D01*
D14*
X577860Y433000D03*
X621860Y491000D03*
D15*
X525860Y409807D02*
X525860Y381500D01*
X563860Y336500D02*
X553360Y326000D01*
X570167Y433000D02*
X567647Y435520D01*
X570167Y433000D02*
X577860Y433000D01*
X551574Y435520D02*
X525860Y409807D01*
X551574Y435520D02*
X567647Y435520D01*
D14*
X551360Y339000D03*
X545563Y341420D03*
X539360Y341420D03*
X533363Y339997D03*
D15*
X533357Y339997D01*
X524583Y335710D02*
X522070Y338223D01*
X510860Y368500D02*
X504360Y368500D01*
X499380Y373480D01*
X533357Y339997D02*
X529070Y335710D01*
X524583Y335710D01*
X522070Y338223D02*
X522070Y357290D01*
X510860Y368500D01*
X499380Y399780D02*
X480060Y419100D01*
X499380Y399780D02*
X499380Y373480D01*
D14*
X526360Y340000D03*
D15*
X492540Y441520D02*
X489560Y444500D01*
X480060Y444500D01*
X495647Y441520D02*
X499360Y437807D01*
X495647Y441520D02*
X492540Y441520D01*
X504860Y376000D02*
X510860Y376000D01*
X526360Y360500D01*
X526360Y340000D01*
X501780Y379080D02*
X501780Y404774D01*
X499360Y407194D01*
X501780Y379080D02*
X504860Y376000D01*
X499360Y407194D02*
X499360Y437807D01*
X480060Y469900D02*
X494660Y484500D01*
X581360Y484500D01*
X640360Y425500D01*
X645860Y425500D01*
X656360Y415000D01*
X656360Y403000D01*
D14*
X666860Y377500D03*
D15*
X666860Y386000D01*
X665360Y387500D01*
X665360Y394000D02*
X656360Y403000D01*
X665360Y394000D02*
X665360Y387500D01*
D14*
X647894Y434534D03*
D15*
X670260Y507700D02*
X683260Y520700D01*
X647894Y434534D02*
X637394Y434534D01*
X624644Y447284D01*
X624644Y459284D01*
X670260Y494400D02*
X670260Y507700D01*
X670260Y494400D02*
X658860Y483000D01*
X648360Y483000D01*
X624644Y459284D01*
D12*
X577860Y289500D03*
X581692Y78368D03*
X576860Y312500D03*
X535360Y118000D03*
X495360Y127000D03*
X477360Y127670D03*
X499360Y157000D03*
X492860Y184500D03*
X518860Y211000D03*
X518860Y205000D03*
X574360Y148500D03*
X567360Y148500D03*
X560360Y148500D03*
X553360Y148500D03*
X643860Y140000D03*
X567692Y83368D03*
X529360Y62000D03*
X608192Y78368D03*
X646192Y61868D03*
X518860Y158500D03*
X567860Y185500D03*
X567860Y191500D03*
X537360Y405000D03*
X493360Y436000D03*
X646360Y445500D03*
X581360Y497000D03*
X649637Y328321D03*
X667360Y352500D03*
X586860Y369000D03*
X603860Y385000D03*
X606860Y404480D03*
X564860Y430000D03*
X482860Y672000D03*
X508860Y666500D03*
X509360Y651500D03*
X509360Y637000D03*
X509360Y622000D03*
X540860Y567000D03*
X598360Y430500D03*
X619360Y604000D03*
X620360Y673000D03*
X587360Y521500D03*
X553860Y391500D03*
X515360Y504000D03*
X506360Y65000D03*
X689360Y126500D03*
X622360Y466500D03*
X514860Y535500D03*
X594860Y673000D03*
D14*
X492860Y192000D03*
X492860Y177000D03*
X573660Y48000D03*
X584660Y48000D03*
D12*
X538460Y52826D03*
X624860Y52826D03*
X624860Y11026D03*
X538460Y11026D03*
D14*
X615360Y35500D03*
X633860Y35500D03*
X547360Y39500D03*
X529860Y39500D03*
X618360Y555000D03*
X541360Y504500D03*
X618360Y568500D03*
X618360Y542000D03*
X541860Y490500D03*
X547860Y516500D03*
X565144Y401217D03*
X639860Y496000D03*
X663360Y470000D03*
X636360Y490500D03*
X664860Y500000D03*
X659860Y607000D03*
X589360Y575500D03*
X604360Y575500D03*
D12*
X493360Y427000D03*
D14*
X524360Y595500D03*
X564360Y504500D03*
X659860Y637000D03*
X570360Y511000D03*
X659860Y666500D03*
X647360Y463000D03*
X659860Y622000D03*
X646896Y452697D03*
D12*
X519060Y397500D03*
X520440Y414080D03*
D14*
X558860Y314000D03*
X570860Y302500D03*
X556360Y300000D03*
X549360Y300000D03*
X556360Y293000D03*
X524360Y268000D03*
X507360Y285000D03*
X541360Y252000D03*
X569360Y279000D03*
X533360Y311500D03*
X584860Y302500D03*
X596360Y313500D03*
X631860Y265500D03*
X647360Y282000D03*
X614360Y249000D03*
X585860Y279000D03*
X618860Y311000D03*
D12*
X575360Y346500D03*
X575360Y490500D03*
X515360Y333000D03*
X524860Y540500D03*
D16*
X599360Y190500D02*
X683260Y190500D01*
X599360Y190500D02*
X556360Y233500D01*
D12*
X556360Y233500D03*
D14*
X640860Y373000D03*
X635860Y370000D03*
X627434Y338574D03*
X665860Y400000D03*
X648360Y377500D03*
X647860Y385000D03*
X533860Y75000D03*
X670150Y389000D03*
X655860Y315000D03*
X672360Y125000D03*
X665860Y410000D03*
X659860Y651500D03*
X484400Y127500D03*
X612829Y398469D03*
X639577Y338217D03*
X633360Y389500D03*
D12*
X528364Y444025D03*
D16*
X534839Y450500D01*
X572360Y450500D02*
X587360Y435500D01*
X587360Y429000D01*
X581860Y423500D01*
D12*
X581860Y423500D03*
X600360Y201500D03*
D16*
X572360Y450500D02*
X534839Y450500D01*
D14*
X497860Y227000D03*
X530860Y345710D03*
D15*
X497860Y253606D02*
X497860Y227000D01*
X492360Y259106D02*
X492360Y305000D01*
D14*
X492360Y305000D03*
D15*
X492360Y259106D02*
X497860Y253606D01*
D14*
X552860Y419500D03*
X496360Y467000D03*
X480360Y590000D03*
X553860Y495500D03*
X503860Y590000D03*
X548860Y490500D03*
X489360Y591000D03*
X502860Y673000D03*
X480360Y616500D03*
X560860Y490000D03*
X604860Y361000D03*
X610882Y367140D03*
X616360Y372500D03*
X609577Y470784D03*
X616860Y460500D03*
X559360Y499000D03*
X522860Y373000D03*
X526860Y368500D03*
X530860Y364000D03*
X534860Y359500D03*
X539360Y354500D03*
X640360Y450000D03*
X639360Y443500D03*
X518630Y377000D03*
X518860Y150500D03*
X534860Y350000D03*
D15*
X512340Y157214D02*
X518957Y150597D01*
X518860Y150500D01*
X512340Y157214D02*
X512340Y217980D01*
X518860Y224500D01*
X518860Y239000D01*
D14*
X497860Y317000D03*
D15*
X495760Y300000D02*
X495760Y262100D01*
X495760Y300000D02*
X497860Y302100D01*
X497860Y317000D01*
X495760Y262100D02*
X518860Y239000D01*
D12*
X543818Y69730D03*
D14*
X589360Y139140D03*
X596430Y339000D03*
X643360Y418500D03*
X601468Y505608D03*
X576360Y604000D03*
D12*
X493860Y390000D03*
X552360Y319230D03*
D14*
X645150Y390543D03*
X596138Y352222D03*
X600360Y356500D03*
X518630Y433000D03*
X588860Y510000D03*
X594360Y505500D03*
X601360Y498000D03*
X643525Y438882D03*
X634860Y447500D03*
M02*
